G04 #@! TF.GenerationSoftware,KiCad,Pcbnew,(5.1.5)-3*
G04 #@! TF.CreationDate,2021-04-30T10:03:26+01:00*
G04 #@! TF.ProjectId,CurrentShuntCircuit,43757272-656e-4745-9368-756e74436972,1*
G04 #@! TF.SameCoordinates,Original*
G04 #@! TF.FileFunction,Paste,Bot*
G04 #@! TF.FilePolarity,Positive*
%FSLAX46Y46*%
G04 Gerber Fmt 4.6, Leading zero omitted, Abs format (unit mm)*
G04 Created by KiCad (PCBNEW (5.1.5)-3) date 2021-04-30 10:03:26*
%MOMM*%
%LPD*%
G04 APERTURE LIST*
%ADD10C,0.100000*%
%ADD11R,2.000000X0.640000*%
%ADD12R,1.800000X2.500000*%
G04 APERTURE END LIST*
D10*
G36*
X187744504Y-104166204D02*
G01*
X187768773Y-104169804D01*
X187792571Y-104175765D01*
X187815671Y-104184030D01*
X187837849Y-104194520D01*
X187858893Y-104207133D01*
X187878598Y-104221747D01*
X187896777Y-104238223D01*
X187913253Y-104256402D01*
X187927867Y-104276107D01*
X187940480Y-104297151D01*
X187950970Y-104319329D01*
X187959235Y-104342429D01*
X187965196Y-104366227D01*
X187968796Y-104390496D01*
X187970000Y-104415000D01*
X187970000Y-105365000D01*
X187968796Y-105389504D01*
X187965196Y-105413773D01*
X187959235Y-105437571D01*
X187950970Y-105460671D01*
X187940480Y-105482849D01*
X187927867Y-105503893D01*
X187913253Y-105523598D01*
X187896777Y-105541777D01*
X187878598Y-105558253D01*
X187858893Y-105572867D01*
X187837849Y-105585480D01*
X187815671Y-105595970D01*
X187792571Y-105604235D01*
X187768773Y-105610196D01*
X187744504Y-105613796D01*
X187720000Y-105615000D01*
X187220000Y-105615000D01*
X187195496Y-105613796D01*
X187171227Y-105610196D01*
X187147429Y-105604235D01*
X187124329Y-105595970D01*
X187102151Y-105585480D01*
X187081107Y-105572867D01*
X187061402Y-105558253D01*
X187043223Y-105541777D01*
X187026747Y-105523598D01*
X187012133Y-105503893D01*
X186999520Y-105482849D01*
X186989030Y-105460671D01*
X186980765Y-105437571D01*
X186974804Y-105413773D01*
X186971204Y-105389504D01*
X186970000Y-105365000D01*
X186970000Y-104415000D01*
X186971204Y-104390496D01*
X186974804Y-104366227D01*
X186980765Y-104342429D01*
X186989030Y-104319329D01*
X186999520Y-104297151D01*
X187012133Y-104276107D01*
X187026747Y-104256402D01*
X187043223Y-104238223D01*
X187061402Y-104221747D01*
X187081107Y-104207133D01*
X187102151Y-104194520D01*
X187124329Y-104184030D01*
X187147429Y-104175765D01*
X187171227Y-104169804D01*
X187195496Y-104166204D01*
X187220000Y-104165000D01*
X187720000Y-104165000D01*
X187744504Y-104166204D01*
G37*
G36*
X189644504Y-104166204D02*
G01*
X189668773Y-104169804D01*
X189692571Y-104175765D01*
X189715671Y-104184030D01*
X189737849Y-104194520D01*
X189758893Y-104207133D01*
X189778598Y-104221747D01*
X189796777Y-104238223D01*
X189813253Y-104256402D01*
X189827867Y-104276107D01*
X189840480Y-104297151D01*
X189850970Y-104319329D01*
X189859235Y-104342429D01*
X189865196Y-104366227D01*
X189868796Y-104390496D01*
X189870000Y-104415000D01*
X189870000Y-105365000D01*
X189868796Y-105389504D01*
X189865196Y-105413773D01*
X189859235Y-105437571D01*
X189850970Y-105460671D01*
X189840480Y-105482849D01*
X189827867Y-105503893D01*
X189813253Y-105523598D01*
X189796777Y-105541777D01*
X189778598Y-105558253D01*
X189758893Y-105572867D01*
X189737849Y-105585480D01*
X189715671Y-105595970D01*
X189692571Y-105604235D01*
X189668773Y-105610196D01*
X189644504Y-105613796D01*
X189620000Y-105615000D01*
X189120000Y-105615000D01*
X189095496Y-105613796D01*
X189071227Y-105610196D01*
X189047429Y-105604235D01*
X189024329Y-105595970D01*
X189002151Y-105585480D01*
X188981107Y-105572867D01*
X188961402Y-105558253D01*
X188943223Y-105541777D01*
X188926747Y-105523598D01*
X188912133Y-105503893D01*
X188899520Y-105482849D01*
X188889030Y-105460671D01*
X188880765Y-105437571D01*
X188874804Y-105413773D01*
X188871204Y-105389504D01*
X188870000Y-105365000D01*
X188870000Y-104415000D01*
X188871204Y-104390496D01*
X188874804Y-104366227D01*
X188880765Y-104342429D01*
X188889030Y-104319329D01*
X188899520Y-104297151D01*
X188912133Y-104276107D01*
X188926747Y-104256402D01*
X188943223Y-104238223D01*
X188961402Y-104221747D01*
X188981107Y-104207133D01*
X189002151Y-104194520D01*
X189024329Y-104184030D01*
X189047429Y-104175765D01*
X189071227Y-104169804D01*
X189095496Y-104166204D01*
X189120000Y-104165000D01*
X189620000Y-104165000D01*
X189644504Y-104166204D01*
G37*
G36*
X165269505Y-117671204D02*
G01*
X165293773Y-117674804D01*
X165317572Y-117680765D01*
X165340671Y-117689030D01*
X165362850Y-117699520D01*
X165383893Y-117712132D01*
X165403599Y-117726747D01*
X165421777Y-117743223D01*
X165438253Y-117761401D01*
X165452868Y-117781107D01*
X165465480Y-117802150D01*
X165475970Y-117824329D01*
X165484235Y-117847428D01*
X165490196Y-117871227D01*
X165493796Y-117895495D01*
X165495000Y-117919999D01*
X165495000Y-118820001D01*
X165493796Y-118844505D01*
X165490196Y-118868773D01*
X165484235Y-118892572D01*
X165475970Y-118915671D01*
X165465480Y-118937850D01*
X165452868Y-118958893D01*
X165438253Y-118978599D01*
X165421777Y-118996777D01*
X165403599Y-119013253D01*
X165383893Y-119027868D01*
X165362850Y-119040480D01*
X165340671Y-119050970D01*
X165317572Y-119059235D01*
X165293773Y-119065196D01*
X165269505Y-119068796D01*
X165245001Y-119070000D01*
X164719999Y-119070000D01*
X164695495Y-119068796D01*
X164671227Y-119065196D01*
X164647428Y-119059235D01*
X164624329Y-119050970D01*
X164602150Y-119040480D01*
X164581107Y-119027868D01*
X164561401Y-119013253D01*
X164543223Y-118996777D01*
X164526747Y-118978599D01*
X164512132Y-118958893D01*
X164499520Y-118937850D01*
X164489030Y-118915671D01*
X164480765Y-118892572D01*
X164474804Y-118868773D01*
X164471204Y-118844505D01*
X164470000Y-118820001D01*
X164470000Y-117919999D01*
X164471204Y-117895495D01*
X164474804Y-117871227D01*
X164480765Y-117847428D01*
X164489030Y-117824329D01*
X164499520Y-117802150D01*
X164512132Y-117781107D01*
X164526747Y-117761401D01*
X164543223Y-117743223D01*
X164561401Y-117726747D01*
X164581107Y-117712132D01*
X164602150Y-117699520D01*
X164624329Y-117689030D01*
X164647428Y-117680765D01*
X164671227Y-117674804D01*
X164695495Y-117671204D01*
X164719999Y-117670000D01*
X165245001Y-117670000D01*
X165269505Y-117671204D01*
G37*
G36*
X163444505Y-117671204D02*
G01*
X163468773Y-117674804D01*
X163492572Y-117680765D01*
X163515671Y-117689030D01*
X163537850Y-117699520D01*
X163558893Y-117712132D01*
X163578599Y-117726747D01*
X163596777Y-117743223D01*
X163613253Y-117761401D01*
X163627868Y-117781107D01*
X163640480Y-117802150D01*
X163650970Y-117824329D01*
X163659235Y-117847428D01*
X163665196Y-117871227D01*
X163668796Y-117895495D01*
X163670000Y-117919999D01*
X163670000Y-118820001D01*
X163668796Y-118844505D01*
X163665196Y-118868773D01*
X163659235Y-118892572D01*
X163650970Y-118915671D01*
X163640480Y-118937850D01*
X163627868Y-118958893D01*
X163613253Y-118978599D01*
X163596777Y-118996777D01*
X163578599Y-119013253D01*
X163558893Y-119027868D01*
X163537850Y-119040480D01*
X163515671Y-119050970D01*
X163492572Y-119059235D01*
X163468773Y-119065196D01*
X163444505Y-119068796D01*
X163420001Y-119070000D01*
X162894999Y-119070000D01*
X162870495Y-119068796D01*
X162846227Y-119065196D01*
X162822428Y-119059235D01*
X162799329Y-119050970D01*
X162777150Y-119040480D01*
X162756107Y-119027868D01*
X162736401Y-119013253D01*
X162718223Y-118996777D01*
X162701747Y-118978599D01*
X162687132Y-118958893D01*
X162674520Y-118937850D01*
X162664030Y-118915671D01*
X162655765Y-118892572D01*
X162649804Y-118868773D01*
X162646204Y-118844505D01*
X162645000Y-118820001D01*
X162645000Y-117919999D01*
X162646204Y-117895495D01*
X162649804Y-117871227D01*
X162655765Y-117847428D01*
X162664030Y-117824329D01*
X162674520Y-117802150D01*
X162687132Y-117781107D01*
X162701747Y-117761401D01*
X162718223Y-117743223D01*
X162736401Y-117726747D01*
X162756107Y-117712132D01*
X162777150Y-117699520D01*
X162799329Y-117689030D01*
X162822428Y-117680765D01*
X162846227Y-117674804D01*
X162870495Y-117671204D01*
X162894999Y-117670000D01*
X163420001Y-117670000D01*
X163444505Y-117671204D01*
G37*
D11*
X199690000Y-124050000D03*
X199690000Y-121510000D03*
X193390000Y-121510000D03*
X193390000Y-124050000D03*
D10*
G36*
X212534802Y-107805482D02*
G01*
X212544509Y-107806921D01*
X212554028Y-107809306D01*
X212563268Y-107812612D01*
X212572140Y-107816808D01*
X212580557Y-107821853D01*
X212588439Y-107827699D01*
X212595711Y-107834289D01*
X212602301Y-107841561D01*
X212608147Y-107849443D01*
X212613192Y-107857860D01*
X212617388Y-107866732D01*
X212620694Y-107875972D01*
X212623079Y-107885491D01*
X212624518Y-107895198D01*
X212625000Y-107905000D01*
X212625000Y-108105000D01*
X212624518Y-108114802D01*
X212623079Y-108124509D01*
X212620694Y-108134028D01*
X212617388Y-108143268D01*
X212613192Y-108152140D01*
X212608147Y-108160557D01*
X212602301Y-108168439D01*
X212595711Y-108175711D01*
X212588439Y-108182301D01*
X212580557Y-108188147D01*
X212572140Y-108193192D01*
X212563268Y-108197388D01*
X212554028Y-108200694D01*
X212544509Y-108203079D01*
X212534802Y-108204518D01*
X212525000Y-108205000D01*
X211100000Y-108205000D01*
X211090198Y-108204518D01*
X211080491Y-108203079D01*
X211070972Y-108200694D01*
X211061732Y-108197388D01*
X211052860Y-108193192D01*
X211044443Y-108188147D01*
X211036561Y-108182301D01*
X211029289Y-108175711D01*
X211022699Y-108168439D01*
X211016853Y-108160557D01*
X211011808Y-108152140D01*
X211007612Y-108143268D01*
X211004306Y-108134028D01*
X211001921Y-108124509D01*
X211000482Y-108114802D01*
X211000000Y-108105000D01*
X211000000Y-107905000D01*
X211000482Y-107895198D01*
X211001921Y-107885491D01*
X211004306Y-107875972D01*
X211007612Y-107866732D01*
X211011808Y-107857860D01*
X211016853Y-107849443D01*
X211022699Y-107841561D01*
X211029289Y-107834289D01*
X211036561Y-107827699D01*
X211044443Y-107821853D01*
X211052860Y-107816808D01*
X211061732Y-107812612D01*
X211070972Y-107809306D01*
X211080491Y-107806921D01*
X211090198Y-107805482D01*
X211100000Y-107805000D01*
X212525000Y-107805000D01*
X212534802Y-107805482D01*
G37*
G36*
X212534802Y-107155482D02*
G01*
X212544509Y-107156921D01*
X212554028Y-107159306D01*
X212563268Y-107162612D01*
X212572140Y-107166808D01*
X212580557Y-107171853D01*
X212588439Y-107177699D01*
X212595711Y-107184289D01*
X212602301Y-107191561D01*
X212608147Y-107199443D01*
X212613192Y-107207860D01*
X212617388Y-107216732D01*
X212620694Y-107225972D01*
X212623079Y-107235491D01*
X212624518Y-107245198D01*
X212625000Y-107255000D01*
X212625000Y-107455000D01*
X212624518Y-107464802D01*
X212623079Y-107474509D01*
X212620694Y-107484028D01*
X212617388Y-107493268D01*
X212613192Y-107502140D01*
X212608147Y-107510557D01*
X212602301Y-107518439D01*
X212595711Y-107525711D01*
X212588439Y-107532301D01*
X212580557Y-107538147D01*
X212572140Y-107543192D01*
X212563268Y-107547388D01*
X212554028Y-107550694D01*
X212544509Y-107553079D01*
X212534802Y-107554518D01*
X212525000Y-107555000D01*
X211100000Y-107555000D01*
X211090198Y-107554518D01*
X211080491Y-107553079D01*
X211070972Y-107550694D01*
X211061732Y-107547388D01*
X211052860Y-107543192D01*
X211044443Y-107538147D01*
X211036561Y-107532301D01*
X211029289Y-107525711D01*
X211022699Y-107518439D01*
X211016853Y-107510557D01*
X211011808Y-107502140D01*
X211007612Y-107493268D01*
X211004306Y-107484028D01*
X211001921Y-107474509D01*
X211000482Y-107464802D01*
X211000000Y-107455000D01*
X211000000Y-107255000D01*
X211000482Y-107245198D01*
X211001921Y-107235491D01*
X211004306Y-107225972D01*
X211007612Y-107216732D01*
X211011808Y-107207860D01*
X211016853Y-107199443D01*
X211022699Y-107191561D01*
X211029289Y-107184289D01*
X211036561Y-107177699D01*
X211044443Y-107171853D01*
X211052860Y-107166808D01*
X211061732Y-107162612D01*
X211070972Y-107159306D01*
X211080491Y-107156921D01*
X211090198Y-107155482D01*
X211100000Y-107155000D01*
X212525000Y-107155000D01*
X212534802Y-107155482D01*
G37*
G36*
X212534802Y-106505482D02*
G01*
X212544509Y-106506921D01*
X212554028Y-106509306D01*
X212563268Y-106512612D01*
X212572140Y-106516808D01*
X212580557Y-106521853D01*
X212588439Y-106527699D01*
X212595711Y-106534289D01*
X212602301Y-106541561D01*
X212608147Y-106549443D01*
X212613192Y-106557860D01*
X212617388Y-106566732D01*
X212620694Y-106575972D01*
X212623079Y-106585491D01*
X212624518Y-106595198D01*
X212625000Y-106605000D01*
X212625000Y-106805000D01*
X212624518Y-106814802D01*
X212623079Y-106824509D01*
X212620694Y-106834028D01*
X212617388Y-106843268D01*
X212613192Y-106852140D01*
X212608147Y-106860557D01*
X212602301Y-106868439D01*
X212595711Y-106875711D01*
X212588439Y-106882301D01*
X212580557Y-106888147D01*
X212572140Y-106893192D01*
X212563268Y-106897388D01*
X212554028Y-106900694D01*
X212544509Y-106903079D01*
X212534802Y-106904518D01*
X212525000Y-106905000D01*
X211100000Y-106905000D01*
X211090198Y-106904518D01*
X211080491Y-106903079D01*
X211070972Y-106900694D01*
X211061732Y-106897388D01*
X211052860Y-106893192D01*
X211044443Y-106888147D01*
X211036561Y-106882301D01*
X211029289Y-106875711D01*
X211022699Y-106868439D01*
X211016853Y-106860557D01*
X211011808Y-106852140D01*
X211007612Y-106843268D01*
X211004306Y-106834028D01*
X211001921Y-106824509D01*
X211000482Y-106814802D01*
X211000000Y-106805000D01*
X211000000Y-106605000D01*
X211000482Y-106595198D01*
X211001921Y-106585491D01*
X211004306Y-106575972D01*
X211007612Y-106566732D01*
X211011808Y-106557860D01*
X211016853Y-106549443D01*
X211022699Y-106541561D01*
X211029289Y-106534289D01*
X211036561Y-106527699D01*
X211044443Y-106521853D01*
X211052860Y-106516808D01*
X211061732Y-106512612D01*
X211070972Y-106509306D01*
X211080491Y-106506921D01*
X211090198Y-106505482D01*
X211100000Y-106505000D01*
X212525000Y-106505000D01*
X212534802Y-106505482D01*
G37*
G36*
X212534802Y-105855482D02*
G01*
X212544509Y-105856921D01*
X212554028Y-105859306D01*
X212563268Y-105862612D01*
X212572140Y-105866808D01*
X212580557Y-105871853D01*
X212588439Y-105877699D01*
X212595711Y-105884289D01*
X212602301Y-105891561D01*
X212608147Y-105899443D01*
X212613192Y-105907860D01*
X212617388Y-105916732D01*
X212620694Y-105925972D01*
X212623079Y-105935491D01*
X212624518Y-105945198D01*
X212625000Y-105955000D01*
X212625000Y-106155000D01*
X212624518Y-106164802D01*
X212623079Y-106174509D01*
X212620694Y-106184028D01*
X212617388Y-106193268D01*
X212613192Y-106202140D01*
X212608147Y-106210557D01*
X212602301Y-106218439D01*
X212595711Y-106225711D01*
X212588439Y-106232301D01*
X212580557Y-106238147D01*
X212572140Y-106243192D01*
X212563268Y-106247388D01*
X212554028Y-106250694D01*
X212544509Y-106253079D01*
X212534802Y-106254518D01*
X212525000Y-106255000D01*
X211100000Y-106255000D01*
X211090198Y-106254518D01*
X211080491Y-106253079D01*
X211070972Y-106250694D01*
X211061732Y-106247388D01*
X211052860Y-106243192D01*
X211044443Y-106238147D01*
X211036561Y-106232301D01*
X211029289Y-106225711D01*
X211022699Y-106218439D01*
X211016853Y-106210557D01*
X211011808Y-106202140D01*
X211007612Y-106193268D01*
X211004306Y-106184028D01*
X211001921Y-106174509D01*
X211000482Y-106164802D01*
X211000000Y-106155000D01*
X211000000Y-105955000D01*
X211000482Y-105945198D01*
X211001921Y-105935491D01*
X211004306Y-105925972D01*
X211007612Y-105916732D01*
X211011808Y-105907860D01*
X211016853Y-105899443D01*
X211022699Y-105891561D01*
X211029289Y-105884289D01*
X211036561Y-105877699D01*
X211044443Y-105871853D01*
X211052860Y-105866808D01*
X211061732Y-105862612D01*
X211070972Y-105859306D01*
X211080491Y-105856921D01*
X211090198Y-105855482D01*
X211100000Y-105855000D01*
X212525000Y-105855000D01*
X212534802Y-105855482D01*
G37*
G36*
X208309802Y-105855482D02*
G01*
X208319509Y-105856921D01*
X208329028Y-105859306D01*
X208338268Y-105862612D01*
X208347140Y-105866808D01*
X208355557Y-105871853D01*
X208363439Y-105877699D01*
X208370711Y-105884289D01*
X208377301Y-105891561D01*
X208383147Y-105899443D01*
X208388192Y-105907860D01*
X208392388Y-105916732D01*
X208395694Y-105925972D01*
X208398079Y-105935491D01*
X208399518Y-105945198D01*
X208400000Y-105955000D01*
X208400000Y-106155000D01*
X208399518Y-106164802D01*
X208398079Y-106174509D01*
X208395694Y-106184028D01*
X208392388Y-106193268D01*
X208388192Y-106202140D01*
X208383147Y-106210557D01*
X208377301Y-106218439D01*
X208370711Y-106225711D01*
X208363439Y-106232301D01*
X208355557Y-106238147D01*
X208347140Y-106243192D01*
X208338268Y-106247388D01*
X208329028Y-106250694D01*
X208319509Y-106253079D01*
X208309802Y-106254518D01*
X208300000Y-106255000D01*
X206875000Y-106255000D01*
X206865198Y-106254518D01*
X206855491Y-106253079D01*
X206845972Y-106250694D01*
X206836732Y-106247388D01*
X206827860Y-106243192D01*
X206819443Y-106238147D01*
X206811561Y-106232301D01*
X206804289Y-106225711D01*
X206797699Y-106218439D01*
X206791853Y-106210557D01*
X206786808Y-106202140D01*
X206782612Y-106193268D01*
X206779306Y-106184028D01*
X206776921Y-106174509D01*
X206775482Y-106164802D01*
X206775000Y-106155000D01*
X206775000Y-105955000D01*
X206775482Y-105945198D01*
X206776921Y-105935491D01*
X206779306Y-105925972D01*
X206782612Y-105916732D01*
X206786808Y-105907860D01*
X206791853Y-105899443D01*
X206797699Y-105891561D01*
X206804289Y-105884289D01*
X206811561Y-105877699D01*
X206819443Y-105871853D01*
X206827860Y-105866808D01*
X206836732Y-105862612D01*
X206845972Y-105859306D01*
X206855491Y-105856921D01*
X206865198Y-105855482D01*
X206875000Y-105855000D01*
X208300000Y-105855000D01*
X208309802Y-105855482D01*
G37*
G36*
X208309802Y-106505482D02*
G01*
X208319509Y-106506921D01*
X208329028Y-106509306D01*
X208338268Y-106512612D01*
X208347140Y-106516808D01*
X208355557Y-106521853D01*
X208363439Y-106527699D01*
X208370711Y-106534289D01*
X208377301Y-106541561D01*
X208383147Y-106549443D01*
X208388192Y-106557860D01*
X208392388Y-106566732D01*
X208395694Y-106575972D01*
X208398079Y-106585491D01*
X208399518Y-106595198D01*
X208400000Y-106605000D01*
X208400000Y-106805000D01*
X208399518Y-106814802D01*
X208398079Y-106824509D01*
X208395694Y-106834028D01*
X208392388Y-106843268D01*
X208388192Y-106852140D01*
X208383147Y-106860557D01*
X208377301Y-106868439D01*
X208370711Y-106875711D01*
X208363439Y-106882301D01*
X208355557Y-106888147D01*
X208347140Y-106893192D01*
X208338268Y-106897388D01*
X208329028Y-106900694D01*
X208319509Y-106903079D01*
X208309802Y-106904518D01*
X208300000Y-106905000D01*
X206875000Y-106905000D01*
X206865198Y-106904518D01*
X206855491Y-106903079D01*
X206845972Y-106900694D01*
X206836732Y-106897388D01*
X206827860Y-106893192D01*
X206819443Y-106888147D01*
X206811561Y-106882301D01*
X206804289Y-106875711D01*
X206797699Y-106868439D01*
X206791853Y-106860557D01*
X206786808Y-106852140D01*
X206782612Y-106843268D01*
X206779306Y-106834028D01*
X206776921Y-106824509D01*
X206775482Y-106814802D01*
X206775000Y-106805000D01*
X206775000Y-106605000D01*
X206775482Y-106595198D01*
X206776921Y-106585491D01*
X206779306Y-106575972D01*
X206782612Y-106566732D01*
X206786808Y-106557860D01*
X206791853Y-106549443D01*
X206797699Y-106541561D01*
X206804289Y-106534289D01*
X206811561Y-106527699D01*
X206819443Y-106521853D01*
X206827860Y-106516808D01*
X206836732Y-106512612D01*
X206845972Y-106509306D01*
X206855491Y-106506921D01*
X206865198Y-106505482D01*
X206875000Y-106505000D01*
X208300000Y-106505000D01*
X208309802Y-106505482D01*
G37*
G36*
X208309802Y-107155482D02*
G01*
X208319509Y-107156921D01*
X208329028Y-107159306D01*
X208338268Y-107162612D01*
X208347140Y-107166808D01*
X208355557Y-107171853D01*
X208363439Y-107177699D01*
X208370711Y-107184289D01*
X208377301Y-107191561D01*
X208383147Y-107199443D01*
X208388192Y-107207860D01*
X208392388Y-107216732D01*
X208395694Y-107225972D01*
X208398079Y-107235491D01*
X208399518Y-107245198D01*
X208400000Y-107255000D01*
X208400000Y-107455000D01*
X208399518Y-107464802D01*
X208398079Y-107474509D01*
X208395694Y-107484028D01*
X208392388Y-107493268D01*
X208388192Y-107502140D01*
X208383147Y-107510557D01*
X208377301Y-107518439D01*
X208370711Y-107525711D01*
X208363439Y-107532301D01*
X208355557Y-107538147D01*
X208347140Y-107543192D01*
X208338268Y-107547388D01*
X208329028Y-107550694D01*
X208319509Y-107553079D01*
X208309802Y-107554518D01*
X208300000Y-107555000D01*
X206875000Y-107555000D01*
X206865198Y-107554518D01*
X206855491Y-107553079D01*
X206845972Y-107550694D01*
X206836732Y-107547388D01*
X206827860Y-107543192D01*
X206819443Y-107538147D01*
X206811561Y-107532301D01*
X206804289Y-107525711D01*
X206797699Y-107518439D01*
X206791853Y-107510557D01*
X206786808Y-107502140D01*
X206782612Y-107493268D01*
X206779306Y-107484028D01*
X206776921Y-107474509D01*
X206775482Y-107464802D01*
X206775000Y-107455000D01*
X206775000Y-107255000D01*
X206775482Y-107245198D01*
X206776921Y-107235491D01*
X206779306Y-107225972D01*
X206782612Y-107216732D01*
X206786808Y-107207860D01*
X206791853Y-107199443D01*
X206797699Y-107191561D01*
X206804289Y-107184289D01*
X206811561Y-107177699D01*
X206819443Y-107171853D01*
X206827860Y-107166808D01*
X206836732Y-107162612D01*
X206845972Y-107159306D01*
X206855491Y-107156921D01*
X206865198Y-107155482D01*
X206875000Y-107155000D01*
X208300000Y-107155000D01*
X208309802Y-107155482D01*
G37*
G36*
X208309802Y-107805482D02*
G01*
X208319509Y-107806921D01*
X208329028Y-107809306D01*
X208338268Y-107812612D01*
X208347140Y-107816808D01*
X208355557Y-107821853D01*
X208363439Y-107827699D01*
X208370711Y-107834289D01*
X208377301Y-107841561D01*
X208383147Y-107849443D01*
X208388192Y-107857860D01*
X208392388Y-107866732D01*
X208395694Y-107875972D01*
X208398079Y-107885491D01*
X208399518Y-107895198D01*
X208400000Y-107905000D01*
X208400000Y-108105000D01*
X208399518Y-108114802D01*
X208398079Y-108124509D01*
X208395694Y-108134028D01*
X208392388Y-108143268D01*
X208388192Y-108152140D01*
X208383147Y-108160557D01*
X208377301Y-108168439D01*
X208370711Y-108175711D01*
X208363439Y-108182301D01*
X208355557Y-108188147D01*
X208347140Y-108193192D01*
X208338268Y-108197388D01*
X208329028Y-108200694D01*
X208319509Y-108203079D01*
X208309802Y-108204518D01*
X208300000Y-108205000D01*
X206875000Y-108205000D01*
X206865198Y-108204518D01*
X206855491Y-108203079D01*
X206845972Y-108200694D01*
X206836732Y-108197388D01*
X206827860Y-108193192D01*
X206819443Y-108188147D01*
X206811561Y-108182301D01*
X206804289Y-108175711D01*
X206797699Y-108168439D01*
X206791853Y-108160557D01*
X206786808Y-108152140D01*
X206782612Y-108143268D01*
X206779306Y-108134028D01*
X206776921Y-108124509D01*
X206775482Y-108114802D01*
X206775000Y-108105000D01*
X206775000Y-107905000D01*
X206775482Y-107895198D01*
X206776921Y-107885491D01*
X206779306Y-107875972D01*
X206782612Y-107866732D01*
X206786808Y-107857860D01*
X206791853Y-107849443D01*
X206797699Y-107841561D01*
X206804289Y-107834289D01*
X206811561Y-107827699D01*
X206819443Y-107821853D01*
X206827860Y-107816808D01*
X206836732Y-107812612D01*
X206845972Y-107809306D01*
X206855491Y-107806921D01*
X206865198Y-107805482D01*
X206875000Y-107805000D01*
X208300000Y-107805000D01*
X208309802Y-107805482D01*
G37*
G36*
X156109703Y-112475722D02*
G01*
X156124264Y-112477882D01*
X156138543Y-112481459D01*
X156152403Y-112486418D01*
X156165710Y-112492712D01*
X156178336Y-112500280D01*
X156190159Y-112509048D01*
X156201066Y-112518934D01*
X156210952Y-112529841D01*
X156219720Y-112541664D01*
X156227288Y-112554290D01*
X156233582Y-112567597D01*
X156238541Y-112581457D01*
X156242118Y-112595736D01*
X156244278Y-112610297D01*
X156245000Y-112625000D01*
X156245000Y-114375000D01*
X156244278Y-114389703D01*
X156242118Y-114404264D01*
X156238541Y-114418543D01*
X156233582Y-114432403D01*
X156227288Y-114445710D01*
X156219720Y-114458336D01*
X156210952Y-114470159D01*
X156201066Y-114481066D01*
X156190159Y-114490952D01*
X156178336Y-114499720D01*
X156165710Y-114507288D01*
X156152403Y-114513582D01*
X156138543Y-114518541D01*
X156124264Y-114522118D01*
X156109703Y-114524278D01*
X156095000Y-114525000D01*
X155795000Y-114525000D01*
X155780297Y-114524278D01*
X155765736Y-114522118D01*
X155751457Y-114518541D01*
X155737597Y-114513582D01*
X155724290Y-114507288D01*
X155711664Y-114499720D01*
X155699841Y-114490952D01*
X155688934Y-114481066D01*
X155679048Y-114470159D01*
X155670280Y-114458336D01*
X155662712Y-114445710D01*
X155656418Y-114432403D01*
X155651459Y-114418543D01*
X155647882Y-114404264D01*
X155645722Y-114389703D01*
X155645000Y-114375000D01*
X155645000Y-112625000D01*
X155645722Y-112610297D01*
X155647882Y-112595736D01*
X155651459Y-112581457D01*
X155656418Y-112567597D01*
X155662712Y-112554290D01*
X155670280Y-112541664D01*
X155679048Y-112529841D01*
X155688934Y-112518934D01*
X155699841Y-112509048D01*
X155711664Y-112500280D01*
X155724290Y-112492712D01*
X155737597Y-112486418D01*
X155751457Y-112481459D01*
X155765736Y-112477882D01*
X155780297Y-112475722D01*
X155795000Y-112475000D01*
X156095000Y-112475000D01*
X156109703Y-112475722D01*
G37*
G36*
X154839703Y-112475722D02*
G01*
X154854264Y-112477882D01*
X154868543Y-112481459D01*
X154882403Y-112486418D01*
X154895710Y-112492712D01*
X154908336Y-112500280D01*
X154920159Y-112509048D01*
X154931066Y-112518934D01*
X154940952Y-112529841D01*
X154949720Y-112541664D01*
X154957288Y-112554290D01*
X154963582Y-112567597D01*
X154968541Y-112581457D01*
X154972118Y-112595736D01*
X154974278Y-112610297D01*
X154975000Y-112625000D01*
X154975000Y-114375000D01*
X154974278Y-114389703D01*
X154972118Y-114404264D01*
X154968541Y-114418543D01*
X154963582Y-114432403D01*
X154957288Y-114445710D01*
X154949720Y-114458336D01*
X154940952Y-114470159D01*
X154931066Y-114481066D01*
X154920159Y-114490952D01*
X154908336Y-114499720D01*
X154895710Y-114507288D01*
X154882403Y-114513582D01*
X154868543Y-114518541D01*
X154854264Y-114522118D01*
X154839703Y-114524278D01*
X154825000Y-114525000D01*
X154525000Y-114525000D01*
X154510297Y-114524278D01*
X154495736Y-114522118D01*
X154481457Y-114518541D01*
X154467597Y-114513582D01*
X154454290Y-114507288D01*
X154441664Y-114499720D01*
X154429841Y-114490952D01*
X154418934Y-114481066D01*
X154409048Y-114470159D01*
X154400280Y-114458336D01*
X154392712Y-114445710D01*
X154386418Y-114432403D01*
X154381459Y-114418543D01*
X154377882Y-114404264D01*
X154375722Y-114389703D01*
X154375000Y-114375000D01*
X154375000Y-112625000D01*
X154375722Y-112610297D01*
X154377882Y-112595736D01*
X154381459Y-112581457D01*
X154386418Y-112567597D01*
X154392712Y-112554290D01*
X154400280Y-112541664D01*
X154409048Y-112529841D01*
X154418934Y-112518934D01*
X154429841Y-112509048D01*
X154441664Y-112500280D01*
X154454290Y-112492712D01*
X154467597Y-112486418D01*
X154481457Y-112481459D01*
X154495736Y-112477882D01*
X154510297Y-112475722D01*
X154525000Y-112475000D01*
X154825000Y-112475000D01*
X154839703Y-112475722D01*
G37*
G36*
X153569703Y-112475722D02*
G01*
X153584264Y-112477882D01*
X153598543Y-112481459D01*
X153612403Y-112486418D01*
X153625710Y-112492712D01*
X153638336Y-112500280D01*
X153650159Y-112509048D01*
X153661066Y-112518934D01*
X153670952Y-112529841D01*
X153679720Y-112541664D01*
X153687288Y-112554290D01*
X153693582Y-112567597D01*
X153698541Y-112581457D01*
X153702118Y-112595736D01*
X153704278Y-112610297D01*
X153705000Y-112625000D01*
X153705000Y-114375000D01*
X153704278Y-114389703D01*
X153702118Y-114404264D01*
X153698541Y-114418543D01*
X153693582Y-114432403D01*
X153687288Y-114445710D01*
X153679720Y-114458336D01*
X153670952Y-114470159D01*
X153661066Y-114481066D01*
X153650159Y-114490952D01*
X153638336Y-114499720D01*
X153625710Y-114507288D01*
X153612403Y-114513582D01*
X153598543Y-114518541D01*
X153584264Y-114522118D01*
X153569703Y-114524278D01*
X153555000Y-114525000D01*
X153255000Y-114525000D01*
X153240297Y-114524278D01*
X153225736Y-114522118D01*
X153211457Y-114518541D01*
X153197597Y-114513582D01*
X153184290Y-114507288D01*
X153171664Y-114499720D01*
X153159841Y-114490952D01*
X153148934Y-114481066D01*
X153139048Y-114470159D01*
X153130280Y-114458336D01*
X153122712Y-114445710D01*
X153116418Y-114432403D01*
X153111459Y-114418543D01*
X153107882Y-114404264D01*
X153105722Y-114389703D01*
X153105000Y-114375000D01*
X153105000Y-112625000D01*
X153105722Y-112610297D01*
X153107882Y-112595736D01*
X153111459Y-112581457D01*
X153116418Y-112567597D01*
X153122712Y-112554290D01*
X153130280Y-112541664D01*
X153139048Y-112529841D01*
X153148934Y-112518934D01*
X153159841Y-112509048D01*
X153171664Y-112500280D01*
X153184290Y-112492712D01*
X153197597Y-112486418D01*
X153211457Y-112481459D01*
X153225736Y-112477882D01*
X153240297Y-112475722D01*
X153255000Y-112475000D01*
X153555000Y-112475000D01*
X153569703Y-112475722D01*
G37*
G36*
X152299703Y-112475722D02*
G01*
X152314264Y-112477882D01*
X152328543Y-112481459D01*
X152342403Y-112486418D01*
X152355710Y-112492712D01*
X152368336Y-112500280D01*
X152380159Y-112509048D01*
X152391066Y-112518934D01*
X152400952Y-112529841D01*
X152409720Y-112541664D01*
X152417288Y-112554290D01*
X152423582Y-112567597D01*
X152428541Y-112581457D01*
X152432118Y-112595736D01*
X152434278Y-112610297D01*
X152435000Y-112625000D01*
X152435000Y-114375000D01*
X152434278Y-114389703D01*
X152432118Y-114404264D01*
X152428541Y-114418543D01*
X152423582Y-114432403D01*
X152417288Y-114445710D01*
X152409720Y-114458336D01*
X152400952Y-114470159D01*
X152391066Y-114481066D01*
X152380159Y-114490952D01*
X152368336Y-114499720D01*
X152355710Y-114507288D01*
X152342403Y-114513582D01*
X152328543Y-114518541D01*
X152314264Y-114522118D01*
X152299703Y-114524278D01*
X152285000Y-114525000D01*
X151985000Y-114525000D01*
X151970297Y-114524278D01*
X151955736Y-114522118D01*
X151941457Y-114518541D01*
X151927597Y-114513582D01*
X151914290Y-114507288D01*
X151901664Y-114499720D01*
X151889841Y-114490952D01*
X151878934Y-114481066D01*
X151869048Y-114470159D01*
X151860280Y-114458336D01*
X151852712Y-114445710D01*
X151846418Y-114432403D01*
X151841459Y-114418543D01*
X151837882Y-114404264D01*
X151835722Y-114389703D01*
X151835000Y-114375000D01*
X151835000Y-112625000D01*
X151835722Y-112610297D01*
X151837882Y-112595736D01*
X151841459Y-112581457D01*
X151846418Y-112567597D01*
X151852712Y-112554290D01*
X151860280Y-112541664D01*
X151869048Y-112529841D01*
X151878934Y-112518934D01*
X151889841Y-112509048D01*
X151901664Y-112500280D01*
X151914290Y-112492712D01*
X151927597Y-112486418D01*
X151941457Y-112481459D01*
X151955736Y-112477882D01*
X151970297Y-112475722D01*
X151985000Y-112475000D01*
X152285000Y-112475000D01*
X152299703Y-112475722D01*
G37*
G36*
X151029703Y-112475722D02*
G01*
X151044264Y-112477882D01*
X151058543Y-112481459D01*
X151072403Y-112486418D01*
X151085710Y-112492712D01*
X151098336Y-112500280D01*
X151110159Y-112509048D01*
X151121066Y-112518934D01*
X151130952Y-112529841D01*
X151139720Y-112541664D01*
X151147288Y-112554290D01*
X151153582Y-112567597D01*
X151158541Y-112581457D01*
X151162118Y-112595736D01*
X151164278Y-112610297D01*
X151165000Y-112625000D01*
X151165000Y-114375000D01*
X151164278Y-114389703D01*
X151162118Y-114404264D01*
X151158541Y-114418543D01*
X151153582Y-114432403D01*
X151147288Y-114445710D01*
X151139720Y-114458336D01*
X151130952Y-114470159D01*
X151121066Y-114481066D01*
X151110159Y-114490952D01*
X151098336Y-114499720D01*
X151085710Y-114507288D01*
X151072403Y-114513582D01*
X151058543Y-114518541D01*
X151044264Y-114522118D01*
X151029703Y-114524278D01*
X151015000Y-114525000D01*
X150715000Y-114525000D01*
X150700297Y-114524278D01*
X150685736Y-114522118D01*
X150671457Y-114518541D01*
X150657597Y-114513582D01*
X150644290Y-114507288D01*
X150631664Y-114499720D01*
X150619841Y-114490952D01*
X150608934Y-114481066D01*
X150599048Y-114470159D01*
X150590280Y-114458336D01*
X150582712Y-114445710D01*
X150576418Y-114432403D01*
X150571459Y-114418543D01*
X150567882Y-114404264D01*
X150565722Y-114389703D01*
X150565000Y-114375000D01*
X150565000Y-112625000D01*
X150565722Y-112610297D01*
X150567882Y-112595736D01*
X150571459Y-112581457D01*
X150576418Y-112567597D01*
X150582712Y-112554290D01*
X150590280Y-112541664D01*
X150599048Y-112529841D01*
X150608934Y-112518934D01*
X150619841Y-112509048D01*
X150631664Y-112500280D01*
X150644290Y-112492712D01*
X150657597Y-112486418D01*
X150671457Y-112481459D01*
X150685736Y-112477882D01*
X150700297Y-112475722D01*
X150715000Y-112475000D01*
X151015000Y-112475000D01*
X151029703Y-112475722D01*
G37*
G36*
X149759703Y-112475722D02*
G01*
X149774264Y-112477882D01*
X149788543Y-112481459D01*
X149802403Y-112486418D01*
X149815710Y-112492712D01*
X149828336Y-112500280D01*
X149840159Y-112509048D01*
X149851066Y-112518934D01*
X149860952Y-112529841D01*
X149869720Y-112541664D01*
X149877288Y-112554290D01*
X149883582Y-112567597D01*
X149888541Y-112581457D01*
X149892118Y-112595736D01*
X149894278Y-112610297D01*
X149895000Y-112625000D01*
X149895000Y-114375000D01*
X149894278Y-114389703D01*
X149892118Y-114404264D01*
X149888541Y-114418543D01*
X149883582Y-114432403D01*
X149877288Y-114445710D01*
X149869720Y-114458336D01*
X149860952Y-114470159D01*
X149851066Y-114481066D01*
X149840159Y-114490952D01*
X149828336Y-114499720D01*
X149815710Y-114507288D01*
X149802403Y-114513582D01*
X149788543Y-114518541D01*
X149774264Y-114522118D01*
X149759703Y-114524278D01*
X149745000Y-114525000D01*
X149445000Y-114525000D01*
X149430297Y-114524278D01*
X149415736Y-114522118D01*
X149401457Y-114518541D01*
X149387597Y-114513582D01*
X149374290Y-114507288D01*
X149361664Y-114499720D01*
X149349841Y-114490952D01*
X149338934Y-114481066D01*
X149329048Y-114470159D01*
X149320280Y-114458336D01*
X149312712Y-114445710D01*
X149306418Y-114432403D01*
X149301459Y-114418543D01*
X149297882Y-114404264D01*
X149295722Y-114389703D01*
X149295000Y-114375000D01*
X149295000Y-112625000D01*
X149295722Y-112610297D01*
X149297882Y-112595736D01*
X149301459Y-112581457D01*
X149306418Y-112567597D01*
X149312712Y-112554290D01*
X149320280Y-112541664D01*
X149329048Y-112529841D01*
X149338934Y-112518934D01*
X149349841Y-112509048D01*
X149361664Y-112500280D01*
X149374290Y-112492712D01*
X149387597Y-112486418D01*
X149401457Y-112481459D01*
X149415736Y-112477882D01*
X149430297Y-112475722D01*
X149445000Y-112475000D01*
X149745000Y-112475000D01*
X149759703Y-112475722D01*
G37*
G36*
X148489703Y-112475722D02*
G01*
X148504264Y-112477882D01*
X148518543Y-112481459D01*
X148532403Y-112486418D01*
X148545710Y-112492712D01*
X148558336Y-112500280D01*
X148570159Y-112509048D01*
X148581066Y-112518934D01*
X148590952Y-112529841D01*
X148599720Y-112541664D01*
X148607288Y-112554290D01*
X148613582Y-112567597D01*
X148618541Y-112581457D01*
X148622118Y-112595736D01*
X148624278Y-112610297D01*
X148625000Y-112625000D01*
X148625000Y-114375000D01*
X148624278Y-114389703D01*
X148622118Y-114404264D01*
X148618541Y-114418543D01*
X148613582Y-114432403D01*
X148607288Y-114445710D01*
X148599720Y-114458336D01*
X148590952Y-114470159D01*
X148581066Y-114481066D01*
X148570159Y-114490952D01*
X148558336Y-114499720D01*
X148545710Y-114507288D01*
X148532403Y-114513582D01*
X148518543Y-114518541D01*
X148504264Y-114522118D01*
X148489703Y-114524278D01*
X148475000Y-114525000D01*
X148175000Y-114525000D01*
X148160297Y-114524278D01*
X148145736Y-114522118D01*
X148131457Y-114518541D01*
X148117597Y-114513582D01*
X148104290Y-114507288D01*
X148091664Y-114499720D01*
X148079841Y-114490952D01*
X148068934Y-114481066D01*
X148059048Y-114470159D01*
X148050280Y-114458336D01*
X148042712Y-114445710D01*
X148036418Y-114432403D01*
X148031459Y-114418543D01*
X148027882Y-114404264D01*
X148025722Y-114389703D01*
X148025000Y-114375000D01*
X148025000Y-112625000D01*
X148025722Y-112610297D01*
X148027882Y-112595736D01*
X148031459Y-112581457D01*
X148036418Y-112567597D01*
X148042712Y-112554290D01*
X148050280Y-112541664D01*
X148059048Y-112529841D01*
X148068934Y-112518934D01*
X148079841Y-112509048D01*
X148091664Y-112500280D01*
X148104290Y-112492712D01*
X148117597Y-112486418D01*
X148131457Y-112481459D01*
X148145736Y-112477882D01*
X148160297Y-112475722D01*
X148175000Y-112475000D01*
X148475000Y-112475000D01*
X148489703Y-112475722D01*
G37*
G36*
X147219703Y-112475722D02*
G01*
X147234264Y-112477882D01*
X147248543Y-112481459D01*
X147262403Y-112486418D01*
X147275710Y-112492712D01*
X147288336Y-112500280D01*
X147300159Y-112509048D01*
X147311066Y-112518934D01*
X147320952Y-112529841D01*
X147329720Y-112541664D01*
X147337288Y-112554290D01*
X147343582Y-112567597D01*
X147348541Y-112581457D01*
X147352118Y-112595736D01*
X147354278Y-112610297D01*
X147355000Y-112625000D01*
X147355000Y-114375000D01*
X147354278Y-114389703D01*
X147352118Y-114404264D01*
X147348541Y-114418543D01*
X147343582Y-114432403D01*
X147337288Y-114445710D01*
X147329720Y-114458336D01*
X147320952Y-114470159D01*
X147311066Y-114481066D01*
X147300159Y-114490952D01*
X147288336Y-114499720D01*
X147275710Y-114507288D01*
X147262403Y-114513582D01*
X147248543Y-114518541D01*
X147234264Y-114522118D01*
X147219703Y-114524278D01*
X147205000Y-114525000D01*
X146905000Y-114525000D01*
X146890297Y-114524278D01*
X146875736Y-114522118D01*
X146861457Y-114518541D01*
X146847597Y-114513582D01*
X146834290Y-114507288D01*
X146821664Y-114499720D01*
X146809841Y-114490952D01*
X146798934Y-114481066D01*
X146789048Y-114470159D01*
X146780280Y-114458336D01*
X146772712Y-114445710D01*
X146766418Y-114432403D01*
X146761459Y-114418543D01*
X146757882Y-114404264D01*
X146755722Y-114389703D01*
X146755000Y-114375000D01*
X146755000Y-112625000D01*
X146755722Y-112610297D01*
X146757882Y-112595736D01*
X146761459Y-112581457D01*
X146766418Y-112567597D01*
X146772712Y-112554290D01*
X146780280Y-112541664D01*
X146789048Y-112529841D01*
X146798934Y-112518934D01*
X146809841Y-112509048D01*
X146821664Y-112500280D01*
X146834290Y-112492712D01*
X146847597Y-112486418D01*
X146861457Y-112481459D01*
X146875736Y-112477882D01*
X146890297Y-112475722D01*
X146905000Y-112475000D01*
X147205000Y-112475000D01*
X147219703Y-112475722D01*
G37*
G36*
X147219703Y-121775722D02*
G01*
X147234264Y-121777882D01*
X147248543Y-121781459D01*
X147262403Y-121786418D01*
X147275710Y-121792712D01*
X147288336Y-121800280D01*
X147300159Y-121809048D01*
X147311066Y-121818934D01*
X147320952Y-121829841D01*
X147329720Y-121841664D01*
X147337288Y-121854290D01*
X147343582Y-121867597D01*
X147348541Y-121881457D01*
X147352118Y-121895736D01*
X147354278Y-121910297D01*
X147355000Y-121925000D01*
X147355000Y-123675000D01*
X147354278Y-123689703D01*
X147352118Y-123704264D01*
X147348541Y-123718543D01*
X147343582Y-123732403D01*
X147337288Y-123745710D01*
X147329720Y-123758336D01*
X147320952Y-123770159D01*
X147311066Y-123781066D01*
X147300159Y-123790952D01*
X147288336Y-123799720D01*
X147275710Y-123807288D01*
X147262403Y-123813582D01*
X147248543Y-123818541D01*
X147234264Y-123822118D01*
X147219703Y-123824278D01*
X147205000Y-123825000D01*
X146905000Y-123825000D01*
X146890297Y-123824278D01*
X146875736Y-123822118D01*
X146861457Y-123818541D01*
X146847597Y-123813582D01*
X146834290Y-123807288D01*
X146821664Y-123799720D01*
X146809841Y-123790952D01*
X146798934Y-123781066D01*
X146789048Y-123770159D01*
X146780280Y-123758336D01*
X146772712Y-123745710D01*
X146766418Y-123732403D01*
X146761459Y-123718543D01*
X146757882Y-123704264D01*
X146755722Y-123689703D01*
X146755000Y-123675000D01*
X146755000Y-121925000D01*
X146755722Y-121910297D01*
X146757882Y-121895736D01*
X146761459Y-121881457D01*
X146766418Y-121867597D01*
X146772712Y-121854290D01*
X146780280Y-121841664D01*
X146789048Y-121829841D01*
X146798934Y-121818934D01*
X146809841Y-121809048D01*
X146821664Y-121800280D01*
X146834290Y-121792712D01*
X146847597Y-121786418D01*
X146861457Y-121781459D01*
X146875736Y-121777882D01*
X146890297Y-121775722D01*
X146905000Y-121775000D01*
X147205000Y-121775000D01*
X147219703Y-121775722D01*
G37*
G36*
X148489703Y-121775722D02*
G01*
X148504264Y-121777882D01*
X148518543Y-121781459D01*
X148532403Y-121786418D01*
X148545710Y-121792712D01*
X148558336Y-121800280D01*
X148570159Y-121809048D01*
X148581066Y-121818934D01*
X148590952Y-121829841D01*
X148599720Y-121841664D01*
X148607288Y-121854290D01*
X148613582Y-121867597D01*
X148618541Y-121881457D01*
X148622118Y-121895736D01*
X148624278Y-121910297D01*
X148625000Y-121925000D01*
X148625000Y-123675000D01*
X148624278Y-123689703D01*
X148622118Y-123704264D01*
X148618541Y-123718543D01*
X148613582Y-123732403D01*
X148607288Y-123745710D01*
X148599720Y-123758336D01*
X148590952Y-123770159D01*
X148581066Y-123781066D01*
X148570159Y-123790952D01*
X148558336Y-123799720D01*
X148545710Y-123807288D01*
X148532403Y-123813582D01*
X148518543Y-123818541D01*
X148504264Y-123822118D01*
X148489703Y-123824278D01*
X148475000Y-123825000D01*
X148175000Y-123825000D01*
X148160297Y-123824278D01*
X148145736Y-123822118D01*
X148131457Y-123818541D01*
X148117597Y-123813582D01*
X148104290Y-123807288D01*
X148091664Y-123799720D01*
X148079841Y-123790952D01*
X148068934Y-123781066D01*
X148059048Y-123770159D01*
X148050280Y-123758336D01*
X148042712Y-123745710D01*
X148036418Y-123732403D01*
X148031459Y-123718543D01*
X148027882Y-123704264D01*
X148025722Y-123689703D01*
X148025000Y-123675000D01*
X148025000Y-121925000D01*
X148025722Y-121910297D01*
X148027882Y-121895736D01*
X148031459Y-121881457D01*
X148036418Y-121867597D01*
X148042712Y-121854290D01*
X148050280Y-121841664D01*
X148059048Y-121829841D01*
X148068934Y-121818934D01*
X148079841Y-121809048D01*
X148091664Y-121800280D01*
X148104290Y-121792712D01*
X148117597Y-121786418D01*
X148131457Y-121781459D01*
X148145736Y-121777882D01*
X148160297Y-121775722D01*
X148175000Y-121775000D01*
X148475000Y-121775000D01*
X148489703Y-121775722D01*
G37*
G36*
X149759703Y-121775722D02*
G01*
X149774264Y-121777882D01*
X149788543Y-121781459D01*
X149802403Y-121786418D01*
X149815710Y-121792712D01*
X149828336Y-121800280D01*
X149840159Y-121809048D01*
X149851066Y-121818934D01*
X149860952Y-121829841D01*
X149869720Y-121841664D01*
X149877288Y-121854290D01*
X149883582Y-121867597D01*
X149888541Y-121881457D01*
X149892118Y-121895736D01*
X149894278Y-121910297D01*
X149895000Y-121925000D01*
X149895000Y-123675000D01*
X149894278Y-123689703D01*
X149892118Y-123704264D01*
X149888541Y-123718543D01*
X149883582Y-123732403D01*
X149877288Y-123745710D01*
X149869720Y-123758336D01*
X149860952Y-123770159D01*
X149851066Y-123781066D01*
X149840159Y-123790952D01*
X149828336Y-123799720D01*
X149815710Y-123807288D01*
X149802403Y-123813582D01*
X149788543Y-123818541D01*
X149774264Y-123822118D01*
X149759703Y-123824278D01*
X149745000Y-123825000D01*
X149445000Y-123825000D01*
X149430297Y-123824278D01*
X149415736Y-123822118D01*
X149401457Y-123818541D01*
X149387597Y-123813582D01*
X149374290Y-123807288D01*
X149361664Y-123799720D01*
X149349841Y-123790952D01*
X149338934Y-123781066D01*
X149329048Y-123770159D01*
X149320280Y-123758336D01*
X149312712Y-123745710D01*
X149306418Y-123732403D01*
X149301459Y-123718543D01*
X149297882Y-123704264D01*
X149295722Y-123689703D01*
X149295000Y-123675000D01*
X149295000Y-121925000D01*
X149295722Y-121910297D01*
X149297882Y-121895736D01*
X149301459Y-121881457D01*
X149306418Y-121867597D01*
X149312712Y-121854290D01*
X149320280Y-121841664D01*
X149329048Y-121829841D01*
X149338934Y-121818934D01*
X149349841Y-121809048D01*
X149361664Y-121800280D01*
X149374290Y-121792712D01*
X149387597Y-121786418D01*
X149401457Y-121781459D01*
X149415736Y-121777882D01*
X149430297Y-121775722D01*
X149445000Y-121775000D01*
X149745000Y-121775000D01*
X149759703Y-121775722D01*
G37*
G36*
X151029703Y-121775722D02*
G01*
X151044264Y-121777882D01*
X151058543Y-121781459D01*
X151072403Y-121786418D01*
X151085710Y-121792712D01*
X151098336Y-121800280D01*
X151110159Y-121809048D01*
X151121066Y-121818934D01*
X151130952Y-121829841D01*
X151139720Y-121841664D01*
X151147288Y-121854290D01*
X151153582Y-121867597D01*
X151158541Y-121881457D01*
X151162118Y-121895736D01*
X151164278Y-121910297D01*
X151165000Y-121925000D01*
X151165000Y-123675000D01*
X151164278Y-123689703D01*
X151162118Y-123704264D01*
X151158541Y-123718543D01*
X151153582Y-123732403D01*
X151147288Y-123745710D01*
X151139720Y-123758336D01*
X151130952Y-123770159D01*
X151121066Y-123781066D01*
X151110159Y-123790952D01*
X151098336Y-123799720D01*
X151085710Y-123807288D01*
X151072403Y-123813582D01*
X151058543Y-123818541D01*
X151044264Y-123822118D01*
X151029703Y-123824278D01*
X151015000Y-123825000D01*
X150715000Y-123825000D01*
X150700297Y-123824278D01*
X150685736Y-123822118D01*
X150671457Y-123818541D01*
X150657597Y-123813582D01*
X150644290Y-123807288D01*
X150631664Y-123799720D01*
X150619841Y-123790952D01*
X150608934Y-123781066D01*
X150599048Y-123770159D01*
X150590280Y-123758336D01*
X150582712Y-123745710D01*
X150576418Y-123732403D01*
X150571459Y-123718543D01*
X150567882Y-123704264D01*
X150565722Y-123689703D01*
X150565000Y-123675000D01*
X150565000Y-121925000D01*
X150565722Y-121910297D01*
X150567882Y-121895736D01*
X150571459Y-121881457D01*
X150576418Y-121867597D01*
X150582712Y-121854290D01*
X150590280Y-121841664D01*
X150599048Y-121829841D01*
X150608934Y-121818934D01*
X150619841Y-121809048D01*
X150631664Y-121800280D01*
X150644290Y-121792712D01*
X150657597Y-121786418D01*
X150671457Y-121781459D01*
X150685736Y-121777882D01*
X150700297Y-121775722D01*
X150715000Y-121775000D01*
X151015000Y-121775000D01*
X151029703Y-121775722D01*
G37*
G36*
X152299703Y-121775722D02*
G01*
X152314264Y-121777882D01*
X152328543Y-121781459D01*
X152342403Y-121786418D01*
X152355710Y-121792712D01*
X152368336Y-121800280D01*
X152380159Y-121809048D01*
X152391066Y-121818934D01*
X152400952Y-121829841D01*
X152409720Y-121841664D01*
X152417288Y-121854290D01*
X152423582Y-121867597D01*
X152428541Y-121881457D01*
X152432118Y-121895736D01*
X152434278Y-121910297D01*
X152435000Y-121925000D01*
X152435000Y-123675000D01*
X152434278Y-123689703D01*
X152432118Y-123704264D01*
X152428541Y-123718543D01*
X152423582Y-123732403D01*
X152417288Y-123745710D01*
X152409720Y-123758336D01*
X152400952Y-123770159D01*
X152391066Y-123781066D01*
X152380159Y-123790952D01*
X152368336Y-123799720D01*
X152355710Y-123807288D01*
X152342403Y-123813582D01*
X152328543Y-123818541D01*
X152314264Y-123822118D01*
X152299703Y-123824278D01*
X152285000Y-123825000D01*
X151985000Y-123825000D01*
X151970297Y-123824278D01*
X151955736Y-123822118D01*
X151941457Y-123818541D01*
X151927597Y-123813582D01*
X151914290Y-123807288D01*
X151901664Y-123799720D01*
X151889841Y-123790952D01*
X151878934Y-123781066D01*
X151869048Y-123770159D01*
X151860280Y-123758336D01*
X151852712Y-123745710D01*
X151846418Y-123732403D01*
X151841459Y-123718543D01*
X151837882Y-123704264D01*
X151835722Y-123689703D01*
X151835000Y-123675000D01*
X151835000Y-121925000D01*
X151835722Y-121910297D01*
X151837882Y-121895736D01*
X151841459Y-121881457D01*
X151846418Y-121867597D01*
X151852712Y-121854290D01*
X151860280Y-121841664D01*
X151869048Y-121829841D01*
X151878934Y-121818934D01*
X151889841Y-121809048D01*
X151901664Y-121800280D01*
X151914290Y-121792712D01*
X151927597Y-121786418D01*
X151941457Y-121781459D01*
X151955736Y-121777882D01*
X151970297Y-121775722D01*
X151985000Y-121775000D01*
X152285000Y-121775000D01*
X152299703Y-121775722D01*
G37*
G36*
X153569703Y-121775722D02*
G01*
X153584264Y-121777882D01*
X153598543Y-121781459D01*
X153612403Y-121786418D01*
X153625710Y-121792712D01*
X153638336Y-121800280D01*
X153650159Y-121809048D01*
X153661066Y-121818934D01*
X153670952Y-121829841D01*
X153679720Y-121841664D01*
X153687288Y-121854290D01*
X153693582Y-121867597D01*
X153698541Y-121881457D01*
X153702118Y-121895736D01*
X153704278Y-121910297D01*
X153705000Y-121925000D01*
X153705000Y-123675000D01*
X153704278Y-123689703D01*
X153702118Y-123704264D01*
X153698541Y-123718543D01*
X153693582Y-123732403D01*
X153687288Y-123745710D01*
X153679720Y-123758336D01*
X153670952Y-123770159D01*
X153661066Y-123781066D01*
X153650159Y-123790952D01*
X153638336Y-123799720D01*
X153625710Y-123807288D01*
X153612403Y-123813582D01*
X153598543Y-123818541D01*
X153584264Y-123822118D01*
X153569703Y-123824278D01*
X153555000Y-123825000D01*
X153255000Y-123825000D01*
X153240297Y-123824278D01*
X153225736Y-123822118D01*
X153211457Y-123818541D01*
X153197597Y-123813582D01*
X153184290Y-123807288D01*
X153171664Y-123799720D01*
X153159841Y-123790952D01*
X153148934Y-123781066D01*
X153139048Y-123770159D01*
X153130280Y-123758336D01*
X153122712Y-123745710D01*
X153116418Y-123732403D01*
X153111459Y-123718543D01*
X153107882Y-123704264D01*
X153105722Y-123689703D01*
X153105000Y-123675000D01*
X153105000Y-121925000D01*
X153105722Y-121910297D01*
X153107882Y-121895736D01*
X153111459Y-121881457D01*
X153116418Y-121867597D01*
X153122712Y-121854290D01*
X153130280Y-121841664D01*
X153139048Y-121829841D01*
X153148934Y-121818934D01*
X153159841Y-121809048D01*
X153171664Y-121800280D01*
X153184290Y-121792712D01*
X153197597Y-121786418D01*
X153211457Y-121781459D01*
X153225736Y-121777882D01*
X153240297Y-121775722D01*
X153255000Y-121775000D01*
X153555000Y-121775000D01*
X153569703Y-121775722D01*
G37*
G36*
X154839703Y-121775722D02*
G01*
X154854264Y-121777882D01*
X154868543Y-121781459D01*
X154882403Y-121786418D01*
X154895710Y-121792712D01*
X154908336Y-121800280D01*
X154920159Y-121809048D01*
X154931066Y-121818934D01*
X154940952Y-121829841D01*
X154949720Y-121841664D01*
X154957288Y-121854290D01*
X154963582Y-121867597D01*
X154968541Y-121881457D01*
X154972118Y-121895736D01*
X154974278Y-121910297D01*
X154975000Y-121925000D01*
X154975000Y-123675000D01*
X154974278Y-123689703D01*
X154972118Y-123704264D01*
X154968541Y-123718543D01*
X154963582Y-123732403D01*
X154957288Y-123745710D01*
X154949720Y-123758336D01*
X154940952Y-123770159D01*
X154931066Y-123781066D01*
X154920159Y-123790952D01*
X154908336Y-123799720D01*
X154895710Y-123807288D01*
X154882403Y-123813582D01*
X154868543Y-123818541D01*
X154854264Y-123822118D01*
X154839703Y-123824278D01*
X154825000Y-123825000D01*
X154525000Y-123825000D01*
X154510297Y-123824278D01*
X154495736Y-123822118D01*
X154481457Y-123818541D01*
X154467597Y-123813582D01*
X154454290Y-123807288D01*
X154441664Y-123799720D01*
X154429841Y-123790952D01*
X154418934Y-123781066D01*
X154409048Y-123770159D01*
X154400280Y-123758336D01*
X154392712Y-123745710D01*
X154386418Y-123732403D01*
X154381459Y-123718543D01*
X154377882Y-123704264D01*
X154375722Y-123689703D01*
X154375000Y-123675000D01*
X154375000Y-121925000D01*
X154375722Y-121910297D01*
X154377882Y-121895736D01*
X154381459Y-121881457D01*
X154386418Y-121867597D01*
X154392712Y-121854290D01*
X154400280Y-121841664D01*
X154409048Y-121829841D01*
X154418934Y-121818934D01*
X154429841Y-121809048D01*
X154441664Y-121800280D01*
X154454290Y-121792712D01*
X154467597Y-121786418D01*
X154481457Y-121781459D01*
X154495736Y-121777882D01*
X154510297Y-121775722D01*
X154525000Y-121775000D01*
X154825000Y-121775000D01*
X154839703Y-121775722D01*
G37*
G36*
X156109703Y-121775722D02*
G01*
X156124264Y-121777882D01*
X156138543Y-121781459D01*
X156152403Y-121786418D01*
X156165710Y-121792712D01*
X156178336Y-121800280D01*
X156190159Y-121809048D01*
X156201066Y-121818934D01*
X156210952Y-121829841D01*
X156219720Y-121841664D01*
X156227288Y-121854290D01*
X156233582Y-121867597D01*
X156238541Y-121881457D01*
X156242118Y-121895736D01*
X156244278Y-121910297D01*
X156245000Y-121925000D01*
X156245000Y-123675000D01*
X156244278Y-123689703D01*
X156242118Y-123704264D01*
X156238541Y-123718543D01*
X156233582Y-123732403D01*
X156227288Y-123745710D01*
X156219720Y-123758336D01*
X156210952Y-123770159D01*
X156201066Y-123781066D01*
X156190159Y-123790952D01*
X156178336Y-123799720D01*
X156165710Y-123807288D01*
X156152403Y-123813582D01*
X156138543Y-123818541D01*
X156124264Y-123822118D01*
X156109703Y-123824278D01*
X156095000Y-123825000D01*
X155795000Y-123825000D01*
X155780297Y-123824278D01*
X155765736Y-123822118D01*
X155751457Y-123818541D01*
X155737597Y-123813582D01*
X155724290Y-123807288D01*
X155711664Y-123799720D01*
X155699841Y-123790952D01*
X155688934Y-123781066D01*
X155679048Y-123770159D01*
X155670280Y-123758336D01*
X155662712Y-123745710D01*
X155656418Y-123732403D01*
X155651459Y-123718543D01*
X155647882Y-123704264D01*
X155645722Y-123689703D01*
X155645000Y-123675000D01*
X155645000Y-121925000D01*
X155645722Y-121910297D01*
X155647882Y-121895736D01*
X155651459Y-121881457D01*
X155656418Y-121867597D01*
X155662712Y-121854290D01*
X155670280Y-121841664D01*
X155679048Y-121829841D01*
X155688934Y-121818934D01*
X155699841Y-121809048D01*
X155711664Y-121800280D01*
X155724290Y-121792712D01*
X155737597Y-121786418D01*
X155751457Y-121781459D01*
X155765736Y-121777882D01*
X155780297Y-121775722D01*
X155795000Y-121775000D01*
X156095000Y-121775000D01*
X156109703Y-121775722D01*
G37*
G36*
X185132351Y-104975361D02*
G01*
X185139632Y-104976441D01*
X185146771Y-104978229D01*
X185153701Y-104980709D01*
X185160355Y-104983856D01*
X185166668Y-104987640D01*
X185172579Y-104992024D01*
X185178033Y-104996967D01*
X185182976Y-105002421D01*
X185187360Y-105008332D01*
X185191144Y-105014645D01*
X185194291Y-105021299D01*
X185196771Y-105028229D01*
X185198559Y-105035368D01*
X185199639Y-105042649D01*
X185200000Y-105050000D01*
X185200000Y-106350000D01*
X185199639Y-106357351D01*
X185198559Y-106364632D01*
X185196771Y-106371771D01*
X185194291Y-106378701D01*
X185191144Y-106385355D01*
X185187360Y-106391668D01*
X185182976Y-106397579D01*
X185178033Y-106403033D01*
X185172579Y-106407976D01*
X185166668Y-106412360D01*
X185160355Y-106416144D01*
X185153701Y-106419291D01*
X185146771Y-106421771D01*
X185139632Y-106423559D01*
X185132351Y-106424639D01*
X185125000Y-106425000D01*
X184975000Y-106425000D01*
X184967649Y-106424639D01*
X184960368Y-106423559D01*
X184953229Y-106421771D01*
X184946299Y-106419291D01*
X184939645Y-106416144D01*
X184933332Y-106412360D01*
X184927421Y-106407976D01*
X184921967Y-106403033D01*
X184917024Y-106397579D01*
X184912640Y-106391668D01*
X184908856Y-106385355D01*
X184905709Y-106378701D01*
X184903229Y-106371771D01*
X184901441Y-106364632D01*
X184900361Y-106357351D01*
X184900000Y-106350000D01*
X184900000Y-105050000D01*
X184900361Y-105042649D01*
X184901441Y-105035368D01*
X184903229Y-105028229D01*
X184905709Y-105021299D01*
X184908856Y-105014645D01*
X184912640Y-105008332D01*
X184917024Y-105002421D01*
X184921967Y-104996967D01*
X184927421Y-104992024D01*
X184933332Y-104987640D01*
X184939645Y-104983856D01*
X184946299Y-104980709D01*
X184953229Y-104978229D01*
X184960368Y-104976441D01*
X184967649Y-104975361D01*
X184975000Y-104975000D01*
X185125000Y-104975000D01*
X185132351Y-104975361D01*
G37*
G36*
X184632351Y-104975361D02*
G01*
X184639632Y-104976441D01*
X184646771Y-104978229D01*
X184653701Y-104980709D01*
X184660355Y-104983856D01*
X184666668Y-104987640D01*
X184672579Y-104992024D01*
X184678033Y-104996967D01*
X184682976Y-105002421D01*
X184687360Y-105008332D01*
X184691144Y-105014645D01*
X184694291Y-105021299D01*
X184696771Y-105028229D01*
X184698559Y-105035368D01*
X184699639Y-105042649D01*
X184700000Y-105050000D01*
X184700000Y-106350000D01*
X184699639Y-106357351D01*
X184698559Y-106364632D01*
X184696771Y-106371771D01*
X184694291Y-106378701D01*
X184691144Y-106385355D01*
X184687360Y-106391668D01*
X184682976Y-106397579D01*
X184678033Y-106403033D01*
X184672579Y-106407976D01*
X184666668Y-106412360D01*
X184660355Y-106416144D01*
X184653701Y-106419291D01*
X184646771Y-106421771D01*
X184639632Y-106423559D01*
X184632351Y-106424639D01*
X184625000Y-106425000D01*
X184475000Y-106425000D01*
X184467649Y-106424639D01*
X184460368Y-106423559D01*
X184453229Y-106421771D01*
X184446299Y-106419291D01*
X184439645Y-106416144D01*
X184433332Y-106412360D01*
X184427421Y-106407976D01*
X184421967Y-106403033D01*
X184417024Y-106397579D01*
X184412640Y-106391668D01*
X184408856Y-106385355D01*
X184405709Y-106378701D01*
X184403229Y-106371771D01*
X184401441Y-106364632D01*
X184400361Y-106357351D01*
X184400000Y-106350000D01*
X184400000Y-105050000D01*
X184400361Y-105042649D01*
X184401441Y-105035368D01*
X184403229Y-105028229D01*
X184405709Y-105021299D01*
X184408856Y-105014645D01*
X184412640Y-105008332D01*
X184417024Y-105002421D01*
X184421967Y-104996967D01*
X184427421Y-104992024D01*
X184433332Y-104987640D01*
X184439645Y-104983856D01*
X184446299Y-104980709D01*
X184453229Y-104978229D01*
X184460368Y-104976441D01*
X184467649Y-104975361D01*
X184475000Y-104975000D01*
X184625000Y-104975000D01*
X184632351Y-104975361D01*
G37*
G36*
X184132351Y-104975361D02*
G01*
X184139632Y-104976441D01*
X184146771Y-104978229D01*
X184153701Y-104980709D01*
X184160355Y-104983856D01*
X184166668Y-104987640D01*
X184172579Y-104992024D01*
X184178033Y-104996967D01*
X184182976Y-105002421D01*
X184187360Y-105008332D01*
X184191144Y-105014645D01*
X184194291Y-105021299D01*
X184196771Y-105028229D01*
X184198559Y-105035368D01*
X184199639Y-105042649D01*
X184200000Y-105050000D01*
X184200000Y-106350000D01*
X184199639Y-106357351D01*
X184198559Y-106364632D01*
X184196771Y-106371771D01*
X184194291Y-106378701D01*
X184191144Y-106385355D01*
X184187360Y-106391668D01*
X184182976Y-106397579D01*
X184178033Y-106403033D01*
X184172579Y-106407976D01*
X184166668Y-106412360D01*
X184160355Y-106416144D01*
X184153701Y-106419291D01*
X184146771Y-106421771D01*
X184139632Y-106423559D01*
X184132351Y-106424639D01*
X184125000Y-106425000D01*
X183975000Y-106425000D01*
X183967649Y-106424639D01*
X183960368Y-106423559D01*
X183953229Y-106421771D01*
X183946299Y-106419291D01*
X183939645Y-106416144D01*
X183933332Y-106412360D01*
X183927421Y-106407976D01*
X183921967Y-106403033D01*
X183917024Y-106397579D01*
X183912640Y-106391668D01*
X183908856Y-106385355D01*
X183905709Y-106378701D01*
X183903229Y-106371771D01*
X183901441Y-106364632D01*
X183900361Y-106357351D01*
X183900000Y-106350000D01*
X183900000Y-105050000D01*
X183900361Y-105042649D01*
X183901441Y-105035368D01*
X183903229Y-105028229D01*
X183905709Y-105021299D01*
X183908856Y-105014645D01*
X183912640Y-105008332D01*
X183917024Y-105002421D01*
X183921967Y-104996967D01*
X183927421Y-104992024D01*
X183933332Y-104987640D01*
X183939645Y-104983856D01*
X183946299Y-104980709D01*
X183953229Y-104978229D01*
X183960368Y-104976441D01*
X183967649Y-104975361D01*
X183975000Y-104975000D01*
X184125000Y-104975000D01*
X184132351Y-104975361D01*
G37*
G36*
X183632351Y-104975361D02*
G01*
X183639632Y-104976441D01*
X183646771Y-104978229D01*
X183653701Y-104980709D01*
X183660355Y-104983856D01*
X183666668Y-104987640D01*
X183672579Y-104992024D01*
X183678033Y-104996967D01*
X183682976Y-105002421D01*
X183687360Y-105008332D01*
X183691144Y-105014645D01*
X183694291Y-105021299D01*
X183696771Y-105028229D01*
X183698559Y-105035368D01*
X183699639Y-105042649D01*
X183700000Y-105050000D01*
X183700000Y-106350000D01*
X183699639Y-106357351D01*
X183698559Y-106364632D01*
X183696771Y-106371771D01*
X183694291Y-106378701D01*
X183691144Y-106385355D01*
X183687360Y-106391668D01*
X183682976Y-106397579D01*
X183678033Y-106403033D01*
X183672579Y-106407976D01*
X183666668Y-106412360D01*
X183660355Y-106416144D01*
X183653701Y-106419291D01*
X183646771Y-106421771D01*
X183639632Y-106423559D01*
X183632351Y-106424639D01*
X183625000Y-106425000D01*
X183475000Y-106425000D01*
X183467649Y-106424639D01*
X183460368Y-106423559D01*
X183453229Y-106421771D01*
X183446299Y-106419291D01*
X183439645Y-106416144D01*
X183433332Y-106412360D01*
X183427421Y-106407976D01*
X183421967Y-106403033D01*
X183417024Y-106397579D01*
X183412640Y-106391668D01*
X183408856Y-106385355D01*
X183405709Y-106378701D01*
X183403229Y-106371771D01*
X183401441Y-106364632D01*
X183400361Y-106357351D01*
X183400000Y-106350000D01*
X183400000Y-105050000D01*
X183400361Y-105042649D01*
X183401441Y-105035368D01*
X183403229Y-105028229D01*
X183405709Y-105021299D01*
X183408856Y-105014645D01*
X183412640Y-105008332D01*
X183417024Y-105002421D01*
X183421967Y-104996967D01*
X183427421Y-104992024D01*
X183433332Y-104987640D01*
X183439645Y-104983856D01*
X183446299Y-104980709D01*
X183453229Y-104978229D01*
X183460368Y-104976441D01*
X183467649Y-104975361D01*
X183475000Y-104975000D01*
X183625000Y-104975000D01*
X183632351Y-104975361D01*
G37*
G36*
X183132351Y-104975361D02*
G01*
X183139632Y-104976441D01*
X183146771Y-104978229D01*
X183153701Y-104980709D01*
X183160355Y-104983856D01*
X183166668Y-104987640D01*
X183172579Y-104992024D01*
X183178033Y-104996967D01*
X183182976Y-105002421D01*
X183187360Y-105008332D01*
X183191144Y-105014645D01*
X183194291Y-105021299D01*
X183196771Y-105028229D01*
X183198559Y-105035368D01*
X183199639Y-105042649D01*
X183200000Y-105050000D01*
X183200000Y-106350000D01*
X183199639Y-106357351D01*
X183198559Y-106364632D01*
X183196771Y-106371771D01*
X183194291Y-106378701D01*
X183191144Y-106385355D01*
X183187360Y-106391668D01*
X183182976Y-106397579D01*
X183178033Y-106403033D01*
X183172579Y-106407976D01*
X183166668Y-106412360D01*
X183160355Y-106416144D01*
X183153701Y-106419291D01*
X183146771Y-106421771D01*
X183139632Y-106423559D01*
X183132351Y-106424639D01*
X183125000Y-106425000D01*
X182975000Y-106425000D01*
X182967649Y-106424639D01*
X182960368Y-106423559D01*
X182953229Y-106421771D01*
X182946299Y-106419291D01*
X182939645Y-106416144D01*
X182933332Y-106412360D01*
X182927421Y-106407976D01*
X182921967Y-106403033D01*
X182917024Y-106397579D01*
X182912640Y-106391668D01*
X182908856Y-106385355D01*
X182905709Y-106378701D01*
X182903229Y-106371771D01*
X182901441Y-106364632D01*
X182900361Y-106357351D01*
X182900000Y-106350000D01*
X182900000Y-105050000D01*
X182900361Y-105042649D01*
X182901441Y-105035368D01*
X182903229Y-105028229D01*
X182905709Y-105021299D01*
X182908856Y-105014645D01*
X182912640Y-105008332D01*
X182917024Y-105002421D01*
X182921967Y-104996967D01*
X182927421Y-104992024D01*
X182933332Y-104987640D01*
X182939645Y-104983856D01*
X182946299Y-104980709D01*
X182953229Y-104978229D01*
X182960368Y-104976441D01*
X182967649Y-104975361D01*
X182975000Y-104975000D01*
X183125000Y-104975000D01*
X183132351Y-104975361D01*
G37*
G36*
X183132351Y-109375361D02*
G01*
X183139632Y-109376441D01*
X183146771Y-109378229D01*
X183153701Y-109380709D01*
X183160355Y-109383856D01*
X183166668Y-109387640D01*
X183172579Y-109392024D01*
X183178033Y-109396967D01*
X183182976Y-109402421D01*
X183187360Y-109408332D01*
X183191144Y-109414645D01*
X183194291Y-109421299D01*
X183196771Y-109428229D01*
X183198559Y-109435368D01*
X183199639Y-109442649D01*
X183200000Y-109450000D01*
X183200000Y-110750000D01*
X183199639Y-110757351D01*
X183198559Y-110764632D01*
X183196771Y-110771771D01*
X183194291Y-110778701D01*
X183191144Y-110785355D01*
X183187360Y-110791668D01*
X183182976Y-110797579D01*
X183178033Y-110803033D01*
X183172579Y-110807976D01*
X183166668Y-110812360D01*
X183160355Y-110816144D01*
X183153701Y-110819291D01*
X183146771Y-110821771D01*
X183139632Y-110823559D01*
X183132351Y-110824639D01*
X183125000Y-110825000D01*
X182975000Y-110825000D01*
X182967649Y-110824639D01*
X182960368Y-110823559D01*
X182953229Y-110821771D01*
X182946299Y-110819291D01*
X182939645Y-110816144D01*
X182933332Y-110812360D01*
X182927421Y-110807976D01*
X182921967Y-110803033D01*
X182917024Y-110797579D01*
X182912640Y-110791668D01*
X182908856Y-110785355D01*
X182905709Y-110778701D01*
X182903229Y-110771771D01*
X182901441Y-110764632D01*
X182900361Y-110757351D01*
X182900000Y-110750000D01*
X182900000Y-109450000D01*
X182900361Y-109442649D01*
X182901441Y-109435368D01*
X182903229Y-109428229D01*
X182905709Y-109421299D01*
X182908856Y-109414645D01*
X182912640Y-109408332D01*
X182917024Y-109402421D01*
X182921967Y-109396967D01*
X182927421Y-109392024D01*
X182933332Y-109387640D01*
X182939645Y-109383856D01*
X182946299Y-109380709D01*
X182953229Y-109378229D01*
X182960368Y-109376441D01*
X182967649Y-109375361D01*
X182975000Y-109375000D01*
X183125000Y-109375000D01*
X183132351Y-109375361D01*
G37*
G36*
X183632351Y-109375361D02*
G01*
X183639632Y-109376441D01*
X183646771Y-109378229D01*
X183653701Y-109380709D01*
X183660355Y-109383856D01*
X183666668Y-109387640D01*
X183672579Y-109392024D01*
X183678033Y-109396967D01*
X183682976Y-109402421D01*
X183687360Y-109408332D01*
X183691144Y-109414645D01*
X183694291Y-109421299D01*
X183696771Y-109428229D01*
X183698559Y-109435368D01*
X183699639Y-109442649D01*
X183700000Y-109450000D01*
X183700000Y-110750000D01*
X183699639Y-110757351D01*
X183698559Y-110764632D01*
X183696771Y-110771771D01*
X183694291Y-110778701D01*
X183691144Y-110785355D01*
X183687360Y-110791668D01*
X183682976Y-110797579D01*
X183678033Y-110803033D01*
X183672579Y-110807976D01*
X183666668Y-110812360D01*
X183660355Y-110816144D01*
X183653701Y-110819291D01*
X183646771Y-110821771D01*
X183639632Y-110823559D01*
X183632351Y-110824639D01*
X183625000Y-110825000D01*
X183475000Y-110825000D01*
X183467649Y-110824639D01*
X183460368Y-110823559D01*
X183453229Y-110821771D01*
X183446299Y-110819291D01*
X183439645Y-110816144D01*
X183433332Y-110812360D01*
X183427421Y-110807976D01*
X183421967Y-110803033D01*
X183417024Y-110797579D01*
X183412640Y-110791668D01*
X183408856Y-110785355D01*
X183405709Y-110778701D01*
X183403229Y-110771771D01*
X183401441Y-110764632D01*
X183400361Y-110757351D01*
X183400000Y-110750000D01*
X183400000Y-109450000D01*
X183400361Y-109442649D01*
X183401441Y-109435368D01*
X183403229Y-109428229D01*
X183405709Y-109421299D01*
X183408856Y-109414645D01*
X183412640Y-109408332D01*
X183417024Y-109402421D01*
X183421967Y-109396967D01*
X183427421Y-109392024D01*
X183433332Y-109387640D01*
X183439645Y-109383856D01*
X183446299Y-109380709D01*
X183453229Y-109378229D01*
X183460368Y-109376441D01*
X183467649Y-109375361D01*
X183475000Y-109375000D01*
X183625000Y-109375000D01*
X183632351Y-109375361D01*
G37*
G36*
X184132351Y-109375361D02*
G01*
X184139632Y-109376441D01*
X184146771Y-109378229D01*
X184153701Y-109380709D01*
X184160355Y-109383856D01*
X184166668Y-109387640D01*
X184172579Y-109392024D01*
X184178033Y-109396967D01*
X184182976Y-109402421D01*
X184187360Y-109408332D01*
X184191144Y-109414645D01*
X184194291Y-109421299D01*
X184196771Y-109428229D01*
X184198559Y-109435368D01*
X184199639Y-109442649D01*
X184200000Y-109450000D01*
X184200000Y-110750000D01*
X184199639Y-110757351D01*
X184198559Y-110764632D01*
X184196771Y-110771771D01*
X184194291Y-110778701D01*
X184191144Y-110785355D01*
X184187360Y-110791668D01*
X184182976Y-110797579D01*
X184178033Y-110803033D01*
X184172579Y-110807976D01*
X184166668Y-110812360D01*
X184160355Y-110816144D01*
X184153701Y-110819291D01*
X184146771Y-110821771D01*
X184139632Y-110823559D01*
X184132351Y-110824639D01*
X184125000Y-110825000D01*
X183975000Y-110825000D01*
X183967649Y-110824639D01*
X183960368Y-110823559D01*
X183953229Y-110821771D01*
X183946299Y-110819291D01*
X183939645Y-110816144D01*
X183933332Y-110812360D01*
X183927421Y-110807976D01*
X183921967Y-110803033D01*
X183917024Y-110797579D01*
X183912640Y-110791668D01*
X183908856Y-110785355D01*
X183905709Y-110778701D01*
X183903229Y-110771771D01*
X183901441Y-110764632D01*
X183900361Y-110757351D01*
X183900000Y-110750000D01*
X183900000Y-109450000D01*
X183900361Y-109442649D01*
X183901441Y-109435368D01*
X183903229Y-109428229D01*
X183905709Y-109421299D01*
X183908856Y-109414645D01*
X183912640Y-109408332D01*
X183917024Y-109402421D01*
X183921967Y-109396967D01*
X183927421Y-109392024D01*
X183933332Y-109387640D01*
X183939645Y-109383856D01*
X183946299Y-109380709D01*
X183953229Y-109378229D01*
X183960368Y-109376441D01*
X183967649Y-109375361D01*
X183975000Y-109375000D01*
X184125000Y-109375000D01*
X184132351Y-109375361D01*
G37*
G36*
X184632351Y-109375361D02*
G01*
X184639632Y-109376441D01*
X184646771Y-109378229D01*
X184653701Y-109380709D01*
X184660355Y-109383856D01*
X184666668Y-109387640D01*
X184672579Y-109392024D01*
X184678033Y-109396967D01*
X184682976Y-109402421D01*
X184687360Y-109408332D01*
X184691144Y-109414645D01*
X184694291Y-109421299D01*
X184696771Y-109428229D01*
X184698559Y-109435368D01*
X184699639Y-109442649D01*
X184700000Y-109450000D01*
X184700000Y-110750000D01*
X184699639Y-110757351D01*
X184698559Y-110764632D01*
X184696771Y-110771771D01*
X184694291Y-110778701D01*
X184691144Y-110785355D01*
X184687360Y-110791668D01*
X184682976Y-110797579D01*
X184678033Y-110803033D01*
X184672579Y-110807976D01*
X184666668Y-110812360D01*
X184660355Y-110816144D01*
X184653701Y-110819291D01*
X184646771Y-110821771D01*
X184639632Y-110823559D01*
X184632351Y-110824639D01*
X184625000Y-110825000D01*
X184475000Y-110825000D01*
X184467649Y-110824639D01*
X184460368Y-110823559D01*
X184453229Y-110821771D01*
X184446299Y-110819291D01*
X184439645Y-110816144D01*
X184433332Y-110812360D01*
X184427421Y-110807976D01*
X184421967Y-110803033D01*
X184417024Y-110797579D01*
X184412640Y-110791668D01*
X184408856Y-110785355D01*
X184405709Y-110778701D01*
X184403229Y-110771771D01*
X184401441Y-110764632D01*
X184400361Y-110757351D01*
X184400000Y-110750000D01*
X184400000Y-109450000D01*
X184400361Y-109442649D01*
X184401441Y-109435368D01*
X184403229Y-109428229D01*
X184405709Y-109421299D01*
X184408856Y-109414645D01*
X184412640Y-109408332D01*
X184417024Y-109402421D01*
X184421967Y-109396967D01*
X184427421Y-109392024D01*
X184433332Y-109387640D01*
X184439645Y-109383856D01*
X184446299Y-109380709D01*
X184453229Y-109378229D01*
X184460368Y-109376441D01*
X184467649Y-109375361D01*
X184475000Y-109375000D01*
X184625000Y-109375000D01*
X184632351Y-109375361D01*
G37*
G36*
X185132351Y-109375361D02*
G01*
X185139632Y-109376441D01*
X185146771Y-109378229D01*
X185153701Y-109380709D01*
X185160355Y-109383856D01*
X185166668Y-109387640D01*
X185172579Y-109392024D01*
X185178033Y-109396967D01*
X185182976Y-109402421D01*
X185187360Y-109408332D01*
X185191144Y-109414645D01*
X185194291Y-109421299D01*
X185196771Y-109428229D01*
X185198559Y-109435368D01*
X185199639Y-109442649D01*
X185200000Y-109450000D01*
X185200000Y-110750000D01*
X185199639Y-110757351D01*
X185198559Y-110764632D01*
X185196771Y-110771771D01*
X185194291Y-110778701D01*
X185191144Y-110785355D01*
X185187360Y-110791668D01*
X185182976Y-110797579D01*
X185178033Y-110803033D01*
X185172579Y-110807976D01*
X185166668Y-110812360D01*
X185160355Y-110816144D01*
X185153701Y-110819291D01*
X185146771Y-110821771D01*
X185139632Y-110823559D01*
X185132351Y-110824639D01*
X185125000Y-110825000D01*
X184975000Y-110825000D01*
X184967649Y-110824639D01*
X184960368Y-110823559D01*
X184953229Y-110821771D01*
X184946299Y-110819291D01*
X184939645Y-110816144D01*
X184933332Y-110812360D01*
X184927421Y-110807976D01*
X184921967Y-110803033D01*
X184917024Y-110797579D01*
X184912640Y-110791668D01*
X184908856Y-110785355D01*
X184905709Y-110778701D01*
X184903229Y-110771771D01*
X184901441Y-110764632D01*
X184900361Y-110757351D01*
X184900000Y-110750000D01*
X184900000Y-109450000D01*
X184900361Y-109442649D01*
X184901441Y-109435368D01*
X184903229Y-109428229D01*
X184905709Y-109421299D01*
X184908856Y-109414645D01*
X184912640Y-109408332D01*
X184917024Y-109402421D01*
X184921967Y-109396967D01*
X184927421Y-109392024D01*
X184933332Y-109387640D01*
X184939645Y-109383856D01*
X184946299Y-109380709D01*
X184953229Y-109378229D01*
X184960368Y-109376441D01*
X184967649Y-109375361D01*
X184975000Y-109375000D01*
X185125000Y-109375000D01*
X185132351Y-109375361D01*
G37*
G36*
X168354703Y-115550722D02*
G01*
X168369264Y-115552882D01*
X168383543Y-115556459D01*
X168397403Y-115561418D01*
X168410710Y-115567712D01*
X168423336Y-115575280D01*
X168435159Y-115584048D01*
X168446066Y-115593934D01*
X168455952Y-115604841D01*
X168464720Y-115616664D01*
X168472288Y-115629290D01*
X168478582Y-115642597D01*
X168483541Y-115656457D01*
X168487118Y-115670736D01*
X168489278Y-115685297D01*
X168490000Y-115700000D01*
X168490000Y-117350000D01*
X168489278Y-117364703D01*
X168487118Y-117379264D01*
X168483541Y-117393543D01*
X168478582Y-117407403D01*
X168472288Y-117420710D01*
X168464720Y-117433336D01*
X168455952Y-117445159D01*
X168446066Y-117456066D01*
X168435159Y-117465952D01*
X168423336Y-117474720D01*
X168410710Y-117482288D01*
X168397403Y-117488582D01*
X168383543Y-117493541D01*
X168369264Y-117497118D01*
X168354703Y-117499278D01*
X168340000Y-117500000D01*
X168040000Y-117500000D01*
X168025297Y-117499278D01*
X168010736Y-117497118D01*
X167996457Y-117493541D01*
X167982597Y-117488582D01*
X167969290Y-117482288D01*
X167956664Y-117474720D01*
X167944841Y-117465952D01*
X167933934Y-117456066D01*
X167924048Y-117445159D01*
X167915280Y-117433336D01*
X167907712Y-117420710D01*
X167901418Y-117407403D01*
X167896459Y-117393543D01*
X167892882Y-117379264D01*
X167890722Y-117364703D01*
X167890000Y-117350000D01*
X167890000Y-115700000D01*
X167890722Y-115685297D01*
X167892882Y-115670736D01*
X167896459Y-115656457D01*
X167901418Y-115642597D01*
X167907712Y-115629290D01*
X167915280Y-115616664D01*
X167924048Y-115604841D01*
X167933934Y-115593934D01*
X167944841Y-115584048D01*
X167956664Y-115575280D01*
X167969290Y-115567712D01*
X167982597Y-115561418D01*
X167996457Y-115556459D01*
X168010736Y-115552882D01*
X168025297Y-115550722D01*
X168040000Y-115550000D01*
X168340000Y-115550000D01*
X168354703Y-115550722D01*
G37*
G36*
X169624703Y-115550722D02*
G01*
X169639264Y-115552882D01*
X169653543Y-115556459D01*
X169667403Y-115561418D01*
X169680710Y-115567712D01*
X169693336Y-115575280D01*
X169705159Y-115584048D01*
X169716066Y-115593934D01*
X169725952Y-115604841D01*
X169734720Y-115616664D01*
X169742288Y-115629290D01*
X169748582Y-115642597D01*
X169753541Y-115656457D01*
X169757118Y-115670736D01*
X169759278Y-115685297D01*
X169760000Y-115700000D01*
X169760000Y-117350000D01*
X169759278Y-117364703D01*
X169757118Y-117379264D01*
X169753541Y-117393543D01*
X169748582Y-117407403D01*
X169742288Y-117420710D01*
X169734720Y-117433336D01*
X169725952Y-117445159D01*
X169716066Y-117456066D01*
X169705159Y-117465952D01*
X169693336Y-117474720D01*
X169680710Y-117482288D01*
X169667403Y-117488582D01*
X169653543Y-117493541D01*
X169639264Y-117497118D01*
X169624703Y-117499278D01*
X169610000Y-117500000D01*
X169310000Y-117500000D01*
X169295297Y-117499278D01*
X169280736Y-117497118D01*
X169266457Y-117493541D01*
X169252597Y-117488582D01*
X169239290Y-117482288D01*
X169226664Y-117474720D01*
X169214841Y-117465952D01*
X169203934Y-117456066D01*
X169194048Y-117445159D01*
X169185280Y-117433336D01*
X169177712Y-117420710D01*
X169171418Y-117407403D01*
X169166459Y-117393543D01*
X169162882Y-117379264D01*
X169160722Y-117364703D01*
X169160000Y-117350000D01*
X169160000Y-115700000D01*
X169160722Y-115685297D01*
X169162882Y-115670736D01*
X169166459Y-115656457D01*
X169171418Y-115642597D01*
X169177712Y-115629290D01*
X169185280Y-115616664D01*
X169194048Y-115604841D01*
X169203934Y-115593934D01*
X169214841Y-115584048D01*
X169226664Y-115575280D01*
X169239290Y-115567712D01*
X169252597Y-115561418D01*
X169266457Y-115556459D01*
X169280736Y-115552882D01*
X169295297Y-115550722D01*
X169310000Y-115550000D01*
X169610000Y-115550000D01*
X169624703Y-115550722D01*
G37*
G36*
X170894703Y-115550722D02*
G01*
X170909264Y-115552882D01*
X170923543Y-115556459D01*
X170937403Y-115561418D01*
X170950710Y-115567712D01*
X170963336Y-115575280D01*
X170975159Y-115584048D01*
X170986066Y-115593934D01*
X170995952Y-115604841D01*
X171004720Y-115616664D01*
X171012288Y-115629290D01*
X171018582Y-115642597D01*
X171023541Y-115656457D01*
X171027118Y-115670736D01*
X171029278Y-115685297D01*
X171030000Y-115700000D01*
X171030000Y-117350000D01*
X171029278Y-117364703D01*
X171027118Y-117379264D01*
X171023541Y-117393543D01*
X171018582Y-117407403D01*
X171012288Y-117420710D01*
X171004720Y-117433336D01*
X170995952Y-117445159D01*
X170986066Y-117456066D01*
X170975159Y-117465952D01*
X170963336Y-117474720D01*
X170950710Y-117482288D01*
X170937403Y-117488582D01*
X170923543Y-117493541D01*
X170909264Y-117497118D01*
X170894703Y-117499278D01*
X170880000Y-117500000D01*
X170580000Y-117500000D01*
X170565297Y-117499278D01*
X170550736Y-117497118D01*
X170536457Y-117493541D01*
X170522597Y-117488582D01*
X170509290Y-117482288D01*
X170496664Y-117474720D01*
X170484841Y-117465952D01*
X170473934Y-117456066D01*
X170464048Y-117445159D01*
X170455280Y-117433336D01*
X170447712Y-117420710D01*
X170441418Y-117407403D01*
X170436459Y-117393543D01*
X170432882Y-117379264D01*
X170430722Y-117364703D01*
X170430000Y-117350000D01*
X170430000Y-115700000D01*
X170430722Y-115685297D01*
X170432882Y-115670736D01*
X170436459Y-115656457D01*
X170441418Y-115642597D01*
X170447712Y-115629290D01*
X170455280Y-115616664D01*
X170464048Y-115604841D01*
X170473934Y-115593934D01*
X170484841Y-115584048D01*
X170496664Y-115575280D01*
X170509290Y-115567712D01*
X170522597Y-115561418D01*
X170536457Y-115556459D01*
X170550736Y-115552882D01*
X170565297Y-115550722D01*
X170580000Y-115550000D01*
X170880000Y-115550000D01*
X170894703Y-115550722D01*
G37*
G36*
X172164703Y-115550722D02*
G01*
X172179264Y-115552882D01*
X172193543Y-115556459D01*
X172207403Y-115561418D01*
X172220710Y-115567712D01*
X172233336Y-115575280D01*
X172245159Y-115584048D01*
X172256066Y-115593934D01*
X172265952Y-115604841D01*
X172274720Y-115616664D01*
X172282288Y-115629290D01*
X172288582Y-115642597D01*
X172293541Y-115656457D01*
X172297118Y-115670736D01*
X172299278Y-115685297D01*
X172300000Y-115700000D01*
X172300000Y-117350000D01*
X172299278Y-117364703D01*
X172297118Y-117379264D01*
X172293541Y-117393543D01*
X172288582Y-117407403D01*
X172282288Y-117420710D01*
X172274720Y-117433336D01*
X172265952Y-117445159D01*
X172256066Y-117456066D01*
X172245159Y-117465952D01*
X172233336Y-117474720D01*
X172220710Y-117482288D01*
X172207403Y-117488582D01*
X172193543Y-117493541D01*
X172179264Y-117497118D01*
X172164703Y-117499278D01*
X172150000Y-117500000D01*
X171850000Y-117500000D01*
X171835297Y-117499278D01*
X171820736Y-117497118D01*
X171806457Y-117493541D01*
X171792597Y-117488582D01*
X171779290Y-117482288D01*
X171766664Y-117474720D01*
X171754841Y-117465952D01*
X171743934Y-117456066D01*
X171734048Y-117445159D01*
X171725280Y-117433336D01*
X171717712Y-117420710D01*
X171711418Y-117407403D01*
X171706459Y-117393543D01*
X171702882Y-117379264D01*
X171700722Y-117364703D01*
X171700000Y-117350000D01*
X171700000Y-115700000D01*
X171700722Y-115685297D01*
X171702882Y-115670736D01*
X171706459Y-115656457D01*
X171711418Y-115642597D01*
X171717712Y-115629290D01*
X171725280Y-115616664D01*
X171734048Y-115604841D01*
X171743934Y-115593934D01*
X171754841Y-115584048D01*
X171766664Y-115575280D01*
X171779290Y-115567712D01*
X171792597Y-115561418D01*
X171806457Y-115556459D01*
X171820736Y-115552882D01*
X171835297Y-115550722D01*
X171850000Y-115550000D01*
X172150000Y-115550000D01*
X172164703Y-115550722D01*
G37*
G36*
X173434703Y-115550722D02*
G01*
X173449264Y-115552882D01*
X173463543Y-115556459D01*
X173477403Y-115561418D01*
X173490710Y-115567712D01*
X173503336Y-115575280D01*
X173515159Y-115584048D01*
X173526066Y-115593934D01*
X173535952Y-115604841D01*
X173544720Y-115616664D01*
X173552288Y-115629290D01*
X173558582Y-115642597D01*
X173563541Y-115656457D01*
X173567118Y-115670736D01*
X173569278Y-115685297D01*
X173570000Y-115700000D01*
X173570000Y-117350000D01*
X173569278Y-117364703D01*
X173567118Y-117379264D01*
X173563541Y-117393543D01*
X173558582Y-117407403D01*
X173552288Y-117420710D01*
X173544720Y-117433336D01*
X173535952Y-117445159D01*
X173526066Y-117456066D01*
X173515159Y-117465952D01*
X173503336Y-117474720D01*
X173490710Y-117482288D01*
X173477403Y-117488582D01*
X173463543Y-117493541D01*
X173449264Y-117497118D01*
X173434703Y-117499278D01*
X173420000Y-117500000D01*
X173120000Y-117500000D01*
X173105297Y-117499278D01*
X173090736Y-117497118D01*
X173076457Y-117493541D01*
X173062597Y-117488582D01*
X173049290Y-117482288D01*
X173036664Y-117474720D01*
X173024841Y-117465952D01*
X173013934Y-117456066D01*
X173004048Y-117445159D01*
X172995280Y-117433336D01*
X172987712Y-117420710D01*
X172981418Y-117407403D01*
X172976459Y-117393543D01*
X172972882Y-117379264D01*
X172970722Y-117364703D01*
X172970000Y-117350000D01*
X172970000Y-115700000D01*
X172970722Y-115685297D01*
X172972882Y-115670736D01*
X172976459Y-115656457D01*
X172981418Y-115642597D01*
X172987712Y-115629290D01*
X172995280Y-115616664D01*
X173004048Y-115604841D01*
X173013934Y-115593934D01*
X173024841Y-115584048D01*
X173036664Y-115575280D01*
X173049290Y-115567712D01*
X173062597Y-115561418D01*
X173076457Y-115556459D01*
X173090736Y-115552882D01*
X173105297Y-115550722D01*
X173120000Y-115550000D01*
X173420000Y-115550000D01*
X173434703Y-115550722D01*
G37*
G36*
X174704703Y-115550722D02*
G01*
X174719264Y-115552882D01*
X174733543Y-115556459D01*
X174747403Y-115561418D01*
X174760710Y-115567712D01*
X174773336Y-115575280D01*
X174785159Y-115584048D01*
X174796066Y-115593934D01*
X174805952Y-115604841D01*
X174814720Y-115616664D01*
X174822288Y-115629290D01*
X174828582Y-115642597D01*
X174833541Y-115656457D01*
X174837118Y-115670736D01*
X174839278Y-115685297D01*
X174840000Y-115700000D01*
X174840000Y-117350000D01*
X174839278Y-117364703D01*
X174837118Y-117379264D01*
X174833541Y-117393543D01*
X174828582Y-117407403D01*
X174822288Y-117420710D01*
X174814720Y-117433336D01*
X174805952Y-117445159D01*
X174796066Y-117456066D01*
X174785159Y-117465952D01*
X174773336Y-117474720D01*
X174760710Y-117482288D01*
X174747403Y-117488582D01*
X174733543Y-117493541D01*
X174719264Y-117497118D01*
X174704703Y-117499278D01*
X174690000Y-117500000D01*
X174390000Y-117500000D01*
X174375297Y-117499278D01*
X174360736Y-117497118D01*
X174346457Y-117493541D01*
X174332597Y-117488582D01*
X174319290Y-117482288D01*
X174306664Y-117474720D01*
X174294841Y-117465952D01*
X174283934Y-117456066D01*
X174274048Y-117445159D01*
X174265280Y-117433336D01*
X174257712Y-117420710D01*
X174251418Y-117407403D01*
X174246459Y-117393543D01*
X174242882Y-117379264D01*
X174240722Y-117364703D01*
X174240000Y-117350000D01*
X174240000Y-115700000D01*
X174240722Y-115685297D01*
X174242882Y-115670736D01*
X174246459Y-115656457D01*
X174251418Y-115642597D01*
X174257712Y-115629290D01*
X174265280Y-115616664D01*
X174274048Y-115604841D01*
X174283934Y-115593934D01*
X174294841Y-115584048D01*
X174306664Y-115575280D01*
X174319290Y-115567712D01*
X174332597Y-115561418D01*
X174346457Y-115556459D01*
X174360736Y-115552882D01*
X174375297Y-115550722D01*
X174390000Y-115550000D01*
X174690000Y-115550000D01*
X174704703Y-115550722D01*
G37*
G36*
X175974703Y-115550722D02*
G01*
X175989264Y-115552882D01*
X176003543Y-115556459D01*
X176017403Y-115561418D01*
X176030710Y-115567712D01*
X176043336Y-115575280D01*
X176055159Y-115584048D01*
X176066066Y-115593934D01*
X176075952Y-115604841D01*
X176084720Y-115616664D01*
X176092288Y-115629290D01*
X176098582Y-115642597D01*
X176103541Y-115656457D01*
X176107118Y-115670736D01*
X176109278Y-115685297D01*
X176110000Y-115700000D01*
X176110000Y-117350000D01*
X176109278Y-117364703D01*
X176107118Y-117379264D01*
X176103541Y-117393543D01*
X176098582Y-117407403D01*
X176092288Y-117420710D01*
X176084720Y-117433336D01*
X176075952Y-117445159D01*
X176066066Y-117456066D01*
X176055159Y-117465952D01*
X176043336Y-117474720D01*
X176030710Y-117482288D01*
X176017403Y-117488582D01*
X176003543Y-117493541D01*
X175989264Y-117497118D01*
X175974703Y-117499278D01*
X175960000Y-117500000D01*
X175660000Y-117500000D01*
X175645297Y-117499278D01*
X175630736Y-117497118D01*
X175616457Y-117493541D01*
X175602597Y-117488582D01*
X175589290Y-117482288D01*
X175576664Y-117474720D01*
X175564841Y-117465952D01*
X175553934Y-117456066D01*
X175544048Y-117445159D01*
X175535280Y-117433336D01*
X175527712Y-117420710D01*
X175521418Y-117407403D01*
X175516459Y-117393543D01*
X175512882Y-117379264D01*
X175510722Y-117364703D01*
X175510000Y-117350000D01*
X175510000Y-115700000D01*
X175510722Y-115685297D01*
X175512882Y-115670736D01*
X175516459Y-115656457D01*
X175521418Y-115642597D01*
X175527712Y-115629290D01*
X175535280Y-115616664D01*
X175544048Y-115604841D01*
X175553934Y-115593934D01*
X175564841Y-115584048D01*
X175576664Y-115575280D01*
X175589290Y-115567712D01*
X175602597Y-115561418D01*
X175616457Y-115556459D01*
X175630736Y-115552882D01*
X175645297Y-115550722D01*
X175660000Y-115550000D01*
X175960000Y-115550000D01*
X175974703Y-115550722D01*
G37*
G36*
X175974703Y-110600722D02*
G01*
X175989264Y-110602882D01*
X176003543Y-110606459D01*
X176017403Y-110611418D01*
X176030710Y-110617712D01*
X176043336Y-110625280D01*
X176055159Y-110634048D01*
X176066066Y-110643934D01*
X176075952Y-110654841D01*
X176084720Y-110666664D01*
X176092288Y-110679290D01*
X176098582Y-110692597D01*
X176103541Y-110706457D01*
X176107118Y-110720736D01*
X176109278Y-110735297D01*
X176110000Y-110750000D01*
X176110000Y-112400000D01*
X176109278Y-112414703D01*
X176107118Y-112429264D01*
X176103541Y-112443543D01*
X176098582Y-112457403D01*
X176092288Y-112470710D01*
X176084720Y-112483336D01*
X176075952Y-112495159D01*
X176066066Y-112506066D01*
X176055159Y-112515952D01*
X176043336Y-112524720D01*
X176030710Y-112532288D01*
X176017403Y-112538582D01*
X176003543Y-112543541D01*
X175989264Y-112547118D01*
X175974703Y-112549278D01*
X175960000Y-112550000D01*
X175660000Y-112550000D01*
X175645297Y-112549278D01*
X175630736Y-112547118D01*
X175616457Y-112543541D01*
X175602597Y-112538582D01*
X175589290Y-112532288D01*
X175576664Y-112524720D01*
X175564841Y-112515952D01*
X175553934Y-112506066D01*
X175544048Y-112495159D01*
X175535280Y-112483336D01*
X175527712Y-112470710D01*
X175521418Y-112457403D01*
X175516459Y-112443543D01*
X175512882Y-112429264D01*
X175510722Y-112414703D01*
X175510000Y-112400000D01*
X175510000Y-110750000D01*
X175510722Y-110735297D01*
X175512882Y-110720736D01*
X175516459Y-110706457D01*
X175521418Y-110692597D01*
X175527712Y-110679290D01*
X175535280Y-110666664D01*
X175544048Y-110654841D01*
X175553934Y-110643934D01*
X175564841Y-110634048D01*
X175576664Y-110625280D01*
X175589290Y-110617712D01*
X175602597Y-110611418D01*
X175616457Y-110606459D01*
X175630736Y-110602882D01*
X175645297Y-110600722D01*
X175660000Y-110600000D01*
X175960000Y-110600000D01*
X175974703Y-110600722D01*
G37*
G36*
X174704703Y-110600722D02*
G01*
X174719264Y-110602882D01*
X174733543Y-110606459D01*
X174747403Y-110611418D01*
X174760710Y-110617712D01*
X174773336Y-110625280D01*
X174785159Y-110634048D01*
X174796066Y-110643934D01*
X174805952Y-110654841D01*
X174814720Y-110666664D01*
X174822288Y-110679290D01*
X174828582Y-110692597D01*
X174833541Y-110706457D01*
X174837118Y-110720736D01*
X174839278Y-110735297D01*
X174840000Y-110750000D01*
X174840000Y-112400000D01*
X174839278Y-112414703D01*
X174837118Y-112429264D01*
X174833541Y-112443543D01*
X174828582Y-112457403D01*
X174822288Y-112470710D01*
X174814720Y-112483336D01*
X174805952Y-112495159D01*
X174796066Y-112506066D01*
X174785159Y-112515952D01*
X174773336Y-112524720D01*
X174760710Y-112532288D01*
X174747403Y-112538582D01*
X174733543Y-112543541D01*
X174719264Y-112547118D01*
X174704703Y-112549278D01*
X174690000Y-112550000D01*
X174390000Y-112550000D01*
X174375297Y-112549278D01*
X174360736Y-112547118D01*
X174346457Y-112543541D01*
X174332597Y-112538582D01*
X174319290Y-112532288D01*
X174306664Y-112524720D01*
X174294841Y-112515952D01*
X174283934Y-112506066D01*
X174274048Y-112495159D01*
X174265280Y-112483336D01*
X174257712Y-112470710D01*
X174251418Y-112457403D01*
X174246459Y-112443543D01*
X174242882Y-112429264D01*
X174240722Y-112414703D01*
X174240000Y-112400000D01*
X174240000Y-110750000D01*
X174240722Y-110735297D01*
X174242882Y-110720736D01*
X174246459Y-110706457D01*
X174251418Y-110692597D01*
X174257712Y-110679290D01*
X174265280Y-110666664D01*
X174274048Y-110654841D01*
X174283934Y-110643934D01*
X174294841Y-110634048D01*
X174306664Y-110625280D01*
X174319290Y-110617712D01*
X174332597Y-110611418D01*
X174346457Y-110606459D01*
X174360736Y-110602882D01*
X174375297Y-110600722D01*
X174390000Y-110600000D01*
X174690000Y-110600000D01*
X174704703Y-110600722D01*
G37*
G36*
X173434703Y-110600722D02*
G01*
X173449264Y-110602882D01*
X173463543Y-110606459D01*
X173477403Y-110611418D01*
X173490710Y-110617712D01*
X173503336Y-110625280D01*
X173515159Y-110634048D01*
X173526066Y-110643934D01*
X173535952Y-110654841D01*
X173544720Y-110666664D01*
X173552288Y-110679290D01*
X173558582Y-110692597D01*
X173563541Y-110706457D01*
X173567118Y-110720736D01*
X173569278Y-110735297D01*
X173570000Y-110750000D01*
X173570000Y-112400000D01*
X173569278Y-112414703D01*
X173567118Y-112429264D01*
X173563541Y-112443543D01*
X173558582Y-112457403D01*
X173552288Y-112470710D01*
X173544720Y-112483336D01*
X173535952Y-112495159D01*
X173526066Y-112506066D01*
X173515159Y-112515952D01*
X173503336Y-112524720D01*
X173490710Y-112532288D01*
X173477403Y-112538582D01*
X173463543Y-112543541D01*
X173449264Y-112547118D01*
X173434703Y-112549278D01*
X173420000Y-112550000D01*
X173120000Y-112550000D01*
X173105297Y-112549278D01*
X173090736Y-112547118D01*
X173076457Y-112543541D01*
X173062597Y-112538582D01*
X173049290Y-112532288D01*
X173036664Y-112524720D01*
X173024841Y-112515952D01*
X173013934Y-112506066D01*
X173004048Y-112495159D01*
X172995280Y-112483336D01*
X172987712Y-112470710D01*
X172981418Y-112457403D01*
X172976459Y-112443543D01*
X172972882Y-112429264D01*
X172970722Y-112414703D01*
X172970000Y-112400000D01*
X172970000Y-110750000D01*
X172970722Y-110735297D01*
X172972882Y-110720736D01*
X172976459Y-110706457D01*
X172981418Y-110692597D01*
X172987712Y-110679290D01*
X172995280Y-110666664D01*
X173004048Y-110654841D01*
X173013934Y-110643934D01*
X173024841Y-110634048D01*
X173036664Y-110625280D01*
X173049290Y-110617712D01*
X173062597Y-110611418D01*
X173076457Y-110606459D01*
X173090736Y-110602882D01*
X173105297Y-110600722D01*
X173120000Y-110600000D01*
X173420000Y-110600000D01*
X173434703Y-110600722D01*
G37*
G36*
X172164703Y-110600722D02*
G01*
X172179264Y-110602882D01*
X172193543Y-110606459D01*
X172207403Y-110611418D01*
X172220710Y-110617712D01*
X172233336Y-110625280D01*
X172245159Y-110634048D01*
X172256066Y-110643934D01*
X172265952Y-110654841D01*
X172274720Y-110666664D01*
X172282288Y-110679290D01*
X172288582Y-110692597D01*
X172293541Y-110706457D01*
X172297118Y-110720736D01*
X172299278Y-110735297D01*
X172300000Y-110750000D01*
X172300000Y-112400000D01*
X172299278Y-112414703D01*
X172297118Y-112429264D01*
X172293541Y-112443543D01*
X172288582Y-112457403D01*
X172282288Y-112470710D01*
X172274720Y-112483336D01*
X172265952Y-112495159D01*
X172256066Y-112506066D01*
X172245159Y-112515952D01*
X172233336Y-112524720D01*
X172220710Y-112532288D01*
X172207403Y-112538582D01*
X172193543Y-112543541D01*
X172179264Y-112547118D01*
X172164703Y-112549278D01*
X172150000Y-112550000D01*
X171850000Y-112550000D01*
X171835297Y-112549278D01*
X171820736Y-112547118D01*
X171806457Y-112543541D01*
X171792597Y-112538582D01*
X171779290Y-112532288D01*
X171766664Y-112524720D01*
X171754841Y-112515952D01*
X171743934Y-112506066D01*
X171734048Y-112495159D01*
X171725280Y-112483336D01*
X171717712Y-112470710D01*
X171711418Y-112457403D01*
X171706459Y-112443543D01*
X171702882Y-112429264D01*
X171700722Y-112414703D01*
X171700000Y-112400000D01*
X171700000Y-110750000D01*
X171700722Y-110735297D01*
X171702882Y-110720736D01*
X171706459Y-110706457D01*
X171711418Y-110692597D01*
X171717712Y-110679290D01*
X171725280Y-110666664D01*
X171734048Y-110654841D01*
X171743934Y-110643934D01*
X171754841Y-110634048D01*
X171766664Y-110625280D01*
X171779290Y-110617712D01*
X171792597Y-110611418D01*
X171806457Y-110606459D01*
X171820736Y-110602882D01*
X171835297Y-110600722D01*
X171850000Y-110600000D01*
X172150000Y-110600000D01*
X172164703Y-110600722D01*
G37*
G36*
X170894703Y-110600722D02*
G01*
X170909264Y-110602882D01*
X170923543Y-110606459D01*
X170937403Y-110611418D01*
X170950710Y-110617712D01*
X170963336Y-110625280D01*
X170975159Y-110634048D01*
X170986066Y-110643934D01*
X170995952Y-110654841D01*
X171004720Y-110666664D01*
X171012288Y-110679290D01*
X171018582Y-110692597D01*
X171023541Y-110706457D01*
X171027118Y-110720736D01*
X171029278Y-110735297D01*
X171030000Y-110750000D01*
X171030000Y-112400000D01*
X171029278Y-112414703D01*
X171027118Y-112429264D01*
X171023541Y-112443543D01*
X171018582Y-112457403D01*
X171012288Y-112470710D01*
X171004720Y-112483336D01*
X170995952Y-112495159D01*
X170986066Y-112506066D01*
X170975159Y-112515952D01*
X170963336Y-112524720D01*
X170950710Y-112532288D01*
X170937403Y-112538582D01*
X170923543Y-112543541D01*
X170909264Y-112547118D01*
X170894703Y-112549278D01*
X170880000Y-112550000D01*
X170580000Y-112550000D01*
X170565297Y-112549278D01*
X170550736Y-112547118D01*
X170536457Y-112543541D01*
X170522597Y-112538582D01*
X170509290Y-112532288D01*
X170496664Y-112524720D01*
X170484841Y-112515952D01*
X170473934Y-112506066D01*
X170464048Y-112495159D01*
X170455280Y-112483336D01*
X170447712Y-112470710D01*
X170441418Y-112457403D01*
X170436459Y-112443543D01*
X170432882Y-112429264D01*
X170430722Y-112414703D01*
X170430000Y-112400000D01*
X170430000Y-110750000D01*
X170430722Y-110735297D01*
X170432882Y-110720736D01*
X170436459Y-110706457D01*
X170441418Y-110692597D01*
X170447712Y-110679290D01*
X170455280Y-110666664D01*
X170464048Y-110654841D01*
X170473934Y-110643934D01*
X170484841Y-110634048D01*
X170496664Y-110625280D01*
X170509290Y-110617712D01*
X170522597Y-110611418D01*
X170536457Y-110606459D01*
X170550736Y-110602882D01*
X170565297Y-110600722D01*
X170580000Y-110600000D01*
X170880000Y-110600000D01*
X170894703Y-110600722D01*
G37*
G36*
X169624703Y-110600722D02*
G01*
X169639264Y-110602882D01*
X169653543Y-110606459D01*
X169667403Y-110611418D01*
X169680710Y-110617712D01*
X169693336Y-110625280D01*
X169705159Y-110634048D01*
X169716066Y-110643934D01*
X169725952Y-110654841D01*
X169734720Y-110666664D01*
X169742288Y-110679290D01*
X169748582Y-110692597D01*
X169753541Y-110706457D01*
X169757118Y-110720736D01*
X169759278Y-110735297D01*
X169760000Y-110750000D01*
X169760000Y-112400000D01*
X169759278Y-112414703D01*
X169757118Y-112429264D01*
X169753541Y-112443543D01*
X169748582Y-112457403D01*
X169742288Y-112470710D01*
X169734720Y-112483336D01*
X169725952Y-112495159D01*
X169716066Y-112506066D01*
X169705159Y-112515952D01*
X169693336Y-112524720D01*
X169680710Y-112532288D01*
X169667403Y-112538582D01*
X169653543Y-112543541D01*
X169639264Y-112547118D01*
X169624703Y-112549278D01*
X169610000Y-112550000D01*
X169310000Y-112550000D01*
X169295297Y-112549278D01*
X169280736Y-112547118D01*
X169266457Y-112543541D01*
X169252597Y-112538582D01*
X169239290Y-112532288D01*
X169226664Y-112524720D01*
X169214841Y-112515952D01*
X169203934Y-112506066D01*
X169194048Y-112495159D01*
X169185280Y-112483336D01*
X169177712Y-112470710D01*
X169171418Y-112457403D01*
X169166459Y-112443543D01*
X169162882Y-112429264D01*
X169160722Y-112414703D01*
X169160000Y-112400000D01*
X169160000Y-110750000D01*
X169160722Y-110735297D01*
X169162882Y-110720736D01*
X169166459Y-110706457D01*
X169171418Y-110692597D01*
X169177712Y-110679290D01*
X169185280Y-110666664D01*
X169194048Y-110654841D01*
X169203934Y-110643934D01*
X169214841Y-110634048D01*
X169226664Y-110625280D01*
X169239290Y-110617712D01*
X169252597Y-110611418D01*
X169266457Y-110606459D01*
X169280736Y-110602882D01*
X169295297Y-110600722D01*
X169310000Y-110600000D01*
X169610000Y-110600000D01*
X169624703Y-110600722D01*
G37*
G36*
X168354703Y-110600722D02*
G01*
X168369264Y-110602882D01*
X168383543Y-110606459D01*
X168397403Y-110611418D01*
X168410710Y-110617712D01*
X168423336Y-110625280D01*
X168435159Y-110634048D01*
X168446066Y-110643934D01*
X168455952Y-110654841D01*
X168464720Y-110666664D01*
X168472288Y-110679290D01*
X168478582Y-110692597D01*
X168483541Y-110706457D01*
X168487118Y-110720736D01*
X168489278Y-110735297D01*
X168490000Y-110750000D01*
X168490000Y-112400000D01*
X168489278Y-112414703D01*
X168487118Y-112429264D01*
X168483541Y-112443543D01*
X168478582Y-112457403D01*
X168472288Y-112470710D01*
X168464720Y-112483336D01*
X168455952Y-112495159D01*
X168446066Y-112506066D01*
X168435159Y-112515952D01*
X168423336Y-112524720D01*
X168410710Y-112532288D01*
X168397403Y-112538582D01*
X168383543Y-112543541D01*
X168369264Y-112547118D01*
X168354703Y-112549278D01*
X168340000Y-112550000D01*
X168040000Y-112550000D01*
X168025297Y-112549278D01*
X168010736Y-112547118D01*
X167996457Y-112543541D01*
X167982597Y-112538582D01*
X167969290Y-112532288D01*
X167956664Y-112524720D01*
X167944841Y-112515952D01*
X167933934Y-112506066D01*
X167924048Y-112495159D01*
X167915280Y-112483336D01*
X167907712Y-112470710D01*
X167901418Y-112457403D01*
X167896459Y-112443543D01*
X167892882Y-112429264D01*
X167890722Y-112414703D01*
X167890000Y-112400000D01*
X167890000Y-110750000D01*
X167890722Y-110735297D01*
X167892882Y-110720736D01*
X167896459Y-110706457D01*
X167901418Y-110692597D01*
X167907712Y-110679290D01*
X167915280Y-110666664D01*
X167924048Y-110654841D01*
X167933934Y-110643934D01*
X167944841Y-110634048D01*
X167956664Y-110625280D01*
X167969290Y-110617712D01*
X167982597Y-110611418D01*
X167996457Y-110606459D01*
X168010736Y-110602882D01*
X168025297Y-110600722D01*
X168040000Y-110600000D01*
X168340000Y-110600000D01*
X168354703Y-110600722D01*
G37*
G36*
X165699505Y-108551204D02*
G01*
X165723773Y-108554804D01*
X165747572Y-108560765D01*
X165770671Y-108569030D01*
X165792850Y-108579520D01*
X165813893Y-108592132D01*
X165833599Y-108606747D01*
X165851777Y-108623223D01*
X165868253Y-108641401D01*
X165882868Y-108661107D01*
X165895480Y-108682150D01*
X165905970Y-108704329D01*
X165914235Y-108727428D01*
X165920196Y-108751227D01*
X165923796Y-108775495D01*
X165925000Y-108799999D01*
X165925000Y-109700001D01*
X165923796Y-109724505D01*
X165920196Y-109748773D01*
X165914235Y-109772572D01*
X165905970Y-109795671D01*
X165895480Y-109817850D01*
X165882868Y-109838893D01*
X165868253Y-109858599D01*
X165851777Y-109876777D01*
X165833599Y-109893253D01*
X165813893Y-109907868D01*
X165792850Y-109920480D01*
X165770671Y-109930970D01*
X165747572Y-109939235D01*
X165723773Y-109945196D01*
X165699505Y-109948796D01*
X165675001Y-109950000D01*
X165149999Y-109950000D01*
X165125495Y-109948796D01*
X165101227Y-109945196D01*
X165077428Y-109939235D01*
X165054329Y-109930970D01*
X165032150Y-109920480D01*
X165011107Y-109907868D01*
X164991401Y-109893253D01*
X164973223Y-109876777D01*
X164956747Y-109858599D01*
X164942132Y-109838893D01*
X164929520Y-109817850D01*
X164919030Y-109795671D01*
X164910765Y-109772572D01*
X164904804Y-109748773D01*
X164901204Y-109724505D01*
X164900000Y-109700001D01*
X164900000Y-108799999D01*
X164901204Y-108775495D01*
X164904804Y-108751227D01*
X164910765Y-108727428D01*
X164919030Y-108704329D01*
X164929520Y-108682150D01*
X164942132Y-108661107D01*
X164956747Y-108641401D01*
X164973223Y-108623223D01*
X164991401Y-108606747D01*
X165011107Y-108592132D01*
X165032150Y-108579520D01*
X165054329Y-108569030D01*
X165077428Y-108560765D01*
X165101227Y-108554804D01*
X165125495Y-108551204D01*
X165149999Y-108550000D01*
X165675001Y-108550000D01*
X165699505Y-108551204D01*
G37*
G36*
X163874505Y-108551204D02*
G01*
X163898773Y-108554804D01*
X163922572Y-108560765D01*
X163945671Y-108569030D01*
X163967850Y-108579520D01*
X163988893Y-108592132D01*
X164008599Y-108606747D01*
X164026777Y-108623223D01*
X164043253Y-108641401D01*
X164057868Y-108661107D01*
X164070480Y-108682150D01*
X164080970Y-108704329D01*
X164089235Y-108727428D01*
X164095196Y-108751227D01*
X164098796Y-108775495D01*
X164100000Y-108799999D01*
X164100000Y-109700001D01*
X164098796Y-109724505D01*
X164095196Y-109748773D01*
X164089235Y-109772572D01*
X164080970Y-109795671D01*
X164070480Y-109817850D01*
X164057868Y-109838893D01*
X164043253Y-109858599D01*
X164026777Y-109876777D01*
X164008599Y-109893253D01*
X163988893Y-109907868D01*
X163967850Y-109920480D01*
X163945671Y-109930970D01*
X163922572Y-109939235D01*
X163898773Y-109945196D01*
X163874505Y-109948796D01*
X163850001Y-109950000D01*
X163324999Y-109950000D01*
X163300495Y-109948796D01*
X163276227Y-109945196D01*
X163252428Y-109939235D01*
X163229329Y-109930970D01*
X163207150Y-109920480D01*
X163186107Y-109907868D01*
X163166401Y-109893253D01*
X163148223Y-109876777D01*
X163131747Y-109858599D01*
X163117132Y-109838893D01*
X163104520Y-109817850D01*
X163094030Y-109795671D01*
X163085765Y-109772572D01*
X163079804Y-109748773D01*
X163076204Y-109724505D01*
X163075000Y-109700001D01*
X163075000Y-108799999D01*
X163076204Y-108775495D01*
X163079804Y-108751227D01*
X163085765Y-108727428D01*
X163094030Y-108704329D01*
X163104520Y-108682150D01*
X163117132Y-108661107D01*
X163131747Y-108641401D01*
X163148223Y-108623223D01*
X163166401Y-108606747D01*
X163186107Y-108592132D01*
X163207150Y-108579520D01*
X163229329Y-108569030D01*
X163252428Y-108560765D01*
X163276227Y-108554804D01*
X163300495Y-108551204D01*
X163324999Y-108550000D01*
X163850001Y-108550000D01*
X163874505Y-108551204D01*
G37*
G36*
X165699505Y-105301204D02*
G01*
X165723773Y-105304804D01*
X165747572Y-105310765D01*
X165770671Y-105319030D01*
X165792850Y-105329520D01*
X165813893Y-105342132D01*
X165833599Y-105356747D01*
X165851777Y-105373223D01*
X165868253Y-105391401D01*
X165882868Y-105411107D01*
X165895480Y-105432150D01*
X165905970Y-105454329D01*
X165914235Y-105477428D01*
X165920196Y-105501227D01*
X165923796Y-105525495D01*
X165925000Y-105549999D01*
X165925000Y-106450001D01*
X165923796Y-106474505D01*
X165920196Y-106498773D01*
X165914235Y-106522572D01*
X165905970Y-106545671D01*
X165895480Y-106567850D01*
X165882868Y-106588893D01*
X165868253Y-106608599D01*
X165851777Y-106626777D01*
X165833599Y-106643253D01*
X165813893Y-106657868D01*
X165792850Y-106670480D01*
X165770671Y-106680970D01*
X165747572Y-106689235D01*
X165723773Y-106695196D01*
X165699505Y-106698796D01*
X165675001Y-106700000D01*
X165149999Y-106700000D01*
X165125495Y-106698796D01*
X165101227Y-106695196D01*
X165077428Y-106689235D01*
X165054329Y-106680970D01*
X165032150Y-106670480D01*
X165011107Y-106657868D01*
X164991401Y-106643253D01*
X164973223Y-106626777D01*
X164956747Y-106608599D01*
X164942132Y-106588893D01*
X164929520Y-106567850D01*
X164919030Y-106545671D01*
X164910765Y-106522572D01*
X164904804Y-106498773D01*
X164901204Y-106474505D01*
X164900000Y-106450001D01*
X164900000Y-105549999D01*
X164901204Y-105525495D01*
X164904804Y-105501227D01*
X164910765Y-105477428D01*
X164919030Y-105454329D01*
X164929520Y-105432150D01*
X164942132Y-105411107D01*
X164956747Y-105391401D01*
X164973223Y-105373223D01*
X164991401Y-105356747D01*
X165011107Y-105342132D01*
X165032150Y-105329520D01*
X165054329Y-105319030D01*
X165077428Y-105310765D01*
X165101227Y-105304804D01*
X165125495Y-105301204D01*
X165149999Y-105300000D01*
X165675001Y-105300000D01*
X165699505Y-105301204D01*
G37*
G36*
X163874505Y-105301204D02*
G01*
X163898773Y-105304804D01*
X163922572Y-105310765D01*
X163945671Y-105319030D01*
X163967850Y-105329520D01*
X163988893Y-105342132D01*
X164008599Y-105356747D01*
X164026777Y-105373223D01*
X164043253Y-105391401D01*
X164057868Y-105411107D01*
X164070480Y-105432150D01*
X164080970Y-105454329D01*
X164089235Y-105477428D01*
X164095196Y-105501227D01*
X164098796Y-105525495D01*
X164100000Y-105549999D01*
X164100000Y-106450001D01*
X164098796Y-106474505D01*
X164095196Y-106498773D01*
X164089235Y-106522572D01*
X164080970Y-106545671D01*
X164070480Y-106567850D01*
X164057868Y-106588893D01*
X164043253Y-106608599D01*
X164026777Y-106626777D01*
X164008599Y-106643253D01*
X163988893Y-106657868D01*
X163967850Y-106670480D01*
X163945671Y-106680970D01*
X163922572Y-106689235D01*
X163898773Y-106695196D01*
X163874505Y-106698796D01*
X163850001Y-106700000D01*
X163324999Y-106700000D01*
X163300495Y-106698796D01*
X163276227Y-106695196D01*
X163252428Y-106689235D01*
X163229329Y-106680970D01*
X163207150Y-106670480D01*
X163186107Y-106657868D01*
X163166401Y-106643253D01*
X163148223Y-106626777D01*
X163131747Y-106608599D01*
X163117132Y-106588893D01*
X163104520Y-106567850D01*
X163094030Y-106545671D01*
X163085765Y-106522572D01*
X163079804Y-106498773D01*
X163076204Y-106474505D01*
X163075000Y-106450001D01*
X163075000Y-105549999D01*
X163076204Y-105525495D01*
X163079804Y-105501227D01*
X163085765Y-105477428D01*
X163094030Y-105454329D01*
X163104520Y-105432150D01*
X163117132Y-105411107D01*
X163131747Y-105391401D01*
X163148223Y-105373223D01*
X163166401Y-105356747D01*
X163186107Y-105342132D01*
X163207150Y-105329520D01*
X163229329Y-105319030D01*
X163252428Y-105310765D01*
X163276227Y-105304804D01*
X163300495Y-105301204D01*
X163324999Y-105300000D01*
X163850001Y-105300000D01*
X163874505Y-105301204D01*
G37*
G36*
X145224505Y-116726204D02*
G01*
X145248773Y-116729804D01*
X145272572Y-116735765D01*
X145295671Y-116744030D01*
X145317850Y-116754520D01*
X145338893Y-116767132D01*
X145358599Y-116781747D01*
X145376777Y-116798223D01*
X145393253Y-116816401D01*
X145407868Y-116836107D01*
X145420480Y-116857150D01*
X145430970Y-116879329D01*
X145439235Y-116902428D01*
X145445196Y-116926227D01*
X145448796Y-116950495D01*
X145450000Y-116974999D01*
X145450000Y-117500001D01*
X145448796Y-117524505D01*
X145445196Y-117548773D01*
X145439235Y-117572572D01*
X145430970Y-117595671D01*
X145420480Y-117617850D01*
X145407868Y-117638893D01*
X145393253Y-117658599D01*
X145376777Y-117676777D01*
X145358599Y-117693253D01*
X145338893Y-117707868D01*
X145317850Y-117720480D01*
X145295671Y-117730970D01*
X145272572Y-117739235D01*
X145248773Y-117745196D01*
X145224505Y-117748796D01*
X145200001Y-117750000D01*
X144299999Y-117750000D01*
X144275495Y-117748796D01*
X144251227Y-117745196D01*
X144227428Y-117739235D01*
X144204329Y-117730970D01*
X144182150Y-117720480D01*
X144161107Y-117707868D01*
X144141401Y-117693253D01*
X144123223Y-117676777D01*
X144106747Y-117658599D01*
X144092132Y-117638893D01*
X144079520Y-117617850D01*
X144069030Y-117595671D01*
X144060765Y-117572572D01*
X144054804Y-117548773D01*
X144051204Y-117524505D01*
X144050000Y-117500001D01*
X144050000Y-116974999D01*
X144051204Y-116950495D01*
X144054804Y-116926227D01*
X144060765Y-116902428D01*
X144069030Y-116879329D01*
X144079520Y-116857150D01*
X144092132Y-116836107D01*
X144106747Y-116816401D01*
X144123223Y-116798223D01*
X144141401Y-116781747D01*
X144161107Y-116767132D01*
X144182150Y-116754520D01*
X144204329Y-116744030D01*
X144227428Y-116735765D01*
X144251227Y-116729804D01*
X144275495Y-116726204D01*
X144299999Y-116725000D01*
X145200001Y-116725000D01*
X145224505Y-116726204D01*
G37*
G36*
X145224505Y-118551204D02*
G01*
X145248773Y-118554804D01*
X145272572Y-118560765D01*
X145295671Y-118569030D01*
X145317850Y-118579520D01*
X145338893Y-118592132D01*
X145358599Y-118606747D01*
X145376777Y-118623223D01*
X145393253Y-118641401D01*
X145407868Y-118661107D01*
X145420480Y-118682150D01*
X145430970Y-118704329D01*
X145439235Y-118727428D01*
X145445196Y-118751227D01*
X145448796Y-118775495D01*
X145450000Y-118799999D01*
X145450000Y-119325001D01*
X145448796Y-119349505D01*
X145445196Y-119373773D01*
X145439235Y-119397572D01*
X145430970Y-119420671D01*
X145420480Y-119442850D01*
X145407868Y-119463893D01*
X145393253Y-119483599D01*
X145376777Y-119501777D01*
X145358599Y-119518253D01*
X145338893Y-119532868D01*
X145317850Y-119545480D01*
X145295671Y-119555970D01*
X145272572Y-119564235D01*
X145248773Y-119570196D01*
X145224505Y-119573796D01*
X145200001Y-119575000D01*
X144299999Y-119575000D01*
X144275495Y-119573796D01*
X144251227Y-119570196D01*
X144227428Y-119564235D01*
X144204329Y-119555970D01*
X144182150Y-119545480D01*
X144161107Y-119532868D01*
X144141401Y-119518253D01*
X144123223Y-119501777D01*
X144106747Y-119483599D01*
X144092132Y-119463893D01*
X144079520Y-119442850D01*
X144069030Y-119420671D01*
X144060765Y-119397572D01*
X144054804Y-119373773D01*
X144051204Y-119349505D01*
X144050000Y-119325001D01*
X144050000Y-118799999D01*
X144051204Y-118775495D01*
X144054804Y-118751227D01*
X144060765Y-118727428D01*
X144069030Y-118704329D01*
X144079520Y-118682150D01*
X144092132Y-118661107D01*
X144106747Y-118641401D01*
X144123223Y-118623223D01*
X144141401Y-118606747D01*
X144161107Y-118592132D01*
X144182150Y-118579520D01*
X144204329Y-118569030D01*
X144227428Y-118560765D01*
X144251227Y-118554804D01*
X144275495Y-118551204D01*
X144299999Y-118550000D01*
X145200001Y-118550000D01*
X145224505Y-118551204D01*
G37*
G36*
X162199505Y-108551204D02*
G01*
X162223773Y-108554804D01*
X162247572Y-108560765D01*
X162270671Y-108569030D01*
X162292850Y-108579520D01*
X162313893Y-108592132D01*
X162333599Y-108606747D01*
X162351777Y-108623223D01*
X162368253Y-108641401D01*
X162382868Y-108661107D01*
X162395480Y-108682150D01*
X162405970Y-108704329D01*
X162414235Y-108727428D01*
X162420196Y-108751227D01*
X162423796Y-108775495D01*
X162425000Y-108799999D01*
X162425000Y-109700001D01*
X162423796Y-109724505D01*
X162420196Y-109748773D01*
X162414235Y-109772572D01*
X162405970Y-109795671D01*
X162395480Y-109817850D01*
X162382868Y-109838893D01*
X162368253Y-109858599D01*
X162351777Y-109876777D01*
X162333599Y-109893253D01*
X162313893Y-109907868D01*
X162292850Y-109920480D01*
X162270671Y-109930970D01*
X162247572Y-109939235D01*
X162223773Y-109945196D01*
X162199505Y-109948796D01*
X162175001Y-109950000D01*
X161649999Y-109950000D01*
X161625495Y-109948796D01*
X161601227Y-109945196D01*
X161577428Y-109939235D01*
X161554329Y-109930970D01*
X161532150Y-109920480D01*
X161511107Y-109907868D01*
X161491401Y-109893253D01*
X161473223Y-109876777D01*
X161456747Y-109858599D01*
X161442132Y-109838893D01*
X161429520Y-109817850D01*
X161419030Y-109795671D01*
X161410765Y-109772572D01*
X161404804Y-109748773D01*
X161401204Y-109724505D01*
X161400000Y-109700001D01*
X161400000Y-108799999D01*
X161401204Y-108775495D01*
X161404804Y-108751227D01*
X161410765Y-108727428D01*
X161419030Y-108704329D01*
X161429520Y-108682150D01*
X161442132Y-108661107D01*
X161456747Y-108641401D01*
X161473223Y-108623223D01*
X161491401Y-108606747D01*
X161511107Y-108592132D01*
X161532150Y-108579520D01*
X161554329Y-108569030D01*
X161577428Y-108560765D01*
X161601227Y-108554804D01*
X161625495Y-108551204D01*
X161649999Y-108550000D01*
X162175001Y-108550000D01*
X162199505Y-108551204D01*
G37*
G36*
X160374505Y-108551204D02*
G01*
X160398773Y-108554804D01*
X160422572Y-108560765D01*
X160445671Y-108569030D01*
X160467850Y-108579520D01*
X160488893Y-108592132D01*
X160508599Y-108606747D01*
X160526777Y-108623223D01*
X160543253Y-108641401D01*
X160557868Y-108661107D01*
X160570480Y-108682150D01*
X160580970Y-108704329D01*
X160589235Y-108727428D01*
X160595196Y-108751227D01*
X160598796Y-108775495D01*
X160600000Y-108799999D01*
X160600000Y-109700001D01*
X160598796Y-109724505D01*
X160595196Y-109748773D01*
X160589235Y-109772572D01*
X160580970Y-109795671D01*
X160570480Y-109817850D01*
X160557868Y-109838893D01*
X160543253Y-109858599D01*
X160526777Y-109876777D01*
X160508599Y-109893253D01*
X160488893Y-109907868D01*
X160467850Y-109920480D01*
X160445671Y-109930970D01*
X160422572Y-109939235D01*
X160398773Y-109945196D01*
X160374505Y-109948796D01*
X160350001Y-109950000D01*
X159824999Y-109950000D01*
X159800495Y-109948796D01*
X159776227Y-109945196D01*
X159752428Y-109939235D01*
X159729329Y-109930970D01*
X159707150Y-109920480D01*
X159686107Y-109907868D01*
X159666401Y-109893253D01*
X159648223Y-109876777D01*
X159631747Y-109858599D01*
X159617132Y-109838893D01*
X159604520Y-109817850D01*
X159594030Y-109795671D01*
X159585765Y-109772572D01*
X159579804Y-109748773D01*
X159576204Y-109724505D01*
X159575000Y-109700001D01*
X159575000Y-108799999D01*
X159576204Y-108775495D01*
X159579804Y-108751227D01*
X159585765Y-108727428D01*
X159594030Y-108704329D01*
X159604520Y-108682150D01*
X159617132Y-108661107D01*
X159631747Y-108641401D01*
X159648223Y-108623223D01*
X159666401Y-108606747D01*
X159686107Y-108592132D01*
X159707150Y-108579520D01*
X159729329Y-108569030D01*
X159752428Y-108560765D01*
X159776227Y-108554804D01*
X159800495Y-108551204D01*
X159824999Y-108550000D01*
X160350001Y-108550000D01*
X160374505Y-108551204D01*
G37*
G36*
X181749505Y-116021204D02*
G01*
X181773773Y-116024804D01*
X181797572Y-116030765D01*
X181820671Y-116039030D01*
X181842850Y-116049520D01*
X181863893Y-116062132D01*
X181883599Y-116076747D01*
X181901777Y-116093223D01*
X181918253Y-116111401D01*
X181932868Y-116131107D01*
X181945480Y-116152150D01*
X181955970Y-116174329D01*
X181964235Y-116197428D01*
X181970196Y-116221227D01*
X181973796Y-116245495D01*
X181975000Y-116269999D01*
X181975000Y-117170001D01*
X181973796Y-117194505D01*
X181970196Y-117218773D01*
X181964235Y-117242572D01*
X181955970Y-117265671D01*
X181945480Y-117287850D01*
X181932868Y-117308893D01*
X181918253Y-117328599D01*
X181901777Y-117346777D01*
X181883599Y-117363253D01*
X181863893Y-117377868D01*
X181842850Y-117390480D01*
X181820671Y-117400970D01*
X181797572Y-117409235D01*
X181773773Y-117415196D01*
X181749505Y-117418796D01*
X181725001Y-117420000D01*
X181199999Y-117420000D01*
X181175495Y-117418796D01*
X181151227Y-117415196D01*
X181127428Y-117409235D01*
X181104329Y-117400970D01*
X181082150Y-117390480D01*
X181061107Y-117377868D01*
X181041401Y-117363253D01*
X181023223Y-117346777D01*
X181006747Y-117328599D01*
X180992132Y-117308893D01*
X180979520Y-117287850D01*
X180969030Y-117265671D01*
X180960765Y-117242572D01*
X180954804Y-117218773D01*
X180951204Y-117194505D01*
X180950000Y-117170001D01*
X180950000Y-116269999D01*
X180951204Y-116245495D01*
X180954804Y-116221227D01*
X180960765Y-116197428D01*
X180969030Y-116174329D01*
X180979520Y-116152150D01*
X180992132Y-116131107D01*
X181006747Y-116111401D01*
X181023223Y-116093223D01*
X181041401Y-116076747D01*
X181061107Y-116062132D01*
X181082150Y-116049520D01*
X181104329Y-116039030D01*
X181127428Y-116030765D01*
X181151227Y-116024804D01*
X181175495Y-116021204D01*
X181199999Y-116020000D01*
X181725001Y-116020000D01*
X181749505Y-116021204D01*
G37*
G36*
X179924505Y-116021204D02*
G01*
X179948773Y-116024804D01*
X179972572Y-116030765D01*
X179995671Y-116039030D01*
X180017850Y-116049520D01*
X180038893Y-116062132D01*
X180058599Y-116076747D01*
X180076777Y-116093223D01*
X180093253Y-116111401D01*
X180107868Y-116131107D01*
X180120480Y-116152150D01*
X180130970Y-116174329D01*
X180139235Y-116197428D01*
X180145196Y-116221227D01*
X180148796Y-116245495D01*
X180150000Y-116269999D01*
X180150000Y-117170001D01*
X180148796Y-117194505D01*
X180145196Y-117218773D01*
X180139235Y-117242572D01*
X180130970Y-117265671D01*
X180120480Y-117287850D01*
X180107868Y-117308893D01*
X180093253Y-117328599D01*
X180076777Y-117346777D01*
X180058599Y-117363253D01*
X180038893Y-117377868D01*
X180017850Y-117390480D01*
X179995671Y-117400970D01*
X179972572Y-117409235D01*
X179948773Y-117415196D01*
X179924505Y-117418796D01*
X179900001Y-117420000D01*
X179374999Y-117420000D01*
X179350495Y-117418796D01*
X179326227Y-117415196D01*
X179302428Y-117409235D01*
X179279329Y-117400970D01*
X179257150Y-117390480D01*
X179236107Y-117377868D01*
X179216401Y-117363253D01*
X179198223Y-117346777D01*
X179181747Y-117328599D01*
X179167132Y-117308893D01*
X179154520Y-117287850D01*
X179144030Y-117265671D01*
X179135765Y-117242572D01*
X179129804Y-117218773D01*
X179126204Y-117194505D01*
X179125000Y-117170001D01*
X179125000Y-116269999D01*
X179126204Y-116245495D01*
X179129804Y-116221227D01*
X179135765Y-116197428D01*
X179144030Y-116174329D01*
X179154520Y-116152150D01*
X179167132Y-116131107D01*
X179181747Y-116111401D01*
X179198223Y-116093223D01*
X179216401Y-116076747D01*
X179236107Y-116062132D01*
X179257150Y-116049520D01*
X179279329Y-116039030D01*
X179302428Y-116030765D01*
X179326227Y-116024804D01*
X179350495Y-116021204D01*
X179374999Y-116020000D01*
X179900001Y-116020000D01*
X179924505Y-116021204D01*
G37*
G36*
X180924505Y-108551204D02*
G01*
X180948773Y-108554804D01*
X180972572Y-108560765D01*
X180995671Y-108569030D01*
X181017850Y-108579520D01*
X181038893Y-108592132D01*
X181058599Y-108606747D01*
X181076777Y-108623223D01*
X181093253Y-108641401D01*
X181107868Y-108661107D01*
X181120480Y-108682150D01*
X181130970Y-108704329D01*
X181139235Y-108727428D01*
X181145196Y-108751227D01*
X181148796Y-108775495D01*
X181150000Y-108799999D01*
X181150000Y-109325001D01*
X181148796Y-109349505D01*
X181145196Y-109373773D01*
X181139235Y-109397572D01*
X181130970Y-109420671D01*
X181120480Y-109442850D01*
X181107868Y-109463893D01*
X181093253Y-109483599D01*
X181076777Y-109501777D01*
X181058599Y-109518253D01*
X181038893Y-109532868D01*
X181017850Y-109545480D01*
X180995671Y-109555970D01*
X180972572Y-109564235D01*
X180948773Y-109570196D01*
X180924505Y-109573796D01*
X180900001Y-109575000D01*
X179999999Y-109575000D01*
X179975495Y-109573796D01*
X179951227Y-109570196D01*
X179927428Y-109564235D01*
X179904329Y-109555970D01*
X179882150Y-109545480D01*
X179861107Y-109532868D01*
X179841401Y-109518253D01*
X179823223Y-109501777D01*
X179806747Y-109483599D01*
X179792132Y-109463893D01*
X179779520Y-109442850D01*
X179769030Y-109420671D01*
X179760765Y-109397572D01*
X179754804Y-109373773D01*
X179751204Y-109349505D01*
X179750000Y-109325001D01*
X179750000Y-108799999D01*
X179751204Y-108775495D01*
X179754804Y-108751227D01*
X179760765Y-108727428D01*
X179769030Y-108704329D01*
X179779520Y-108682150D01*
X179792132Y-108661107D01*
X179806747Y-108641401D01*
X179823223Y-108623223D01*
X179841401Y-108606747D01*
X179861107Y-108592132D01*
X179882150Y-108579520D01*
X179904329Y-108569030D01*
X179927428Y-108560765D01*
X179951227Y-108554804D01*
X179975495Y-108551204D01*
X179999999Y-108550000D01*
X180900001Y-108550000D01*
X180924505Y-108551204D01*
G37*
G36*
X180924505Y-106726204D02*
G01*
X180948773Y-106729804D01*
X180972572Y-106735765D01*
X180995671Y-106744030D01*
X181017850Y-106754520D01*
X181038893Y-106767132D01*
X181058599Y-106781747D01*
X181076777Y-106798223D01*
X181093253Y-106816401D01*
X181107868Y-106836107D01*
X181120480Y-106857150D01*
X181130970Y-106879329D01*
X181139235Y-106902428D01*
X181145196Y-106926227D01*
X181148796Y-106950495D01*
X181150000Y-106974999D01*
X181150000Y-107500001D01*
X181148796Y-107524505D01*
X181145196Y-107548773D01*
X181139235Y-107572572D01*
X181130970Y-107595671D01*
X181120480Y-107617850D01*
X181107868Y-107638893D01*
X181093253Y-107658599D01*
X181076777Y-107676777D01*
X181058599Y-107693253D01*
X181038893Y-107707868D01*
X181017850Y-107720480D01*
X180995671Y-107730970D01*
X180972572Y-107739235D01*
X180948773Y-107745196D01*
X180924505Y-107748796D01*
X180900001Y-107750000D01*
X179999999Y-107750000D01*
X179975495Y-107748796D01*
X179951227Y-107745196D01*
X179927428Y-107739235D01*
X179904329Y-107730970D01*
X179882150Y-107720480D01*
X179861107Y-107707868D01*
X179841401Y-107693253D01*
X179823223Y-107676777D01*
X179806747Y-107658599D01*
X179792132Y-107638893D01*
X179779520Y-107617850D01*
X179769030Y-107595671D01*
X179760765Y-107572572D01*
X179754804Y-107548773D01*
X179751204Y-107524505D01*
X179750000Y-107500001D01*
X179750000Y-106974999D01*
X179751204Y-106950495D01*
X179754804Y-106926227D01*
X179760765Y-106902428D01*
X179769030Y-106879329D01*
X179779520Y-106857150D01*
X179792132Y-106836107D01*
X179806747Y-106816401D01*
X179823223Y-106798223D01*
X179841401Y-106781747D01*
X179861107Y-106767132D01*
X179882150Y-106754520D01*
X179904329Y-106744030D01*
X179927428Y-106735765D01*
X179951227Y-106729804D01*
X179975495Y-106726204D01*
X179999999Y-106725000D01*
X180900001Y-106725000D01*
X180924505Y-106726204D01*
G37*
G36*
X178924505Y-108551204D02*
G01*
X178948773Y-108554804D01*
X178972572Y-108560765D01*
X178995671Y-108569030D01*
X179017850Y-108579520D01*
X179038893Y-108592132D01*
X179058599Y-108606747D01*
X179076777Y-108623223D01*
X179093253Y-108641401D01*
X179107868Y-108661107D01*
X179120480Y-108682150D01*
X179130970Y-108704329D01*
X179139235Y-108727428D01*
X179145196Y-108751227D01*
X179148796Y-108775495D01*
X179150000Y-108799999D01*
X179150000Y-109325001D01*
X179148796Y-109349505D01*
X179145196Y-109373773D01*
X179139235Y-109397572D01*
X179130970Y-109420671D01*
X179120480Y-109442850D01*
X179107868Y-109463893D01*
X179093253Y-109483599D01*
X179076777Y-109501777D01*
X179058599Y-109518253D01*
X179038893Y-109532868D01*
X179017850Y-109545480D01*
X178995671Y-109555970D01*
X178972572Y-109564235D01*
X178948773Y-109570196D01*
X178924505Y-109573796D01*
X178900001Y-109575000D01*
X177999999Y-109575000D01*
X177975495Y-109573796D01*
X177951227Y-109570196D01*
X177927428Y-109564235D01*
X177904329Y-109555970D01*
X177882150Y-109545480D01*
X177861107Y-109532868D01*
X177841401Y-109518253D01*
X177823223Y-109501777D01*
X177806747Y-109483599D01*
X177792132Y-109463893D01*
X177779520Y-109442850D01*
X177769030Y-109420671D01*
X177760765Y-109397572D01*
X177754804Y-109373773D01*
X177751204Y-109349505D01*
X177750000Y-109325001D01*
X177750000Y-108799999D01*
X177751204Y-108775495D01*
X177754804Y-108751227D01*
X177760765Y-108727428D01*
X177769030Y-108704329D01*
X177779520Y-108682150D01*
X177792132Y-108661107D01*
X177806747Y-108641401D01*
X177823223Y-108623223D01*
X177841401Y-108606747D01*
X177861107Y-108592132D01*
X177882150Y-108579520D01*
X177904329Y-108569030D01*
X177927428Y-108560765D01*
X177951227Y-108554804D01*
X177975495Y-108551204D01*
X177999999Y-108550000D01*
X178900001Y-108550000D01*
X178924505Y-108551204D01*
G37*
G36*
X178924505Y-106726204D02*
G01*
X178948773Y-106729804D01*
X178972572Y-106735765D01*
X178995671Y-106744030D01*
X179017850Y-106754520D01*
X179038893Y-106767132D01*
X179058599Y-106781747D01*
X179076777Y-106798223D01*
X179093253Y-106816401D01*
X179107868Y-106836107D01*
X179120480Y-106857150D01*
X179130970Y-106879329D01*
X179139235Y-106902428D01*
X179145196Y-106926227D01*
X179148796Y-106950495D01*
X179150000Y-106974999D01*
X179150000Y-107500001D01*
X179148796Y-107524505D01*
X179145196Y-107548773D01*
X179139235Y-107572572D01*
X179130970Y-107595671D01*
X179120480Y-107617850D01*
X179107868Y-107638893D01*
X179093253Y-107658599D01*
X179076777Y-107676777D01*
X179058599Y-107693253D01*
X179038893Y-107707868D01*
X179017850Y-107720480D01*
X178995671Y-107730970D01*
X178972572Y-107739235D01*
X178948773Y-107745196D01*
X178924505Y-107748796D01*
X178900001Y-107750000D01*
X177999999Y-107750000D01*
X177975495Y-107748796D01*
X177951227Y-107745196D01*
X177927428Y-107739235D01*
X177904329Y-107730970D01*
X177882150Y-107720480D01*
X177861107Y-107707868D01*
X177841401Y-107693253D01*
X177823223Y-107676777D01*
X177806747Y-107658599D01*
X177792132Y-107638893D01*
X177779520Y-107617850D01*
X177769030Y-107595671D01*
X177760765Y-107572572D01*
X177754804Y-107548773D01*
X177751204Y-107524505D01*
X177750000Y-107500001D01*
X177750000Y-106974999D01*
X177751204Y-106950495D01*
X177754804Y-106926227D01*
X177760765Y-106902428D01*
X177769030Y-106879329D01*
X177779520Y-106857150D01*
X177792132Y-106836107D01*
X177806747Y-106816401D01*
X177823223Y-106798223D01*
X177841401Y-106781747D01*
X177861107Y-106767132D01*
X177882150Y-106754520D01*
X177904329Y-106744030D01*
X177927428Y-106735765D01*
X177951227Y-106729804D01*
X177975495Y-106726204D01*
X177999999Y-106725000D01*
X178900001Y-106725000D01*
X178924505Y-106726204D01*
G37*
G36*
X191464505Y-122831204D02*
G01*
X191488773Y-122834804D01*
X191512572Y-122840765D01*
X191535671Y-122849030D01*
X191557850Y-122859520D01*
X191578893Y-122872132D01*
X191598599Y-122886747D01*
X191616777Y-122903223D01*
X191633253Y-122921401D01*
X191647868Y-122941107D01*
X191660480Y-122962150D01*
X191670970Y-122984329D01*
X191679235Y-123007428D01*
X191685196Y-123031227D01*
X191688796Y-123055495D01*
X191690000Y-123079999D01*
X191690000Y-123605001D01*
X191688796Y-123629505D01*
X191685196Y-123653773D01*
X191679235Y-123677572D01*
X191670970Y-123700671D01*
X191660480Y-123722850D01*
X191647868Y-123743893D01*
X191633253Y-123763599D01*
X191616777Y-123781777D01*
X191598599Y-123798253D01*
X191578893Y-123812868D01*
X191557850Y-123825480D01*
X191535671Y-123835970D01*
X191512572Y-123844235D01*
X191488773Y-123850196D01*
X191464505Y-123853796D01*
X191440001Y-123855000D01*
X190539999Y-123855000D01*
X190515495Y-123853796D01*
X190491227Y-123850196D01*
X190467428Y-123844235D01*
X190444329Y-123835970D01*
X190422150Y-123825480D01*
X190401107Y-123812868D01*
X190381401Y-123798253D01*
X190363223Y-123781777D01*
X190346747Y-123763599D01*
X190332132Y-123743893D01*
X190319520Y-123722850D01*
X190309030Y-123700671D01*
X190300765Y-123677572D01*
X190294804Y-123653773D01*
X190291204Y-123629505D01*
X190290000Y-123605001D01*
X190290000Y-123079999D01*
X190291204Y-123055495D01*
X190294804Y-123031227D01*
X190300765Y-123007428D01*
X190309030Y-122984329D01*
X190319520Y-122962150D01*
X190332132Y-122941107D01*
X190346747Y-122921401D01*
X190363223Y-122903223D01*
X190381401Y-122886747D01*
X190401107Y-122872132D01*
X190422150Y-122859520D01*
X190444329Y-122849030D01*
X190467428Y-122840765D01*
X190491227Y-122834804D01*
X190515495Y-122831204D01*
X190539999Y-122830000D01*
X191440001Y-122830000D01*
X191464505Y-122831204D01*
G37*
G36*
X191464505Y-121006204D02*
G01*
X191488773Y-121009804D01*
X191512572Y-121015765D01*
X191535671Y-121024030D01*
X191557850Y-121034520D01*
X191578893Y-121047132D01*
X191598599Y-121061747D01*
X191616777Y-121078223D01*
X191633253Y-121096401D01*
X191647868Y-121116107D01*
X191660480Y-121137150D01*
X191670970Y-121159329D01*
X191679235Y-121182428D01*
X191685196Y-121206227D01*
X191688796Y-121230495D01*
X191690000Y-121254999D01*
X191690000Y-121780001D01*
X191688796Y-121804505D01*
X191685196Y-121828773D01*
X191679235Y-121852572D01*
X191670970Y-121875671D01*
X191660480Y-121897850D01*
X191647868Y-121918893D01*
X191633253Y-121938599D01*
X191616777Y-121956777D01*
X191598599Y-121973253D01*
X191578893Y-121987868D01*
X191557850Y-122000480D01*
X191535671Y-122010970D01*
X191512572Y-122019235D01*
X191488773Y-122025196D01*
X191464505Y-122028796D01*
X191440001Y-122030000D01*
X190539999Y-122030000D01*
X190515495Y-122028796D01*
X190491227Y-122025196D01*
X190467428Y-122019235D01*
X190444329Y-122010970D01*
X190422150Y-122000480D01*
X190401107Y-121987868D01*
X190381401Y-121973253D01*
X190363223Y-121956777D01*
X190346747Y-121938599D01*
X190332132Y-121918893D01*
X190319520Y-121897850D01*
X190309030Y-121875671D01*
X190300765Y-121852572D01*
X190294804Y-121828773D01*
X190291204Y-121804505D01*
X190290000Y-121780001D01*
X190290000Y-121254999D01*
X190291204Y-121230495D01*
X190294804Y-121206227D01*
X190300765Y-121182428D01*
X190309030Y-121159329D01*
X190319520Y-121137150D01*
X190332132Y-121116107D01*
X190346747Y-121096401D01*
X190363223Y-121078223D01*
X190381401Y-121061747D01*
X190401107Y-121047132D01*
X190422150Y-121034520D01*
X190444329Y-121024030D01*
X190467428Y-121015765D01*
X190491227Y-121009804D01*
X190515495Y-121006204D01*
X190539999Y-121005000D01*
X191440001Y-121005000D01*
X191464505Y-121006204D01*
G37*
G36*
X201924505Y-109611204D02*
G01*
X201948773Y-109614804D01*
X201972572Y-109620765D01*
X201995671Y-109629030D01*
X202017850Y-109639520D01*
X202038893Y-109652132D01*
X202058599Y-109666747D01*
X202076777Y-109683223D01*
X202093253Y-109701401D01*
X202107868Y-109721107D01*
X202120480Y-109742150D01*
X202130970Y-109764329D01*
X202139235Y-109787428D01*
X202145196Y-109811227D01*
X202148796Y-109835495D01*
X202150000Y-109859999D01*
X202150000Y-110760001D01*
X202148796Y-110784505D01*
X202145196Y-110808773D01*
X202139235Y-110832572D01*
X202130970Y-110855671D01*
X202120480Y-110877850D01*
X202107868Y-110898893D01*
X202093253Y-110918599D01*
X202076777Y-110936777D01*
X202058599Y-110953253D01*
X202038893Y-110967868D01*
X202017850Y-110980480D01*
X201995671Y-110990970D01*
X201972572Y-110999235D01*
X201948773Y-111005196D01*
X201924505Y-111008796D01*
X201900001Y-111010000D01*
X201374999Y-111010000D01*
X201350495Y-111008796D01*
X201326227Y-111005196D01*
X201302428Y-110999235D01*
X201279329Y-110990970D01*
X201257150Y-110980480D01*
X201236107Y-110967868D01*
X201216401Y-110953253D01*
X201198223Y-110936777D01*
X201181747Y-110918599D01*
X201167132Y-110898893D01*
X201154520Y-110877850D01*
X201144030Y-110855671D01*
X201135765Y-110832572D01*
X201129804Y-110808773D01*
X201126204Y-110784505D01*
X201125000Y-110760001D01*
X201125000Y-109859999D01*
X201126204Y-109835495D01*
X201129804Y-109811227D01*
X201135765Y-109787428D01*
X201144030Y-109764329D01*
X201154520Y-109742150D01*
X201167132Y-109721107D01*
X201181747Y-109701401D01*
X201198223Y-109683223D01*
X201216401Y-109666747D01*
X201236107Y-109652132D01*
X201257150Y-109639520D01*
X201279329Y-109629030D01*
X201302428Y-109620765D01*
X201326227Y-109614804D01*
X201350495Y-109611204D01*
X201374999Y-109610000D01*
X201900001Y-109610000D01*
X201924505Y-109611204D01*
G37*
G36*
X203749505Y-109611204D02*
G01*
X203773773Y-109614804D01*
X203797572Y-109620765D01*
X203820671Y-109629030D01*
X203842850Y-109639520D01*
X203863893Y-109652132D01*
X203883599Y-109666747D01*
X203901777Y-109683223D01*
X203918253Y-109701401D01*
X203932868Y-109721107D01*
X203945480Y-109742150D01*
X203955970Y-109764329D01*
X203964235Y-109787428D01*
X203970196Y-109811227D01*
X203973796Y-109835495D01*
X203975000Y-109859999D01*
X203975000Y-110760001D01*
X203973796Y-110784505D01*
X203970196Y-110808773D01*
X203964235Y-110832572D01*
X203955970Y-110855671D01*
X203945480Y-110877850D01*
X203932868Y-110898893D01*
X203918253Y-110918599D01*
X203901777Y-110936777D01*
X203883599Y-110953253D01*
X203863893Y-110967868D01*
X203842850Y-110980480D01*
X203820671Y-110990970D01*
X203797572Y-110999235D01*
X203773773Y-111005196D01*
X203749505Y-111008796D01*
X203725001Y-111010000D01*
X203199999Y-111010000D01*
X203175495Y-111008796D01*
X203151227Y-111005196D01*
X203127428Y-110999235D01*
X203104329Y-110990970D01*
X203082150Y-110980480D01*
X203061107Y-110967868D01*
X203041401Y-110953253D01*
X203023223Y-110936777D01*
X203006747Y-110918599D01*
X202992132Y-110898893D01*
X202979520Y-110877850D01*
X202969030Y-110855671D01*
X202960765Y-110832572D01*
X202954804Y-110808773D01*
X202951204Y-110784505D01*
X202950000Y-110760001D01*
X202950000Y-109859999D01*
X202951204Y-109835495D01*
X202954804Y-109811227D01*
X202960765Y-109787428D01*
X202969030Y-109764329D01*
X202979520Y-109742150D01*
X202992132Y-109721107D01*
X203006747Y-109701401D01*
X203023223Y-109683223D01*
X203041401Y-109666747D01*
X203061107Y-109652132D01*
X203082150Y-109639520D01*
X203104329Y-109629030D01*
X203127428Y-109620765D01*
X203151227Y-109614804D01*
X203175495Y-109611204D01*
X203199999Y-109610000D01*
X203725001Y-109610000D01*
X203749505Y-109611204D01*
G37*
G36*
X203779505Y-107461204D02*
G01*
X203803773Y-107464804D01*
X203827572Y-107470765D01*
X203850671Y-107479030D01*
X203872850Y-107489520D01*
X203893893Y-107502132D01*
X203913599Y-107516747D01*
X203931777Y-107533223D01*
X203948253Y-107551401D01*
X203962868Y-107571107D01*
X203975480Y-107592150D01*
X203985970Y-107614329D01*
X203994235Y-107637428D01*
X204000196Y-107661227D01*
X204003796Y-107685495D01*
X204005000Y-107709999D01*
X204005000Y-108610001D01*
X204003796Y-108634505D01*
X204000196Y-108658773D01*
X203994235Y-108682572D01*
X203985970Y-108705671D01*
X203975480Y-108727850D01*
X203962868Y-108748893D01*
X203948253Y-108768599D01*
X203931777Y-108786777D01*
X203913599Y-108803253D01*
X203893893Y-108817868D01*
X203872850Y-108830480D01*
X203850671Y-108840970D01*
X203827572Y-108849235D01*
X203803773Y-108855196D01*
X203779505Y-108858796D01*
X203755001Y-108860000D01*
X203229999Y-108860000D01*
X203205495Y-108858796D01*
X203181227Y-108855196D01*
X203157428Y-108849235D01*
X203134329Y-108840970D01*
X203112150Y-108830480D01*
X203091107Y-108817868D01*
X203071401Y-108803253D01*
X203053223Y-108786777D01*
X203036747Y-108768599D01*
X203022132Y-108748893D01*
X203009520Y-108727850D01*
X202999030Y-108705671D01*
X202990765Y-108682572D01*
X202984804Y-108658773D01*
X202981204Y-108634505D01*
X202980000Y-108610001D01*
X202980000Y-107709999D01*
X202981204Y-107685495D01*
X202984804Y-107661227D01*
X202990765Y-107637428D01*
X202999030Y-107614329D01*
X203009520Y-107592150D01*
X203022132Y-107571107D01*
X203036747Y-107551401D01*
X203053223Y-107533223D01*
X203071401Y-107516747D01*
X203091107Y-107502132D01*
X203112150Y-107489520D01*
X203134329Y-107479030D01*
X203157428Y-107470765D01*
X203181227Y-107464804D01*
X203205495Y-107461204D01*
X203229999Y-107460000D01*
X203755001Y-107460000D01*
X203779505Y-107461204D01*
G37*
G36*
X201954505Y-107461204D02*
G01*
X201978773Y-107464804D01*
X202002572Y-107470765D01*
X202025671Y-107479030D01*
X202047850Y-107489520D01*
X202068893Y-107502132D01*
X202088599Y-107516747D01*
X202106777Y-107533223D01*
X202123253Y-107551401D01*
X202137868Y-107571107D01*
X202150480Y-107592150D01*
X202160970Y-107614329D01*
X202169235Y-107637428D01*
X202175196Y-107661227D01*
X202178796Y-107685495D01*
X202180000Y-107709999D01*
X202180000Y-108610001D01*
X202178796Y-108634505D01*
X202175196Y-108658773D01*
X202169235Y-108682572D01*
X202160970Y-108705671D01*
X202150480Y-108727850D01*
X202137868Y-108748893D01*
X202123253Y-108768599D01*
X202106777Y-108786777D01*
X202088599Y-108803253D01*
X202068893Y-108817868D01*
X202047850Y-108830480D01*
X202025671Y-108840970D01*
X202002572Y-108849235D01*
X201978773Y-108855196D01*
X201954505Y-108858796D01*
X201930001Y-108860000D01*
X201404999Y-108860000D01*
X201380495Y-108858796D01*
X201356227Y-108855196D01*
X201332428Y-108849235D01*
X201309329Y-108840970D01*
X201287150Y-108830480D01*
X201266107Y-108817868D01*
X201246401Y-108803253D01*
X201228223Y-108786777D01*
X201211747Y-108768599D01*
X201197132Y-108748893D01*
X201184520Y-108727850D01*
X201174030Y-108705671D01*
X201165765Y-108682572D01*
X201159804Y-108658773D01*
X201156204Y-108634505D01*
X201155000Y-108610001D01*
X201155000Y-107709999D01*
X201156204Y-107685495D01*
X201159804Y-107661227D01*
X201165765Y-107637428D01*
X201174030Y-107614329D01*
X201184520Y-107592150D01*
X201197132Y-107571107D01*
X201211747Y-107551401D01*
X201228223Y-107533223D01*
X201246401Y-107516747D01*
X201266107Y-107502132D01*
X201287150Y-107489520D01*
X201309329Y-107479030D01*
X201332428Y-107470765D01*
X201356227Y-107464804D01*
X201380495Y-107461204D01*
X201404999Y-107460000D01*
X201930001Y-107460000D01*
X201954505Y-107461204D01*
G37*
G36*
X206669505Y-112481204D02*
G01*
X206693773Y-112484804D01*
X206717572Y-112490765D01*
X206740671Y-112499030D01*
X206762850Y-112509520D01*
X206783893Y-112522132D01*
X206803599Y-112536747D01*
X206821777Y-112553223D01*
X206838253Y-112571401D01*
X206852868Y-112591107D01*
X206865480Y-112612150D01*
X206875970Y-112634329D01*
X206884235Y-112657428D01*
X206890196Y-112681227D01*
X206893796Y-112705495D01*
X206895000Y-112729999D01*
X206895000Y-113630001D01*
X206893796Y-113654505D01*
X206890196Y-113678773D01*
X206884235Y-113702572D01*
X206875970Y-113725671D01*
X206865480Y-113747850D01*
X206852868Y-113768893D01*
X206838253Y-113788599D01*
X206821777Y-113806777D01*
X206803599Y-113823253D01*
X206783893Y-113837868D01*
X206762850Y-113850480D01*
X206740671Y-113860970D01*
X206717572Y-113869235D01*
X206693773Y-113875196D01*
X206669505Y-113878796D01*
X206645001Y-113880000D01*
X206119999Y-113880000D01*
X206095495Y-113878796D01*
X206071227Y-113875196D01*
X206047428Y-113869235D01*
X206024329Y-113860970D01*
X206002150Y-113850480D01*
X205981107Y-113837868D01*
X205961401Y-113823253D01*
X205943223Y-113806777D01*
X205926747Y-113788599D01*
X205912132Y-113768893D01*
X205899520Y-113747850D01*
X205889030Y-113725671D01*
X205880765Y-113702572D01*
X205874804Y-113678773D01*
X205871204Y-113654505D01*
X205870000Y-113630001D01*
X205870000Y-112729999D01*
X205871204Y-112705495D01*
X205874804Y-112681227D01*
X205880765Y-112657428D01*
X205889030Y-112634329D01*
X205899520Y-112612150D01*
X205912132Y-112591107D01*
X205926747Y-112571401D01*
X205943223Y-112553223D01*
X205961401Y-112536747D01*
X205981107Y-112522132D01*
X206002150Y-112509520D01*
X206024329Y-112499030D01*
X206047428Y-112490765D01*
X206071227Y-112484804D01*
X206095495Y-112481204D01*
X206119999Y-112480000D01*
X206645001Y-112480000D01*
X206669505Y-112481204D01*
G37*
G36*
X204844505Y-112481204D02*
G01*
X204868773Y-112484804D01*
X204892572Y-112490765D01*
X204915671Y-112499030D01*
X204937850Y-112509520D01*
X204958893Y-112522132D01*
X204978599Y-112536747D01*
X204996777Y-112553223D01*
X205013253Y-112571401D01*
X205027868Y-112591107D01*
X205040480Y-112612150D01*
X205050970Y-112634329D01*
X205059235Y-112657428D01*
X205065196Y-112681227D01*
X205068796Y-112705495D01*
X205070000Y-112729999D01*
X205070000Y-113630001D01*
X205068796Y-113654505D01*
X205065196Y-113678773D01*
X205059235Y-113702572D01*
X205050970Y-113725671D01*
X205040480Y-113747850D01*
X205027868Y-113768893D01*
X205013253Y-113788599D01*
X204996777Y-113806777D01*
X204978599Y-113823253D01*
X204958893Y-113837868D01*
X204937850Y-113850480D01*
X204915671Y-113860970D01*
X204892572Y-113869235D01*
X204868773Y-113875196D01*
X204844505Y-113878796D01*
X204820001Y-113880000D01*
X204294999Y-113880000D01*
X204270495Y-113878796D01*
X204246227Y-113875196D01*
X204222428Y-113869235D01*
X204199329Y-113860970D01*
X204177150Y-113850480D01*
X204156107Y-113837868D01*
X204136401Y-113823253D01*
X204118223Y-113806777D01*
X204101747Y-113788599D01*
X204087132Y-113768893D01*
X204074520Y-113747850D01*
X204064030Y-113725671D01*
X204055765Y-113702572D01*
X204049804Y-113678773D01*
X204046204Y-113654505D01*
X204045000Y-113630001D01*
X204045000Y-112729999D01*
X204046204Y-112705495D01*
X204049804Y-112681227D01*
X204055765Y-112657428D01*
X204064030Y-112634329D01*
X204074520Y-112612150D01*
X204087132Y-112591107D01*
X204101747Y-112571401D01*
X204118223Y-112553223D01*
X204136401Y-112536747D01*
X204156107Y-112522132D01*
X204177150Y-112509520D01*
X204199329Y-112499030D01*
X204222428Y-112490765D01*
X204246227Y-112484804D01*
X204270495Y-112481204D01*
X204294999Y-112480000D01*
X204820001Y-112480000D01*
X204844505Y-112481204D01*
G37*
G36*
X208799505Y-101481204D02*
G01*
X208823773Y-101484804D01*
X208847572Y-101490765D01*
X208870671Y-101499030D01*
X208892850Y-101509520D01*
X208913893Y-101522132D01*
X208933599Y-101536747D01*
X208951777Y-101553223D01*
X208968253Y-101571401D01*
X208982868Y-101591107D01*
X208995480Y-101612150D01*
X209005970Y-101634329D01*
X209014235Y-101657428D01*
X209020196Y-101681227D01*
X209023796Y-101705495D01*
X209025000Y-101729999D01*
X209025000Y-102630001D01*
X209023796Y-102654505D01*
X209020196Y-102678773D01*
X209014235Y-102702572D01*
X209005970Y-102725671D01*
X208995480Y-102747850D01*
X208982868Y-102768893D01*
X208968253Y-102788599D01*
X208951777Y-102806777D01*
X208933599Y-102823253D01*
X208913893Y-102837868D01*
X208892850Y-102850480D01*
X208870671Y-102860970D01*
X208847572Y-102869235D01*
X208823773Y-102875196D01*
X208799505Y-102878796D01*
X208775001Y-102880000D01*
X208249999Y-102880000D01*
X208225495Y-102878796D01*
X208201227Y-102875196D01*
X208177428Y-102869235D01*
X208154329Y-102860970D01*
X208132150Y-102850480D01*
X208111107Y-102837868D01*
X208091401Y-102823253D01*
X208073223Y-102806777D01*
X208056747Y-102788599D01*
X208042132Y-102768893D01*
X208029520Y-102747850D01*
X208019030Y-102725671D01*
X208010765Y-102702572D01*
X208004804Y-102678773D01*
X208001204Y-102654505D01*
X208000000Y-102630001D01*
X208000000Y-101729999D01*
X208001204Y-101705495D01*
X208004804Y-101681227D01*
X208010765Y-101657428D01*
X208019030Y-101634329D01*
X208029520Y-101612150D01*
X208042132Y-101591107D01*
X208056747Y-101571401D01*
X208073223Y-101553223D01*
X208091401Y-101536747D01*
X208111107Y-101522132D01*
X208132150Y-101509520D01*
X208154329Y-101499030D01*
X208177428Y-101490765D01*
X208201227Y-101484804D01*
X208225495Y-101481204D01*
X208249999Y-101480000D01*
X208775001Y-101480000D01*
X208799505Y-101481204D01*
G37*
G36*
X206974505Y-101481204D02*
G01*
X206998773Y-101484804D01*
X207022572Y-101490765D01*
X207045671Y-101499030D01*
X207067850Y-101509520D01*
X207088893Y-101522132D01*
X207108599Y-101536747D01*
X207126777Y-101553223D01*
X207143253Y-101571401D01*
X207157868Y-101591107D01*
X207170480Y-101612150D01*
X207180970Y-101634329D01*
X207189235Y-101657428D01*
X207195196Y-101681227D01*
X207198796Y-101705495D01*
X207200000Y-101729999D01*
X207200000Y-102630001D01*
X207198796Y-102654505D01*
X207195196Y-102678773D01*
X207189235Y-102702572D01*
X207180970Y-102725671D01*
X207170480Y-102747850D01*
X207157868Y-102768893D01*
X207143253Y-102788599D01*
X207126777Y-102806777D01*
X207108599Y-102823253D01*
X207088893Y-102837868D01*
X207067850Y-102850480D01*
X207045671Y-102860970D01*
X207022572Y-102869235D01*
X206998773Y-102875196D01*
X206974505Y-102878796D01*
X206950001Y-102880000D01*
X206424999Y-102880000D01*
X206400495Y-102878796D01*
X206376227Y-102875196D01*
X206352428Y-102869235D01*
X206329329Y-102860970D01*
X206307150Y-102850480D01*
X206286107Y-102837868D01*
X206266401Y-102823253D01*
X206248223Y-102806777D01*
X206231747Y-102788599D01*
X206217132Y-102768893D01*
X206204520Y-102747850D01*
X206194030Y-102725671D01*
X206185765Y-102702572D01*
X206179804Y-102678773D01*
X206176204Y-102654505D01*
X206175000Y-102630001D01*
X206175000Y-101729999D01*
X206176204Y-101705495D01*
X206179804Y-101681227D01*
X206185765Y-101657428D01*
X206194030Y-101634329D01*
X206204520Y-101612150D01*
X206217132Y-101591107D01*
X206231747Y-101571401D01*
X206248223Y-101553223D01*
X206266401Y-101536747D01*
X206286107Y-101522132D01*
X206307150Y-101509520D01*
X206329329Y-101499030D01*
X206352428Y-101490765D01*
X206376227Y-101484804D01*
X206400495Y-101481204D01*
X206424999Y-101480000D01*
X206950001Y-101480000D01*
X206974505Y-101481204D01*
G37*
G36*
X217219505Y-103481204D02*
G01*
X217243773Y-103484804D01*
X217267572Y-103490765D01*
X217290671Y-103499030D01*
X217312850Y-103509520D01*
X217333893Y-103522132D01*
X217353599Y-103536747D01*
X217371777Y-103553223D01*
X217388253Y-103571401D01*
X217402868Y-103591107D01*
X217415480Y-103612150D01*
X217425970Y-103634329D01*
X217434235Y-103657428D01*
X217440196Y-103681227D01*
X217443796Y-103705495D01*
X217445000Y-103729999D01*
X217445000Y-104630001D01*
X217443796Y-104654505D01*
X217440196Y-104678773D01*
X217434235Y-104702572D01*
X217425970Y-104725671D01*
X217415480Y-104747850D01*
X217402868Y-104768893D01*
X217388253Y-104788599D01*
X217371777Y-104806777D01*
X217353599Y-104823253D01*
X217333893Y-104837868D01*
X217312850Y-104850480D01*
X217290671Y-104860970D01*
X217267572Y-104869235D01*
X217243773Y-104875196D01*
X217219505Y-104878796D01*
X217195001Y-104880000D01*
X216669999Y-104880000D01*
X216645495Y-104878796D01*
X216621227Y-104875196D01*
X216597428Y-104869235D01*
X216574329Y-104860970D01*
X216552150Y-104850480D01*
X216531107Y-104837868D01*
X216511401Y-104823253D01*
X216493223Y-104806777D01*
X216476747Y-104788599D01*
X216462132Y-104768893D01*
X216449520Y-104747850D01*
X216439030Y-104725671D01*
X216430765Y-104702572D01*
X216424804Y-104678773D01*
X216421204Y-104654505D01*
X216420000Y-104630001D01*
X216420000Y-103729999D01*
X216421204Y-103705495D01*
X216424804Y-103681227D01*
X216430765Y-103657428D01*
X216439030Y-103634329D01*
X216449520Y-103612150D01*
X216462132Y-103591107D01*
X216476747Y-103571401D01*
X216493223Y-103553223D01*
X216511401Y-103536747D01*
X216531107Y-103522132D01*
X216552150Y-103509520D01*
X216574329Y-103499030D01*
X216597428Y-103490765D01*
X216621227Y-103484804D01*
X216645495Y-103481204D01*
X216669999Y-103480000D01*
X217195001Y-103480000D01*
X217219505Y-103481204D01*
G37*
G36*
X215394505Y-103481204D02*
G01*
X215418773Y-103484804D01*
X215442572Y-103490765D01*
X215465671Y-103499030D01*
X215487850Y-103509520D01*
X215508893Y-103522132D01*
X215528599Y-103536747D01*
X215546777Y-103553223D01*
X215563253Y-103571401D01*
X215577868Y-103591107D01*
X215590480Y-103612150D01*
X215600970Y-103634329D01*
X215609235Y-103657428D01*
X215615196Y-103681227D01*
X215618796Y-103705495D01*
X215620000Y-103729999D01*
X215620000Y-104630001D01*
X215618796Y-104654505D01*
X215615196Y-104678773D01*
X215609235Y-104702572D01*
X215600970Y-104725671D01*
X215590480Y-104747850D01*
X215577868Y-104768893D01*
X215563253Y-104788599D01*
X215546777Y-104806777D01*
X215528599Y-104823253D01*
X215508893Y-104837868D01*
X215487850Y-104850480D01*
X215465671Y-104860970D01*
X215442572Y-104869235D01*
X215418773Y-104875196D01*
X215394505Y-104878796D01*
X215370001Y-104880000D01*
X214844999Y-104880000D01*
X214820495Y-104878796D01*
X214796227Y-104875196D01*
X214772428Y-104869235D01*
X214749329Y-104860970D01*
X214727150Y-104850480D01*
X214706107Y-104837868D01*
X214686401Y-104823253D01*
X214668223Y-104806777D01*
X214651747Y-104788599D01*
X214637132Y-104768893D01*
X214624520Y-104747850D01*
X214614030Y-104725671D01*
X214605765Y-104702572D01*
X214599804Y-104678773D01*
X214596204Y-104654505D01*
X214595000Y-104630001D01*
X214595000Y-103729999D01*
X214596204Y-103705495D01*
X214599804Y-103681227D01*
X214605765Y-103657428D01*
X214614030Y-103634329D01*
X214624520Y-103612150D01*
X214637132Y-103591107D01*
X214651747Y-103571401D01*
X214668223Y-103553223D01*
X214686401Y-103536747D01*
X214706107Y-103522132D01*
X214727150Y-103509520D01*
X214749329Y-103499030D01*
X214772428Y-103490765D01*
X214796227Y-103484804D01*
X214820495Y-103481204D01*
X214844999Y-103480000D01*
X215370001Y-103480000D01*
X215394505Y-103481204D01*
G37*
G36*
X175424505Y-104151204D02*
G01*
X175448773Y-104154804D01*
X175472572Y-104160765D01*
X175495671Y-104169030D01*
X175517850Y-104179520D01*
X175538893Y-104192132D01*
X175558599Y-104206747D01*
X175576777Y-104223223D01*
X175593253Y-104241401D01*
X175607868Y-104261107D01*
X175620480Y-104282150D01*
X175630970Y-104304329D01*
X175639235Y-104327428D01*
X175645196Y-104351227D01*
X175648796Y-104375495D01*
X175650000Y-104399999D01*
X175650000Y-105300001D01*
X175648796Y-105324505D01*
X175645196Y-105348773D01*
X175639235Y-105372572D01*
X175630970Y-105395671D01*
X175620480Y-105417850D01*
X175607868Y-105438893D01*
X175593253Y-105458599D01*
X175576777Y-105476777D01*
X175558599Y-105493253D01*
X175538893Y-105507868D01*
X175517850Y-105520480D01*
X175495671Y-105530970D01*
X175472572Y-105539235D01*
X175448773Y-105545196D01*
X175424505Y-105548796D01*
X175400001Y-105550000D01*
X174874999Y-105550000D01*
X174850495Y-105548796D01*
X174826227Y-105545196D01*
X174802428Y-105539235D01*
X174779329Y-105530970D01*
X174757150Y-105520480D01*
X174736107Y-105507868D01*
X174716401Y-105493253D01*
X174698223Y-105476777D01*
X174681747Y-105458599D01*
X174667132Y-105438893D01*
X174654520Y-105417850D01*
X174644030Y-105395671D01*
X174635765Y-105372572D01*
X174629804Y-105348773D01*
X174626204Y-105324505D01*
X174625000Y-105300001D01*
X174625000Y-104399999D01*
X174626204Y-104375495D01*
X174629804Y-104351227D01*
X174635765Y-104327428D01*
X174644030Y-104304329D01*
X174654520Y-104282150D01*
X174667132Y-104261107D01*
X174681747Y-104241401D01*
X174698223Y-104223223D01*
X174716401Y-104206747D01*
X174736107Y-104192132D01*
X174757150Y-104179520D01*
X174779329Y-104169030D01*
X174802428Y-104160765D01*
X174826227Y-104154804D01*
X174850495Y-104151204D01*
X174874999Y-104150000D01*
X175400001Y-104150000D01*
X175424505Y-104151204D01*
G37*
G36*
X177249505Y-104151204D02*
G01*
X177273773Y-104154804D01*
X177297572Y-104160765D01*
X177320671Y-104169030D01*
X177342850Y-104179520D01*
X177363893Y-104192132D01*
X177383599Y-104206747D01*
X177401777Y-104223223D01*
X177418253Y-104241401D01*
X177432868Y-104261107D01*
X177445480Y-104282150D01*
X177455970Y-104304329D01*
X177464235Y-104327428D01*
X177470196Y-104351227D01*
X177473796Y-104375495D01*
X177475000Y-104399999D01*
X177475000Y-105300001D01*
X177473796Y-105324505D01*
X177470196Y-105348773D01*
X177464235Y-105372572D01*
X177455970Y-105395671D01*
X177445480Y-105417850D01*
X177432868Y-105438893D01*
X177418253Y-105458599D01*
X177401777Y-105476777D01*
X177383599Y-105493253D01*
X177363893Y-105507868D01*
X177342850Y-105520480D01*
X177320671Y-105530970D01*
X177297572Y-105539235D01*
X177273773Y-105545196D01*
X177249505Y-105548796D01*
X177225001Y-105550000D01*
X176699999Y-105550000D01*
X176675495Y-105548796D01*
X176651227Y-105545196D01*
X176627428Y-105539235D01*
X176604329Y-105530970D01*
X176582150Y-105520480D01*
X176561107Y-105507868D01*
X176541401Y-105493253D01*
X176523223Y-105476777D01*
X176506747Y-105458599D01*
X176492132Y-105438893D01*
X176479520Y-105417850D01*
X176469030Y-105395671D01*
X176460765Y-105372572D01*
X176454804Y-105348773D01*
X176451204Y-105324505D01*
X176450000Y-105300001D01*
X176450000Y-104399999D01*
X176451204Y-104375495D01*
X176454804Y-104351227D01*
X176460765Y-104327428D01*
X176469030Y-104304329D01*
X176479520Y-104282150D01*
X176492132Y-104261107D01*
X176506747Y-104241401D01*
X176523223Y-104223223D01*
X176541401Y-104206747D01*
X176561107Y-104192132D01*
X176582150Y-104179520D01*
X176604329Y-104169030D01*
X176627428Y-104160765D01*
X176651227Y-104154804D01*
X176675495Y-104151204D01*
X176699999Y-104150000D01*
X177225001Y-104150000D01*
X177249505Y-104151204D01*
G37*
G36*
X193249505Y-104161204D02*
G01*
X193273773Y-104164804D01*
X193297572Y-104170765D01*
X193320671Y-104179030D01*
X193342850Y-104189520D01*
X193363893Y-104202132D01*
X193383599Y-104216747D01*
X193401777Y-104233223D01*
X193418253Y-104251401D01*
X193432868Y-104271107D01*
X193445480Y-104292150D01*
X193455970Y-104314329D01*
X193464235Y-104337428D01*
X193470196Y-104361227D01*
X193473796Y-104385495D01*
X193475000Y-104409999D01*
X193475000Y-105310001D01*
X193473796Y-105334505D01*
X193470196Y-105358773D01*
X193464235Y-105382572D01*
X193455970Y-105405671D01*
X193445480Y-105427850D01*
X193432868Y-105448893D01*
X193418253Y-105468599D01*
X193401777Y-105486777D01*
X193383599Y-105503253D01*
X193363893Y-105517868D01*
X193342850Y-105530480D01*
X193320671Y-105540970D01*
X193297572Y-105549235D01*
X193273773Y-105555196D01*
X193249505Y-105558796D01*
X193225001Y-105560000D01*
X192699999Y-105560000D01*
X192675495Y-105558796D01*
X192651227Y-105555196D01*
X192627428Y-105549235D01*
X192604329Y-105540970D01*
X192582150Y-105530480D01*
X192561107Y-105517868D01*
X192541401Y-105503253D01*
X192523223Y-105486777D01*
X192506747Y-105468599D01*
X192492132Y-105448893D01*
X192479520Y-105427850D01*
X192469030Y-105405671D01*
X192460765Y-105382572D01*
X192454804Y-105358773D01*
X192451204Y-105334505D01*
X192450000Y-105310001D01*
X192450000Y-104409999D01*
X192451204Y-104385495D01*
X192454804Y-104361227D01*
X192460765Y-104337428D01*
X192469030Y-104314329D01*
X192479520Y-104292150D01*
X192492132Y-104271107D01*
X192506747Y-104251401D01*
X192523223Y-104233223D01*
X192541401Y-104216747D01*
X192561107Y-104202132D01*
X192582150Y-104189520D01*
X192604329Y-104179030D01*
X192627428Y-104170765D01*
X192651227Y-104164804D01*
X192675495Y-104161204D01*
X192699999Y-104160000D01*
X193225001Y-104160000D01*
X193249505Y-104161204D01*
G37*
G36*
X191424505Y-104161204D02*
G01*
X191448773Y-104164804D01*
X191472572Y-104170765D01*
X191495671Y-104179030D01*
X191517850Y-104189520D01*
X191538893Y-104202132D01*
X191558599Y-104216747D01*
X191576777Y-104233223D01*
X191593253Y-104251401D01*
X191607868Y-104271107D01*
X191620480Y-104292150D01*
X191630970Y-104314329D01*
X191639235Y-104337428D01*
X191645196Y-104361227D01*
X191648796Y-104385495D01*
X191650000Y-104409999D01*
X191650000Y-105310001D01*
X191648796Y-105334505D01*
X191645196Y-105358773D01*
X191639235Y-105382572D01*
X191630970Y-105405671D01*
X191620480Y-105427850D01*
X191607868Y-105448893D01*
X191593253Y-105468599D01*
X191576777Y-105486777D01*
X191558599Y-105503253D01*
X191538893Y-105517868D01*
X191517850Y-105530480D01*
X191495671Y-105540970D01*
X191472572Y-105549235D01*
X191448773Y-105555196D01*
X191424505Y-105558796D01*
X191400001Y-105560000D01*
X190874999Y-105560000D01*
X190850495Y-105558796D01*
X190826227Y-105555196D01*
X190802428Y-105549235D01*
X190779329Y-105540970D01*
X190757150Y-105530480D01*
X190736107Y-105517868D01*
X190716401Y-105503253D01*
X190698223Y-105486777D01*
X190681747Y-105468599D01*
X190667132Y-105448893D01*
X190654520Y-105427850D01*
X190644030Y-105405671D01*
X190635765Y-105382572D01*
X190629804Y-105358773D01*
X190626204Y-105334505D01*
X190625000Y-105310001D01*
X190625000Y-104409999D01*
X190626204Y-104385495D01*
X190629804Y-104361227D01*
X190635765Y-104337428D01*
X190644030Y-104314329D01*
X190654520Y-104292150D01*
X190667132Y-104271107D01*
X190681747Y-104251401D01*
X190698223Y-104233223D01*
X190716401Y-104216747D01*
X190736107Y-104202132D01*
X190757150Y-104189520D01*
X190779329Y-104179030D01*
X190802428Y-104170765D01*
X190826227Y-104164804D01*
X190850495Y-104161204D01*
X190874999Y-104160000D01*
X191400001Y-104160000D01*
X191424505Y-104161204D01*
G37*
D12*
X212250000Y-123150000D03*
X212250000Y-119150000D03*
D10*
G36*
X158749504Y-112701204D02*
G01*
X158773773Y-112704804D01*
X158797571Y-112710765D01*
X158820671Y-112719030D01*
X158842849Y-112729520D01*
X158863893Y-112742133D01*
X158883598Y-112756747D01*
X158901777Y-112773223D01*
X158918253Y-112791402D01*
X158932867Y-112811107D01*
X158945480Y-112832151D01*
X158955970Y-112854329D01*
X158964235Y-112877429D01*
X158970196Y-112901227D01*
X158973796Y-112925496D01*
X158975000Y-112950000D01*
X158975000Y-113450000D01*
X158973796Y-113474504D01*
X158970196Y-113498773D01*
X158964235Y-113522571D01*
X158955970Y-113545671D01*
X158945480Y-113567849D01*
X158932867Y-113588893D01*
X158918253Y-113608598D01*
X158901777Y-113626777D01*
X158883598Y-113643253D01*
X158863893Y-113657867D01*
X158842849Y-113670480D01*
X158820671Y-113680970D01*
X158797571Y-113689235D01*
X158773773Y-113695196D01*
X158749504Y-113698796D01*
X158725000Y-113700000D01*
X157775000Y-113700000D01*
X157750496Y-113698796D01*
X157726227Y-113695196D01*
X157702429Y-113689235D01*
X157679329Y-113680970D01*
X157657151Y-113670480D01*
X157636107Y-113657867D01*
X157616402Y-113643253D01*
X157598223Y-113626777D01*
X157581747Y-113608598D01*
X157567133Y-113588893D01*
X157554520Y-113567849D01*
X157544030Y-113545671D01*
X157535765Y-113522571D01*
X157529804Y-113498773D01*
X157526204Y-113474504D01*
X157525000Y-113450000D01*
X157525000Y-112950000D01*
X157526204Y-112925496D01*
X157529804Y-112901227D01*
X157535765Y-112877429D01*
X157544030Y-112854329D01*
X157554520Y-112832151D01*
X157567133Y-112811107D01*
X157581747Y-112791402D01*
X157598223Y-112773223D01*
X157616402Y-112756747D01*
X157636107Y-112742133D01*
X157657151Y-112729520D01*
X157679329Y-112719030D01*
X157702429Y-112710765D01*
X157726227Y-112704804D01*
X157750496Y-112701204D01*
X157775000Y-112700000D01*
X158725000Y-112700000D01*
X158749504Y-112701204D01*
G37*
G36*
X158749504Y-114601204D02*
G01*
X158773773Y-114604804D01*
X158797571Y-114610765D01*
X158820671Y-114619030D01*
X158842849Y-114629520D01*
X158863893Y-114642133D01*
X158883598Y-114656747D01*
X158901777Y-114673223D01*
X158918253Y-114691402D01*
X158932867Y-114711107D01*
X158945480Y-114732151D01*
X158955970Y-114754329D01*
X158964235Y-114777429D01*
X158970196Y-114801227D01*
X158973796Y-114825496D01*
X158975000Y-114850000D01*
X158975000Y-115350000D01*
X158973796Y-115374504D01*
X158970196Y-115398773D01*
X158964235Y-115422571D01*
X158955970Y-115445671D01*
X158945480Y-115467849D01*
X158932867Y-115488893D01*
X158918253Y-115508598D01*
X158901777Y-115526777D01*
X158883598Y-115543253D01*
X158863893Y-115557867D01*
X158842849Y-115570480D01*
X158820671Y-115580970D01*
X158797571Y-115589235D01*
X158773773Y-115595196D01*
X158749504Y-115598796D01*
X158725000Y-115600000D01*
X157775000Y-115600000D01*
X157750496Y-115598796D01*
X157726227Y-115595196D01*
X157702429Y-115589235D01*
X157679329Y-115580970D01*
X157657151Y-115570480D01*
X157636107Y-115557867D01*
X157616402Y-115543253D01*
X157598223Y-115526777D01*
X157581747Y-115508598D01*
X157567133Y-115488893D01*
X157554520Y-115467849D01*
X157544030Y-115445671D01*
X157535765Y-115422571D01*
X157529804Y-115398773D01*
X157526204Y-115374504D01*
X157525000Y-115350000D01*
X157525000Y-114850000D01*
X157526204Y-114825496D01*
X157529804Y-114801227D01*
X157535765Y-114777429D01*
X157544030Y-114754329D01*
X157554520Y-114732151D01*
X157567133Y-114711107D01*
X157581747Y-114691402D01*
X157598223Y-114673223D01*
X157616402Y-114656747D01*
X157636107Y-114642133D01*
X157657151Y-114629520D01*
X157679329Y-114619030D01*
X157702429Y-114610765D01*
X157726227Y-114604804D01*
X157750496Y-114601204D01*
X157775000Y-114600000D01*
X158725000Y-114600000D01*
X158749504Y-114601204D01*
G37*
G36*
X145249504Y-122601204D02*
G01*
X145273773Y-122604804D01*
X145297571Y-122610765D01*
X145320671Y-122619030D01*
X145342849Y-122629520D01*
X145363893Y-122642133D01*
X145383598Y-122656747D01*
X145401777Y-122673223D01*
X145418253Y-122691402D01*
X145432867Y-122711107D01*
X145445480Y-122732151D01*
X145455970Y-122754329D01*
X145464235Y-122777429D01*
X145470196Y-122801227D01*
X145473796Y-122825496D01*
X145475000Y-122850000D01*
X145475000Y-123350000D01*
X145473796Y-123374504D01*
X145470196Y-123398773D01*
X145464235Y-123422571D01*
X145455970Y-123445671D01*
X145445480Y-123467849D01*
X145432867Y-123488893D01*
X145418253Y-123508598D01*
X145401777Y-123526777D01*
X145383598Y-123543253D01*
X145363893Y-123557867D01*
X145342849Y-123570480D01*
X145320671Y-123580970D01*
X145297571Y-123589235D01*
X145273773Y-123595196D01*
X145249504Y-123598796D01*
X145225000Y-123600000D01*
X144275000Y-123600000D01*
X144250496Y-123598796D01*
X144226227Y-123595196D01*
X144202429Y-123589235D01*
X144179329Y-123580970D01*
X144157151Y-123570480D01*
X144136107Y-123557867D01*
X144116402Y-123543253D01*
X144098223Y-123526777D01*
X144081747Y-123508598D01*
X144067133Y-123488893D01*
X144054520Y-123467849D01*
X144044030Y-123445671D01*
X144035765Y-123422571D01*
X144029804Y-123398773D01*
X144026204Y-123374504D01*
X144025000Y-123350000D01*
X144025000Y-122850000D01*
X144026204Y-122825496D01*
X144029804Y-122801227D01*
X144035765Y-122777429D01*
X144044030Y-122754329D01*
X144054520Y-122732151D01*
X144067133Y-122711107D01*
X144081747Y-122691402D01*
X144098223Y-122673223D01*
X144116402Y-122656747D01*
X144136107Y-122642133D01*
X144157151Y-122629520D01*
X144179329Y-122619030D01*
X144202429Y-122610765D01*
X144226227Y-122604804D01*
X144250496Y-122601204D01*
X144275000Y-122600000D01*
X145225000Y-122600000D01*
X145249504Y-122601204D01*
G37*
G36*
X145249504Y-120701204D02*
G01*
X145273773Y-120704804D01*
X145297571Y-120710765D01*
X145320671Y-120719030D01*
X145342849Y-120729520D01*
X145363893Y-120742133D01*
X145383598Y-120756747D01*
X145401777Y-120773223D01*
X145418253Y-120791402D01*
X145432867Y-120811107D01*
X145445480Y-120832151D01*
X145455970Y-120854329D01*
X145464235Y-120877429D01*
X145470196Y-120901227D01*
X145473796Y-120925496D01*
X145475000Y-120950000D01*
X145475000Y-121450000D01*
X145473796Y-121474504D01*
X145470196Y-121498773D01*
X145464235Y-121522571D01*
X145455970Y-121545671D01*
X145445480Y-121567849D01*
X145432867Y-121588893D01*
X145418253Y-121608598D01*
X145401777Y-121626777D01*
X145383598Y-121643253D01*
X145363893Y-121657867D01*
X145342849Y-121670480D01*
X145320671Y-121680970D01*
X145297571Y-121689235D01*
X145273773Y-121695196D01*
X145249504Y-121698796D01*
X145225000Y-121700000D01*
X144275000Y-121700000D01*
X144250496Y-121698796D01*
X144226227Y-121695196D01*
X144202429Y-121689235D01*
X144179329Y-121680970D01*
X144157151Y-121670480D01*
X144136107Y-121657867D01*
X144116402Y-121643253D01*
X144098223Y-121626777D01*
X144081747Y-121608598D01*
X144067133Y-121588893D01*
X144054520Y-121567849D01*
X144044030Y-121545671D01*
X144035765Y-121522571D01*
X144029804Y-121498773D01*
X144026204Y-121474504D01*
X144025000Y-121450000D01*
X144025000Y-120950000D01*
X144026204Y-120925496D01*
X144029804Y-120901227D01*
X144035765Y-120877429D01*
X144044030Y-120854329D01*
X144054520Y-120832151D01*
X144067133Y-120811107D01*
X144081747Y-120791402D01*
X144098223Y-120773223D01*
X144116402Y-120756747D01*
X144136107Y-120742133D01*
X144157151Y-120729520D01*
X144179329Y-120719030D01*
X144202429Y-120710765D01*
X144226227Y-120704804D01*
X144250496Y-120701204D01*
X144275000Y-120700000D01*
X145225000Y-120700000D01*
X145249504Y-120701204D01*
G37*
G36*
X202074505Y-104051204D02*
G01*
X202098773Y-104054804D01*
X202122572Y-104060765D01*
X202145671Y-104069030D01*
X202167850Y-104079520D01*
X202188893Y-104092132D01*
X202208599Y-104106747D01*
X202226777Y-104123223D01*
X202243253Y-104141401D01*
X202257868Y-104161107D01*
X202270480Y-104182150D01*
X202280970Y-104204329D01*
X202289235Y-104227428D01*
X202295196Y-104251227D01*
X202298796Y-104275495D01*
X202300000Y-104299999D01*
X202300000Y-106500001D01*
X202298796Y-106524505D01*
X202295196Y-106548773D01*
X202289235Y-106572572D01*
X202280970Y-106595671D01*
X202270480Y-106617850D01*
X202257868Y-106638893D01*
X202243253Y-106658599D01*
X202226777Y-106676777D01*
X202208599Y-106693253D01*
X202188893Y-106707868D01*
X202167850Y-106720480D01*
X202145671Y-106730970D01*
X202122572Y-106739235D01*
X202098773Y-106745196D01*
X202074505Y-106748796D01*
X202050001Y-106750000D01*
X201399999Y-106750000D01*
X201375495Y-106748796D01*
X201351227Y-106745196D01*
X201327428Y-106739235D01*
X201304329Y-106730970D01*
X201282150Y-106720480D01*
X201261107Y-106707868D01*
X201241401Y-106693253D01*
X201223223Y-106676777D01*
X201206747Y-106658599D01*
X201192132Y-106638893D01*
X201179520Y-106617850D01*
X201169030Y-106595671D01*
X201160765Y-106572572D01*
X201154804Y-106548773D01*
X201151204Y-106524505D01*
X201150000Y-106500001D01*
X201150000Y-104299999D01*
X201151204Y-104275495D01*
X201154804Y-104251227D01*
X201160765Y-104227428D01*
X201169030Y-104204329D01*
X201179520Y-104182150D01*
X201192132Y-104161107D01*
X201206747Y-104141401D01*
X201223223Y-104123223D01*
X201241401Y-104106747D01*
X201261107Y-104092132D01*
X201282150Y-104079520D01*
X201304329Y-104069030D01*
X201327428Y-104060765D01*
X201351227Y-104054804D01*
X201375495Y-104051204D01*
X201399999Y-104050000D01*
X202050001Y-104050000D01*
X202074505Y-104051204D01*
G37*
G36*
X205024505Y-104051204D02*
G01*
X205048773Y-104054804D01*
X205072572Y-104060765D01*
X205095671Y-104069030D01*
X205117850Y-104079520D01*
X205138893Y-104092132D01*
X205158599Y-104106747D01*
X205176777Y-104123223D01*
X205193253Y-104141401D01*
X205207868Y-104161107D01*
X205220480Y-104182150D01*
X205230970Y-104204329D01*
X205239235Y-104227428D01*
X205245196Y-104251227D01*
X205248796Y-104275495D01*
X205250000Y-104299999D01*
X205250000Y-106500001D01*
X205248796Y-106524505D01*
X205245196Y-106548773D01*
X205239235Y-106572572D01*
X205230970Y-106595671D01*
X205220480Y-106617850D01*
X205207868Y-106638893D01*
X205193253Y-106658599D01*
X205176777Y-106676777D01*
X205158599Y-106693253D01*
X205138893Y-106707868D01*
X205117850Y-106720480D01*
X205095671Y-106730970D01*
X205072572Y-106739235D01*
X205048773Y-106745196D01*
X205024505Y-106748796D01*
X205000001Y-106750000D01*
X204349999Y-106750000D01*
X204325495Y-106748796D01*
X204301227Y-106745196D01*
X204277428Y-106739235D01*
X204254329Y-106730970D01*
X204232150Y-106720480D01*
X204211107Y-106707868D01*
X204191401Y-106693253D01*
X204173223Y-106676777D01*
X204156747Y-106658599D01*
X204142132Y-106638893D01*
X204129520Y-106617850D01*
X204119030Y-106595671D01*
X204110765Y-106572572D01*
X204104804Y-106548773D01*
X204101204Y-106524505D01*
X204100000Y-106500001D01*
X204100000Y-104299999D01*
X204101204Y-104275495D01*
X204104804Y-104251227D01*
X204110765Y-104227428D01*
X204119030Y-104204329D01*
X204129520Y-104182150D01*
X204142132Y-104161107D01*
X204156747Y-104141401D01*
X204173223Y-104123223D01*
X204191401Y-104106747D01*
X204211107Y-104092132D01*
X204232150Y-104079520D01*
X204254329Y-104069030D01*
X204277428Y-104060765D01*
X204301227Y-104054804D01*
X204325495Y-104051204D01*
X204349999Y-104050000D01*
X205000001Y-104050000D01*
X205024505Y-104051204D01*
G37*
G36*
X210384504Y-112416204D02*
G01*
X210408773Y-112419804D01*
X210432571Y-112425765D01*
X210455671Y-112434030D01*
X210477849Y-112444520D01*
X210498893Y-112457133D01*
X210518598Y-112471747D01*
X210536777Y-112488223D01*
X210553253Y-112506402D01*
X210567867Y-112526107D01*
X210580480Y-112547151D01*
X210590970Y-112569329D01*
X210599235Y-112592429D01*
X210605196Y-112616227D01*
X210608796Y-112640496D01*
X210610000Y-112665000D01*
X210610000Y-113615000D01*
X210608796Y-113639504D01*
X210605196Y-113663773D01*
X210599235Y-113687571D01*
X210590970Y-113710671D01*
X210580480Y-113732849D01*
X210567867Y-113753893D01*
X210553253Y-113773598D01*
X210536777Y-113791777D01*
X210518598Y-113808253D01*
X210498893Y-113822867D01*
X210477849Y-113835480D01*
X210455671Y-113845970D01*
X210432571Y-113854235D01*
X210408773Y-113860196D01*
X210384504Y-113863796D01*
X210360000Y-113865000D01*
X209860000Y-113865000D01*
X209835496Y-113863796D01*
X209811227Y-113860196D01*
X209787429Y-113854235D01*
X209764329Y-113845970D01*
X209742151Y-113835480D01*
X209721107Y-113822867D01*
X209701402Y-113808253D01*
X209683223Y-113791777D01*
X209666747Y-113773598D01*
X209652133Y-113753893D01*
X209639520Y-113732849D01*
X209629030Y-113710671D01*
X209620765Y-113687571D01*
X209614804Y-113663773D01*
X209611204Y-113639504D01*
X209610000Y-113615000D01*
X209610000Y-112665000D01*
X209611204Y-112640496D01*
X209614804Y-112616227D01*
X209620765Y-112592429D01*
X209629030Y-112569329D01*
X209639520Y-112547151D01*
X209652133Y-112526107D01*
X209666747Y-112506402D01*
X209683223Y-112488223D01*
X209701402Y-112471747D01*
X209721107Y-112457133D01*
X209742151Y-112444520D01*
X209764329Y-112434030D01*
X209787429Y-112425765D01*
X209811227Y-112419804D01*
X209835496Y-112416204D01*
X209860000Y-112415000D01*
X210360000Y-112415000D01*
X210384504Y-112416204D01*
G37*
G36*
X208484504Y-112416204D02*
G01*
X208508773Y-112419804D01*
X208532571Y-112425765D01*
X208555671Y-112434030D01*
X208577849Y-112444520D01*
X208598893Y-112457133D01*
X208618598Y-112471747D01*
X208636777Y-112488223D01*
X208653253Y-112506402D01*
X208667867Y-112526107D01*
X208680480Y-112547151D01*
X208690970Y-112569329D01*
X208699235Y-112592429D01*
X208705196Y-112616227D01*
X208708796Y-112640496D01*
X208710000Y-112665000D01*
X208710000Y-113615000D01*
X208708796Y-113639504D01*
X208705196Y-113663773D01*
X208699235Y-113687571D01*
X208690970Y-113710671D01*
X208680480Y-113732849D01*
X208667867Y-113753893D01*
X208653253Y-113773598D01*
X208636777Y-113791777D01*
X208618598Y-113808253D01*
X208598893Y-113822867D01*
X208577849Y-113835480D01*
X208555671Y-113845970D01*
X208532571Y-113854235D01*
X208508773Y-113860196D01*
X208484504Y-113863796D01*
X208460000Y-113865000D01*
X207960000Y-113865000D01*
X207935496Y-113863796D01*
X207911227Y-113860196D01*
X207887429Y-113854235D01*
X207864329Y-113845970D01*
X207842151Y-113835480D01*
X207821107Y-113822867D01*
X207801402Y-113808253D01*
X207783223Y-113791777D01*
X207766747Y-113773598D01*
X207752133Y-113753893D01*
X207739520Y-113732849D01*
X207729030Y-113710671D01*
X207720765Y-113687571D01*
X207714804Y-113663773D01*
X207711204Y-113639504D01*
X207710000Y-113615000D01*
X207710000Y-112665000D01*
X207711204Y-112640496D01*
X207714804Y-112616227D01*
X207720765Y-112592429D01*
X207729030Y-112569329D01*
X207739520Y-112547151D01*
X207752133Y-112526107D01*
X207766747Y-112506402D01*
X207783223Y-112488223D01*
X207801402Y-112471747D01*
X207821107Y-112457133D01*
X207842151Y-112444520D01*
X207864329Y-112434030D01*
X207887429Y-112425765D01*
X207911227Y-112419804D01*
X207935496Y-112416204D01*
X207960000Y-112415000D01*
X208460000Y-112415000D01*
X208484504Y-112416204D01*
G37*
G36*
X210384504Y-114546204D02*
G01*
X210408773Y-114549804D01*
X210432571Y-114555765D01*
X210455671Y-114564030D01*
X210477849Y-114574520D01*
X210498893Y-114587133D01*
X210518598Y-114601747D01*
X210536777Y-114618223D01*
X210553253Y-114636402D01*
X210567867Y-114656107D01*
X210580480Y-114677151D01*
X210590970Y-114699329D01*
X210599235Y-114722429D01*
X210605196Y-114746227D01*
X210608796Y-114770496D01*
X210610000Y-114795000D01*
X210610000Y-115745000D01*
X210608796Y-115769504D01*
X210605196Y-115793773D01*
X210599235Y-115817571D01*
X210590970Y-115840671D01*
X210580480Y-115862849D01*
X210567867Y-115883893D01*
X210553253Y-115903598D01*
X210536777Y-115921777D01*
X210518598Y-115938253D01*
X210498893Y-115952867D01*
X210477849Y-115965480D01*
X210455671Y-115975970D01*
X210432571Y-115984235D01*
X210408773Y-115990196D01*
X210384504Y-115993796D01*
X210360000Y-115995000D01*
X209860000Y-115995000D01*
X209835496Y-115993796D01*
X209811227Y-115990196D01*
X209787429Y-115984235D01*
X209764329Y-115975970D01*
X209742151Y-115965480D01*
X209721107Y-115952867D01*
X209701402Y-115938253D01*
X209683223Y-115921777D01*
X209666747Y-115903598D01*
X209652133Y-115883893D01*
X209639520Y-115862849D01*
X209629030Y-115840671D01*
X209620765Y-115817571D01*
X209614804Y-115793773D01*
X209611204Y-115769504D01*
X209610000Y-115745000D01*
X209610000Y-114795000D01*
X209611204Y-114770496D01*
X209614804Y-114746227D01*
X209620765Y-114722429D01*
X209629030Y-114699329D01*
X209639520Y-114677151D01*
X209652133Y-114656107D01*
X209666747Y-114636402D01*
X209683223Y-114618223D01*
X209701402Y-114601747D01*
X209721107Y-114587133D01*
X209742151Y-114574520D01*
X209764329Y-114564030D01*
X209787429Y-114555765D01*
X209811227Y-114549804D01*
X209835496Y-114546204D01*
X209860000Y-114545000D01*
X210360000Y-114545000D01*
X210384504Y-114546204D01*
G37*
G36*
X208484504Y-114546204D02*
G01*
X208508773Y-114549804D01*
X208532571Y-114555765D01*
X208555671Y-114564030D01*
X208577849Y-114574520D01*
X208598893Y-114587133D01*
X208618598Y-114601747D01*
X208636777Y-114618223D01*
X208653253Y-114636402D01*
X208667867Y-114656107D01*
X208680480Y-114677151D01*
X208690970Y-114699329D01*
X208699235Y-114722429D01*
X208705196Y-114746227D01*
X208708796Y-114770496D01*
X208710000Y-114795000D01*
X208710000Y-115745000D01*
X208708796Y-115769504D01*
X208705196Y-115793773D01*
X208699235Y-115817571D01*
X208690970Y-115840671D01*
X208680480Y-115862849D01*
X208667867Y-115883893D01*
X208653253Y-115903598D01*
X208636777Y-115921777D01*
X208618598Y-115938253D01*
X208598893Y-115952867D01*
X208577849Y-115965480D01*
X208555671Y-115975970D01*
X208532571Y-115984235D01*
X208508773Y-115990196D01*
X208484504Y-115993796D01*
X208460000Y-115995000D01*
X207960000Y-115995000D01*
X207935496Y-115993796D01*
X207911227Y-115990196D01*
X207887429Y-115984235D01*
X207864329Y-115975970D01*
X207842151Y-115965480D01*
X207821107Y-115952867D01*
X207801402Y-115938253D01*
X207783223Y-115921777D01*
X207766747Y-115903598D01*
X207752133Y-115883893D01*
X207739520Y-115862849D01*
X207729030Y-115840671D01*
X207720765Y-115817571D01*
X207714804Y-115793773D01*
X207711204Y-115769504D01*
X207710000Y-115745000D01*
X207710000Y-114795000D01*
X207711204Y-114770496D01*
X207714804Y-114746227D01*
X207720765Y-114722429D01*
X207729030Y-114699329D01*
X207739520Y-114677151D01*
X207752133Y-114656107D01*
X207766747Y-114636402D01*
X207783223Y-114618223D01*
X207801402Y-114601747D01*
X207821107Y-114587133D01*
X207842151Y-114574520D01*
X207864329Y-114564030D01*
X207887429Y-114555765D01*
X207911227Y-114549804D01*
X207935496Y-114546204D01*
X207960000Y-114545000D01*
X208460000Y-114545000D01*
X208484504Y-114546204D01*
G37*
G36*
X204814504Y-114546204D02*
G01*
X204838773Y-114549804D01*
X204862571Y-114555765D01*
X204885671Y-114564030D01*
X204907849Y-114574520D01*
X204928893Y-114587133D01*
X204948598Y-114601747D01*
X204966777Y-114618223D01*
X204983253Y-114636402D01*
X204997867Y-114656107D01*
X205010480Y-114677151D01*
X205020970Y-114699329D01*
X205029235Y-114722429D01*
X205035196Y-114746227D01*
X205038796Y-114770496D01*
X205040000Y-114795000D01*
X205040000Y-115745000D01*
X205038796Y-115769504D01*
X205035196Y-115793773D01*
X205029235Y-115817571D01*
X205020970Y-115840671D01*
X205010480Y-115862849D01*
X204997867Y-115883893D01*
X204983253Y-115903598D01*
X204966777Y-115921777D01*
X204948598Y-115938253D01*
X204928893Y-115952867D01*
X204907849Y-115965480D01*
X204885671Y-115975970D01*
X204862571Y-115984235D01*
X204838773Y-115990196D01*
X204814504Y-115993796D01*
X204790000Y-115995000D01*
X204290000Y-115995000D01*
X204265496Y-115993796D01*
X204241227Y-115990196D01*
X204217429Y-115984235D01*
X204194329Y-115975970D01*
X204172151Y-115965480D01*
X204151107Y-115952867D01*
X204131402Y-115938253D01*
X204113223Y-115921777D01*
X204096747Y-115903598D01*
X204082133Y-115883893D01*
X204069520Y-115862849D01*
X204059030Y-115840671D01*
X204050765Y-115817571D01*
X204044804Y-115793773D01*
X204041204Y-115769504D01*
X204040000Y-115745000D01*
X204040000Y-114795000D01*
X204041204Y-114770496D01*
X204044804Y-114746227D01*
X204050765Y-114722429D01*
X204059030Y-114699329D01*
X204069520Y-114677151D01*
X204082133Y-114656107D01*
X204096747Y-114636402D01*
X204113223Y-114618223D01*
X204131402Y-114601747D01*
X204151107Y-114587133D01*
X204172151Y-114574520D01*
X204194329Y-114564030D01*
X204217429Y-114555765D01*
X204241227Y-114549804D01*
X204265496Y-114546204D01*
X204290000Y-114545000D01*
X204790000Y-114545000D01*
X204814504Y-114546204D01*
G37*
G36*
X202914504Y-114546204D02*
G01*
X202938773Y-114549804D01*
X202962571Y-114555765D01*
X202985671Y-114564030D01*
X203007849Y-114574520D01*
X203028893Y-114587133D01*
X203048598Y-114601747D01*
X203066777Y-114618223D01*
X203083253Y-114636402D01*
X203097867Y-114656107D01*
X203110480Y-114677151D01*
X203120970Y-114699329D01*
X203129235Y-114722429D01*
X203135196Y-114746227D01*
X203138796Y-114770496D01*
X203140000Y-114795000D01*
X203140000Y-115745000D01*
X203138796Y-115769504D01*
X203135196Y-115793773D01*
X203129235Y-115817571D01*
X203120970Y-115840671D01*
X203110480Y-115862849D01*
X203097867Y-115883893D01*
X203083253Y-115903598D01*
X203066777Y-115921777D01*
X203048598Y-115938253D01*
X203028893Y-115952867D01*
X203007849Y-115965480D01*
X202985671Y-115975970D01*
X202962571Y-115984235D01*
X202938773Y-115990196D01*
X202914504Y-115993796D01*
X202890000Y-115995000D01*
X202390000Y-115995000D01*
X202365496Y-115993796D01*
X202341227Y-115990196D01*
X202317429Y-115984235D01*
X202294329Y-115975970D01*
X202272151Y-115965480D01*
X202251107Y-115952867D01*
X202231402Y-115938253D01*
X202213223Y-115921777D01*
X202196747Y-115903598D01*
X202182133Y-115883893D01*
X202169520Y-115862849D01*
X202159030Y-115840671D01*
X202150765Y-115817571D01*
X202144804Y-115793773D01*
X202141204Y-115769504D01*
X202140000Y-115745000D01*
X202140000Y-114795000D01*
X202141204Y-114770496D01*
X202144804Y-114746227D01*
X202150765Y-114722429D01*
X202159030Y-114699329D01*
X202169520Y-114677151D01*
X202182133Y-114656107D01*
X202196747Y-114636402D01*
X202213223Y-114618223D01*
X202231402Y-114601747D01*
X202251107Y-114587133D01*
X202272151Y-114574520D01*
X202294329Y-114564030D01*
X202317429Y-114555765D01*
X202341227Y-114549804D01*
X202365496Y-114546204D01*
X202390000Y-114545000D01*
X202890000Y-114545000D01*
X202914504Y-114546204D01*
G37*
G36*
X217264504Y-107106204D02*
G01*
X217288773Y-107109804D01*
X217312571Y-107115765D01*
X217335671Y-107124030D01*
X217357849Y-107134520D01*
X217378893Y-107147133D01*
X217398598Y-107161747D01*
X217416777Y-107178223D01*
X217433253Y-107196402D01*
X217447867Y-107216107D01*
X217460480Y-107237151D01*
X217470970Y-107259329D01*
X217479235Y-107282429D01*
X217485196Y-107306227D01*
X217488796Y-107330496D01*
X217490000Y-107355000D01*
X217490000Y-108305000D01*
X217488796Y-108329504D01*
X217485196Y-108353773D01*
X217479235Y-108377571D01*
X217470970Y-108400671D01*
X217460480Y-108422849D01*
X217447867Y-108443893D01*
X217433253Y-108463598D01*
X217416777Y-108481777D01*
X217398598Y-108498253D01*
X217378893Y-108512867D01*
X217357849Y-108525480D01*
X217335671Y-108535970D01*
X217312571Y-108544235D01*
X217288773Y-108550196D01*
X217264504Y-108553796D01*
X217240000Y-108555000D01*
X216740000Y-108555000D01*
X216715496Y-108553796D01*
X216691227Y-108550196D01*
X216667429Y-108544235D01*
X216644329Y-108535970D01*
X216622151Y-108525480D01*
X216601107Y-108512867D01*
X216581402Y-108498253D01*
X216563223Y-108481777D01*
X216546747Y-108463598D01*
X216532133Y-108443893D01*
X216519520Y-108422849D01*
X216509030Y-108400671D01*
X216500765Y-108377571D01*
X216494804Y-108353773D01*
X216491204Y-108329504D01*
X216490000Y-108305000D01*
X216490000Y-107355000D01*
X216491204Y-107330496D01*
X216494804Y-107306227D01*
X216500765Y-107282429D01*
X216509030Y-107259329D01*
X216519520Y-107237151D01*
X216532133Y-107216107D01*
X216546747Y-107196402D01*
X216563223Y-107178223D01*
X216581402Y-107161747D01*
X216601107Y-107147133D01*
X216622151Y-107134520D01*
X216644329Y-107124030D01*
X216667429Y-107115765D01*
X216691227Y-107109804D01*
X216715496Y-107106204D01*
X216740000Y-107105000D01*
X217240000Y-107105000D01*
X217264504Y-107106204D01*
G37*
G36*
X215364504Y-107106204D02*
G01*
X215388773Y-107109804D01*
X215412571Y-107115765D01*
X215435671Y-107124030D01*
X215457849Y-107134520D01*
X215478893Y-107147133D01*
X215498598Y-107161747D01*
X215516777Y-107178223D01*
X215533253Y-107196402D01*
X215547867Y-107216107D01*
X215560480Y-107237151D01*
X215570970Y-107259329D01*
X215579235Y-107282429D01*
X215585196Y-107306227D01*
X215588796Y-107330496D01*
X215590000Y-107355000D01*
X215590000Y-108305000D01*
X215588796Y-108329504D01*
X215585196Y-108353773D01*
X215579235Y-108377571D01*
X215570970Y-108400671D01*
X215560480Y-108422849D01*
X215547867Y-108443893D01*
X215533253Y-108463598D01*
X215516777Y-108481777D01*
X215498598Y-108498253D01*
X215478893Y-108512867D01*
X215457849Y-108525480D01*
X215435671Y-108535970D01*
X215412571Y-108544235D01*
X215388773Y-108550196D01*
X215364504Y-108553796D01*
X215340000Y-108555000D01*
X214840000Y-108555000D01*
X214815496Y-108553796D01*
X214791227Y-108550196D01*
X214767429Y-108544235D01*
X214744329Y-108535970D01*
X214722151Y-108525480D01*
X214701107Y-108512867D01*
X214681402Y-108498253D01*
X214663223Y-108481777D01*
X214646747Y-108463598D01*
X214632133Y-108443893D01*
X214619520Y-108422849D01*
X214609030Y-108400671D01*
X214600765Y-108377571D01*
X214594804Y-108353773D01*
X214591204Y-108329504D01*
X214590000Y-108305000D01*
X214590000Y-107355000D01*
X214591204Y-107330496D01*
X214594804Y-107306227D01*
X214600765Y-107282429D01*
X214609030Y-107259329D01*
X214619520Y-107237151D01*
X214632133Y-107216107D01*
X214646747Y-107196402D01*
X214663223Y-107178223D01*
X214681402Y-107161747D01*
X214701107Y-107147133D01*
X214722151Y-107134520D01*
X214744329Y-107124030D01*
X214767429Y-107115765D01*
X214791227Y-107109804D01*
X214815496Y-107106204D01*
X214840000Y-107105000D01*
X215340000Y-107105000D01*
X215364504Y-107106204D01*
G37*
G36*
X226324504Y-102606204D02*
G01*
X226348773Y-102609804D01*
X226372571Y-102615765D01*
X226395671Y-102624030D01*
X226417849Y-102634520D01*
X226438893Y-102647133D01*
X226458598Y-102661747D01*
X226476777Y-102678223D01*
X226493253Y-102696402D01*
X226507867Y-102716107D01*
X226520480Y-102737151D01*
X226530970Y-102759329D01*
X226539235Y-102782429D01*
X226545196Y-102806227D01*
X226548796Y-102830496D01*
X226550000Y-102855000D01*
X226550000Y-103805000D01*
X226548796Y-103829504D01*
X226545196Y-103853773D01*
X226539235Y-103877571D01*
X226530970Y-103900671D01*
X226520480Y-103922849D01*
X226507867Y-103943893D01*
X226493253Y-103963598D01*
X226476777Y-103981777D01*
X226458598Y-103998253D01*
X226438893Y-104012867D01*
X226417849Y-104025480D01*
X226395671Y-104035970D01*
X226372571Y-104044235D01*
X226348773Y-104050196D01*
X226324504Y-104053796D01*
X226300000Y-104055000D01*
X225800000Y-104055000D01*
X225775496Y-104053796D01*
X225751227Y-104050196D01*
X225727429Y-104044235D01*
X225704329Y-104035970D01*
X225682151Y-104025480D01*
X225661107Y-104012867D01*
X225641402Y-103998253D01*
X225623223Y-103981777D01*
X225606747Y-103963598D01*
X225592133Y-103943893D01*
X225579520Y-103922849D01*
X225569030Y-103900671D01*
X225560765Y-103877571D01*
X225554804Y-103853773D01*
X225551204Y-103829504D01*
X225550000Y-103805000D01*
X225550000Y-102855000D01*
X225551204Y-102830496D01*
X225554804Y-102806227D01*
X225560765Y-102782429D01*
X225569030Y-102759329D01*
X225579520Y-102737151D01*
X225592133Y-102716107D01*
X225606747Y-102696402D01*
X225623223Y-102678223D01*
X225641402Y-102661747D01*
X225661107Y-102647133D01*
X225682151Y-102634520D01*
X225704329Y-102624030D01*
X225727429Y-102615765D01*
X225751227Y-102609804D01*
X225775496Y-102606204D01*
X225800000Y-102605000D01*
X226300000Y-102605000D01*
X226324504Y-102606204D01*
G37*
G36*
X224424504Y-102606204D02*
G01*
X224448773Y-102609804D01*
X224472571Y-102615765D01*
X224495671Y-102624030D01*
X224517849Y-102634520D01*
X224538893Y-102647133D01*
X224558598Y-102661747D01*
X224576777Y-102678223D01*
X224593253Y-102696402D01*
X224607867Y-102716107D01*
X224620480Y-102737151D01*
X224630970Y-102759329D01*
X224639235Y-102782429D01*
X224645196Y-102806227D01*
X224648796Y-102830496D01*
X224650000Y-102855000D01*
X224650000Y-103805000D01*
X224648796Y-103829504D01*
X224645196Y-103853773D01*
X224639235Y-103877571D01*
X224630970Y-103900671D01*
X224620480Y-103922849D01*
X224607867Y-103943893D01*
X224593253Y-103963598D01*
X224576777Y-103981777D01*
X224558598Y-103998253D01*
X224538893Y-104012867D01*
X224517849Y-104025480D01*
X224495671Y-104035970D01*
X224472571Y-104044235D01*
X224448773Y-104050196D01*
X224424504Y-104053796D01*
X224400000Y-104055000D01*
X223900000Y-104055000D01*
X223875496Y-104053796D01*
X223851227Y-104050196D01*
X223827429Y-104044235D01*
X223804329Y-104035970D01*
X223782151Y-104025480D01*
X223761107Y-104012867D01*
X223741402Y-103998253D01*
X223723223Y-103981777D01*
X223706747Y-103963598D01*
X223692133Y-103943893D01*
X223679520Y-103922849D01*
X223669030Y-103900671D01*
X223660765Y-103877571D01*
X223654804Y-103853773D01*
X223651204Y-103829504D01*
X223650000Y-103805000D01*
X223650000Y-102855000D01*
X223651204Y-102830496D01*
X223654804Y-102806227D01*
X223660765Y-102782429D01*
X223669030Y-102759329D01*
X223679520Y-102737151D01*
X223692133Y-102716107D01*
X223706747Y-102696402D01*
X223723223Y-102678223D01*
X223741402Y-102661747D01*
X223761107Y-102647133D01*
X223782151Y-102634520D01*
X223804329Y-102624030D01*
X223827429Y-102615765D01*
X223851227Y-102609804D01*
X223875496Y-102606204D01*
X223900000Y-102605000D01*
X224400000Y-102605000D01*
X224424504Y-102606204D01*
G37*
G36*
X222674505Y-102481204D02*
G01*
X222698773Y-102484804D01*
X222722572Y-102490765D01*
X222745671Y-102499030D01*
X222767850Y-102509520D01*
X222788893Y-102522132D01*
X222808599Y-102536747D01*
X222826777Y-102553223D01*
X222843253Y-102571401D01*
X222857868Y-102591107D01*
X222870480Y-102612150D01*
X222880970Y-102634329D01*
X222889235Y-102657428D01*
X222895196Y-102681227D01*
X222898796Y-102705495D01*
X222900000Y-102729999D01*
X222900000Y-104030001D01*
X222898796Y-104054505D01*
X222895196Y-104078773D01*
X222889235Y-104102572D01*
X222880970Y-104125671D01*
X222870480Y-104147850D01*
X222857868Y-104168893D01*
X222843253Y-104188599D01*
X222826777Y-104206777D01*
X222808599Y-104223253D01*
X222788893Y-104237868D01*
X222767850Y-104250480D01*
X222745671Y-104260970D01*
X222722572Y-104269235D01*
X222698773Y-104275196D01*
X222674505Y-104278796D01*
X222650001Y-104280000D01*
X221999999Y-104280000D01*
X221975495Y-104278796D01*
X221951227Y-104275196D01*
X221927428Y-104269235D01*
X221904329Y-104260970D01*
X221882150Y-104250480D01*
X221861107Y-104237868D01*
X221841401Y-104223253D01*
X221823223Y-104206777D01*
X221806747Y-104188599D01*
X221792132Y-104168893D01*
X221779520Y-104147850D01*
X221769030Y-104125671D01*
X221760765Y-104102572D01*
X221754804Y-104078773D01*
X221751204Y-104054505D01*
X221750000Y-104030001D01*
X221750000Y-102729999D01*
X221751204Y-102705495D01*
X221754804Y-102681227D01*
X221760765Y-102657428D01*
X221769030Y-102634329D01*
X221779520Y-102612150D01*
X221792132Y-102591107D01*
X221806747Y-102571401D01*
X221823223Y-102553223D01*
X221841401Y-102536747D01*
X221861107Y-102522132D01*
X221882150Y-102509520D01*
X221904329Y-102499030D01*
X221927428Y-102490765D01*
X221951227Y-102484804D01*
X221975495Y-102481204D01*
X221999999Y-102480000D01*
X222650001Y-102480000D01*
X222674505Y-102481204D01*
G37*
G36*
X219724505Y-102481204D02*
G01*
X219748773Y-102484804D01*
X219772572Y-102490765D01*
X219795671Y-102499030D01*
X219817850Y-102509520D01*
X219838893Y-102522132D01*
X219858599Y-102536747D01*
X219876777Y-102553223D01*
X219893253Y-102571401D01*
X219907868Y-102591107D01*
X219920480Y-102612150D01*
X219930970Y-102634329D01*
X219939235Y-102657428D01*
X219945196Y-102681227D01*
X219948796Y-102705495D01*
X219950000Y-102729999D01*
X219950000Y-104030001D01*
X219948796Y-104054505D01*
X219945196Y-104078773D01*
X219939235Y-104102572D01*
X219930970Y-104125671D01*
X219920480Y-104147850D01*
X219907868Y-104168893D01*
X219893253Y-104188599D01*
X219876777Y-104206777D01*
X219858599Y-104223253D01*
X219838893Y-104237868D01*
X219817850Y-104250480D01*
X219795671Y-104260970D01*
X219772572Y-104269235D01*
X219748773Y-104275196D01*
X219724505Y-104278796D01*
X219700001Y-104280000D01*
X219049999Y-104280000D01*
X219025495Y-104278796D01*
X219001227Y-104275196D01*
X218977428Y-104269235D01*
X218954329Y-104260970D01*
X218932150Y-104250480D01*
X218911107Y-104237868D01*
X218891401Y-104223253D01*
X218873223Y-104206777D01*
X218856747Y-104188599D01*
X218842132Y-104168893D01*
X218829520Y-104147850D01*
X218819030Y-104125671D01*
X218810765Y-104102572D01*
X218804804Y-104078773D01*
X218801204Y-104054505D01*
X218800000Y-104030001D01*
X218800000Y-102729999D01*
X218801204Y-102705495D01*
X218804804Y-102681227D01*
X218810765Y-102657428D01*
X218819030Y-102634329D01*
X218829520Y-102612150D01*
X218842132Y-102591107D01*
X218856747Y-102571401D01*
X218873223Y-102553223D01*
X218891401Y-102536747D01*
X218911107Y-102522132D01*
X218932150Y-102509520D01*
X218954329Y-102499030D01*
X218977428Y-102490765D01*
X219001227Y-102484804D01*
X219025495Y-102481204D01*
X219049999Y-102480000D01*
X219700001Y-102480000D01*
X219724505Y-102481204D01*
G37*
G36*
X165314504Y-113526204D02*
G01*
X165338773Y-113529804D01*
X165362571Y-113535765D01*
X165385671Y-113544030D01*
X165407849Y-113554520D01*
X165428893Y-113567133D01*
X165448598Y-113581747D01*
X165466777Y-113598223D01*
X165483253Y-113616402D01*
X165497867Y-113636107D01*
X165510480Y-113657151D01*
X165520970Y-113679329D01*
X165529235Y-113702429D01*
X165535196Y-113726227D01*
X165538796Y-113750496D01*
X165540000Y-113775000D01*
X165540000Y-114725000D01*
X165538796Y-114749504D01*
X165535196Y-114773773D01*
X165529235Y-114797571D01*
X165520970Y-114820671D01*
X165510480Y-114842849D01*
X165497867Y-114863893D01*
X165483253Y-114883598D01*
X165466777Y-114901777D01*
X165448598Y-114918253D01*
X165428893Y-114932867D01*
X165407849Y-114945480D01*
X165385671Y-114955970D01*
X165362571Y-114964235D01*
X165338773Y-114970196D01*
X165314504Y-114973796D01*
X165290000Y-114975000D01*
X164790000Y-114975000D01*
X164765496Y-114973796D01*
X164741227Y-114970196D01*
X164717429Y-114964235D01*
X164694329Y-114955970D01*
X164672151Y-114945480D01*
X164651107Y-114932867D01*
X164631402Y-114918253D01*
X164613223Y-114901777D01*
X164596747Y-114883598D01*
X164582133Y-114863893D01*
X164569520Y-114842849D01*
X164559030Y-114820671D01*
X164550765Y-114797571D01*
X164544804Y-114773773D01*
X164541204Y-114749504D01*
X164540000Y-114725000D01*
X164540000Y-113775000D01*
X164541204Y-113750496D01*
X164544804Y-113726227D01*
X164550765Y-113702429D01*
X164559030Y-113679329D01*
X164569520Y-113657151D01*
X164582133Y-113636107D01*
X164596747Y-113616402D01*
X164613223Y-113598223D01*
X164631402Y-113581747D01*
X164651107Y-113567133D01*
X164672151Y-113554520D01*
X164694329Y-113544030D01*
X164717429Y-113535765D01*
X164741227Y-113529804D01*
X164765496Y-113526204D01*
X164790000Y-113525000D01*
X165290000Y-113525000D01*
X165314504Y-113526204D01*
G37*
G36*
X163414504Y-113526204D02*
G01*
X163438773Y-113529804D01*
X163462571Y-113535765D01*
X163485671Y-113544030D01*
X163507849Y-113554520D01*
X163528893Y-113567133D01*
X163548598Y-113581747D01*
X163566777Y-113598223D01*
X163583253Y-113616402D01*
X163597867Y-113636107D01*
X163610480Y-113657151D01*
X163620970Y-113679329D01*
X163629235Y-113702429D01*
X163635196Y-113726227D01*
X163638796Y-113750496D01*
X163640000Y-113775000D01*
X163640000Y-114725000D01*
X163638796Y-114749504D01*
X163635196Y-114773773D01*
X163629235Y-114797571D01*
X163620970Y-114820671D01*
X163610480Y-114842849D01*
X163597867Y-114863893D01*
X163583253Y-114883598D01*
X163566777Y-114901777D01*
X163548598Y-114918253D01*
X163528893Y-114932867D01*
X163507849Y-114945480D01*
X163485671Y-114955970D01*
X163462571Y-114964235D01*
X163438773Y-114970196D01*
X163414504Y-114973796D01*
X163390000Y-114975000D01*
X162890000Y-114975000D01*
X162865496Y-114973796D01*
X162841227Y-114970196D01*
X162817429Y-114964235D01*
X162794329Y-114955970D01*
X162772151Y-114945480D01*
X162751107Y-114932867D01*
X162731402Y-114918253D01*
X162713223Y-114901777D01*
X162696747Y-114883598D01*
X162682133Y-114863893D01*
X162669520Y-114842849D01*
X162659030Y-114820671D01*
X162650765Y-114797571D01*
X162644804Y-114773773D01*
X162641204Y-114749504D01*
X162640000Y-114725000D01*
X162640000Y-113775000D01*
X162641204Y-113750496D01*
X162644804Y-113726227D01*
X162650765Y-113702429D01*
X162659030Y-113679329D01*
X162669520Y-113657151D01*
X162682133Y-113636107D01*
X162696747Y-113616402D01*
X162713223Y-113598223D01*
X162731402Y-113581747D01*
X162751107Y-113567133D01*
X162772151Y-113554520D01*
X162794329Y-113544030D01*
X162817429Y-113535765D01*
X162841227Y-113529804D01*
X162865496Y-113526204D01*
X162890000Y-113525000D01*
X163390000Y-113525000D01*
X163414504Y-113526204D01*
G37*
G36*
X190624504Y-108826204D02*
G01*
X190648773Y-108829804D01*
X190672571Y-108835765D01*
X190695671Y-108844030D01*
X190717849Y-108854520D01*
X190738893Y-108867133D01*
X190758598Y-108881747D01*
X190776777Y-108898223D01*
X190793253Y-108916402D01*
X190807867Y-108936107D01*
X190820480Y-108957151D01*
X190830970Y-108979329D01*
X190839235Y-109002429D01*
X190845196Y-109026227D01*
X190848796Y-109050496D01*
X190850000Y-109075000D01*
X190850000Y-110025000D01*
X190848796Y-110049504D01*
X190845196Y-110073773D01*
X190839235Y-110097571D01*
X190830970Y-110120671D01*
X190820480Y-110142849D01*
X190807867Y-110163893D01*
X190793253Y-110183598D01*
X190776777Y-110201777D01*
X190758598Y-110218253D01*
X190738893Y-110232867D01*
X190717849Y-110245480D01*
X190695671Y-110255970D01*
X190672571Y-110264235D01*
X190648773Y-110270196D01*
X190624504Y-110273796D01*
X190600000Y-110275000D01*
X190100000Y-110275000D01*
X190075496Y-110273796D01*
X190051227Y-110270196D01*
X190027429Y-110264235D01*
X190004329Y-110255970D01*
X189982151Y-110245480D01*
X189961107Y-110232867D01*
X189941402Y-110218253D01*
X189923223Y-110201777D01*
X189906747Y-110183598D01*
X189892133Y-110163893D01*
X189879520Y-110142849D01*
X189869030Y-110120671D01*
X189860765Y-110097571D01*
X189854804Y-110073773D01*
X189851204Y-110049504D01*
X189850000Y-110025000D01*
X189850000Y-109075000D01*
X189851204Y-109050496D01*
X189854804Y-109026227D01*
X189860765Y-109002429D01*
X189869030Y-108979329D01*
X189879520Y-108957151D01*
X189892133Y-108936107D01*
X189906747Y-108916402D01*
X189923223Y-108898223D01*
X189941402Y-108881747D01*
X189961107Y-108867133D01*
X189982151Y-108854520D01*
X190004329Y-108844030D01*
X190027429Y-108835765D01*
X190051227Y-108829804D01*
X190075496Y-108826204D01*
X190100000Y-108825000D01*
X190600000Y-108825000D01*
X190624504Y-108826204D01*
G37*
G36*
X188724504Y-108826204D02*
G01*
X188748773Y-108829804D01*
X188772571Y-108835765D01*
X188795671Y-108844030D01*
X188817849Y-108854520D01*
X188838893Y-108867133D01*
X188858598Y-108881747D01*
X188876777Y-108898223D01*
X188893253Y-108916402D01*
X188907867Y-108936107D01*
X188920480Y-108957151D01*
X188930970Y-108979329D01*
X188939235Y-109002429D01*
X188945196Y-109026227D01*
X188948796Y-109050496D01*
X188950000Y-109075000D01*
X188950000Y-110025000D01*
X188948796Y-110049504D01*
X188945196Y-110073773D01*
X188939235Y-110097571D01*
X188930970Y-110120671D01*
X188920480Y-110142849D01*
X188907867Y-110163893D01*
X188893253Y-110183598D01*
X188876777Y-110201777D01*
X188858598Y-110218253D01*
X188838893Y-110232867D01*
X188817849Y-110245480D01*
X188795671Y-110255970D01*
X188772571Y-110264235D01*
X188748773Y-110270196D01*
X188724504Y-110273796D01*
X188700000Y-110275000D01*
X188200000Y-110275000D01*
X188175496Y-110273796D01*
X188151227Y-110270196D01*
X188127429Y-110264235D01*
X188104329Y-110255970D01*
X188082151Y-110245480D01*
X188061107Y-110232867D01*
X188041402Y-110218253D01*
X188023223Y-110201777D01*
X188006747Y-110183598D01*
X187992133Y-110163893D01*
X187979520Y-110142849D01*
X187969030Y-110120671D01*
X187960765Y-110097571D01*
X187954804Y-110073773D01*
X187951204Y-110049504D01*
X187950000Y-110025000D01*
X187950000Y-109075000D01*
X187951204Y-109050496D01*
X187954804Y-109026227D01*
X187960765Y-109002429D01*
X187969030Y-108979329D01*
X187979520Y-108957151D01*
X187992133Y-108936107D01*
X188006747Y-108916402D01*
X188023223Y-108898223D01*
X188041402Y-108881747D01*
X188061107Y-108867133D01*
X188082151Y-108854520D01*
X188104329Y-108844030D01*
X188127429Y-108835765D01*
X188151227Y-108829804D01*
X188175496Y-108826204D01*
X188200000Y-108825000D01*
X188700000Y-108825000D01*
X188724504Y-108826204D01*
G37*
G36*
X165314504Y-115626204D02*
G01*
X165338773Y-115629804D01*
X165362571Y-115635765D01*
X165385671Y-115644030D01*
X165407849Y-115654520D01*
X165428893Y-115667133D01*
X165448598Y-115681747D01*
X165466777Y-115698223D01*
X165483253Y-115716402D01*
X165497867Y-115736107D01*
X165510480Y-115757151D01*
X165520970Y-115779329D01*
X165529235Y-115802429D01*
X165535196Y-115826227D01*
X165538796Y-115850496D01*
X165540000Y-115875000D01*
X165540000Y-116825000D01*
X165538796Y-116849504D01*
X165535196Y-116873773D01*
X165529235Y-116897571D01*
X165520970Y-116920671D01*
X165510480Y-116942849D01*
X165497867Y-116963893D01*
X165483253Y-116983598D01*
X165466777Y-117001777D01*
X165448598Y-117018253D01*
X165428893Y-117032867D01*
X165407849Y-117045480D01*
X165385671Y-117055970D01*
X165362571Y-117064235D01*
X165338773Y-117070196D01*
X165314504Y-117073796D01*
X165290000Y-117075000D01*
X164790000Y-117075000D01*
X164765496Y-117073796D01*
X164741227Y-117070196D01*
X164717429Y-117064235D01*
X164694329Y-117055970D01*
X164672151Y-117045480D01*
X164651107Y-117032867D01*
X164631402Y-117018253D01*
X164613223Y-117001777D01*
X164596747Y-116983598D01*
X164582133Y-116963893D01*
X164569520Y-116942849D01*
X164559030Y-116920671D01*
X164550765Y-116897571D01*
X164544804Y-116873773D01*
X164541204Y-116849504D01*
X164540000Y-116825000D01*
X164540000Y-115875000D01*
X164541204Y-115850496D01*
X164544804Y-115826227D01*
X164550765Y-115802429D01*
X164559030Y-115779329D01*
X164569520Y-115757151D01*
X164582133Y-115736107D01*
X164596747Y-115716402D01*
X164613223Y-115698223D01*
X164631402Y-115681747D01*
X164651107Y-115667133D01*
X164672151Y-115654520D01*
X164694329Y-115644030D01*
X164717429Y-115635765D01*
X164741227Y-115629804D01*
X164765496Y-115626204D01*
X164790000Y-115625000D01*
X165290000Y-115625000D01*
X165314504Y-115626204D01*
G37*
G36*
X163414504Y-115626204D02*
G01*
X163438773Y-115629804D01*
X163462571Y-115635765D01*
X163485671Y-115644030D01*
X163507849Y-115654520D01*
X163528893Y-115667133D01*
X163548598Y-115681747D01*
X163566777Y-115698223D01*
X163583253Y-115716402D01*
X163597867Y-115736107D01*
X163610480Y-115757151D01*
X163620970Y-115779329D01*
X163629235Y-115802429D01*
X163635196Y-115826227D01*
X163638796Y-115850496D01*
X163640000Y-115875000D01*
X163640000Y-116825000D01*
X163638796Y-116849504D01*
X163635196Y-116873773D01*
X163629235Y-116897571D01*
X163620970Y-116920671D01*
X163610480Y-116942849D01*
X163597867Y-116963893D01*
X163583253Y-116983598D01*
X163566777Y-117001777D01*
X163548598Y-117018253D01*
X163528893Y-117032867D01*
X163507849Y-117045480D01*
X163485671Y-117055970D01*
X163462571Y-117064235D01*
X163438773Y-117070196D01*
X163414504Y-117073796D01*
X163390000Y-117075000D01*
X162890000Y-117075000D01*
X162865496Y-117073796D01*
X162841227Y-117070196D01*
X162817429Y-117064235D01*
X162794329Y-117055970D01*
X162772151Y-117045480D01*
X162751107Y-117032867D01*
X162731402Y-117018253D01*
X162713223Y-117001777D01*
X162696747Y-116983598D01*
X162682133Y-116963893D01*
X162669520Y-116942849D01*
X162659030Y-116920671D01*
X162650765Y-116897571D01*
X162644804Y-116873773D01*
X162641204Y-116849504D01*
X162640000Y-116825000D01*
X162640000Y-115875000D01*
X162641204Y-115850496D01*
X162644804Y-115826227D01*
X162650765Y-115802429D01*
X162659030Y-115779329D01*
X162669520Y-115757151D01*
X162682133Y-115736107D01*
X162696747Y-115716402D01*
X162713223Y-115698223D01*
X162731402Y-115681747D01*
X162751107Y-115667133D01*
X162772151Y-115654520D01*
X162794329Y-115644030D01*
X162817429Y-115635765D01*
X162841227Y-115629804D01*
X162865496Y-115626204D01*
X162890000Y-115625000D01*
X163390000Y-115625000D01*
X163414504Y-115626204D01*
G37*
G36*
X190624504Y-111126204D02*
G01*
X190648773Y-111129804D01*
X190672571Y-111135765D01*
X190695671Y-111144030D01*
X190717849Y-111154520D01*
X190738893Y-111167133D01*
X190758598Y-111181747D01*
X190776777Y-111198223D01*
X190793253Y-111216402D01*
X190807867Y-111236107D01*
X190820480Y-111257151D01*
X190830970Y-111279329D01*
X190839235Y-111302429D01*
X190845196Y-111326227D01*
X190848796Y-111350496D01*
X190850000Y-111375000D01*
X190850000Y-112325000D01*
X190848796Y-112349504D01*
X190845196Y-112373773D01*
X190839235Y-112397571D01*
X190830970Y-112420671D01*
X190820480Y-112442849D01*
X190807867Y-112463893D01*
X190793253Y-112483598D01*
X190776777Y-112501777D01*
X190758598Y-112518253D01*
X190738893Y-112532867D01*
X190717849Y-112545480D01*
X190695671Y-112555970D01*
X190672571Y-112564235D01*
X190648773Y-112570196D01*
X190624504Y-112573796D01*
X190600000Y-112575000D01*
X190100000Y-112575000D01*
X190075496Y-112573796D01*
X190051227Y-112570196D01*
X190027429Y-112564235D01*
X190004329Y-112555970D01*
X189982151Y-112545480D01*
X189961107Y-112532867D01*
X189941402Y-112518253D01*
X189923223Y-112501777D01*
X189906747Y-112483598D01*
X189892133Y-112463893D01*
X189879520Y-112442849D01*
X189869030Y-112420671D01*
X189860765Y-112397571D01*
X189854804Y-112373773D01*
X189851204Y-112349504D01*
X189850000Y-112325000D01*
X189850000Y-111375000D01*
X189851204Y-111350496D01*
X189854804Y-111326227D01*
X189860765Y-111302429D01*
X189869030Y-111279329D01*
X189879520Y-111257151D01*
X189892133Y-111236107D01*
X189906747Y-111216402D01*
X189923223Y-111198223D01*
X189941402Y-111181747D01*
X189961107Y-111167133D01*
X189982151Y-111154520D01*
X190004329Y-111144030D01*
X190027429Y-111135765D01*
X190051227Y-111129804D01*
X190075496Y-111126204D01*
X190100000Y-111125000D01*
X190600000Y-111125000D01*
X190624504Y-111126204D01*
G37*
G36*
X188724504Y-111126204D02*
G01*
X188748773Y-111129804D01*
X188772571Y-111135765D01*
X188795671Y-111144030D01*
X188817849Y-111154520D01*
X188838893Y-111167133D01*
X188858598Y-111181747D01*
X188876777Y-111198223D01*
X188893253Y-111216402D01*
X188907867Y-111236107D01*
X188920480Y-111257151D01*
X188930970Y-111279329D01*
X188939235Y-111302429D01*
X188945196Y-111326227D01*
X188948796Y-111350496D01*
X188950000Y-111375000D01*
X188950000Y-112325000D01*
X188948796Y-112349504D01*
X188945196Y-112373773D01*
X188939235Y-112397571D01*
X188930970Y-112420671D01*
X188920480Y-112442849D01*
X188907867Y-112463893D01*
X188893253Y-112483598D01*
X188876777Y-112501777D01*
X188858598Y-112518253D01*
X188838893Y-112532867D01*
X188817849Y-112545480D01*
X188795671Y-112555970D01*
X188772571Y-112564235D01*
X188748773Y-112570196D01*
X188724504Y-112573796D01*
X188700000Y-112575000D01*
X188200000Y-112575000D01*
X188175496Y-112573796D01*
X188151227Y-112570196D01*
X188127429Y-112564235D01*
X188104329Y-112555970D01*
X188082151Y-112545480D01*
X188061107Y-112532867D01*
X188041402Y-112518253D01*
X188023223Y-112501777D01*
X188006747Y-112483598D01*
X187992133Y-112463893D01*
X187979520Y-112442849D01*
X187969030Y-112420671D01*
X187960765Y-112397571D01*
X187954804Y-112373773D01*
X187951204Y-112349504D01*
X187950000Y-112325000D01*
X187950000Y-111375000D01*
X187951204Y-111350496D01*
X187954804Y-111326227D01*
X187960765Y-111302429D01*
X187969030Y-111279329D01*
X187979520Y-111257151D01*
X187992133Y-111236107D01*
X188006747Y-111216402D01*
X188023223Y-111198223D01*
X188041402Y-111181747D01*
X188061107Y-111167133D01*
X188082151Y-111154520D01*
X188104329Y-111144030D01*
X188127429Y-111135765D01*
X188151227Y-111129804D01*
X188175496Y-111126204D01*
X188200000Y-111125000D01*
X188700000Y-111125000D01*
X188724504Y-111126204D01*
G37*
M02*
