M48
; DRILL file {KiCad (5.1.5)-3} date 20/03/2021 18:15:33
; FORMAT={3:3/ absolute / metric / suppress leading zeros}
; #@! TF.CreationDate,2021-03-20T18:15:33+00:00
; #@! TF.GenerationSoftware,Kicad,Pcbnew,(5.1.5)-3
; #@! TF.FileFunction,Plated,1,2,PTH
FMAT,2
METRIC,TZ
T1C0.400
T2C0.710
T3C1.000
T4C1.100
T5C1.400
%
G90
G05
T1
X146750Y-120650
X148750Y-116900
X149750Y-116900
X150750Y-116900
X154600Y-121000
X155150Y-118700
X156000Y-120650
X156050Y-118700
X157600Y-116775
X158200Y-120100
X158800Y-120800
X160088Y-109250
X160900Y-117800
X160900Y-120000
X161700Y-116100
X161900Y-111700
X163500Y-104750
X164000Y-107750
X165400Y-120250
X165413Y-106000
X165500Y-109250
X166500Y-114350
X167000Y-111250
X167100Y-107700
X167800Y-120150
X168000Y-107700
X169500Y-113300
X169688Y-115550
X169700Y-120150
X170700Y-113300
X172000Y-113250
X173250Y-113250
X173400Y-120250
X174750Y-119200
X176600Y-107350
X177950Y-116450
X178850Y-116450
X179100Y-112500
X180000Y-112500
X181550Y-117000
X181750Y-105150
X183250Y-104175
X183700Y-113800
X183775Y-107450
X184050Y-115600
X184600Y-113800
X185150Y-116700
X185400Y-119500
X186500Y-108000
X187100Y-106100
X190000Y-106100
X201800Y-114500
X203300Y-120700
X203850Y-112950
X207500Y-106000
X208250Y-111750
X209000Y-106050
X210075Y-108150
X212387Y-114250
X216050Y-118950
T2
X219850Y-108150
X224950Y-109750
T3
X220950Y-115565
X224750Y-115565
X162700Y-122800
X165240Y-122800
X167780Y-122800
X170320Y-122800
X172860Y-122800
X175400Y-122800
X177940Y-122800
X180480Y-122800
X183020Y-122800
X185560Y-122800
X188100Y-122800
X190640Y-122800
X195200Y-115565
X199000Y-115565
T4
X145690Y-110000
X149500Y-110000
X153310Y-110000
X157120Y-110000
T5
X171300Y-107100
X196750Y-107100
T0
M30
