G04 #@! TF.GenerationSoftware,KiCad,Pcbnew,(5.1.5)-3*
G04 #@! TF.CreationDate,2021-03-20T18:15:31+00:00*
G04 #@! TF.ProjectId,CurrentShuntCircuit,43757272-656e-4745-9368-756e74436972,1*
G04 #@! TF.SameCoordinates,Original*
G04 #@! TF.FileFunction,Legend,Bot*
G04 #@! TF.FilePolarity,Positive*
%FSLAX46Y46*%
G04 Gerber Fmt 4.6, Leading zero omitted, Abs format (unit mm)*
G04 Created by KiCad (PCBNEW (5.1.5)-3) date 2021-03-20 18:15:31*
%MOMM*%
%LPD*%
G04 APERTURE LIST*
%ADD10C,0.150000*%
%ADD11C,0.200000*%
%ADD12C,0.120000*%
G04 APERTURE END LIST*
D10*
X187470000Y-125059642D02*
X187412857Y-124945357D01*
X187412857Y-124773928D01*
X187470000Y-124602500D01*
X187584285Y-124488214D01*
X187698571Y-124431071D01*
X187927142Y-124373928D01*
X188098571Y-124373928D01*
X188327142Y-124431071D01*
X188441428Y-124488214D01*
X188555714Y-124602500D01*
X188612857Y-124773928D01*
X188612857Y-124888214D01*
X188555714Y-125059642D01*
X188498571Y-125116785D01*
X188098571Y-125116785D01*
X188098571Y-124888214D01*
X188612857Y-125631071D02*
X187412857Y-125631071D01*
X188612857Y-126316785D01*
X187412857Y-126316785D01*
X188612857Y-126888214D02*
X187412857Y-126888214D01*
X187412857Y-127173928D01*
X187470000Y-127345357D01*
X187584285Y-127459642D01*
X187698571Y-127516785D01*
X187927142Y-127573928D01*
X188098571Y-127573928D01*
X188327142Y-127516785D01*
X188441428Y-127459642D01*
X188555714Y-127345357D01*
X188612857Y-127173928D01*
X188612857Y-126888214D01*
X182570000Y-125059642D02*
X182512857Y-124945357D01*
X182512857Y-124773928D01*
X182570000Y-124602500D01*
X182684285Y-124488214D01*
X182798571Y-124431071D01*
X183027142Y-124373928D01*
X183198571Y-124373928D01*
X183427142Y-124431071D01*
X183541428Y-124488214D01*
X183655714Y-124602500D01*
X183712857Y-124773928D01*
X183712857Y-124888214D01*
X183655714Y-125059642D01*
X183598571Y-125116785D01*
X183198571Y-125116785D01*
X183198571Y-124888214D01*
X183712857Y-125631071D02*
X182512857Y-125631071D01*
X183712857Y-126316785D01*
X182512857Y-126316785D01*
X183712857Y-126888214D02*
X182512857Y-126888214D01*
X182512857Y-127173928D01*
X182570000Y-127345357D01*
X182684285Y-127459642D01*
X182798571Y-127516785D01*
X183027142Y-127573928D01*
X183198571Y-127573928D01*
X183427142Y-127516785D01*
X183541428Y-127459642D01*
X183655714Y-127345357D01*
X183712857Y-127173928D01*
X183712857Y-126888214D01*
X181112857Y-125116785D02*
X180541428Y-124716785D01*
X181112857Y-124431071D02*
X179912857Y-124431071D01*
X179912857Y-124888214D01*
X179970000Y-125002500D01*
X180027142Y-125059643D01*
X180141428Y-125116785D01*
X180312857Y-125116785D01*
X180427142Y-125059643D01*
X180484285Y-125002500D01*
X180541428Y-124888214D01*
X180541428Y-124431071D01*
X180484285Y-125631071D02*
X180484285Y-126031071D01*
X181112857Y-126202500D02*
X181112857Y-125631071D01*
X179912857Y-125631071D01*
X179912857Y-126202500D01*
X181112857Y-127288214D02*
X181112857Y-126716785D01*
X179912857Y-126716785D01*
X180770000Y-127631071D02*
X180770000Y-128202500D01*
X181112857Y-127516785D02*
X179912857Y-127916785D01*
X181112857Y-128316785D01*
X180541428Y-128945357D02*
X181112857Y-128945357D01*
X179912857Y-128545357D02*
X180541428Y-128945357D01*
X179912857Y-129345357D01*
X178642857Y-125116785D02*
X178071428Y-124716785D01*
X178642857Y-124431071D02*
X177442857Y-124431071D01*
X177442857Y-124888214D01*
X177500000Y-125002499D01*
X177557142Y-125059642D01*
X177671428Y-125116785D01*
X177842857Y-125116785D01*
X177957142Y-125059642D01*
X178014285Y-125002499D01*
X178071428Y-124888214D01*
X178071428Y-124431071D01*
X177442857Y-125516785D02*
X178642857Y-126316785D01*
X177442857Y-126316785D02*
X178642857Y-125516785D01*
X178642857Y-126773928D02*
X177442857Y-126773928D01*
X177442857Y-127059642D01*
X177500000Y-127231071D01*
X177614285Y-127345356D01*
X177728571Y-127402499D01*
X177957142Y-127459642D01*
X178128571Y-127459642D01*
X178357142Y-127402499D01*
X178471428Y-127345356D01*
X178585714Y-127231071D01*
X178642857Y-127059642D01*
X178642857Y-126773928D01*
X174842857Y-124259642D02*
X174842857Y-124945357D01*
X176042857Y-124602500D02*
X174842857Y-124602500D01*
X174842857Y-125231071D02*
X176042857Y-126031071D01*
X174842857Y-126031071D02*
X176042857Y-125231071D01*
X176042857Y-126488214D02*
X174842857Y-126488214D01*
X174842857Y-126773928D01*
X174900000Y-126945357D01*
X175014285Y-127059642D01*
X175128571Y-127116785D01*
X175357142Y-127173928D01*
X175528571Y-127173928D01*
X175757142Y-127116785D01*
X175871428Y-127059642D01*
X175985714Y-126945357D01*
X176042857Y-126773928D01*
X176042857Y-126488214D01*
X173305714Y-124373928D02*
X173362857Y-124545357D01*
X173362857Y-124831071D01*
X173305714Y-124945357D01*
X173248571Y-125002500D01*
X173134285Y-125059643D01*
X173020000Y-125059643D01*
X172905714Y-125002500D01*
X172848571Y-124945357D01*
X172791428Y-124831071D01*
X172734285Y-124602500D01*
X172677142Y-124488214D01*
X172620000Y-124431071D01*
X172505714Y-124373928D01*
X172391428Y-124373928D01*
X172277142Y-124431071D01*
X172220000Y-124488214D01*
X172162857Y-124602500D01*
X172162857Y-124888214D01*
X172220000Y-125059643D01*
X173362857Y-125573928D02*
X172162857Y-125573928D01*
X172162857Y-125859643D01*
X172220000Y-126031071D01*
X172334285Y-126145357D01*
X172448571Y-126202500D01*
X172677142Y-126259643D01*
X172848571Y-126259643D01*
X173077142Y-126202500D01*
X173191428Y-126145357D01*
X173305714Y-126031071D01*
X173362857Y-125859643D01*
X173362857Y-125573928D01*
X173020000Y-126716786D02*
X173020000Y-127288214D01*
X173362857Y-126602500D02*
X172162857Y-127002500D01*
X173362857Y-127402500D01*
X170705714Y-124373928D02*
X170762857Y-124545357D01*
X170762857Y-124831071D01*
X170705714Y-124945357D01*
X170648571Y-125002500D01*
X170534285Y-125059643D01*
X170420000Y-125059643D01*
X170305714Y-125002500D01*
X170248571Y-124945357D01*
X170191428Y-124831071D01*
X170134285Y-124602500D01*
X170077142Y-124488214D01*
X170020000Y-124431071D01*
X169905714Y-124373928D01*
X169791428Y-124373928D01*
X169677142Y-124431071D01*
X169620000Y-124488214D01*
X169562857Y-124602500D01*
X169562857Y-124888214D01*
X169620000Y-125059643D01*
X170648571Y-126259643D02*
X170705714Y-126202500D01*
X170762857Y-126031071D01*
X170762857Y-125916785D01*
X170705714Y-125745357D01*
X170591428Y-125631071D01*
X170477142Y-125573928D01*
X170248571Y-125516785D01*
X170077142Y-125516785D01*
X169848571Y-125573928D01*
X169734285Y-125631071D01*
X169620000Y-125745357D01*
X169562857Y-125916785D01*
X169562857Y-126031071D01*
X169620000Y-126202500D01*
X169677142Y-126259643D01*
X170762857Y-127345357D02*
X170762857Y-126773928D01*
X169562857Y-126773928D01*
X162755714Y-124431071D02*
X162755714Y-125345357D01*
X163212857Y-124888214D02*
X162298571Y-124888214D01*
X162012857Y-126488214D02*
X162012857Y-125916785D01*
X162584285Y-125859642D01*
X162527142Y-125916785D01*
X162470000Y-126031071D01*
X162470000Y-126316785D01*
X162527142Y-126431071D01*
X162584285Y-126488214D01*
X162698571Y-126545357D01*
X162984285Y-126545357D01*
X163098571Y-126488214D01*
X163155714Y-126431071D01*
X163212857Y-126316785D01*
X163212857Y-126031071D01*
X163155714Y-125916785D01*
X163098571Y-125859642D01*
X162012857Y-126888214D02*
X163212857Y-127288214D01*
X162012857Y-127688214D01*
X167170000Y-125059642D02*
X167112857Y-124945357D01*
X167112857Y-124773928D01*
X167170000Y-124602500D01*
X167284285Y-124488214D01*
X167398571Y-124431071D01*
X167627142Y-124373928D01*
X167798571Y-124373928D01*
X168027142Y-124431071D01*
X168141428Y-124488214D01*
X168255714Y-124602500D01*
X168312857Y-124773928D01*
X168312857Y-124888214D01*
X168255714Y-125059642D01*
X168198571Y-125116785D01*
X167798571Y-125116785D01*
X167798571Y-124888214D01*
X168312857Y-125631071D02*
X167112857Y-125631071D01*
X168312857Y-126316785D01*
X167112857Y-126316785D01*
X168312857Y-126888214D02*
X167112857Y-126888214D01*
X167112857Y-127173928D01*
X167170000Y-127345357D01*
X167284285Y-127459642D01*
X167398571Y-127516785D01*
X167627142Y-127573928D01*
X167798571Y-127573928D01*
X168027142Y-127516785D01*
X168141428Y-127459642D01*
X168255714Y-127345357D01*
X168312857Y-127173928D01*
X168312857Y-126888214D01*
D11*
X222964285Y-66572857D02*
X222964285Y-65372857D01*
X222678571Y-65372857D01*
X222507142Y-65430000D01*
X222392857Y-65544285D01*
X222335714Y-65658571D01*
X222278571Y-65887142D01*
X222278571Y-66058571D01*
X222335714Y-66287142D01*
X222392857Y-66401428D01*
X222507142Y-66515714D01*
X222678571Y-66572857D01*
X222964285Y-66572857D01*
X221307142Y-66515714D02*
X221421428Y-66572857D01*
X221650000Y-66572857D01*
X221764285Y-66515714D01*
X221821428Y-66401428D01*
X221821428Y-65944285D01*
X221764285Y-65830000D01*
X221650000Y-65772857D01*
X221421428Y-65772857D01*
X221307142Y-65830000D01*
X221250000Y-65944285D01*
X221250000Y-66058571D01*
X221821428Y-66172857D01*
X220792857Y-66515714D02*
X220678571Y-66572857D01*
X220450000Y-66572857D01*
X220335714Y-66515714D01*
X220278571Y-66401428D01*
X220278571Y-66344285D01*
X220335714Y-66230000D01*
X220450000Y-66172857D01*
X220621428Y-66172857D01*
X220735714Y-66115714D01*
X220792857Y-66001428D01*
X220792857Y-65944285D01*
X220735714Y-65830000D01*
X220621428Y-65772857D01*
X220450000Y-65772857D01*
X220335714Y-65830000D01*
X219764285Y-66572857D02*
X219764285Y-65772857D01*
X219764285Y-65372857D02*
X219821428Y-65430000D01*
X219764285Y-65487142D01*
X219707142Y-65430000D01*
X219764285Y-65372857D01*
X219764285Y-65487142D01*
X218678571Y-65772857D02*
X218678571Y-66744285D01*
X218735714Y-66858571D01*
X218792857Y-66915714D01*
X218907142Y-66972857D01*
X219078571Y-66972857D01*
X219192857Y-66915714D01*
X218678571Y-66515714D02*
X218792857Y-66572857D01*
X219021428Y-66572857D01*
X219135714Y-66515714D01*
X219192857Y-66458571D01*
X219250000Y-66344285D01*
X219250000Y-66001428D01*
X219192857Y-65887142D01*
X219135714Y-65830000D01*
X219021428Y-65772857D01*
X218792857Y-65772857D01*
X218678571Y-65830000D01*
X218107142Y-65772857D02*
X218107142Y-66572857D01*
X218107142Y-65887142D02*
X218050000Y-65830000D01*
X217935714Y-65772857D01*
X217764285Y-65772857D01*
X217650000Y-65830000D01*
X217592857Y-65944285D01*
X217592857Y-66572857D01*
X215764285Y-67030000D02*
X215821428Y-66972857D01*
X215935714Y-66801428D01*
X215992857Y-66687142D01*
X216050000Y-66515714D01*
X216107142Y-66230000D01*
X216107142Y-66001428D01*
X216050000Y-65715714D01*
X215992857Y-65544285D01*
X215935714Y-65430000D01*
X215821428Y-65258571D01*
X215764285Y-65201428D01*
X214792857Y-66515714D02*
X214907142Y-66572857D01*
X215135714Y-66572857D01*
X215250000Y-66515714D01*
X215307142Y-66458571D01*
X215364285Y-66344285D01*
X215364285Y-66001428D01*
X215307142Y-65887142D01*
X215250000Y-65830000D01*
X215135714Y-65772857D01*
X214907142Y-65772857D01*
X214792857Y-65830000D01*
X214392857Y-67030000D02*
X214335714Y-66972857D01*
X214221428Y-66801428D01*
X214164285Y-66687142D01*
X214107142Y-66515714D01*
X214050000Y-66230000D01*
X214050000Y-66001428D01*
X214107142Y-65715714D01*
X214164285Y-65544285D01*
X214221428Y-65430000D01*
X214335714Y-65258571D01*
X214392857Y-65201428D01*
X213535714Y-65487142D02*
X213478571Y-65430000D01*
X213364285Y-65372857D01*
X213078571Y-65372857D01*
X212964285Y-65430000D01*
X212907142Y-65487142D01*
X212850000Y-65601428D01*
X212850000Y-65715714D01*
X212907142Y-65887142D01*
X213592857Y-66572857D01*
X212850000Y-66572857D01*
X212107142Y-65372857D02*
X211992857Y-65372857D01*
X211878571Y-65430000D01*
X211821428Y-65487142D01*
X211764285Y-65601428D01*
X211707142Y-65830000D01*
X211707142Y-66115714D01*
X211764285Y-66344285D01*
X211821428Y-66458571D01*
X211878571Y-66515714D01*
X211992857Y-66572857D01*
X212107142Y-66572857D01*
X212221428Y-66515714D01*
X212278571Y-66458571D01*
X212335714Y-66344285D01*
X212392857Y-66115714D01*
X212392857Y-65830000D01*
X212335714Y-65601428D01*
X212278571Y-65487142D01*
X212221428Y-65430000D01*
X212107142Y-65372857D01*
X211250000Y-65487142D02*
X211192857Y-65430000D01*
X211078571Y-65372857D01*
X210792857Y-65372857D01*
X210678571Y-65430000D01*
X210621428Y-65487142D01*
X210564285Y-65601428D01*
X210564285Y-65715714D01*
X210621428Y-65887142D01*
X211307142Y-66572857D01*
X210564285Y-66572857D01*
X209421428Y-66572857D02*
X210107142Y-66572857D01*
X209764285Y-66572857D02*
X209764285Y-65372857D01*
X209878571Y-65544285D01*
X209992857Y-65658571D01*
X210107142Y-65715714D01*
X208050000Y-66515714D02*
X207878571Y-66572857D01*
X207592857Y-66572857D01*
X207478571Y-66515714D01*
X207421428Y-66458571D01*
X207364285Y-66344285D01*
X207364285Y-66230000D01*
X207421428Y-66115714D01*
X207478571Y-66058571D01*
X207592857Y-66001428D01*
X207821428Y-65944285D01*
X207935714Y-65887142D01*
X207992857Y-65830000D01*
X208050000Y-65715714D01*
X208050000Y-65601428D01*
X207992857Y-65487142D01*
X207935714Y-65430000D01*
X207821428Y-65372857D01*
X207535714Y-65372857D01*
X207364285Y-65430000D01*
X207021428Y-65772857D02*
X206564285Y-65772857D01*
X206850000Y-65372857D02*
X206850000Y-66401428D01*
X206792857Y-66515714D01*
X206678571Y-66572857D01*
X206564285Y-66572857D01*
X205650000Y-65772857D02*
X205650000Y-66572857D01*
X206164285Y-65772857D02*
X206164285Y-66401428D01*
X206107142Y-66515714D01*
X205992857Y-66572857D01*
X205821428Y-66572857D01*
X205707142Y-66515714D01*
X205650000Y-66458571D01*
X204564285Y-66572857D02*
X204564285Y-65944285D01*
X204621428Y-65830000D01*
X204735714Y-65772857D01*
X204964285Y-65772857D01*
X205078571Y-65830000D01*
X204564285Y-66515714D02*
X204678571Y-66572857D01*
X204964285Y-66572857D01*
X205078571Y-66515714D01*
X205135714Y-66401428D01*
X205135714Y-66287142D01*
X205078571Y-66172857D01*
X204964285Y-66115714D01*
X204678571Y-66115714D01*
X204564285Y-66058571D01*
X203992857Y-66572857D02*
X203992857Y-65772857D01*
X203992857Y-66001428D02*
X203935714Y-65887142D01*
X203878571Y-65830000D01*
X203764285Y-65772857D01*
X203650000Y-65772857D01*
X203421428Y-65772857D02*
X202964285Y-65772857D01*
X203250000Y-65372857D02*
X203250000Y-66401428D01*
X203192857Y-66515714D01*
X203078571Y-66572857D01*
X202964285Y-66572857D01*
X201650000Y-66572857D02*
X201650000Y-65372857D01*
X201192857Y-65372857D01*
X201078571Y-65430000D01*
X201021428Y-65487142D01*
X200964285Y-65601428D01*
X200964285Y-65772857D01*
X201021428Y-65887142D01*
X201078571Y-65944285D01*
X201192857Y-66001428D01*
X201650000Y-66001428D01*
X200450000Y-66572857D02*
X200450000Y-65772857D01*
X200450000Y-65372857D02*
X200507142Y-65430000D01*
X200450000Y-65487142D01*
X200392857Y-65430000D01*
X200450000Y-65372857D01*
X200450000Y-65487142D01*
X200050000Y-65772857D02*
X199592857Y-65772857D01*
X199878571Y-65372857D02*
X199878571Y-66401428D01*
X199821428Y-66515714D01*
X199707142Y-66572857D01*
X199592857Y-66572857D01*
X199364285Y-65772857D02*
X198907142Y-65772857D01*
X199192857Y-65372857D02*
X199192857Y-66401428D01*
X199135714Y-66515714D01*
X199021428Y-66572857D01*
X198907142Y-66572857D01*
X197992857Y-66572857D02*
X197992857Y-65944285D01*
X198050000Y-65830000D01*
X198164285Y-65772857D01*
X198392857Y-65772857D01*
X198507142Y-65830000D01*
X197992857Y-66515714D02*
X198107142Y-66572857D01*
X198392857Y-66572857D01*
X198507142Y-66515714D01*
X198564285Y-66401428D01*
X198564285Y-66287142D01*
X198507142Y-66172857D01*
X198392857Y-66115714D01*
X198107142Y-66115714D01*
X197992857Y-66058571D01*
X197535714Y-65772857D02*
X197307142Y-66572857D01*
X197078571Y-66001428D01*
X196850000Y-66572857D01*
X196621428Y-65772857D01*
X195650000Y-66572857D02*
X195650000Y-65944285D01*
X195707142Y-65830000D01*
X195821428Y-65772857D01*
X196050000Y-65772857D01*
X196164285Y-65830000D01*
X195650000Y-66515714D02*
X195764285Y-66572857D01*
X196050000Y-66572857D01*
X196164285Y-66515714D01*
X196221428Y-66401428D01*
X196221428Y-66287142D01*
X196164285Y-66172857D01*
X196050000Y-66115714D01*
X195764285Y-66115714D01*
X195650000Y-66058571D01*
X195192857Y-65772857D02*
X194907142Y-66572857D01*
X194621428Y-65772857D02*
X194907142Y-66572857D01*
X195021428Y-66858571D01*
X195078571Y-66915714D01*
X195192857Y-66972857D01*
X222821428Y-67372857D02*
X222135714Y-67372857D01*
X222478571Y-68572857D02*
X222478571Y-67372857D01*
X221735714Y-68572857D02*
X221735714Y-67372857D01*
X221221428Y-68572857D02*
X221221428Y-67944285D01*
X221278571Y-67830000D01*
X221392857Y-67772857D01*
X221564285Y-67772857D01*
X221678571Y-67830000D01*
X221735714Y-67887142D01*
X220650000Y-68572857D02*
X220650000Y-67772857D01*
X220650000Y-67372857D02*
X220707142Y-67430000D01*
X220650000Y-67487142D01*
X220592857Y-67430000D01*
X220650000Y-67372857D01*
X220650000Y-67487142D01*
X220135714Y-68515714D02*
X220021428Y-68572857D01*
X219792857Y-68572857D01*
X219678571Y-68515714D01*
X219621428Y-68401428D01*
X219621428Y-68344285D01*
X219678571Y-68230000D01*
X219792857Y-68172857D01*
X219964285Y-68172857D01*
X220078571Y-68115714D01*
X220135714Y-68001428D01*
X220135714Y-67944285D01*
X220078571Y-67830000D01*
X219964285Y-67772857D01*
X219792857Y-67772857D01*
X219678571Y-67830000D01*
X218307142Y-67772857D02*
X218078571Y-68572857D01*
X217850000Y-68001428D01*
X217621428Y-68572857D01*
X217392857Y-67772857D01*
X216764285Y-68572857D02*
X216878571Y-68515714D01*
X216935714Y-68458571D01*
X216992857Y-68344285D01*
X216992857Y-68001428D01*
X216935714Y-67887142D01*
X216878571Y-67830000D01*
X216764285Y-67772857D01*
X216592857Y-67772857D01*
X216478571Y-67830000D01*
X216421428Y-67887142D01*
X216364285Y-68001428D01*
X216364285Y-68344285D01*
X216421428Y-68458571D01*
X216478571Y-68515714D01*
X216592857Y-68572857D01*
X216764285Y-68572857D01*
X215850000Y-68572857D02*
X215850000Y-67772857D01*
X215850000Y-68001428D02*
X215792857Y-67887142D01*
X215735714Y-67830000D01*
X215621428Y-67772857D01*
X215507142Y-67772857D01*
X215107142Y-68572857D02*
X215107142Y-67372857D01*
X214992857Y-68115714D02*
X214650000Y-68572857D01*
X214650000Y-67772857D02*
X215107142Y-68230000D01*
X213221428Y-68572857D02*
X213221428Y-67772857D01*
X213221428Y-67372857D02*
X213278571Y-67430000D01*
X213221428Y-67487142D01*
X213164285Y-67430000D01*
X213221428Y-67372857D01*
X213221428Y-67487142D01*
X212707142Y-68515714D02*
X212592857Y-68572857D01*
X212364285Y-68572857D01*
X212250000Y-68515714D01*
X212192857Y-68401428D01*
X212192857Y-68344285D01*
X212250000Y-68230000D01*
X212364285Y-68172857D01*
X212535714Y-68172857D01*
X212650000Y-68115714D01*
X212707142Y-68001428D01*
X212707142Y-67944285D01*
X212650000Y-67830000D01*
X212535714Y-67772857D01*
X212364285Y-67772857D01*
X212250000Y-67830000D01*
X210592857Y-68572857D02*
X210707142Y-68515714D01*
X210764285Y-68401428D01*
X210764285Y-67372857D01*
X210135714Y-68572857D02*
X210135714Y-67772857D01*
X210135714Y-67372857D02*
X210192857Y-67430000D01*
X210135714Y-67487142D01*
X210078571Y-67430000D01*
X210135714Y-67372857D01*
X210135714Y-67487142D01*
X209050000Y-68515714D02*
X209164285Y-68572857D01*
X209392857Y-68572857D01*
X209507142Y-68515714D01*
X209564285Y-68458571D01*
X209621428Y-68344285D01*
X209621428Y-68001428D01*
X209564285Y-67887142D01*
X209507142Y-67830000D01*
X209392857Y-67772857D01*
X209164285Y-67772857D01*
X209050000Y-67830000D01*
X208078571Y-68515714D02*
X208192857Y-68572857D01*
X208421428Y-68572857D01*
X208535714Y-68515714D01*
X208592857Y-68401428D01*
X208592857Y-67944285D01*
X208535714Y-67830000D01*
X208421428Y-67772857D01*
X208192857Y-67772857D01*
X208078571Y-67830000D01*
X208021428Y-67944285D01*
X208021428Y-68058571D01*
X208592857Y-68172857D01*
X207507142Y-67772857D02*
X207507142Y-68572857D01*
X207507142Y-67887142D02*
X207450000Y-67830000D01*
X207335714Y-67772857D01*
X207164285Y-67772857D01*
X207050000Y-67830000D01*
X206992857Y-67944285D01*
X206992857Y-68572857D01*
X206478571Y-68515714D02*
X206364285Y-68572857D01*
X206135714Y-68572857D01*
X206021428Y-68515714D01*
X205964285Y-68401428D01*
X205964285Y-68344285D01*
X206021428Y-68230000D01*
X206135714Y-68172857D01*
X206307142Y-68172857D01*
X206421428Y-68115714D01*
X206478571Y-68001428D01*
X206478571Y-67944285D01*
X206421428Y-67830000D01*
X206307142Y-67772857D01*
X206135714Y-67772857D01*
X206021428Y-67830000D01*
X204992857Y-68515714D02*
X205107142Y-68572857D01*
X205335714Y-68572857D01*
X205450000Y-68515714D01*
X205507142Y-68401428D01*
X205507142Y-67944285D01*
X205450000Y-67830000D01*
X205335714Y-67772857D01*
X205107142Y-67772857D01*
X204992857Y-67830000D01*
X204935714Y-67944285D01*
X204935714Y-68058571D01*
X205507142Y-68172857D01*
X203907142Y-68572857D02*
X203907142Y-67372857D01*
X203907142Y-68515714D02*
X204021428Y-68572857D01*
X204250000Y-68572857D01*
X204364285Y-68515714D01*
X204421428Y-68458571D01*
X204478571Y-68344285D01*
X204478571Y-68001428D01*
X204421428Y-67887142D01*
X204364285Y-67830000D01*
X204250000Y-67772857D01*
X204021428Y-67772857D01*
X203907142Y-67830000D01*
X201907142Y-67772857D02*
X201907142Y-68572857D01*
X202421428Y-67772857D02*
X202421428Y-68401428D01*
X202364285Y-68515714D01*
X202250000Y-68572857D01*
X202078571Y-68572857D01*
X201964285Y-68515714D01*
X201907142Y-68458571D01*
X201335714Y-67772857D02*
X201335714Y-68572857D01*
X201335714Y-67887142D02*
X201278571Y-67830000D01*
X201164285Y-67772857D01*
X200992857Y-67772857D01*
X200878571Y-67830000D01*
X200821428Y-67944285D01*
X200821428Y-68572857D01*
X199735714Y-68572857D02*
X199735714Y-67372857D01*
X199735714Y-68515714D02*
X199850000Y-68572857D01*
X200078571Y-68572857D01*
X200192857Y-68515714D01*
X200250000Y-68458571D01*
X200307142Y-68344285D01*
X200307142Y-68001428D01*
X200250000Y-67887142D01*
X200192857Y-67830000D01*
X200078571Y-67772857D01*
X199850000Y-67772857D01*
X199735714Y-67830000D01*
X198707142Y-68515714D02*
X198821428Y-68572857D01*
X199050000Y-68572857D01*
X199164285Y-68515714D01*
X199221428Y-68401428D01*
X199221428Y-67944285D01*
X199164285Y-67830000D01*
X199050000Y-67772857D01*
X198821428Y-67772857D01*
X198707142Y-67830000D01*
X198650000Y-67944285D01*
X198650000Y-68058571D01*
X199221428Y-68172857D01*
X198135714Y-68572857D02*
X198135714Y-67772857D01*
X198135714Y-68001428D02*
X198078571Y-67887142D01*
X198021428Y-67830000D01*
X197907142Y-67772857D01*
X197792857Y-67772857D01*
X195964285Y-68572857D02*
X195964285Y-67944285D01*
X196021428Y-67830000D01*
X196135714Y-67772857D01*
X196364285Y-67772857D01*
X196478571Y-67830000D01*
X195964285Y-68515714D02*
X196078571Y-68572857D01*
X196364285Y-68572857D01*
X196478571Y-68515714D01*
X196535714Y-68401428D01*
X196535714Y-68287142D01*
X196478571Y-68172857D01*
X196364285Y-68115714D01*
X196078571Y-68115714D01*
X195964285Y-68058571D01*
X216735714Y-70458571D02*
X216792857Y-70515714D01*
X216964285Y-70572857D01*
X217078571Y-70572857D01*
X217250000Y-70515714D01*
X217364285Y-70401428D01*
X217421428Y-70287142D01*
X217478571Y-70058571D01*
X217478571Y-69887142D01*
X217421428Y-69658571D01*
X217364285Y-69544285D01*
X217250000Y-69430000D01*
X217078571Y-69372857D01*
X216964285Y-69372857D01*
X216792857Y-69430000D01*
X216735714Y-69487142D01*
X216221428Y-70572857D02*
X216221428Y-69772857D01*
X216221428Y-70001428D02*
X216164285Y-69887142D01*
X216107142Y-69830000D01*
X215992857Y-69772857D01*
X215878571Y-69772857D01*
X215021428Y-70515714D02*
X215135714Y-70572857D01*
X215364285Y-70572857D01*
X215478571Y-70515714D01*
X215535714Y-70401428D01*
X215535714Y-69944285D01*
X215478571Y-69830000D01*
X215364285Y-69772857D01*
X215135714Y-69772857D01*
X215021428Y-69830000D01*
X214964285Y-69944285D01*
X214964285Y-70058571D01*
X215535714Y-70172857D01*
X213935714Y-70572857D02*
X213935714Y-69944285D01*
X213992857Y-69830000D01*
X214107142Y-69772857D01*
X214335714Y-69772857D01*
X214450000Y-69830000D01*
X213935714Y-70515714D02*
X214050000Y-70572857D01*
X214335714Y-70572857D01*
X214450000Y-70515714D01*
X214507142Y-70401428D01*
X214507142Y-70287142D01*
X214450000Y-70172857D01*
X214335714Y-70115714D01*
X214050000Y-70115714D01*
X213935714Y-70058571D01*
X213535714Y-69772857D02*
X213078571Y-69772857D01*
X213364285Y-69372857D02*
X213364285Y-70401428D01*
X213307142Y-70515714D01*
X213192857Y-70572857D01*
X213078571Y-70572857D01*
X212678571Y-70572857D02*
X212678571Y-69772857D01*
X212678571Y-69372857D02*
X212735714Y-69430000D01*
X212678571Y-69487142D01*
X212621428Y-69430000D01*
X212678571Y-69372857D01*
X212678571Y-69487142D01*
X212221428Y-69772857D02*
X211935714Y-70572857D01*
X211650000Y-69772857D01*
X210735714Y-70515714D02*
X210850000Y-70572857D01*
X211078571Y-70572857D01*
X211192857Y-70515714D01*
X211250000Y-70401428D01*
X211250000Y-69944285D01*
X211192857Y-69830000D01*
X211078571Y-69772857D01*
X210850000Y-69772857D01*
X210735714Y-69830000D01*
X210678571Y-69944285D01*
X210678571Y-70058571D01*
X211250000Y-70172857D01*
X208564285Y-70458571D02*
X208621428Y-70515714D01*
X208792857Y-70572857D01*
X208907142Y-70572857D01*
X209078571Y-70515714D01*
X209192857Y-70401428D01*
X209250000Y-70287142D01*
X209307142Y-70058571D01*
X209307142Y-69887142D01*
X209250000Y-69658571D01*
X209192857Y-69544285D01*
X209078571Y-69430000D01*
X208907142Y-69372857D01*
X208792857Y-69372857D01*
X208621428Y-69430000D01*
X208564285Y-69487142D01*
X207878571Y-70572857D02*
X207992857Y-70515714D01*
X208050000Y-70458571D01*
X208107142Y-70344285D01*
X208107142Y-70001428D01*
X208050000Y-69887142D01*
X207992857Y-69830000D01*
X207878571Y-69772857D01*
X207707142Y-69772857D01*
X207592857Y-69830000D01*
X207535714Y-69887142D01*
X207478571Y-70001428D01*
X207478571Y-70344285D01*
X207535714Y-70458571D01*
X207592857Y-70515714D01*
X207707142Y-70572857D01*
X207878571Y-70572857D01*
X206964285Y-70572857D02*
X206964285Y-69772857D01*
X206964285Y-69887142D02*
X206907142Y-69830000D01*
X206792857Y-69772857D01*
X206621428Y-69772857D01*
X206507142Y-69830000D01*
X206450000Y-69944285D01*
X206450000Y-70572857D01*
X206450000Y-69944285D02*
X206392857Y-69830000D01*
X206278571Y-69772857D01*
X206107142Y-69772857D01*
X205992857Y-69830000D01*
X205935714Y-69944285D01*
X205935714Y-70572857D01*
X205364285Y-70572857D02*
X205364285Y-69772857D01*
X205364285Y-69887142D02*
X205307142Y-69830000D01*
X205192857Y-69772857D01*
X205021428Y-69772857D01*
X204907142Y-69830000D01*
X204850000Y-69944285D01*
X204850000Y-70572857D01*
X204850000Y-69944285D02*
X204792857Y-69830000D01*
X204678571Y-69772857D01*
X204507142Y-69772857D01*
X204392857Y-69830000D01*
X204335714Y-69944285D01*
X204335714Y-70572857D01*
X203592857Y-70572857D02*
X203707142Y-70515714D01*
X203764285Y-70458571D01*
X203821428Y-70344285D01*
X203821428Y-70001428D01*
X203764285Y-69887142D01*
X203707142Y-69830000D01*
X203592857Y-69772857D01*
X203421428Y-69772857D01*
X203307142Y-69830000D01*
X203250000Y-69887142D01*
X203192857Y-70001428D01*
X203192857Y-70344285D01*
X203250000Y-70458571D01*
X203307142Y-70515714D01*
X203421428Y-70572857D01*
X203592857Y-70572857D01*
X202678571Y-69772857D02*
X202678571Y-70572857D01*
X202678571Y-69887142D02*
X202621428Y-69830000D01*
X202507142Y-69772857D01*
X202335714Y-69772857D01*
X202221428Y-69830000D01*
X202164285Y-69944285D01*
X202164285Y-70572857D01*
X201650000Y-70515714D02*
X201535714Y-70572857D01*
X201307142Y-70572857D01*
X201192857Y-70515714D01*
X201135714Y-70401428D01*
X201135714Y-70344285D01*
X201192857Y-70230000D01*
X201307142Y-70172857D01*
X201478571Y-70172857D01*
X201592857Y-70115714D01*
X201650000Y-70001428D01*
X201650000Y-69944285D01*
X201592857Y-69830000D01*
X201478571Y-69772857D01*
X201307142Y-69772857D01*
X201192857Y-69830000D01*
X226307142Y-72230000D02*
X225735714Y-72230000D01*
X226421428Y-72572857D02*
X226021428Y-71372857D01*
X225621428Y-72572857D01*
X225392857Y-71772857D02*
X224935714Y-71772857D01*
X225221428Y-71372857D02*
X225221428Y-72401428D01*
X225164285Y-72515714D01*
X225050000Y-72572857D01*
X224935714Y-72572857D01*
X224707142Y-71772857D02*
X224250000Y-71772857D01*
X224535714Y-71372857D02*
X224535714Y-72401428D01*
X224478571Y-72515714D01*
X224364285Y-72572857D01*
X224250000Y-72572857D01*
X223850000Y-72572857D02*
X223850000Y-71772857D01*
X223850000Y-72001428D02*
X223792857Y-71887142D01*
X223735714Y-71830000D01*
X223621428Y-71772857D01*
X223507142Y-71772857D01*
X223107142Y-72572857D02*
X223107142Y-71772857D01*
X223107142Y-71372857D02*
X223164285Y-71430000D01*
X223107142Y-71487142D01*
X223050000Y-71430000D01*
X223107142Y-71372857D01*
X223107142Y-71487142D01*
X222535714Y-72572857D02*
X222535714Y-71372857D01*
X222535714Y-71830000D02*
X222421428Y-71772857D01*
X222192857Y-71772857D01*
X222078571Y-71830000D01*
X222021428Y-71887142D01*
X221964285Y-72001428D01*
X221964285Y-72344285D01*
X222021428Y-72458571D01*
X222078571Y-72515714D01*
X222192857Y-72572857D01*
X222421428Y-72572857D01*
X222535714Y-72515714D01*
X220935714Y-71772857D02*
X220935714Y-72572857D01*
X221450000Y-71772857D02*
X221450000Y-72401428D01*
X221392857Y-72515714D01*
X221278571Y-72572857D01*
X221107142Y-72572857D01*
X220992857Y-72515714D01*
X220935714Y-72458571D01*
X220535714Y-71772857D02*
X220078571Y-71772857D01*
X220364285Y-71372857D02*
X220364285Y-72401428D01*
X220307142Y-72515714D01*
X220192857Y-72572857D01*
X220078571Y-72572857D01*
X219678571Y-72572857D02*
X219678571Y-71772857D01*
X219678571Y-71372857D02*
X219735714Y-71430000D01*
X219678571Y-71487142D01*
X219621428Y-71430000D01*
X219678571Y-71372857D01*
X219678571Y-71487142D01*
X218935714Y-72572857D02*
X219050000Y-72515714D01*
X219107142Y-72458571D01*
X219164285Y-72344285D01*
X219164285Y-72001428D01*
X219107142Y-71887142D01*
X219050000Y-71830000D01*
X218935714Y-71772857D01*
X218764285Y-71772857D01*
X218650000Y-71830000D01*
X218592857Y-71887142D01*
X218535714Y-72001428D01*
X218535714Y-72344285D01*
X218592857Y-72458571D01*
X218650000Y-72515714D01*
X218764285Y-72572857D01*
X218935714Y-72572857D01*
X218021428Y-71772857D02*
X218021428Y-72572857D01*
X218021428Y-71887142D02*
X217964285Y-71830000D01*
X217850000Y-71772857D01*
X217678571Y-71772857D01*
X217564285Y-71830000D01*
X217507142Y-71944285D01*
X217507142Y-72572857D01*
X216021428Y-72572857D02*
X216021428Y-71372857D01*
X215335714Y-72572857D01*
X215335714Y-71372857D01*
X214592857Y-72572857D02*
X214707142Y-72515714D01*
X214764285Y-72458571D01*
X214821428Y-72344285D01*
X214821428Y-72001428D01*
X214764285Y-71887142D01*
X214707142Y-71830000D01*
X214592857Y-71772857D01*
X214421428Y-71772857D01*
X214307142Y-71830000D01*
X214250000Y-71887142D01*
X214192857Y-72001428D01*
X214192857Y-72344285D01*
X214250000Y-72458571D01*
X214307142Y-72515714D01*
X214421428Y-72572857D01*
X214592857Y-72572857D01*
X213678571Y-71772857D02*
X213678571Y-72572857D01*
X213678571Y-71887142D02*
X213621428Y-71830000D01*
X213507142Y-71772857D01*
X213335714Y-71772857D01*
X213221428Y-71830000D01*
X213164285Y-71944285D01*
X213164285Y-72572857D01*
X211907142Y-72458571D02*
X211964285Y-72515714D01*
X212135714Y-72572857D01*
X212250000Y-72572857D01*
X212421428Y-72515714D01*
X212535714Y-72401428D01*
X212592857Y-72287142D01*
X212650000Y-72058571D01*
X212650000Y-71887142D01*
X212592857Y-71658571D01*
X212535714Y-71544285D01*
X212421428Y-71430000D01*
X212250000Y-71372857D01*
X212135714Y-71372857D01*
X211964285Y-71430000D01*
X211907142Y-71487142D01*
X211221428Y-72572857D02*
X211335714Y-72515714D01*
X211392857Y-72458571D01*
X211450000Y-72344285D01*
X211450000Y-72001428D01*
X211392857Y-71887142D01*
X211335714Y-71830000D01*
X211221428Y-71772857D01*
X211050000Y-71772857D01*
X210935714Y-71830000D01*
X210878571Y-71887142D01*
X210821428Y-72001428D01*
X210821428Y-72344285D01*
X210878571Y-72458571D01*
X210935714Y-72515714D01*
X211050000Y-72572857D01*
X211221428Y-72572857D01*
X210307142Y-72572857D02*
X210307142Y-71772857D01*
X210307142Y-71887142D02*
X210250000Y-71830000D01*
X210135714Y-71772857D01*
X209964285Y-71772857D01*
X209850000Y-71830000D01*
X209792857Y-71944285D01*
X209792857Y-72572857D01*
X209792857Y-71944285D02*
X209735714Y-71830000D01*
X209621428Y-71772857D01*
X209450000Y-71772857D01*
X209335714Y-71830000D01*
X209278571Y-71944285D01*
X209278571Y-72572857D01*
X208707142Y-72572857D02*
X208707142Y-71772857D01*
X208707142Y-71887142D02*
X208650000Y-71830000D01*
X208535714Y-71772857D01*
X208364285Y-71772857D01*
X208250000Y-71830000D01*
X208192857Y-71944285D01*
X208192857Y-72572857D01*
X208192857Y-71944285D02*
X208135714Y-71830000D01*
X208021428Y-71772857D01*
X207850000Y-71772857D01*
X207735714Y-71830000D01*
X207678571Y-71944285D01*
X207678571Y-72572857D01*
X206649999Y-72515714D02*
X206764285Y-72572857D01*
X206992857Y-72572857D01*
X207107142Y-72515714D01*
X207164285Y-72401428D01*
X207164285Y-71944285D01*
X207107142Y-71830000D01*
X206992857Y-71772857D01*
X206764285Y-71772857D01*
X206649999Y-71830000D01*
X206592857Y-71944285D01*
X206592857Y-72058571D01*
X207164285Y-72172857D01*
X206078571Y-72572857D02*
X206078571Y-71772857D01*
X206078571Y-72001428D02*
X206021428Y-71887142D01*
X205964285Y-71830000D01*
X205849999Y-71772857D01*
X205735714Y-71772857D01*
X204821428Y-72515714D02*
X204935714Y-72572857D01*
X205164285Y-72572857D01*
X205278571Y-72515714D01*
X205335714Y-72458571D01*
X205392857Y-72344285D01*
X205392857Y-72001428D01*
X205335714Y-71887142D01*
X205278571Y-71830000D01*
X205164285Y-71772857D01*
X204935714Y-71772857D01*
X204821428Y-71830000D01*
X204307142Y-72572857D02*
X204307142Y-71772857D01*
X204307142Y-71372857D02*
X204364285Y-71430000D01*
X204307142Y-71487142D01*
X204249999Y-71430000D01*
X204307142Y-71372857D01*
X204307142Y-71487142D01*
X203221428Y-72572857D02*
X203221428Y-71944285D01*
X203278571Y-71830000D01*
X203392857Y-71772857D01*
X203621428Y-71772857D01*
X203735714Y-71830000D01*
X203221428Y-72515714D02*
X203335714Y-72572857D01*
X203621428Y-72572857D01*
X203735714Y-72515714D01*
X203792857Y-72401428D01*
X203792857Y-72287142D01*
X203735714Y-72172857D01*
X203621428Y-72115714D01*
X203335714Y-72115714D01*
X203221428Y-72058571D01*
X202478571Y-72572857D02*
X202592857Y-72515714D01*
X202649999Y-72401428D01*
X202649999Y-71372857D01*
X201164285Y-72515714D02*
X200992857Y-72572857D01*
X200707142Y-72572857D01*
X200592857Y-72515714D01*
X200535714Y-72458571D01*
X200478571Y-72344285D01*
X200478571Y-72230000D01*
X200535714Y-72115714D01*
X200592857Y-72058571D01*
X200707142Y-72001428D01*
X200935714Y-71944285D01*
X201049999Y-71887142D01*
X201107142Y-71830000D01*
X201164285Y-71715714D01*
X201164285Y-71601428D01*
X201107142Y-71487142D01*
X201049999Y-71430000D01*
X200935714Y-71372857D01*
X200649999Y-71372857D01*
X200478571Y-71430000D01*
X199964285Y-72572857D02*
X199964285Y-71372857D01*
X199449999Y-72572857D02*
X199449999Y-71944285D01*
X199507142Y-71830000D01*
X199621428Y-71772857D01*
X199792857Y-71772857D01*
X199907142Y-71830000D01*
X199964285Y-71887142D01*
X198364285Y-72572857D02*
X198364285Y-71944285D01*
X198421428Y-71830000D01*
X198535714Y-71772857D01*
X198764285Y-71772857D01*
X198878571Y-71830000D01*
X198364285Y-72515714D02*
X198478571Y-72572857D01*
X198764285Y-72572857D01*
X198878571Y-72515714D01*
X198935714Y-72401428D01*
X198935714Y-72287142D01*
X198878571Y-72172857D01*
X198764285Y-72115714D01*
X198478571Y-72115714D01*
X198364285Y-72058571D01*
X197792857Y-72572857D02*
X197792857Y-71772857D01*
X197792857Y-72001428D02*
X197735714Y-71887142D01*
X197678571Y-71830000D01*
X197564285Y-71772857D01*
X197449999Y-71772857D01*
X196592857Y-72515714D02*
X196707142Y-72572857D01*
X196935714Y-72572857D01*
X197049999Y-72515714D01*
X197107142Y-72401428D01*
X197107142Y-71944285D01*
X197049999Y-71830000D01*
X196935714Y-71772857D01*
X196707142Y-71772857D01*
X196592857Y-71830000D01*
X196535714Y-71944285D01*
X196535714Y-72058571D01*
X197107142Y-72172857D01*
X196078571Y-72230000D02*
X195507142Y-72230000D01*
X196192857Y-72572857D02*
X195792857Y-71372857D01*
X195392857Y-72572857D01*
X194821428Y-72572857D02*
X194935714Y-72515714D01*
X194992857Y-72401428D01*
X194992857Y-71372857D01*
X194364285Y-72572857D02*
X194364285Y-71772857D01*
X194364285Y-71372857D02*
X194421428Y-71430000D01*
X194364285Y-71487142D01*
X194307142Y-71430000D01*
X194364285Y-71372857D01*
X194364285Y-71487142D01*
X193792857Y-72572857D02*
X193792857Y-71372857D01*
X193678571Y-72115714D02*
X193335714Y-72572857D01*
X193335714Y-71772857D02*
X193792857Y-72230000D01*
X192364285Y-72515714D02*
X192478571Y-72572857D01*
X192707142Y-72572857D01*
X192821428Y-72515714D01*
X192878571Y-72401428D01*
X192878571Y-71944285D01*
X192821428Y-71830000D01*
X192707142Y-71772857D01*
X192478571Y-71772857D01*
X192364285Y-71830000D01*
X192307142Y-71944285D01*
X192307142Y-72058571D01*
X192878571Y-72172857D01*
X224335714Y-73487142D02*
X224278571Y-73430000D01*
X224164285Y-73372857D01*
X223878571Y-73372857D01*
X223764285Y-73430000D01*
X223707142Y-73487142D01*
X223650000Y-73601428D01*
X223650000Y-73715714D01*
X223707142Y-73887142D01*
X224392857Y-74572857D01*
X223650000Y-74572857D01*
X223135714Y-74458571D02*
X223078571Y-74515714D01*
X223135714Y-74572857D01*
X223192857Y-74515714D01*
X223135714Y-74458571D01*
X223135714Y-74572857D01*
X222335714Y-73372857D02*
X222221428Y-73372857D01*
X222107142Y-73430000D01*
X222050000Y-73487142D01*
X221992857Y-73601428D01*
X221935714Y-73830000D01*
X221935714Y-74115714D01*
X221992857Y-74344285D01*
X222050000Y-74458571D01*
X222107142Y-74515714D01*
X222221428Y-74572857D01*
X222335714Y-74572857D01*
X222450000Y-74515714D01*
X222507142Y-74458571D01*
X222564285Y-74344285D01*
X222621428Y-74115714D01*
X222621428Y-73830000D01*
X222564285Y-73601428D01*
X222507142Y-73487142D01*
X222450000Y-73430000D01*
X222335714Y-73372857D01*
X220507142Y-73372857D02*
X220507142Y-74344285D01*
X220450000Y-74458571D01*
X220392857Y-74515714D01*
X220278571Y-74572857D01*
X220050000Y-74572857D01*
X219935714Y-74515714D01*
X219878571Y-74458571D01*
X219821428Y-74344285D01*
X219821428Y-73372857D01*
X219250000Y-74572857D02*
X219250000Y-73372857D01*
X218564285Y-74572857D02*
X219078571Y-73887142D01*
X218564285Y-73372857D02*
X219250000Y-74058571D01*
X218050000Y-74458571D02*
X217992857Y-74515714D01*
X218050000Y-74572857D01*
X218107142Y-74515714D01*
X218050000Y-74458571D01*
X218050000Y-74572857D01*
X218050000Y-73830000D02*
X217992857Y-73887142D01*
X218050000Y-73944285D01*
X218107142Y-73887142D01*
X218050000Y-73830000D01*
X218050000Y-73944285D01*
X216564285Y-73944285D02*
X216164285Y-73944285D01*
X215992857Y-74572857D02*
X216564285Y-74572857D01*
X216564285Y-73372857D01*
X215992857Y-73372857D01*
X215478571Y-73772857D02*
X215478571Y-74572857D01*
X215478571Y-73887142D02*
X215421428Y-73830000D01*
X215307142Y-73772857D01*
X215135714Y-73772857D01*
X215021428Y-73830000D01*
X214964285Y-73944285D01*
X214964285Y-74572857D01*
X213878571Y-73772857D02*
X213878571Y-74744285D01*
X213935714Y-74858571D01*
X213992857Y-74915714D01*
X214107142Y-74972857D01*
X214278571Y-74972857D01*
X214392857Y-74915714D01*
X213878571Y-74515714D02*
X213992857Y-74572857D01*
X214221428Y-74572857D01*
X214335714Y-74515714D01*
X214392857Y-74458571D01*
X214450000Y-74344285D01*
X214450000Y-74001428D01*
X214392857Y-73887142D01*
X214335714Y-73830000D01*
X214221428Y-73772857D01*
X213992857Y-73772857D01*
X213878571Y-73830000D01*
X213135714Y-74572857D02*
X213250000Y-74515714D01*
X213307142Y-74401428D01*
X213307142Y-73372857D01*
X212164285Y-74572857D02*
X212164285Y-73944285D01*
X212221428Y-73830000D01*
X212335714Y-73772857D01*
X212564285Y-73772857D01*
X212678571Y-73830000D01*
X212164285Y-74515714D02*
X212278571Y-74572857D01*
X212564285Y-74572857D01*
X212678571Y-74515714D01*
X212735714Y-74401428D01*
X212735714Y-74287142D01*
X212678571Y-74172857D01*
X212564285Y-74115714D01*
X212278571Y-74115714D01*
X212164285Y-74058571D01*
X211592857Y-73772857D02*
X211592857Y-74572857D01*
X211592857Y-73887142D02*
X211535714Y-73830000D01*
X211421428Y-73772857D01*
X211250000Y-73772857D01*
X211135714Y-73830000D01*
X211078571Y-73944285D01*
X211078571Y-74572857D01*
X209992857Y-74572857D02*
X209992857Y-73372857D01*
X209992857Y-74515714D02*
X210107142Y-74572857D01*
X210335714Y-74572857D01*
X210450000Y-74515714D01*
X210507142Y-74458571D01*
X210564285Y-74344285D01*
X210564285Y-74001428D01*
X210507142Y-73887142D01*
X210450000Y-73830000D01*
X210335714Y-73772857D01*
X210107142Y-73772857D01*
X209992857Y-73830000D01*
X207535714Y-74572857D02*
X207592857Y-74572857D01*
X207707142Y-74515714D01*
X207878571Y-74344285D01*
X208164285Y-74001428D01*
X208278571Y-73830000D01*
X208335714Y-73658571D01*
X208335714Y-73544285D01*
X208278571Y-73430000D01*
X208164285Y-73372857D01*
X208107142Y-73372857D01*
X207992857Y-73430000D01*
X207935714Y-73544285D01*
X207935714Y-73601428D01*
X207992857Y-73715714D01*
X208049999Y-73772857D01*
X208392857Y-74001428D01*
X208449999Y-74058571D01*
X208507142Y-74172857D01*
X208507142Y-74344285D01*
X208449999Y-74458571D01*
X208392857Y-74515714D01*
X208278571Y-74572857D01*
X208107142Y-74572857D01*
X207992857Y-74515714D01*
X207935714Y-74458571D01*
X207764285Y-74230000D01*
X207707142Y-74058571D01*
X207707142Y-73944285D01*
X206221428Y-73372857D02*
X205935714Y-74572857D01*
X205707142Y-73715714D01*
X205478571Y-74572857D01*
X205192857Y-73372857D01*
X204221428Y-74572857D02*
X204221428Y-73944285D01*
X204278571Y-73830000D01*
X204392857Y-73772857D01*
X204621428Y-73772857D01*
X204735714Y-73830000D01*
X204221428Y-74515714D02*
X204335714Y-74572857D01*
X204621428Y-74572857D01*
X204735714Y-74515714D01*
X204792857Y-74401428D01*
X204792857Y-74287142D01*
X204735714Y-74172857D01*
X204621428Y-74115714D01*
X204335714Y-74115714D01*
X204221428Y-74058571D01*
X203478571Y-74572857D02*
X203592857Y-74515714D01*
X203650000Y-74401428D01*
X203650000Y-73372857D01*
X202564285Y-74515714D02*
X202678571Y-74572857D01*
X202907142Y-74572857D01*
X203021428Y-74515714D01*
X203078571Y-74401428D01*
X203078571Y-73944285D01*
X203021428Y-73830000D01*
X202907142Y-73772857D01*
X202678571Y-73772857D01*
X202564285Y-73830000D01*
X202507142Y-73944285D01*
X202507142Y-74058571D01*
X203078571Y-74172857D01*
X202049999Y-74515714D02*
X201935714Y-74572857D01*
X201707142Y-74572857D01*
X201592857Y-74515714D01*
X201535714Y-74401428D01*
X201535714Y-74344285D01*
X201592857Y-74230000D01*
X201707142Y-74172857D01*
X201878571Y-74172857D01*
X201992857Y-74115714D01*
X202049999Y-74001428D01*
X202049999Y-73944285D01*
X201992857Y-73830000D01*
X201878571Y-73772857D01*
X201707142Y-73772857D01*
X201592857Y-73830000D01*
X199535714Y-74572857D02*
X200107142Y-74572857D01*
X200107142Y-73372857D01*
X199135714Y-74572857D02*
X199135714Y-73772857D01*
X199135714Y-73372857D02*
X199192857Y-73430000D01*
X199135714Y-73487142D01*
X199078571Y-73430000D01*
X199135714Y-73372857D01*
X199135714Y-73487142D01*
X198049999Y-74515714D02*
X198164285Y-74572857D01*
X198392857Y-74572857D01*
X198507142Y-74515714D01*
X198564285Y-74458571D01*
X198621428Y-74344285D01*
X198621428Y-74001428D01*
X198564285Y-73887142D01*
X198507142Y-73830000D01*
X198392857Y-73772857D01*
X198164285Y-73772857D01*
X198049999Y-73830000D01*
X197078571Y-74515714D02*
X197192857Y-74572857D01*
X197421428Y-74572857D01*
X197535714Y-74515714D01*
X197592857Y-74401428D01*
X197592857Y-73944285D01*
X197535714Y-73830000D01*
X197421428Y-73772857D01*
X197192857Y-73772857D01*
X197078571Y-73830000D01*
X197021428Y-73944285D01*
X197021428Y-74058571D01*
X197592857Y-74172857D01*
X196507142Y-73772857D02*
X196507142Y-74572857D01*
X196507142Y-73887142D02*
X196449999Y-73830000D01*
X196335714Y-73772857D01*
X196164285Y-73772857D01*
X196049999Y-73830000D01*
X195992857Y-73944285D01*
X195992857Y-74572857D01*
X195478571Y-74515714D02*
X195364285Y-74572857D01*
X195135714Y-74572857D01*
X195021428Y-74515714D01*
X194964285Y-74401428D01*
X194964285Y-74344285D01*
X195021428Y-74230000D01*
X195135714Y-74172857D01*
X195307142Y-74172857D01*
X195421428Y-74115714D01*
X195478571Y-74001428D01*
X195478571Y-73944285D01*
X195421428Y-73830000D01*
X195307142Y-73772857D01*
X195135714Y-73772857D01*
X195021428Y-73830000D01*
X193992857Y-74515714D02*
X194107142Y-74572857D01*
X194335714Y-74572857D01*
X194449999Y-74515714D01*
X194507142Y-74401428D01*
X194507142Y-73944285D01*
X194449999Y-73830000D01*
X194335714Y-73772857D01*
X194107142Y-73772857D01*
X193992857Y-73830000D01*
X193935714Y-73944285D01*
X193935714Y-74058571D01*
X194507142Y-74172857D01*
X193421428Y-74458571D02*
X193364285Y-74515714D01*
X193421428Y-74572857D01*
X193478571Y-74515714D01*
X193421428Y-74458571D01*
X193421428Y-74572857D01*
X177644285Y-65372857D02*
X176958571Y-65372857D01*
X177301428Y-66572857D02*
X177301428Y-65372857D01*
X176558571Y-66572857D02*
X176558571Y-65372857D01*
X176044285Y-66572857D02*
X176044285Y-65944285D01*
X176101428Y-65830000D01*
X176215714Y-65772857D01*
X176387142Y-65772857D01*
X176501428Y-65830000D01*
X176558571Y-65887142D01*
X175015714Y-66515714D02*
X175130000Y-66572857D01*
X175358571Y-66572857D01*
X175472857Y-66515714D01*
X175530000Y-66401428D01*
X175530000Y-65944285D01*
X175472857Y-65830000D01*
X175358571Y-65772857D01*
X175130000Y-65772857D01*
X175015714Y-65830000D01*
X174958571Y-65944285D01*
X174958571Y-66058571D01*
X175530000Y-66172857D01*
X173530000Y-66572857D02*
X173530000Y-65372857D01*
X172958571Y-66572857D02*
X172958571Y-65372857D01*
X172272857Y-66572857D01*
X172272857Y-65372857D01*
X171758571Y-66230000D02*
X171187142Y-66230000D01*
X171872857Y-66572857D02*
X171472857Y-65372857D01*
X171072857Y-66572857D01*
X170730000Y-65487142D02*
X170672857Y-65430000D01*
X170558571Y-65372857D01*
X170272857Y-65372857D01*
X170158571Y-65430000D01*
X170101428Y-65487142D01*
X170044285Y-65601428D01*
X170044285Y-65715714D01*
X170101428Y-65887142D01*
X170787142Y-66572857D01*
X170044285Y-66572857D01*
X169587142Y-65487142D02*
X169530000Y-65430000D01*
X169415714Y-65372857D01*
X169130000Y-65372857D01*
X169015714Y-65430000D01*
X168958571Y-65487142D01*
X168901428Y-65601428D01*
X168901428Y-65715714D01*
X168958571Y-65887142D01*
X169644285Y-66572857D01*
X168901428Y-66572857D01*
X168215714Y-65887142D02*
X168330000Y-65830000D01*
X168387142Y-65772857D01*
X168444285Y-65658571D01*
X168444285Y-65601428D01*
X168387142Y-65487142D01*
X168330000Y-65430000D01*
X168215714Y-65372857D01*
X167987142Y-65372857D01*
X167872857Y-65430000D01*
X167815714Y-65487142D01*
X167758571Y-65601428D01*
X167758571Y-65658571D01*
X167815714Y-65772857D01*
X167872857Y-65830000D01*
X167987142Y-65887142D01*
X168215714Y-65887142D01*
X168330000Y-65944285D01*
X168387142Y-66001428D01*
X168444285Y-66115714D01*
X168444285Y-66344285D01*
X168387142Y-66458571D01*
X168330000Y-66515714D01*
X168215714Y-66572857D01*
X167987142Y-66572857D01*
X167872857Y-66515714D01*
X167815714Y-66458571D01*
X167758571Y-66344285D01*
X167758571Y-66115714D01*
X167815714Y-66001428D01*
X167872857Y-65944285D01*
X167987142Y-65887142D01*
X167244285Y-66115714D02*
X166330000Y-66115714D01*
X164958571Y-66687142D02*
X165072857Y-66630000D01*
X165187142Y-66515714D01*
X165358571Y-66344285D01*
X165472857Y-66287142D01*
X165587142Y-66287142D01*
X165530000Y-66572857D02*
X165644285Y-66515714D01*
X165758571Y-66401428D01*
X165815714Y-66172857D01*
X165815714Y-65772857D01*
X165758571Y-65544285D01*
X165644285Y-65430000D01*
X165530000Y-65372857D01*
X165301428Y-65372857D01*
X165187142Y-65430000D01*
X165072857Y-65544285D01*
X165015714Y-65772857D01*
X165015714Y-66172857D01*
X165072857Y-66401428D01*
X165187142Y-66515714D01*
X165301428Y-66572857D01*
X165530000Y-66572857D01*
X163872857Y-66572857D02*
X164558571Y-66572857D01*
X164215714Y-66572857D02*
X164215714Y-65372857D01*
X164330000Y-65544285D01*
X164444285Y-65658571D01*
X164558571Y-65715714D01*
X162444285Y-66572857D02*
X162444285Y-65772857D01*
X162444285Y-65372857D02*
X162501428Y-65430000D01*
X162444285Y-65487142D01*
X162387142Y-65430000D01*
X162444285Y-65372857D01*
X162444285Y-65487142D01*
X161930000Y-66515714D02*
X161815714Y-66572857D01*
X161587142Y-66572857D01*
X161472857Y-66515714D01*
X161415714Y-66401428D01*
X161415714Y-66344285D01*
X161472857Y-66230000D01*
X161587142Y-66172857D01*
X161758571Y-66172857D01*
X161872857Y-66115714D01*
X161930000Y-66001428D01*
X161930000Y-65944285D01*
X161872857Y-65830000D01*
X161758571Y-65772857D01*
X161587142Y-65772857D01*
X161472857Y-65830000D01*
X159472857Y-66572857D02*
X159472857Y-65944285D01*
X159530000Y-65830000D01*
X159644285Y-65772857D01*
X159872857Y-65772857D01*
X159987142Y-65830000D01*
X159472857Y-66515714D02*
X159587142Y-66572857D01*
X159872857Y-66572857D01*
X159987142Y-66515714D01*
X160044285Y-66401428D01*
X160044285Y-66287142D01*
X159987142Y-66172857D01*
X159872857Y-66115714D01*
X159587142Y-66115714D01*
X159472857Y-66058571D01*
X158901428Y-65772857D02*
X158901428Y-66572857D01*
X158901428Y-65887142D02*
X158844285Y-65830000D01*
X158730000Y-65772857D01*
X158558571Y-65772857D01*
X158444285Y-65830000D01*
X158387142Y-65944285D01*
X158387142Y-66572857D01*
X156387142Y-65772857D02*
X156387142Y-66572857D01*
X156901428Y-65772857D02*
X156901428Y-66401428D01*
X156844285Y-66515714D01*
X156730000Y-66572857D01*
X156558571Y-66572857D01*
X156444285Y-66515714D01*
X156387142Y-66458571D01*
X155644285Y-66572857D02*
X155758571Y-66515714D01*
X155815714Y-66401428D01*
X155815714Y-65372857D01*
X155358571Y-65772857D02*
X154901428Y-65772857D01*
X155187142Y-65372857D02*
X155187142Y-66401428D01*
X155130000Y-66515714D01*
X155015714Y-66572857D01*
X154901428Y-66572857D01*
X154501428Y-66572857D02*
X154501428Y-65772857D01*
X154501428Y-66001428D02*
X154444285Y-65887142D01*
X154387142Y-65830000D01*
X154272857Y-65772857D01*
X154158571Y-65772857D01*
X153244285Y-66572857D02*
X153244285Y-65944285D01*
X153301428Y-65830000D01*
X153415714Y-65772857D01*
X153644285Y-65772857D01*
X153758571Y-65830000D01*
X153244285Y-66515714D02*
X153358571Y-66572857D01*
X153644285Y-66572857D01*
X153758571Y-66515714D01*
X153815714Y-66401428D01*
X153815714Y-66287142D01*
X153758571Y-66172857D01*
X153644285Y-66115714D01*
X153358571Y-66115714D01*
X153244285Y-66058571D01*
X152672857Y-66115714D02*
X151758571Y-66115714D01*
X151187142Y-65772857D02*
X151187142Y-66972857D01*
X151187142Y-65830000D02*
X151072857Y-65772857D01*
X150844285Y-65772857D01*
X150730000Y-65830000D01*
X150672857Y-65887142D01*
X150615714Y-66001428D01*
X150615714Y-66344285D01*
X150672857Y-66458571D01*
X150730000Y-66515714D01*
X150844285Y-66572857D01*
X151072857Y-66572857D01*
X151187142Y-66515714D01*
X150101428Y-66572857D02*
X150101428Y-65772857D01*
X150101428Y-66001428D02*
X150044285Y-65887142D01*
X149987142Y-65830000D01*
X149872857Y-65772857D01*
X149758571Y-65772857D01*
X148901428Y-66515714D02*
X149015714Y-66572857D01*
X149244285Y-66572857D01*
X149358571Y-66515714D01*
X149415714Y-66401428D01*
X149415714Y-65944285D01*
X149358571Y-65830000D01*
X149244285Y-65772857D01*
X149015714Y-65772857D01*
X148901428Y-65830000D01*
X148844285Y-65944285D01*
X148844285Y-66058571D01*
X149415714Y-66172857D01*
X147815714Y-66515714D02*
X147930000Y-66572857D01*
X148158571Y-66572857D01*
X148272857Y-66515714D01*
X148330000Y-66458571D01*
X148387142Y-66344285D01*
X148387142Y-66001428D01*
X148330000Y-65887142D01*
X148272857Y-65830000D01*
X148158571Y-65772857D01*
X147930000Y-65772857D01*
X147815714Y-65830000D01*
X147301428Y-66572857D02*
X147301428Y-65772857D01*
X147301428Y-65372857D02*
X147358571Y-65430000D01*
X147301428Y-65487142D01*
X147244285Y-65430000D01*
X147301428Y-65372857D01*
X147301428Y-65487142D01*
X146787142Y-66515714D02*
X146672857Y-66572857D01*
X146444285Y-66572857D01*
X146330000Y-66515714D01*
X146272857Y-66401428D01*
X146272857Y-66344285D01*
X146330000Y-66230000D01*
X146444285Y-66172857D01*
X146615714Y-66172857D01*
X146730000Y-66115714D01*
X146787142Y-66001428D01*
X146787142Y-65944285D01*
X146730000Y-65830000D01*
X146615714Y-65772857D01*
X146444285Y-65772857D01*
X146330000Y-65830000D01*
X145301428Y-66515714D02*
X145415714Y-66572857D01*
X145644285Y-66572857D01*
X145758571Y-66515714D01*
X145815714Y-66401428D01*
X145815714Y-65944285D01*
X145758571Y-65830000D01*
X145644285Y-65772857D01*
X145415714Y-65772857D01*
X145301428Y-65830000D01*
X145244285Y-65944285D01*
X145244285Y-66058571D01*
X145815714Y-66172857D01*
X176158571Y-68572857D02*
X176158571Y-67372857D01*
X176158571Y-68515714D02*
X176272857Y-68572857D01*
X176501428Y-68572857D01*
X176615714Y-68515714D01*
X176672857Y-68458571D01*
X176730000Y-68344285D01*
X176730000Y-68001428D01*
X176672857Y-67887142D01*
X176615714Y-67830000D01*
X176501428Y-67772857D01*
X176272857Y-67772857D01*
X176158571Y-67830000D01*
X175587142Y-68572857D02*
X175587142Y-67772857D01*
X175587142Y-67372857D02*
X175644285Y-67430000D01*
X175587142Y-67487142D01*
X175530000Y-67430000D01*
X175587142Y-67372857D01*
X175587142Y-67487142D01*
X174501428Y-67772857D02*
X174501428Y-68744285D01*
X174558571Y-68858571D01*
X174615714Y-68915714D01*
X174730000Y-68972857D01*
X174901428Y-68972857D01*
X175015714Y-68915714D01*
X174501428Y-68515714D02*
X174615714Y-68572857D01*
X174844285Y-68572857D01*
X174958571Y-68515714D01*
X175015714Y-68458571D01*
X175072857Y-68344285D01*
X175072857Y-68001428D01*
X175015714Y-67887142D01*
X174958571Y-67830000D01*
X174844285Y-67772857D01*
X174615714Y-67772857D01*
X174501428Y-67830000D01*
X173930000Y-68572857D02*
X173930000Y-67772857D01*
X173930000Y-67372857D02*
X173987142Y-67430000D01*
X173930000Y-67487142D01*
X173872857Y-67430000D01*
X173930000Y-67372857D01*
X173930000Y-67487142D01*
X173530000Y-67772857D02*
X173072857Y-67772857D01*
X173358571Y-67372857D02*
X173358571Y-68401428D01*
X173301428Y-68515714D01*
X173187142Y-68572857D01*
X173072857Y-68572857D01*
X172158571Y-68572857D02*
X172158571Y-67944285D01*
X172215714Y-67830000D01*
X172330000Y-67772857D01*
X172558571Y-67772857D01*
X172672857Y-67830000D01*
X172158571Y-68515714D02*
X172272857Y-68572857D01*
X172558571Y-68572857D01*
X172672857Y-68515714D01*
X172730000Y-68401428D01*
X172730000Y-68287142D01*
X172672857Y-68172857D01*
X172558571Y-68115714D01*
X172272857Y-68115714D01*
X172158571Y-68058571D01*
X171415714Y-68572857D02*
X171530000Y-68515714D01*
X171587142Y-68401428D01*
X171587142Y-67372857D01*
X170044285Y-67772857D02*
X170044285Y-68972857D01*
X170044285Y-67830000D02*
X169930000Y-67772857D01*
X169701428Y-67772857D01*
X169587142Y-67830000D01*
X169530000Y-67887142D01*
X169472857Y-68001428D01*
X169472857Y-68344285D01*
X169530000Y-68458571D01*
X169587142Y-68515714D01*
X169701428Y-68572857D01*
X169930000Y-68572857D01*
X170044285Y-68515714D01*
X168787142Y-68572857D02*
X168901428Y-68515714D01*
X168958571Y-68458571D01*
X169015714Y-68344285D01*
X169015714Y-68001428D01*
X168958571Y-67887142D01*
X168901428Y-67830000D01*
X168787142Y-67772857D01*
X168615714Y-67772857D01*
X168501428Y-67830000D01*
X168444285Y-67887142D01*
X168387142Y-68001428D01*
X168387142Y-68344285D01*
X168444285Y-68458571D01*
X168501428Y-68515714D01*
X168615714Y-68572857D01*
X168787142Y-68572857D01*
X167987142Y-67772857D02*
X167758571Y-68572857D01*
X167530000Y-68001428D01*
X167301428Y-68572857D01*
X167072857Y-67772857D01*
X166158571Y-68515714D02*
X166272857Y-68572857D01*
X166501428Y-68572857D01*
X166615714Y-68515714D01*
X166672857Y-68401428D01*
X166672857Y-67944285D01*
X166615714Y-67830000D01*
X166501428Y-67772857D01*
X166272857Y-67772857D01*
X166158571Y-67830000D01*
X166101428Y-67944285D01*
X166101428Y-68058571D01*
X166672857Y-68172857D01*
X165587142Y-68572857D02*
X165587142Y-67772857D01*
X165587142Y-68001428D02*
X165530000Y-67887142D01*
X165472857Y-67830000D01*
X165358571Y-67772857D01*
X165244285Y-67772857D01*
X163930000Y-68572857D02*
X163930000Y-67772857D01*
X163930000Y-67887142D02*
X163872857Y-67830000D01*
X163758571Y-67772857D01*
X163587142Y-67772857D01*
X163472857Y-67830000D01*
X163415714Y-67944285D01*
X163415714Y-68572857D01*
X163415714Y-67944285D02*
X163358571Y-67830000D01*
X163244285Y-67772857D01*
X163072857Y-67772857D01*
X162958571Y-67830000D01*
X162901428Y-67944285D01*
X162901428Y-68572857D01*
X162158571Y-68572857D02*
X162272857Y-68515714D01*
X162330000Y-68458571D01*
X162387142Y-68344285D01*
X162387142Y-68001428D01*
X162330000Y-67887142D01*
X162272857Y-67830000D01*
X162158571Y-67772857D01*
X161987142Y-67772857D01*
X161872857Y-67830000D01*
X161815714Y-67887142D01*
X161758571Y-68001428D01*
X161758571Y-68344285D01*
X161815714Y-68458571D01*
X161872857Y-68515714D01*
X161987142Y-68572857D01*
X162158571Y-68572857D01*
X161244285Y-67772857D02*
X161244285Y-68572857D01*
X161244285Y-67887142D02*
X161187142Y-67830000D01*
X161072857Y-67772857D01*
X160901428Y-67772857D01*
X160787142Y-67830000D01*
X160730000Y-67944285D01*
X160730000Y-68572857D01*
X160158571Y-68572857D02*
X160158571Y-67772857D01*
X160158571Y-67372857D02*
X160215714Y-67430000D01*
X160158571Y-67487142D01*
X160101428Y-67430000D01*
X160158571Y-67372857D01*
X160158571Y-67487142D01*
X159758571Y-67772857D02*
X159301428Y-67772857D01*
X159587142Y-67372857D02*
X159587142Y-68401428D01*
X159530000Y-68515714D01*
X159415714Y-68572857D01*
X159301428Y-68572857D01*
X158730000Y-68572857D02*
X158844285Y-68515714D01*
X158901428Y-68458571D01*
X158958571Y-68344285D01*
X158958571Y-68001428D01*
X158901428Y-67887142D01*
X158844285Y-67830000D01*
X158730000Y-67772857D01*
X158558571Y-67772857D01*
X158444285Y-67830000D01*
X158387142Y-67887142D01*
X158330000Y-68001428D01*
X158330000Y-68344285D01*
X158387142Y-68458571D01*
X158444285Y-68515714D01*
X158558571Y-68572857D01*
X158730000Y-68572857D01*
X157815714Y-68572857D02*
X157815714Y-67772857D01*
X157815714Y-68001428D02*
X157758571Y-67887142D01*
X157701428Y-67830000D01*
X157587142Y-67772857D01*
X157472857Y-67772857D01*
X156272857Y-67772857D02*
X156044285Y-68572857D01*
X155815714Y-68001428D01*
X155587142Y-68572857D01*
X155358571Y-67772857D01*
X154901428Y-68572857D02*
X154901428Y-67772857D01*
X154901428Y-67372857D02*
X154958571Y-67430000D01*
X154901428Y-67487142D01*
X154844285Y-67430000D01*
X154901428Y-67372857D01*
X154901428Y-67487142D01*
X154501428Y-67772857D02*
X154044285Y-67772857D01*
X154330000Y-67372857D02*
X154330000Y-68401428D01*
X154272857Y-68515714D01*
X154158571Y-68572857D01*
X154044285Y-68572857D01*
X153644285Y-68572857D02*
X153644285Y-67372857D01*
X153130000Y-68572857D02*
X153130000Y-67944285D01*
X153187142Y-67830000D01*
X153301428Y-67772857D01*
X153472857Y-67772857D01*
X153587142Y-67830000D01*
X153644285Y-67887142D01*
X151701428Y-67487142D02*
X151644285Y-67430000D01*
X151530000Y-67372857D01*
X151244285Y-67372857D01*
X151130000Y-67430000D01*
X151072857Y-67487142D01*
X151015714Y-67601428D01*
X151015714Y-67715714D01*
X151072857Y-67887142D01*
X151758571Y-68572857D01*
X151015714Y-68572857D01*
X150272857Y-67372857D02*
X150158571Y-67372857D01*
X150044285Y-67430000D01*
X149987142Y-67487142D01*
X149930000Y-67601428D01*
X149872857Y-67830000D01*
X149872857Y-68115714D01*
X149930000Y-68344285D01*
X149987142Y-68458571D01*
X150044285Y-68515714D01*
X150158571Y-68572857D01*
X150272857Y-68572857D01*
X150387142Y-68515714D01*
X150444285Y-68458571D01*
X150501428Y-68344285D01*
X150558571Y-68115714D01*
X150558571Y-67830000D01*
X150501428Y-67601428D01*
X150444285Y-67487142D01*
X150387142Y-67430000D01*
X150272857Y-67372857D01*
X149358571Y-68115714D02*
X148444285Y-68115714D01*
X147872857Y-68572857D02*
X147872857Y-67372857D01*
X147872857Y-67830000D02*
X147758571Y-67772857D01*
X147530000Y-67772857D01*
X147415714Y-67830000D01*
X147358571Y-67887142D01*
X147301428Y-68001428D01*
X147301428Y-68344285D01*
X147358571Y-68458571D01*
X147415714Y-68515714D01*
X147530000Y-68572857D01*
X147758571Y-68572857D01*
X147872857Y-68515714D01*
X146787142Y-68572857D02*
X146787142Y-67772857D01*
X146787142Y-67372857D02*
X146844285Y-67430000D01*
X146787142Y-67487142D01*
X146730000Y-67430000D01*
X146787142Y-67372857D01*
X146787142Y-67487142D01*
X146387142Y-67772857D02*
X145930000Y-67772857D01*
X146215714Y-67372857D02*
X146215714Y-68401428D01*
X146158571Y-68515714D01*
X146044285Y-68572857D01*
X145930000Y-68572857D01*
X173530000Y-70572857D02*
X173530000Y-69372857D01*
X173530000Y-70515714D02*
X173644285Y-70572857D01*
X173872857Y-70572857D01*
X173987142Y-70515714D01*
X174044285Y-70458571D01*
X174101428Y-70344285D01*
X174101428Y-70001428D01*
X174044285Y-69887142D01*
X173987142Y-69830000D01*
X173872857Y-69772857D01*
X173644285Y-69772857D01*
X173530000Y-69830000D01*
X172501428Y-70515714D02*
X172615714Y-70572857D01*
X172844285Y-70572857D01*
X172958571Y-70515714D01*
X173015714Y-70401428D01*
X173015714Y-69944285D01*
X172958571Y-69830000D01*
X172844285Y-69772857D01*
X172615714Y-69772857D01*
X172501428Y-69830000D01*
X172444285Y-69944285D01*
X172444285Y-70058571D01*
X173015714Y-70172857D01*
X171758571Y-70572857D02*
X171872857Y-70515714D01*
X171930000Y-70401428D01*
X171930000Y-69372857D01*
X171472857Y-69772857D02*
X171015714Y-69772857D01*
X171301428Y-69372857D02*
X171301428Y-70401428D01*
X171244285Y-70515714D01*
X171130000Y-70572857D01*
X171015714Y-70572857D01*
X170101428Y-70572857D02*
X170101428Y-69944285D01*
X170158571Y-69830000D01*
X170272857Y-69772857D01*
X170501428Y-69772857D01*
X170615714Y-69830000D01*
X170101428Y-70515714D02*
X170215714Y-70572857D01*
X170501428Y-70572857D01*
X170615714Y-70515714D01*
X170672857Y-70401428D01*
X170672857Y-70287142D01*
X170615714Y-70172857D01*
X170501428Y-70115714D01*
X170215714Y-70115714D01*
X170101428Y-70058571D01*
X169530000Y-70115714D02*
X168615714Y-70115714D01*
X168101428Y-70515714D02*
X167987142Y-70572857D01*
X167758571Y-70572857D01*
X167644285Y-70515714D01*
X167587142Y-70401428D01*
X167587142Y-70344285D01*
X167644285Y-70230000D01*
X167758571Y-70172857D01*
X167930000Y-70172857D01*
X168044285Y-70115714D01*
X168101428Y-70001428D01*
X168101428Y-69944285D01*
X168044285Y-69830000D01*
X167930000Y-69772857D01*
X167758571Y-69772857D01*
X167644285Y-69830000D01*
X167072857Y-70572857D02*
X167072857Y-69772857D01*
X167072857Y-69372857D02*
X167130000Y-69430000D01*
X167072857Y-69487142D01*
X167015714Y-69430000D01*
X167072857Y-69372857D01*
X167072857Y-69487142D01*
X165987142Y-69772857D02*
X165987142Y-70744285D01*
X166044285Y-70858571D01*
X166101428Y-70915714D01*
X166215714Y-70972857D01*
X166387142Y-70972857D01*
X166501428Y-70915714D01*
X165987142Y-70515714D02*
X166101428Y-70572857D01*
X166330000Y-70572857D01*
X166444285Y-70515714D01*
X166501428Y-70458571D01*
X166558571Y-70344285D01*
X166558571Y-70001428D01*
X166501428Y-69887142D01*
X166444285Y-69830000D01*
X166330000Y-69772857D01*
X166101428Y-69772857D01*
X165987142Y-69830000D01*
X165415714Y-70572857D02*
X165415714Y-69772857D01*
X165415714Y-69887142D02*
X165358571Y-69830000D01*
X165244285Y-69772857D01*
X165072857Y-69772857D01*
X164958571Y-69830000D01*
X164901428Y-69944285D01*
X164901428Y-70572857D01*
X164901428Y-69944285D02*
X164844285Y-69830000D01*
X164730000Y-69772857D01*
X164558571Y-69772857D01*
X164444285Y-69830000D01*
X164387142Y-69944285D01*
X164387142Y-70572857D01*
X163301428Y-70572857D02*
X163301428Y-69944285D01*
X163358571Y-69830000D01*
X163472857Y-69772857D01*
X163701428Y-69772857D01*
X163815714Y-69830000D01*
X163301428Y-70515714D02*
X163415714Y-70572857D01*
X163701428Y-70572857D01*
X163815714Y-70515714D01*
X163872857Y-70401428D01*
X163872857Y-70287142D01*
X163815714Y-70172857D01*
X163701428Y-70115714D01*
X163415714Y-70115714D01*
X163301428Y-70058571D01*
X161872857Y-70230000D02*
X161301428Y-70230000D01*
X161987142Y-70572857D02*
X161587142Y-69372857D01*
X161187142Y-70572857D01*
X160787142Y-70572857D02*
X160787142Y-69372857D01*
X160501428Y-69372857D01*
X160330000Y-69430000D01*
X160215714Y-69544285D01*
X160158571Y-69658571D01*
X160101428Y-69887142D01*
X160101428Y-70058571D01*
X160158571Y-70287142D01*
X160215714Y-70401428D01*
X160330000Y-70515714D01*
X160501428Y-70572857D01*
X160787142Y-70572857D01*
X158901428Y-70458571D02*
X158958571Y-70515714D01*
X159130000Y-70572857D01*
X159244285Y-70572857D01*
X159415714Y-70515714D01*
X159530000Y-70401428D01*
X159587142Y-70287142D01*
X159644285Y-70058571D01*
X159644285Y-69887142D01*
X159587142Y-69658571D01*
X159530000Y-69544285D01*
X159415714Y-69430000D01*
X159244285Y-69372857D01*
X159130000Y-69372857D01*
X158958571Y-69430000D01*
X158901428Y-69487142D01*
X157530000Y-70515714D02*
X157415714Y-70572857D01*
X157187142Y-70572857D01*
X157072857Y-70515714D01*
X157015714Y-70401428D01*
X157015714Y-70344285D01*
X157072857Y-70230000D01*
X157187142Y-70172857D01*
X157358571Y-70172857D01*
X157472857Y-70115714D01*
X157530000Y-70001428D01*
X157530000Y-69944285D01*
X157472857Y-69830000D01*
X157358571Y-69772857D01*
X157187142Y-69772857D01*
X157072857Y-69830000D01*
X156501428Y-69772857D02*
X156501428Y-70972857D01*
X156501428Y-69830000D02*
X156387142Y-69772857D01*
X156158571Y-69772857D01*
X156044285Y-69830000D01*
X155987142Y-69887142D01*
X155930000Y-70001428D01*
X155930000Y-70344285D01*
X155987142Y-70458571D01*
X156044285Y-70515714D01*
X156158571Y-70572857D01*
X156387142Y-70572857D01*
X156501428Y-70515714D01*
X154958571Y-70515714D02*
X155072857Y-70572857D01*
X155301428Y-70572857D01*
X155415714Y-70515714D01*
X155472857Y-70401428D01*
X155472857Y-69944285D01*
X155415714Y-69830000D01*
X155301428Y-69772857D01*
X155072857Y-69772857D01*
X154958571Y-69830000D01*
X154901428Y-69944285D01*
X154901428Y-70058571D01*
X155472857Y-70172857D01*
X153872857Y-70515714D02*
X153987142Y-70572857D01*
X154215714Y-70572857D01*
X154330000Y-70515714D01*
X154387142Y-70458571D01*
X154444285Y-70344285D01*
X154444285Y-70001428D01*
X154387142Y-69887142D01*
X154330000Y-69830000D01*
X154215714Y-69772857D01*
X153987142Y-69772857D01*
X153872857Y-69830000D01*
X153358571Y-70572857D02*
X153358571Y-69772857D01*
X153358571Y-69372857D02*
X153415714Y-69430000D01*
X153358571Y-69487142D01*
X153301428Y-69430000D01*
X153358571Y-69372857D01*
X153358571Y-69487142D01*
X152958571Y-69772857D02*
X152501428Y-69772857D01*
X152787142Y-70572857D02*
X152787142Y-69544285D01*
X152730000Y-69430000D01*
X152615714Y-69372857D01*
X152501428Y-69372857D01*
X152101428Y-70572857D02*
X152101428Y-69772857D01*
X152101428Y-69372857D02*
X152158571Y-69430000D01*
X152101428Y-69487142D01*
X152044285Y-69430000D01*
X152101428Y-69372857D01*
X152101428Y-69487142D01*
X151015714Y-70515714D02*
X151130000Y-70572857D01*
X151358571Y-70572857D01*
X151472857Y-70515714D01*
X151530000Y-70458571D01*
X151587142Y-70344285D01*
X151587142Y-70001428D01*
X151530000Y-69887142D01*
X151472857Y-69830000D01*
X151358571Y-69772857D01*
X151130000Y-69772857D01*
X151015714Y-69830000D01*
X149987142Y-70572857D02*
X149987142Y-69944285D01*
X150044285Y-69830000D01*
X150158571Y-69772857D01*
X150387142Y-69772857D01*
X150501428Y-69830000D01*
X149987142Y-70515714D02*
X150101428Y-70572857D01*
X150387142Y-70572857D01*
X150501428Y-70515714D01*
X150558571Y-70401428D01*
X150558571Y-70287142D01*
X150501428Y-70172857D01*
X150387142Y-70115714D01*
X150101428Y-70115714D01*
X149987142Y-70058571D01*
X149244285Y-70572857D02*
X149358571Y-70515714D01*
X149415714Y-70401428D01*
X149415714Y-69372857D01*
X148615714Y-70572857D02*
X148730000Y-70515714D01*
X148787142Y-70401428D01*
X148787142Y-69372857D01*
X148272857Y-69772857D02*
X147987142Y-70572857D01*
X147701428Y-69772857D02*
X147987142Y-70572857D01*
X148101428Y-70858571D01*
X148158571Y-70915714D01*
X148272857Y-70972857D01*
X174072857Y-72572857D02*
X174072857Y-71372857D01*
X174072857Y-72515714D02*
X174187142Y-72572857D01*
X174415714Y-72572857D01*
X174530000Y-72515714D01*
X174587142Y-72458571D01*
X174644285Y-72344285D01*
X174644285Y-72001428D01*
X174587142Y-71887142D01*
X174530000Y-71830000D01*
X174415714Y-71772857D01*
X174187142Y-71772857D01*
X174072857Y-71830000D01*
X173044285Y-72515714D02*
X173158571Y-72572857D01*
X173387142Y-72572857D01*
X173501428Y-72515714D01*
X173558571Y-72401428D01*
X173558571Y-71944285D01*
X173501428Y-71830000D01*
X173387142Y-71772857D01*
X173158571Y-71772857D01*
X173044285Y-71830000D01*
X172987142Y-71944285D01*
X172987142Y-72058571D01*
X173558571Y-72172857D01*
X172530000Y-72515714D02*
X172415714Y-72572857D01*
X172187142Y-72572857D01*
X172072857Y-72515714D01*
X172015714Y-72401428D01*
X172015714Y-72344285D01*
X172072857Y-72230000D01*
X172187142Y-72172857D01*
X172358571Y-72172857D01*
X172472857Y-72115714D01*
X172530000Y-72001428D01*
X172530000Y-71944285D01*
X172472857Y-71830000D01*
X172358571Y-71772857D01*
X172187142Y-71772857D01*
X172072857Y-71830000D01*
X171501428Y-72572857D02*
X171501428Y-71772857D01*
X171501428Y-71372857D02*
X171558571Y-71430000D01*
X171501428Y-71487142D01*
X171444285Y-71430000D01*
X171501428Y-71372857D01*
X171501428Y-71487142D01*
X170415714Y-71772857D02*
X170415714Y-72744285D01*
X170472857Y-72858571D01*
X170530000Y-72915714D01*
X170644285Y-72972857D01*
X170815714Y-72972857D01*
X170930000Y-72915714D01*
X170415714Y-72515714D02*
X170530000Y-72572857D01*
X170758571Y-72572857D01*
X170872857Y-72515714D01*
X170930000Y-72458571D01*
X170987142Y-72344285D01*
X170987142Y-72001428D01*
X170930000Y-71887142D01*
X170872857Y-71830000D01*
X170758571Y-71772857D01*
X170530000Y-71772857D01*
X170415714Y-71830000D01*
X169844285Y-71772857D02*
X169844285Y-72572857D01*
X169844285Y-71887142D02*
X169787142Y-71830000D01*
X169672857Y-71772857D01*
X169501428Y-71772857D01*
X169387142Y-71830000D01*
X169330000Y-71944285D01*
X169330000Y-72572857D01*
X168301428Y-72515714D02*
X168415714Y-72572857D01*
X168644285Y-72572857D01*
X168758571Y-72515714D01*
X168815714Y-72401428D01*
X168815714Y-71944285D01*
X168758571Y-71830000D01*
X168644285Y-71772857D01*
X168415714Y-71772857D01*
X168301428Y-71830000D01*
X168244285Y-71944285D01*
X168244285Y-72058571D01*
X168815714Y-72172857D01*
X167215714Y-72572857D02*
X167215714Y-71372857D01*
X167215714Y-72515714D02*
X167330000Y-72572857D01*
X167558571Y-72572857D01*
X167672857Y-72515714D01*
X167730000Y-72458571D01*
X167787142Y-72344285D01*
X167787142Y-72001428D01*
X167730000Y-71887142D01*
X167672857Y-71830000D01*
X167558571Y-71772857D01*
X167330000Y-71772857D01*
X167215714Y-71830000D01*
X165901428Y-71772857D02*
X165444285Y-71772857D01*
X165730000Y-72572857D02*
X165730000Y-71544285D01*
X165672857Y-71430000D01*
X165558571Y-71372857D01*
X165444285Y-71372857D01*
X164872857Y-72572857D02*
X164987142Y-72515714D01*
X165044285Y-72458571D01*
X165101428Y-72344285D01*
X165101428Y-72001428D01*
X165044285Y-71887142D01*
X164987142Y-71830000D01*
X164872857Y-71772857D01*
X164701428Y-71772857D01*
X164587142Y-71830000D01*
X164530000Y-71887142D01*
X164472857Y-72001428D01*
X164472857Y-72344285D01*
X164530000Y-72458571D01*
X164587142Y-72515714D01*
X164701428Y-72572857D01*
X164872857Y-72572857D01*
X163958571Y-72572857D02*
X163958571Y-71772857D01*
X163958571Y-72001428D02*
X163901428Y-71887142D01*
X163844285Y-71830000D01*
X163730000Y-71772857D01*
X163615714Y-71772857D01*
X161787142Y-72515714D02*
X161901428Y-72572857D01*
X162130000Y-72572857D01*
X162244285Y-72515714D01*
X162301428Y-72458571D01*
X162358571Y-72344285D01*
X162358571Y-72001428D01*
X162301428Y-71887142D01*
X162244285Y-71830000D01*
X162130000Y-71772857D01*
X161901428Y-71772857D01*
X161787142Y-71830000D01*
X160758571Y-71772857D02*
X160758571Y-72572857D01*
X161272857Y-71772857D02*
X161272857Y-72401428D01*
X161215714Y-72515714D01*
X161101428Y-72572857D01*
X160930000Y-72572857D01*
X160815714Y-72515714D01*
X160758571Y-72458571D01*
X160187142Y-72572857D02*
X160187142Y-71772857D01*
X160187142Y-72001428D02*
X160130000Y-71887142D01*
X160072857Y-71830000D01*
X159958571Y-71772857D01*
X159844285Y-71772857D01*
X159444285Y-72572857D02*
X159444285Y-71772857D01*
X159444285Y-72001428D02*
X159387142Y-71887142D01*
X159330000Y-71830000D01*
X159215714Y-71772857D01*
X159101428Y-71772857D01*
X158244285Y-72515714D02*
X158358571Y-72572857D01*
X158587142Y-72572857D01*
X158701428Y-72515714D01*
X158758571Y-72401428D01*
X158758571Y-71944285D01*
X158701428Y-71830000D01*
X158587142Y-71772857D01*
X158358571Y-71772857D01*
X158244285Y-71830000D01*
X158187142Y-71944285D01*
X158187142Y-72058571D01*
X158758571Y-72172857D01*
X157672857Y-71772857D02*
X157672857Y-72572857D01*
X157672857Y-71887142D02*
X157615714Y-71830000D01*
X157501428Y-71772857D01*
X157330000Y-71772857D01*
X157215714Y-71830000D01*
X157158571Y-71944285D01*
X157158571Y-72572857D01*
X156758571Y-71772857D02*
X156301428Y-71772857D01*
X156587142Y-71372857D02*
X156587142Y-72401428D01*
X156530000Y-72515714D01*
X156415714Y-72572857D01*
X156301428Y-72572857D01*
X155901428Y-72115714D02*
X154987142Y-72115714D01*
X154472857Y-72515714D02*
X154358571Y-72572857D01*
X154130000Y-72572857D01*
X154015714Y-72515714D01*
X153958571Y-72401428D01*
X153958571Y-72344285D01*
X154015714Y-72230000D01*
X154130000Y-72172857D01*
X154301428Y-72172857D01*
X154415714Y-72115714D01*
X154472857Y-72001428D01*
X154472857Y-71944285D01*
X154415714Y-71830000D01*
X154301428Y-71772857D01*
X154130000Y-71772857D01*
X154015714Y-71830000D01*
X152987142Y-72515714D02*
X153101428Y-72572857D01*
X153330000Y-72572857D01*
X153444285Y-72515714D01*
X153501428Y-72401428D01*
X153501428Y-71944285D01*
X153444285Y-71830000D01*
X153330000Y-71772857D01*
X153101428Y-71772857D01*
X152987142Y-71830000D01*
X152930000Y-71944285D01*
X152930000Y-72058571D01*
X153501428Y-72172857D01*
X152415714Y-71772857D02*
X152415714Y-72572857D01*
X152415714Y-71887142D02*
X152358571Y-71830000D01*
X152244285Y-71772857D01*
X152072857Y-71772857D01*
X151958571Y-71830000D01*
X151901428Y-71944285D01*
X151901428Y-72572857D01*
X151387142Y-72515714D02*
X151272857Y-72572857D01*
X151044285Y-72572857D01*
X150930000Y-72515714D01*
X150872857Y-72401428D01*
X150872857Y-72344285D01*
X150930000Y-72230000D01*
X151044285Y-72172857D01*
X151215714Y-72172857D01*
X151330000Y-72115714D01*
X151387142Y-72001428D01*
X151387142Y-71944285D01*
X151330000Y-71830000D01*
X151215714Y-71772857D01*
X151044285Y-71772857D01*
X150930000Y-71830000D01*
X150358571Y-72572857D02*
X150358571Y-71772857D01*
X150358571Y-71372857D02*
X150415714Y-71430000D01*
X150358571Y-71487142D01*
X150301428Y-71430000D01*
X150358571Y-71372857D01*
X150358571Y-71487142D01*
X149787142Y-71772857D02*
X149787142Y-72572857D01*
X149787142Y-71887142D02*
X149730000Y-71830000D01*
X149615714Y-71772857D01*
X149444285Y-71772857D01*
X149330000Y-71830000D01*
X149272857Y-71944285D01*
X149272857Y-72572857D01*
X148187142Y-71772857D02*
X148187142Y-72744285D01*
X148244285Y-72858571D01*
X148301428Y-72915714D01*
X148415714Y-72972857D01*
X148587142Y-72972857D01*
X148701428Y-72915714D01*
X148187142Y-72515714D02*
X148301428Y-72572857D01*
X148530000Y-72572857D01*
X148644285Y-72515714D01*
X148701428Y-72458571D01*
X148758571Y-72344285D01*
X148758571Y-72001428D01*
X148701428Y-71887142D01*
X148644285Y-71830000D01*
X148530000Y-71772857D01*
X148301428Y-71772857D01*
X148187142Y-71830000D01*
X173672857Y-74572857D02*
X173672857Y-73944285D01*
X173730000Y-73830000D01*
X173844285Y-73772857D01*
X174072857Y-73772857D01*
X174187142Y-73830000D01*
X173672857Y-74515714D02*
X173787142Y-74572857D01*
X174072857Y-74572857D01*
X174187142Y-74515714D01*
X174244285Y-74401428D01*
X174244285Y-74287142D01*
X174187142Y-74172857D01*
X174072857Y-74115714D01*
X173787142Y-74115714D01*
X173672857Y-74058571D01*
X173101428Y-73772857D02*
X173101428Y-74972857D01*
X173101428Y-73830000D02*
X172987142Y-73772857D01*
X172758571Y-73772857D01*
X172644285Y-73830000D01*
X172587142Y-73887142D01*
X172530000Y-74001428D01*
X172530000Y-74344285D01*
X172587142Y-74458571D01*
X172644285Y-74515714D01*
X172758571Y-74572857D01*
X172987142Y-74572857D01*
X173101428Y-74515714D01*
X172015714Y-73772857D02*
X172015714Y-74972857D01*
X172015714Y-73830000D02*
X171901428Y-73772857D01*
X171672857Y-73772857D01*
X171558571Y-73830000D01*
X171501428Y-73887142D01*
X171444285Y-74001428D01*
X171444285Y-74344285D01*
X171501428Y-74458571D01*
X171558571Y-74515714D01*
X171672857Y-74572857D01*
X171901428Y-74572857D01*
X172015714Y-74515714D01*
X170758571Y-74572857D02*
X170872857Y-74515714D01*
X170930000Y-74401428D01*
X170930000Y-73372857D01*
X170301428Y-74572857D02*
X170301428Y-73772857D01*
X170301428Y-73372857D02*
X170358571Y-73430000D01*
X170301428Y-73487142D01*
X170244285Y-73430000D01*
X170301428Y-73372857D01*
X170301428Y-73487142D01*
X169215714Y-74515714D02*
X169330000Y-74572857D01*
X169558571Y-74572857D01*
X169672857Y-74515714D01*
X169730000Y-74458571D01*
X169787142Y-74344285D01*
X169787142Y-74001428D01*
X169730000Y-73887142D01*
X169672857Y-73830000D01*
X169558571Y-73772857D01*
X169330000Y-73772857D01*
X169215714Y-73830000D01*
X168187142Y-74572857D02*
X168187142Y-73944285D01*
X168244285Y-73830000D01*
X168358571Y-73772857D01*
X168587142Y-73772857D01*
X168701428Y-73830000D01*
X168187142Y-74515714D02*
X168301428Y-74572857D01*
X168587142Y-74572857D01*
X168701428Y-74515714D01*
X168758571Y-74401428D01*
X168758571Y-74287142D01*
X168701428Y-74172857D01*
X168587142Y-74115714D01*
X168301428Y-74115714D01*
X168187142Y-74058571D01*
X167787142Y-73772857D02*
X167330000Y-73772857D01*
X167615714Y-73372857D02*
X167615714Y-74401428D01*
X167558571Y-74515714D01*
X167444285Y-74572857D01*
X167330000Y-74572857D01*
X166930000Y-74572857D02*
X166930000Y-73772857D01*
X166930000Y-73372857D02*
X166987142Y-73430000D01*
X166930000Y-73487142D01*
X166872857Y-73430000D01*
X166930000Y-73372857D01*
X166930000Y-73487142D01*
X166187142Y-74572857D02*
X166301428Y-74515714D01*
X166358571Y-74458571D01*
X166415714Y-74344285D01*
X166415714Y-74001428D01*
X166358571Y-73887142D01*
X166301428Y-73830000D01*
X166187142Y-73772857D01*
X166015714Y-73772857D01*
X165901428Y-73830000D01*
X165844285Y-73887142D01*
X165787142Y-74001428D01*
X165787142Y-74344285D01*
X165844285Y-74458571D01*
X165901428Y-74515714D01*
X166015714Y-74572857D01*
X166187142Y-74572857D01*
X165272857Y-73772857D02*
X165272857Y-74572857D01*
X165272857Y-73887142D02*
X165215714Y-73830000D01*
X165101428Y-73772857D01*
X164930000Y-73772857D01*
X164815714Y-73830000D01*
X164758571Y-73944285D01*
X164758571Y-74572857D01*
X164244285Y-74515714D02*
X164130000Y-74572857D01*
X163901428Y-74572857D01*
X163787142Y-74515714D01*
X163730000Y-74401428D01*
X163730000Y-74344285D01*
X163787142Y-74230000D01*
X163901428Y-74172857D01*
X164072857Y-74172857D01*
X164187142Y-74115714D01*
X164244285Y-74001428D01*
X164244285Y-73944285D01*
X164187142Y-73830000D01*
X164072857Y-73772857D01*
X163901428Y-73772857D01*
X163787142Y-73830000D01*
X163215714Y-74458571D02*
X163158571Y-74515714D01*
X163215714Y-74572857D01*
X163272857Y-74515714D01*
X163215714Y-74458571D01*
X163215714Y-74572857D01*
X161901428Y-73372857D02*
X161215714Y-73372857D01*
X161558571Y-74572857D02*
X161558571Y-73372857D01*
X160815714Y-74572857D02*
X160815714Y-73372857D01*
X160301428Y-74572857D02*
X160301428Y-73944285D01*
X160358571Y-73830000D01*
X160472857Y-73772857D01*
X160644285Y-73772857D01*
X160758571Y-73830000D01*
X160815714Y-73887142D01*
X159272857Y-74515714D02*
X159387142Y-74572857D01*
X159615714Y-74572857D01*
X159730000Y-74515714D01*
X159787142Y-74401428D01*
X159787142Y-73944285D01*
X159730000Y-73830000D01*
X159615714Y-73772857D01*
X159387142Y-73772857D01*
X159272857Y-73830000D01*
X159215714Y-73944285D01*
X159215714Y-74058571D01*
X159787142Y-74172857D01*
X157272857Y-74572857D02*
X157272857Y-73372857D01*
X157272857Y-74515714D02*
X157387142Y-74572857D01*
X157615714Y-74572857D01*
X157730000Y-74515714D01*
X157787142Y-74458571D01*
X157844285Y-74344285D01*
X157844285Y-74001428D01*
X157787142Y-73887142D01*
X157730000Y-73830000D01*
X157615714Y-73772857D01*
X157387142Y-73772857D01*
X157272857Y-73830000D01*
X156244285Y-74515714D02*
X156358571Y-74572857D01*
X156587142Y-74572857D01*
X156701428Y-74515714D01*
X156758571Y-74401428D01*
X156758571Y-73944285D01*
X156701428Y-73830000D01*
X156587142Y-73772857D01*
X156358571Y-73772857D01*
X156244285Y-73830000D01*
X156187142Y-73944285D01*
X156187142Y-74058571D01*
X156758571Y-74172857D01*
X155787142Y-73772857D02*
X155501428Y-74572857D01*
X155215714Y-73772857D01*
X154758571Y-74572857D02*
X154758571Y-73772857D01*
X154758571Y-73372857D02*
X154815714Y-73430000D01*
X154758571Y-73487142D01*
X154701428Y-73430000D01*
X154758571Y-73372857D01*
X154758571Y-73487142D01*
X153672857Y-74515714D02*
X153787142Y-74572857D01*
X154015714Y-74572857D01*
X154130000Y-74515714D01*
X154187142Y-74458571D01*
X154244285Y-74344285D01*
X154244285Y-74001428D01*
X154187142Y-73887142D01*
X154130000Y-73830000D01*
X154015714Y-73772857D01*
X153787142Y-73772857D01*
X153672857Y-73830000D01*
X152701428Y-74515714D02*
X152815714Y-74572857D01*
X153044285Y-74572857D01*
X153158571Y-74515714D01*
X153215714Y-74401428D01*
X153215714Y-73944285D01*
X153158571Y-73830000D01*
X153044285Y-73772857D01*
X152815714Y-73772857D01*
X152701428Y-73830000D01*
X152644285Y-73944285D01*
X152644285Y-74058571D01*
X153215714Y-74172857D01*
X150701428Y-74515714D02*
X150815714Y-74572857D01*
X151044285Y-74572857D01*
X151158571Y-74515714D01*
X151215714Y-74458571D01*
X151272857Y-74344285D01*
X151272857Y-74001428D01*
X151215714Y-73887142D01*
X151158571Y-73830000D01*
X151044285Y-73772857D01*
X150815714Y-73772857D01*
X150701428Y-73830000D01*
X149672857Y-74572857D02*
X149672857Y-73944285D01*
X149730000Y-73830000D01*
X149844285Y-73772857D01*
X150072857Y-73772857D01*
X150187142Y-73830000D01*
X149672857Y-74515714D02*
X149787142Y-74572857D01*
X150072857Y-74572857D01*
X150187142Y-74515714D01*
X150244285Y-74401428D01*
X150244285Y-74287142D01*
X150187142Y-74172857D01*
X150072857Y-74115714D01*
X149787142Y-74115714D01*
X149672857Y-74058571D01*
X149101428Y-73772857D02*
X149101428Y-74572857D01*
X149101428Y-73887142D02*
X149044285Y-73830000D01*
X148930000Y-73772857D01*
X148758571Y-73772857D01*
X148644285Y-73830000D01*
X148587142Y-73944285D01*
X148587142Y-74572857D01*
X176358571Y-76572857D02*
X176358571Y-75772857D01*
X176358571Y-75887142D02*
X176301428Y-75830000D01*
X176187142Y-75772857D01*
X176015714Y-75772857D01*
X175901428Y-75830000D01*
X175844285Y-75944285D01*
X175844285Y-76572857D01*
X175844285Y-75944285D02*
X175787142Y-75830000D01*
X175672857Y-75772857D01*
X175501428Y-75772857D01*
X175387142Y-75830000D01*
X175330000Y-75944285D01*
X175330000Y-76572857D01*
X174301428Y-76515714D02*
X174415714Y-76572857D01*
X174644285Y-76572857D01*
X174758571Y-76515714D01*
X174815714Y-76401428D01*
X174815714Y-75944285D01*
X174758571Y-75830000D01*
X174644285Y-75772857D01*
X174415714Y-75772857D01*
X174301428Y-75830000D01*
X174244285Y-75944285D01*
X174244285Y-76058571D01*
X174815714Y-76172857D01*
X173215714Y-76572857D02*
X173215714Y-75944285D01*
X173272857Y-75830000D01*
X173387142Y-75772857D01*
X173615714Y-75772857D01*
X173730000Y-75830000D01*
X173215714Y-76515714D02*
X173330000Y-76572857D01*
X173615714Y-76572857D01*
X173730000Y-76515714D01*
X173787142Y-76401428D01*
X173787142Y-76287142D01*
X173730000Y-76172857D01*
X173615714Y-76115714D01*
X173330000Y-76115714D01*
X173215714Y-76058571D01*
X172701428Y-76515714D02*
X172587142Y-76572857D01*
X172358571Y-76572857D01*
X172244285Y-76515714D01*
X172187142Y-76401428D01*
X172187142Y-76344285D01*
X172244285Y-76230000D01*
X172358571Y-76172857D01*
X172530000Y-76172857D01*
X172644285Y-76115714D01*
X172701428Y-76001428D01*
X172701428Y-75944285D01*
X172644285Y-75830000D01*
X172530000Y-75772857D01*
X172358571Y-75772857D01*
X172244285Y-75830000D01*
X171158571Y-75772857D02*
X171158571Y-76572857D01*
X171672857Y-75772857D02*
X171672857Y-76401428D01*
X171615714Y-76515714D01*
X171501428Y-76572857D01*
X171330000Y-76572857D01*
X171215714Y-76515714D01*
X171158571Y-76458571D01*
X170587142Y-76572857D02*
X170587142Y-75772857D01*
X170587142Y-76001428D02*
X170530000Y-75887142D01*
X170472857Y-75830000D01*
X170358571Y-75772857D01*
X170244285Y-75772857D01*
X169387142Y-76515714D02*
X169501428Y-76572857D01*
X169730000Y-76572857D01*
X169844285Y-76515714D01*
X169901428Y-76401428D01*
X169901428Y-75944285D01*
X169844285Y-75830000D01*
X169730000Y-75772857D01*
X169501428Y-75772857D01*
X169387142Y-75830000D01*
X169330000Y-75944285D01*
X169330000Y-76058571D01*
X169901428Y-76172857D01*
X167387142Y-76572857D02*
X167387142Y-75944285D01*
X167444285Y-75830000D01*
X167558571Y-75772857D01*
X167787142Y-75772857D01*
X167901428Y-75830000D01*
X167387142Y-76515714D02*
X167501428Y-76572857D01*
X167787142Y-76572857D01*
X167901428Y-76515714D01*
X167958571Y-76401428D01*
X167958571Y-76287142D01*
X167901428Y-76172857D01*
X167787142Y-76115714D01*
X167501428Y-76115714D01*
X167387142Y-76058571D01*
X166072857Y-75772857D02*
X165615714Y-75772857D01*
X165901428Y-76572857D02*
X165901428Y-75544285D01*
X165844285Y-75430000D01*
X165730000Y-75372857D01*
X165615714Y-75372857D01*
X164701428Y-75772857D02*
X164701428Y-76572857D01*
X165215714Y-75772857D02*
X165215714Y-76401428D01*
X165158571Y-76515714D01*
X165044285Y-76572857D01*
X164872857Y-76572857D01*
X164758571Y-76515714D01*
X164701428Y-76458571D01*
X163958571Y-76572857D02*
X164072857Y-76515714D01*
X164129999Y-76401428D01*
X164129999Y-75372857D01*
X163329999Y-76572857D02*
X163444285Y-76515714D01*
X163501428Y-76401428D01*
X163501428Y-75372857D01*
X162872857Y-76115714D02*
X161958571Y-76115714D01*
X161444285Y-76515714D02*
X161329999Y-76572857D01*
X161101428Y-76572857D01*
X160987142Y-76515714D01*
X160929999Y-76401428D01*
X160929999Y-76344285D01*
X160987142Y-76230000D01*
X161101428Y-76172857D01*
X161272857Y-76172857D01*
X161387142Y-76115714D01*
X161444285Y-76001428D01*
X161444285Y-75944285D01*
X161387142Y-75830000D01*
X161272857Y-75772857D01*
X161101428Y-75772857D01*
X160987142Y-75830000D01*
X159901428Y-76515714D02*
X160015714Y-76572857D01*
X160244285Y-76572857D01*
X160358571Y-76515714D01*
X160415714Y-76458571D01*
X160472857Y-76344285D01*
X160472857Y-76001428D01*
X160415714Y-75887142D01*
X160358571Y-75830000D01*
X160244285Y-75772857D01*
X160015714Y-75772857D01*
X159901428Y-75830000D01*
X158872857Y-76572857D02*
X158872857Y-75944285D01*
X158929999Y-75830000D01*
X159044285Y-75772857D01*
X159272857Y-75772857D01*
X159387142Y-75830000D01*
X158872857Y-76515714D02*
X158987142Y-76572857D01*
X159272857Y-76572857D01*
X159387142Y-76515714D01*
X159444285Y-76401428D01*
X159444285Y-76287142D01*
X159387142Y-76172857D01*
X159272857Y-76115714D01*
X158987142Y-76115714D01*
X158872857Y-76058571D01*
X158129999Y-76572857D02*
X158244285Y-76515714D01*
X158301428Y-76401428D01*
X158301428Y-75372857D01*
X157215714Y-76515714D02*
X157329999Y-76572857D01*
X157558571Y-76572857D01*
X157672857Y-76515714D01*
X157729999Y-76401428D01*
X157729999Y-75944285D01*
X157672857Y-75830000D01*
X157558571Y-75772857D01*
X157329999Y-75772857D01*
X157215714Y-75830000D01*
X157158571Y-75944285D01*
X157158571Y-76058571D01*
X157729999Y-76172857D01*
X155215714Y-76572857D02*
X155215714Y-75372857D01*
X155215714Y-76515714D02*
X155329999Y-76572857D01*
X155558571Y-76572857D01*
X155672857Y-76515714D01*
X155729999Y-76458571D01*
X155787142Y-76344285D01*
X155787142Y-76001428D01*
X155729999Y-75887142D01*
X155672857Y-75830000D01*
X155558571Y-75772857D01*
X155329999Y-75772857D01*
X155215714Y-75830000D01*
X154644285Y-76572857D02*
X154644285Y-75772857D01*
X154644285Y-75372857D02*
X154701428Y-75430000D01*
X154644285Y-75487142D01*
X154587142Y-75430000D01*
X154644285Y-75372857D01*
X154644285Y-75487142D01*
X154244285Y-75772857D02*
X153787142Y-75772857D01*
X154072857Y-76572857D02*
X154072857Y-75544285D01*
X154015714Y-75430000D01*
X153901428Y-75372857D01*
X153787142Y-75372857D01*
X153558571Y-75772857D02*
X153101428Y-75772857D01*
X153387142Y-76572857D02*
X153387142Y-75544285D01*
X153329999Y-75430000D01*
X153215714Y-75372857D01*
X153101428Y-75372857D01*
X152244285Y-76515714D02*
X152358571Y-76572857D01*
X152587142Y-76572857D01*
X152701428Y-76515714D01*
X152758571Y-76401428D01*
X152758571Y-75944285D01*
X152701428Y-75830000D01*
X152587142Y-75772857D01*
X152358571Y-75772857D01*
X152244285Y-75830000D01*
X152187142Y-75944285D01*
X152187142Y-76058571D01*
X152758571Y-76172857D01*
X151672857Y-76572857D02*
X151672857Y-75772857D01*
X151672857Y-76001428D02*
X151615714Y-75887142D01*
X151558571Y-75830000D01*
X151444285Y-75772857D01*
X151329999Y-75772857D01*
X150472857Y-76515714D02*
X150587142Y-76572857D01*
X150815714Y-76572857D01*
X150929999Y-76515714D01*
X150987142Y-76401428D01*
X150987142Y-75944285D01*
X150929999Y-75830000D01*
X150815714Y-75772857D01*
X150587142Y-75772857D01*
X150472857Y-75830000D01*
X150415714Y-75944285D01*
X150415714Y-76058571D01*
X150987142Y-76172857D01*
X149901428Y-75772857D02*
X149901428Y-76572857D01*
X149901428Y-75887142D02*
X149844285Y-75830000D01*
X149729999Y-75772857D01*
X149558571Y-75772857D01*
X149444285Y-75830000D01*
X149387142Y-75944285D01*
X149387142Y-76572857D01*
X148987142Y-75772857D02*
X148529999Y-75772857D01*
X148815714Y-75372857D02*
X148815714Y-76401428D01*
X148758571Y-76515714D01*
X148644285Y-76572857D01*
X148529999Y-76572857D01*
X148129999Y-76572857D02*
X148129999Y-75772857D01*
X148129999Y-75372857D02*
X148187142Y-75430000D01*
X148129999Y-75487142D01*
X148072857Y-75430000D01*
X148129999Y-75372857D01*
X148129999Y-75487142D01*
X147044285Y-76572857D02*
X147044285Y-75944285D01*
X147101428Y-75830000D01*
X147215714Y-75772857D01*
X147444285Y-75772857D01*
X147558571Y-75830000D01*
X147044285Y-76515714D02*
X147158571Y-76572857D01*
X147444285Y-76572857D01*
X147558571Y-76515714D01*
X147615714Y-76401428D01*
X147615714Y-76287142D01*
X147558571Y-76172857D01*
X147444285Y-76115714D01*
X147158571Y-76115714D01*
X147044285Y-76058571D01*
X146301428Y-76572857D02*
X146415714Y-76515714D01*
X146472857Y-76401428D01*
X146472857Y-75372857D01*
X177730000Y-78572857D02*
X177730000Y-77772857D01*
X177730000Y-77372857D02*
X177787142Y-77430000D01*
X177730000Y-77487142D01*
X177672857Y-77430000D01*
X177730000Y-77372857D01*
X177730000Y-77487142D01*
X177158571Y-77772857D02*
X177158571Y-78572857D01*
X177158571Y-77887142D02*
X177101428Y-77830000D01*
X176987142Y-77772857D01*
X176815714Y-77772857D01*
X176701428Y-77830000D01*
X176644285Y-77944285D01*
X176644285Y-78572857D01*
X176072857Y-77772857D02*
X176072857Y-78972857D01*
X176072857Y-77830000D02*
X175958571Y-77772857D01*
X175730000Y-77772857D01*
X175615714Y-77830000D01*
X175558571Y-77887142D01*
X175501428Y-78001428D01*
X175501428Y-78344285D01*
X175558571Y-78458571D01*
X175615714Y-78515714D01*
X175730000Y-78572857D01*
X175958571Y-78572857D01*
X176072857Y-78515714D01*
X174472857Y-77772857D02*
X174472857Y-78572857D01*
X174987142Y-77772857D02*
X174987142Y-78401428D01*
X174930000Y-78515714D01*
X174815714Y-78572857D01*
X174644285Y-78572857D01*
X174530000Y-78515714D01*
X174472857Y-78458571D01*
X174072857Y-77772857D02*
X173615714Y-77772857D01*
X173901428Y-77372857D02*
X173901428Y-78401428D01*
X173844285Y-78515714D01*
X173729999Y-78572857D01*
X173615714Y-78572857D01*
X172129999Y-78572857D02*
X172244285Y-78515714D01*
X172301428Y-78458571D01*
X172358571Y-78344285D01*
X172358571Y-78001428D01*
X172301428Y-77887142D01*
X172244285Y-77830000D01*
X172129999Y-77772857D01*
X171958571Y-77772857D01*
X171844285Y-77830000D01*
X171787142Y-77887142D01*
X171729999Y-78001428D01*
X171729999Y-78344285D01*
X171787142Y-78458571D01*
X171844285Y-78515714D01*
X171958571Y-78572857D01*
X172129999Y-78572857D01*
X171387142Y-77772857D02*
X170929999Y-77772857D01*
X171215714Y-78572857D02*
X171215714Y-77544285D01*
X171158571Y-77430000D01*
X171044285Y-77372857D01*
X170929999Y-77372857D01*
X169615714Y-77887142D02*
X168701428Y-77887142D01*
X169158571Y-78344285D02*
X169158571Y-77430000D01*
X168701428Y-78572857D02*
X169615714Y-78572857D01*
X167501428Y-78572857D02*
X168187142Y-78572857D01*
X167844285Y-78572857D02*
X167844285Y-77372857D01*
X167958571Y-77544285D01*
X168072857Y-77658571D01*
X168187142Y-77715714D01*
X166472857Y-77372857D02*
X166701428Y-77372857D01*
X166815714Y-77430000D01*
X166872857Y-77487142D01*
X166987142Y-77658571D01*
X167044285Y-77887142D01*
X167044285Y-78344285D01*
X166987142Y-78458571D01*
X166929999Y-78515714D01*
X166815714Y-78572857D01*
X166587142Y-78572857D01*
X166472857Y-78515714D01*
X166415714Y-78458571D01*
X166358571Y-78344285D01*
X166358571Y-78058571D01*
X166415714Y-77944285D01*
X166472857Y-77887142D01*
X166587142Y-77830000D01*
X166815714Y-77830000D01*
X166929999Y-77887142D01*
X166987142Y-77944285D01*
X167044285Y-78058571D01*
X165958571Y-77372857D02*
X165215714Y-77372857D01*
X165615714Y-77830000D01*
X165444285Y-77830000D01*
X165329999Y-77887142D01*
X165272857Y-77944285D01*
X165215714Y-78058571D01*
X165215714Y-78344285D01*
X165272857Y-78458571D01*
X165329999Y-78515714D01*
X165444285Y-78572857D01*
X165787142Y-78572857D01*
X165901428Y-78515714D01*
X165958571Y-78458571D01*
X164701428Y-78458571D02*
X164644285Y-78515714D01*
X164701428Y-78572857D01*
X164758571Y-78515714D01*
X164701428Y-78458571D01*
X164701428Y-78572857D01*
X163958571Y-77887142D02*
X164072857Y-77830000D01*
X164129999Y-77772857D01*
X164187142Y-77658571D01*
X164187142Y-77601428D01*
X164129999Y-77487142D01*
X164072857Y-77430000D01*
X163958571Y-77372857D01*
X163729999Y-77372857D01*
X163615714Y-77430000D01*
X163558571Y-77487142D01*
X163501428Y-77601428D01*
X163501428Y-77658571D01*
X163558571Y-77772857D01*
X163615714Y-77830000D01*
X163729999Y-77887142D01*
X163958571Y-77887142D01*
X164072857Y-77944285D01*
X164129999Y-78001428D01*
X164187142Y-78115714D01*
X164187142Y-78344285D01*
X164129999Y-78458571D01*
X164072857Y-78515714D01*
X163958571Y-78572857D01*
X163729999Y-78572857D01*
X163615714Y-78515714D01*
X163558571Y-78458571D01*
X163501428Y-78344285D01*
X163501428Y-78115714D01*
X163558571Y-78001428D01*
X163615714Y-77944285D01*
X163729999Y-77887142D01*
X162472857Y-77772857D02*
X162472857Y-78572857D01*
X162758571Y-77315714D02*
X163044285Y-78172857D01*
X162301428Y-78172857D01*
X160930000Y-78572857D02*
X160930000Y-77772857D01*
X160930000Y-77887142D02*
X160872857Y-77830000D01*
X160758571Y-77772857D01*
X160587142Y-77772857D01*
X160472857Y-77830000D01*
X160415714Y-77944285D01*
X160415714Y-78572857D01*
X160415714Y-77944285D02*
X160358571Y-77830000D01*
X160244285Y-77772857D01*
X160072857Y-77772857D01*
X159958571Y-77830000D01*
X159901428Y-77944285D01*
X159901428Y-78572857D01*
X159501428Y-77372857D02*
X159101428Y-78572857D01*
X158701428Y-77372857D01*
X157215714Y-78572857D02*
X157330000Y-78515714D01*
X157387142Y-78458571D01*
X157444285Y-78344285D01*
X157444285Y-78001428D01*
X157387142Y-77887142D01*
X157330000Y-77830000D01*
X157215714Y-77772857D01*
X157044285Y-77772857D01*
X156930000Y-77830000D01*
X156872857Y-77887142D01*
X156815714Y-78001428D01*
X156815714Y-78344285D01*
X156872857Y-78458571D01*
X156930000Y-78515714D01*
X157044285Y-78572857D01*
X157215714Y-78572857D01*
X156301428Y-78572857D02*
X156301428Y-77772857D01*
X156301428Y-78001428D02*
X156244285Y-77887142D01*
X156187142Y-77830000D01*
X156072857Y-77772857D01*
X155958571Y-77772857D01*
X154644285Y-77887142D02*
X153730000Y-77887142D01*
X154187142Y-78344285D02*
X154187142Y-77430000D01*
X153730000Y-78572857D02*
X154644285Y-78572857D01*
X152644285Y-77772857D02*
X152644285Y-78572857D01*
X152930000Y-77315714D02*
X153215714Y-78172857D01*
X152472857Y-78172857D01*
X151787142Y-77372857D02*
X151672857Y-77372857D01*
X151558571Y-77430000D01*
X151501428Y-77487142D01*
X151444285Y-77601428D01*
X151387142Y-77830000D01*
X151387142Y-78115714D01*
X151444285Y-78344285D01*
X151501428Y-78458571D01*
X151558571Y-78515714D01*
X151672857Y-78572857D01*
X151787142Y-78572857D01*
X151901428Y-78515714D01*
X151958571Y-78458571D01*
X152015714Y-78344285D01*
X152072857Y-78115714D01*
X152072857Y-77830000D01*
X152015714Y-77601428D01*
X151958571Y-77487142D01*
X151901428Y-77430000D01*
X151787142Y-77372857D01*
X150872857Y-78458571D02*
X150815714Y-78515714D01*
X150872857Y-78572857D01*
X150930000Y-78515714D01*
X150872857Y-78458571D01*
X150872857Y-78572857D01*
X150244285Y-78572857D02*
X150015714Y-78572857D01*
X149901428Y-78515714D01*
X149844285Y-78458571D01*
X149729999Y-78287142D01*
X149672857Y-78058571D01*
X149672857Y-77601428D01*
X149729999Y-77487142D01*
X149787142Y-77430000D01*
X149901428Y-77372857D01*
X150129999Y-77372857D01*
X150244285Y-77430000D01*
X150301428Y-77487142D01*
X150358571Y-77601428D01*
X150358571Y-77887142D01*
X150301428Y-78001428D01*
X150244285Y-78058571D01*
X150129999Y-78115714D01*
X149901428Y-78115714D01*
X149787142Y-78058571D01*
X149729999Y-78001428D01*
X149672857Y-77887142D01*
X148644285Y-77372857D02*
X148872857Y-77372857D01*
X148987142Y-77430000D01*
X149044285Y-77487142D01*
X149158571Y-77658571D01*
X149215714Y-77887142D01*
X149215714Y-78344285D01*
X149158571Y-78458571D01*
X149101428Y-78515714D01*
X148987142Y-78572857D01*
X148758571Y-78572857D01*
X148644285Y-78515714D01*
X148587142Y-78458571D01*
X148529999Y-78344285D01*
X148529999Y-78058571D01*
X148587142Y-77944285D01*
X148644285Y-77887142D01*
X148758571Y-77830000D01*
X148987142Y-77830000D01*
X149101428Y-77887142D01*
X149158571Y-77944285D01*
X149215714Y-78058571D01*
X147101428Y-78572857D02*
X147101428Y-77772857D01*
X147101428Y-77887142D02*
X147044285Y-77830000D01*
X146929999Y-77772857D01*
X146758571Y-77772857D01*
X146644285Y-77830000D01*
X146587142Y-77944285D01*
X146587142Y-78572857D01*
X146587142Y-77944285D02*
X146530000Y-77830000D01*
X146415714Y-77772857D01*
X146244285Y-77772857D01*
X146130000Y-77830000D01*
X146072857Y-77944285D01*
X146072857Y-78572857D01*
X145672857Y-77372857D02*
X145272857Y-78572857D01*
X144872857Y-77372857D01*
X174187142Y-80572857D02*
X174187142Y-79944285D01*
X174244285Y-79830000D01*
X174358571Y-79772857D01*
X174587142Y-79772857D01*
X174701428Y-79830000D01*
X174187142Y-80515714D02*
X174301428Y-80572857D01*
X174587142Y-80572857D01*
X174701428Y-80515714D01*
X174758571Y-80401428D01*
X174758571Y-80287142D01*
X174701428Y-80172857D01*
X174587142Y-80115714D01*
X174301428Y-80115714D01*
X174187142Y-80058571D01*
X173101428Y-80515714D02*
X173215714Y-80572857D01*
X173444285Y-80572857D01*
X173558571Y-80515714D01*
X173615714Y-80458571D01*
X173672857Y-80344285D01*
X173672857Y-80001428D01*
X173615714Y-79887142D01*
X173558571Y-79830000D01*
X173444285Y-79772857D01*
X173215714Y-79772857D01*
X173101428Y-79830000D01*
X172587142Y-80572857D02*
X172587142Y-79772857D01*
X172587142Y-80001428D02*
X172530000Y-79887142D01*
X172472857Y-79830000D01*
X172358571Y-79772857D01*
X172244285Y-79772857D01*
X171672857Y-80572857D02*
X171787142Y-80515714D01*
X171844285Y-80458571D01*
X171901428Y-80344285D01*
X171901428Y-80001428D01*
X171844285Y-79887142D01*
X171787142Y-79830000D01*
X171672857Y-79772857D01*
X171501428Y-79772857D01*
X171387142Y-79830000D01*
X171330000Y-79887142D01*
X171272857Y-80001428D01*
X171272857Y-80344285D01*
X171330000Y-80458571D01*
X171387142Y-80515714D01*
X171501428Y-80572857D01*
X171672857Y-80572857D01*
X170815714Y-80515714D02*
X170701428Y-80572857D01*
X170472857Y-80572857D01*
X170358571Y-80515714D01*
X170301428Y-80401428D01*
X170301428Y-80344285D01*
X170358571Y-80230000D01*
X170472857Y-80172857D01*
X170644285Y-80172857D01*
X170758571Y-80115714D01*
X170815714Y-80001428D01*
X170815714Y-79944285D01*
X170758571Y-79830000D01*
X170644285Y-79772857D01*
X170472857Y-79772857D01*
X170358571Y-79830000D01*
X169844285Y-80515714D02*
X169730000Y-80572857D01*
X169501428Y-80572857D01*
X169387142Y-80515714D01*
X169330000Y-80401428D01*
X169330000Y-80344285D01*
X169387142Y-80230000D01*
X169501428Y-80172857D01*
X169672857Y-80172857D01*
X169787142Y-80115714D01*
X169844285Y-80001428D01*
X169844285Y-79944285D01*
X169787142Y-79830000D01*
X169672857Y-79772857D01*
X169501428Y-79772857D01*
X169387142Y-79830000D01*
X167387142Y-80572857D02*
X167387142Y-79944285D01*
X167444285Y-79830000D01*
X167558571Y-79772857D01*
X167787142Y-79772857D01*
X167901428Y-79830000D01*
X167387142Y-80515714D02*
X167501428Y-80572857D01*
X167787142Y-80572857D01*
X167901428Y-80515714D01*
X167958571Y-80401428D01*
X167958571Y-80287142D01*
X167901428Y-80172857D01*
X167787142Y-80115714D01*
X167501428Y-80115714D01*
X167387142Y-80058571D01*
X165901428Y-80572857D02*
X165901428Y-79772857D01*
X165901428Y-80001428D02*
X165844285Y-79887142D01*
X165787142Y-79830000D01*
X165672857Y-79772857D01*
X165558571Y-79772857D01*
X164701428Y-80515714D02*
X164815714Y-80572857D01*
X165044285Y-80572857D01*
X165158571Y-80515714D01*
X165215714Y-80401428D01*
X165215714Y-79944285D01*
X165158571Y-79830000D01*
X165044285Y-79772857D01*
X164815714Y-79772857D01*
X164701428Y-79830000D01*
X164644285Y-79944285D01*
X164644285Y-80058571D01*
X165215714Y-80172857D01*
X164187142Y-80515714D02*
X164072857Y-80572857D01*
X163844285Y-80572857D01*
X163730000Y-80515714D01*
X163672857Y-80401428D01*
X163672857Y-80344285D01*
X163730000Y-80230000D01*
X163844285Y-80172857D01*
X164015714Y-80172857D01*
X164130000Y-80115714D01*
X164187142Y-80001428D01*
X164187142Y-79944285D01*
X164130000Y-79830000D01*
X164015714Y-79772857D01*
X163844285Y-79772857D01*
X163730000Y-79830000D01*
X163158571Y-80572857D02*
X163158571Y-79772857D01*
X163158571Y-79372857D02*
X163215714Y-79430000D01*
X163158571Y-79487142D01*
X163101428Y-79430000D01*
X163158571Y-79372857D01*
X163158571Y-79487142D01*
X162644285Y-80515714D02*
X162530000Y-80572857D01*
X162301428Y-80572857D01*
X162187142Y-80515714D01*
X162130000Y-80401428D01*
X162130000Y-80344285D01*
X162187142Y-80230000D01*
X162301428Y-80172857D01*
X162472857Y-80172857D01*
X162587142Y-80115714D01*
X162644285Y-80001428D01*
X162644285Y-79944285D01*
X162587142Y-79830000D01*
X162472857Y-79772857D01*
X162301428Y-79772857D01*
X162187142Y-79830000D01*
X161787142Y-79772857D02*
X161330000Y-79772857D01*
X161615714Y-79372857D02*
X161615714Y-80401428D01*
X161558571Y-80515714D01*
X161444285Y-80572857D01*
X161330000Y-80572857D01*
X160930000Y-80572857D02*
X160930000Y-79772857D01*
X160930000Y-79372857D02*
X160987142Y-79430000D01*
X160930000Y-79487142D01*
X160872857Y-79430000D01*
X160930000Y-79372857D01*
X160930000Y-79487142D01*
X160472857Y-79772857D02*
X160187142Y-80572857D01*
X159901428Y-79772857D01*
X158987142Y-80515714D02*
X159101428Y-80572857D01*
X159330000Y-80572857D01*
X159444285Y-80515714D01*
X159501428Y-80401428D01*
X159501428Y-79944285D01*
X159444285Y-79830000D01*
X159330000Y-79772857D01*
X159101428Y-79772857D01*
X158987142Y-79830000D01*
X158930000Y-79944285D01*
X158930000Y-80058571D01*
X159501428Y-80172857D01*
X157558571Y-80515714D02*
X157444285Y-80572857D01*
X157215714Y-80572857D01*
X157101428Y-80515714D01*
X157044285Y-80401428D01*
X157044285Y-80344285D01*
X157101428Y-80230000D01*
X157215714Y-80172857D01*
X157387142Y-80172857D01*
X157501428Y-80115714D01*
X157558571Y-80001428D01*
X157558571Y-79944285D01*
X157501428Y-79830000D01*
X157387142Y-79772857D01*
X157215714Y-79772857D01*
X157101428Y-79830000D01*
X156530000Y-80572857D02*
X156530000Y-79372857D01*
X156015714Y-80572857D02*
X156015714Y-79944285D01*
X156072857Y-79830000D01*
X156187142Y-79772857D01*
X156358571Y-79772857D01*
X156472857Y-79830000D01*
X156530000Y-79887142D01*
X154930000Y-79772857D02*
X154930000Y-80572857D01*
X155444285Y-79772857D02*
X155444285Y-80401428D01*
X155387142Y-80515714D01*
X155272857Y-80572857D01*
X155101428Y-80572857D01*
X154987142Y-80515714D01*
X154930000Y-80458571D01*
X154358571Y-79772857D02*
X154358571Y-80572857D01*
X154358571Y-79887142D02*
X154301428Y-79830000D01*
X154187142Y-79772857D01*
X154015714Y-79772857D01*
X153901428Y-79830000D01*
X153844285Y-79944285D01*
X153844285Y-80572857D01*
X153444285Y-79772857D02*
X152987142Y-79772857D01*
X153272857Y-79372857D02*
X153272857Y-80401428D01*
X153215714Y-80515714D01*
X153101428Y-80572857D01*
X152987142Y-80572857D01*
X151730000Y-80515714D02*
X151615714Y-80572857D01*
X151387142Y-80572857D01*
X151272857Y-80515714D01*
X151215714Y-80401428D01*
X151215714Y-80344285D01*
X151272857Y-80230000D01*
X151387142Y-80172857D01*
X151558571Y-80172857D01*
X151672857Y-80115714D01*
X151730000Y-80001428D01*
X151730000Y-79944285D01*
X151672857Y-79830000D01*
X151558571Y-79772857D01*
X151387142Y-79772857D01*
X151272857Y-79830000D01*
X150244285Y-80515714D02*
X150358571Y-80572857D01*
X150587142Y-80572857D01*
X150701428Y-80515714D01*
X150758571Y-80401428D01*
X150758571Y-79944285D01*
X150701428Y-79830000D01*
X150587142Y-79772857D01*
X150358571Y-79772857D01*
X150244285Y-79830000D01*
X150187142Y-79944285D01*
X150187142Y-80058571D01*
X150758571Y-80172857D01*
X149672857Y-79772857D02*
X149672857Y-80572857D01*
X149672857Y-79887142D02*
X149615714Y-79830000D01*
X149501428Y-79772857D01*
X149330000Y-79772857D01*
X149215714Y-79830000D01*
X149158571Y-79944285D01*
X149158571Y-80572857D01*
X148644285Y-80515714D02*
X148530000Y-80572857D01*
X148301428Y-80572857D01*
X148187142Y-80515714D01*
X148130000Y-80401428D01*
X148130000Y-80344285D01*
X148187142Y-80230000D01*
X148301428Y-80172857D01*
X148472857Y-80172857D01*
X148587142Y-80115714D01*
X148644285Y-80001428D01*
X148644285Y-79944285D01*
X148587142Y-79830000D01*
X148472857Y-79772857D01*
X148301428Y-79772857D01*
X148187142Y-79830000D01*
X147158571Y-80515714D02*
X147272857Y-80572857D01*
X147501428Y-80572857D01*
X147615714Y-80515714D01*
X147672857Y-80401428D01*
X147672857Y-79944285D01*
X147615714Y-79830000D01*
X147501428Y-79772857D01*
X147272857Y-79772857D01*
X147158571Y-79830000D01*
X147101428Y-79944285D01*
X147101428Y-80058571D01*
X147672857Y-80172857D01*
X173787142Y-82515714D02*
X173901428Y-82572857D01*
X174130000Y-82572857D01*
X174244285Y-82515714D01*
X174301428Y-82401428D01*
X174301428Y-81944285D01*
X174244285Y-81830000D01*
X174130000Y-81772857D01*
X173901428Y-81772857D01*
X173787142Y-81830000D01*
X173730000Y-81944285D01*
X173730000Y-82058571D01*
X174301428Y-82172857D01*
X173044285Y-82572857D02*
X173158571Y-82515714D01*
X173215714Y-82401428D01*
X173215714Y-81372857D01*
X172130000Y-82515714D02*
X172244285Y-82572857D01*
X172472857Y-82572857D01*
X172587142Y-82515714D01*
X172644285Y-82401428D01*
X172644285Y-81944285D01*
X172587142Y-81830000D01*
X172472857Y-81772857D01*
X172244285Y-81772857D01*
X172130000Y-81830000D01*
X172072857Y-81944285D01*
X172072857Y-82058571D01*
X172644285Y-82172857D01*
X171558571Y-82572857D02*
X171558571Y-81772857D01*
X171558571Y-81887142D02*
X171501428Y-81830000D01*
X171387142Y-81772857D01*
X171215714Y-81772857D01*
X171101428Y-81830000D01*
X171044285Y-81944285D01*
X171044285Y-82572857D01*
X171044285Y-81944285D02*
X170987142Y-81830000D01*
X170872857Y-81772857D01*
X170701428Y-81772857D01*
X170587142Y-81830000D01*
X170530000Y-81944285D01*
X170530000Y-82572857D01*
X169501428Y-82515714D02*
X169615714Y-82572857D01*
X169844285Y-82572857D01*
X169958571Y-82515714D01*
X170015714Y-82401428D01*
X170015714Y-81944285D01*
X169958571Y-81830000D01*
X169844285Y-81772857D01*
X169615714Y-81772857D01*
X169501428Y-81830000D01*
X169444285Y-81944285D01*
X169444285Y-82058571D01*
X170015714Y-82172857D01*
X168930000Y-81772857D02*
X168930000Y-82572857D01*
X168930000Y-81887142D02*
X168872857Y-81830000D01*
X168758571Y-81772857D01*
X168587142Y-81772857D01*
X168472857Y-81830000D01*
X168415714Y-81944285D01*
X168415714Y-82572857D01*
X168015714Y-81772857D02*
X167558571Y-81772857D01*
X167844285Y-81372857D02*
X167844285Y-82401428D01*
X167787142Y-82515714D01*
X167672857Y-82572857D01*
X167558571Y-82572857D01*
X166358571Y-81772857D02*
X166130000Y-82572857D01*
X165901428Y-82001428D01*
X165672857Y-82572857D01*
X165444285Y-81772857D01*
X164987142Y-82572857D02*
X164987142Y-81772857D01*
X164987142Y-81372857D02*
X165044285Y-81430000D01*
X164987142Y-81487142D01*
X164930000Y-81430000D01*
X164987142Y-81372857D01*
X164987142Y-81487142D01*
X164587142Y-81772857D02*
X164130000Y-81772857D01*
X164415714Y-81372857D02*
X164415714Y-82401428D01*
X164358571Y-82515714D01*
X164244285Y-82572857D01*
X164130000Y-82572857D01*
X163730000Y-82572857D02*
X163730000Y-81372857D01*
X163215714Y-82572857D02*
X163215714Y-81944285D01*
X163272857Y-81830000D01*
X163387142Y-81772857D01*
X163558571Y-81772857D01*
X163672857Y-81830000D01*
X163730000Y-81887142D01*
X161215714Y-82515714D02*
X161330000Y-82572857D01*
X161558571Y-82572857D01*
X161672857Y-82515714D01*
X161730000Y-82458571D01*
X161787142Y-82344285D01*
X161787142Y-82001428D01*
X161730000Y-81887142D01*
X161672857Y-81830000D01*
X161558571Y-81772857D01*
X161330000Y-81772857D01*
X161215714Y-81830000D01*
X160530000Y-82572857D02*
X160644285Y-82515714D01*
X160701428Y-82458571D01*
X160758571Y-82344285D01*
X160758571Y-82001428D01*
X160701428Y-81887142D01*
X160644285Y-81830000D01*
X160530000Y-81772857D01*
X160358571Y-81772857D01*
X160244285Y-81830000D01*
X160187142Y-81887142D01*
X160130000Y-82001428D01*
X160130000Y-82344285D01*
X160187142Y-82458571D01*
X160244285Y-82515714D01*
X160358571Y-82572857D01*
X160530000Y-82572857D01*
X159615714Y-82572857D02*
X159615714Y-81772857D01*
X159615714Y-81887142D02*
X159558571Y-81830000D01*
X159444285Y-81772857D01*
X159272857Y-81772857D01*
X159158571Y-81830000D01*
X159101428Y-81944285D01*
X159101428Y-82572857D01*
X159101428Y-81944285D02*
X159044285Y-81830000D01*
X158930000Y-81772857D01*
X158758571Y-81772857D01*
X158644285Y-81830000D01*
X158587142Y-81944285D01*
X158587142Y-82572857D01*
X158015714Y-82572857D02*
X158015714Y-81772857D01*
X158015714Y-81887142D02*
X157958571Y-81830000D01*
X157844285Y-81772857D01*
X157672857Y-81772857D01*
X157558571Y-81830000D01*
X157501428Y-81944285D01*
X157501428Y-82572857D01*
X157501428Y-81944285D02*
X157444285Y-81830000D01*
X157330000Y-81772857D01*
X157158571Y-81772857D01*
X157044285Y-81830000D01*
X156987142Y-81944285D01*
X156987142Y-82572857D01*
X156244285Y-82572857D02*
X156358571Y-82515714D01*
X156415714Y-82458571D01*
X156472857Y-82344285D01*
X156472857Y-82001428D01*
X156415714Y-81887142D01*
X156358571Y-81830000D01*
X156244285Y-81772857D01*
X156072857Y-81772857D01*
X155958571Y-81830000D01*
X155901428Y-81887142D01*
X155844285Y-82001428D01*
X155844285Y-82344285D01*
X155901428Y-82458571D01*
X155958571Y-82515714D01*
X156072857Y-82572857D01*
X156244285Y-82572857D01*
X155330000Y-81772857D02*
X155330000Y-82572857D01*
X155330000Y-81887142D02*
X155272857Y-81830000D01*
X155158571Y-81772857D01*
X154987142Y-81772857D01*
X154872857Y-81830000D01*
X154815714Y-81944285D01*
X154815714Y-82572857D01*
X154244285Y-82115714D02*
X153330000Y-82115714D01*
X152758571Y-82572857D02*
X152758571Y-81772857D01*
X152758571Y-81887142D02*
X152701428Y-81830000D01*
X152587142Y-81772857D01*
X152415714Y-81772857D01*
X152301428Y-81830000D01*
X152244285Y-81944285D01*
X152244285Y-82572857D01*
X152244285Y-81944285D02*
X152187142Y-81830000D01*
X152072857Y-81772857D01*
X151901428Y-81772857D01*
X151787142Y-81830000D01*
X151730000Y-81944285D01*
X151730000Y-82572857D01*
X150987142Y-82572857D02*
X151101428Y-82515714D01*
X151158571Y-82458571D01*
X151215714Y-82344285D01*
X151215714Y-82001428D01*
X151158571Y-81887142D01*
X151101428Y-81830000D01*
X150987142Y-81772857D01*
X150815714Y-81772857D01*
X150701428Y-81830000D01*
X150644285Y-81887142D01*
X150587142Y-82001428D01*
X150587142Y-82344285D01*
X150644285Y-82458571D01*
X150701428Y-82515714D01*
X150815714Y-82572857D01*
X150987142Y-82572857D01*
X149558571Y-82572857D02*
X149558571Y-81372857D01*
X149558571Y-82515714D02*
X149672857Y-82572857D01*
X149901428Y-82572857D01*
X150015714Y-82515714D01*
X150072857Y-82458571D01*
X150130000Y-82344285D01*
X150130000Y-82001428D01*
X150072857Y-81887142D01*
X150015714Y-81830000D01*
X149901428Y-81772857D01*
X149672857Y-81772857D01*
X149558571Y-81830000D01*
X148530000Y-82515714D02*
X148644285Y-82572857D01*
X148872857Y-82572857D01*
X148987142Y-82515714D01*
X149044285Y-82401428D01*
X149044285Y-81944285D01*
X148987142Y-81830000D01*
X148872857Y-81772857D01*
X148644285Y-81772857D01*
X148530000Y-81830000D01*
X148472857Y-81944285D01*
X148472857Y-82058571D01*
X149044285Y-82172857D01*
X178501428Y-83772857D02*
X178215714Y-84572857D01*
X177930000Y-83772857D01*
X177301428Y-84572857D02*
X177415714Y-84515714D01*
X177472857Y-84458571D01*
X177530000Y-84344285D01*
X177530000Y-84001428D01*
X177472857Y-83887142D01*
X177415714Y-83830000D01*
X177301428Y-83772857D01*
X177130000Y-83772857D01*
X177015714Y-83830000D01*
X176958571Y-83887142D01*
X176901428Y-84001428D01*
X176901428Y-84344285D01*
X176958571Y-84458571D01*
X177015714Y-84515714D01*
X177130000Y-84572857D01*
X177301428Y-84572857D01*
X176215714Y-84572857D02*
X176330000Y-84515714D01*
X176387142Y-84401428D01*
X176387142Y-83372857D01*
X175930000Y-83772857D02*
X175472857Y-83772857D01*
X175758571Y-83372857D02*
X175758571Y-84401428D01*
X175701428Y-84515714D01*
X175587142Y-84572857D01*
X175472857Y-84572857D01*
X174558571Y-84572857D02*
X174558571Y-83944285D01*
X174615714Y-83830000D01*
X174730000Y-83772857D01*
X174958571Y-83772857D01*
X175072857Y-83830000D01*
X174558571Y-84515714D02*
X174672857Y-84572857D01*
X174958571Y-84572857D01*
X175072857Y-84515714D01*
X175130000Y-84401428D01*
X175130000Y-84287142D01*
X175072857Y-84172857D01*
X174958571Y-84115714D01*
X174672857Y-84115714D01*
X174558571Y-84058571D01*
X173472857Y-83772857D02*
X173472857Y-84744285D01*
X173530000Y-84858571D01*
X173587142Y-84915714D01*
X173701428Y-84972857D01*
X173872857Y-84972857D01*
X173987142Y-84915714D01*
X173472857Y-84515714D02*
X173587142Y-84572857D01*
X173815714Y-84572857D01*
X173930000Y-84515714D01*
X173987142Y-84458571D01*
X174044285Y-84344285D01*
X174044285Y-84001428D01*
X173987142Y-83887142D01*
X173930000Y-83830000D01*
X173815714Y-83772857D01*
X173587142Y-83772857D01*
X173472857Y-83830000D01*
X172444285Y-84515714D02*
X172558571Y-84572857D01*
X172787142Y-84572857D01*
X172901428Y-84515714D01*
X172958571Y-84401428D01*
X172958571Y-83944285D01*
X172901428Y-83830000D01*
X172787142Y-83772857D01*
X172558571Y-83772857D01*
X172444285Y-83830000D01*
X172387142Y-83944285D01*
X172387142Y-84058571D01*
X172958571Y-84172857D01*
X171015714Y-84515714D02*
X170901428Y-84572857D01*
X170672857Y-84572857D01*
X170558571Y-84515714D01*
X170501428Y-84401428D01*
X170501428Y-84344285D01*
X170558571Y-84230000D01*
X170672857Y-84172857D01*
X170844285Y-84172857D01*
X170958571Y-84115714D01*
X171015714Y-84001428D01*
X171015714Y-83944285D01*
X170958571Y-83830000D01*
X170844285Y-83772857D01*
X170672857Y-83772857D01*
X170558571Y-83830000D01*
X169472857Y-83772857D02*
X169472857Y-84572857D01*
X169987142Y-83772857D02*
X169987142Y-84401428D01*
X169930000Y-84515714D01*
X169815714Y-84572857D01*
X169644285Y-84572857D01*
X169530000Y-84515714D01*
X169472857Y-84458571D01*
X168901428Y-83772857D02*
X168901428Y-84972857D01*
X168901428Y-83830000D02*
X168787142Y-83772857D01*
X168558571Y-83772857D01*
X168444285Y-83830000D01*
X168387142Y-83887142D01*
X168330000Y-84001428D01*
X168330000Y-84344285D01*
X168387142Y-84458571D01*
X168444285Y-84515714D01*
X168558571Y-84572857D01*
X168787142Y-84572857D01*
X168901428Y-84515714D01*
X167815714Y-83772857D02*
X167815714Y-84972857D01*
X167815714Y-83830000D02*
X167701428Y-83772857D01*
X167472857Y-83772857D01*
X167358571Y-83830000D01*
X167301428Y-83887142D01*
X167244285Y-84001428D01*
X167244285Y-84344285D01*
X167301428Y-84458571D01*
X167358571Y-84515714D01*
X167472857Y-84572857D01*
X167701428Y-84572857D01*
X167815714Y-84515714D01*
X166558571Y-84572857D02*
X166672857Y-84515714D01*
X166730000Y-84458571D01*
X166787142Y-84344285D01*
X166787142Y-84001428D01*
X166730000Y-83887142D01*
X166672857Y-83830000D01*
X166558571Y-83772857D01*
X166387142Y-83772857D01*
X166272857Y-83830000D01*
X166215714Y-83887142D01*
X166158571Y-84001428D01*
X166158571Y-84344285D01*
X166215714Y-84458571D01*
X166272857Y-84515714D01*
X166387142Y-84572857D01*
X166558571Y-84572857D01*
X165644285Y-84572857D02*
X165644285Y-83772857D01*
X165644285Y-84001428D02*
X165587142Y-83887142D01*
X165530000Y-83830000D01*
X165415714Y-83772857D01*
X165301428Y-83772857D01*
X165072857Y-83772857D02*
X164615714Y-83772857D01*
X164901428Y-83372857D02*
X164901428Y-84401428D01*
X164844285Y-84515714D01*
X164730000Y-84572857D01*
X164615714Y-84572857D01*
X163472857Y-83772857D02*
X163015714Y-83772857D01*
X163301428Y-84572857D02*
X163301428Y-83544285D01*
X163244285Y-83430000D01*
X163130000Y-83372857D01*
X163015714Y-83372857D01*
X162615714Y-84572857D02*
X162615714Y-83772857D01*
X162615714Y-84001428D02*
X162558571Y-83887142D01*
X162501428Y-83830000D01*
X162387142Y-83772857D01*
X162272857Y-83772857D01*
X161701428Y-84572857D02*
X161815714Y-84515714D01*
X161872857Y-84458571D01*
X161930000Y-84344285D01*
X161930000Y-84001428D01*
X161872857Y-83887142D01*
X161815714Y-83830000D01*
X161701428Y-83772857D01*
X161530000Y-83772857D01*
X161415714Y-83830000D01*
X161358571Y-83887142D01*
X161301428Y-84001428D01*
X161301428Y-84344285D01*
X161358571Y-84458571D01*
X161415714Y-84515714D01*
X161530000Y-84572857D01*
X161701428Y-84572857D01*
X160787142Y-84572857D02*
X160787142Y-83772857D01*
X160787142Y-83887142D02*
X160730000Y-83830000D01*
X160615714Y-83772857D01*
X160444285Y-83772857D01*
X160330000Y-83830000D01*
X160272857Y-83944285D01*
X160272857Y-84572857D01*
X160272857Y-83944285D02*
X160215714Y-83830000D01*
X160101428Y-83772857D01*
X159930000Y-83772857D01*
X159815714Y-83830000D01*
X159758571Y-83944285D01*
X159758571Y-84572857D01*
X157987142Y-84172857D02*
X158444285Y-84172857D01*
X157358571Y-83372857D02*
X157244285Y-83372857D01*
X157130000Y-83430000D01*
X157072857Y-83487142D01*
X157015714Y-83601428D01*
X156958571Y-83830000D01*
X156958571Y-84115714D01*
X157015714Y-84344285D01*
X157072857Y-84458571D01*
X157130000Y-84515714D01*
X157244285Y-84572857D01*
X157358571Y-84572857D01*
X157472857Y-84515714D01*
X157530000Y-84458571D01*
X157587142Y-84344285D01*
X157644285Y-84115714D01*
X157644285Y-83830000D01*
X157587142Y-83601428D01*
X157530000Y-83487142D01*
X157472857Y-83430000D01*
X157358571Y-83372857D01*
X156444285Y-84458571D02*
X156387142Y-84515714D01*
X156444285Y-84572857D01*
X156501428Y-84515714D01*
X156444285Y-84458571D01*
X156444285Y-84572857D01*
X155987142Y-83372857D02*
X155244285Y-83372857D01*
X155644285Y-83830000D01*
X155472857Y-83830000D01*
X155358571Y-83887142D01*
X155301428Y-83944285D01*
X155244285Y-84058571D01*
X155244285Y-84344285D01*
X155301428Y-84458571D01*
X155358571Y-84515714D01*
X155472857Y-84572857D01*
X155815714Y-84572857D01*
X155930000Y-84515714D01*
X155987142Y-84458571D01*
X153987142Y-83372857D02*
X153587142Y-84572857D01*
X153187142Y-83372857D01*
X152044285Y-83772857D02*
X151587142Y-83772857D01*
X151872857Y-83372857D02*
X151872857Y-84401428D01*
X151815714Y-84515714D01*
X151701428Y-84572857D01*
X151587142Y-84572857D01*
X151015714Y-84572857D02*
X151130000Y-84515714D01*
X151187142Y-84458571D01*
X151244285Y-84344285D01*
X151244285Y-84001428D01*
X151187142Y-83887142D01*
X151130000Y-83830000D01*
X151015714Y-83772857D01*
X150844285Y-83772857D01*
X150730000Y-83830000D01*
X150672857Y-83887142D01*
X150615714Y-84001428D01*
X150615714Y-84344285D01*
X150672857Y-84458571D01*
X150730000Y-84515714D01*
X150844285Y-84572857D01*
X151015714Y-84572857D01*
X149187142Y-84115714D02*
X148272857Y-84115714D01*
X148730000Y-84572857D02*
X148730000Y-83658571D01*
X147530000Y-83887142D02*
X147644285Y-83830000D01*
X147701428Y-83772857D01*
X147758571Y-83658571D01*
X147758571Y-83601428D01*
X147701428Y-83487142D01*
X147644285Y-83430000D01*
X147530000Y-83372857D01*
X147301428Y-83372857D01*
X147187142Y-83430000D01*
X147130000Y-83487142D01*
X147072857Y-83601428D01*
X147072857Y-83658571D01*
X147130000Y-83772857D01*
X147187142Y-83830000D01*
X147301428Y-83887142D01*
X147530000Y-83887142D01*
X147644285Y-83944285D01*
X147701428Y-84001428D01*
X147758571Y-84115714D01*
X147758571Y-84344285D01*
X147701428Y-84458571D01*
X147644285Y-84515714D01*
X147530000Y-84572857D01*
X147301428Y-84572857D01*
X147187142Y-84515714D01*
X147130000Y-84458571D01*
X147072857Y-84344285D01*
X147072857Y-84115714D01*
X147130000Y-84001428D01*
X147187142Y-83944285D01*
X147301428Y-83887142D01*
X145987142Y-83372857D02*
X146558571Y-83372857D01*
X146615714Y-83944285D01*
X146558571Y-83887142D01*
X146444285Y-83830000D01*
X146158571Y-83830000D01*
X146044285Y-83887142D01*
X145987142Y-83944285D01*
X145930000Y-84058571D01*
X145930000Y-84344285D01*
X145987142Y-84458571D01*
X146044285Y-84515714D01*
X146158571Y-84572857D01*
X146444285Y-84572857D01*
X146558571Y-84515714D01*
X146615714Y-84458571D01*
X144672857Y-83372857D02*
X144272857Y-84572857D01*
X143872857Y-83372857D01*
X143472857Y-84458571D02*
X143415714Y-84515714D01*
X143472857Y-84572857D01*
X143530000Y-84515714D01*
X143472857Y-84458571D01*
X143472857Y-84572857D01*
D10*
X200840476Y-118452380D02*
X200269047Y-118452380D01*
X200554761Y-119452380D02*
X200554761Y-118452380D01*
X199459523Y-119452380D02*
X199935714Y-119452380D01*
X199935714Y-118452380D01*
X199126190Y-119452380D02*
X199126190Y-118452380D01*
X198745238Y-118452380D01*
X198650000Y-118500000D01*
X198602380Y-118547619D01*
X198554761Y-118642857D01*
X198554761Y-118785714D01*
X198602380Y-118880952D01*
X198650000Y-118928571D01*
X198745238Y-118976190D01*
X199126190Y-118976190D01*
X197602380Y-119452380D02*
X198173809Y-119452380D01*
X197888095Y-119452380D02*
X197888095Y-118452380D01*
X197983333Y-118595238D01*
X198078571Y-118690476D01*
X198173809Y-118738095D01*
X197269047Y-118452380D02*
X196602380Y-118452380D01*
X197030952Y-119452380D01*
X196269047Y-118547619D02*
X196221428Y-118500000D01*
X196126190Y-118452380D01*
X195888095Y-118452380D01*
X195792857Y-118500000D01*
X195745238Y-118547619D01*
X195697619Y-118642857D01*
X195697619Y-118738095D01*
X195745238Y-118880952D01*
X196316666Y-119452380D01*
X195697619Y-119452380D01*
X194745238Y-118500000D02*
X194840476Y-118452380D01*
X194983333Y-118452380D01*
X195126190Y-118500000D01*
X195221428Y-118595238D01*
X195269047Y-118690476D01*
X195316666Y-118880952D01*
X195316666Y-119023809D01*
X195269047Y-119214285D01*
X195221428Y-119309523D01*
X195126190Y-119404761D01*
X194983333Y-119452380D01*
X194888095Y-119452380D01*
X194745238Y-119404761D01*
X194697619Y-119357142D01*
X194697619Y-119023809D01*
X194888095Y-119023809D01*
X194269047Y-119452380D02*
X194269047Y-118452380D01*
X193935714Y-119166666D01*
X193602380Y-118452380D01*
X193602380Y-119452380D01*
X193414285Y-125752380D02*
X193985714Y-125752380D01*
X193700000Y-125752380D02*
X193700000Y-124752380D01*
X193795238Y-124895238D01*
X193890476Y-124990476D01*
X193985714Y-125038095D01*
X212245238Y-107102380D02*
X212721428Y-107102380D01*
X212721428Y-106102380D01*
X211911904Y-107102380D02*
X211911904Y-106102380D01*
X211578571Y-106816666D01*
X211245238Y-106102380D01*
X211245238Y-107102380D01*
X210292857Y-106102380D02*
X210769047Y-106102380D01*
X210816666Y-106578571D01*
X210769047Y-106530952D01*
X210673809Y-106483333D01*
X210435714Y-106483333D01*
X210340476Y-106530952D01*
X210292857Y-106578571D01*
X210245238Y-106673809D01*
X210245238Y-106911904D01*
X210292857Y-107007142D01*
X210340476Y-107054761D01*
X210435714Y-107102380D01*
X210673809Y-107102380D01*
X210769047Y-107054761D01*
X210816666Y-107007142D01*
X209626190Y-106102380D02*
X209530952Y-106102380D01*
X209435714Y-106150000D01*
X209388095Y-106197619D01*
X209340476Y-106292857D01*
X209292857Y-106483333D01*
X209292857Y-106721428D01*
X209340476Y-106911904D01*
X209388095Y-107007142D01*
X209435714Y-107054761D01*
X209530952Y-107102380D01*
X209626190Y-107102380D01*
X209721428Y-107054761D01*
X209769047Y-107007142D01*
X209816666Y-106911904D01*
X209864285Y-106721428D01*
X209864285Y-106483333D01*
X209816666Y-106292857D01*
X209769047Y-106197619D01*
X209721428Y-106150000D01*
X209626190Y-106102380D01*
X208673809Y-106102380D02*
X208578571Y-106102380D01*
X208483333Y-106150000D01*
X208435714Y-106197619D01*
X208388095Y-106292857D01*
X208340476Y-106483333D01*
X208340476Y-106721428D01*
X208388095Y-106911904D01*
X208435714Y-107007142D01*
X208483333Y-107054761D01*
X208578571Y-107102380D01*
X208673809Y-107102380D01*
X208769047Y-107054761D01*
X208816666Y-107007142D01*
X208864285Y-106911904D01*
X208911904Y-106721428D01*
X208911904Y-106483333D01*
X208864285Y-106292857D01*
X208816666Y-106197619D01*
X208769047Y-106150000D01*
X208673809Y-106102380D01*
X207864285Y-107102380D02*
X207673809Y-107102380D01*
X207578571Y-107054761D01*
X207530952Y-107007142D01*
X207435714Y-106864285D01*
X207388095Y-106673809D01*
X207388095Y-106292857D01*
X207435714Y-106197619D01*
X207483333Y-106150000D01*
X207578571Y-106102380D01*
X207769047Y-106102380D01*
X207864285Y-106150000D01*
X207911904Y-106197619D01*
X207959523Y-106292857D01*
X207959523Y-106530952D01*
X207911904Y-106626190D01*
X207864285Y-106673809D01*
X207769047Y-106721428D01*
X207578571Y-106721428D01*
X207483333Y-106673809D01*
X207435714Y-106626190D01*
X207388095Y-106530952D01*
X207007142Y-106816666D02*
X206530952Y-106816666D01*
X207102380Y-107102380D02*
X206769047Y-106102380D01*
X206435714Y-107102380D01*
X175780952Y-118666666D02*
X175304761Y-118666666D01*
X175876190Y-118952380D02*
X175542857Y-117952380D01*
X175209523Y-118952380D01*
X175019047Y-117952380D02*
X174447619Y-117952380D01*
X174733333Y-118952380D02*
X174733333Y-117952380D01*
X174257142Y-118285714D02*
X173876190Y-118285714D01*
X174114285Y-117952380D02*
X174114285Y-118809523D01*
X174066666Y-118904761D01*
X173971428Y-118952380D01*
X173876190Y-118952380D01*
X173542857Y-118952380D02*
X173542857Y-118285714D01*
X173542857Y-117952380D02*
X173590476Y-118000000D01*
X173542857Y-118047619D01*
X173495238Y-118000000D01*
X173542857Y-117952380D01*
X173542857Y-118047619D01*
X173066666Y-118285714D02*
X173066666Y-118952380D01*
X173066666Y-118380952D02*
X173019047Y-118333333D01*
X172923809Y-118285714D01*
X172780952Y-118285714D01*
X172685714Y-118333333D01*
X172638095Y-118428571D01*
X172638095Y-118952380D01*
X172257142Y-118285714D02*
X172019047Y-118952380D01*
X171780952Y-118285714D02*
X172019047Y-118952380D01*
X172114285Y-119190476D01*
X172161904Y-119238095D01*
X172257142Y-119285714D01*
X170876190Y-118952380D02*
X171447619Y-118952380D01*
X171161904Y-118952380D02*
X171161904Y-117952380D01*
X171257142Y-118095238D01*
X171352380Y-118190476D01*
X171447619Y-118238095D01*
X170019047Y-117952380D02*
X170209523Y-117952380D01*
X170304761Y-118000000D01*
X170352380Y-118047619D01*
X170447619Y-118190476D01*
X170495238Y-118380952D01*
X170495238Y-118761904D01*
X170447619Y-118857142D01*
X170400000Y-118904761D01*
X170304761Y-118952380D01*
X170114285Y-118952380D01*
X170019047Y-118904761D01*
X169971428Y-118857142D01*
X169923809Y-118761904D01*
X169923809Y-118523809D01*
X169971428Y-118428571D01*
X170019047Y-118380952D01*
X170114285Y-118333333D01*
X170304761Y-118333333D01*
X170400000Y-118380952D01*
X170447619Y-118428571D01*
X170495238Y-118523809D01*
X168971428Y-118952380D02*
X169542857Y-118952380D01*
X169257142Y-118952380D02*
X169257142Y-117952380D01*
X169352380Y-118095238D01*
X169447619Y-118190476D01*
X169542857Y-118238095D01*
X168114285Y-118285714D02*
X168114285Y-118952380D01*
X168352380Y-117904761D02*
X168590476Y-118619047D01*
X167971428Y-118619047D01*
X156190476Y-125916666D02*
X155714285Y-125916666D01*
X156285714Y-126202380D02*
X155952380Y-125202380D01*
X155619047Y-126202380D01*
X155285714Y-126202380D02*
X155285714Y-125202380D01*
X155047619Y-125202380D01*
X154904761Y-125250000D01*
X154809523Y-125345238D01*
X154761904Y-125440476D01*
X154714285Y-125630952D01*
X154714285Y-125773809D01*
X154761904Y-125964285D01*
X154809523Y-126059523D01*
X154904761Y-126154761D01*
X155047619Y-126202380D01*
X155285714Y-126202380D01*
X154285714Y-126202380D02*
X154285714Y-125202380D01*
X153952380Y-125916666D01*
X153619047Y-125202380D01*
X153619047Y-126202380D01*
X153190476Y-125297619D02*
X153142857Y-125250000D01*
X153047619Y-125202380D01*
X152809523Y-125202380D01*
X152714285Y-125250000D01*
X152666666Y-125297619D01*
X152619047Y-125392857D01*
X152619047Y-125488095D01*
X152666666Y-125630952D01*
X153238095Y-126202380D01*
X152619047Y-126202380D01*
X151761904Y-125535714D02*
X151761904Y-126202380D01*
X152000000Y-125154761D02*
X152238095Y-125869047D01*
X151619047Y-125869047D01*
X151095238Y-125630952D02*
X151190476Y-125583333D01*
X151238095Y-125535714D01*
X151285714Y-125440476D01*
X151285714Y-125392857D01*
X151238095Y-125297619D01*
X151190476Y-125250000D01*
X151095238Y-125202380D01*
X150904761Y-125202380D01*
X150809523Y-125250000D01*
X150761904Y-125297619D01*
X150714285Y-125392857D01*
X150714285Y-125440476D01*
X150761904Y-125535714D01*
X150809523Y-125583333D01*
X150904761Y-125630952D01*
X151095238Y-125630952D01*
X151190476Y-125678571D01*
X151238095Y-125726190D01*
X151285714Y-125821428D01*
X151285714Y-126011904D01*
X151238095Y-126107142D01*
X151190476Y-126154761D01*
X151095238Y-126202380D01*
X150904761Y-126202380D01*
X150809523Y-126154761D01*
X150761904Y-126107142D01*
X150714285Y-126011904D01*
X150714285Y-125821428D01*
X150761904Y-125726190D01*
X150809523Y-125678571D01*
X150904761Y-125630952D01*
X150380952Y-125202380D02*
X149761904Y-125202380D01*
X150095238Y-125583333D01*
X149952380Y-125583333D01*
X149857142Y-125630952D01*
X149809523Y-125678571D01*
X149761904Y-125773809D01*
X149761904Y-126011904D01*
X149809523Y-126107142D01*
X149857142Y-126154761D01*
X149952380Y-126202380D01*
X150238095Y-126202380D01*
X150333333Y-126154761D01*
X150380952Y-126107142D01*
X149428571Y-126202380D02*
X148904761Y-125535714D01*
X149428571Y-125535714D02*
X148904761Y-126202380D01*
X147952380Y-126202380D02*
X148285714Y-125726190D01*
X148523809Y-126202380D02*
X148523809Y-125202380D01*
X148142857Y-125202380D01*
X148047619Y-125250000D01*
X148000000Y-125297619D01*
X147952380Y-125392857D01*
X147952380Y-125535714D01*
X148000000Y-125630952D01*
X148047619Y-125678571D01*
X148142857Y-125726190D01*
X148523809Y-125726190D01*
X147619047Y-125202380D02*
X147380952Y-126202380D01*
X147190476Y-125488095D01*
X147000000Y-126202380D01*
X146761904Y-125202380D01*
X186580952Y-104002380D02*
X186580952Y-103002380D01*
X186104761Y-104002380D02*
X186104761Y-103002380D01*
X185533333Y-104002380D01*
X185533333Y-103002380D01*
X185104761Y-103716666D02*
X184628571Y-103716666D01*
X185200000Y-104002380D02*
X184866666Y-103002380D01*
X184533333Y-104002380D01*
X184247619Y-103097619D02*
X184200000Y-103050000D01*
X184104761Y-103002380D01*
X183866666Y-103002380D01*
X183771428Y-103050000D01*
X183723809Y-103097619D01*
X183676190Y-103192857D01*
X183676190Y-103288095D01*
X183723809Y-103430952D01*
X184295238Y-104002380D01*
X183676190Y-104002380D01*
X183295238Y-103097619D02*
X183247619Y-103050000D01*
X183152380Y-103002380D01*
X182914285Y-103002380D01*
X182819047Y-103050000D01*
X182771428Y-103097619D01*
X182723809Y-103192857D01*
X182723809Y-103288095D01*
X182771428Y-103430952D01*
X183342857Y-104002380D01*
X182723809Y-104002380D01*
X182152380Y-103430952D02*
X182247619Y-103383333D01*
X182295238Y-103335714D01*
X182342857Y-103240476D01*
X182342857Y-103192857D01*
X182295238Y-103097619D01*
X182247619Y-103050000D01*
X182152380Y-103002380D01*
X181961904Y-103002380D01*
X181866666Y-103050000D01*
X181819047Y-103097619D01*
X181771428Y-103192857D01*
X181771428Y-103240476D01*
X181819047Y-103335714D01*
X181866666Y-103383333D01*
X181961904Y-103430952D01*
X182152380Y-103430952D01*
X182247619Y-103478571D01*
X182295238Y-103526190D01*
X182342857Y-103621428D01*
X182342857Y-103811904D01*
X182295238Y-103907142D01*
X182247619Y-103954761D01*
X182152380Y-104002380D01*
X181961904Y-104002380D01*
X181866666Y-103954761D01*
X181819047Y-103907142D01*
X181771428Y-103811904D01*
X181771428Y-103621428D01*
X181819047Y-103526190D01*
X181866666Y-103478571D01*
X181961904Y-103430952D01*
X184834285Y-112242380D02*
X185405714Y-112242380D01*
X185120000Y-112242380D02*
X185120000Y-111242380D01*
X185215238Y-111385238D01*
X185310476Y-111480476D01*
X185405714Y-111528095D01*
X205734285Y-111232380D02*
X206305714Y-111232380D01*
X206020000Y-111232380D02*
X206020000Y-110232380D01*
X206115238Y-110375238D01*
X206210476Y-110470476D01*
X206305714Y-110518095D01*
X157014285Y-124012380D02*
X157585714Y-124012380D01*
X157300000Y-124012380D02*
X157300000Y-123012380D01*
X157395238Y-123155238D01*
X157490476Y-123250476D01*
X157585714Y-123298095D01*
X167814285Y-110052380D02*
X168385714Y-110052380D01*
X168100000Y-110052380D02*
X168100000Y-109052380D01*
X168195238Y-109195238D01*
X168290476Y-109290476D01*
X168385714Y-109338095D01*
D12*
X168522936Y-119365000D02*
X168977064Y-119365000D01*
X168522936Y-120835000D02*
X168977064Y-120835000D01*
X199600000Y-124200000D02*
X199600000Y-124050000D01*
X194800000Y-124200000D02*
X199600000Y-124200000D01*
X194800000Y-124050000D02*
X194800000Y-124200000D01*
X194800000Y-120200000D02*
X194800000Y-120350000D01*
X199600000Y-120200000D02*
X194800000Y-120200000D01*
X199600000Y-120350000D02*
X199600000Y-120200000D01*
X194800000Y-124050000D02*
X193100000Y-124050000D01*
X209700000Y-110760000D02*
X206775000Y-110760000D01*
X209700000Y-110760000D02*
X211200000Y-110760000D01*
X209700000Y-107540000D02*
X208200000Y-107540000D01*
X209700000Y-107540000D02*
X211200000Y-107540000D01*
X156505000Y-122010000D02*
X156505000Y-123825000D01*
X156760000Y-122010000D02*
X156505000Y-122010000D01*
X156760000Y-118150000D02*
X156760000Y-122010000D01*
X156760000Y-114290000D02*
X156505000Y-114290000D01*
X156760000Y-118150000D02*
X156760000Y-114290000D01*
X146240000Y-122010000D02*
X146495000Y-122010000D01*
X146240000Y-118150000D02*
X146240000Y-122010000D01*
X146240000Y-114290000D02*
X146495000Y-114290000D01*
X146240000Y-118150000D02*
X146240000Y-114290000D01*
X185660000Y-107900000D02*
X185660000Y-110825000D01*
X185660000Y-107900000D02*
X185660000Y-106400000D01*
X182440000Y-107900000D02*
X182440000Y-109400000D01*
X182440000Y-107900000D02*
X182440000Y-106400000D01*
X167565000Y-114050000D02*
X167565000Y-110600000D01*
X167565000Y-114050000D02*
X167565000Y-116000000D01*
X176435000Y-114050000D02*
X176435000Y-112100000D01*
X176435000Y-114050000D02*
X176435000Y-116000000D01*
X164272936Y-108515000D02*
X164727064Y-108515000D01*
X164272936Y-109985000D02*
X164727064Y-109985000D01*
X164272936Y-105265000D02*
X164727064Y-105265000D01*
X164272936Y-106735000D02*
X164727064Y-106735000D01*
X144015000Y-118377064D02*
X144015000Y-117922936D01*
X145485000Y-118377064D02*
X145485000Y-117922936D01*
X160772936Y-108515000D02*
X161227064Y-108515000D01*
X160772936Y-109985000D02*
X161227064Y-109985000D01*
X179022936Y-117615000D02*
X179477064Y-117615000D01*
X179022936Y-119085000D02*
X179477064Y-119085000D01*
X181185000Y-107922936D02*
X181185000Y-108377064D01*
X179715000Y-107922936D02*
X179715000Y-108377064D01*
X179185000Y-107922936D02*
X179185000Y-108377064D01*
X177715000Y-107922936D02*
X177715000Y-108377064D01*
X186172936Y-118765000D02*
X186627064Y-118765000D01*
X186172936Y-120235000D02*
X186627064Y-120235000D01*
X203497064Y-112185000D02*
X203042936Y-112185000D01*
X203497064Y-110715000D02*
X203042936Y-110715000D01*
X203072936Y-108565000D02*
X203527064Y-108565000D01*
X203072936Y-110035000D02*
X203527064Y-110035000D01*
X209566269Y-113545000D02*
X210020397Y-113545000D01*
X209566269Y-115015000D02*
X210020397Y-115015000D01*
X207372936Y-103565000D02*
X207827064Y-103565000D01*
X207372936Y-105035000D02*
X207827064Y-105035000D01*
X215792936Y-105565000D02*
X216247064Y-105565000D01*
X215792936Y-107035000D02*
X216247064Y-107035000D01*
X176277064Y-105585000D02*
X175822936Y-105585000D01*
X176277064Y-104115000D02*
X175822936Y-104115000D01*
X191822936Y-104115000D02*
X192277064Y-104115000D01*
X191822936Y-105585000D02*
X192277064Y-105585000D01*
X157515000Y-114411252D02*
X157515000Y-113888748D01*
X158985000Y-114411252D02*
X158985000Y-113888748D01*
X145485000Y-121888748D02*
X145485000Y-122411252D01*
X144015000Y-121888748D02*
X144015000Y-122411252D01*
X203911252Y-106760000D02*
X202488748Y-106760000D01*
X203911252Y-104040000D02*
X202488748Y-104040000D01*
X213075414Y-113515000D02*
X213597918Y-113515000D01*
X213075414Y-114985000D02*
X213597918Y-114985000D01*
X216688748Y-113515000D02*
X217211252Y-113515000D01*
X216688748Y-114985000D02*
X217211252Y-114985000D01*
X205938748Y-113515000D02*
X206461252Y-113515000D01*
X205938748Y-114985000D02*
X206461252Y-114985000D01*
X215778748Y-109215000D02*
X216301252Y-109215000D01*
X215778748Y-110685000D02*
X216301252Y-110685000D01*
X224838748Y-104715000D02*
X225361252Y-104715000D01*
X224838748Y-106185000D02*
X225361252Y-106185000D01*
X220138748Y-104590000D02*
X221561252Y-104590000D01*
X220138748Y-106410000D02*
X221561252Y-106410000D01*
X164938748Y-115715000D02*
X165461252Y-115715000D01*
X164938748Y-117185000D02*
X165461252Y-117185000D01*
X189138748Y-108815000D02*
X189661252Y-108815000D01*
X189138748Y-110285000D02*
X189661252Y-110285000D01*
X164938748Y-117815000D02*
X165461252Y-117815000D01*
X164938748Y-119285000D02*
X165461252Y-119285000D01*
X189138748Y-111115000D02*
X189661252Y-111115000D01*
X189138748Y-112585000D02*
X189661252Y-112585000D01*
D10*
X172592857Y-120802380D02*
X172926190Y-120326190D01*
X173164285Y-120802380D02*
X173164285Y-119802380D01*
X172783333Y-119802380D01*
X172688095Y-119850000D01*
X172640476Y-119897619D01*
X172592857Y-119992857D01*
X172592857Y-120135714D01*
X172640476Y-120230952D01*
X172688095Y-120278571D01*
X172783333Y-120326190D01*
X173164285Y-120326190D01*
X171640476Y-120802380D02*
X172211904Y-120802380D01*
X171926190Y-120802380D02*
X171926190Y-119802380D01*
X172021428Y-119945238D01*
X172116666Y-120040476D01*
X172211904Y-120088095D01*
X170783333Y-119802380D02*
X170973809Y-119802380D01*
X171069047Y-119850000D01*
X171116666Y-119897619D01*
X171211904Y-120040476D01*
X171259523Y-120230952D01*
X171259523Y-120611904D01*
X171211904Y-120707142D01*
X171164285Y-120754761D01*
X171069047Y-120802380D01*
X170878571Y-120802380D01*
X170783333Y-120754761D01*
X170735714Y-120707142D01*
X170688095Y-120611904D01*
X170688095Y-120373809D01*
X170735714Y-120278571D01*
X170783333Y-120230952D01*
X170878571Y-120183333D01*
X171069047Y-120183333D01*
X171164285Y-120230952D01*
X171211904Y-120278571D01*
X171259523Y-120373809D01*
X197961904Y-124352380D02*
X197961904Y-125161904D01*
X197914285Y-125257142D01*
X197866666Y-125304761D01*
X197771428Y-125352380D01*
X197580952Y-125352380D01*
X197485714Y-125304761D01*
X197438095Y-125257142D01*
X197390476Y-125161904D01*
X197390476Y-124352380D01*
X196390476Y-125352380D02*
X196961904Y-125352380D01*
X196676190Y-125352380D02*
X196676190Y-124352380D01*
X196771428Y-124495238D01*
X196866666Y-124590476D01*
X196961904Y-124638095D01*
X210461904Y-111052380D02*
X210461904Y-111861904D01*
X210414285Y-111957142D01*
X210366666Y-112004761D01*
X210271428Y-112052380D01*
X210080952Y-112052380D01*
X209985714Y-112004761D01*
X209938095Y-111957142D01*
X209890476Y-111861904D01*
X209890476Y-111052380D01*
X208938095Y-111052380D02*
X209414285Y-111052380D01*
X209461904Y-111528571D01*
X209414285Y-111480952D01*
X209319047Y-111433333D01*
X209080952Y-111433333D01*
X208985714Y-111480952D01*
X208938095Y-111528571D01*
X208890476Y-111623809D01*
X208890476Y-111861904D01*
X208938095Y-111957142D01*
X208985714Y-112004761D01*
X209080952Y-112052380D01*
X209319047Y-112052380D01*
X209414285Y-112004761D01*
X209461904Y-111957142D01*
X157052380Y-117388095D02*
X157861904Y-117388095D01*
X157957142Y-117435714D01*
X158004761Y-117483333D01*
X158052380Y-117578571D01*
X158052380Y-117769047D01*
X158004761Y-117864285D01*
X157957142Y-117911904D01*
X157861904Y-117959523D01*
X157052380Y-117959523D01*
X157385714Y-118864285D02*
X158052380Y-118864285D01*
X157004761Y-118626190D02*
X157719047Y-118388095D01*
X157719047Y-119007142D01*
X185952380Y-107138095D02*
X186761904Y-107138095D01*
X186857142Y-107185714D01*
X186904761Y-107233333D01*
X186952380Y-107328571D01*
X186952380Y-107519047D01*
X186904761Y-107614285D01*
X186857142Y-107661904D01*
X186761904Y-107709523D01*
X185952380Y-107709523D01*
X185952380Y-108090476D02*
X185952380Y-108709523D01*
X186333333Y-108376190D01*
X186333333Y-108519047D01*
X186380952Y-108614285D01*
X186428571Y-108661904D01*
X186523809Y-108709523D01*
X186761904Y-108709523D01*
X186857142Y-108661904D01*
X186904761Y-108614285D01*
X186952380Y-108519047D01*
X186952380Y-108233333D01*
X186904761Y-108138095D01*
X186857142Y-108090476D01*
X176852380Y-113588095D02*
X177661904Y-113588095D01*
X177757142Y-113635714D01*
X177804761Y-113683333D01*
X177852380Y-113778571D01*
X177852380Y-113969047D01*
X177804761Y-114064285D01*
X177757142Y-114111904D01*
X177661904Y-114159523D01*
X176852380Y-114159523D01*
X176947619Y-114588095D02*
X176900000Y-114635714D01*
X176852380Y-114730952D01*
X176852380Y-114969047D01*
X176900000Y-115064285D01*
X176947619Y-115111904D01*
X177042857Y-115159523D01*
X177138095Y-115159523D01*
X177280952Y-115111904D01*
X177852380Y-114540476D01*
X177852380Y-115159523D01*
X165142857Y-111352380D02*
X165476190Y-110876190D01*
X165714285Y-111352380D02*
X165714285Y-110352380D01*
X165333333Y-110352380D01*
X165238095Y-110400000D01*
X165190476Y-110447619D01*
X165142857Y-110542857D01*
X165142857Y-110685714D01*
X165190476Y-110780952D01*
X165238095Y-110828571D01*
X165333333Y-110876190D01*
X165714285Y-110876190D01*
X164190476Y-111352380D02*
X164761904Y-111352380D01*
X164476190Y-111352380D02*
X164476190Y-110352380D01*
X164571428Y-110495238D01*
X164666666Y-110590476D01*
X164761904Y-110638095D01*
X163285714Y-110352380D02*
X163761904Y-110352380D01*
X163809523Y-110828571D01*
X163761904Y-110780952D01*
X163666666Y-110733333D01*
X163428571Y-110733333D01*
X163333333Y-110780952D01*
X163285714Y-110828571D01*
X163238095Y-110923809D01*
X163238095Y-111161904D01*
X163285714Y-111257142D01*
X163333333Y-111304761D01*
X163428571Y-111352380D01*
X163666666Y-111352380D01*
X163761904Y-111304761D01*
X163809523Y-111257142D01*
X165142857Y-108102380D02*
X165476190Y-107626190D01*
X165714285Y-108102380D02*
X165714285Y-107102380D01*
X165333333Y-107102380D01*
X165238095Y-107150000D01*
X165190476Y-107197619D01*
X165142857Y-107292857D01*
X165142857Y-107435714D01*
X165190476Y-107530952D01*
X165238095Y-107578571D01*
X165333333Y-107626190D01*
X165714285Y-107626190D01*
X164190476Y-108102380D02*
X164761904Y-108102380D01*
X164476190Y-108102380D02*
X164476190Y-107102380D01*
X164571428Y-107245238D01*
X164666666Y-107340476D01*
X164761904Y-107388095D01*
X163333333Y-107435714D02*
X163333333Y-108102380D01*
X163571428Y-107054761D02*
X163809523Y-107769047D01*
X163190476Y-107769047D01*
X146852380Y-117507142D02*
X146376190Y-117173809D01*
X146852380Y-116935714D02*
X145852380Y-116935714D01*
X145852380Y-117316666D01*
X145900000Y-117411904D01*
X145947619Y-117459523D01*
X146042857Y-117507142D01*
X146185714Y-117507142D01*
X146280952Y-117459523D01*
X146328571Y-117411904D01*
X146376190Y-117316666D01*
X146376190Y-116935714D01*
X146852380Y-118459523D02*
X146852380Y-117888095D01*
X146852380Y-118173809D02*
X145852380Y-118173809D01*
X145995238Y-118078571D01*
X146090476Y-117983333D01*
X146138095Y-117888095D01*
X145852380Y-118792857D02*
X145852380Y-119411904D01*
X146233333Y-119078571D01*
X146233333Y-119221428D01*
X146280952Y-119316666D01*
X146328571Y-119364285D01*
X146423809Y-119411904D01*
X146661904Y-119411904D01*
X146757142Y-119364285D01*
X146804761Y-119316666D01*
X146852380Y-119221428D01*
X146852380Y-118935714D01*
X146804761Y-118840476D01*
X146757142Y-118792857D01*
X161642857Y-111352380D02*
X161976190Y-110876190D01*
X162214285Y-111352380D02*
X162214285Y-110352380D01*
X161833333Y-110352380D01*
X161738095Y-110400000D01*
X161690476Y-110447619D01*
X161642857Y-110542857D01*
X161642857Y-110685714D01*
X161690476Y-110780952D01*
X161738095Y-110828571D01*
X161833333Y-110876190D01*
X162214285Y-110876190D01*
X160690476Y-111352380D02*
X161261904Y-111352380D01*
X160976190Y-111352380D02*
X160976190Y-110352380D01*
X161071428Y-110495238D01*
X161166666Y-110590476D01*
X161261904Y-110638095D01*
X160309523Y-110447619D02*
X160261904Y-110400000D01*
X160166666Y-110352380D01*
X159928571Y-110352380D01*
X159833333Y-110400000D01*
X159785714Y-110447619D01*
X159738095Y-110542857D01*
X159738095Y-110638095D01*
X159785714Y-110780952D01*
X160357142Y-111352380D01*
X159738095Y-111352380D01*
X179892857Y-120452380D02*
X180226190Y-119976190D01*
X180464285Y-120452380D02*
X180464285Y-119452380D01*
X180083333Y-119452380D01*
X179988095Y-119500000D01*
X179940476Y-119547619D01*
X179892857Y-119642857D01*
X179892857Y-119785714D01*
X179940476Y-119880952D01*
X179988095Y-119928571D01*
X180083333Y-119976190D01*
X180464285Y-119976190D01*
X178940476Y-120452380D02*
X179511904Y-120452380D01*
X179226190Y-120452380D02*
X179226190Y-119452380D01*
X179321428Y-119595238D01*
X179416666Y-119690476D01*
X179511904Y-119738095D01*
X177988095Y-120452380D02*
X178559523Y-120452380D01*
X178273809Y-120452380D02*
X178273809Y-119452380D01*
X178369047Y-119595238D01*
X178464285Y-119690476D01*
X178559523Y-119738095D01*
X180952380Y-104207142D02*
X180476190Y-103873809D01*
X180952380Y-103635714D02*
X179952380Y-103635714D01*
X179952380Y-104016666D01*
X180000000Y-104111904D01*
X180047619Y-104159523D01*
X180142857Y-104207142D01*
X180285714Y-104207142D01*
X180380952Y-104159523D01*
X180428571Y-104111904D01*
X180476190Y-104016666D01*
X180476190Y-103635714D01*
X180952380Y-105159523D02*
X180952380Y-104588095D01*
X180952380Y-104873809D02*
X179952380Y-104873809D01*
X180095238Y-104778571D01*
X180190476Y-104683333D01*
X180238095Y-104588095D01*
X179952380Y-105778571D02*
X179952380Y-105873809D01*
X180000000Y-105969047D01*
X180047619Y-106016666D01*
X180142857Y-106064285D01*
X180333333Y-106111904D01*
X180571428Y-106111904D01*
X180761904Y-106064285D01*
X180857142Y-106016666D01*
X180904761Y-105969047D01*
X180952380Y-105873809D01*
X180952380Y-105778571D01*
X180904761Y-105683333D01*
X180857142Y-105635714D01*
X180761904Y-105588095D01*
X180571428Y-105540476D01*
X180333333Y-105540476D01*
X180142857Y-105588095D01*
X180047619Y-105635714D01*
X180000000Y-105683333D01*
X179952380Y-105778571D01*
X179052380Y-105133333D02*
X178576190Y-104800000D01*
X179052380Y-104561904D02*
X178052380Y-104561904D01*
X178052380Y-104942857D01*
X178100000Y-105038095D01*
X178147619Y-105085714D01*
X178242857Y-105133333D01*
X178385714Y-105133333D01*
X178480952Y-105085714D01*
X178528571Y-105038095D01*
X178576190Y-104942857D01*
X178576190Y-104561904D01*
X179052380Y-105609523D02*
X179052380Y-105800000D01*
X179004761Y-105895238D01*
X178957142Y-105942857D01*
X178814285Y-106038095D01*
X178623809Y-106085714D01*
X178242857Y-106085714D01*
X178147619Y-106038095D01*
X178100000Y-105990476D01*
X178052380Y-105895238D01*
X178052380Y-105704761D01*
X178100000Y-105609523D01*
X178147619Y-105561904D01*
X178242857Y-105514285D01*
X178480952Y-105514285D01*
X178576190Y-105561904D01*
X178623809Y-105609523D01*
X178671428Y-105704761D01*
X178671428Y-105895238D01*
X178623809Y-105990476D01*
X178576190Y-106038095D01*
X178480952Y-106085714D01*
X186566666Y-121602380D02*
X186900000Y-121126190D01*
X187138095Y-121602380D02*
X187138095Y-120602380D01*
X186757142Y-120602380D01*
X186661904Y-120650000D01*
X186614285Y-120697619D01*
X186566666Y-120792857D01*
X186566666Y-120935714D01*
X186614285Y-121030952D01*
X186661904Y-121078571D01*
X186757142Y-121126190D01*
X187138095Y-121126190D01*
X185995238Y-121030952D02*
X186090476Y-120983333D01*
X186138095Y-120935714D01*
X186185714Y-120840476D01*
X186185714Y-120792857D01*
X186138095Y-120697619D01*
X186090476Y-120650000D01*
X185995238Y-120602380D01*
X185804761Y-120602380D01*
X185709523Y-120650000D01*
X185661904Y-120697619D01*
X185614285Y-120792857D01*
X185614285Y-120840476D01*
X185661904Y-120935714D01*
X185709523Y-120983333D01*
X185804761Y-121030952D01*
X185995238Y-121030952D01*
X186090476Y-121078571D01*
X186138095Y-121126190D01*
X186185714Y-121221428D01*
X186185714Y-121411904D01*
X186138095Y-121507142D01*
X186090476Y-121554761D01*
X185995238Y-121602380D01*
X185804761Y-121602380D01*
X185709523Y-121554761D01*
X185661904Y-121507142D01*
X185614285Y-121411904D01*
X185614285Y-121221428D01*
X185661904Y-121126190D01*
X185709523Y-121078571D01*
X185804761Y-121030952D01*
X200816666Y-112002380D02*
X201150000Y-111526190D01*
X201388095Y-112002380D02*
X201388095Y-111002380D01*
X201007142Y-111002380D01*
X200911904Y-111050000D01*
X200864285Y-111097619D01*
X200816666Y-111192857D01*
X200816666Y-111335714D01*
X200864285Y-111430952D01*
X200911904Y-111478571D01*
X201007142Y-111526190D01*
X201388095Y-111526190D01*
X200483333Y-111002380D02*
X199816666Y-111002380D01*
X200245238Y-112002380D01*
X200766666Y-109852380D02*
X201100000Y-109376190D01*
X201338095Y-109852380D02*
X201338095Y-108852380D01*
X200957142Y-108852380D01*
X200861904Y-108900000D01*
X200814285Y-108947619D01*
X200766666Y-109042857D01*
X200766666Y-109185714D01*
X200814285Y-109280952D01*
X200861904Y-109328571D01*
X200957142Y-109376190D01*
X201338095Y-109376190D01*
X199909523Y-108852380D02*
X200100000Y-108852380D01*
X200195238Y-108900000D01*
X200242857Y-108947619D01*
X200338095Y-109090476D01*
X200385714Y-109280952D01*
X200385714Y-109661904D01*
X200338095Y-109757142D01*
X200290476Y-109804761D01*
X200195238Y-109852380D01*
X200004761Y-109852380D01*
X199909523Y-109804761D01*
X199861904Y-109757142D01*
X199814285Y-109661904D01*
X199814285Y-109423809D01*
X199861904Y-109328571D01*
X199909523Y-109280952D01*
X200004761Y-109233333D01*
X200195238Y-109233333D01*
X200290476Y-109280952D01*
X200338095Y-109328571D01*
X200385714Y-109423809D01*
X209959999Y-116382380D02*
X210293333Y-115906190D01*
X210531428Y-116382380D02*
X210531428Y-115382380D01*
X210150475Y-115382380D01*
X210055237Y-115430000D01*
X210007618Y-115477619D01*
X209959999Y-115572857D01*
X209959999Y-115715714D01*
X210007618Y-115810952D01*
X210055237Y-115858571D01*
X210150475Y-115906190D01*
X210531428Y-115906190D01*
X209055237Y-115382380D02*
X209531428Y-115382380D01*
X209579047Y-115858571D01*
X209531428Y-115810952D01*
X209436190Y-115763333D01*
X209198094Y-115763333D01*
X209102856Y-115810952D01*
X209055237Y-115858571D01*
X209007618Y-115953809D01*
X209007618Y-116191904D01*
X209055237Y-116287142D01*
X209102856Y-116334761D01*
X209198094Y-116382380D01*
X209436190Y-116382380D01*
X209531428Y-116334761D01*
X209579047Y-116287142D01*
X210466666Y-104952380D02*
X210800000Y-104476190D01*
X211038095Y-104952380D02*
X211038095Y-103952380D01*
X210657142Y-103952380D01*
X210561904Y-104000000D01*
X210514285Y-104047619D01*
X210466666Y-104142857D01*
X210466666Y-104285714D01*
X210514285Y-104380952D01*
X210561904Y-104428571D01*
X210657142Y-104476190D01*
X211038095Y-104476190D01*
X209609523Y-104285714D02*
X209609523Y-104952380D01*
X209847619Y-103904761D02*
X210085714Y-104619047D01*
X209466666Y-104619047D01*
X216186666Y-108402380D02*
X216520000Y-107926190D01*
X216758095Y-108402380D02*
X216758095Y-107402380D01*
X216377142Y-107402380D01*
X216281904Y-107450000D01*
X216234285Y-107497619D01*
X216186666Y-107592857D01*
X216186666Y-107735714D01*
X216234285Y-107830952D01*
X216281904Y-107878571D01*
X216377142Y-107926190D01*
X216758095Y-107926190D01*
X215853333Y-107402380D02*
X215234285Y-107402380D01*
X215567619Y-107783333D01*
X215424761Y-107783333D01*
X215329523Y-107830952D01*
X215281904Y-107878571D01*
X215234285Y-107973809D01*
X215234285Y-108211904D01*
X215281904Y-108307142D01*
X215329523Y-108354761D01*
X215424761Y-108402380D01*
X215710476Y-108402380D01*
X215805714Y-108354761D01*
X215853333Y-108307142D01*
X176066666Y-107052380D02*
X176400000Y-106576190D01*
X176638095Y-107052380D02*
X176638095Y-106052380D01*
X176257142Y-106052380D01*
X176161904Y-106100000D01*
X176114285Y-106147619D01*
X176066666Y-106242857D01*
X176066666Y-106385714D01*
X176114285Y-106480952D01*
X176161904Y-106528571D01*
X176257142Y-106576190D01*
X176638095Y-106576190D01*
X175685714Y-106147619D02*
X175638095Y-106100000D01*
X175542857Y-106052380D01*
X175304761Y-106052380D01*
X175209523Y-106100000D01*
X175161904Y-106147619D01*
X175114285Y-106242857D01*
X175114285Y-106338095D01*
X175161904Y-106480952D01*
X175733333Y-107052380D01*
X175114285Y-107052380D01*
X192216666Y-106952380D02*
X192550000Y-106476190D01*
X192788095Y-106952380D02*
X192788095Y-105952380D01*
X192407142Y-105952380D01*
X192311904Y-106000000D01*
X192264285Y-106047619D01*
X192216666Y-106142857D01*
X192216666Y-106285714D01*
X192264285Y-106380952D01*
X192311904Y-106428571D01*
X192407142Y-106476190D01*
X192788095Y-106476190D01*
X191264285Y-106952380D02*
X191835714Y-106952380D01*
X191550000Y-106952380D02*
X191550000Y-105952380D01*
X191645238Y-106095238D01*
X191740476Y-106190476D01*
X191835714Y-106238095D01*
X160287142Y-113507142D02*
X160334761Y-113459523D01*
X160382380Y-113316666D01*
X160382380Y-113221428D01*
X160334761Y-113078571D01*
X160239523Y-112983333D01*
X160144285Y-112935714D01*
X159953809Y-112888095D01*
X159810952Y-112888095D01*
X159620476Y-112935714D01*
X159525238Y-112983333D01*
X159430000Y-113078571D01*
X159382380Y-113221428D01*
X159382380Y-113316666D01*
X159430000Y-113459523D01*
X159477619Y-113507142D01*
X160382380Y-114459523D02*
X160382380Y-113888095D01*
X160382380Y-114173809D02*
X159382380Y-114173809D01*
X159525238Y-114078571D01*
X159620476Y-113983333D01*
X159668095Y-113888095D01*
X159382380Y-114792857D02*
X159382380Y-115411904D01*
X159763333Y-115078571D01*
X159763333Y-115221428D01*
X159810952Y-115316666D01*
X159858571Y-115364285D01*
X159953809Y-115411904D01*
X160191904Y-115411904D01*
X160287142Y-115364285D01*
X160334761Y-115316666D01*
X160382380Y-115221428D01*
X160382380Y-114935714D01*
X160334761Y-114840476D01*
X160287142Y-114792857D01*
X143427142Y-121507142D02*
X143474761Y-121459523D01*
X143522380Y-121316666D01*
X143522380Y-121221428D01*
X143474761Y-121078571D01*
X143379523Y-120983333D01*
X143284285Y-120935714D01*
X143093809Y-120888095D01*
X142950952Y-120888095D01*
X142760476Y-120935714D01*
X142665238Y-120983333D01*
X142570000Y-121078571D01*
X142522380Y-121221428D01*
X142522380Y-121316666D01*
X142570000Y-121459523D01*
X142617619Y-121507142D01*
X143522380Y-122459523D02*
X143522380Y-121888095D01*
X143522380Y-122173809D02*
X142522380Y-122173809D01*
X142665238Y-122078571D01*
X142760476Y-121983333D01*
X142808095Y-121888095D01*
X142617619Y-122840476D02*
X142570000Y-122888095D01*
X142522380Y-122983333D01*
X142522380Y-123221428D01*
X142570000Y-123316666D01*
X142617619Y-123364285D01*
X142712857Y-123411904D01*
X142808095Y-123411904D01*
X142950952Y-123364285D01*
X143522380Y-122792857D01*
X143522380Y-123411904D01*
X203842857Y-108007142D02*
X203890476Y-108054761D01*
X204033333Y-108102380D01*
X204128571Y-108102380D01*
X204271428Y-108054761D01*
X204366666Y-107959523D01*
X204414285Y-107864285D01*
X204461904Y-107673809D01*
X204461904Y-107530952D01*
X204414285Y-107340476D01*
X204366666Y-107245238D01*
X204271428Y-107150000D01*
X204128571Y-107102380D01*
X204033333Y-107102380D01*
X203890476Y-107150000D01*
X203842857Y-107197619D01*
X202890476Y-108102380D02*
X203461904Y-108102380D01*
X203176190Y-108102380D02*
X203176190Y-107102380D01*
X203271428Y-107245238D01*
X203366666Y-107340476D01*
X203461904Y-107388095D01*
X201938095Y-108102380D02*
X202509523Y-108102380D01*
X202223809Y-108102380D02*
X202223809Y-107102380D01*
X202319047Y-107245238D01*
X202414285Y-107340476D01*
X202509523Y-107388095D01*
X213979523Y-116287142D02*
X214027142Y-116334761D01*
X214169999Y-116382380D01*
X214265237Y-116382380D01*
X214408094Y-116334761D01*
X214503332Y-116239523D01*
X214550951Y-116144285D01*
X214598570Y-115953809D01*
X214598570Y-115810952D01*
X214550951Y-115620476D01*
X214503332Y-115525238D01*
X214408094Y-115430000D01*
X214265237Y-115382380D01*
X214169999Y-115382380D01*
X214027142Y-115430000D01*
X213979523Y-115477619D01*
X213027142Y-116382380D02*
X213598570Y-116382380D01*
X213312856Y-116382380D02*
X213312856Y-115382380D01*
X213408094Y-115525238D01*
X213503332Y-115620476D01*
X213598570Y-115668095D01*
X212408094Y-115382380D02*
X212312856Y-115382380D01*
X212217618Y-115430000D01*
X212169999Y-115477619D01*
X212122380Y-115572857D01*
X212074761Y-115763333D01*
X212074761Y-116001428D01*
X212122380Y-116191904D01*
X212169999Y-116287142D01*
X212217618Y-116334761D01*
X212312856Y-116382380D01*
X212408094Y-116382380D01*
X212503332Y-116334761D01*
X212550951Y-116287142D01*
X212598570Y-116191904D01*
X212646189Y-116001428D01*
X212646189Y-115763333D01*
X212598570Y-115572857D01*
X212550951Y-115477619D01*
X212503332Y-115430000D01*
X212408094Y-115382380D01*
X217116666Y-116287142D02*
X217164285Y-116334761D01*
X217307142Y-116382380D01*
X217402380Y-116382380D01*
X217545238Y-116334761D01*
X217640476Y-116239523D01*
X217688095Y-116144285D01*
X217735714Y-115953809D01*
X217735714Y-115810952D01*
X217688095Y-115620476D01*
X217640476Y-115525238D01*
X217545238Y-115430000D01*
X217402380Y-115382380D01*
X217307142Y-115382380D01*
X217164285Y-115430000D01*
X217116666Y-115477619D01*
X216640476Y-116382380D02*
X216450000Y-116382380D01*
X216354761Y-116334761D01*
X216307142Y-116287142D01*
X216211904Y-116144285D01*
X216164285Y-115953809D01*
X216164285Y-115572857D01*
X216211904Y-115477619D01*
X216259523Y-115430000D01*
X216354761Y-115382380D01*
X216545238Y-115382380D01*
X216640476Y-115430000D01*
X216688095Y-115477619D01*
X216735714Y-115572857D01*
X216735714Y-115810952D01*
X216688095Y-115906190D01*
X216640476Y-115953809D01*
X216545238Y-116001428D01*
X216354761Y-116001428D01*
X216259523Y-115953809D01*
X216211904Y-115906190D01*
X216164285Y-115810952D01*
X206366666Y-116287142D02*
X206414285Y-116334761D01*
X206557142Y-116382380D01*
X206652380Y-116382380D01*
X206795238Y-116334761D01*
X206890476Y-116239523D01*
X206938095Y-116144285D01*
X206985714Y-115953809D01*
X206985714Y-115810952D01*
X206938095Y-115620476D01*
X206890476Y-115525238D01*
X206795238Y-115430000D01*
X206652380Y-115382380D01*
X206557142Y-115382380D01*
X206414285Y-115430000D01*
X206366666Y-115477619D01*
X205795238Y-115810952D02*
X205890476Y-115763333D01*
X205938095Y-115715714D01*
X205985714Y-115620476D01*
X205985714Y-115572857D01*
X205938095Y-115477619D01*
X205890476Y-115430000D01*
X205795238Y-115382380D01*
X205604761Y-115382380D01*
X205509523Y-115430000D01*
X205461904Y-115477619D01*
X205414285Y-115572857D01*
X205414285Y-115620476D01*
X205461904Y-115715714D01*
X205509523Y-115763333D01*
X205604761Y-115810952D01*
X205795238Y-115810952D01*
X205890476Y-115858571D01*
X205938095Y-115906190D01*
X205985714Y-116001428D01*
X205985714Y-116191904D01*
X205938095Y-116287142D01*
X205890476Y-116334761D01*
X205795238Y-116382380D01*
X205604761Y-116382380D01*
X205509523Y-116334761D01*
X205461904Y-116287142D01*
X205414285Y-116191904D01*
X205414285Y-116001428D01*
X205461904Y-115906190D01*
X205509523Y-115858571D01*
X205604761Y-115810952D01*
X216206666Y-111987142D02*
X216254285Y-112034761D01*
X216397142Y-112082380D01*
X216492380Y-112082380D01*
X216635238Y-112034761D01*
X216730476Y-111939523D01*
X216778095Y-111844285D01*
X216825714Y-111653809D01*
X216825714Y-111510952D01*
X216778095Y-111320476D01*
X216730476Y-111225238D01*
X216635238Y-111130000D01*
X216492380Y-111082380D01*
X216397142Y-111082380D01*
X216254285Y-111130000D01*
X216206666Y-111177619D01*
X215873333Y-111082380D02*
X215206666Y-111082380D01*
X215635238Y-112082380D01*
X225266666Y-107487142D02*
X225314285Y-107534761D01*
X225457142Y-107582380D01*
X225552380Y-107582380D01*
X225695238Y-107534761D01*
X225790476Y-107439523D01*
X225838095Y-107344285D01*
X225885714Y-107153809D01*
X225885714Y-107010952D01*
X225838095Y-106820476D01*
X225790476Y-106725238D01*
X225695238Y-106630000D01*
X225552380Y-106582380D01*
X225457142Y-106582380D01*
X225314285Y-106630000D01*
X225266666Y-106677619D01*
X224409523Y-106582380D02*
X224600000Y-106582380D01*
X224695238Y-106630000D01*
X224742857Y-106677619D01*
X224838095Y-106820476D01*
X224885714Y-107010952D01*
X224885714Y-107391904D01*
X224838095Y-107487142D01*
X224790476Y-107534761D01*
X224695238Y-107582380D01*
X224504761Y-107582380D01*
X224409523Y-107534761D01*
X224361904Y-107487142D01*
X224314285Y-107391904D01*
X224314285Y-107153809D01*
X224361904Y-107058571D01*
X224409523Y-107010952D01*
X224504761Y-106963333D01*
X224695238Y-106963333D01*
X224790476Y-107010952D01*
X224838095Y-107058571D01*
X224885714Y-107153809D01*
X222296666Y-107837142D02*
X222344285Y-107884761D01*
X222487142Y-107932380D01*
X222582380Y-107932380D01*
X222725238Y-107884761D01*
X222820476Y-107789523D01*
X222868095Y-107694285D01*
X222915714Y-107503809D01*
X222915714Y-107360952D01*
X222868095Y-107170476D01*
X222820476Y-107075238D01*
X222725238Y-106980000D01*
X222582380Y-106932380D01*
X222487142Y-106932380D01*
X222344285Y-106980000D01*
X222296666Y-107027619D01*
X221391904Y-106932380D02*
X221868095Y-106932380D01*
X221915714Y-107408571D01*
X221868095Y-107360952D01*
X221772857Y-107313333D01*
X221534761Y-107313333D01*
X221439523Y-107360952D01*
X221391904Y-107408571D01*
X221344285Y-107503809D01*
X221344285Y-107741904D01*
X221391904Y-107837142D01*
X221439523Y-107884761D01*
X221534761Y-107932380D01*
X221772857Y-107932380D01*
X221868095Y-107884761D01*
X221915714Y-107837142D01*
X162516666Y-116857142D02*
X162564285Y-116904761D01*
X162707142Y-116952380D01*
X162802380Y-116952380D01*
X162945238Y-116904761D01*
X163040476Y-116809523D01*
X163088095Y-116714285D01*
X163135714Y-116523809D01*
X163135714Y-116380952D01*
X163088095Y-116190476D01*
X163040476Y-116095238D01*
X162945238Y-116000000D01*
X162802380Y-115952380D01*
X162707142Y-115952380D01*
X162564285Y-116000000D01*
X162516666Y-116047619D01*
X161659523Y-116285714D02*
X161659523Y-116952380D01*
X161897619Y-115904761D02*
X162135714Y-116619047D01*
X161516666Y-116619047D01*
X189566666Y-111587142D02*
X189614285Y-111634761D01*
X189757142Y-111682380D01*
X189852380Y-111682380D01*
X189995238Y-111634761D01*
X190090476Y-111539523D01*
X190138095Y-111444285D01*
X190185714Y-111253809D01*
X190185714Y-111110952D01*
X190138095Y-110920476D01*
X190090476Y-110825238D01*
X189995238Y-110730000D01*
X189852380Y-110682380D01*
X189757142Y-110682380D01*
X189614285Y-110730000D01*
X189566666Y-110777619D01*
X189233333Y-110682380D02*
X188614285Y-110682380D01*
X188947619Y-111063333D01*
X188804761Y-111063333D01*
X188709523Y-111110952D01*
X188661904Y-111158571D01*
X188614285Y-111253809D01*
X188614285Y-111491904D01*
X188661904Y-111587142D01*
X188709523Y-111634761D01*
X188804761Y-111682380D01*
X189090476Y-111682380D01*
X189185714Y-111634761D01*
X189233333Y-111587142D01*
X162516666Y-118907142D02*
X162564285Y-118954761D01*
X162707142Y-119002380D01*
X162802380Y-119002380D01*
X162945238Y-118954761D01*
X163040476Y-118859523D01*
X163088095Y-118764285D01*
X163135714Y-118573809D01*
X163135714Y-118430952D01*
X163088095Y-118240476D01*
X163040476Y-118145238D01*
X162945238Y-118050000D01*
X162802380Y-118002380D01*
X162707142Y-118002380D01*
X162564285Y-118050000D01*
X162516666Y-118097619D01*
X162135714Y-118097619D02*
X162088095Y-118050000D01*
X161992857Y-118002380D01*
X161754761Y-118002380D01*
X161659523Y-118050000D01*
X161611904Y-118097619D01*
X161564285Y-118192857D01*
X161564285Y-118288095D01*
X161611904Y-118430952D01*
X162183333Y-119002380D01*
X161564285Y-119002380D01*
X189566666Y-113887142D02*
X189614285Y-113934761D01*
X189757142Y-113982380D01*
X189852380Y-113982380D01*
X189995238Y-113934761D01*
X190090476Y-113839523D01*
X190138095Y-113744285D01*
X190185714Y-113553809D01*
X190185714Y-113410952D01*
X190138095Y-113220476D01*
X190090476Y-113125238D01*
X189995238Y-113030000D01*
X189852380Y-112982380D01*
X189757142Y-112982380D01*
X189614285Y-113030000D01*
X189566666Y-113077619D01*
X188614285Y-113982380D02*
X189185714Y-113982380D01*
X188900000Y-113982380D02*
X188900000Y-112982380D01*
X188995238Y-113125238D01*
X189090476Y-113220476D01*
X189185714Y-113268095D01*
M02*
