G04 #@! TF.GenerationSoftware,KiCad,Pcbnew,(5.1.5)-3*
G04 #@! TF.CreationDate,2021-04-30T10:03:26+01:00*
G04 #@! TF.ProjectId,CurrentShuntCircuit,43757272-656e-4745-9368-756e74436972,1*
G04 #@! TF.SameCoordinates,Original*
G04 #@! TF.FileFunction,Soldermask,Bot*
G04 #@! TF.FilePolarity,Negative*
%FSLAX46Y46*%
G04 Gerber Fmt 4.6, Leading zero omitted, Abs format (unit mm)*
G04 Created by KiCad (PCBNEW (5.1.5)-3) date 2021-04-30 10:03:26*
%MOMM*%
%LPD*%
G04 APERTURE LIST*
%ADD10C,0.100000*%
G04 APERTURE END LIST*
D10*
G36*
X227275256Y-125291298D02*
G01*
X227381579Y-125312447D01*
X227682042Y-125436903D01*
X227952451Y-125617585D01*
X228182415Y-125847549D01*
X228363097Y-126117958D01*
X228487553Y-126418421D01*
X228551000Y-126737391D01*
X228551000Y-127062609D01*
X228487553Y-127381579D01*
X228363097Y-127682042D01*
X228182415Y-127952451D01*
X227952451Y-128182415D01*
X227682042Y-128363097D01*
X227381579Y-128487553D01*
X227275256Y-128508702D01*
X227062611Y-128551000D01*
X226737389Y-128551000D01*
X226524744Y-128508702D01*
X226418421Y-128487553D01*
X226117958Y-128363097D01*
X225847549Y-128182415D01*
X225617585Y-127952451D01*
X225436903Y-127682042D01*
X225312447Y-127381579D01*
X225249000Y-127062609D01*
X225249000Y-126737391D01*
X225312447Y-126418421D01*
X225436903Y-126117958D01*
X225617585Y-125847549D01*
X225847549Y-125617585D01*
X226117958Y-125436903D01*
X226418421Y-125312447D01*
X226524744Y-125291298D01*
X226737389Y-125249000D01*
X227062611Y-125249000D01*
X227275256Y-125291298D01*
G37*
G36*
X143475256Y-125291298D02*
G01*
X143581579Y-125312447D01*
X143882042Y-125436903D01*
X144152451Y-125617585D01*
X144382415Y-125847549D01*
X144563097Y-126117958D01*
X144687553Y-126418421D01*
X144751000Y-126737391D01*
X144751000Y-127062609D01*
X144687553Y-127381579D01*
X144563097Y-127682042D01*
X144382415Y-127952451D01*
X144152451Y-128182415D01*
X143882042Y-128363097D01*
X143581579Y-128487553D01*
X143475256Y-128508702D01*
X143262611Y-128551000D01*
X142937389Y-128551000D01*
X142724744Y-128508702D01*
X142618421Y-128487553D01*
X142317958Y-128363097D01*
X142047549Y-128182415D01*
X141817585Y-127952451D01*
X141636903Y-127682042D01*
X141512447Y-127381579D01*
X141449000Y-127062609D01*
X141449000Y-126737391D01*
X141512447Y-126418421D01*
X141636903Y-126117958D01*
X141817585Y-125847549D01*
X142047549Y-125617585D01*
X142317958Y-125436903D01*
X142618421Y-125312447D01*
X142724744Y-125291298D01*
X142937389Y-125249000D01*
X143262611Y-125249000D01*
X143475256Y-125291298D01*
G37*
G36*
X187198228Y-123481703D02*
G01*
X187353100Y-123545853D01*
X187492481Y-123638985D01*
X187611015Y-123757519D01*
X187704147Y-123896900D01*
X187768297Y-124051772D01*
X187801000Y-124216184D01*
X187801000Y-124383816D01*
X187768297Y-124548228D01*
X187704147Y-124703100D01*
X187611015Y-124842481D01*
X187492481Y-124961015D01*
X187353100Y-125054147D01*
X187198228Y-125118297D01*
X187033816Y-125151000D01*
X186866184Y-125151000D01*
X186701772Y-125118297D01*
X186546900Y-125054147D01*
X186407519Y-124961015D01*
X186288985Y-124842481D01*
X186195853Y-124703100D01*
X186131703Y-124548228D01*
X186099000Y-124383816D01*
X186099000Y-124216184D01*
X186131703Y-124051772D01*
X186195853Y-123896900D01*
X186288985Y-123757519D01*
X186407519Y-123638985D01*
X186546900Y-123545853D01*
X186701772Y-123481703D01*
X186866184Y-123449000D01*
X187033816Y-123449000D01*
X187198228Y-123481703D01*
G37*
G36*
X185261000Y-125151000D02*
G01*
X183559000Y-125151000D01*
X183559000Y-123449000D01*
X185261000Y-123449000D01*
X185261000Y-125151000D01*
G37*
G36*
X213201000Y-124451000D02*
G01*
X211299000Y-124451000D01*
X211299000Y-121849000D01*
X213201000Y-121849000D01*
X213201000Y-124451000D01*
G37*
G36*
X200741000Y-124421000D02*
G01*
X198639000Y-124421000D01*
X198639000Y-123679000D01*
X200741000Y-123679000D01*
X200741000Y-124421000D01*
G37*
G36*
X194441000Y-124421000D02*
G01*
X192339000Y-124421000D01*
X192339000Y-123679000D01*
X194441000Y-123679000D01*
X194441000Y-124421000D01*
G37*
G36*
X191571162Y-122783644D02*
G01*
X191610608Y-122795610D01*
X191646953Y-122815037D01*
X191678815Y-122841185D01*
X191704963Y-122873047D01*
X191724390Y-122909392D01*
X191736356Y-122948838D01*
X191741000Y-122995993D01*
X191741000Y-123689007D01*
X191736356Y-123736162D01*
X191724390Y-123775608D01*
X191704963Y-123811953D01*
X191678815Y-123843815D01*
X191646953Y-123869963D01*
X191610608Y-123889390D01*
X191571162Y-123901356D01*
X191524007Y-123906000D01*
X190455993Y-123906000D01*
X190408838Y-123901356D01*
X190369392Y-123889390D01*
X190333047Y-123869963D01*
X190301185Y-123843815D01*
X190275037Y-123811953D01*
X190255610Y-123775608D01*
X190243644Y-123736162D01*
X190239000Y-123689007D01*
X190239000Y-122995993D01*
X190243644Y-122948838D01*
X190255610Y-122909392D01*
X190275037Y-122873047D01*
X190301185Y-122841185D01*
X190333047Y-122815037D01*
X190369392Y-122795610D01*
X190408838Y-122783644D01*
X190455993Y-122779000D01*
X191524007Y-122779000D01*
X191571162Y-122783644D01*
G37*
G36*
X154934928Y-121726764D02*
G01*
X154956009Y-121733160D01*
X154975445Y-121743548D01*
X154992476Y-121757524D01*
X155006452Y-121774555D01*
X155016840Y-121793991D01*
X155023236Y-121815072D01*
X155026000Y-121843140D01*
X155026000Y-123756860D01*
X155023236Y-123784928D01*
X155016840Y-123806009D01*
X155006452Y-123825445D01*
X154992476Y-123842476D01*
X154975445Y-123856452D01*
X154956009Y-123866840D01*
X154934928Y-123873236D01*
X154906860Y-123876000D01*
X154443140Y-123876000D01*
X154415072Y-123873236D01*
X154393991Y-123866840D01*
X154374555Y-123856452D01*
X154357524Y-123842476D01*
X154343548Y-123825445D01*
X154333160Y-123806009D01*
X154326764Y-123784928D01*
X154324000Y-123756860D01*
X154324000Y-121843140D01*
X154326764Y-121815072D01*
X154333160Y-121793991D01*
X154343548Y-121774555D01*
X154357524Y-121757524D01*
X154374555Y-121743548D01*
X154393991Y-121733160D01*
X154415072Y-121726764D01*
X154443140Y-121724000D01*
X154906860Y-121724000D01*
X154934928Y-121726764D01*
G37*
G36*
X147314928Y-121726764D02*
G01*
X147336009Y-121733160D01*
X147355445Y-121743548D01*
X147372476Y-121757524D01*
X147386452Y-121774555D01*
X147396840Y-121793991D01*
X147403236Y-121815072D01*
X147406000Y-121843140D01*
X147406000Y-123756860D01*
X147403236Y-123784928D01*
X147396840Y-123806009D01*
X147386452Y-123825445D01*
X147372476Y-123842476D01*
X147355445Y-123856452D01*
X147336009Y-123866840D01*
X147314928Y-123873236D01*
X147286860Y-123876000D01*
X146823140Y-123876000D01*
X146795072Y-123873236D01*
X146773991Y-123866840D01*
X146754555Y-123856452D01*
X146737524Y-123842476D01*
X146723548Y-123825445D01*
X146713160Y-123806009D01*
X146706764Y-123784928D01*
X146704000Y-123756860D01*
X146704000Y-121843140D01*
X146706764Y-121815072D01*
X146713160Y-121793991D01*
X146723548Y-121774555D01*
X146737524Y-121757524D01*
X146754555Y-121743548D01*
X146773991Y-121733160D01*
X146795072Y-121726764D01*
X146823140Y-121724000D01*
X147286860Y-121724000D01*
X147314928Y-121726764D01*
G37*
G36*
X149854928Y-121726764D02*
G01*
X149876009Y-121733160D01*
X149895445Y-121743548D01*
X149912476Y-121757524D01*
X149926452Y-121774555D01*
X149936840Y-121793991D01*
X149943236Y-121815072D01*
X149946000Y-121843140D01*
X149946000Y-123756860D01*
X149943236Y-123784928D01*
X149936840Y-123806009D01*
X149926452Y-123825445D01*
X149912476Y-123842476D01*
X149895445Y-123856452D01*
X149876009Y-123866840D01*
X149854928Y-123873236D01*
X149826860Y-123876000D01*
X149363140Y-123876000D01*
X149335072Y-123873236D01*
X149313991Y-123866840D01*
X149294555Y-123856452D01*
X149277524Y-123842476D01*
X149263548Y-123825445D01*
X149253160Y-123806009D01*
X149246764Y-123784928D01*
X149244000Y-123756860D01*
X149244000Y-121843140D01*
X149246764Y-121815072D01*
X149253160Y-121793991D01*
X149263548Y-121774555D01*
X149277524Y-121757524D01*
X149294555Y-121743548D01*
X149313991Y-121733160D01*
X149335072Y-121726764D01*
X149363140Y-121724000D01*
X149826860Y-121724000D01*
X149854928Y-121726764D01*
G37*
G36*
X151124928Y-121726764D02*
G01*
X151146009Y-121733160D01*
X151165445Y-121743548D01*
X151182476Y-121757524D01*
X151196452Y-121774555D01*
X151206840Y-121793991D01*
X151213236Y-121815072D01*
X151216000Y-121843140D01*
X151216000Y-123756860D01*
X151213236Y-123784928D01*
X151206840Y-123806009D01*
X151196452Y-123825445D01*
X151182476Y-123842476D01*
X151165445Y-123856452D01*
X151146009Y-123866840D01*
X151124928Y-123873236D01*
X151096860Y-123876000D01*
X150633140Y-123876000D01*
X150605072Y-123873236D01*
X150583991Y-123866840D01*
X150564555Y-123856452D01*
X150547524Y-123842476D01*
X150533548Y-123825445D01*
X150523160Y-123806009D01*
X150516764Y-123784928D01*
X150514000Y-123756860D01*
X150514000Y-121843140D01*
X150516764Y-121815072D01*
X150523160Y-121793991D01*
X150533548Y-121774555D01*
X150547524Y-121757524D01*
X150564555Y-121743548D01*
X150583991Y-121733160D01*
X150605072Y-121726764D01*
X150633140Y-121724000D01*
X151096860Y-121724000D01*
X151124928Y-121726764D01*
G37*
G36*
X152394928Y-121726764D02*
G01*
X152416009Y-121733160D01*
X152435445Y-121743548D01*
X152452476Y-121757524D01*
X152466452Y-121774555D01*
X152476840Y-121793991D01*
X152483236Y-121815072D01*
X152486000Y-121843140D01*
X152486000Y-123756860D01*
X152483236Y-123784928D01*
X152476840Y-123806009D01*
X152466452Y-123825445D01*
X152452476Y-123842476D01*
X152435445Y-123856452D01*
X152416009Y-123866840D01*
X152394928Y-123873236D01*
X152366860Y-123876000D01*
X151903140Y-123876000D01*
X151875072Y-123873236D01*
X151853991Y-123866840D01*
X151834555Y-123856452D01*
X151817524Y-123842476D01*
X151803548Y-123825445D01*
X151793160Y-123806009D01*
X151786764Y-123784928D01*
X151784000Y-123756860D01*
X151784000Y-121843140D01*
X151786764Y-121815072D01*
X151793160Y-121793991D01*
X151803548Y-121774555D01*
X151817524Y-121757524D01*
X151834555Y-121743548D01*
X151853991Y-121733160D01*
X151875072Y-121726764D01*
X151903140Y-121724000D01*
X152366860Y-121724000D01*
X152394928Y-121726764D01*
G37*
G36*
X153664928Y-121726764D02*
G01*
X153686009Y-121733160D01*
X153705445Y-121743548D01*
X153722476Y-121757524D01*
X153736452Y-121774555D01*
X153746840Y-121793991D01*
X153753236Y-121815072D01*
X153756000Y-121843140D01*
X153756000Y-123756860D01*
X153753236Y-123784928D01*
X153746840Y-123806009D01*
X153736452Y-123825445D01*
X153722476Y-123842476D01*
X153705445Y-123856452D01*
X153686009Y-123866840D01*
X153664928Y-123873236D01*
X153636860Y-123876000D01*
X153173140Y-123876000D01*
X153145072Y-123873236D01*
X153123991Y-123866840D01*
X153104555Y-123856452D01*
X153087524Y-123842476D01*
X153073548Y-123825445D01*
X153063160Y-123806009D01*
X153056764Y-123784928D01*
X153054000Y-123756860D01*
X153054000Y-121843140D01*
X153056764Y-121815072D01*
X153063160Y-121793991D01*
X153073548Y-121774555D01*
X153087524Y-121757524D01*
X153104555Y-121743548D01*
X153123991Y-121733160D01*
X153145072Y-121726764D01*
X153173140Y-121724000D01*
X153636860Y-121724000D01*
X153664928Y-121726764D01*
G37*
G36*
X156204928Y-121726764D02*
G01*
X156226009Y-121733160D01*
X156245445Y-121743548D01*
X156262476Y-121757524D01*
X156276452Y-121774555D01*
X156286840Y-121793991D01*
X156293236Y-121815072D01*
X156296000Y-121843140D01*
X156296000Y-123756860D01*
X156293236Y-123784928D01*
X156286840Y-123806009D01*
X156276452Y-123825445D01*
X156262476Y-123842476D01*
X156245445Y-123856452D01*
X156226009Y-123866840D01*
X156204928Y-123873236D01*
X156176860Y-123876000D01*
X155713140Y-123876000D01*
X155685072Y-123873236D01*
X155663991Y-123866840D01*
X155644555Y-123856452D01*
X155627524Y-123842476D01*
X155613548Y-123825445D01*
X155603160Y-123806009D01*
X155596764Y-123784928D01*
X155594000Y-123756860D01*
X155594000Y-121843140D01*
X155596764Y-121815072D01*
X155603160Y-121793991D01*
X155613548Y-121774555D01*
X155627524Y-121757524D01*
X155644555Y-121743548D01*
X155663991Y-121733160D01*
X155685072Y-121726764D01*
X155713140Y-121724000D01*
X156176860Y-121724000D01*
X156204928Y-121726764D01*
G37*
G36*
X148584928Y-121726764D02*
G01*
X148606009Y-121733160D01*
X148625445Y-121743548D01*
X148642476Y-121757524D01*
X148656452Y-121774555D01*
X148666840Y-121793991D01*
X148673236Y-121815072D01*
X148676000Y-121843140D01*
X148676000Y-123756860D01*
X148673236Y-123784928D01*
X148666840Y-123806009D01*
X148656452Y-123825445D01*
X148642476Y-123842476D01*
X148625445Y-123856452D01*
X148606009Y-123866840D01*
X148584928Y-123873236D01*
X148556860Y-123876000D01*
X148093140Y-123876000D01*
X148065072Y-123873236D01*
X148043991Y-123866840D01*
X148024555Y-123856452D01*
X148007524Y-123842476D01*
X147993548Y-123825445D01*
X147983160Y-123806009D01*
X147976764Y-123784928D01*
X147974000Y-123756860D01*
X147974000Y-121843140D01*
X147976764Y-121815072D01*
X147983160Y-121793991D01*
X147993548Y-121774555D01*
X148007524Y-121757524D01*
X148024555Y-121743548D01*
X148043991Y-121733160D01*
X148065072Y-121726764D01*
X148093140Y-121724000D01*
X148556860Y-121724000D01*
X148584928Y-121726764D01*
G37*
G36*
X145354434Y-122553686D02*
G01*
X145394284Y-122565774D01*
X145430999Y-122585399D01*
X145463186Y-122611814D01*
X145489601Y-122644001D01*
X145509226Y-122680716D01*
X145521314Y-122720566D01*
X145526000Y-122768141D01*
X145526000Y-123431859D01*
X145521314Y-123479434D01*
X145509226Y-123519284D01*
X145489601Y-123555999D01*
X145463186Y-123588186D01*
X145430999Y-123614601D01*
X145394284Y-123634226D01*
X145354434Y-123646314D01*
X145306859Y-123651000D01*
X144193141Y-123651000D01*
X144145566Y-123646314D01*
X144105716Y-123634226D01*
X144069001Y-123614601D01*
X144036814Y-123588186D01*
X144010399Y-123555999D01*
X143990774Y-123519284D01*
X143978686Y-123479434D01*
X143974000Y-123431859D01*
X143974000Y-122768141D01*
X143978686Y-122720566D01*
X143990774Y-122680716D01*
X144010399Y-122644001D01*
X144036814Y-122611814D01*
X144069001Y-122585399D01*
X144105716Y-122565774D01*
X144145566Y-122553686D01*
X144193141Y-122549000D01*
X145306859Y-122549000D01*
X145354434Y-122553686D01*
G37*
G36*
X179133512Y-120563927D02*
G01*
X179282812Y-120593624D01*
X179446784Y-120661544D01*
X179594354Y-120760147D01*
X179719853Y-120885646D01*
X179818456Y-121033216D01*
X179886376Y-121197188D01*
X179921000Y-121371259D01*
X179921000Y-121548741D01*
X179886376Y-121722812D01*
X179818456Y-121886784D01*
X179719853Y-122034354D01*
X179594354Y-122159853D01*
X179446784Y-122258456D01*
X179282812Y-122326376D01*
X179133512Y-122356073D01*
X179108742Y-122361000D01*
X178931258Y-122361000D01*
X178906488Y-122356073D01*
X178757188Y-122326376D01*
X178593216Y-122258456D01*
X178445646Y-122159853D01*
X178320147Y-122034354D01*
X178221544Y-121886784D01*
X178153624Y-121722812D01*
X178119000Y-121548741D01*
X178119000Y-121371259D01*
X178153624Y-121197188D01*
X178221544Y-121033216D01*
X178320147Y-120885646D01*
X178445646Y-120760147D01*
X178593216Y-120661544D01*
X178757188Y-120593624D01*
X178906488Y-120563927D01*
X178931258Y-120559000D01*
X179108742Y-120559000D01*
X179133512Y-120563927D01*
G37*
G36*
X171513512Y-120563927D02*
G01*
X171662812Y-120593624D01*
X171826784Y-120661544D01*
X171974354Y-120760147D01*
X172099853Y-120885646D01*
X172198456Y-121033216D01*
X172266376Y-121197188D01*
X172301000Y-121371259D01*
X172301000Y-121548741D01*
X172266376Y-121722812D01*
X172198456Y-121886784D01*
X172099853Y-122034354D01*
X171974354Y-122159853D01*
X171826784Y-122258456D01*
X171662812Y-122326376D01*
X171513512Y-122356073D01*
X171488742Y-122361000D01*
X171311258Y-122361000D01*
X171286488Y-122356073D01*
X171137188Y-122326376D01*
X170973216Y-122258456D01*
X170825646Y-122159853D01*
X170700147Y-122034354D01*
X170601544Y-121886784D01*
X170533624Y-121722812D01*
X170499000Y-121548741D01*
X170499000Y-121371259D01*
X170533624Y-121197188D01*
X170601544Y-121033216D01*
X170700147Y-120885646D01*
X170825646Y-120760147D01*
X170973216Y-120661544D01*
X171137188Y-120593624D01*
X171286488Y-120563927D01*
X171311258Y-120559000D01*
X171488742Y-120559000D01*
X171513512Y-120563927D01*
G37*
G36*
X168973512Y-120563927D02*
G01*
X169122812Y-120593624D01*
X169286784Y-120661544D01*
X169434354Y-120760147D01*
X169559853Y-120885646D01*
X169658456Y-121033216D01*
X169726376Y-121197188D01*
X169761000Y-121371259D01*
X169761000Y-121548741D01*
X169726376Y-121722812D01*
X169658456Y-121886784D01*
X169559853Y-122034354D01*
X169434354Y-122159853D01*
X169286784Y-122258456D01*
X169122812Y-122326376D01*
X168973512Y-122356073D01*
X168948742Y-122361000D01*
X168771258Y-122361000D01*
X168746488Y-122356073D01*
X168597188Y-122326376D01*
X168433216Y-122258456D01*
X168285646Y-122159853D01*
X168160147Y-122034354D01*
X168061544Y-121886784D01*
X167993624Y-121722812D01*
X167959000Y-121548741D01*
X167959000Y-121371259D01*
X167993624Y-121197188D01*
X168061544Y-121033216D01*
X168160147Y-120885646D01*
X168285646Y-120760147D01*
X168433216Y-120661544D01*
X168597188Y-120593624D01*
X168746488Y-120563927D01*
X168771258Y-120559000D01*
X168948742Y-120559000D01*
X168973512Y-120563927D01*
G37*
G36*
X166433512Y-120563927D02*
G01*
X166582812Y-120593624D01*
X166746784Y-120661544D01*
X166894354Y-120760147D01*
X167019853Y-120885646D01*
X167118456Y-121033216D01*
X167186376Y-121197188D01*
X167221000Y-121371259D01*
X167221000Y-121548741D01*
X167186376Y-121722812D01*
X167118456Y-121886784D01*
X167019853Y-122034354D01*
X166894354Y-122159853D01*
X166746784Y-122258456D01*
X166582812Y-122326376D01*
X166433512Y-122356073D01*
X166408742Y-122361000D01*
X166231258Y-122361000D01*
X166206488Y-122356073D01*
X166057188Y-122326376D01*
X165893216Y-122258456D01*
X165745646Y-122159853D01*
X165620147Y-122034354D01*
X165521544Y-121886784D01*
X165453624Y-121722812D01*
X165419000Y-121548741D01*
X165419000Y-121371259D01*
X165453624Y-121197188D01*
X165521544Y-121033216D01*
X165620147Y-120885646D01*
X165745646Y-120760147D01*
X165893216Y-120661544D01*
X166057188Y-120593624D01*
X166206488Y-120563927D01*
X166231258Y-120559000D01*
X166408742Y-120559000D01*
X166433512Y-120563927D01*
G37*
G36*
X163893512Y-120563927D02*
G01*
X164042812Y-120593624D01*
X164206784Y-120661544D01*
X164354354Y-120760147D01*
X164479853Y-120885646D01*
X164578456Y-121033216D01*
X164646376Y-121197188D01*
X164681000Y-121371259D01*
X164681000Y-121548741D01*
X164646376Y-121722812D01*
X164578456Y-121886784D01*
X164479853Y-122034354D01*
X164354354Y-122159853D01*
X164206784Y-122258456D01*
X164042812Y-122326376D01*
X163893512Y-122356073D01*
X163868742Y-122361000D01*
X163691258Y-122361000D01*
X163666488Y-122356073D01*
X163517188Y-122326376D01*
X163353216Y-122258456D01*
X163205646Y-122159853D01*
X163080147Y-122034354D01*
X162981544Y-121886784D01*
X162913624Y-121722812D01*
X162879000Y-121548741D01*
X162879000Y-121371259D01*
X162913624Y-121197188D01*
X162981544Y-121033216D01*
X163080147Y-120885646D01*
X163205646Y-120760147D01*
X163353216Y-120661544D01*
X163517188Y-120593624D01*
X163666488Y-120563927D01*
X163691258Y-120559000D01*
X163868742Y-120559000D01*
X163893512Y-120563927D01*
G37*
G36*
X162141000Y-122361000D02*
G01*
X160339000Y-122361000D01*
X160339000Y-120559000D01*
X162141000Y-120559000D01*
X162141000Y-122361000D01*
G37*
G36*
X176593512Y-120563927D02*
G01*
X176742812Y-120593624D01*
X176906784Y-120661544D01*
X177054354Y-120760147D01*
X177179853Y-120885646D01*
X177278456Y-121033216D01*
X177346376Y-121197188D01*
X177381000Y-121371259D01*
X177381000Y-121548741D01*
X177346376Y-121722812D01*
X177278456Y-121886784D01*
X177179853Y-122034354D01*
X177054354Y-122159853D01*
X176906784Y-122258456D01*
X176742812Y-122326376D01*
X176593512Y-122356073D01*
X176568742Y-122361000D01*
X176391258Y-122361000D01*
X176366488Y-122356073D01*
X176217188Y-122326376D01*
X176053216Y-122258456D01*
X175905646Y-122159853D01*
X175780147Y-122034354D01*
X175681544Y-121886784D01*
X175613624Y-121722812D01*
X175579000Y-121548741D01*
X175579000Y-121371259D01*
X175613624Y-121197188D01*
X175681544Y-121033216D01*
X175780147Y-120885646D01*
X175905646Y-120760147D01*
X176053216Y-120661544D01*
X176217188Y-120593624D01*
X176366488Y-120563927D01*
X176391258Y-120559000D01*
X176568742Y-120559000D01*
X176593512Y-120563927D01*
G37*
G36*
X174053512Y-120563927D02*
G01*
X174202812Y-120593624D01*
X174366784Y-120661544D01*
X174514354Y-120760147D01*
X174639853Y-120885646D01*
X174738456Y-121033216D01*
X174806376Y-121197188D01*
X174841000Y-121371259D01*
X174841000Y-121548741D01*
X174806376Y-121722812D01*
X174738456Y-121886784D01*
X174639853Y-122034354D01*
X174514354Y-122159853D01*
X174366784Y-122258456D01*
X174202812Y-122326376D01*
X174053512Y-122356073D01*
X174028742Y-122361000D01*
X173851258Y-122361000D01*
X173826488Y-122356073D01*
X173677188Y-122326376D01*
X173513216Y-122258456D01*
X173365646Y-122159853D01*
X173240147Y-122034354D01*
X173141544Y-121886784D01*
X173073624Y-121722812D01*
X173039000Y-121548741D01*
X173039000Y-121371259D01*
X173073624Y-121197188D01*
X173141544Y-121033216D01*
X173240147Y-120885646D01*
X173365646Y-120760147D01*
X173513216Y-120661544D01*
X173677188Y-120593624D01*
X173826488Y-120563927D01*
X173851258Y-120559000D01*
X174028742Y-120559000D01*
X174053512Y-120563927D01*
G37*
G36*
X191571162Y-120958644D02*
G01*
X191610608Y-120970610D01*
X191646953Y-120990037D01*
X191678815Y-121016185D01*
X191704963Y-121048047D01*
X191724390Y-121084392D01*
X191736356Y-121123838D01*
X191741000Y-121170993D01*
X191741000Y-121864007D01*
X191736356Y-121911162D01*
X191724390Y-121950608D01*
X191704963Y-121986953D01*
X191678815Y-122018815D01*
X191646953Y-122044963D01*
X191610608Y-122064390D01*
X191571162Y-122076356D01*
X191524007Y-122081000D01*
X190455993Y-122081000D01*
X190408838Y-122076356D01*
X190369392Y-122064390D01*
X190333047Y-122044963D01*
X190301185Y-122018815D01*
X190275037Y-121986953D01*
X190255610Y-121950608D01*
X190243644Y-121911162D01*
X190239000Y-121864007D01*
X190239000Y-121170993D01*
X190243644Y-121123838D01*
X190255610Y-121084392D01*
X190275037Y-121048047D01*
X190301185Y-121016185D01*
X190333047Y-120990037D01*
X190369392Y-120970610D01*
X190408838Y-120958644D01*
X190455993Y-120954000D01*
X191524007Y-120954000D01*
X191571162Y-120958644D01*
G37*
G36*
X194441000Y-121881000D02*
G01*
X192339000Y-121881000D01*
X192339000Y-121139000D01*
X194441000Y-121139000D01*
X194441000Y-121881000D01*
G37*
G36*
X200741000Y-121881000D02*
G01*
X198639000Y-121881000D01*
X198639000Y-121139000D01*
X200741000Y-121139000D01*
X200741000Y-121881000D01*
G37*
G36*
X145354434Y-120653686D02*
G01*
X145394284Y-120665774D01*
X145430999Y-120685399D01*
X145463186Y-120711814D01*
X145489601Y-120744001D01*
X145509226Y-120780716D01*
X145521314Y-120820566D01*
X145526000Y-120868141D01*
X145526000Y-121531859D01*
X145521314Y-121579434D01*
X145509226Y-121619284D01*
X145489601Y-121655999D01*
X145463186Y-121688186D01*
X145430999Y-121714601D01*
X145394284Y-121734226D01*
X145354434Y-121746314D01*
X145306859Y-121751000D01*
X144193141Y-121751000D01*
X144145566Y-121746314D01*
X144105716Y-121734226D01*
X144069001Y-121714601D01*
X144036814Y-121688186D01*
X144010399Y-121655999D01*
X143990774Y-121619284D01*
X143978686Y-121579434D01*
X143974000Y-121531859D01*
X143974000Y-120868141D01*
X143978686Y-120820566D01*
X143990774Y-120780716D01*
X144010399Y-120744001D01*
X144036814Y-120711814D01*
X144069001Y-120685399D01*
X144105716Y-120665774D01*
X144145566Y-120653686D01*
X144193141Y-120649000D01*
X145306859Y-120649000D01*
X145354434Y-120653686D01*
G37*
G36*
X213201000Y-120451000D02*
G01*
X211299000Y-120451000D01*
X211299000Y-117849000D01*
X213201000Y-117849000D01*
X213201000Y-120451000D01*
G37*
G36*
X145331162Y-118503644D02*
G01*
X145370608Y-118515610D01*
X145406953Y-118535037D01*
X145438815Y-118561185D01*
X145464963Y-118593047D01*
X145484390Y-118629392D01*
X145496356Y-118668838D01*
X145501000Y-118715993D01*
X145501000Y-119409007D01*
X145496356Y-119456162D01*
X145484390Y-119495608D01*
X145464963Y-119531953D01*
X145438815Y-119563815D01*
X145406953Y-119589963D01*
X145370608Y-119609390D01*
X145331162Y-119621356D01*
X145284007Y-119626000D01*
X144215993Y-119626000D01*
X144168838Y-119621356D01*
X144129392Y-119609390D01*
X144093047Y-119589963D01*
X144061185Y-119563815D01*
X144035037Y-119531953D01*
X144015610Y-119495608D01*
X144003644Y-119456162D01*
X143999000Y-119409007D01*
X143999000Y-118715993D01*
X144003644Y-118668838D01*
X144015610Y-118629392D01*
X144035037Y-118593047D01*
X144061185Y-118561185D01*
X144093047Y-118535037D01*
X144129392Y-118515610D01*
X144168838Y-118503644D01*
X144215993Y-118499000D01*
X145284007Y-118499000D01*
X145331162Y-118503644D01*
G37*
G36*
X165376162Y-117623644D02*
G01*
X165415608Y-117635610D01*
X165451953Y-117655037D01*
X165483815Y-117681185D01*
X165509963Y-117713047D01*
X165529390Y-117749392D01*
X165541356Y-117788838D01*
X165546000Y-117835993D01*
X165546000Y-118904007D01*
X165541356Y-118951162D01*
X165529390Y-118990608D01*
X165509963Y-119026953D01*
X165483815Y-119058815D01*
X165451953Y-119084963D01*
X165415608Y-119104390D01*
X165376162Y-119116356D01*
X165329007Y-119121000D01*
X164635993Y-119121000D01*
X164588838Y-119116356D01*
X164549392Y-119104390D01*
X164513047Y-119084963D01*
X164481185Y-119058815D01*
X164455037Y-119026953D01*
X164435610Y-118990608D01*
X164423644Y-118951162D01*
X164419000Y-118904007D01*
X164419000Y-117835993D01*
X164423644Y-117788838D01*
X164435610Y-117749392D01*
X164455037Y-117713047D01*
X164481185Y-117681185D01*
X164513047Y-117655037D01*
X164549392Y-117635610D01*
X164588838Y-117623644D01*
X164635993Y-117619000D01*
X165329007Y-117619000D01*
X165376162Y-117623644D01*
G37*
G36*
X163551162Y-117623644D02*
G01*
X163590608Y-117635610D01*
X163626953Y-117655037D01*
X163658815Y-117681185D01*
X163684963Y-117713047D01*
X163704390Y-117749392D01*
X163716356Y-117788838D01*
X163721000Y-117835993D01*
X163721000Y-118904007D01*
X163716356Y-118951162D01*
X163704390Y-118990608D01*
X163684963Y-119026953D01*
X163658815Y-119058815D01*
X163626953Y-119084963D01*
X163590608Y-119104390D01*
X163551162Y-119116356D01*
X163504007Y-119121000D01*
X162810993Y-119121000D01*
X162763838Y-119116356D01*
X162724392Y-119104390D01*
X162688047Y-119084963D01*
X162656185Y-119058815D01*
X162630037Y-119026953D01*
X162610610Y-118990608D01*
X162598644Y-118951162D01*
X162594000Y-118904007D01*
X162594000Y-117835993D01*
X162598644Y-117788838D01*
X162610610Y-117749392D01*
X162630037Y-117713047D01*
X162656185Y-117681185D01*
X162688047Y-117655037D01*
X162724392Y-117635610D01*
X162763838Y-117623644D01*
X162810993Y-117619000D01*
X163504007Y-117619000D01*
X163551162Y-117623644D01*
G37*
G36*
X145331162Y-116678644D02*
G01*
X145370608Y-116690610D01*
X145406953Y-116710037D01*
X145438815Y-116736185D01*
X145464963Y-116768047D01*
X145484390Y-116804392D01*
X145496356Y-116843838D01*
X145501000Y-116890993D01*
X145501000Y-117584007D01*
X145496356Y-117631162D01*
X145484390Y-117670608D01*
X145464963Y-117706953D01*
X145438815Y-117738815D01*
X145406953Y-117764963D01*
X145370608Y-117784390D01*
X145331162Y-117796356D01*
X145284007Y-117801000D01*
X144215993Y-117801000D01*
X144168838Y-117796356D01*
X144129392Y-117784390D01*
X144093047Y-117764963D01*
X144061185Y-117738815D01*
X144035037Y-117706953D01*
X144015610Y-117670608D01*
X144003644Y-117631162D01*
X143999000Y-117584007D01*
X143999000Y-116890993D01*
X144003644Y-116843838D01*
X144015610Y-116804392D01*
X144035037Y-116768047D01*
X144061185Y-116736185D01*
X144093047Y-116710037D01*
X144129392Y-116690610D01*
X144168838Y-116678644D01*
X144215993Y-116674000D01*
X145284007Y-116674000D01*
X145331162Y-116678644D01*
G37*
G36*
X169719928Y-115501764D02*
G01*
X169741009Y-115508160D01*
X169760445Y-115518548D01*
X169777476Y-115532524D01*
X169791452Y-115549555D01*
X169801840Y-115568991D01*
X169808236Y-115590072D01*
X169811000Y-115618140D01*
X169811000Y-117431860D01*
X169808236Y-117459928D01*
X169801840Y-117481009D01*
X169791452Y-117500445D01*
X169777476Y-117517476D01*
X169760445Y-117531452D01*
X169741009Y-117541840D01*
X169719928Y-117548236D01*
X169691860Y-117551000D01*
X169228140Y-117551000D01*
X169200072Y-117548236D01*
X169178991Y-117541840D01*
X169159555Y-117531452D01*
X169142524Y-117517476D01*
X169128548Y-117500445D01*
X169118160Y-117481009D01*
X169111764Y-117459928D01*
X169109000Y-117431860D01*
X169109000Y-115618140D01*
X169111764Y-115590072D01*
X169118160Y-115568991D01*
X169128548Y-115549555D01*
X169142524Y-115532524D01*
X169159555Y-115518548D01*
X169178991Y-115508160D01*
X169200072Y-115501764D01*
X169228140Y-115499000D01*
X169691860Y-115499000D01*
X169719928Y-115501764D01*
G37*
G36*
X168449928Y-115501764D02*
G01*
X168471009Y-115508160D01*
X168490445Y-115518548D01*
X168507476Y-115532524D01*
X168521452Y-115549555D01*
X168531840Y-115568991D01*
X168538236Y-115590072D01*
X168541000Y-115618140D01*
X168541000Y-117431860D01*
X168538236Y-117459928D01*
X168531840Y-117481009D01*
X168521452Y-117500445D01*
X168507476Y-117517476D01*
X168490445Y-117531452D01*
X168471009Y-117541840D01*
X168449928Y-117548236D01*
X168421860Y-117551000D01*
X167958140Y-117551000D01*
X167930072Y-117548236D01*
X167908991Y-117541840D01*
X167889555Y-117531452D01*
X167872524Y-117517476D01*
X167858548Y-117500445D01*
X167848160Y-117481009D01*
X167841764Y-117459928D01*
X167839000Y-117431860D01*
X167839000Y-115618140D01*
X167841764Y-115590072D01*
X167848160Y-115568991D01*
X167858548Y-115549555D01*
X167872524Y-115532524D01*
X167889555Y-115518548D01*
X167908991Y-115508160D01*
X167930072Y-115501764D01*
X167958140Y-115499000D01*
X168421860Y-115499000D01*
X168449928Y-115501764D01*
G37*
G36*
X172259928Y-115501764D02*
G01*
X172281009Y-115508160D01*
X172300445Y-115518548D01*
X172317476Y-115532524D01*
X172331452Y-115549555D01*
X172341840Y-115568991D01*
X172348236Y-115590072D01*
X172351000Y-115618140D01*
X172351000Y-117431860D01*
X172348236Y-117459928D01*
X172341840Y-117481009D01*
X172331452Y-117500445D01*
X172317476Y-117517476D01*
X172300445Y-117531452D01*
X172281009Y-117541840D01*
X172259928Y-117548236D01*
X172231860Y-117551000D01*
X171768140Y-117551000D01*
X171740072Y-117548236D01*
X171718991Y-117541840D01*
X171699555Y-117531452D01*
X171682524Y-117517476D01*
X171668548Y-117500445D01*
X171658160Y-117481009D01*
X171651764Y-117459928D01*
X171649000Y-117431860D01*
X171649000Y-115618140D01*
X171651764Y-115590072D01*
X171658160Y-115568991D01*
X171668548Y-115549555D01*
X171682524Y-115532524D01*
X171699555Y-115518548D01*
X171718991Y-115508160D01*
X171740072Y-115501764D01*
X171768140Y-115499000D01*
X172231860Y-115499000D01*
X172259928Y-115501764D01*
G37*
G36*
X174799928Y-115501764D02*
G01*
X174821009Y-115508160D01*
X174840445Y-115518548D01*
X174857476Y-115532524D01*
X174871452Y-115549555D01*
X174881840Y-115568991D01*
X174888236Y-115590072D01*
X174891000Y-115618140D01*
X174891000Y-117431860D01*
X174888236Y-117459928D01*
X174881840Y-117481009D01*
X174871452Y-117500445D01*
X174857476Y-117517476D01*
X174840445Y-117531452D01*
X174821009Y-117541840D01*
X174799928Y-117548236D01*
X174771860Y-117551000D01*
X174308140Y-117551000D01*
X174280072Y-117548236D01*
X174258991Y-117541840D01*
X174239555Y-117531452D01*
X174222524Y-117517476D01*
X174208548Y-117500445D01*
X174198160Y-117481009D01*
X174191764Y-117459928D01*
X174189000Y-117431860D01*
X174189000Y-115618140D01*
X174191764Y-115590072D01*
X174198160Y-115568991D01*
X174208548Y-115549555D01*
X174222524Y-115532524D01*
X174239555Y-115518548D01*
X174258991Y-115508160D01*
X174280072Y-115501764D01*
X174308140Y-115499000D01*
X174771860Y-115499000D01*
X174799928Y-115501764D01*
G37*
G36*
X173529928Y-115501764D02*
G01*
X173551009Y-115508160D01*
X173570445Y-115518548D01*
X173587476Y-115532524D01*
X173601452Y-115549555D01*
X173611840Y-115568991D01*
X173618236Y-115590072D01*
X173621000Y-115618140D01*
X173621000Y-117431860D01*
X173618236Y-117459928D01*
X173611840Y-117481009D01*
X173601452Y-117500445D01*
X173587476Y-117517476D01*
X173570445Y-117531452D01*
X173551009Y-117541840D01*
X173529928Y-117548236D01*
X173501860Y-117551000D01*
X173038140Y-117551000D01*
X173010072Y-117548236D01*
X172988991Y-117541840D01*
X172969555Y-117531452D01*
X172952524Y-117517476D01*
X172938548Y-117500445D01*
X172928160Y-117481009D01*
X172921764Y-117459928D01*
X172919000Y-117431860D01*
X172919000Y-115618140D01*
X172921764Y-115590072D01*
X172928160Y-115568991D01*
X172938548Y-115549555D01*
X172952524Y-115532524D01*
X172969555Y-115518548D01*
X172988991Y-115508160D01*
X173010072Y-115501764D01*
X173038140Y-115499000D01*
X173501860Y-115499000D01*
X173529928Y-115501764D01*
G37*
G36*
X176069928Y-115501764D02*
G01*
X176091009Y-115508160D01*
X176110445Y-115518548D01*
X176127476Y-115532524D01*
X176141452Y-115549555D01*
X176151840Y-115568991D01*
X176158236Y-115590072D01*
X176161000Y-115618140D01*
X176161000Y-117431860D01*
X176158236Y-117459928D01*
X176151840Y-117481009D01*
X176141452Y-117500445D01*
X176127476Y-117517476D01*
X176110445Y-117531452D01*
X176091009Y-117541840D01*
X176069928Y-117548236D01*
X176041860Y-117551000D01*
X175578140Y-117551000D01*
X175550072Y-117548236D01*
X175528991Y-117541840D01*
X175509555Y-117531452D01*
X175492524Y-117517476D01*
X175478548Y-117500445D01*
X175468160Y-117481009D01*
X175461764Y-117459928D01*
X175459000Y-117431860D01*
X175459000Y-115618140D01*
X175461764Y-115590072D01*
X175468160Y-115568991D01*
X175478548Y-115549555D01*
X175492524Y-115532524D01*
X175509555Y-115518548D01*
X175528991Y-115508160D01*
X175550072Y-115501764D01*
X175578140Y-115499000D01*
X176041860Y-115499000D01*
X176069928Y-115501764D01*
G37*
G36*
X170989928Y-115501764D02*
G01*
X171011009Y-115508160D01*
X171030445Y-115518548D01*
X171047476Y-115532524D01*
X171061452Y-115549555D01*
X171071840Y-115568991D01*
X171078236Y-115590072D01*
X171081000Y-115618140D01*
X171081000Y-117431860D01*
X171078236Y-117459928D01*
X171071840Y-117481009D01*
X171061452Y-117500445D01*
X171047476Y-117517476D01*
X171030445Y-117531452D01*
X171011009Y-117541840D01*
X170989928Y-117548236D01*
X170961860Y-117551000D01*
X170498140Y-117551000D01*
X170470072Y-117548236D01*
X170448991Y-117541840D01*
X170429555Y-117531452D01*
X170412524Y-117517476D01*
X170398548Y-117500445D01*
X170388160Y-117481009D01*
X170381764Y-117459928D01*
X170379000Y-117431860D01*
X170379000Y-115618140D01*
X170381764Y-115590072D01*
X170388160Y-115568991D01*
X170398548Y-115549555D01*
X170412524Y-115532524D01*
X170429555Y-115518548D01*
X170448991Y-115508160D01*
X170470072Y-115501764D01*
X170498140Y-115499000D01*
X170961860Y-115499000D01*
X170989928Y-115501764D01*
G37*
G36*
X187198228Y-115861703D02*
G01*
X187353100Y-115925853D01*
X187492481Y-116018985D01*
X187611015Y-116137519D01*
X187704147Y-116276900D01*
X187768297Y-116431772D01*
X187801000Y-116596184D01*
X187801000Y-116763816D01*
X187768297Y-116928228D01*
X187704147Y-117083100D01*
X187611015Y-117222481D01*
X187492481Y-117341015D01*
X187353100Y-117434147D01*
X187198228Y-117498297D01*
X187033816Y-117531000D01*
X186866184Y-117531000D01*
X186701772Y-117498297D01*
X186546900Y-117434147D01*
X186407519Y-117341015D01*
X186288985Y-117222481D01*
X186195853Y-117083100D01*
X186131703Y-116928228D01*
X186099000Y-116763816D01*
X186099000Y-116596184D01*
X186131703Y-116431772D01*
X186195853Y-116276900D01*
X186288985Y-116137519D01*
X186407519Y-116018985D01*
X186546900Y-115925853D01*
X186701772Y-115861703D01*
X186866184Y-115829000D01*
X187033816Y-115829000D01*
X187198228Y-115861703D01*
G37*
G36*
X184658228Y-115861703D02*
G01*
X184813100Y-115925853D01*
X184952481Y-116018985D01*
X185071015Y-116137519D01*
X185164147Y-116276900D01*
X185228297Y-116431772D01*
X185261000Y-116596184D01*
X185261000Y-116763816D01*
X185228297Y-116928228D01*
X185164147Y-117083100D01*
X185071015Y-117222481D01*
X184952481Y-117341015D01*
X184813100Y-117434147D01*
X184658228Y-117498297D01*
X184493816Y-117531000D01*
X184326184Y-117531000D01*
X184161772Y-117498297D01*
X184006900Y-117434147D01*
X183867519Y-117341015D01*
X183748985Y-117222481D01*
X183655853Y-117083100D01*
X183591703Y-116928228D01*
X183559000Y-116763816D01*
X183559000Y-116596184D01*
X183591703Y-116431772D01*
X183655853Y-116276900D01*
X183748985Y-116137519D01*
X183867519Y-116018985D01*
X184006900Y-115925853D01*
X184161772Y-115861703D01*
X184326184Y-115829000D01*
X184493816Y-115829000D01*
X184658228Y-115861703D01*
G37*
G36*
X180031162Y-115973644D02*
G01*
X180070608Y-115985610D01*
X180106953Y-116005037D01*
X180138815Y-116031185D01*
X180164963Y-116063047D01*
X180184390Y-116099392D01*
X180196356Y-116138838D01*
X180201000Y-116185993D01*
X180201000Y-117254007D01*
X180196356Y-117301162D01*
X180184390Y-117340608D01*
X180164963Y-117376953D01*
X180138815Y-117408815D01*
X180106953Y-117434963D01*
X180070608Y-117454390D01*
X180031162Y-117466356D01*
X179984007Y-117471000D01*
X179290993Y-117471000D01*
X179243838Y-117466356D01*
X179204392Y-117454390D01*
X179168047Y-117434963D01*
X179136185Y-117408815D01*
X179110037Y-117376953D01*
X179090610Y-117340608D01*
X179078644Y-117301162D01*
X179074000Y-117254007D01*
X179074000Y-116185993D01*
X179078644Y-116138838D01*
X179090610Y-116099392D01*
X179110037Y-116063047D01*
X179136185Y-116031185D01*
X179168047Y-116005037D01*
X179204392Y-115985610D01*
X179243838Y-115973644D01*
X179290993Y-115969000D01*
X179984007Y-115969000D01*
X180031162Y-115973644D01*
G37*
G36*
X181856162Y-115973644D02*
G01*
X181895608Y-115985610D01*
X181931953Y-116005037D01*
X181963815Y-116031185D01*
X181989963Y-116063047D01*
X182009390Y-116099392D01*
X182021356Y-116138838D01*
X182026000Y-116185993D01*
X182026000Y-117254007D01*
X182021356Y-117301162D01*
X182009390Y-117340608D01*
X181989963Y-117376953D01*
X181963815Y-117408815D01*
X181931953Y-117434963D01*
X181895608Y-117454390D01*
X181856162Y-117466356D01*
X181809007Y-117471000D01*
X181115993Y-117471000D01*
X181068838Y-117466356D01*
X181029392Y-117454390D01*
X180993047Y-117434963D01*
X180961185Y-117408815D01*
X180935037Y-117376953D01*
X180915610Y-117340608D01*
X180903644Y-117301162D01*
X180899000Y-117254007D01*
X180899000Y-116185993D01*
X180903644Y-116138838D01*
X180915610Y-116099392D01*
X180935037Y-116063047D01*
X180961185Y-116031185D01*
X180993047Y-116005037D01*
X181029392Y-115985610D01*
X181068838Y-115973644D01*
X181115993Y-115969000D01*
X181809007Y-115969000D01*
X181856162Y-115973644D01*
G37*
G36*
X163519434Y-115578686D02*
G01*
X163559284Y-115590774D01*
X163595999Y-115610399D01*
X163628186Y-115636814D01*
X163654601Y-115669001D01*
X163674226Y-115705716D01*
X163686314Y-115745566D01*
X163691000Y-115793141D01*
X163691000Y-116906859D01*
X163686314Y-116954434D01*
X163674226Y-116994284D01*
X163654601Y-117030999D01*
X163628186Y-117063186D01*
X163595999Y-117089601D01*
X163559284Y-117109226D01*
X163519434Y-117121314D01*
X163471859Y-117126000D01*
X162808141Y-117126000D01*
X162760566Y-117121314D01*
X162720716Y-117109226D01*
X162684001Y-117089601D01*
X162651814Y-117063186D01*
X162625399Y-117030999D01*
X162605774Y-116994284D01*
X162593686Y-116954434D01*
X162589000Y-116906859D01*
X162589000Y-115793141D01*
X162593686Y-115745566D01*
X162605774Y-115705716D01*
X162625399Y-115669001D01*
X162651814Y-115636814D01*
X162684001Y-115610399D01*
X162720716Y-115590774D01*
X162760566Y-115578686D01*
X162808141Y-115574000D01*
X163471859Y-115574000D01*
X163519434Y-115578686D01*
G37*
G36*
X165419434Y-115578686D02*
G01*
X165459284Y-115590774D01*
X165495999Y-115610399D01*
X165528186Y-115636814D01*
X165554601Y-115669001D01*
X165574226Y-115705716D01*
X165586314Y-115745566D01*
X165591000Y-115793141D01*
X165591000Y-116906859D01*
X165586314Y-116954434D01*
X165574226Y-116994284D01*
X165554601Y-117030999D01*
X165528186Y-117063186D01*
X165495999Y-117089601D01*
X165459284Y-117109226D01*
X165419434Y-117121314D01*
X165371859Y-117126000D01*
X164708141Y-117126000D01*
X164660566Y-117121314D01*
X164620716Y-117109226D01*
X164584001Y-117089601D01*
X164551814Y-117063186D01*
X164525399Y-117030999D01*
X164505774Y-116994284D01*
X164493686Y-116954434D01*
X164489000Y-116906859D01*
X164489000Y-115793141D01*
X164493686Y-115745566D01*
X164505774Y-115705716D01*
X164525399Y-115669001D01*
X164551814Y-115636814D01*
X164584001Y-115610399D01*
X164620716Y-115590774D01*
X164660566Y-115578686D01*
X164708141Y-115574000D01*
X165371859Y-115574000D01*
X165419434Y-115578686D01*
G37*
G36*
X208589434Y-114498686D02*
G01*
X208629284Y-114510774D01*
X208665999Y-114530399D01*
X208698186Y-114556814D01*
X208724601Y-114589001D01*
X208744226Y-114625716D01*
X208756314Y-114665566D01*
X208761000Y-114713141D01*
X208761000Y-115826859D01*
X208756314Y-115874434D01*
X208744226Y-115914284D01*
X208724601Y-115950999D01*
X208698186Y-115983186D01*
X208665999Y-116009601D01*
X208629284Y-116029226D01*
X208589434Y-116041314D01*
X208541859Y-116046000D01*
X207878141Y-116046000D01*
X207830566Y-116041314D01*
X207790716Y-116029226D01*
X207754001Y-116009601D01*
X207721814Y-115983186D01*
X207695399Y-115950999D01*
X207675774Y-115914284D01*
X207663686Y-115874434D01*
X207659000Y-115826859D01*
X207659000Y-114713141D01*
X207663686Y-114665566D01*
X207675774Y-114625716D01*
X207695399Y-114589001D01*
X207721814Y-114556814D01*
X207754001Y-114530399D01*
X207790716Y-114510774D01*
X207830566Y-114498686D01*
X207878141Y-114494000D01*
X208541859Y-114494000D01*
X208589434Y-114498686D01*
G37*
G36*
X203019434Y-114498686D02*
G01*
X203059284Y-114510774D01*
X203095999Y-114530399D01*
X203128186Y-114556814D01*
X203154601Y-114589001D01*
X203174226Y-114625716D01*
X203186314Y-114665566D01*
X203191000Y-114713141D01*
X203191000Y-115826859D01*
X203186314Y-115874434D01*
X203174226Y-115914284D01*
X203154601Y-115950999D01*
X203128186Y-115983186D01*
X203095999Y-116009601D01*
X203059284Y-116029226D01*
X203019434Y-116041314D01*
X202971859Y-116046000D01*
X202308141Y-116046000D01*
X202260566Y-116041314D01*
X202220716Y-116029226D01*
X202184001Y-116009601D01*
X202151814Y-115983186D01*
X202125399Y-115950999D01*
X202105774Y-115914284D01*
X202093686Y-115874434D01*
X202089000Y-115826859D01*
X202089000Y-114713141D01*
X202093686Y-114665566D01*
X202105774Y-114625716D01*
X202125399Y-114589001D01*
X202151814Y-114556814D01*
X202184001Y-114530399D01*
X202220716Y-114510774D01*
X202260566Y-114498686D01*
X202308141Y-114494000D01*
X202971859Y-114494000D01*
X203019434Y-114498686D01*
G37*
G36*
X204919434Y-114498686D02*
G01*
X204959284Y-114510774D01*
X204995999Y-114530399D01*
X205028186Y-114556814D01*
X205054601Y-114589001D01*
X205074226Y-114625716D01*
X205086314Y-114665566D01*
X205091000Y-114713141D01*
X205091000Y-115826859D01*
X205086314Y-115874434D01*
X205074226Y-115914284D01*
X205054601Y-115950999D01*
X205028186Y-115983186D01*
X204995999Y-116009601D01*
X204959284Y-116029226D01*
X204919434Y-116041314D01*
X204871859Y-116046000D01*
X204208141Y-116046000D01*
X204160566Y-116041314D01*
X204120716Y-116029226D01*
X204084001Y-116009601D01*
X204051814Y-115983186D01*
X204025399Y-115950999D01*
X204005774Y-115914284D01*
X203993686Y-115874434D01*
X203989000Y-115826859D01*
X203989000Y-114713141D01*
X203993686Y-114665566D01*
X204005774Y-114625716D01*
X204025399Y-114589001D01*
X204051814Y-114556814D01*
X204084001Y-114530399D01*
X204120716Y-114510774D01*
X204160566Y-114498686D01*
X204208141Y-114494000D01*
X204871859Y-114494000D01*
X204919434Y-114498686D01*
G37*
G36*
X210489434Y-114498686D02*
G01*
X210529284Y-114510774D01*
X210565999Y-114530399D01*
X210598186Y-114556814D01*
X210624601Y-114589001D01*
X210644226Y-114625716D01*
X210656314Y-114665566D01*
X210661000Y-114713141D01*
X210661000Y-115826859D01*
X210656314Y-115874434D01*
X210644226Y-115914284D01*
X210624601Y-115950999D01*
X210598186Y-115983186D01*
X210565999Y-116009601D01*
X210529284Y-116029226D01*
X210489434Y-116041314D01*
X210441859Y-116046000D01*
X209778141Y-116046000D01*
X209730566Y-116041314D01*
X209690716Y-116029226D01*
X209654001Y-116009601D01*
X209621814Y-115983186D01*
X209595399Y-115950999D01*
X209575774Y-115914284D01*
X209563686Y-115874434D01*
X209559000Y-115826859D01*
X209559000Y-114713141D01*
X209563686Y-114665566D01*
X209575774Y-114625716D01*
X209595399Y-114589001D01*
X209621814Y-114556814D01*
X209654001Y-114530399D01*
X209690716Y-114510774D01*
X209730566Y-114498686D01*
X209778141Y-114494000D01*
X210441859Y-114494000D01*
X210489434Y-114498686D01*
G37*
G36*
X158854434Y-114553686D02*
G01*
X158894284Y-114565774D01*
X158930999Y-114585399D01*
X158963186Y-114611814D01*
X158989601Y-114644001D01*
X159009226Y-114680716D01*
X159021314Y-114720566D01*
X159026000Y-114768141D01*
X159026000Y-115431859D01*
X159021314Y-115479434D01*
X159009226Y-115519284D01*
X158989601Y-115555999D01*
X158963186Y-115588186D01*
X158930999Y-115614601D01*
X158894284Y-115634226D01*
X158854434Y-115646314D01*
X158806859Y-115651000D01*
X157693141Y-115651000D01*
X157645566Y-115646314D01*
X157605716Y-115634226D01*
X157569001Y-115614601D01*
X157536814Y-115588186D01*
X157510399Y-115555999D01*
X157490774Y-115519284D01*
X157478686Y-115479434D01*
X157474000Y-115431859D01*
X157474000Y-114768141D01*
X157478686Y-114720566D01*
X157490774Y-114680716D01*
X157510399Y-114644001D01*
X157536814Y-114611814D01*
X157569001Y-114585399D01*
X157605716Y-114565774D01*
X157645566Y-114553686D01*
X157693141Y-114549000D01*
X158806859Y-114549000D01*
X158854434Y-114553686D01*
G37*
G36*
X195031000Y-115301000D02*
G01*
X193129000Y-115301000D01*
X193129000Y-113399000D01*
X195031000Y-113399000D01*
X195031000Y-115301000D01*
G37*
G36*
X198157395Y-113435546D02*
G01*
X198330466Y-113507234D01*
X198401492Y-113554692D01*
X198486227Y-113611310D01*
X198618690Y-113743773D01*
X198623519Y-113751000D01*
X198722766Y-113899534D01*
X198794454Y-114072605D01*
X198831000Y-114256333D01*
X198831000Y-114443667D01*
X198794454Y-114627395D01*
X198722766Y-114800466D01*
X198718494Y-114806859D01*
X198618690Y-114956227D01*
X198486227Y-115088690D01*
X198407818Y-115141081D01*
X198330466Y-115192766D01*
X198157395Y-115264454D01*
X197973667Y-115301000D01*
X197786333Y-115301000D01*
X197602605Y-115264454D01*
X197429534Y-115192766D01*
X197352182Y-115141081D01*
X197273773Y-115088690D01*
X197141310Y-114956227D01*
X197041506Y-114806859D01*
X197037234Y-114800466D01*
X196965546Y-114627395D01*
X196929000Y-114443667D01*
X196929000Y-114256333D01*
X196965546Y-114072605D01*
X197037234Y-113899534D01*
X197136481Y-113751000D01*
X197141310Y-113743773D01*
X197273773Y-113611310D01*
X197358508Y-113554692D01*
X197429534Y-113507234D01*
X197602605Y-113435546D01*
X197786333Y-113399000D01*
X197973667Y-113399000D01*
X198157395Y-113435546D01*
G37*
G36*
X163519434Y-113478686D02*
G01*
X163559284Y-113490774D01*
X163595999Y-113510399D01*
X163628186Y-113536814D01*
X163654601Y-113569001D01*
X163674226Y-113605716D01*
X163686314Y-113645566D01*
X163691000Y-113693141D01*
X163691000Y-114806859D01*
X163686314Y-114854434D01*
X163674226Y-114894284D01*
X163654601Y-114930999D01*
X163628186Y-114963186D01*
X163595999Y-114989601D01*
X163559284Y-115009226D01*
X163519434Y-115021314D01*
X163471859Y-115026000D01*
X162808141Y-115026000D01*
X162760566Y-115021314D01*
X162720716Y-115009226D01*
X162684001Y-114989601D01*
X162651814Y-114963186D01*
X162625399Y-114930999D01*
X162605774Y-114894284D01*
X162593686Y-114854434D01*
X162589000Y-114806859D01*
X162589000Y-113693141D01*
X162593686Y-113645566D01*
X162605774Y-113605716D01*
X162625399Y-113569001D01*
X162651814Y-113536814D01*
X162684001Y-113510399D01*
X162720716Y-113490774D01*
X162760566Y-113478686D01*
X162808141Y-113474000D01*
X163471859Y-113474000D01*
X163519434Y-113478686D01*
G37*
G36*
X165419434Y-113478686D02*
G01*
X165459284Y-113490774D01*
X165495999Y-113510399D01*
X165528186Y-113536814D01*
X165554601Y-113569001D01*
X165574226Y-113605716D01*
X165586314Y-113645566D01*
X165591000Y-113693141D01*
X165591000Y-114806859D01*
X165586314Y-114854434D01*
X165574226Y-114894284D01*
X165554601Y-114930999D01*
X165528186Y-114963186D01*
X165495999Y-114989601D01*
X165459284Y-115009226D01*
X165419434Y-115021314D01*
X165371859Y-115026000D01*
X164708141Y-115026000D01*
X164660566Y-115021314D01*
X164620716Y-115009226D01*
X164584001Y-114989601D01*
X164551814Y-114963186D01*
X164525399Y-114930999D01*
X164505774Y-114894284D01*
X164493686Y-114854434D01*
X164489000Y-114806859D01*
X164489000Y-113693141D01*
X164493686Y-113645566D01*
X164505774Y-113605716D01*
X164525399Y-113569001D01*
X164551814Y-113536814D01*
X164584001Y-113510399D01*
X164620716Y-113490774D01*
X164660566Y-113478686D01*
X164708141Y-113474000D01*
X165371859Y-113474000D01*
X165419434Y-113478686D01*
G37*
G36*
X225185116Y-112369294D02*
G01*
X225355734Y-112403232D01*
X225565203Y-112489997D01*
X225753720Y-112615960D01*
X225914040Y-112776280D01*
X226013077Y-112924500D01*
X226040004Y-112964799D01*
X226126768Y-113174267D01*
X226171000Y-113396635D01*
X226171000Y-113623365D01*
X226166881Y-113644071D01*
X226126768Y-113845734D01*
X226040003Y-114055203D01*
X225914040Y-114243720D01*
X225753720Y-114404040D01*
X225565203Y-114530003D01*
X225355734Y-114616768D01*
X225310749Y-114625716D01*
X225133365Y-114661000D01*
X224906635Y-114661000D01*
X224729251Y-114625716D01*
X224684266Y-114616768D01*
X224474797Y-114530003D01*
X224286280Y-114404040D01*
X224125960Y-114243720D01*
X223999997Y-114055203D01*
X223913232Y-113845734D01*
X223873119Y-113644071D01*
X223869000Y-113623365D01*
X223869000Y-113396635D01*
X223913232Y-113174267D01*
X223999996Y-112964799D01*
X224026923Y-112924500D01*
X224125960Y-112776280D01*
X224286280Y-112615960D01*
X224474797Y-112489997D01*
X224684266Y-112403232D01*
X224854884Y-112369294D01*
X224906635Y-112359000D01*
X225133365Y-112359000D01*
X225185116Y-112369294D01*
G37*
G36*
X221375116Y-112369294D02*
G01*
X221545734Y-112403232D01*
X221755203Y-112489997D01*
X221943720Y-112615960D01*
X222104040Y-112776280D01*
X222203077Y-112924500D01*
X222230004Y-112964799D01*
X222316768Y-113174267D01*
X222361000Y-113396635D01*
X222361000Y-113623365D01*
X222356881Y-113644071D01*
X222316768Y-113845734D01*
X222230003Y-114055203D01*
X222104040Y-114243720D01*
X221943720Y-114404040D01*
X221755203Y-114530003D01*
X221545734Y-114616768D01*
X221500749Y-114625716D01*
X221323365Y-114661000D01*
X221096635Y-114661000D01*
X220919251Y-114625716D01*
X220874266Y-114616768D01*
X220664797Y-114530003D01*
X220476280Y-114404040D01*
X220315960Y-114243720D01*
X220189997Y-114055203D01*
X220103232Y-113845734D01*
X220063119Y-113644071D01*
X220059000Y-113623365D01*
X220059000Y-113396635D01*
X220103232Y-113174267D01*
X220189996Y-112964799D01*
X220216923Y-112924500D01*
X220315960Y-112776280D01*
X220476280Y-112615960D01*
X220664797Y-112489997D01*
X220874266Y-112403232D01*
X221044884Y-112369294D01*
X221096635Y-112359000D01*
X221323365Y-112359000D01*
X221375116Y-112369294D01*
G37*
G36*
X217565116Y-112369294D02*
G01*
X217735734Y-112403232D01*
X217945203Y-112489997D01*
X218133720Y-112615960D01*
X218294040Y-112776280D01*
X218393077Y-112924500D01*
X218420004Y-112964799D01*
X218506768Y-113174267D01*
X218551000Y-113396635D01*
X218551000Y-113623365D01*
X218546881Y-113644071D01*
X218506768Y-113845734D01*
X218420003Y-114055203D01*
X218294040Y-114243720D01*
X218133720Y-114404040D01*
X217945203Y-114530003D01*
X217735734Y-114616768D01*
X217690749Y-114625716D01*
X217513365Y-114661000D01*
X217286635Y-114661000D01*
X217109251Y-114625716D01*
X217064266Y-114616768D01*
X216854797Y-114530003D01*
X216666280Y-114404040D01*
X216505960Y-114243720D01*
X216379997Y-114055203D01*
X216293232Y-113845734D01*
X216253119Y-113644071D01*
X216249000Y-113623365D01*
X216249000Y-113396635D01*
X216293232Y-113174267D01*
X216379996Y-112964799D01*
X216406923Y-112924500D01*
X216505960Y-112776280D01*
X216666280Y-112615960D01*
X216854797Y-112489997D01*
X217064266Y-112403232D01*
X217234884Y-112369294D01*
X217286635Y-112359000D01*
X217513365Y-112359000D01*
X217565116Y-112369294D01*
G37*
G36*
X151124928Y-112426764D02*
G01*
X151146009Y-112433160D01*
X151165445Y-112443548D01*
X151182476Y-112457524D01*
X151196452Y-112474555D01*
X151206840Y-112493991D01*
X151213236Y-112515072D01*
X151216000Y-112543140D01*
X151216000Y-114456860D01*
X151213236Y-114484928D01*
X151206840Y-114506009D01*
X151196452Y-114525445D01*
X151182476Y-114542476D01*
X151165445Y-114556452D01*
X151146009Y-114566840D01*
X151124928Y-114573236D01*
X151096860Y-114576000D01*
X150633140Y-114576000D01*
X150605072Y-114573236D01*
X150583991Y-114566840D01*
X150564555Y-114556452D01*
X150547524Y-114542476D01*
X150533548Y-114525445D01*
X150523160Y-114506009D01*
X150516764Y-114484928D01*
X150514000Y-114456860D01*
X150514000Y-112543140D01*
X150516764Y-112515072D01*
X150523160Y-112493991D01*
X150533548Y-112474555D01*
X150547524Y-112457524D01*
X150564555Y-112443548D01*
X150583991Y-112433160D01*
X150605072Y-112426764D01*
X150633140Y-112424000D01*
X151096860Y-112424000D01*
X151124928Y-112426764D01*
G37*
G36*
X156204928Y-112426764D02*
G01*
X156226009Y-112433160D01*
X156245445Y-112443548D01*
X156262476Y-112457524D01*
X156276452Y-112474555D01*
X156286840Y-112493991D01*
X156293236Y-112515072D01*
X156296000Y-112543140D01*
X156296000Y-114456860D01*
X156293236Y-114484928D01*
X156286840Y-114506009D01*
X156276452Y-114525445D01*
X156262476Y-114542476D01*
X156245445Y-114556452D01*
X156226009Y-114566840D01*
X156204928Y-114573236D01*
X156176860Y-114576000D01*
X155713140Y-114576000D01*
X155685072Y-114573236D01*
X155663991Y-114566840D01*
X155644555Y-114556452D01*
X155627524Y-114542476D01*
X155613548Y-114525445D01*
X155603160Y-114506009D01*
X155596764Y-114484928D01*
X155594000Y-114456860D01*
X155594000Y-112543140D01*
X155596764Y-112515072D01*
X155603160Y-112493991D01*
X155613548Y-112474555D01*
X155627524Y-112457524D01*
X155644555Y-112443548D01*
X155663991Y-112433160D01*
X155685072Y-112426764D01*
X155713140Y-112424000D01*
X156176860Y-112424000D01*
X156204928Y-112426764D01*
G37*
G36*
X154934928Y-112426764D02*
G01*
X154956009Y-112433160D01*
X154975445Y-112443548D01*
X154992476Y-112457524D01*
X155006452Y-112474555D01*
X155016840Y-112493991D01*
X155023236Y-112515072D01*
X155026000Y-112543140D01*
X155026000Y-114456860D01*
X155023236Y-114484928D01*
X155016840Y-114506009D01*
X155006452Y-114525445D01*
X154992476Y-114542476D01*
X154975445Y-114556452D01*
X154956009Y-114566840D01*
X154934928Y-114573236D01*
X154906860Y-114576000D01*
X154443140Y-114576000D01*
X154415072Y-114573236D01*
X154393991Y-114566840D01*
X154374555Y-114556452D01*
X154357524Y-114542476D01*
X154343548Y-114525445D01*
X154333160Y-114506009D01*
X154326764Y-114484928D01*
X154324000Y-114456860D01*
X154324000Y-112543140D01*
X154326764Y-112515072D01*
X154333160Y-112493991D01*
X154343548Y-112474555D01*
X154357524Y-112457524D01*
X154374555Y-112443548D01*
X154393991Y-112433160D01*
X154415072Y-112426764D01*
X154443140Y-112424000D01*
X154906860Y-112424000D01*
X154934928Y-112426764D01*
G37*
G36*
X152394928Y-112426764D02*
G01*
X152416009Y-112433160D01*
X152435445Y-112443548D01*
X152452476Y-112457524D01*
X152466452Y-112474555D01*
X152476840Y-112493991D01*
X152483236Y-112515072D01*
X152486000Y-112543140D01*
X152486000Y-114456860D01*
X152483236Y-114484928D01*
X152476840Y-114506009D01*
X152466452Y-114525445D01*
X152452476Y-114542476D01*
X152435445Y-114556452D01*
X152416009Y-114566840D01*
X152394928Y-114573236D01*
X152366860Y-114576000D01*
X151903140Y-114576000D01*
X151875072Y-114573236D01*
X151853991Y-114566840D01*
X151834555Y-114556452D01*
X151817524Y-114542476D01*
X151803548Y-114525445D01*
X151793160Y-114506009D01*
X151786764Y-114484928D01*
X151784000Y-114456860D01*
X151784000Y-112543140D01*
X151786764Y-112515072D01*
X151793160Y-112493991D01*
X151803548Y-112474555D01*
X151817524Y-112457524D01*
X151834555Y-112443548D01*
X151853991Y-112433160D01*
X151875072Y-112426764D01*
X151903140Y-112424000D01*
X152366860Y-112424000D01*
X152394928Y-112426764D01*
G37*
G36*
X147314928Y-112426764D02*
G01*
X147336009Y-112433160D01*
X147355445Y-112443548D01*
X147372476Y-112457524D01*
X147386452Y-112474555D01*
X147396840Y-112493991D01*
X147403236Y-112515072D01*
X147406000Y-112543140D01*
X147406000Y-114456860D01*
X147403236Y-114484928D01*
X147396840Y-114506009D01*
X147386452Y-114525445D01*
X147372476Y-114542476D01*
X147355445Y-114556452D01*
X147336009Y-114566840D01*
X147314928Y-114573236D01*
X147286860Y-114576000D01*
X146823140Y-114576000D01*
X146795072Y-114573236D01*
X146773991Y-114566840D01*
X146754555Y-114556452D01*
X146737524Y-114542476D01*
X146723548Y-114525445D01*
X146713160Y-114506009D01*
X146706764Y-114484928D01*
X146704000Y-114456860D01*
X146704000Y-112543140D01*
X146706764Y-112515072D01*
X146713160Y-112493991D01*
X146723548Y-112474555D01*
X146737524Y-112457524D01*
X146754555Y-112443548D01*
X146773991Y-112433160D01*
X146795072Y-112426764D01*
X146823140Y-112424000D01*
X147286860Y-112424000D01*
X147314928Y-112426764D01*
G37*
G36*
X148584928Y-112426764D02*
G01*
X148606009Y-112433160D01*
X148625445Y-112443548D01*
X148642476Y-112457524D01*
X148656452Y-112474555D01*
X148666840Y-112493991D01*
X148673236Y-112515072D01*
X148676000Y-112543140D01*
X148676000Y-114456860D01*
X148673236Y-114484928D01*
X148666840Y-114506009D01*
X148656452Y-114525445D01*
X148642476Y-114542476D01*
X148625445Y-114556452D01*
X148606009Y-114566840D01*
X148584928Y-114573236D01*
X148556860Y-114576000D01*
X148093140Y-114576000D01*
X148065072Y-114573236D01*
X148043991Y-114566840D01*
X148024555Y-114556452D01*
X148007524Y-114542476D01*
X147993548Y-114525445D01*
X147983160Y-114506009D01*
X147976764Y-114484928D01*
X147974000Y-114456860D01*
X147974000Y-112543140D01*
X147976764Y-112515072D01*
X147983160Y-112493991D01*
X147993548Y-112474555D01*
X148007524Y-112457524D01*
X148024555Y-112443548D01*
X148043991Y-112433160D01*
X148065072Y-112426764D01*
X148093140Y-112424000D01*
X148556860Y-112424000D01*
X148584928Y-112426764D01*
G37*
G36*
X149854928Y-112426764D02*
G01*
X149876009Y-112433160D01*
X149895445Y-112443548D01*
X149912476Y-112457524D01*
X149926452Y-112474555D01*
X149936840Y-112493991D01*
X149943236Y-112515072D01*
X149946000Y-112543140D01*
X149946000Y-114456860D01*
X149943236Y-114484928D01*
X149936840Y-114506009D01*
X149926452Y-114525445D01*
X149912476Y-114542476D01*
X149895445Y-114556452D01*
X149876009Y-114566840D01*
X149854928Y-114573236D01*
X149826860Y-114576000D01*
X149363140Y-114576000D01*
X149335072Y-114573236D01*
X149313991Y-114566840D01*
X149294555Y-114556452D01*
X149277524Y-114542476D01*
X149263548Y-114525445D01*
X149253160Y-114506009D01*
X149246764Y-114484928D01*
X149244000Y-114456860D01*
X149244000Y-112543140D01*
X149246764Y-112515072D01*
X149253160Y-112493991D01*
X149263548Y-112474555D01*
X149277524Y-112457524D01*
X149294555Y-112443548D01*
X149313991Y-112433160D01*
X149335072Y-112426764D01*
X149363140Y-112424000D01*
X149826860Y-112424000D01*
X149854928Y-112426764D01*
G37*
G36*
X153664928Y-112426764D02*
G01*
X153686009Y-112433160D01*
X153705445Y-112443548D01*
X153722476Y-112457524D01*
X153736452Y-112474555D01*
X153746840Y-112493991D01*
X153753236Y-112515072D01*
X153756000Y-112543140D01*
X153756000Y-114456860D01*
X153753236Y-114484928D01*
X153746840Y-114506009D01*
X153736452Y-114525445D01*
X153722476Y-114542476D01*
X153705445Y-114556452D01*
X153686009Y-114566840D01*
X153664928Y-114573236D01*
X153636860Y-114576000D01*
X153173140Y-114576000D01*
X153145072Y-114573236D01*
X153123991Y-114566840D01*
X153104555Y-114556452D01*
X153087524Y-114542476D01*
X153073548Y-114525445D01*
X153063160Y-114506009D01*
X153056764Y-114484928D01*
X153054000Y-114456860D01*
X153054000Y-112543140D01*
X153056764Y-112515072D01*
X153063160Y-112493991D01*
X153073548Y-112474555D01*
X153087524Y-112457524D01*
X153104555Y-112443548D01*
X153123991Y-112433160D01*
X153145072Y-112426764D01*
X153173140Y-112424000D01*
X153636860Y-112424000D01*
X153664928Y-112426764D01*
G37*
G36*
X214641000Y-114561000D02*
G01*
X212539000Y-114561000D01*
X212539000Y-112459000D01*
X214641000Y-112459000D01*
X214641000Y-114561000D01*
G37*
G36*
X206776162Y-112433644D02*
G01*
X206815608Y-112445610D01*
X206851953Y-112465037D01*
X206883815Y-112491185D01*
X206909963Y-112523047D01*
X206929390Y-112559392D01*
X206941356Y-112598838D01*
X206946000Y-112645993D01*
X206946000Y-113714007D01*
X206941356Y-113761162D01*
X206929390Y-113800608D01*
X206909963Y-113836953D01*
X206883815Y-113868815D01*
X206851953Y-113894963D01*
X206815608Y-113914390D01*
X206776162Y-113926356D01*
X206729007Y-113931000D01*
X206035993Y-113931000D01*
X205988838Y-113926356D01*
X205949392Y-113914390D01*
X205913047Y-113894963D01*
X205881185Y-113868815D01*
X205855037Y-113836953D01*
X205835610Y-113800608D01*
X205823644Y-113761162D01*
X205819000Y-113714007D01*
X205819000Y-112645993D01*
X205823644Y-112598838D01*
X205835610Y-112559392D01*
X205855037Y-112523047D01*
X205881185Y-112491185D01*
X205913047Y-112465037D01*
X205949392Y-112445610D01*
X205988838Y-112433644D01*
X206035993Y-112429000D01*
X206729007Y-112429000D01*
X206776162Y-112433644D01*
G37*
G36*
X204951162Y-112433644D02*
G01*
X204990608Y-112445610D01*
X205026953Y-112465037D01*
X205058815Y-112491185D01*
X205084963Y-112523047D01*
X205104390Y-112559392D01*
X205116356Y-112598838D01*
X205121000Y-112645993D01*
X205121000Y-113714007D01*
X205116356Y-113761162D01*
X205104390Y-113800608D01*
X205084963Y-113836953D01*
X205058815Y-113868815D01*
X205026953Y-113894963D01*
X204990608Y-113914390D01*
X204951162Y-113926356D01*
X204904007Y-113931000D01*
X204210993Y-113931000D01*
X204163838Y-113926356D01*
X204124392Y-113914390D01*
X204088047Y-113894963D01*
X204056185Y-113868815D01*
X204030037Y-113836953D01*
X204010610Y-113800608D01*
X203998644Y-113761162D01*
X203994000Y-113714007D01*
X203994000Y-112645993D01*
X203998644Y-112598838D01*
X204010610Y-112559392D01*
X204030037Y-112523047D01*
X204056185Y-112491185D01*
X204088047Y-112465037D01*
X204124392Y-112445610D01*
X204163838Y-112433644D01*
X204210993Y-112429000D01*
X204904007Y-112429000D01*
X204951162Y-112433644D01*
G37*
G36*
X208589434Y-112368686D02*
G01*
X208629284Y-112380774D01*
X208665999Y-112400399D01*
X208698186Y-112426814D01*
X208724601Y-112459001D01*
X208744226Y-112495716D01*
X208756314Y-112535566D01*
X208761000Y-112583141D01*
X208761000Y-113696859D01*
X208756314Y-113744434D01*
X208744226Y-113784284D01*
X208724601Y-113820999D01*
X208698186Y-113853186D01*
X208665999Y-113879601D01*
X208629284Y-113899226D01*
X208589434Y-113911314D01*
X208541859Y-113916000D01*
X207878141Y-113916000D01*
X207830566Y-113911314D01*
X207790716Y-113899226D01*
X207754001Y-113879601D01*
X207721814Y-113853186D01*
X207695399Y-113820999D01*
X207675774Y-113784284D01*
X207663686Y-113744434D01*
X207659000Y-113696859D01*
X207659000Y-112583141D01*
X207663686Y-112535566D01*
X207675774Y-112495716D01*
X207695399Y-112459001D01*
X207721814Y-112426814D01*
X207754001Y-112400399D01*
X207790716Y-112380774D01*
X207830566Y-112368686D01*
X207878141Y-112364000D01*
X208541859Y-112364000D01*
X208589434Y-112368686D01*
G37*
G36*
X210489434Y-112368686D02*
G01*
X210529284Y-112380774D01*
X210565999Y-112400399D01*
X210598186Y-112426814D01*
X210624601Y-112459001D01*
X210644226Y-112495716D01*
X210656314Y-112535566D01*
X210661000Y-112583141D01*
X210661000Y-113696859D01*
X210656314Y-113744434D01*
X210644226Y-113784284D01*
X210624601Y-113820999D01*
X210598186Y-113853186D01*
X210565999Y-113879601D01*
X210529284Y-113899226D01*
X210489434Y-113911314D01*
X210441859Y-113916000D01*
X209778141Y-113916000D01*
X209730566Y-113911314D01*
X209690716Y-113899226D01*
X209654001Y-113879601D01*
X209621814Y-113853186D01*
X209595399Y-113820999D01*
X209575774Y-113784284D01*
X209563686Y-113744434D01*
X209559000Y-113696859D01*
X209559000Y-112583141D01*
X209563686Y-112535566D01*
X209575774Y-112495716D01*
X209595399Y-112459001D01*
X209621814Y-112426814D01*
X209654001Y-112400399D01*
X209690716Y-112380774D01*
X209730566Y-112368686D01*
X209778141Y-112364000D01*
X210441859Y-112364000D01*
X210489434Y-112368686D01*
G37*
G36*
X158854434Y-112653686D02*
G01*
X158894284Y-112665774D01*
X158930999Y-112685399D01*
X158963186Y-112711814D01*
X158989601Y-112744001D01*
X159009226Y-112780716D01*
X159021314Y-112820566D01*
X159026000Y-112868141D01*
X159026000Y-113531859D01*
X159021314Y-113579434D01*
X159009226Y-113619284D01*
X158989601Y-113655999D01*
X158963186Y-113688186D01*
X158930999Y-113714601D01*
X158894284Y-113734226D01*
X158854434Y-113746314D01*
X158806859Y-113751000D01*
X157693141Y-113751000D01*
X157645566Y-113746314D01*
X157605716Y-113734226D01*
X157569001Y-113714601D01*
X157536814Y-113688186D01*
X157510399Y-113655999D01*
X157490774Y-113619284D01*
X157478686Y-113579434D01*
X157474000Y-113531859D01*
X157474000Y-112868141D01*
X157478686Y-112820566D01*
X157490774Y-112780716D01*
X157510399Y-112744001D01*
X157536814Y-112711814D01*
X157569001Y-112685399D01*
X157605716Y-112665774D01*
X157645566Y-112653686D01*
X157693141Y-112649000D01*
X158806859Y-112649000D01*
X158854434Y-112653686D01*
G37*
G36*
X190729434Y-111078686D02*
G01*
X190769284Y-111090774D01*
X190805999Y-111110399D01*
X190838186Y-111136814D01*
X190864601Y-111169001D01*
X190884226Y-111205716D01*
X190896314Y-111245566D01*
X190901000Y-111293141D01*
X190901000Y-112406859D01*
X190896314Y-112454434D01*
X190884226Y-112494284D01*
X190864601Y-112530999D01*
X190838186Y-112563186D01*
X190805999Y-112589601D01*
X190769284Y-112609226D01*
X190729434Y-112621314D01*
X190681859Y-112626000D01*
X190018141Y-112626000D01*
X189970566Y-112621314D01*
X189930716Y-112609226D01*
X189894001Y-112589601D01*
X189861814Y-112563186D01*
X189835399Y-112530999D01*
X189815774Y-112494284D01*
X189803686Y-112454434D01*
X189799000Y-112406859D01*
X189799000Y-111293141D01*
X189803686Y-111245566D01*
X189815774Y-111205716D01*
X189835399Y-111169001D01*
X189861814Y-111136814D01*
X189894001Y-111110399D01*
X189930716Y-111090774D01*
X189970566Y-111078686D01*
X190018141Y-111074000D01*
X190681859Y-111074000D01*
X190729434Y-111078686D01*
G37*
G36*
X188829434Y-111078686D02*
G01*
X188869284Y-111090774D01*
X188905999Y-111110399D01*
X188938186Y-111136814D01*
X188964601Y-111169001D01*
X188984226Y-111205716D01*
X188996314Y-111245566D01*
X189001000Y-111293141D01*
X189001000Y-112406859D01*
X188996314Y-112454434D01*
X188984226Y-112494284D01*
X188964601Y-112530999D01*
X188938186Y-112563186D01*
X188905999Y-112589601D01*
X188869284Y-112609226D01*
X188829434Y-112621314D01*
X188781859Y-112626000D01*
X188118141Y-112626000D01*
X188070566Y-112621314D01*
X188030716Y-112609226D01*
X187994001Y-112589601D01*
X187961814Y-112563186D01*
X187935399Y-112530999D01*
X187915774Y-112494284D01*
X187903686Y-112454434D01*
X187899000Y-112406859D01*
X187899000Y-111293141D01*
X187903686Y-111245566D01*
X187915774Y-111205716D01*
X187935399Y-111169001D01*
X187961814Y-111136814D01*
X187994001Y-111110399D01*
X188030716Y-111090774D01*
X188070566Y-111078686D01*
X188118141Y-111074000D01*
X188781859Y-111074000D01*
X188829434Y-111078686D01*
G37*
G36*
X169719928Y-110551764D02*
G01*
X169741009Y-110558160D01*
X169760445Y-110568548D01*
X169777476Y-110582524D01*
X169791452Y-110599555D01*
X169801840Y-110618991D01*
X169808236Y-110640072D01*
X169811000Y-110668140D01*
X169811000Y-112481860D01*
X169808236Y-112509928D01*
X169801840Y-112531009D01*
X169791452Y-112550445D01*
X169777476Y-112567476D01*
X169760445Y-112581452D01*
X169741009Y-112591840D01*
X169719928Y-112598236D01*
X169691860Y-112601000D01*
X169228140Y-112601000D01*
X169200072Y-112598236D01*
X169178991Y-112591840D01*
X169159555Y-112581452D01*
X169142524Y-112567476D01*
X169128548Y-112550445D01*
X169118160Y-112531009D01*
X169111764Y-112509928D01*
X169109000Y-112481860D01*
X169109000Y-110668140D01*
X169111764Y-110640072D01*
X169118160Y-110618991D01*
X169128548Y-110599555D01*
X169142524Y-110582524D01*
X169159555Y-110568548D01*
X169178991Y-110558160D01*
X169200072Y-110551764D01*
X169228140Y-110549000D01*
X169691860Y-110549000D01*
X169719928Y-110551764D01*
G37*
G36*
X176069928Y-110551764D02*
G01*
X176091009Y-110558160D01*
X176110445Y-110568548D01*
X176127476Y-110582524D01*
X176141452Y-110599555D01*
X176151840Y-110618991D01*
X176158236Y-110640072D01*
X176161000Y-110668140D01*
X176161000Y-112481860D01*
X176158236Y-112509928D01*
X176151840Y-112531009D01*
X176141452Y-112550445D01*
X176127476Y-112567476D01*
X176110445Y-112581452D01*
X176091009Y-112591840D01*
X176069928Y-112598236D01*
X176041860Y-112601000D01*
X175578140Y-112601000D01*
X175550072Y-112598236D01*
X175528991Y-112591840D01*
X175509555Y-112581452D01*
X175492524Y-112567476D01*
X175478548Y-112550445D01*
X175468160Y-112531009D01*
X175461764Y-112509928D01*
X175459000Y-112481860D01*
X175459000Y-110668140D01*
X175461764Y-110640072D01*
X175468160Y-110618991D01*
X175478548Y-110599555D01*
X175492524Y-110582524D01*
X175509555Y-110568548D01*
X175528991Y-110558160D01*
X175550072Y-110551764D01*
X175578140Y-110549000D01*
X176041860Y-110549000D01*
X176069928Y-110551764D01*
G37*
G36*
X174799928Y-110551764D02*
G01*
X174821009Y-110558160D01*
X174840445Y-110568548D01*
X174857476Y-110582524D01*
X174871452Y-110599555D01*
X174881840Y-110618991D01*
X174888236Y-110640072D01*
X174891000Y-110668140D01*
X174891000Y-112481860D01*
X174888236Y-112509928D01*
X174881840Y-112531009D01*
X174871452Y-112550445D01*
X174857476Y-112567476D01*
X174840445Y-112581452D01*
X174821009Y-112591840D01*
X174799928Y-112598236D01*
X174771860Y-112601000D01*
X174308140Y-112601000D01*
X174280072Y-112598236D01*
X174258991Y-112591840D01*
X174239555Y-112581452D01*
X174222524Y-112567476D01*
X174208548Y-112550445D01*
X174198160Y-112531009D01*
X174191764Y-112509928D01*
X174189000Y-112481860D01*
X174189000Y-110668140D01*
X174191764Y-110640072D01*
X174198160Y-110618991D01*
X174208548Y-110599555D01*
X174222524Y-110582524D01*
X174239555Y-110568548D01*
X174258991Y-110558160D01*
X174280072Y-110551764D01*
X174308140Y-110549000D01*
X174771860Y-110549000D01*
X174799928Y-110551764D01*
G37*
G36*
X168449928Y-110551764D02*
G01*
X168471009Y-110558160D01*
X168490445Y-110568548D01*
X168507476Y-110582524D01*
X168521452Y-110599555D01*
X168531840Y-110618991D01*
X168538236Y-110640072D01*
X168541000Y-110668140D01*
X168541000Y-112481860D01*
X168538236Y-112509928D01*
X168531840Y-112531009D01*
X168521452Y-112550445D01*
X168507476Y-112567476D01*
X168490445Y-112581452D01*
X168471009Y-112591840D01*
X168449928Y-112598236D01*
X168421860Y-112601000D01*
X167958140Y-112601000D01*
X167930072Y-112598236D01*
X167908991Y-112591840D01*
X167889555Y-112581452D01*
X167872524Y-112567476D01*
X167858548Y-112550445D01*
X167848160Y-112531009D01*
X167841764Y-112509928D01*
X167839000Y-112481860D01*
X167839000Y-110668140D01*
X167841764Y-110640072D01*
X167848160Y-110618991D01*
X167858548Y-110599555D01*
X167872524Y-110582524D01*
X167889555Y-110568548D01*
X167908991Y-110558160D01*
X167930072Y-110551764D01*
X167958140Y-110549000D01*
X168421860Y-110549000D01*
X168449928Y-110551764D01*
G37*
G36*
X172259928Y-110551764D02*
G01*
X172281009Y-110558160D01*
X172300445Y-110568548D01*
X172317476Y-110582524D01*
X172331452Y-110599555D01*
X172341840Y-110618991D01*
X172348236Y-110640072D01*
X172351000Y-110668140D01*
X172351000Y-112481860D01*
X172348236Y-112509928D01*
X172341840Y-112531009D01*
X172331452Y-112550445D01*
X172317476Y-112567476D01*
X172300445Y-112581452D01*
X172281009Y-112591840D01*
X172259928Y-112598236D01*
X172231860Y-112601000D01*
X171768140Y-112601000D01*
X171740072Y-112598236D01*
X171718991Y-112591840D01*
X171699555Y-112581452D01*
X171682524Y-112567476D01*
X171668548Y-112550445D01*
X171658160Y-112531009D01*
X171651764Y-112509928D01*
X171649000Y-112481860D01*
X171649000Y-110668140D01*
X171651764Y-110640072D01*
X171658160Y-110618991D01*
X171668548Y-110599555D01*
X171682524Y-110582524D01*
X171699555Y-110568548D01*
X171718991Y-110558160D01*
X171740072Y-110551764D01*
X171768140Y-110549000D01*
X172231860Y-110549000D01*
X172259928Y-110551764D01*
G37*
G36*
X173529928Y-110551764D02*
G01*
X173551009Y-110558160D01*
X173570445Y-110568548D01*
X173587476Y-110582524D01*
X173601452Y-110599555D01*
X173611840Y-110618991D01*
X173618236Y-110640072D01*
X173621000Y-110668140D01*
X173621000Y-112481860D01*
X173618236Y-112509928D01*
X173611840Y-112531009D01*
X173601452Y-112550445D01*
X173587476Y-112567476D01*
X173570445Y-112581452D01*
X173551009Y-112591840D01*
X173529928Y-112598236D01*
X173501860Y-112601000D01*
X173038140Y-112601000D01*
X173010072Y-112598236D01*
X172988991Y-112591840D01*
X172969555Y-112581452D01*
X172952524Y-112567476D01*
X172938548Y-112550445D01*
X172928160Y-112531009D01*
X172921764Y-112509928D01*
X172919000Y-112481860D01*
X172919000Y-110668140D01*
X172921764Y-110640072D01*
X172928160Y-110618991D01*
X172938548Y-110599555D01*
X172952524Y-110582524D01*
X172969555Y-110568548D01*
X172988991Y-110558160D01*
X173010072Y-110551764D01*
X173038140Y-110549000D01*
X173501860Y-110549000D01*
X173529928Y-110551764D01*
G37*
G36*
X170989928Y-110551764D02*
G01*
X171011009Y-110558160D01*
X171030445Y-110568548D01*
X171047476Y-110582524D01*
X171061452Y-110599555D01*
X171071840Y-110618991D01*
X171078236Y-110640072D01*
X171081000Y-110668140D01*
X171081000Y-112481860D01*
X171078236Y-112509928D01*
X171071840Y-112531009D01*
X171061452Y-112550445D01*
X171047476Y-112567476D01*
X171030445Y-112581452D01*
X171011009Y-112591840D01*
X170989928Y-112598236D01*
X170961860Y-112601000D01*
X170498140Y-112601000D01*
X170470072Y-112598236D01*
X170448991Y-112591840D01*
X170429555Y-112581452D01*
X170412524Y-112567476D01*
X170398548Y-112550445D01*
X170388160Y-112531009D01*
X170381764Y-112509928D01*
X170379000Y-112481860D01*
X170379000Y-110668140D01*
X170381764Y-110640072D01*
X170388160Y-110618991D01*
X170398548Y-110599555D01*
X170412524Y-110582524D01*
X170429555Y-110568548D01*
X170448991Y-110558160D01*
X170470072Y-110551764D01*
X170498140Y-110549000D01*
X170961860Y-110549000D01*
X170989928Y-110551764D01*
G37*
G36*
X157261980Y-108854692D02*
G01*
X157455734Y-108893232D01*
X157665203Y-108979997D01*
X157853720Y-109105960D01*
X158014040Y-109266280D01*
X158082451Y-109368665D01*
X158140004Y-109454799D01*
X158160316Y-109503836D01*
X158216514Y-109639510D01*
X158226768Y-109664267D01*
X158269449Y-109878836D01*
X158271000Y-109886636D01*
X158271000Y-110113364D01*
X158226768Y-110335734D01*
X158140003Y-110545203D01*
X158014040Y-110733720D01*
X157853720Y-110894040D01*
X157665203Y-111020003D01*
X157455734Y-111106768D01*
X157387050Y-111120430D01*
X157233365Y-111151000D01*
X157006635Y-111151000D01*
X156852950Y-111120430D01*
X156784266Y-111106768D01*
X156574797Y-111020003D01*
X156386280Y-110894040D01*
X156225960Y-110733720D01*
X156099997Y-110545203D01*
X156013232Y-110335734D01*
X155969000Y-110113364D01*
X155969000Y-109886636D01*
X155970552Y-109878836D01*
X156013232Y-109664267D01*
X156023487Y-109639510D01*
X156079684Y-109503836D01*
X156099996Y-109454799D01*
X156157549Y-109368665D01*
X156225960Y-109266280D01*
X156386280Y-109105960D01*
X156574797Y-108979997D01*
X156784266Y-108893232D01*
X156978020Y-108854692D01*
X157006635Y-108849000D01*
X157233365Y-108849000D01*
X157261980Y-108854692D01*
G37*
G36*
X153451980Y-108854692D02*
G01*
X153645734Y-108893232D01*
X153855203Y-108979997D01*
X154043720Y-109105960D01*
X154204040Y-109266280D01*
X154272451Y-109368665D01*
X154330004Y-109454799D01*
X154350316Y-109503836D01*
X154406514Y-109639510D01*
X154416768Y-109664267D01*
X154459449Y-109878836D01*
X154461000Y-109886636D01*
X154461000Y-110113364D01*
X154416768Y-110335734D01*
X154330003Y-110545203D01*
X154204040Y-110733720D01*
X154043720Y-110894040D01*
X153855203Y-111020003D01*
X153645734Y-111106768D01*
X153577050Y-111120430D01*
X153423365Y-111151000D01*
X153196635Y-111151000D01*
X153042950Y-111120430D01*
X152974266Y-111106768D01*
X152764797Y-111020003D01*
X152576280Y-110894040D01*
X152415960Y-110733720D01*
X152289997Y-110545203D01*
X152203232Y-110335734D01*
X152159000Y-110113364D01*
X152159000Y-109886636D01*
X152160552Y-109878836D01*
X152203232Y-109664267D01*
X152213487Y-109639510D01*
X152269684Y-109503836D01*
X152289996Y-109454799D01*
X152347549Y-109368665D01*
X152415960Y-109266280D01*
X152576280Y-109105960D01*
X152764797Y-108979997D01*
X152974266Y-108893232D01*
X153168020Y-108854692D01*
X153196635Y-108849000D01*
X153423365Y-108849000D01*
X153451980Y-108854692D01*
G37*
G36*
X149641980Y-108854692D02*
G01*
X149835734Y-108893232D01*
X150045203Y-108979997D01*
X150233720Y-109105960D01*
X150394040Y-109266280D01*
X150462451Y-109368665D01*
X150520004Y-109454799D01*
X150540316Y-109503836D01*
X150596514Y-109639510D01*
X150606768Y-109664267D01*
X150649449Y-109878836D01*
X150651000Y-109886636D01*
X150651000Y-110113364D01*
X150606768Y-110335734D01*
X150520003Y-110545203D01*
X150394040Y-110733720D01*
X150233720Y-110894040D01*
X150045203Y-111020003D01*
X149835734Y-111106768D01*
X149767050Y-111120430D01*
X149613365Y-111151000D01*
X149386635Y-111151000D01*
X149232950Y-111120430D01*
X149164266Y-111106768D01*
X148954797Y-111020003D01*
X148766280Y-110894040D01*
X148605960Y-110733720D01*
X148479997Y-110545203D01*
X148393232Y-110335734D01*
X148349000Y-110113364D01*
X148349000Y-109886636D01*
X148350552Y-109878836D01*
X148393232Y-109664267D01*
X148403487Y-109639510D01*
X148459684Y-109503836D01*
X148479996Y-109454799D01*
X148537549Y-109368665D01*
X148605960Y-109266280D01*
X148766280Y-109105960D01*
X148954797Y-108979997D01*
X149164266Y-108893232D01*
X149358020Y-108854692D01*
X149386635Y-108849000D01*
X149613365Y-108849000D01*
X149641980Y-108854692D01*
G37*
G36*
X203856162Y-109563644D02*
G01*
X203895608Y-109575610D01*
X203931953Y-109595037D01*
X203963815Y-109621185D01*
X203989963Y-109653047D01*
X204009390Y-109689392D01*
X204021356Y-109728838D01*
X204026000Y-109775993D01*
X204026000Y-110844007D01*
X204021356Y-110891162D01*
X204009390Y-110930608D01*
X203989963Y-110966953D01*
X203963815Y-110998815D01*
X203931953Y-111024963D01*
X203895608Y-111044390D01*
X203856162Y-111056356D01*
X203809007Y-111061000D01*
X203115993Y-111061000D01*
X203068838Y-111056356D01*
X203029392Y-111044390D01*
X202993047Y-111024963D01*
X202961185Y-110998815D01*
X202935037Y-110966953D01*
X202915610Y-110930608D01*
X202903644Y-110891162D01*
X202899000Y-110844007D01*
X202899000Y-109775993D01*
X202903644Y-109728838D01*
X202915610Y-109689392D01*
X202935037Y-109653047D01*
X202961185Y-109621185D01*
X202993047Y-109595037D01*
X203029392Y-109575610D01*
X203068838Y-109563644D01*
X203115993Y-109559000D01*
X203809007Y-109559000D01*
X203856162Y-109563644D01*
G37*
G36*
X202031162Y-109563644D02*
G01*
X202070608Y-109575610D01*
X202106953Y-109595037D01*
X202138815Y-109621185D01*
X202164963Y-109653047D01*
X202184390Y-109689392D01*
X202196356Y-109728838D01*
X202201000Y-109775993D01*
X202201000Y-110844007D01*
X202196356Y-110891162D01*
X202184390Y-110930608D01*
X202164963Y-110966953D01*
X202138815Y-110998815D01*
X202106953Y-111024963D01*
X202070608Y-111044390D01*
X202031162Y-111056356D01*
X201984007Y-111061000D01*
X201290993Y-111061000D01*
X201243838Y-111056356D01*
X201204392Y-111044390D01*
X201168047Y-111024963D01*
X201136185Y-110998815D01*
X201110037Y-110966953D01*
X201090610Y-110930608D01*
X201078644Y-110891162D01*
X201074000Y-110844007D01*
X201074000Y-109775993D01*
X201078644Y-109728838D01*
X201090610Y-109689392D01*
X201110037Y-109653047D01*
X201136185Y-109621185D01*
X201168047Y-109595037D01*
X201204392Y-109575610D01*
X201243838Y-109563644D01*
X201290993Y-109559000D01*
X201984007Y-109559000D01*
X202031162Y-109563644D01*
G37*
G36*
X146741000Y-111051000D02*
G01*
X144639000Y-111051000D01*
X144639000Y-108949000D01*
X146741000Y-108949000D01*
X146741000Y-111051000D01*
G37*
G36*
X183220295Y-109325323D02*
G01*
X183227309Y-109327451D01*
X183241077Y-109334810D01*
X183263716Y-109344187D01*
X183287749Y-109348967D01*
X183312253Y-109348967D01*
X183336286Y-109344186D01*
X183358923Y-109334810D01*
X183372691Y-109327451D01*
X183379705Y-109325323D01*
X183393140Y-109324000D01*
X183706860Y-109324000D01*
X183720295Y-109325323D01*
X183727309Y-109327451D01*
X183741077Y-109334810D01*
X183763716Y-109344187D01*
X183787749Y-109348967D01*
X183812253Y-109348967D01*
X183836286Y-109344186D01*
X183858923Y-109334810D01*
X183872691Y-109327451D01*
X183879705Y-109325323D01*
X183893140Y-109324000D01*
X184206860Y-109324000D01*
X184220295Y-109325323D01*
X184227309Y-109327451D01*
X184241077Y-109334810D01*
X184263716Y-109344187D01*
X184287749Y-109348967D01*
X184312253Y-109348967D01*
X184336286Y-109344186D01*
X184358923Y-109334810D01*
X184372691Y-109327451D01*
X184379705Y-109325323D01*
X184393140Y-109324000D01*
X184706860Y-109324000D01*
X184720295Y-109325323D01*
X184727309Y-109327451D01*
X184741077Y-109334810D01*
X184763716Y-109344187D01*
X184787749Y-109348967D01*
X184812253Y-109348967D01*
X184836286Y-109344186D01*
X184858923Y-109334810D01*
X184872691Y-109327451D01*
X184879705Y-109325323D01*
X184893140Y-109324000D01*
X185206860Y-109324000D01*
X185220295Y-109325323D01*
X185227310Y-109327451D01*
X185233776Y-109330908D01*
X185239442Y-109335558D01*
X185244092Y-109341224D01*
X185247549Y-109347690D01*
X185249677Y-109354705D01*
X185251000Y-109368140D01*
X185251000Y-110831860D01*
X185249677Y-110845295D01*
X185247549Y-110852310D01*
X185244092Y-110858776D01*
X185239442Y-110864442D01*
X185233776Y-110869092D01*
X185227310Y-110872549D01*
X185220295Y-110874677D01*
X185206860Y-110876000D01*
X184893140Y-110876000D01*
X184879705Y-110874677D01*
X184872691Y-110872549D01*
X184858923Y-110865190D01*
X184836284Y-110855813D01*
X184812251Y-110851033D01*
X184787747Y-110851033D01*
X184763714Y-110855814D01*
X184741077Y-110865190D01*
X184727309Y-110872549D01*
X184720295Y-110874677D01*
X184706860Y-110876000D01*
X184393140Y-110876000D01*
X184379705Y-110874677D01*
X184372691Y-110872549D01*
X184358923Y-110865190D01*
X184336284Y-110855813D01*
X184312251Y-110851033D01*
X184287747Y-110851033D01*
X184263714Y-110855814D01*
X184241077Y-110865190D01*
X184227309Y-110872549D01*
X184220295Y-110874677D01*
X184206860Y-110876000D01*
X183893140Y-110876000D01*
X183879705Y-110874677D01*
X183872691Y-110872549D01*
X183858923Y-110865190D01*
X183836284Y-110855813D01*
X183812251Y-110851033D01*
X183787747Y-110851033D01*
X183763714Y-110855814D01*
X183741077Y-110865190D01*
X183727309Y-110872549D01*
X183720295Y-110874677D01*
X183706860Y-110876000D01*
X183393140Y-110876000D01*
X183379705Y-110874677D01*
X183372691Y-110872549D01*
X183358923Y-110865190D01*
X183336284Y-110855813D01*
X183312251Y-110851033D01*
X183287747Y-110851033D01*
X183263714Y-110855814D01*
X183241077Y-110865190D01*
X183227309Y-110872549D01*
X183220295Y-110874677D01*
X183206860Y-110876000D01*
X182893140Y-110876000D01*
X182879705Y-110874677D01*
X182872690Y-110872549D01*
X182866224Y-110869092D01*
X182860558Y-110864442D01*
X182855908Y-110858776D01*
X182852451Y-110852310D01*
X182850323Y-110845295D01*
X182849000Y-110831860D01*
X182849000Y-109368140D01*
X182850323Y-109354705D01*
X182852451Y-109347690D01*
X182855908Y-109341224D01*
X182860558Y-109335558D01*
X182866224Y-109330908D01*
X182872690Y-109327451D01*
X182879705Y-109325323D01*
X182893140Y-109324000D01*
X183206860Y-109324000D01*
X183220295Y-109325323D01*
G37*
G36*
X190729434Y-108778686D02*
G01*
X190769284Y-108790774D01*
X190805999Y-108810399D01*
X190838186Y-108836814D01*
X190864601Y-108869001D01*
X190884226Y-108905716D01*
X190896314Y-108945566D01*
X190901000Y-108993141D01*
X190901000Y-110106859D01*
X190896314Y-110154434D01*
X190884226Y-110194284D01*
X190864601Y-110230999D01*
X190838186Y-110263186D01*
X190805999Y-110289601D01*
X190769284Y-110309226D01*
X190729434Y-110321314D01*
X190681859Y-110326000D01*
X190018141Y-110326000D01*
X189970566Y-110321314D01*
X189930716Y-110309226D01*
X189894001Y-110289601D01*
X189861814Y-110263186D01*
X189835399Y-110230999D01*
X189815774Y-110194284D01*
X189803686Y-110154434D01*
X189799000Y-110106859D01*
X189799000Y-108993141D01*
X189803686Y-108945566D01*
X189815774Y-108905716D01*
X189835399Y-108869001D01*
X189861814Y-108836814D01*
X189894001Y-108810399D01*
X189930716Y-108790774D01*
X189970566Y-108778686D01*
X190018141Y-108774000D01*
X190681859Y-108774000D01*
X190729434Y-108778686D01*
G37*
G36*
X188829434Y-108778686D02*
G01*
X188869284Y-108790774D01*
X188905999Y-108810399D01*
X188938186Y-108836814D01*
X188964601Y-108869001D01*
X188984226Y-108905716D01*
X188996314Y-108945566D01*
X189001000Y-108993141D01*
X189001000Y-110106859D01*
X188996314Y-110154434D01*
X188984226Y-110194284D01*
X188964601Y-110230999D01*
X188938186Y-110263186D01*
X188905999Y-110289601D01*
X188869284Y-110309226D01*
X188829434Y-110321314D01*
X188781859Y-110326000D01*
X188118141Y-110326000D01*
X188070566Y-110321314D01*
X188030716Y-110309226D01*
X187994001Y-110289601D01*
X187961814Y-110263186D01*
X187935399Y-110230999D01*
X187915774Y-110194284D01*
X187903686Y-110154434D01*
X187899000Y-110106859D01*
X187899000Y-108993141D01*
X187903686Y-108945566D01*
X187915774Y-108905716D01*
X187935399Y-108869001D01*
X187961814Y-108836814D01*
X187994001Y-108810399D01*
X188030716Y-108790774D01*
X188070566Y-108778686D01*
X188118141Y-108774000D01*
X188781859Y-108774000D01*
X188829434Y-108778686D01*
G37*
G36*
X163981162Y-108503644D02*
G01*
X164020608Y-108515610D01*
X164056953Y-108535037D01*
X164088815Y-108561185D01*
X164114963Y-108593047D01*
X164134390Y-108629392D01*
X164146356Y-108668838D01*
X164151000Y-108715993D01*
X164151000Y-109784007D01*
X164146356Y-109831162D01*
X164134390Y-109870608D01*
X164114963Y-109906953D01*
X164088815Y-109938815D01*
X164056953Y-109964963D01*
X164020608Y-109984390D01*
X163981162Y-109996356D01*
X163934007Y-110001000D01*
X163240993Y-110001000D01*
X163193838Y-109996356D01*
X163154392Y-109984390D01*
X163118047Y-109964963D01*
X163086185Y-109938815D01*
X163060037Y-109906953D01*
X163040610Y-109870608D01*
X163028644Y-109831162D01*
X163024000Y-109784007D01*
X163024000Y-108715993D01*
X163028644Y-108668838D01*
X163040610Y-108629392D01*
X163060037Y-108593047D01*
X163086185Y-108561185D01*
X163118047Y-108535037D01*
X163154392Y-108515610D01*
X163193838Y-108503644D01*
X163240993Y-108499000D01*
X163934007Y-108499000D01*
X163981162Y-108503644D01*
G37*
G36*
X165806162Y-108503644D02*
G01*
X165845608Y-108515610D01*
X165881953Y-108535037D01*
X165913815Y-108561185D01*
X165939963Y-108593047D01*
X165959390Y-108629392D01*
X165971356Y-108668838D01*
X165976000Y-108715993D01*
X165976000Y-109784007D01*
X165971356Y-109831162D01*
X165959390Y-109870608D01*
X165939963Y-109906953D01*
X165913815Y-109938815D01*
X165881953Y-109964963D01*
X165845608Y-109984390D01*
X165806162Y-109996356D01*
X165759007Y-110001000D01*
X165065993Y-110001000D01*
X165018838Y-109996356D01*
X164979392Y-109984390D01*
X164943047Y-109964963D01*
X164911185Y-109938815D01*
X164885037Y-109906953D01*
X164865610Y-109870608D01*
X164853644Y-109831162D01*
X164849000Y-109784007D01*
X164849000Y-108715993D01*
X164853644Y-108668838D01*
X164865610Y-108629392D01*
X164885037Y-108593047D01*
X164911185Y-108561185D01*
X164943047Y-108535037D01*
X164979392Y-108515610D01*
X165018838Y-108503644D01*
X165065993Y-108499000D01*
X165759007Y-108499000D01*
X165806162Y-108503644D01*
G37*
G36*
X162306162Y-108503644D02*
G01*
X162345608Y-108515610D01*
X162381953Y-108535037D01*
X162413815Y-108561185D01*
X162439963Y-108593047D01*
X162459390Y-108629392D01*
X162471356Y-108668838D01*
X162476000Y-108715993D01*
X162476000Y-109784007D01*
X162471356Y-109831162D01*
X162459390Y-109870608D01*
X162439963Y-109906953D01*
X162413815Y-109938815D01*
X162381953Y-109964963D01*
X162345608Y-109984390D01*
X162306162Y-109996356D01*
X162259007Y-110001000D01*
X161565993Y-110001000D01*
X161518838Y-109996356D01*
X161479392Y-109984390D01*
X161443047Y-109964963D01*
X161411185Y-109938815D01*
X161385037Y-109906953D01*
X161365610Y-109870608D01*
X161353644Y-109831162D01*
X161349000Y-109784007D01*
X161349000Y-108715993D01*
X161353644Y-108668838D01*
X161365610Y-108629392D01*
X161385037Y-108593047D01*
X161411185Y-108561185D01*
X161443047Y-108535037D01*
X161479392Y-108515610D01*
X161518838Y-108503644D01*
X161565993Y-108499000D01*
X162259007Y-108499000D01*
X162306162Y-108503644D01*
G37*
G36*
X160481162Y-108503644D02*
G01*
X160520608Y-108515610D01*
X160556953Y-108535037D01*
X160588815Y-108561185D01*
X160614963Y-108593047D01*
X160634390Y-108629392D01*
X160646356Y-108668838D01*
X160651000Y-108715993D01*
X160651000Y-109784007D01*
X160646356Y-109831162D01*
X160634390Y-109870608D01*
X160614963Y-109906953D01*
X160588815Y-109938815D01*
X160556953Y-109964963D01*
X160520608Y-109984390D01*
X160481162Y-109996356D01*
X160434007Y-110001000D01*
X159740993Y-110001000D01*
X159693838Y-109996356D01*
X159654392Y-109984390D01*
X159618047Y-109964963D01*
X159586185Y-109938815D01*
X159560037Y-109906953D01*
X159540610Y-109870608D01*
X159528644Y-109831162D01*
X159524000Y-109784007D01*
X159524000Y-108715993D01*
X159528644Y-108668838D01*
X159540610Y-108629392D01*
X159560037Y-108593047D01*
X159586185Y-108561185D01*
X159618047Y-108535037D01*
X159654392Y-108515610D01*
X159693838Y-108503644D01*
X159740993Y-108499000D01*
X160434007Y-108499000D01*
X160481162Y-108503644D01*
G37*
G36*
X181031162Y-108503644D02*
G01*
X181070608Y-108515610D01*
X181106953Y-108535037D01*
X181138815Y-108561185D01*
X181164963Y-108593047D01*
X181184390Y-108629392D01*
X181196356Y-108668838D01*
X181201000Y-108715993D01*
X181201000Y-109409007D01*
X181196356Y-109456162D01*
X181184390Y-109495608D01*
X181164963Y-109531953D01*
X181138815Y-109563815D01*
X181106953Y-109589963D01*
X181070608Y-109609390D01*
X181031162Y-109621356D01*
X180984007Y-109626000D01*
X179915993Y-109626000D01*
X179868838Y-109621356D01*
X179829392Y-109609390D01*
X179793047Y-109589963D01*
X179761185Y-109563815D01*
X179735037Y-109531953D01*
X179715610Y-109495608D01*
X179703644Y-109456162D01*
X179699000Y-109409007D01*
X179699000Y-108715993D01*
X179703644Y-108668838D01*
X179715610Y-108629392D01*
X179735037Y-108593047D01*
X179761185Y-108561185D01*
X179793047Y-108535037D01*
X179829392Y-108515610D01*
X179868838Y-108503644D01*
X179915993Y-108499000D01*
X180984007Y-108499000D01*
X181031162Y-108503644D01*
G37*
G36*
X179031162Y-108503644D02*
G01*
X179070608Y-108515610D01*
X179106953Y-108535037D01*
X179138815Y-108561185D01*
X179164963Y-108593047D01*
X179184390Y-108629392D01*
X179196356Y-108668838D01*
X179201000Y-108715993D01*
X179201000Y-109409007D01*
X179196356Y-109456162D01*
X179184390Y-109495608D01*
X179164963Y-109531953D01*
X179138815Y-109563815D01*
X179106953Y-109589963D01*
X179070608Y-109609390D01*
X179031162Y-109621356D01*
X178984007Y-109626000D01*
X177915993Y-109626000D01*
X177868838Y-109621356D01*
X177829392Y-109609390D01*
X177793047Y-109589963D01*
X177761185Y-109563815D01*
X177735037Y-109531953D01*
X177715610Y-109495608D01*
X177703644Y-109456162D01*
X177699000Y-109409007D01*
X177699000Y-108715993D01*
X177703644Y-108668838D01*
X177715610Y-108629392D01*
X177735037Y-108593047D01*
X177761185Y-108561185D01*
X177793047Y-108535037D01*
X177829392Y-108515610D01*
X177868838Y-108503644D01*
X177915993Y-108499000D01*
X178984007Y-108499000D01*
X179031162Y-108503644D01*
G37*
G36*
X202061162Y-107413644D02*
G01*
X202100608Y-107425610D01*
X202136953Y-107445037D01*
X202168815Y-107471185D01*
X202194963Y-107503047D01*
X202214390Y-107539392D01*
X202226356Y-107578838D01*
X202231000Y-107625993D01*
X202231000Y-108694007D01*
X202226356Y-108741162D01*
X202214390Y-108780608D01*
X202194963Y-108816953D01*
X202168815Y-108848815D01*
X202136953Y-108874963D01*
X202100608Y-108894390D01*
X202061162Y-108906356D01*
X202014007Y-108911000D01*
X201320993Y-108911000D01*
X201273838Y-108906356D01*
X201234392Y-108894390D01*
X201198047Y-108874963D01*
X201166185Y-108848815D01*
X201140037Y-108816953D01*
X201120610Y-108780608D01*
X201108644Y-108741162D01*
X201104000Y-108694007D01*
X201104000Y-107625993D01*
X201108644Y-107578838D01*
X201120610Y-107539392D01*
X201140037Y-107503047D01*
X201166185Y-107471185D01*
X201198047Y-107445037D01*
X201234392Y-107425610D01*
X201273838Y-107413644D01*
X201320993Y-107409000D01*
X202014007Y-107409000D01*
X202061162Y-107413644D01*
G37*
G36*
X203886162Y-107413644D02*
G01*
X203925608Y-107425610D01*
X203961953Y-107445037D01*
X203993815Y-107471185D01*
X204019963Y-107503047D01*
X204039390Y-107539392D01*
X204051356Y-107578838D01*
X204056000Y-107625993D01*
X204056000Y-108694007D01*
X204051356Y-108741162D01*
X204039390Y-108780608D01*
X204019963Y-108816953D01*
X203993815Y-108848815D01*
X203961953Y-108874963D01*
X203925608Y-108894390D01*
X203886162Y-108906356D01*
X203839007Y-108911000D01*
X203145993Y-108911000D01*
X203098838Y-108906356D01*
X203059392Y-108894390D01*
X203023047Y-108874963D01*
X202991185Y-108848815D01*
X202965037Y-108816953D01*
X202945610Y-108780608D01*
X202933644Y-108741162D01*
X202929000Y-108694007D01*
X202929000Y-107625993D01*
X202933644Y-107578838D01*
X202945610Y-107539392D01*
X202965037Y-107503047D01*
X202991185Y-107471185D01*
X203023047Y-107445037D01*
X203059392Y-107425610D01*
X203098838Y-107413644D01*
X203145993Y-107409000D01*
X203839007Y-107409000D01*
X203886162Y-107413644D01*
G37*
G36*
X173050000Y-108850000D02*
G01*
X169550000Y-108850000D01*
X169550000Y-105350000D01*
X173050000Y-105350000D01*
X173050000Y-108850000D01*
G37*
G36*
X198500000Y-108850000D02*
G01*
X195000000Y-108850000D01*
X195000000Y-105350000D01*
X198500000Y-105350000D01*
X198500000Y-108850000D01*
G37*
G36*
X217369434Y-107058686D02*
G01*
X217409284Y-107070774D01*
X217445999Y-107090399D01*
X217478186Y-107116814D01*
X217504601Y-107149001D01*
X217524226Y-107185716D01*
X217536314Y-107225566D01*
X217541000Y-107273141D01*
X217541000Y-108386859D01*
X217536314Y-108434434D01*
X217524226Y-108474284D01*
X217504601Y-108510999D01*
X217478186Y-108543186D01*
X217445999Y-108569601D01*
X217409284Y-108589226D01*
X217369434Y-108601314D01*
X217321859Y-108606000D01*
X216658141Y-108606000D01*
X216610566Y-108601314D01*
X216570716Y-108589226D01*
X216534001Y-108569601D01*
X216501814Y-108543186D01*
X216475399Y-108510999D01*
X216455774Y-108474284D01*
X216443686Y-108434434D01*
X216439000Y-108386859D01*
X216439000Y-107273141D01*
X216443686Y-107225566D01*
X216455774Y-107185716D01*
X216475399Y-107149001D01*
X216501814Y-107116814D01*
X216534001Y-107090399D01*
X216570716Y-107070774D01*
X216610566Y-107058686D01*
X216658141Y-107054000D01*
X217321859Y-107054000D01*
X217369434Y-107058686D01*
G37*
G36*
X215469434Y-107058686D02*
G01*
X215509284Y-107070774D01*
X215545999Y-107090399D01*
X215578186Y-107116814D01*
X215604601Y-107149001D01*
X215624226Y-107185716D01*
X215636314Y-107225566D01*
X215641000Y-107273141D01*
X215641000Y-108386859D01*
X215636314Y-108434434D01*
X215624226Y-108474284D01*
X215604601Y-108510999D01*
X215578186Y-108543186D01*
X215545999Y-108569601D01*
X215509284Y-108589226D01*
X215469434Y-108601314D01*
X215421859Y-108606000D01*
X214758141Y-108606000D01*
X214710566Y-108601314D01*
X214670716Y-108589226D01*
X214634001Y-108569601D01*
X214601814Y-108543186D01*
X214575399Y-108510999D01*
X214555774Y-108474284D01*
X214543686Y-108434434D01*
X214539000Y-108386859D01*
X214539000Y-107273141D01*
X214543686Y-107225566D01*
X214555774Y-107185716D01*
X214575399Y-107149001D01*
X214601814Y-107116814D01*
X214634001Y-107090399D01*
X214670716Y-107070774D01*
X214710566Y-107058686D01*
X214758141Y-107054000D01*
X215421859Y-107054000D01*
X215469434Y-107058686D01*
G37*
G36*
X225150098Y-106970362D02*
G01*
X225264504Y-107017751D01*
X225274943Y-107022075D01*
X225387299Y-107097149D01*
X225482851Y-107192701D01*
X225538345Y-107275753D01*
X225557926Y-107305059D01*
X225609638Y-107429902D01*
X225636000Y-107562434D01*
X225636000Y-107697566D01*
X225609638Y-107830098D01*
X225557926Y-107954941D01*
X225557925Y-107954943D01*
X225482851Y-108067299D01*
X225387299Y-108162851D01*
X225274943Y-108237925D01*
X225274942Y-108237926D01*
X225274941Y-108237926D01*
X225150098Y-108289638D01*
X225017566Y-108316000D01*
X224882434Y-108316000D01*
X224749902Y-108289638D01*
X224625059Y-108237926D01*
X224625058Y-108237926D01*
X224625057Y-108237925D01*
X224512701Y-108162851D01*
X224417149Y-108067299D01*
X224342075Y-107954943D01*
X224342074Y-107954941D01*
X224290362Y-107830098D01*
X224264000Y-107697566D01*
X224264000Y-107562434D01*
X224290362Y-107429902D01*
X224342074Y-107305059D01*
X224361656Y-107275753D01*
X224417149Y-107192701D01*
X224512701Y-107097149D01*
X224625057Y-107022075D01*
X224635496Y-107017751D01*
X224749902Y-106970362D01*
X224882434Y-106944000D01*
X225017566Y-106944000D01*
X225150098Y-106970362D01*
G37*
G36*
X208400170Y-105805803D02*
G01*
X208411875Y-105809354D01*
X208422665Y-105815121D01*
X208432119Y-105822881D01*
X208439879Y-105832335D01*
X208445646Y-105843125D01*
X208449197Y-105854830D01*
X208451000Y-105873138D01*
X208451000Y-106236862D01*
X208449197Y-106255170D01*
X208445646Y-106266875D01*
X208439879Y-106277665D01*
X208428370Y-106291688D01*
X208419355Y-106300704D01*
X208405741Y-106321078D01*
X208396365Y-106343717D01*
X208391585Y-106367751D01*
X208391585Y-106392255D01*
X208396366Y-106416288D01*
X208405744Y-106438926D01*
X208419358Y-106459301D01*
X208428374Y-106468317D01*
X208439879Y-106482335D01*
X208445646Y-106493125D01*
X208449197Y-106504830D01*
X208451000Y-106523138D01*
X208451000Y-106886862D01*
X208449197Y-106905170D01*
X208445646Y-106916875D01*
X208439879Y-106927665D01*
X208428370Y-106941688D01*
X208419355Y-106950704D01*
X208405741Y-106971078D01*
X208396365Y-106993717D01*
X208391585Y-107017751D01*
X208391585Y-107042255D01*
X208396366Y-107066288D01*
X208405744Y-107088926D01*
X208419358Y-107109301D01*
X208428374Y-107118317D01*
X208439879Y-107132335D01*
X208445646Y-107143125D01*
X208449197Y-107154830D01*
X208451000Y-107173138D01*
X208451000Y-107536862D01*
X208449197Y-107555170D01*
X208445646Y-107566875D01*
X208439879Y-107577665D01*
X208428370Y-107591688D01*
X208419355Y-107600704D01*
X208405741Y-107621078D01*
X208396365Y-107643717D01*
X208391585Y-107667751D01*
X208391585Y-107692255D01*
X208396366Y-107716288D01*
X208405744Y-107738926D01*
X208419358Y-107759301D01*
X208428374Y-107768317D01*
X208439879Y-107782335D01*
X208445646Y-107793125D01*
X208449197Y-107804830D01*
X208451000Y-107823138D01*
X208451000Y-108186862D01*
X208449197Y-108205170D01*
X208445646Y-108216875D01*
X208439879Y-108227665D01*
X208432119Y-108237119D01*
X208422665Y-108244879D01*
X208411875Y-108250646D01*
X208400170Y-108254197D01*
X208381862Y-108256000D01*
X206793138Y-108256000D01*
X206774830Y-108254197D01*
X206763125Y-108250646D01*
X206752335Y-108244879D01*
X206742881Y-108237119D01*
X206735121Y-108227665D01*
X206729354Y-108216875D01*
X206725803Y-108205170D01*
X206724000Y-108186862D01*
X206724000Y-107823138D01*
X206725803Y-107804830D01*
X206729354Y-107793125D01*
X206735121Y-107782335D01*
X206746630Y-107768312D01*
X206755645Y-107759296D01*
X206769259Y-107738922D01*
X206778635Y-107716283D01*
X206783415Y-107692249D01*
X206783415Y-107667745D01*
X206778634Y-107643712D01*
X206769256Y-107621074D01*
X206755642Y-107600699D01*
X206746626Y-107591683D01*
X206735121Y-107577665D01*
X206729354Y-107566875D01*
X206725803Y-107555170D01*
X206724000Y-107536862D01*
X206724000Y-107173138D01*
X206725803Y-107154830D01*
X206729354Y-107143125D01*
X206735121Y-107132335D01*
X206746630Y-107118312D01*
X206755645Y-107109296D01*
X206769259Y-107088922D01*
X206778635Y-107066283D01*
X206783415Y-107042249D01*
X206783415Y-107017745D01*
X206778634Y-106993712D01*
X206769256Y-106971074D01*
X206755642Y-106950699D01*
X206746626Y-106941683D01*
X206735121Y-106927665D01*
X206729354Y-106916875D01*
X206725803Y-106905170D01*
X206724000Y-106886862D01*
X206724000Y-106523138D01*
X206725803Y-106504830D01*
X206729354Y-106493125D01*
X206735121Y-106482335D01*
X206746630Y-106468312D01*
X206755645Y-106459296D01*
X206769259Y-106438922D01*
X206778635Y-106416283D01*
X206783415Y-106392249D01*
X206783415Y-106367745D01*
X206778634Y-106343712D01*
X206769256Y-106321074D01*
X206755642Y-106300699D01*
X206746626Y-106291683D01*
X206735121Y-106277665D01*
X206729354Y-106266875D01*
X206725803Y-106255170D01*
X206724000Y-106236862D01*
X206724000Y-105873138D01*
X206725803Y-105854830D01*
X206729354Y-105843125D01*
X206735121Y-105832335D01*
X206742881Y-105822881D01*
X206752335Y-105815121D01*
X206763125Y-105809354D01*
X206774830Y-105805803D01*
X206793138Y-105804000D01*
X208381862Y-105804000D01*
X208400170Y-105805803D01*
G37*
G36*
X212625170Y-105805803D02*
G01*
X212636875Y-105809354D01*
X212647665Y-105815121D01*
X212657119Y-105822881D01*
X212664879Y-105832335D01*
X212670646Y-105843125D01*
X212674197Y-105854830D01*
X212676000Y-105873138D01*
X212676000Y-106236862D01*
X212674197Y-106255170D01*
X212670646Y-106266875D01*
X212664879Y-106277665D01*
X212653370Y-106291688D01*
X212644355Y-106300704D01*
X212630741Y-106321078D01*
X212621365Y-106343717D01*
X212616585Y-106367751D01*
X212616585Y-106392255D01*
X212621366Y-106416288D01*
X212630744Y-106438926D01*
X212644358Y-106459301D01*
X212653374Y-106468317D01*
X212664879Y-106482335D01*
X212670646Y-106493125D01*
X212674197Y-106504830D01*
X212676000Y-106523138D01*
X212676000Y-106886862D01*
X212674197Y-106905170D01*
X212670646Y-106916875D01*
X212664879Y-106927665D01*
X212653370Y-106941688D01*
X212644355Y-106950704D01*
X212630741Y-106971078D01*
X212621365Y-106993717D01*
X212616585Y-107017751D01*
X212616585Y-107042255D01*
X212621366Y-107066288D01*
X212630744Y-107088926D01*
X212644358Y-107109301D01*
X212653374Y-107118317D01*
X212664879Y-107132335D01*
X212670646Y-107143125D01*
X212674197Y-107154830D01*
X212676000Y-107173138D01*
X212676000Y-107536862D01*
X212674197Y-107555170D01*
X212670646Y-107566875D01*
X212664879Y-107577665D01*
X212653370Y-107591688D01*
X212644355Y-107600704D01*
X212630741Y-107621078D01*
X212621365Y-107643717D01*
X212616585Y-107667751D01*
X212616585Y-107692255D01*
X212621366Y-107716288D01*
X212630744Y-107738926D01*
X212644358Y-107759301D01*
X212653374Y-107768317D01*
X212664879Y-107782335D01*
X212670646Y-107793125D01*
X212674197Y-107804830D01*
X212676000Y-107823138D01*
X212676000Y-108186862D01*
X212674197Y-108205170D01*
X212670646Y-108216875D01*
X212664879Y-108227665D01*
X212657119Y-108237119D01*
X212647665Y-108244879D01*
X212636875Y-108250646D01*
X212625170Y-108254197D01*
X212606862Y-108256000D01*
X211018138Y-108256000D01*
X210999830Y-108254197D01*
X210988125Y-108250646D01*
X210977335Y-108244879D01*
X210967881Y-108237119D01*
X210960121Y-108227665D01*
X210954354Y-108216875D01*
X210950803Y-108205170D01*
X210949000Y-108186862D01*
X210949000Y-107823138D01*
X210950803Y-107804830D01*
X210954354Y-107793125D01*
X210960121Y-107782335D01*
X210971630Y-107768312D01*
X210980645Y-107759296D01*
X210994259Y-107738922D01*
X211003635Y-107716283D01*
X211008415Y-107692249D01*
X211008415Y-107667745D01*
X211003634Y-107643712D01*
X210994256Y-107621074D01*
X210980642Y-107600699D01*
X210971626Y-107591683D01*
X210960121Y-107577665D01*
X210954354Y-107566875D01*
X210950803Y-107555170D01*
X210949000Y-107536862D01*
X210949000Y-107173138D01*
X210950803Y-107154830D01*
X210954354Y-107143125D01*
X210960121Y-107132335D01*
X210971630Y-107118312D01*
X210980645Y-107109296D01*
X210994259Y-107088922D01*
X211003635Y-107066283D01*
X211008415Y-107042249D01*
X211008415Y-107017745D01*
X211003634Y-106993712D01*
X210994256Y-106971074D01*
X210980642Y-106950699D01*
X210971626Y-106941683D01*
X210960121Y-106927665D01*
X210954354Y-106916875D01*
X210950803Y-106905170D01*
X210949000Y-106886862D01*
X210949000Y-106523138D01*
X210950803Y-106504830D01*
X210954354Y-106493125D01*
X210960121Y-106482335D01*
X210971630Y-106468312D01*
X210980645Y-106459296D01*
X210994259Y-106438922D01*
X211003635Y-106416283D01*
X211008415Y-106392249D01*
X211008415Y-106367745D01*
X211003634Y-106343712D01*
X210994256Y-106321074D01*
X210980642Y-106300699D01*
X210971626Y-106291683D01*
X210960121Y-106277665D01*
X210954354Y-106266875D01*
X210950803Y-106255170D01*
X210949000Y-106236862D01*
X210949000Y-105873138D01*
X210950803Y-105854830D01*
X210954354Y-105843125D01*
X210960121Y-105832335D01*
X210967881Y-105822881D01*
X210977335Y-105815121D01*
X210988125Y-105809354D01*
X210999830Y-105805803D01*
X211018138Y-105804000D01*
X212606862Y-105804000D01*
X212625170Y-105805803D01*
G37*
G36*
X181031162Y-106678644D02*
G01*
X181070608Y-106690610D01*
X181106953Y-106710037D01*
X181138815Y-106736185D01*
X181164963Y-106768047D01*
X181184390Y-106804392D01*
X181196356Y-106843838D01*
X181201000Y-106890993D01*
X181201000Y-107584007D01*
X181196356Y-107631162D01*
X181184390Y-107670608D01*
X181164963Y-107706953D01*
X181138815Y-107738815D01*
X181106953Y-107764963D01*
X181070608Y-107784390D01*
X181031162Y-107796356D01*
X180984007Y-107801000D01*
X179915993Y-107801000D01*
X179868838Y-107796356D01*
X179829392Y-107784390D01*
X179793047Y-107764963D01*
X179761185Y-107738815D01*
X179735037Y-107706953D01*
X179715610Y-107670608D01*
X179703644Y-107631162D01*
X179699000Y-107584007D01*
X179699000Y-106890993D01*
X179703644Y-106843838D01*
X179715610Y-106804392D01*
X179735037Y-106768047D01*
X179761185Y-106736185D01*
X179793047Y-106710037D01*
X179829392Y-106690610D01*
X179868838Y-106678644D01*
X179915993Y-106674000D01*
X180984007Y-106674000D01*
X181031162Y-106678644D01*
G37*
G36*
X179031162Y-106678644D02*
G01*
X179070608Y-106690610D01*
X179106953Y-106710037D01*
X179138815Y-106736185D01*
X179164963Y-106768047D01*
X179184390Y-106804392D01*
X179196356Y-106843838D01*
X179201000Y-106890993D01*
X179201000Y-107584007D01*
X179196356Y-107631162D01*
X179184390Y-107670608D01*
X179164963Y-107706953D01*
X179138815Y-107738815D01*
X179106953Y-107764963D01*
X179070608Y-107784390D01*
X179031162Y-107796356D01*
X178984007Y-107801000D01*
X177915993Y-107801000D01*
X177868838Y-107796356D01*
X177829392Y-107784390D01*
X177793047Y-107764963D01*
X177761185Y-107738815D01*
X177735037Y-107706953D01*
X177715610Y-107670608D01*
X177703644Y-107631162D01*
X177699000Y-107584007D01*
X177699000Y-106890993D01*
X177703644Y-106843838D01*
X177715610Y-106804392D01*
X177735037Y-106768047D01*
X177761185Y-106736185D01*
X177793047Y-106710037D01*
X177829392Y-106690610D01*
X177868838Y-106678644D01*
X177915993Y-106674000D01*
X178984007Y-106674000D01*
X179031162Y-106678644D01*
G37*
G36*
X202188674Y-104003465D02*
G01*
X202226367Y-104014899D01*
X202261103Y-104033466D01*
X202291548Y-104058452D01*
X202316534Y-104088897D01*
X202335101Y-104123633D01*
X202346535Y-104161326D01*
X202351000Y-104206661D01*
X202351000Y-106593339D01*
X202346535Y-106638674D01*
X202335101Y-106676367D01*
X202316534Y-106711103D01*
X202291548Y-106741548D01*
X202261103Y-106766534D01*
X202226367Y-106785101D01*
X202188674Y-106796535D01*
X202143339Y-106801000D01*
X201306661Y-106801000D01*
X201261326Y-106796535D01*
X201223633Y-106785101D01*
X201188897Y-106766534D01*
X201158452Y-106741548D01*
X201133466Y-106711103D01*
X201114899Y-106676367D01*
X201103465Y-106638674D01*
X201099000Y-106593339D01*
X201099000Y-104206661D01*
X201103465Y-104161326D01*
X201114899Y-104123633D01*
X201133466Y-104088897D01*
X201158452Y-104058452D01*
X201188897Y-104033466D01*
X201223633Y-104014899D01*
X201261326Y-104003465D01*
X201306661Y-103999000D01*
X202143339Y-103999000D01*
X202188674Y-104003465D01*
G37*
G36*
X205138674Y-104003465D02*
G01*
X205176367Y-104014899D01*
X205211103Y-104033466D01*
X205241548Y-104058452D01*
X205266534Y-104088897D01*
X205285101Y-104123633D01*
X205296535Y-104161326D01*
X205301000Y-104206661D01*
X205301000Y-106593339D01*
X205296535Y-106638674D01*
X205285101Y-106676367D01*
X205266534Y-106711103D01*
X205241548Y-106741548D01*
X205211103Y-106766534D01*
X205176367Y-106785101D01*
X205138674Y-106796535D01*
X205093339Y-106801000D01*
X204256661Y-106801000D01*
X204211326Y-106796535D01*
X204173633Y-106785101D01*
X204138897Y-106766534D01*
X204108452Y-106741548D01*
X204083466Y-106711103D01*
X204064899Y-106676367D01*
X204053465Y-106638674D01*
X204049000Y-106593339D01*
X204049000Y-104206661D01*
X204053465Y-104161326D01*
X204064899Y-104123633D01*
X204083466Y-104088897D01*
X204108452Y-104058452D01*
X204138897Y-104033466D01*
X204173633Y-104014899D01*
X204211326Y-104003465D01*
X204256661Y-103999000D01*
X205093339Y-103999000D01*
X205138674Y-104003465D01*
G37*
G36*
X165806162Y-105253644D02*
G01*
X165845608Y-105265610D01*
X165881953Y-105285037D01*
X165913815Y-105311185D01*
X165939963Y-105343047D01*
X165959390Y-105379392D01*
X165971356Y-105418838D01*
X165976000Y-105465993D01*
X165976000Y-106534007D01*
X165971356Y-106581162D01*
X165959390Y-106620608D01*
X165939963Y-106656953D01*
X165913815Y-106688815D01*
X165881953Y-106714963D01*
X165845608Y-106734390D01*
X165806162Y-106746356D01*
X165759007Y-106751000D01*
X165065993Y-106751000D01*
X165018838Y-106746356D01*
X164979392Y-106734390D01*
X164943047Y-106714963D01*
X164911185Y-106688815D01*
X164885037Y-106656953D01*
X164865610Y-106620608D01*
X164853644Y-106581162D01*
X164849000Y-106534007D01*
X164849000Y-105465993D01*
X164853644Y-105418838D01*
X164865610Y-105379392D01*
X164885037Y-105343047D01*
X164911185Y-105311185D01*
X164943047Y-105285037D01*
X164979392Y-105265610D01*
X165018838Y-105253644D01*
X165065993Y-105249000D01*
X165759007Y-105249000D01*
X165806162Y-105253644D01*
G37*
G36*
X163981162Y-105253644D02*
G01*
X164020608Y-105265610D01*
X164056953Y-105285037D01*
X164088815Y-105311185D01*
X164114963Y-105343047D01*
X164134390Y-105379392D01*
X164146356Y-105418838D01*
X164151000Y-105465993D01*
X164151000Y-106534007D01*
X164146356Y-106581162D01*
X164134390Y-106620608D01*
X164114963Y-106656953D01*
X164088815Y-106688815D01*
X164056953Y-106714963D01*
X164020608Y-106734390D01*
X163981162Y-106746356D01*
X163934007Y-106751000D01*
X163240993Y-106751000D01*
X163193838Y-106746356D01*
X163154392Y-106734390D01*
X163118047Y-106714963D01*
X163086185Y-106688815D01*
X163060037Y-106656953D01*
X163040610Y-106620608D01*
X163028644Y-106581162D01*
X163024000Y-106534007D01*
X163024000Y-105465993D01*
X163028644Y-105418838D01*
X163040610Y-105379392D01*
X163060037Y-105343047D01*
X163086185Y-105311185D01*
X163118047Y-105285037D01*
X163154392Y-105265610D01*
X163193838Y-105253644D01*
X163240993Y-105249000D01*
X163934007Y-105249000D01*
X163981162Y-105253644D01*
G37*
G36*
X220050098Y-105370362D02*
G01*
X220174941Y-105422074D01*
X220174943Y-105422075D01*
X220287299Y-105497149D01*
X220382851Y-105592701D01*
X220428291Y-105660706D01*
X220457926Y-105705059D01*
X220509638Y-105829902D01*
X220536000Y-105962434D01*
X220536000Y-106097566D01*
X220509638Y-106230098D01*
X220462577Y-106343712D01*
X220457925Y-106354943D01*
X220382851Y-106467299D01*
X220287299Y-106562851D01*
X220174943Y-106637925D01*
X220174942Y-106637926D01*
X220174941Y-106637926D01*
X220050098Y-106689638D01*
X219917566Y-106716000D01*
X219782434Y-106716000D01*
X219649902Y-106689638D01*
X219525059Y-106637926D01*
X219525058Y-106637926D01*
X219525057Y-106637925D01*
X219412701Y-106562851D01*
X219317149Y-106467299D01*
X219242075Y-106354943D01*
X219237423Y-106343712D01*
X219190362Y-106230098D01*
X219164000Y-106097566D01*
X219164000Y-105962434D01*
X219190362Y-105829902D01*
X219242074Y-105705059D01*
X219271710Y-105660706D01*
X219317149Y-105592701D01*
X219412701Y-105497149D01*
X219525057Y-105422075D01*
X219525059Y-105422074D01*
X219649902Y-105370362D01*
X219782434Y-105344000D01*
X219917566Y-105344000D01*
X220050098Y-105370362D01*
G37*
G36*
X183220295Y-104925323D02*
G01*
X183227309Y-104927451D01*
X183241077Y-104934810D01*
X183263716Y-104944187D01*
X183287749Y-104948967D01*
X183312253Y-104948967D01*
X183336286Y-104944186D01*
X183358923Y-104934810D01*
X183372691Y-104927451D01*
X183379705Y-104925323D01*
X183393140Y-104924000D01*
X183706860Y-104924000D01*
X183720295Y-104925323D01*
X183727309Y-104927451D01*
X183741077Y-104934810D01*
X183763716Y-104944187D01*
X183787749Y-104948967D01*
X183812253Y-104948967D01*
X183836286Y-104944186D01*
X183858923Y-104934810D01*
X183872691Y-104927451D01*
X183879705Y-104925323D01*
X183893140Y-104924000D01*
X184206860Y-104924000D01*
X184220295Y-104925323D01*
X184227309Y-104927451D01*
X184241077Y-104934810D01*
X184263716Y-104944187D01*
X184287749Y-104948967D01*
X184312253Y-104948967D01*
X184336286Y-104944186D01*
X184358923Y-104934810D01*
X184372691Y-104927451D01*
X184379705Y-104925323D01*
X184393140Y-104924000D01*
X184706860Y-104924000D01*
X184720295Y-104925323D01*
X184727309Y-104927451D01*
X184741077Y-104934810D01*
X184763716Y-104944187D01*
X184787749Y-104948967D01*
X184812253Y-104948967D01*
X184836286Y-104944186D01*
X184858923Y-104934810D01*
X184872691Y-104927451D01*
X184879705Y-104925323D01*
X184893140Y-104924000D01*
X185206860Y-104924000D01*
X185220295Y-104925323D01*
X185227310Y-104927451D01*
X185233776Y-104930908D01*
X185239442Y-104935558D01*
X185244092Y-104941224D01*
X185247549Y-104947690D01*
X185249677Y-104954705D01*
X185251000Y-104968140D01*
X185251000Y-106431860D01*
X185249677Y-106445295D01*
X185247549Y-106452310D01*
X185244092Y-106458776D01*
X185239442Y-106464442D01*
X185233776Y-106469092D01*
X185227310Y-106472549D01*
X185220295Y-106474677D01*
X185206860Y-106476000D01*
X184893140Y-106476000D01*
X184879705Y-106474677D01*
X184872691Y-106472549D01*
X184858923Y-106465190D01*
X184836284Y-106455813D01*
X184812251Y-106451033D01*
X184787747Y-106451033D01*
X184763714Y-106455814D01*
X184741077Y-106465190D01*
X184727309Y-106472549D01*
X184720295Y-106474677D01*
X184706860Y-106476000D01*
X184393140Y-106476000D01*
X184379705Y-106474677D01*
X184372691Y-106472549D01*
X184358923Y-106465190D01*
X184336284Y-106455813D01*
X184312251Y-106451033D01*
X184287747Y-106451033D01*
X184263714Y-106455814D01*
X184241077Y-106465190D01*
X184227309Y-106472549D01*
X184220295Y-106474677D01*
X184206860Y-106476000D01*
X183893140Y-106476000D01*
X183879705Y-106474677D01*
X183872691Y-106472549D01*
X183858923Y-106465190D01*
X183836284Y-106455813D01*
X183812251Y-106451033D01*
X183787747Y-106451033D01*
X183763714Y-106455814D01*
X183741077Y-106465190D01*
X183727309Y-106472549D01*
X183720295Y-106474677D01*
X183706860Y-106476000D01*
X183393140Y-106476000D01*
X183379705Y-106474677D01*
X183372691Y-106472549D01*
X183358923Y-106465190D01*
X183336284Y-106455813D01*
X183312251Y-106451033D01*
X183287747Y-106451033D01*
X183263714Y-106455814D01*
X183241077Y-106465190D01*
X183227309Y-106472549D01*
X183220295Y-106474677D01*
X183206860Y-106476000D01*
X182893140Y-106476000D01*
X182879705Y-106474677D01*
X182872690Y-106472549D01*
X182866224Y-106469092D01*
X182860558Y-106464442D01*
X182855908Y-106458776D01*
X182852451Y-106452310D01*
X182850323Y-106445295D01*
X182849000Y-106431860D01*
X182849000Y-104968140D01*
X182850323Y-104954705D01*
X182852451Y-104947690D01*
X182855908Y-104941224D01*
X182860558Y-104935558D01*
X182866224Y-104930908D01*
X182872690Y-104927451D01*
X182879705Y-104925323D01*
X182893140Y-104924000D01*
X183206860Y-104924000D01*
X183220295Y-104925323D01*
G37*
G36*
X187849434Y-104118686D02*
G01*
X187889284Y-104130774D01*
X187925999Y-104150399D01*
X187958186Y-104176814D01*
X187984601Y-104209001D01*
X188004226Y-104245716D01*
X188016314Y-104285566D01*
X188021000Y-104333141D01*
X188021000Y-105446859D01*
X188016314Y-105494434D01*
X188004226Y-105534284D01*
X187984601Y-105570999D01*
X187958186Y-105603186D01*
X187925999Y-105629601D01*
X187889284Y-105649226D01*
X187849434Y-105661314D01*
X187801859Y-105666000D01*
X187138141Y-105666000D01*
X187090566Y-105661314D01*
X187050716Y-105649226D01*
X187014001Y-105629601D01*
X186981814Y-105603186D01*
X186955399Y-105570999D01*
X186935774Y-105534284D01*
X186923686Y-105494434D01*
X186919000Y-105446859D01*
X186919000Y-104333141D01*
X186923686Y-104285566D01*
X186935774Y-104245716D01*
X186955399Y-104209001D01*
X186981814Y-104176814D01*
X187014001Y-104150399D01*
X187050716Y-104130774D01*
X187090566Y-104118686D01*
X187138141Y-104114000D01*
X187801859Y-104114000D01*
X187849434Y-104118686D01*
G37*
G36*
X189749434Y-104118686D02*
G01*
X189789284Y-104130774D01*
X189825999Y-104150399D01*
X189858186Y-104176814D01*
X189884601Y-104209001D01*
X189904226Y-104245716D01*
X189916314Y-104285566D01*
X189921000Y-104333141D01*
X189921000Y-105446859D01*
X189916314Y-105494434D01*
X189904226Y-105534284D01*
X189884601Y-105570999D01*
X189858186Y-105603186D01*
X189825999Y-105629601D01*
X189789284Y-105649226D01*
X189749434Y-105661314D01*
X189701859Y-105666000D01*
X189038141Y-105666000D01*
X188990566Y-105661314D01*
X188950716Y-105649226D01*
X188914001Y-105629601D01*
X188881814Y-105603186D01*
X188855399Y-105570999D01*
X188835774Y-105534284D01*
X188823686Y-105494434D01*
X188819000Y-105446859D01*
X188819000Y-104333141D01*
X188823686Y-104285566D01*
X188835774Y-104245716D01*
X188855399Y-104209001D01*
X188881814Y-104176814D01*
X188914001Y-104150399D01*
X188950716Y-104130774D01*
X188990566Y-104118686D01*
X189038141Y-104114000D01*
X189701859Y-104114000D01*
X189749434Y-104118686D01*
G37*
G36*
X191531162Y-104113644D02*
G01*
X191570608Y-104125610D01*
X191606953Y-104145037D01*
X191638815Y-104171185D01*
X191664963Y-104203047D01*
X191684390Y-104239392D01*
X191696356Y-104278838D01*
X191701000Y-104325993D01*
X191701000Y-105394007D01*
X191696356Y-105441162D01*
X191684390Y-105480608D01*
X191664963Y-105516953D01*
X191638815Y-105548815D01*
X191606953Y-105574963D01*
X191570608Y-105594390D01*
X191531162Y-105606356D01*
X191484007Y-105611000D01*
X190790993Y-105611000D01*
X190743838Y-105606356D01*
X190704392Y-105594390D01*
X190668047Y-105574963D01*
X190636185Y-105548815D01*
X190610037Y-105516953D01*
X190590610Y-105480608D01*
X190578644Y-105441162D01*
X190574000Y-105394007D01*
X190574000Y-104325993D01*
X190578644Y-104278838D01*
X190590610Y-104239392D01*
X190610037Y-104203047D01*
X190636185Y-104171185D01*
X190668047Y-104145037D01*
X190704392Y-104125610D01*
X190743838Y-104113644D01*
X190790993Y-104109000D01*
X191484007Y-104109000D01*
X191531162Y-104113644D01*
G37*
G36*
X193356162Y-104113644D02*
G01*
X193395608Y-104125610D01*
X193431953Y-104145037D01*
X193463815Y-104171185D01*
X193489963Y-104203047D01*
X193509390Y-104239392D01*
X193521356Y-104278838D01*
X193526000Y-104325993D01*
X193526000Y-105394007D01*
X193521356Y-105441162D01*
X193509390Y-105480608D01*
X193489963Y-105516953D01*
X193463815Y-105548815D01*
X193431953Y-105574963D01*
X193395608Y-105594390D01*
X193356162Y-105606356D01*
X193309007Y-105611000D01*
X192615993Y-105611000D01*
X192568838Y-105606356D01*
X192529392Y-105594390D01*
X192493047Y-105574963D01*
X192461185Y-105548815D01*
X192435037Y-105516953D01*
X192415610Y-105480608D01*
X192403644Y-105441162D01*
X192399000Y-105394007D01*
X192399000Y-104325993D01*
X192403644Y-104278838D01*
X192415610Y-104239392D01*
X192435037Y-104203047D01*
X192461185Y-104171185D01*
X192493047Y-104145037D01*
X192529392Y-104125610D01*
X192568838Y-104113644D01*
X192615993Y-104109000D01*
X193309007Y-104109000D01*
X193356162Y-104113644D01*
G37*
G36*
X175531162Y-104103644D02*
G01*
X175570608Y-104115610D01*
X175606953Y-104135037D01*
X175638815Y-104161185D01*
X175664963Y-104193047D01*
X175684390Y-104229392D01*
X175696356Y-104268838D01*
X175701000Y-104315993D01*
X175701000Y-105384007D01*
X175696356Y-105431162D01*
X175684390Y-105470608D01*
X175664963Y-105506953D01*
X175638815Y-105538815D01*
X175606953Y-105564963D01*
X175570608Y-105584390D01*
X175531162Y-105596356D01*
X175484007Y-105601000D01*
X174790993Y-105601000D01*
X174743838Y-105596356D01*
X174704392Y-105584390D01*
X174668047Y-105564963D01*
X174636185Y-105538815D01*
X174610037Y-105506953D01*
X174590610Y-105470608D01*
X174578644Y-105431162D01*
X174574000Y-105384007D01*
X174574000Y-104315993D01*
X174578644Y-104268838D01*
X174590610Y-104229392D01*
X174610037Y-104193047D01*
X174636185Y-104161185D01*
X174668047Y-104135037D01*
X174704392Y-104115610D01*
X174743838Y-104103644D01*
X174790993Y-104099000D01*
X175484007Y-104099000D01*
X175531162Y-104103644D01*
G37*
G36*
X177356162Y-104103644D02*
G01*
X177395608Y-104115610D01*
X177431953Y-104135037D01*
X177463815Y-104161185D01*
X177489963Y-104193047D01*
X177509390Y-104229392D01*
X177521356Y-104268838D01*
X177526000Y-104315993D01*
X177526000Y-105384007D01*
X177521356Y-105431162D01*
X177509390Y-105470608D01*
X177489963Y-105506953D01*
X177463815Y-105538815D01*
X177431953Y-105564963D01*
X177395608Y-105584390D01*
X177356162Y-105596356D01*
X177309007Y-105601000D01*
X176615993Y-105601000D01*
X176568838Y-105596356D01*
X176529392Y-105584390D01*
X176493047Y-105564963D01*
X176461185Y-105538815D01*
X176435037Y-105506953D01*
X176415610Y-105470608D01*
X176403644Y-105431162D01*
X176399000Y-105384007D01*
X176399000Y-104315993D01*
X176403644Y-104268838D01*
X176415610Y-104229392D01*
X176435037Y-104193047D01*
X176461185Y-104161185D01*
X176493047Y-104135037D01*
X176529392Y-104115610D01*
X176568838Y-104103644D01*
X176615993Y-104099000D01*
X177309007Y-104099000D01*
X177356162Y-104103644D01*
G37*
G36*
X215501162Y-103433644D02*
G01*
X215540608Y-103445610D01*
X215576953Y-103465037D01*
X215608815Y-103491185D01*
X215634963Y-103523047D01*
X215654390Y-103559392D01*
X215666356Y-103598838D01*
X215671000Y-103645993D01*
X215671000Y-104714007D01*
X215666356Y-104761162D01*
X215654390Y-104800608D01*
X215634963Y-104836953D01*
X215608815Y-104868815D01*
X215576953Y-104894963D01*
X215540608Y-104914390D01*
X215501162Y-104926356D01*
X215454007Y-104931000D01*
X214760993Y-104931000D01*
X214713838Y-104926356D01*
X214674392Y-104914390D01*
X214638047Y-104894963D01*
X214606185Y-104868815D01*
X214580037Y-104836953D01*
X214560610Y-104800608D01*
X214548644Y-104761162D01*
X214544000Y-104714007D01*
X214544000Y-103645993D01*
X214548644Y-103598838D01*
X214560610Y-103559392D01*
X214580037Y-103523047D01*
X214606185Y-103491185D01*
X214638047Y-103465037D01*
X214674392Y-103445610D01*
X214713838Y-103433644D01*
X214760993Y-103429000D01*
X215454007Y-103429000D01*
X215501162Y-103433644D01*
G37*
G36*
X217326162Y-103433644D02*
G01*
X217365608Y-103445610D01*
X217401953Y-103465037D01*
X217433815Y-103491185D01*
X217459963Y-103523047D01*
X217479390Y-103559392D01*
X217491356Y-103598838D01*
X217496000Y-103645993D01*
X217496000Y-104714007D01*
X217491356Y-104761162D01*
X217479390Y-104800608D01*
X217459963Y-104836953D01*
X217433815Y-104868815D01*
X217401953Y-104894963D01*
X217365608Y-104914390D01*
X217326162Y-104926356D01*
X217279007Y-104931000D01*
X216585993Y-104931000D01*
X216538838Y-104926356D01*
X216499392Y-104914390D01*
X216463047Y-104894963D01*
X216431185Y-104868815D01*
X216405037Y-104836953D01*
X216385610Y-104800608D01*
X216373644Y-104761162D01*
X216369000Y-104714007D01*
X216369000Y-103645993D01*
X216373644Y-103598838D01*
X216385610Y-103559392D01*
X216405037Y-103523047D01*
X216431185Y-103491185D01*
X216463047Y-103465037D01*
X216499392Y-103445610D01*
X216538838Y-103433644D01*
X216585993Y-103429000D01*
X217279007Y-103429000D01*
X217326162Y-103433644D01*
G37*
G36*
X222788674Y-102433465D02*
G01*
X222826367Y-102444899D01*
X222861103Y-102463466D01*
X222891548Y-102488452D01*
X222916534Y-102518897D01*
X222935101Y-102553633D01*
X222946535Y-102591326D01*
X222951000Y-102636661D01*
X222951000Y-104123339D01*
X222946535Y-104168674D01*
X222935101Y-104206367D01*
X222916534Y-104241103D01*
X222891548Y-104271548D01*
X222861103Y-104296534D01*
X222826367Y-104315101D01*
X222788674Y-104326535D01*
X222743339Y-104331000D01*
X221906661Y-104331000D01*
X221861326Y-104326535D01*
X221823633Y-104315101D01*
X221788897Y-104296534D01*
X221758452Y-104271548D01*
X221733466Y-104241103D01*
X221714899Y-104206367D01*
X221703465Y-104168674D01*
X221699000Y-104123339D01*
X221699000Y-102636661D01*
X221703465Y-102591326D01*
X221714899Y-102553633D01*
X221733466Y-102518897D01*
X221758452Y-102488452D01*
X221788897Y-102463466D01*
X221823633Y-102444899D01*
X221861326Y-102433465D01*
X221906661Y-102429000D01*
X222743339Y-102429000D01*
X222788674Y-102433465D01*
G37*
G36*
X219838674Y-102433465D02*
G01*
X219876367Y-102444899D01*
X219911103Y-102463466D01*
X219941548Y-102488452D01*
X219966534Y-102518897D01*
X219985101Y-102553633D01*
X219996535Y-102591326D01*
X220001000Y-102636661D01*
X220001000Y-104123339D01*
X219996535Y-104168674D01*
X219985101Y-104206367D01*
X219966534Y-104241103D01*
X219941548Y-104271548D01*
X219911103Y-104296534D01*
X219876367Y-104315101D01*
X219838674Y-104326535D01*
X219793339Y-104331000D01*
X218956661Y-104331000D01*
X218911326Y-104326535D01*
X218873633Y-104315101D01*
X218838897Y-104296534D01*
X218808452Y-104271548D01*
X218783466Y-104241103D01*
X218764899Y-104206367D01*
X218753465Y-104168674D01*
X218749000Y-104123339D01*
X218749000Y-102636661D01*
X218753465Y-102591326D01*
X218764899Y-102553633D01*
X218783466Y-102518897D01*
X218808452Y-102488452D01*
X218838897Y-102463466D01*
X218873633Y-102444899D01*
X218911326Y-102433465D01*
X218956661Y-102429000D01*
X219793339Y-102429000D01*
X219838674Y-102433465D01*
G37*
G36*
X226429434Y-102558686D02*
G01*
X226469284Y-102570774D01*
X226505999Y-102590399D01*
X226538186Y-102616814D01*
X226564601Y-102649001D01*
X226584226Y-102685716D01*
X226596314Y-102725566D01*
X226601000Y-102773141D01*
X226601000Y-103886859D01*
X226596314Y-103934434D01*
X226584226Y-103974284D01*
X226564601Y-104010999D01*
X226538186Y-104043186D01*
X226505999Y-104069601D01*
X226469284Y-104089226D01*
X226429434Y-104101314D01*
X226381859Y-104106000D01*
X225718141Y-104106000D01*
X225670566Y-104101314D01*
X225630716Y-104089226D01*
X225594001Y-104069601D01*
X225561814Y-104043186D01*
X225535399Y-104010999D01*
X225515774Y-103974284D01*
X225503686Y-103934434D01*
X225499000Y-103886859D01*
X225499000Y-102773141D01*
X225503686Y-102725566D01*
X225515774Y-102685716D01*
X225535399Y-102649001D01*
X225561814Y-102616814D01*
X225594001Y-102590399D01*
X225630716Y-102570774D01*
X225670566Y-102558686D01*
X225718141Y-102554000D01*
X226381859Y-102554000D01*
X226429434Y-102558686D01*
G37*
G36*
X224529434Y-102558686D02*
G01*
X224569284Y-102570774D01*
X224605999Y-102590399D01*
X224638186Y-102616814D01*
X224664601Y-102649001D01*
X224684226Y-102685716D01*
X224696314Y-102725566D01*
X224701000Y-102773141D01*
X224701000Y-103886859D01*
X224696314Y-103934434D01*
X224684226Y-103974284D01*
X224664601Y-104010999D01*
X224638186Y-104043186D01*
X224605999Y-104069601D01*
X224569284Y-104089226D01*
X224529434Y-104101314D01*
X224481859Y-104106000D01*
X223818141Y-104106000D01*
X223770566Y-104101314D01*
X223730716Y-104089226D01*
X223694001Y-104069601D01*
X223661814Y-104043186D01*
X223635399Y-104010999D01*
X223615774Y-103974284D01*
X223603686Y-103934434D01*
X223599000Y-103886859D01*
X223599000Y-102773141D01*
X223603686Y-102725566D01*
X223615774Y-102685716D01*
X223635399Y-102649001D01*
X223661814Y-102616814D01*
X223694001Y-102590399D01*
X223730716Y-102570774D01*
X223770566Y-102558686D01*
X223818141Y-102554000D01*
X224481859Y-102554000D01*
X224529434Y-102558686D01*
G37*
G36*
X208906162Y-101433644D02*
G01*
X208945608Y-101445610D01*
X208981953Y-101465037D01*
X209013815Y-101491185D01*
X209039963Y-101523047D01*
X209059390Y-101559392D01*
X209071356Y-101598838D01*
X209076000Y-101645993D01*
X209076000Y-102714007D01*
X209071356Y-102761162D01*
X209059390Y-102800608D01*
X209039963Y-102836953D01*
X209013815Y-102868815D01*
X208981953Y-102894963D01*
X208945608Y-102914390D01*
X208906162Y-102926356D01*
X208859007Y-102931000D01*
X208165993Y-102931000D01*
X208118838Y-102926356D01*
X208079392Y-102914390D01*
X208043047Y-102894963D01*
X208011185Y-102868815D01*
X207985037Y-102836953D01*
X207965610Y-102800608D01*
X207953644Y-102761162D01*
X207949000Y-102714007D01*
X207949000Y-101645993D01*
X207953644Y-101598838D01*
X207965610Y-101559392D01*
X207985037Y-101523047D01*
X208011185Y-101491185D01*
X208043047Y-101465037D01*
X208079392Y-101445610D01*
X208118838Y-101433644D01*
X208165993Y-101429000D01*
X208859007Y-101429000D01*
X208906162Y-101433644D01*
G37*
G36*
X207081162Y-101433644D02*
G01*
X207120608Y-101445610D01*
X207156953Y-101465037D01*
X207188815Y-101491185D01*
X207214963Y-101523047D01*
X207234390Y-101559392D01*
X207246356Y-101598838D01*
X207251000Y-101645993D01*
X207251000Y-102714007D01*
X207246356Y-102761162D01*
X207234390Y-102800608D01*
X207214963Y-102836953D01*
X207188815Y-102868815D01*
X207156953Y-102894963D01*
X207120608Y-102914390D01*
X207081162Y-102926356D01*
X207034007Y-102931000D01*
X206340993Y-102931000D01*
X206293838Y-102926356D01*
X206254392Y-102914390D01*
X206218047Y-102894963D01*
X206186185Y-102868815D01*
X206160037Y-102836953D01*
X206140610Y-102800608D01*
X206128644Y-102761162D01*
X206124000Y-102714007D01*
X206124000Y-101645993D01*
X206128644Y-101598838D01*
X206140610Y-101559392D01*
X206160037Y-101523047D01*
X206186185Y-101491185D01*
X206218047Y-101465037D01*
X206254392Y-101445610D01*
X206293838Y-101433644D01*
X206340993Y-101429000D01*
X207034007Y-101429000D01*
X207081162Y-101433644D01*
G37*
G36*
X186044098Y-95347033D02*
G01*
X186508350Y-95539332D01*
X186508352Y-95539333D01*
X186926168Y-95818509D01*
X187281491Y-96173832D01*
X187560667Y-96591648D01*
X187560668Y-96591650D01*
X187752967Y-97055902D01*
X187851000Y-97548747D01*
X187851000Y-98051253D01*
X187752967Y-98544098D01*
X187583823Y-98952449D01*
X187560667Y-99008352D01*
X187281491Y-99426168D01*
X186926168Y-99781491D01*
X186508352Y-100060667D01*
X186508351Y-100060668D01*
X186508350Y-100060668D01*
X186044098Y-100252967D01*
X185551253Y-100351000D01*
X185048747Y-100351000D01*
X184555902Y-100252967D01*
X184091650Y-100060668D01*
X184091649Y-100060668D01*
X184091648Y-100060667D01*
X183673832Y-99781491D01*
X183318509Y-99426168D01*
X183039333Y-99008352D01*
X183016177Y-98952449D01*
X182847033Y-98544098D01*
X182749000Y-98051253D01*
X182749000Y-97548747D01*
X182847033Y-97055902D01*
X183039332Y-96591650D01*
X183039333Y-96591648D01*
X183318509Y-96173832D01*
X183673832Y-95818509D01*
X184091648Y-95539333D01*
X184091650Y-95539332D01*
X184555902Y-95347033D01*
X185048747Y-95249000D01*
X185551253Y-95249000D01*
X186044098Y-95347033D01*
G37*
G36*
X227275256Y-96391298D02*
G01*
X227381579Y-96412447D01*
X227682042Y-96536903D01*
X227952451Y-96717585D01*
X228182415Y-96947549D01*
X228363097Y-97217958D01*
X228446132Y-97418421D01*
X228487553Y-97518422D01*
X228531109Y-97737389D01*
X228551000Y-97837391D01*
X228551000Y-98162609D01*
X228487553Y-98481579D01*
X228363097Y-98782042D01*
X228182415Y-99052451D01*
X227952451Y-99282415D01*
X227682042Y-99463097D01*
X227381579Y-99587553D01*
X227275256Y-99608702D01*
X227062611Y-99651000D01*
X226737389Y-99651000D01*
X226524744Y-99608702D01*
X226418421Y-99587553D01*
X226117958Y-99463097D01*
X225847549Y-99282415D01*
X225617585Y-99052451D01*
X225436903Y-98782042D01*
X225312447Y-98481579D01*
X225249000Y-98162609D01*
X225249000Y-97837391D01*
X225268892Y-97737389D01*
X225312447Y-97518422D01*
X225353869Y-97418421D01*
X225436903Y-97217958D01*
X225617585Y-96947549D01*
X225847549Y-96717585D01*
X226117958Y-96536903D01*
X226418421Y-96412447D01*
X226524744Y-96391298D01*
X226737389Y-96349000D01*
X227062611Y-96349000D01*
X227275256Y-96391298D01*
G37*
G36*
X143475256Y-96291298D02*
G01*
X143581579Y-96312447D01*
X143882042Y-96436903D01*
X144152451Y-96617585D01*
X144382415Y-96847549D01*
X144521632Y-97055902D01*
X144563098Y-97117960D01*
X144687553Y-97418422D01*
X144751000Y-97737389D01*
X144751000Y-98062611D01*
X144708702Y-98275256D01*
X144687553Y-98381579D01*
X144563097Y-98682042D01*
X144382415Y-98952451D01*
X144152451Y-99182415D01*
X143882042Y-99363097D01*
X143581579Y-99487553D01*
X143475256Y-99508702D01*
X143262611Y-99551000D01*
X142937389Y-99551000D01*
X142724744Y-99508702D01*
X142618421Y-99487553D01*
X142317958Y-99363097D01*
X142047549Y-99182415D01*
X141817585Y-98952451D01*
X141636903Y-98682042D01*
X141512447Y-98381579D01*
X141491298Y-98275256D01*
X141449000Y-98062611D01*
X141449000Y-97737389D01*
X141512447Y-97418422D01*
X141636902Y-97117960D01*
X141678368Y-97055902D01*
X141817585Y-96847549D01*
X142047549Y-96617585D01*
X142317958Y-96436903D01*
X142618421Y-96312447D01*
X142724744Y-96291298D01*
X142937389Y-96249000D01*
X143262611Y-96249000D01*
X143475256Y-96291298D01*
G37*
G36*
X186044098Y-86347033D02*
G01*
X186508350Y-86539332D01*
X186508352Y-86539333D01*
X186926168Y-86818509D01*
X187281491Y-87173832D01*
X187560667Y-87591648D01*
X187560668Y-87591650D01*
X187752967Y-88055902D01*
X187851000Y-88548747D01*
X187851000Y-89051253D01*
X187752967Y-89544098D01*
X187560668Y-90008350D01*
X187560667Y-90008352D01*
X187281491Y-90426168D01*
X186926168Y-90781491D01*
X186508352Y-91060667D01*
X186508351Y-91060668D01*
X186508350Y-91060668D01*
X186044098Y-91252967D01*
X185551253Y-91351000D01*
X185048747Y-91351000D01*
X184555902Y-91252967D01*
X184091650Y-91060668D01*
X184091649Y-91060668D01*
X184091648Y-91060667D01*
X183673832Y-90781491D01*
X183318509Y-90426168D01*
X183039333Y-90008352D01*
X183039332Y-90008350D01*
X182847033Y-89544098D01*
X182749000Y-89051253D01*
X182749000Y-88548747D01*
X182847033Y-88055902D01*
X183039332Y-87591650D01*
X183039333Y-87591648D01*
X183318509Y-87173832D01*
X183673832Y-86818509D01*
X184091648Y-86539333D01*
X184091650Y-86539332D01*
X184555902Y-86347033D01*
X185048747Y-86249000D01*
X185551253Y-86249000D01*
X186044098Y-86347033D01*
G37*
G36*
X186044098Y-73347033D02*
G01*
X186508350Y-73539332D01*
X186508352Y-73539333D01*
X186926168Y-73818509D01*
X187281491Y-74173832D01*
X187560667Y-74591648D01*
X187560668Y-74591650D01*
X187752967Y-75055902D01*
X187851000Y-75548747D01*
X187851000Y-76051253D01*
X187752967Y-76544098D01*
X187560668Y-77008350D01*
X187560667Y-77008352D01*
X187281491Y-77426168D01*
X186926168Y-77781491D01*
X186508352Y-78060667D01*
X186508351Y-78060668D01*
X186508350Y-78060668D01*
X186044098Y-78252967D01*
X185551253Y-78351000D01*
X185048747Y-78351000D01*
X184555902Y-78252967D01*
X184091650Y-78060668D01*
X184091649Y-78060668D01*
X184091648Y-78060667D01*
X183673832Y-77781491D01*
X183318509Y-77426168D01*
X183039333Y-77008352D01*
X183039332Y-77008350D01*
X182847033Y-76544098D01*
X182749000Y-76051253D01*
X182749000Y-75548747D01*
X182847033Y-75055902D01*
X183039332Y-74591650D01*
X183039333Y-74591648D01*
X183318509Y-74173832D01*
X183673832Y-73818509D01*
X184091648Y-73539333D01*
X184091650Y-73539332D01*
X184555902Y-73347033D01*
X185048747Y-73249000D01*
X185551253Y-73249000D01*
X186044098Y-73347033D01*
G37*
G36*
X227275256Y-59491298D02*
G01*
X227381579Y-59512447D01*
X227682042Y-59636903D01*
X227952451Y-59817585D01*
X228182415Y-60047549D01*
X228363097Y-60317958D01*
X228487553Y-60618421D01*
X228551000Y-60937391D01*
X228551000Y-61262609D01*
X228487553Y-61581579D01*
X228363097Y-61882042D01*
X228182415Y-62152451D01*
X227952451Y-62382415D01*
X227682042Y-62563097D01*
X227381579Y-62687553D01*
X227275256Y-62708702D01*
X227062611Y-62751000D01*
X226737389Y-62751000D01*
X226524744Y-62708702D01*
X226418421Y-62687553D01*
X226117958Y-62563097D01*
X225847549Y-62382415D01*
X225617585Y-62152451D01*
X225436903Y-61882042D01*
X225312447Y-61581579D01*
X225249000Y-61262609D01*
X225249000Y-60937391D01*
X225312447Y-60618421D01*
X225436903Y-60317958D01*
X225617585Y-60047549D01*
X225847549Y-59817585D01*
X226117958Y-59636903D01*
X226418421Y-59512447D01*
X226524744Y-59491298D01*
X226737389Y-59449000D01*
X227062611Y-59449000D01*
X227275256Y-59491298D01*
G37*
G36*
X143475256Y-59491298D02*
G01*
X143581579Y-59512447D01*
X143882042Y-59636903D01*
X144152451Y-59817585D01*
X144382415Y-60047549D01*
X144563097Y-60317958D01*
X144687553Y-60618421D01*
X144751000Y-60937391D01*
X144751000Y-61262609D01*
X144687553Y-61581579D01*
X144563097Y-61882042D01*
X144382415Y-62152451D01*
X144152451Y-62382415D01*
X143882042Y-62563097D01*
X143581579Y-62687553D01*
X143475256Y-62708702D01*
X143262611Y-62751000D01*
X142937389Y-62751000D01*
X142724744Y-62708702D01*
X142618421Y-62687553D01*
X142317958Y-62563097D01*
X142047549Y-62382415D01*
X141817585Y-62152451D01*
X141636903Y-61882042D01*
X141512447Y-61581579D01*
X141449000Y-61262609D01*
X141449000Y-60937391D01*
X141512447Y-60618421D01*
X141636903Y-60317958D01*
X141817585Y-60047549D01*
X142047549Y-59817585D01*
X142317958Y-59636903D01*
X142618421Y-59512447D01*
X142724744Y-59491298D01*
X142937389Y-59449000D01*
X143262611Y-59449000D01*
X143475256Y-59491298D01*
G37*
M02*
