M48
; DRILL file {KiCad (5.1.5)-3} date 30/04/2021 10:03:28
; FORMAT={3:3/ absolute / metric / suppress leading zeros}
; #@! TF.CreationDate,2021-04-30T10:03:28+01:00
; #@! TF.GenerationSoftware,Kicad,Pcbnew,(5.1.5)-3
; #@! TF.FileFunction,Plated,1,2,PTH
FMAT,2
METRIC,TZ
T1C0.400
T2C0.710
T3C0.800
T4C1.000
T5C1.100
T6C1.300
T7C1.400
%
G90
G05
T1
X146750Y-120650
X148750Y-116900
X149750Y-116900
X150750Y-116900
X154600Y-121000
X155150Y-118680
X156000Y-120650
X156050Y-118680
X157580Y-118680
X157600Y-116775
X158560Y-118680
X159460Y-117065
X159680Y-118660
X159846Y-110938
X160088Y-109250
X161280Y-115310
X163500Y-104750
X164000Y-107750
X165413Y-106000
X165500Y-109250
X166500Y-114350
X166500Y-116020
X167000Y-111250
X167100Y-107700
X167540Y-119530
X168000Y-107700
X169500Y-113300
X169600Y-114830
X170687Y-113245
X172000Y-113245
X173060Y-119520
X173250Y-113245
X173893Y-118755
X174570Y-113260
X176600Y-107350
X177300Y-116240
X178200Y-116240
X179100Y-112500
X180000Y-112500
X180048Y-118845
X181750Y-105150
X183591Y-113080
X184716Y-113684
X184740Y-114910
X186700Y-111630
X188430Y-113680
X188970Y-114930
X189440Y-113650
X190440Y-113650
X200040Y-108770
X200410Y-106220
X201450Y-116700
X202600Y-111930
X204820Y-108290
X206980Y-115310
X207460Y-104710
X208220Y-111720
X208660Y-103720
X208890Y-109540
X210075Y-106030
X212250Y-119150
X217030Y-121110
X217060Y-122120
X217060Y-123120
X217930Y-121110
X217960Y-122120
X217960Y-123120
T2
X219850Y-106030
X224950Y-107630
T3
X184410Y-116680
X184410Y-124300
X186950Y-116680
X186950Y-124300
T4
X161240Y-121460
X163780Y-121460
X166320Y-121460
X168860Y-121460
X171400Y-121460
X173940Y-121460
X176480Y-121460
X179020Y-121460
X194080Y-114350
X197880Y-114350
T5
X145690Y-110000
X149500Y-110000
X153310Y-110000
X157120Y-110000
T6
X213590Y-113510
X217400Y-113510
X221210Y-113510
X225020Y-113510
T7
X171300Y-107100
X196750Y-107100
T0
M30
