G04 #@! TF.GenerationSoftware,KiCad,Pcbnew,(5.1.5)-3*
G04 #@! TF.CreationDate,2021-03-20T18:15:30+00:00*
G04 #@! TF.ProjectId,CurrentShuntCircuit,43757272-656e-4745-9368-756e74436972,1*
G04 #@! TF.SameCoordinates,Original*
G04 #@! TF.FileFunction,Copper,L1,Top*
G04 #@! TF.FilePolarity,Positive*
%FSLAX46Y46*%
G04 Gerber Fmt 4.6, Leading zero omitted, Abs format (unit mm)*
G04 Created by KiCad (PCBNEW (5.1.5)-3) date 2021-03-20 18:15:30*
%MOMM*%
%LPD*%
G04 APERTURE LIST*
%ADD10C,0.010000*%
%ADD11C,0.100000*%
%ADD12O,1.700000X1.700000*%
%ADD13R,1.700000X1.700000*%
%ADD14R,1.000000X1.500000*%
%ADD15R,1.800000X1.800000*%
%ADD16C,1.800000*%
%ADD17C,2.200000*%
%ADD18R,2.000000X2.000000*%
%ADD19C,1.850000*%
%ADD20R,2.500000X2.500000*%
%ADD21C,1.270000*%
%ADD22R,1.800000X2.500000*%
%ADD23C,0.800000*%
%ADD24C,0.500000*%
%ADD25C,1.000000*%
%ADD26C,0.250000*%
%ADD27C,0.254000*%
G04 APERTURE END LIST*
D10*
G36*
X155743416Y-90149251D02*
G01*
X155941647Y-90087125D01*
X156311914Y-90069580D01*
X156777470Y-90089969D01*
X157261572Y-90141648D01*
X157687472Y-90217971D01*
X157978427Y-90312290D01*
X158033284Y-90347545D01*
X158206158Y-90486336D01*
X158234591Y-90452231D01*
X158197581Y-90340318D01*
X158182850Y-90124016D01*
X158230771Y-90052496D01*
X158369784Y-90049737D01*
X158405706Y-90265462D01*
X158355374Y-90596695D01*
X158264294Y-90942729D01*
X158157662Y-91066257D01*
X157978386Y-90995353D01*
X157806423Y-90866623D01*
X157552052Y-90710162D01*
X157250591Y-90640069D01*
X156808980Y-90637378D01*
X156707304Y-90642594D01*
X156275411Y-90647344D01*
X156008792Y-90609102D01*
X155947482Y-90558500D01*
X156060046Y-90487656D01*
X156348926Y-90458348D01*
X156740788Y-90465320D01*
X157162295Y-90503318D01*
X157540111Y-90567088D01*
X157800900Y-90651374D01*
X157861416Y-90695642D01*
X158054615Y-90850189D01*
X158144688Y-90876000D01*
X158158899Y-90798062D01*
X158022974Y-90605833D01*
X157980000Y-90558500D01*
X157804687Y-90397825D01*
X157606442Y-90302626D01*
X157315956Y-90256147D01*
X156863920Y-90241632D01*
X156666695Y-90241000D01*
X156209680Y-90230628D01*
X155883574Y-90203028D01*
X155741459Y-90163476D01*
X155743416Y-90149251D01*
G37*
X155743416Y-90149251D02*
X155941647Y-90087125D01*
X156311914Y-90069580D01*
X156777470Y-90089969D01*
X157261572Y-90141648D01*
X157687472Y-90217971D01*
X157978427Y-90312290D01*
X158033284Y-90347545D01*
X158206158Y-90486336D01*
X158234591Y-90452231D01*
X158197581Y-90340318D01*
X158182850Y-90124016D01*
X158230771Y-90052496D01*
X158369784Y-90049737D01*
X158405706Y-90265462D01*
X158355374Y-90596695D01*
X158264294Y-90942729D01*
X158157662Y-91066257D01*
X157978386Y-90995353D01*
X157806423Y-90866623D01*
X157552052Y-90710162D01*
X157250591Y-90640069D01*
X156808980Y-90637378D01*
X156707304Y-90642594D01*
X156275411Y-90647344D01*
X156008792Y-90609102D01*
X155947482Y-90558500D01*
X156060046Y-90487656D01*
X156348926Y-90458348D01*
X156740788Y-90465320D01*
X157162295Y-90503318D01*
X157540111Y-90567088D01*
X157800900Y-90651374D01*
X157861416Y-90695642D01*
X158054615Y-90850189D01*
X158144688Y-90876000D01*
X158158899Y-90798062D01*
X158022974Y-90605833D01*
X157980000Y-90558500D01*
X157804687Y-90397825D01*
X157606442Y-90302626D01*
X157315956Y-90256147D01*
X156863920Y-90241632D01*
X156666695Y-90241000D01*
X156209680Y-90230628D01*
X155883574Y-90203028D01*
X155741459Y-90163476D01*
X155743416Y-90149251D01*
G36*
X157654161Y-89248921D02*
G01*
X157939975Y-89021677D01*
X158145553Y-88901316D01*
X158203224Y-88897892D01*
X158160479Y-89011697D01*
X157966835Y-89205463D01*
X157905940Y-89254972D01*
X157539104Y-89542500D01*
X158045302Y-89606000D01*
X158328634Y-89661615D01*
X158440071Y-89726031D01*
X158424500Y-89748669D01*
X158229659Y-89780418D01*
X157889466Y-89766815D01*
X157736074Y-89748669D01*
X157174649Y-89669500D01*
X157654161Y-89248921D01*
G37*
X157654161Y-89248921D02*
X157939975Y-89021677D01*
X158145553Y-88901316D01*
X158203224Y-88897892D01*
X158160479Y-89011697D01*
X157966835Y-89205463D01*
X157905940Y-89254972D01*
X157539104Y-89542500D01*
X158045302Y-89606000D01*
X158328634Y-89661615D01*
X158440071Y-89726031D01*
X158424500Y-89748669D01*
X158229659Y-89780418D01*
X157889466Y-89766815D01*
X157736074Y-89748669D01*
X157174649Y-89669500D01*
X157654161Y-89248921D01*
G36*
X156652257Y-91968050D02*
G01*
X156830787Y-91727014D01*
X157027888Y-91510603D01*
X157315318Y-91228341D01*
X157494454Y-91107195D01*
X157628786Y-91121180D01*
X157749886Y-91215117D01*
X157928392Y-91423746D01*
X157980000Y-91550367D01*
X157903383Y-91574319D01*
X157742961Y-91462850D01*
X157588911Y-91347867D01*
X157454088Y-91358710D01*
X157269245Y-91522057D01*
X157100131Y-91710504D01*
X156851085Y-91962832D01*
X156667180Y-92092439D01*
X156615172Y-92093506D01*
X156652257Y-91968050D01*
G37*
X156652257Y-91968050D02*
X156830787Y-91727014D01*
X157027888Y-91510603D01*
X157315318Y-91228341D01*
X157494454Y-91107195D01*
X157628786Y-91121180D01*
X157749886Y-91215117D01*
X157928392Y-91423746D01*
X157980000Y-91550367D01*
X157903383Y-91574319D01*
X157742961Y-91462850D01*
X157588911Y-91347867D01*
X157454088Y-91358710D01*
X157269245Y-91522057D01*
X157100131Y-91710504D01*
X156851085Y-91962832D01*
X156667180Y-92092439D01*
X156615172Y-92093506D01*
X156652257Y-91968050D01*
G36*
X155187439Y-87153655D02*
G01*
X155195525Y-87161250D01*
X155453608Y-87289966D01*
X155655900Y-87320000D01*
X155884982Y-87383992D01*
X155947999Y-87617184D01*
X155948000Y-87617817D01*
X156047697Y-87983515D01*
X156352213Y-88218188D01*
X156869680Y-88326767D01*
X157132750Y-88336000D01*
X157522039Y-88352509D01*
X157783571Y-88395210D01*
X157853000Y-88439354D01*
X157737853Y-88484912D01*
X157437436Y-88501668D01*
X157059250Y-88488323D01*
X156437107Y-88397460D01*
X156038815Y-88219058D01*
X155846072Y-87942253D01*
X155821000Y-87753253D01*
X155752779Y-87522972D01*
X155506716Y-87426905D01*
X155481544Y-87423686D01*
X155209454Y-87329999D01*
X155084669Y-87193000D01*
X155070820Y-87071760D01*
X155187439Y-87153655D01*
G37*
X155187439Y-87153655D02*
X155195525Y-87161250D01*
X155453608Y-87289966D01*
X155655900Y-87320000D01*
X155884982Y-87383992D01*
X155947999Y-87617184D01*
X155948000Y-87617817D01*
X156047697Y-87983515D01*
X156352213Y-88218188D01*
X156869680Y-88326767D01*
X157132750Y-88336000D01*
X157522039Y-88352509D01*
X157783571Y-88395210D01*
X157853000Y-88439354D01*
X157737853Y-88484912D01*
X157437436Y-88501668D01*
X157059250Y-88488323D01*
X156437107Y-88397460D01*
X156038815Y-88219058D01*
X155846072Y-87942253D01*
X155821000Y-87753253D01*
X155752779Y-87522972D01*
X155506716Y-87426905D01*
X155481544Y-87423686D01*
X155209454Y-87329999D01*
X155084669Y-87193000D01*
X155070820Y-87071760D01*
X155187439Y-87153655D01*
G36*
X156810928Y-92509741D02*
G01*
X156985403Y-92278294D01*
X157100769Y-92155770D01*
X157399720Y-91888051D01*
X157544117Y-91817631D01*
X157519168Y-91929720D01*
X157310086Y-92209528D01*
X157237538Y-92292539D01*
X156995242Y-92530138D01*
X156819403Y-92641990D01*
X156778297Y-92637631D01*
X156810928Y-92509741D01*
G37*
X156810928Y-92509741D02*
X156985403Y-92278294D01*
X157100769Y-92155770D01*
X157399720Y-91888051D01*
X157544117Y-91817631D01*
X157519168Y-91929720D01*
X157310086Y-92209528D01*
X157237538Y-92292539D01*
X156995242Y-92530138D01*
X156819403Y-92641990D01*
X156778297Y-92637631D01*
X156810928Y-92509741D01*
G36*
X153991846Y-87667487D02*
G01*
X154114362Y-87702723D01*
X154321078Y-87888537D01*
X154385914Y-87962043D01*
X154689572Y-88235238D01*
X155046547Y-88331879D01*
X155177606Y-88336000D01*
X155652020Y-88424407D01*
X155896255Y-88602991D01*
X156077202Y-88756564D01*
X156310388Y-88825768D01*
X156679488Y-88829035D01*
X156868439Y-88817137D01*
X157260154Y-88801883D01*
X157525303Y-88816593D01*
X157599000Y-88847632D01*
X157483292Y-88894404D01*
X157181316Y-88934279D01*
X156798522Y-88956885D01*
X156327648Y-88957232D01*
X156031955Y-88908876D01*
X155834566Y-88794448D01*
X155762838Y-88722900D01*
X155396373Y-88504827D01*
X155063077Y-88463000D01*
X154634338Y-88387167D01*
X154272903Y-88122928D01*
X154255482Y-88104945D01*
X154056445Y-87860332D01*
X153982850Y-87691695D01*
X153991846Y-87667487D01*
G37*
X153991846Y-87667487D02*
X154114362Y-87702723D01*
X154321078Y-87888537D01*
X154385914Y-87962043D01*
X154689572Y-88235238D01*
X155046547Y-88331879D01*
X155177606Y-88336000D01*
X155652020Y-88424407D01*
X155896255Y-88602991D01*
X156077202Y-88756564D01*
X156310388Y-88825768D01*
X156679488Y-88829035D01*
X156868439Y-88817137D01*
X157260154Y-88801883D01*
X157525303Y-88816593D01*
X157599000Y-88847632D01*
X157483292Y-88894404D01*
X157181316Y-88934279D01*
X156798522Y-88956885D01*
X156327648Y-88957232D01*
X156031955Y-88908876D01*
X155834566Y-88794448D01*
X155762838Y-88722900D01*
X155396373Y-88504827D01*
X155063077Y-88463000D01*
X154634338Y-88387167D01*
X154272903Y-88122928D01*
X154255482Y-88104945D01*
X154056445Y-87860332D01*
X153982850Y-87691695D01*
X153991846Y-87667487D01*
G36*
X156237724Y-87417361D02*
G01*
X156319067Y-87320000D01*
X156411768Y-87425998D01*
X156422752Y-87605750D01*
X156454891Y-87824590D01*
X156657883Y-87919716D01*
X156741750Y-87931686D01*
X156993621Y-87918818D01*
X157091000Y-87836436D01*
X157182660Y-87706369D01*
X157218000Y-87701000D01*
X157337471Y-87775941D01*
X157302519Y-87926893D01*
X157165228Y-88031957D01*
X156909996Y-88069585D01*
X156625478Y-88059721D01*
X156349152Y-87972842D01*
X156236474Y-87746223D01*
X156225314Y-87669250D01*
X156237724Y-87417361D01*
G37*
X156237724Y-87417361D02*
X156319067Y-87320000D01*
X156411768Y-87425998D01*
X156422752Y-87605750D01*
X156454891Y-87824590D01*
X156657883Y-87919716D01*
X156741750Y-87931686D01*
X156993621Y-87918818D01*
X157091000Y-87836436D01*
X157182660Y-87706369D01*
X157218000Y-87701000D01*
X157337471Y-87775941D01*
X157302519Y-87926893D01*
X157165228Y-88031957D01*
X156909996Y-88069585D01*
X156625478Y-88059721D01*
X156349152Y-87972842D01*
X156236474Y-87746223D01*
X156225314Y-87669250D01*
X156237724Y-87417361D01*
G36*
X152759407Y-91225081D02*
G01*
X153049744Y-91213712D01*
X153284521Y-91228640D01*
X153838919Y-91217120D01*
X154201349Y-91048177D01*
X154388441Y-90709307D01*
X154423999Y-90372078D01*
X154503311Y-89934925D01*
X154773250Y-89574602D01*
X154984066Y-89401264D01*
X155216002Y-89297177D01*
X155544040Y-89242077D01*
X156043165Y-89215698D01*
X156108350Y-89213775D01*
X156586156Y-89210546D01*
X156960337Y-89227221D01*
X157162939Y-89260294D01*
X157177267Y-89268934D01*
X157100983Y-89307495D01*
X156824817Y-89336539D01*
X156402841Y-89351159D01*
X156261865Y-89352000D01*
X155744839Y-89359925D01*
X155407695Y-89396117D01*
X155176503Y-89479199D01*
X154977327Y-89627798D01*
X154907199Y-89693261D01*
X154633252Y-90055670D01*
X154551077Y-90482030D01*
X154551000Y-90499078D01*
X154485458Y-90929584D01*
X154268686Y-91205360D01*
X153870467Y-91348977D01*
X153366249Y-91384000D01*
X152976968Y-91366693D01*
X152715437Y-91321927D01*
X152645999Y-91275643D01*
X152759407Y-91225081D01*
G37*
X152759407Y-91225081D02*
X153049744Y-91213712D01*
X153284521Y-91228640D01*
X153838919Y-91217120D01*
X154201349Y-91048177D01*
X154388441Y-90709307D01*
X154423999Y-90372078D01*
X154503311Y-89934925D01*
X154773250Y-89574602D01*
X154984066Y-89401264D01*
X155216002Y-89297177D01*
X155544040Y-89242077D01*
X156043165Y-89215698D01*
X156108350Y-89213775D01*
X156586156Y-89210546D01*
X156960337Y-89227221D01*
X157162939Y-89260294D01*
X157177267Y-89268934D01*
X157100983Y-89307495D01*
X156824817Y-89336539D01*
X156402841Y-89351159D01*
X156261865Y-89352000D01*
X155744839Y-89359925D01*
X155407695Y-89396117D01*
X155176503Y-89479199D01*
X154977327Y-89627798D01*
X154907199Y-89693261D01*
X154633252Y-90055670D01*
X154551077Y-90482030D01*
X154551000Y-90499078D01*
X154485458Y-90929584D01*
X154268686Y-91205360D01*
X153870467Y-91348977D01*
X153366249Y-91384000D01*
X152976968Y-91366693D01*
X152715437Y-91321927D01*
X152645999Y-91275643D01*
X152759407Y-91225081D01*
G36*
X155592689Y-92348119D02*
G01*
X155787913Y-92124700D01*
X156070101Y-91833951D01*
X156387518Y-91526244D01*
X156688424Y-91251950D01*
X156921080Y-91061438D01*
X157026396Y-91003000D01*
X157083272Y-91058908D01*
X156968233Y-91235309D01*
X156670789Y-91545222D01*
X156335771Y-91860198D01*
X155985010Y-92165457D01*
X155706569Y-92376917D01*
X155549983Y-92457805D01*
X155536170Y-92453838D01*
X155592689Y-92348119D01*
G37*
X155592689Y-92348119D02*
X155787913Y-92124700D01*
X156070101Y-91833951D01*
X156387518Y-91526244D01*
X156688424Y-91251950D01*
X156921080Y-91061438D01*
X157026396Y-91003000D01*
X157083272Y-91058908D01*
X156968233Y-91235309D01*
X156670789Y-91545222D01*
X156335771Y-91860198D01*
X155985010Y-92165457D01*
X155706569Y-92376917D01*
X155549983Y-92457805D01*
X155536170Y-92453838D01*
X155592689Y-92348119D01*
G36*
X154574534Y-81136888D02*
G01*
X154603649Y-81097000D01*
X154767833Y-81142225D01*
X155099192Y-81260296D01*
X155531095Y-81424809D01*
X155996911Y-81609360D01*
X156430008Y-81787545D01*
X156763755Y-81932960D01*
X156931521Y-82019200D01*
X156932250Y-82019763D01*
X157060995Y-82224932D01*
X157086583Y-82484378D01*
X157013666Y-82691362D01*
X156900500Y-82748000D01*
X156732039Y-82650183D01*
X156710000Y-82564996D01*
X156663791Y-82381377D01*
X156501553Y-82314828D01*
X156187867Y-82365034D01*
X155687316Y-82531681D01*
X155624013Y-82555342D01*
X155116980Y-82741856D01*
X154801215Y-82838707D01*
X154631667Y-82849346D01*
X154563287Y-82777220D01*
X154551000Y-82637506D01*
X154633117Y-82455533D01*
X154907215Y-82308006D01*
X155122500Y-82240000D01*
X155459401Y-82127484D01*
X155664695Y-82023853D01*
X155694000Y-81986000D01*
X155583397Y-81899626D01*
X155302768Y-81787292D01*
X155122500Y-81732000D01*
X154739932Y-81590763D01*
X154569599Y-81429167D01*
X154551000Y-81334495D01*
X154574534Y-81136888D01*
G37*
X154574534Y-81136888D02*
X154603649Y-81097000D01*
X154767833Y-81142225D01*
X155099192Y-81260296D01*
X155531095Y-81424809D01*
X155996911Y-81609360D01*
X156430008Y-81787545D01*
X156763755Y-81932960D01*
X156931521Y-82019200D01*
X156932250Y-82019763D01*
X157060995Y-82224932D01*
X157086583Y-82484378D01*
X157013666Y-82691362D01*
X156900500Y-82748000D01*
X156732039Y-82650183D01*
X156710000Y-82564996D01*
X156663791Y-82381377D01*
X156501553Y-82314828D01*
X156187867Y-82365034D01*
X155687316Y-82531681D01*
X155624013Y-82555342D01*
X155116980Y-82741856D01*
X154801215Y-82838707D01*
X154631667Y-82849346D01*
X154563287Y-82777220D01*
X154551000Y-82637506D01*
X154633117Y-82455533D01*
X154907215Y-82308006D01*
X155122500Y-82240000D01*
X155459401Y-82127484D01*
X155664695Y-82023853D01*
X155694000Y-81986000D01*
X155583397Y-81899626D01*
X155302768Y-81787292D01*
X155122500Y-81732000D01*
X154739932Y-81590763D01*
X154569599Y-81429167D01*
X154551000Y-81334495D01*
X154574534Y-81136888D01*
G36*
X153980417Y-92424999D02*
G01*
X154304376Y-92076072D01*
X154333524Y-92046388D01*
X154657986Y-91700694D01*
X154837791Y-91439253D01*
X154915077Y-91174206D01*
X154931983Y-90817690D01*
X154932000Y-90798526D01*
X155009649Y-90224804D01*
X155249488Y-89843606D01*
X155661849Y-89643851D01*
X156043940Y-89606000D01*
X156387823Y-89631481D01*
X156609713Y-89695138D01*
X156639033Y-89720919D01*
X156575726Y-89778522D01*
X156322482Y-89780821D01*
X156196983Y-89767021D01*
X155810438Y-89751241D01*
X155534870Y-89857078D01*
X155371455Y-89991740D01*
X155174298Y-90231415D01*
X155081100Y-90528500D01*
X155059000Y-90945464D01*
X155044428Y-91328846D01*
X154969970Y-91595127D01*
X154789510Y-91840354D01*
X154490337Y-92129826D01*
X154107856Y-92465691D01*
X153890088Y-92624028D01*
X153844964Y-92609058D01*
X153980417Y-92424999D01*
G37*
X153980417Y-92424999D02*
X154304376Y-92076072D01*
X154333524Y-92046388D01*
X154657986Y-91700694D01*
X154837791Y-91439253D01*
X154915077Y-91174206D01*
X154931983Y-90817690D01*
X154932000Y-90798526D01*
X155009649Y-90224804D01*
X155249488Y-89843606D01*
X155661849Y-89643851D01*
X156043940Y-89606000D01*
X156387823Y-89631481D01*
X156609713Y-89695138D01*
X156639033Y-89720919D01*
X156575726Y-89778522D01*
X156322482Y-89780821D01*
X156196983Y-89767021D01*
X155810438Y-89751241D01*
X155534870Y-89857078D01*
X155371455Y-89991740D01*
X155174298Y-90231415D01*
X155081100Y-90528500D01*
X155059000Y-90945464D01*
X155044428Y-91328846D01*
X154969970Y-91595127D01*
X154789510Y-91840354D01*
X154490337Y-92129826D01*
X154107856Y-92465691D01*
X153890088Y-92624028D01*
X153844964Y-92609058D01*
X153980417Y-92424999D01*
G36*
X155789916Y-91193500D02*
G01*
X155911663Y-90941847D01*
X156153305Y-90876000D01*
X156384749Y-90924437D01*
X156456000Y-91011559D01*
X156356167Y-91088600D01*
X156183406Y-91060599D01*
X155986577Y-91030214D01*
X155962433Y-91162753D01*
X155981016Y-91242541D01*
X155979623Y-91463636D01*
X155890221Y-91511000D01*
X155780958Y-91406026D01*
X155789916Y-91193500D01*
G37*
X155789916Y-91193500D02*
X155911663Y-90941847D01*
X156153305Y-90876000D01*
X156384749Y-90924437D01*
X156456000Y-91011559D01*
X156356167Y-91088600D01*
X156183406Y-91060599D01*
X155986577Y-91030214D01*
X155962433Y-91162753D01*
X155981016Y-91242541D01*
X155979623Y-91463636D01*
X155890221Y-91511000D01*
X155780958Y-91406026D01*
X155789916Y-91193500D01*
G36*
X155163191Y-92867154D02*
G01*
X155348297Y-92871526D01*
X155686786Y-92814443D01*
X155875980Y-92663414D01*
X156114596Y-92453344D01*
X156281218Y-92405415D01*
X156329000Y-92496451D01*
X156234596Y-92630403D01*
X156043250Y-92782002D01*
X155707099Y-92957747D01*
X155382416Y-93055284D01*
X155142325Y-93060418D01*
X155059000Y-92973072D01*
X155163191Y-92867154D01*
G37*
X155163191Y-92867154D02*
X155348297Y-92871526D01*
X155686786Y-92814443D01*
X155875980Y-92663414D01*
X156114596Y-92453344D01*
X156281218Y-92405415D01*
X156329000Y-92496451D01*
X156234596Y-92630403D01*
X156043250Y-92782002D01*
X155707099Y-92957747D01*
X155382416Y-93055284D01*
X155142325Y-93060418D01*
X155059000Y-92973072D01*
X155163191Y-92867154D01*
G36*
X153806592Y-84282883D02*
G01*
X153890179Y-84208768D01*
X154085972Y-84167313D01*
X154440184Y-84149175D01*
X154999027Y-84145010D01*
X155045348Y-84145000D01*
X156301697Y-84145000D01*
X156312483Y-84911233D01*
X156309445Y-85341698D01*
X156268622Y-85588348D01*
X156165494Y-85721021D01*
X156000367Y-85800233D01*
X155438114Y-85916009D01*
X155352429Y-85895131D01*
X155352429Y-85392427D01*
X155689219Y-85363131D01*
X155961419Y-85228892D01*
X156074983Y-85036360D01*
X156075000Y-85034000D01*
X155988959Y-84881332D01*
X155892179Y-84786374D01*
X155635700Y-84686890D01*
X155352429Y-84675574D01*
X155087255Y-84754211D01*
X154998650Y-84952480D01*
X154995500Y-85034000D01*
X155049720Y-85276098D01*
X155261191Y-85379163D01*
X155352429Y-85392427D01*
X155352429Y-85895131D01*
X154954891Y-85798265D01*
X154821191Y-85716847D01*
X154613246Y-85501221D01*
X154566427Y-85202556D01*
X154576931Y-85081847D01*
X154592340Y-84792208D01*
X154499961Y-84675274D01*
X154232676Y-84653028D01*
X154207998Y-84653000D01*
X153912470Y-84620657D01*
X153798729Y-84496544D01*
X153789000Y-84399000D01*
X153806592Y-84282883D01*
G37*
X153806592Y-84282883D02*
X153890179Y-84208768D01*
X154085972Y-84167313D01*
X154440184Y-84149175D01*
X154999027Y-84145010D01*
X155045348Y-84145000D01*
X156301697Y-84145000D01*
X156312483Y-84911233D01*
X156309445Y-85341698D01*
X156268622Y-85588348D01*
X156165494Y-85721021D01*
X156000367Y-85800233D01*
X155438114Y-85916009D01*
X155352429Y-85895131D01*
X155352429Y-85392427D01*
X155689219Y-85363131D01*
X155961419Y-85228892D01*
X156074983Y-85036360D01*
X156075000Y-85034000D01*
X155988959Y-84881332D01*
X155892179Y-84786374D01*
X155635700Y-84686890D01*
X155352429Y-84675574D01*
X155087255Y-84754211D01*
X154998650Y-84952480D01*
X154995500Y-85034000D01*
X155049720Y-85276098D01*
X155261191Y-85379163D01*
X155352429Y-85392427D01*
X155352429Y-85895131D01*
X154954891Y-85798265D01*
X154821191Y-85716847D01*
X154613246Y-85501221D01*
X154566427Y-85202556D01*
X154576931Y-85081847D01*
X154592340Y-84792208D01*
X154499961Y-84675274D01*
X154232676Y-84653028D01*
X154207998Y-84653000D01*
X153912470Y-84620657D01*
X153798729Y-84496544D01*
X153789000Y-84399000D01*
X153806592Y-84282883D01*
G36*
X154603281Y-83342999D02*
G01*
X154791270Y-83283761D01*
X155161681Y-83258778D01*
X155440000Y-83256000D01*
X155923008Y-83267204D01*
X156199449Y-83307487D01*
X156316038Y-83386861D01*
X156329000Y-83446500D01*
X156276718Y-83550002D01*
X156088729Y-83609240D01*
X155718318Y-83634223D01*
X155440000Y-83637000D01*
X154956991Y-83625797D01*
X154680550Y-83585514D01*
X154563961Y-83506140D01*
X154551000Y-83446500D01*
X154603281Y-83342999D01*
G37*
X154603281Y-83342999D02*
X154791270Y-83283761D01*
X155161681Y-83258778D01*
X155440000Y-83256000D01*
X155923008Y-83267204D01*
X156199449Y-83307487D01*
X156316038Y-83386861D01*
X156329000Y-83446500D01*
X156276718Y-83550002D01*
X156088729Y-83609240D01*
X155718318Y-83634223D01*
X155440000Y-83637000D01*
X154956991Y-83625797D01*
X154680550Y-83585514D01*
X154563961Y-83506140D01*
X154551000Y-83446500D01*
X154603281Y-83342999D01*
G36*
X153968942Y-79662103D02*
G01*
X154136810Y-79335834D01*
X154433158Y-79199230D01*
X154547973Y-79192000D01*
X154839824Y-79231921D01*
X154996102Y-79319975D01*
X155135019Y-79352642D01*
X155266668Y-79256475D01*
X155588737Y-79057940D01*
X155890181Y-79085726D01*
X156136230Y-79312551D01*
X156292114Y-79711130D01*
X156329000Y-80090072D01*
X156329000Y-80716000D01*
X155630500Y-80716000D01*
X155630500Y-80335000D01*
X155868733Y-80299592D01*
X155935270Y-80140316D01*
X155924685Y-79985750D01*
X155832190Y-79713361D01*
X155630500Y-79636500D01*
X155422723Y-79720586D01*
X155336314Y-79985750D01*
X155341093Y-80238841D01*
X155483384Y-80327481D01*
X155630500Y-80335000D01*
X155630500Y-80716000D01*
X154588785Y-80716000D01*
X154588785Y-80335000D01*
X154589347Y-80335000D01*
X154844173Y-80244889D01*
X154930996Y-80031577D01*
X154826539Y-79780601D01*
X154758350Y-79713985D01*
X154572524Y-79644916D01*
X154426641Y-79760317D01*
X154331041Y-80008501D01*
X154395102Y-80235428D01*
X154588785Y-80335000D01*
X154588785Y-80716000D01*
X153916000Y-80716000D01*
X153916000Y-80199651D01*
X153968942Y-79662103D01*
G37*
X153968942Y-79662103D02*
X154136810Y-79335834D01*
X154433158Y-79199230D01*
X154547973Y-79192000D01*
X154839824Y-79231921D01*
X154996102Y-79319975D01*
X155135019Y-79352642D01*
X155266668Y-79256475D01*
X155588737Y-79057940D01*
X155890181Y-79085726D01*
X156136230Y-79312551D01*
X156292114Y-79711130D01*
X156329000Y-80090072D01*
X156329000Y-80716000D01*
X155630500Y-80716000D01*
X155630500Y-80335000D01*
X155868733Y-80299592D01*
X155935270Y-80140316D01*
X155924685Y-79985750D01*
X155832190Y-79713361D01*
X155630500Y-79636500D01*
X155422723Y-79720586D01*
X155336314Y-79985750D01*
X155341093Y-80238841D01*
X155483384Y-80327481D01*
X155630500Y-80335000D01*
X155630500Y-80716000D01*
X154588785Y-80716000D01*
X154588785Y-80335000D01*
X154589347Y-80335000D01*
X154844173Y-80244889D01*
X154930996Y-80031577D01*
X154826539Y-79780601D01*
X154758350Y-79713985D01*
X154572524Y-79644916D01*
X154426641Y-79760317D01*
X154331041Y-80008501D01*
X154395102Y-80235428D01*
X154588785Y-80335000D01*
X154588785Y-80716000D01*
X153916000Y-80716000D01*
X153916000Y-80199651D01*
X153968942Y-79662103D01*
G36*
X153939703Y-78277672D02*
G01*
X153980628Y-78051934D01*
X154087701Y-77899570D01*
X154318980Y-77774648D01*
X154732517Y-77631240D01*
X154773250Y-77618219D01*
X155176928Y-77479360D01*
X155462732Y-77361713D01*
X155567000Y-77292711D01*
X155454851Y-77224280D01*
X155160629Y-77114040D01*
X154747670Y-76985685D01*
X154741500Y-76983916D01*
X154301872Y-76849750D01*
X154054100Y-76737945D01*
X153943734Y-76608816D01*
X153916326Y-76422677D01*
X153916000Y-76382252D01*
X153916000Y-76017000D01*
X155122500Y-76017000D01*
X155700999Y-76024276D01*
X156067150Y-76050322D01*
X156262297Y-76101468D01*
X156327787Y-76184044D01*
X156329000Y-76201698D01*
X156261752Y-76308783D01*
X156032542Y-76377209D01*
X155600168Y-76417658D01*
X155471750Y-76423948D01*
X154614500Y-76461500D01*
X155478913Y-76759989D01*
X155936734Y-76930214D01*
X156194993Y-77065759D01*
X156299551Y-77197399D01*
X156304413Y-77313932D01*
X156214776Y-77478548D01*
X155971624Y-77634853D01*
X155532672Y-77807732D01*
X155376500Y-77860021D01*
X154487500Y-78150655D01*
X155408250Y-78163328D01*
X155885811Y-78176545D01*
X156162781Y-78210103D01*
X156292521Y-78279458D01*
X156328392Y-78400064D01*
X156329000Y-78430000D01*
X156310886Y-78547735D01*
X156225233Y-78622179D01*
X156025074Y-78663156D01*
X155663442Y-78680489D01*
X155114453Y-78684000D01*
X153899906Y-78684000D01*
X153939703Y-78277672D01*
G37*
X153939703Y-78277672D02*
X153980628Y-78051934D01*
X154087701Y-77899570D01*
X154318980Y-77774648D01*
X154732517Y-77631240D01*
X154773250Y-77618219D01*
X155176928Y-77479360D01*
X155462732Y-77361713D01*
X155567000Y-77292711D01*
X155454851Y-77224280D01*
X155160629Y-77114040D01*
X154747670Y-76985685D01*
X154741500Y-76983916D01*
X154301872Y-76849750D01*
X154054100Y-76737945D01*
X153943734Y-76608816D01*
X153916326Y-76422677D01*
X153916000Y-76382252D01*
X153916000Y-76017000D01*
X155122500Y-76017000D01*
X155700999Y-76024276D01*
X156067150Y-76050322D01*
X156262297Y-76101468D01*
X156327787Y-76184044D01*
X156329000Y-76201698D01*
X156261752Y-76308783D01*
X156032542Y-76377209D01*
X155600168Y-76417658D01*
X155471750Y-76423948D01*
X154614500Y-76461500D01*
X155478913Y-76759989D01*
X155936734Y-76930214D01*
X156194993Y-77065759D01*
X156299551Y-77197399D01*
X156304413Y-77313932D01*
X156214776Y-77478548D01*
X155971624Y-77634853D01*
X155532672Y-77807732D01*
X155376500Y-77860021D01*
X154487500Y-78150655D01*
X155408250Y-78163328D01*
X155885811Y-78176545D01*
X156162781Y-78210103D01*
X156292521Y-78279458D01*
X156328392Y-78400064D01*
X156329000Y-78430000D01*
X156310886Y-78547735D01*
X156225233Y-78622179D01*
X156025074Y-78663156D01*
X155663442Y-78680489D01*
X155114453Y-78684000D01*
X153899906Y-78684000D01*
X153939703Y-78277672D01*
G36*
X153947824Y-74264948D02*
G01*
X154053169Y-74120684D01*
X154106500Y-74112000D01*
X154260233Y-74221526D01*
X154297000Y-74413950D01*
X154359925Y-74688433D01*
X154506779Y-74887257D01*
X154674677Y-74939590D01*
X154732634Y-74904649D01*
X154842567Y-74731512D01*
X154984709Y-74434286D01*
X155000219Y-74397750D01*
X155170944Y-74108694D01*
X155415431Y-73980267D01*
X155811359Y-73976077D01*
X155884500Y-73983464D01*
X156133764Y-74066848D01*
X156271561Y-74282373D01*
X156324042Y-74680789D01*
X156327055Y-74842250D01*
X156309457Y-75187402D01*
X156233252Y-75345512D01*
X156078143Y-75382000D01*
X155906951Y-75345374D01*
X155904899Y-75187510D01*
X155943003Y-75077642D01*
X155980084Y-74720539D01*
X155908110Y-74572012D01*
X155728876Y-74445952D01*
X155534141Y-74547332D01*
X155307521Y-74886097D01*
X155268613Y-74960250D01*
X154983655Y-75332382D01*
X154642193Y-75462927D01*
X154259578Y-75346493D01*
X154227281Y-75326105D01*
X154008732Y-75115612D01*
X153923175Y-74808711D01*
X153916000Y-74617073D01*
X153947824Y-74264948D01*
G37*
X153947824Y-74264948D02*
X154053169Y-74120684D01*
X154106500Y-74112000D01*
X154260233Y-74221526D01*
X154297000Y-74413950D01*
X154359925Y-74688433D01*
X154506779Y-74887257D01*
X154674677Y-74939590D01*
X154732634Y-74904649D01*
X154842567Y-74731512D01*
X154984709Y-74434286D01*
X155000219Y-74397750D01*
X155170944Y-74108694D01*
X155415431Y-73980267D01*
X155811359Y-73976077D01*
X155884500Y-73983464D01*
X156133764Y-74066848D01*
X156271561Y-74282373D01*
X156324042Y-74680789D01*
X156327055Y-74842250D01*
X156309457Y-75187402D01*
X156233252Y-75345512D01*
X156078143Y-75382000D01*
X155906951Y-75345374D01*
X155904899Y-75187510D01*
X155943003Y-75077642D01*
X155980084Y-74720539D01*
X155908110Y-74572012D01*
X155728876Y-74445952D01*
X155534141Y-74547332D01*
X155307521Y-74886097D01*
X155268613Y-74960250D01*
X154983655Y-75332382D01*
X154642193Y-75462927D01*
X154259578Y-75346493D01*
X154227281Y-75326105D01*
X154008732Y-75115612D01*
X153923175Y-74808711D01*
X153916000Y-74617073D01*
X153947824Y-74264948D01*
G36*
X154485799Y-92705537D02*
G01*
X154720632Y-92425935D01*
X154942801Y-92203525D01*
X155238419Y-91900305D01*
X155385455Y-91667344D01*
X155425055Y-91406030D01*
X155405578Y-91094450D01*
X155393502Y-90726147D01*
X155426021Y-90475077D01*
X155458277Y-90420204D01*
X155515370Y-90498114D01*
X155554744Y-90768246D01*
X155567000Y-91107727D01*
X155555228Y-91543563D01*
X155492277Y-91825986D01*
X155336689Y-92055398D01*
X155069946Y-92311502D01*
X154805566Y-92574320D01*
X154657482Y-92769699D01*
X154646613Y-92834280D01*
X154623164Y-92902373D01*
X154572166Y-92908001D01*
X154439411Y-92860332D01*
X154485799Y-92705537D01*
G37*
X154485799Y-92705537D02*
X154720632Y-92425935D01*
X154942801Y-92203525D01*
X155238419Y-91900305D01*
X155385455Y-91667344D01*
X155425055Y-91406030D01*
X155405578Y-91094450D01*
X155393502Y-90726147D01*
X155426021Y-90475077D01*
X155458277Y-90420204D01*
X155515370Y-90498114D01*
X155554744Y-90768246D01*
X155567000Y-91107727D01*
X155555228Y-91543563D01*
X155492277Y-91825986D01*
X155336689Y-92055398D01*
X155069946Y-92311502D01*
X154805566Y-92574320D01*
X154657482Y-92769699D01*
X154646613Y-92834280D01*
X154623164Y-92902373D01*
X154572166Y-92908001D01*
X154439411Y-92860332D01*
X154485799Y-92705537D01*
G36*
X154583612Y-87403707D02*
G01*
X154819304Y-87561069D01*
X154884302Y-87613377D01*
X155162163Y-87798610D01*
X155380362Y-87866852D01*
X155408250Y-87862013D01*
X155551638Y-87890885D01*
X155567000Y-87944417D01*
X155462551Y-88059056D01*
X155344750Y-88077987D01*
X155142729Y-88008638D01*
X154881517Y-87844545D01*
X154633915Y-87643615D01*
X154472722Y-87463755D01*
X154456899Y-87371768D01*
X154583612Y-87403707D01*
G37*
X154583612Y-87403707D02*
X154819304Y-87561069D01*
X154884302Y-87613377D01*
X155162163Y-87798610D01*
X155380362Y-87866852D01*
X155408250Y-87862013D01*
X155551638Y-87890885D01*
X155567000Y-87944417D01*
X155462551Y-88059056D01*
X155344750Y-88077987D01*
X155142729Y-88008638D01*
X154881517Y-87844545D01*
X154633915Y-87643615D01*
X154472722Y-87463755D01*
X154456899Y-87371768D01*
X154583612Y-87403707D01*
G36*
X153006134Y-88519671D02*
G01*
X153261963Y-88487692D01*
X153573622Y-88519200D01*
X153847248Y-88609898D01*
X153930483Y-88666608D01*
X154167631Y-88798840D01*
X154522382Y-88833587D01*
X154801478Y-88815640D01*
X155163640Y-88800086D01*
X155395029Y-88827122D01*
X155440000Y-88862643D01*
X155325405Y-88923052D01*
X155030916Y-88962387D01*
X154769758Y-88971000D01*
X154248598Y-88925049D01*
X153862325Y-88800502D01*
X153810356Y-88768465D01*
X153428637Y-88628488D01*
X153210598Y-88643885D01*
X152979172Y-88667681D01*
X152900000Y-88619434D01*
X153006134Y-88519671D01*
G37*
X153006134Y-88519671D02*
X153261963Y-88487692D01*
X153573622Y-88519200D01*
X153847248Y-88609898D01*
X153930483Y-88666608D01*
X154167631Y-88798840D01*
X154522382Y-88833587D01*
X154801478Y-88815640D01*
X155163640Y-88800086D01*
X155395029Y-88827122D01*
X155440000Y-88862643D01*
X155325405Y-88923052D01*
X155030916Y-88962387D01*
X154769758Y-88971000D01*
X154248598Y-88925049D01*
X153862325Y-88800502D01*
X153810356Y-88768465D01*
X153428637Y-88628488D01*
X153210598Y-88643885D01*
X152979172Y-88667681D01*
X152900000Y-88619434D01*
X153006134Y-88519671D01*
G36*
X153464456Y-91907853D02*
G01*
X153686509Y-91782571D01*
X153797055Y-91765000D01*
X154033426Y-91703295D01*
X154106077Y-91638683D01*
X154253603Y-91492775D01*
X154459283Y-91368450D01*
X154628296Y-91314278D01*
X154674009Y-91347782D01*
X154578705Y-91486292D01*
X154364369Y-91669750D01*
X154079849Y-91832108D01*
X153866670Y-91892000D01*
X153650601Y-91991703D01*
X153550836Y-92113193D01*
X153413977Y-92254024D01*
X153335927Y-92243262D01*
X153322224Y-92087731D01*
X153464456Y-91907853D01*
G37*
X153464456Y-91907853D02*
X153686509Y-91782571D01*
X153797055Y-91765000D01*
X154033426Y-91703295D01*
X154106077Y-91638683D01*
X154253603Y-91492775D01*
X154459283Y-91368450D01*
X154628296Y-91314278D01*
X154674009Y-91347782D01*
X154578705Y-91486292D01*
X154364369Y-91669750D01*
X154079849Y-91832108D01*
X153866670Y-91892000D01*
X153650601Y-91991703D01*
X153550836Y-92113193D01*
X153413977Y-92254024D01*
X153335927Y-92243262D01*
X153322224Y-92087731D01*
X153464456Y-91907853D01*
G36*
X153909402Y-89098000D02*
G01*
X154050319Y-89197763D01*
X154080041Y-89256750D01*
X154164845Y-89351813D01*
X154306525Y-89256750D01*
X154530229Y-89111143D01*
X154662240Y-89152732D01*
X154678000Y-89232496D01*
X154600195Y-89308345D01*
X154551000Y-89288500D01*
X154433971Y-89298570D01*
X154424000Y-89344505D01*
X154331368Y-89460617D01*
X154129894Y-89467589D01*
X153934209Y-89377010D01*
X153870073Y-89288500D01*
X153862414Y-89124715D01*
X153909402Y-89098000D01*
G37*
X153909402Y-89098000D02*
X154050319Y-89197763D01*
X154080041Y-89256750D01*
X154164845Y-89351813D01*
X154306525Y-89256750D01*
X154530229Y-89111143D01*
X154662240Y-89152732D01*
X154678000Y-89232496D01*
X154600195Y-89308345D01*
X154551000Y-89288500D01*
X154433971Y-89298570D01*
X154424000Y-89344505D01*
X154331368Y-89460617D01*
X154129894Y-89467589D01*
X153934209Y-89377010D01*
X153870073Y-89288500D01*
X153862414Y-89124715D01*
X153909402Y-89098000D01*
G36*
X153894879Y-83291358D02*
G01*
X154043000Y-83256000D01*
X154249856Y-83335410D01*
X154297000Y-83446500D01*
X154191120Y-83601643D01*
X154043000Y-83637000D01*
X153836143Y-83557591D01*
X153789000Y-83446500D01*
X153894879Y-83291358D01*
G37*
X153894879Y-83291358D02*
X154043000Y-83256000D01*
X154249856Y-83335410D01*
X154297000Y-83446500D01*
X154191120Y-83601643D01*
X154043000Y-83637000D01*
X153836143Y-83557591D01*
X153789000Y-83446500D01*
X153894879Y-83291358D01*
G36*
X153493006Y-87888523D02*
G01*
X153689004Y-87931848D01*
X153907463Y-88061372D01*
X154051490Y-88224864D01*
X154109441Y-88416729D01*
X154061055Y-88463000D01*
X153918200Y-88361822D01*
X153870073Y-88272500D01*
X153700347Y-88103555D01*
X153602485Y-88082000D01*
X153430845Y-88020855D01*
X153408000Y-87966890D01*
X153493006Y-87888523D01*
G37*
X153493006Y-87888523D02*
X153689004Y-87931848D01*
X153907463Y-88061372D01*
X154051490Y-88224864D01*
X154109441Y-88416729D01*
X154061055Y-88463000D01*
X153918200Y-88361822D01*
X153870073Y-88272500D01*
X153700347Y-88103555D01*
X153602485Y-88082000D01*
X153430845Y-88020855D01*
X153408000Y-87966890D01*
X153493006Y-87888523D01*
G36*
X152846354Y-89013848D02*
G01*
X153125714Y-89127039D01*
X153428709Y-89326031D01*
X153613197Y-89497276D01*
X153807610Y-89796519D01*
X153939671Y-90150170D01*
X153987646Y-90471565D01*
X153929799Y-90674038D01*
X153911840Y-90688071D01*
X153828988Y-90632158D01*
X153789772Y-90385681D01*
X153789000Y-90335756D01*
X153675597Y-89912177D01*
X153378396Y-89514730D01*
X152961906Y-89223019D01*
X152850072Y-89177128D01*
X152682968Y-89082748D01*
X152673709Y-89027958D01*
X152846354Y-89013848D01*
G37*
X152846354Y-89013848D02*
X153125714Y-89127039D01*
X153428709Y-89326031D01*
X153613197Y-89497276D01*
X153807610Y-89796519D01*
X153939671Y-90150170D01*
X153987646Y-90471565D01*
X153929799Y-90674038D01*
X153911840Y-90688071D01*
X153828988Y-90632158D01*
X153789772Y-90385681D01*
X153789000Y-90335756D01*
X153675597Y-89912177D01*
X153378396Y-89514730D01*
X152961906Y-89223019D01*
X152850072Y-89177128D01*
X152682968Y-89082748D01*
X152673709Y-89027958D01*
X152846354Y-89013848D01*
G36*
X152608233Y-89842870D02*
G01*
X152675817Y-89772456D01*
X152907801Y-89558099D01*
X153057046Y-89510216D01*
X153214825Y-89610252D01*
X153262890Y-89653111D01*
X153436348Y-89899123D01*
X153551991Y-90220047D01*
X153586438Y-90518475D01*
X153516310Y-90696998D01*
X153513825Y-90698587D01*
X153439979Y-90637787D01*
X153408033Y-90400500D01*
X153408000Y-90391046D01*
X153341814Y-90061883D01*
X153203757Y-89848595D01*
X153017830Y-89749054D01*
X152865198Y-89863674D01*
X152840506Y-89896544D01*
X152635560Y-90074866D01*
X152507885Y-90114000D01*
X152466052Y-90040885D01*
X152608233Y-89842870D01*
G37*
X152608233Y-89842870D02*
X152675817Y-89772456D01*
X152907801Y-89558099D01*
X153057046Y-89510216D01*
X153214825Y-89610252D01*
X153262890Y-89653111D01*
X153436348Y-89899123D01*
X153551991Y-90220047D01*
X153586438Y-90518475D01*
X153516310Y-90696998D01*
X153513825Y-90698587D01*
X153439979Y-90637787D01*
X153408033Y-90400500D01*
X153408000Y-90391046D01*
X153341814Y-90061883D01*
X153203757Y-89848595D01*
X153017830Y-89749054D01*
X152865198Y-89863674D01*
X152840506Y-89896544D01*
X152635560Y-90074866D01*
X152507885Y-90114000D01*
X152466052Y-90040885D01*
X152608233Y-89842870D01*
G36*
X152474813Y-90717691D02*
G01*
X152637951Y-90503122D01*
X152645999Y-90495000D01*
X152884770Y-90298578D01*
X152977828Y-90301436D01*
X152901800Y-90480259D01*
X152787107Y-90635759D01*
X152592476Y-90822562D01*
X152459313Y-90857878D01*
X152455848Y-90854834D01*
X152474813Y-90717691D01*
G37*
X152474813Y-90717691D02*
X152637951Y-90503122D01*
X152645999Y-90495000D01*
X152884770Y-90298578D01*
X152977828Y-90301436D01*
X152901800Y-90480259D01*
X152787107Y-90635759D01*
X152592476Y-90822562D01*
X152459313Y-90857878D01*
X152455848Y-90854834D01*
X152474813Y-90717691D01*
D11*
G36*
X160750000Y-106450000D02*
G01*
X161250000Y-106450000D01*
X161250000Y-107050000D01*
X160750000Y-107050000D01*
X160750000Y-106450000D01*
G37*
D12*
X190640000Y-122800000D03*
X188100000Y-122800000D03*
X185560000Y-122800000D03*
X183020000Y-122800000D03*
X180480000Y-122800000D03*
X177940000Y-122800000D03*
X175400000Y-122800000D03*
X172860000Y-122800000D03*
X170320000Y-122800000D03*
X167780000Y-122800000D03*
X165240000Y-122800000D03*
D13*
X162700000Y-122800000D03*
D14*
X161650000Y-106750000D03*
X160350000Y-106750000D03*
G04 #@! TA.AperFunction,SMDPad,CuDef*
D11*
G36*
X205461756Y-119601806D02*
G01*
X205498159Y-119607206D01*
X205533857Y-119616147D01*
X205568506Y-119628545D01*
X205601774Y-119644280D01*
X205633339Y-119663199D01*
X205662897Y-119685121D01*
X205690165Y-119709835D01*
X205714879Y-119737103D01*
X205736801Y-119766661D01*
X205755720Y-119798226D01*
X205771455Y-119831494D01*
X205783853Y-119866143D01*
X205792794Y-119901841D01*
X205798194Y-119938244D01*
X205800000Y-119975000D01*
X205800000Y-121425000D01*
X205798194Y-121461756D01*
X205792794Y-121498159D01*
X205783853Y-121533857D01*
X205771455Y-121568506D01*
X205755720Y-121601774D01*
X205736801Y-121633339D01*
X205714879Y-121662897D01*
X205690165Y-121690165D01*
X205662897Y-121714879D01*
X205633339Y-121736801D01*
X205601774Y-121755720D01*
X205568506Y-121771455D01*
X205533857Y-121783853D01*
X205498159Y-121792794D01*
X205461756Y-121798194D01*
X205425000Y-121800000D01*
X204675000Y-121800000D01*
X204638244Y-121798194D01*
X204601841Y-121792794D01*
X204566143Y-121783853D01*
X204531494Y-121771455D01*
X204498226Y-121755720D01*
X204466661Y-121736801D01*
X204437103Y-121714879D01*
X204409835Y-121690165D01*
X204385121Y-121662897D01*
X204363199Y-121633339D01*
X204344280Y-121601774D01*
X204328545Y-121568506D01*
X204316147Y-121533857D01*
X204307206Y-121498159D01*
X204301806Y-121461756D01*
X204300000Y-121425000D01*
X204300000Y-119975000D01*
X204301806Y-119938244D01*
X204307206Y-119901841D01*
X204316147Y-119866143D01*
X204328545Y-119831494D01*
X204344280Y-119798226D01*
X204363199Y-119766661D01*
X204385121Y-119737103D01*
X204409835Y-119709835D01*
X204437103Y-119685121D01*
X204466661Y-119663199D01*
X204498226Y-119644280D01*
X204531494Y-119628545D01*
X204566143Y-119616147D01*
X204601841Y-119607206D01*
X204638244Y-119601806D01*
X204675000Y-119600000D01*
X205425000Y-119600000D01*
X205461756Y-119601806D01*
G37*
G04 #@! TD.AperFunction*
G04 #@! TA.AperFunction,SMDPad,CuDef*
G36*
X211761756Y-119601806D02*
G01*
X211798159Y-119607206D01*
X211833857Y-119616147D01*
X211868506Y-119628545D01*
X211901774Y-119644280D01*
X211933339Y-119663199D01*
X211962897Y-119685121D01*
X211990165Y-119709835D01*
X212014879Y-119737103D01*
X212036801Y-119766661D01*
X212055720Y-119798226D01*
X212071455Y-119831494D01*
X212083853Y-119866143D01*
X212092794Y-119901841D01*
X212098194Y-119938244D01*
X212100000Y-119975000D01*
X212100000Y-121425000D01*
X212098194Y-121461756D01*
X212092794Y-121498159D01*
X212083853Y-121533857D01*
X212071455Y-121568506D01*
X212055720Y-121601774D01*
X212036801Y-121633339D01*
X212014879Y-121662897D01*
X211990165Y-121690165D01*
X211962897Y-121714879D01*
X211933339Y-121736801D01*
X211901774Y-121755720D01*
X211868506Y-121771455D01*
X211833857Y-121783853D01*
X211798159Y-121792794D01*
X211761756Y-121798194D01*
X211725000Y-121800000D01*
X210975000Y-121800000D01*
X210938244Y-121798194D01*
X210901841Y-121792794D01*
X210866143Y-121783853D01*
X210831494Y-121771455D01*
X210798226Y-121755720D01*
X210766661Y-121736801D01*
X210737103Y-121714879D01*
X210709835Y-121690165D01*
X210685121Y-121662897D01*
X210663199Y-121633339D01*
X210644280Y-121601774D01*
X210628545Y-121568506D01*
X210616147Y-121533857D01*
X210607206Y-121498159D01*
X210601806Y-121461756D01*
X210600000Y-121425000D01*
X210600000Y-119975000D01*
X210601806Y-119938244D01*
X210607206Y-119901841D01*
X210616147Y-119866143D01*
X210628545Y-119831494D01*
X210644280Y-119798226D01*
X210663199Y-119766661D01*
X210685121Y-119737103D01*
X210709835Y-119709835D01*
X210737103Y-119685121D01*
X210766661Y-119663199D01*
X210798226Y-119644280D01*
X210831494Y-119628545D01*
X210866143Y-119616147D01*
X210901841Y-119607206D01*
X210938244Y-119601806D01*
X210975000Y-119600000D01*
X211725000Y-119600000D01*
X211761756Y-119601806D01*
G37*
G04 #@! TD.AperFunction*
D15*
X195200000Y-115565000D03*
D16*
X199000000Y-115565000D03*
D17*
X157120000Y-110000000D03*
X153310000Y-110000000D03*
X149500000Y-110000000D03*
D18*
X145690000Y-110000000D03*
D15*
X220950000Y-115565000D03*
D19*
X224750000Y-115565000D03*
D20*
X171300000Y-107100000D03*
X196750000Y-107100000D03*
D21*
X219850000Y-108150000D03*
X224950000Y-109750000D03*
G04 #@! TA.AperFunction,SMDPad,CuDef*
D11*
G36*
X181205142Y-109101174D02*
G01*
X181228803Y-109104684D01*
X181252007Y-109110496D01*
X181274529Y-109118554D01*
X181296153Y-109128782D01*
X181316670Y-109141079D01*
X181335883Y-109155329D01*
X181353607Y-109171393D01*
X181369671Y-109189117D01*
X181383921Y-109208330D01*
X181396218Y-109228847D01*
X181406446Y-109250471D01*
X181414504Y-109272993D01*
X181420316Y-109296197D01*
X181423826Y-109319858D01*
X181425000Y-109343750D01*
X181425000Y-110256250D01*
X181423826Y-110280142D01*
X181420316Y-110303803D01*
X181414504Y-110327007D01*
X181406446Y-110349529D01*
X181396218Y-110371153D01*
X181383921Y-110391670D01*
X181369671Y-110410883D01*
X181353607Y-110428607D01*
X181335883Y-110444671D01*
X181316670Y-110458921D01*
X181296153Y-110471218D01*
X181274529Y-110481446D01*
X181252007Y-110489504D01*
X181228803Y-110495316D01*
X181205142Y-110498826D01*
X181181250Y-110500000D01*
X180693750Y-110500000D01*
X180669858Y-110498826D01*
X180646197Y-110495316D01*
X180622993Y-110489504D01*
X180600471Y-110481446D01*
X180578847Y-110471218D01*
X180558330Y-110458921D01*
X180539117Y-110444671D01*
X180521393Y-110428607D01*
X180505329Y-110410883D01*
X180491079Y-110391670D01*
X180478782Y-110371153D01*
X180468554Y-110349529D01*
X180460496Y-110327007D01*
X180454684Y-110303803D01*
X180451174Y-110280142D01*
X180450000Y-110256250D01*
X180450000Y-109343750D01*
X180451174Y-109319858D01*
X180454684Y-109296197D01*
X180460496Y-109272993D01*
X180468554Y-109250471D01*
X180478782Y-109228847D01*
X180491079Y-109208330D01*
X180505329Y-109189117D01*
X180521393Y-109171393D01*
X180539117Y-109155329D01*
X180558330Y-109141079D01*
X180578847Y-109128782D01*
X180600471Y-109118554D01*
X180622993Y-109110496D01*
X180646197Y-109104684D01*
X180669858Y-109101174D01*
X180693750Y-109100000D01*
X181181250Y-109100000D01*
X181205142Y-109101174D01*
G37*
G04 #@! TD.AperFunction*
G04 #@! TA.AperFunction,SMDPad,CuDef*
G36*
X179330142Y-109101174D02*
G01*
X179353803Y-109104684D01*
X179377007Y-109110496D01*
X179399529Y-109118554D01*
X179421153Y-109128782D01*
X179441670Y-109141079D01*
X179460883Y-109155329D01*
X179478607Y-109171393D01*
X179494671Y-109189117D01*
X179508921Y-109208330D01*
X179521218Y-109228847D01*
X179531446Y-109250471D01*
X179539504Y-109272993D01*
X179545316Y-109296197D01*
X179548826Y-109319858D01*
X179550000Y-109343750D01*
X179550000Y-110256250D01*
X179548826Y-110280142D01*
X179545316Y-110303803D01*
X179539504Y-110327007D01*
X179531446Y-110349529D01*
X179521218Y-110371153D01*
X179508921Y-110391670D01*
X179494671Y-110410883D01*
X179478607Y-110428607D01*
X179460883Y-110444671D01*
X179441670Y-110458921D01*
X179421153Y-110471218D01*
X179399529Y-110481446D01*
X179377007Y-110489504D01*
X179353803Y-110495316D01*
X179330142Y-110498826D01*
X179306250Y-110500000D01*
X178818750Y-110500000D01*
X178794858Y-110498826D01*
X178771197Y-110495316D01*
X178747993Y-110489504D01*
X178725471Y-110481446D01*
X178703847Y-110471218D01*
X178683330Y-110458921D01*
X178664117Y-110444671D01*
X178646393Y-110428607D01*
X178630329Y-110410883D01*
X178616079Y-110391670D01*
X178603782Y-110371153D01*
X178593554Y-110349529D01*
X178585496Y-110327007D01*
X178579684Y-110303803D01*
X178576174Y-110280142D01*
X178575000Y-110256250D01*
X178575000Y-109343750D01*
X178576174Y-109319858D01*
X178579684Y-109296197D01*
X178585496Y-109272993D01*
X178593554Y-109250471D01*
X178603782Y-109228847D01*
X178616079Y-109208330D01*
X178630329Y-109189117D01*
X178646393Y-109171393D01*
X178664117Y-109155329D01*
X178683330Y-109141079D01*
X178703847Y-109128782D01*
X178725471Y-109118554D01*
X178747993Y-109110496D01*
X178771197Y-109104684D01*
X178794858Y-109101174D01*
X178818750Y-109100000D01*
X179306250Y-109100000D01*
X179330142Y-109101174D01*
G37*
G04 #@! TD.AperFunction*
G04 #@! TA.AperFunction,SMDPad,CuDef*
G36*
X189205142Y-109101174D02*
G01*
X189228803Y-109104684D01*
X189252007Y-109110496D01*
X189274529Y-109118554D01*
X189296153Y-109128782D01*
X189316670Y-109141079D01*
X189335883Y-109155329D01*
X189353607Y-109171393D01*
X189369671Y-109189117D01*
X189383921Y-109208330D01*
X189396218Y-109228847D01*
X189406446Y-109250471D01*
X189414504Y-109272993D01*
X189420316Y-109296197D01*
X189423826Y-109319858D01*
X189425000Y-109343750D01*
X189425000Y-110256250D01*
X189423826Y-110280142D01*
X189420316Y-110303803D01*
X189414504Y-110327007D01*
X189406446Y-110349529D01*
X189396218Y-110371153D01*
X189383921Y-110391670D01*
X189369671Y-110410883D01*
X189353607Y-110428607D01*
X189335883Y-110444671D01*
X189316670Y-110458921D01*
X189296153Y-110471218D01*
X189274529Y-110481446D01*
X189252007Y-110489504D01*
X189228803Y-110495316D01*
X189205142Y-110498826D01*
X189181250Y-110500000D01*
X188693750Y-110500000D01*
X188669858Y-110498826D01*
X188646197Y-110495316D01*
X188622993Y-110489504D01*
X188600471Y-110481446D01*
X188578847Y-110471218D01*
X188558330Y-110458921D01*
X188539117Y-110444671D01*
X188521393Y-110428607D01*
X188505329Y-110410883D01*
X188491079Y-110391670D01*
X188478782Y-110371153D01*
X188468554Y-110349529D01*
X188460496Y-110327007D01*
X188454684Y-110303803D01*
X188451174Y-110280142D01*
X188450000Y-110256250D01*
X188450000Y-109343750D01*
X188451174Y-109319858D01*
X188454684Y-109296197D01*
X188460496Y-109272993D01*
X188468554Y-109250471D01*
X188478782Y-109228847D01*
X188491079Y-109208330D01*
X188505329Y-109189117D01*
X188521393Y-109171393D01*
X188539117Y-109155329D01*
X188558330Y-109141079D01*
X188578847Y-109128782D01*
X188600471Y-109118554D01*
X188622993Y-109110496D01*
X188646197Y-109104684D01*
X188669858Y-109101174D01*
X188693750Y-109100000D01*
X189181250Y-109100000D01*
X189205142Y-109101174D01*
G37*
G04 #@! TD.AperFunction*
G04 #@! TA.AperFunction,SMDPad,CuDef*
G36*
X187330142Y-109101174D02*
G01*
X187353803Y-109104684D01*
X187377007Y-109110496D01*
X187399529Y-109118554D01*
X187421153Y-109128782D01*
X187441670Y-109141079D01*
X187460883Y-109155329D01*
X187478607Y-109171393D01*
X187494671Y-109189117D01*
X187508921Y-109208330D01*
X187521218Y-109228847D01*
X187531446Y-109250471D01*
X187539504Y-109272993D01*
X187545316Y-109296197D01*
X187548826Y-109319858D01*
X187550000Y-109343750D01*
X187550000Y-110256250D01*
X187548826Y-110280142D01*
X187545316Y-110303803D01*
X187539504Y-110327007D01*
X187531446Y-110349529D01*
X187521218Y-110371153D01*
X187508921Y-110391670D01*
X187494671Y-110410883D01*
X187478607Y-110428607D01*
X187460883Y-110444671D01*
X187441670Y-110458921D01*
X187421153Y-110471218D01*
X187399529Y-110481446D01*
X187377007Y-110489504D01*
X187353803Y-110495316D01*
X187330142Y-110498826D01*
X187306250Y-110500000D01*
X186818750Y-110500000D01*
X186794858Y-110498826D01*
X186771197Y-110495316D01*
X186747993Y-110489504D01*
X186725471Y-110481446D01*
X186703847Y-110471218D01*
X186683330Y-110458921D01*
X186664117Y-110444671D01*
X186646393Y-110428607D01*
X186630329Y-110410883D01*
X186616079Y-110391670D01*
X186603782Y-110371153D01*
X186593554Y-110349529D01*
X186585496Y-110327007D01*
X186579684Y-110303803D01*
X186576174Y-110280142D01*
X186575000Y-110256250D01*
X186575000Y-109343750D01*
X186576174Y-109319858D01*
X186579684Y-109296197D01*
X186585496Y-109272993D01*
X186593554Y-109250471D01*
X186603782Y-109228847D01*
X186616079Y-109208330D01*
X186630329Y-109189117D01*
X186646393Y-109171393D01*
X186664117Y-109155329D01*
X186683330Y-109141079D01*
X186703847Y-109128782D01*
X186725471Y-109118554D01*
X186747993Y-109110496D01*
X186771197Y-109104684D01*
X186794858Y-109101174D01*
X186818750Y-109100000D01*
X187306250Y-109100000D01*
X187330142Y-109101174D01*
G37*
G04 #@! TD.AperFunction*
D22*
X216050000Y-122950000D03*
X216050000Y-118950000D03*
D23*
X148750000Y-116900000D03*
X149750000Y-116900000D03*
X150750000Y-116900000D03*
X186500000Y-108000000D03*
X161700000Y-116100000D03*
X154600000Y-121000000D03*
X183700000Y-113800000D03*
X184600000Y-113800000D03*
X187100000Y-106100000D03*
X190000000Y-106100000D03*
X158200000Y-120100000D03*
X158800000Y-120800000D03*
X155150000Y-118700000D03*
X156050000Y-118700000D03*
X180000000Y-112500000D03*
X179100000Y-112500000D03*
X168000000Y-107700000D03*
X167100000Y-107700000D03*
X178850000Y-116450000D03*
X177950000Y-116450000D03*
X183775010Y-107450000D03*
X181750000Y-105150000D03*
X165400000Y-120250000D03*
X166500000Y-114350000D03*
X209000000Y-106050000D03*
X207500000Y-106000000D03*
X183250000Y-104175010D03*
X146750000Y-120650000D03*
X156000000Y-120650000D03*
X166999992Y-111250000D03*
X181550000Y-117000000D03*
X212386666Y-114250000D03*
X203300000Y-120700000D03*
X184049993Y-115599993D03*
X176600000Y-107350000D03*
X185150000Y-116700000D03*
X201800000Y-114500000D03*
X216050000Y-118950000D03*
X203850000Y-112950000D03*
X208250000Y-111750000D03*
X210075010Y-108149992D03*
X163500000Y-104750000D03*
X164000000Y-107750000D03*
X160900000Y-117800000D03*
X157600000Y-116774990D03*
X185400000Y-119500000D03*
X170700000Y-113300000D03*
X169700000Y-120150000D03*
X173400000Y-120250000D03*
X161900000Y-111700000D03*
X160087500Y-109250000D03*
X165412500Y-106000000D03*
X173250000Y-113250000D03*
X172000000Y-113250000D03*
X165500010Y-109250000D03*
X169688457Y-115550011D03*
X160900000Y-120000000D03*
X174750000Y-119200000D03*
X169500000Y-113300000D03*
X167800000Y-120150000D03*
D24*
X161350000Y-122800000D02*
X161099999Y-123050001D01*
X158400001Y-123050001D02*
X156000000Y-120650000D01*
X162700000Y-122800000D02*
X161350000Y-122800000D01*
X161099999Y-123050001D02*
X158400001Y-123050001D01*
X147800000Y-119600000D02*
X146750000Y-120650000D01*
X156000000Y-120650000D02*
X154950000Y-119600000D01*
X154950000Y-119600000D02*
X147800000Y-119600000D01*
X211700000Y-116000000D02*
X212386666Y-115313334D01*
X212386666Y-115313334D02*
X212386666Y-114250000D01*
X205050000Y-120700000D02*
X204300000Y-120700000D01*
X203750000Y-116826664D02*
X204576664Y-116000000D01*
X204300000Y-120700000D02*
X203750000Y-120150000D01*
X203750000Y-120150000D02*
X203750000Y-116826664D01*
X204576664Y-116000000D02*
X211700000Y-116000000D01*
D25*
X205050000Y-120700000D02*
X203300000Y-120700000D01*
D24*
X176600000Y-111700000D02*
X176600000Y-107915685D01*
X184050000Y-115600000D02*
X180500000Y-115600000D01*
X176200001Y-107749999D02*
X176600000Y-107350000D01*
X180500000Y-115600000D02*
X176600000Y-111700000D01*
X166999992Y-111250000D02*
X172700000Y-111250000D01*
X176600000Y-107915685D02*
X176600000Y-107350000D01*
X172700000Y-111250000D02*
X176200001Y-107749999D01*
D25*
X186600000Y-118150000D02*
X184050000Y-115600000D01*
X203300000Y-120700000D02*
X200750000Y-118150000D01*
X200750000Y-118150000D02*
X186600000Y-118150000D01*
D24*
X201800000Y-115065685D02*
X201800000Y-114500000D01*
X203300000Y-120700000D02*
X201800000Y-119200000D01*
X201800000Y-119200000D02*
X201800000Y-115065685D01*
D25*
X213900000Y-118950000D02*
X216050000Y-118950000D01*
X211350000Y-120700000D02*
X212150000Y-120700000D01*
X212150000Y-120700000D02*
X213900000Y-118950000D01*
D26*
X203850000Y-112950000D02*
X207050000Y-112950000D01*
X207050000Y-112950000D02*
X208250000Y-111750000D01*
X208250000Y-109975002D02*
X210075010Y-108149992D01*
X208250000Y-111750000D02*
X208250000Y-109975002D01*
X164800000Y-103450000D02*
X163500000Y-104750000D01*
X188937500Y-104687500D02*
X187700000Y-103450000D01*
X187700000Y-103450000D02*
X164800000Y-103450000D01*
X188937500Y-109800000D02*
X188937500Y-104687500D01*
X164000000Y-105500000D02*
X165000000Y-104500000D01*
X179523000Y-104500000D02*
X180937500Y-105914500D01*
X180937500Y-105914500D02*
X180937500Y-109800000D01*
X164000000Y-107750000D02*
X164000000Y-105500000D01*
X165000000Y-104500000D02*
X179523000Y-104500000D01*
X177940000Y-122800000D02*
X177940000Y-120580585D01*
X177940000Y-120580585D02*
X175159415Y-117800000D01*
X175159415Y-117800000D02*
X161465685Y-117800000D01*
X161465685Y-117800000D02*
X160900000Y-117800000D01*
X176249999Y-119526995D02*
X175122993Y-118399989D01*
X175400000Y-122800000D02*
X176249999Y-121950001D01*
X176249999Y-121950001D02*
X176249999Y-119526995D01*
X159374999Y-118549989D02*
X157999999Y-117174989D01*
X157999999Y-117174989D02*
X157600000Y-116774990D01*
X161713600Y-118549989D02*
X159374999Y-118549989D01*
X161863600Y-118399989D02*
X161713600Y-118549989D01*
X175122993Y-118399989D02*
X161863600Y-118399989D01*
X185400000Y-119500000D02*
X178768648Y-119500000D01*
X178768648Y-119500000D02*
X173268647Y-113999999D01*
X171099999Y-113699999D02*
X170700000Y-113300000D01*
X171399999Y-113999999D02*
X171099999Y-113699999D01*
X173268647Y-113999999D02*
X171399999Y-113999999D01*
X173300000Y-120150000D02*
X173400000Y-120250000D01*
X169700000Y-120150000D02*
X173300000Y-120150000D01*
X157635001Y-105674999D02*
X153310000Y-110000000D01*
X161650000Y-106750000D02*
X161650000Y-105750000D01*
X161574999Y-105674999D02*
X157635001Y-105674999D01*
X161650000Y-105750000D02*
X161574999Y-105674999D01*
X151200000Y-111700000D02*
X161900000Y-111700000D01*
X149500000Y-110000000D02*
X151200000Y-111700000D01*
D24*
X199000000Y-115665000D02*
X199000000Y-115565000D01*
D26*
X160350000Y-106750000D02*
X160350000Y-108987500D01*
X160350000Y-108987500D02*
X160087500Y-109250000D01*
X172000000Y-112000000D02*
X173250000Y-113250000D01*
X166225011Y-111725011D02*
X166500000Y-112000000D01*
X165412500Y-106000000D02*
X165925000Y-106000000D01*
X166500000Y-112000000D02*
X172000000Y-112000000D01*
X166225011Y-106300011D02*
X166225011Y-111725011D01*
X165925000Y-106000000D02*
X166225011Y-106300011D01*
X165500010Y-111750010D02*
X165500010Y-109250000D01*
X166200011Y-112450011D02*
X165500010Y-111750010D01*
X171200011Y-112450011D02*
X166200011Y-112450011D01*
X172000000Y-113250000D02*
X171200011Y-112450011D01*
X173545837Y-115550011D02*
X170254142Y-115550011D01*
X170254142Y-115550011D02*
X169688457Y-115550011D01*
X185560000Y-122800000D02*
X184060000Y-121300000D01*
X184060000Y-121300000D02*
X179295826Y-121300000D01*
X179295826Y-121300000D02*
X173545837Y-115550011D01*
X174400000Y-118850000D02*
X174750000Y-119200000D01*
X162050000Y-118850000D02*
X174400000Y-118850000D01*
X160900000Y-120000000D02*
X162050000Y-118850000D01*
X188689989Y-120849989D02*
X179482226Y-120849989D01*
X179482226Y-120849989D02*
X173457238Y-114825001D01*
X171025001Y-114825001D02*
X169899999Y-113699999D01*
X190640000Y-122800000D02*
X188689989Y-120849989D01*
X173457238Y-114825001D02*
X171025001Y-114825001D01*
X169899999Y-113699999D02*
X169500000Y-113300000D01*
X166800000Y-120150000D02*
X167800000Y-120150000D01*
X165240000Y-122800000D02*
X165240000Y-121710000D01*
X165240000Y-121710000D02*
X166800000Y-120150000D01*
D27*
G36*
X226019926Y-101587577D02*
G01*
X226401910Y-101607693D01*
X226777012Y-101664621D01*
X227144745Y-101757979D01*
X227501586Y-101886873D01*
X227844089Y-102050056D01*
X228168998Y-102245980D01*
X228473161Y-102472742D01*
X228753690Y-102728190D01*
X229007872Y-103009852D01*
X229233274Y-103315034D01*
X229340001Y-103493830D01*
X229340001Y-128247361D01*
X229207047Y-128468276D01*
X228979644Y-128773625D01*
X228723351Y-129055180D01*
X228440659Y-129310202D01*
X228400271Y-129340000D01*
X142052545Y-129340000D01*
X141868502Y-129229020D01*
X141564339Y-129002258D01*
X141283810Y-128746810D01*
X141029628Y-128465148D01*
X140804226Y-128159966D01*
X140660000Y-127918349D01*
X140660000Y-126679872D01*
X140865000Y-126679872D01*
X140865000Y-127120128D01*
X140950890Y-127551925D01*
X141119369Y-127958669D01*
X141363962Y-128324729D01*
X141675271Y-128636038D01*
X142041331Y-128880631D01*
X142448075Y-129049110D01*
X142879872Y-129135000D01*
X143320128Y-129135000D01*
X143751925Y-129049110D01*
X144158669Y-128880631D01*
X144524729Y-128636038D01*
X144836038Y-128324729D01*
X145080631Y-127958669D01*
X145249110Y-127551925D01*
X145335000Y-127120128D01*
X145335000Y-126679872D01*
X224665000Y-126679872D01*
X224665000Y-127120128D01*
X224750890Y-127551925D01*
X224919369Y-127958669D01*
X225163962Y-128324729D01*
X225475271Y-128636038D01*
X225841331Y-128880631D01*
X226248075Y-129049110D01*
X226679872Y-129135000D01*
X227120128Y-129135000D01*
X227551925Y-129049110D01*
X227958669Y-128880631D01*
X228324729Y-128636038D01*
X228636038Y-128324729D01*
X228880631Y-127958669D01*
X229049110Y-127551925D01*
X229135000Y-127120128D01*
X229135000Y-126679872D01*
X229049110Y-126248075D01*
X228880631Y-125841331D01*
X228636038Y-125475271D01*
X228324729Y-125163962D01*
X227958669Y-124919369D01*
X227551925Y-124750890D01*
X227120128Y-124665000D01*
X226679872Y-124665000D01*
X226248075Y-124750890D01*
X225841331Y-124919369D01*
X225475271Y-125163962D01*
X225163962Y-125475271D01*
X224919369Y-125841331D01*
X224750890Y-126248075D01*
X224665000Y-126679872D01*
X145335000Y-126679872D01*
X145249110Y-126248075D01*
X145080631Y-125841331D01*
X144836038Y-125475271D01*
X144524729Y-125163962D01*
X144158669Y-124919369D01*
X143751925Y-124750890D01*
X143320128Y-124665000D01*
X142879872Y-124665000D01*
X142448075Y-124750890D01*
X142041331Y-124919369D01*
X141675271Y-125163962D01*
X141363962Y-125475271D01*
X141119369Y-125841331D01*
X140950890Y-126248075D01*
X140865000Y-126679872D01*
X140660000Y-126679872D01*
X140660000Y-120548061D01*
X145715000Y-120548061D01*
X145715000Y-120751939D01*
X145754774Y-120951898D01*
X145832795Y-121140256D01*
X145946063Y-121309774D01*
X146090226Y-121453937D01*
X146259744Y-121567205D01*
X146448102Y-121645226D01*
X146648061Y-121685000D01*
X146851939Y-121685000D01*
X147051898Y-121645226D01*
X147240256Y-121567205D01*
X147409774Y-121453937D01*
X147553937Y-121309774D01*
X147667205Y-121140256D01*
X147745226Y-120951898D01*
X147756535Y-120895043D01*
X148166579Y-120485000D01*
X154583422Y-120485000D01*
X154993465Y-120895044D01*
X155004774Y-120951898D01*
X155082795Y-121140256D01*
X155196063Y-121309774D01*
X155340226Y-121453937D01*
X155509744Y-121567205D01*
X155698102Y-121645226D01*
X155754957Y-121656535D01*
X157743471Y-123645050D01*
X157771184Y-123678818D01*
X157804952Y-123706531D01*
X157804954Y-123706533D01*
X157853815Y-123746632D01*
X157905942Y-123789412D01*
X158059688Y-123871590D01*
X158145391Y-123897588D01*
X158226510Y-123922196D01*
X158241307Y-123923653D01*
X158356524Y-123935001D01*
X158356532Y-123935001D01*
X158400001Y-123939282D01*
X158443470Y-123935001D01*
X161056530Y-123935001D01*
X161099999Y-123939282D01*
X161143468Y-123935001D01*
X161143476Y-123935001D01*
X161273489Y-123922196D01*
X161275196Y-123921678D01*
X161319463Y-124004494D01*
X161398815Y-124101185D01*
X161495506Y-124180537D01*
X161605820Y-124239502D01*
X161725518Y-124275812D01*
X161850000Y-124288072D01*
X163550000Y-124288072D01*
X163674482Y-124275812D01*
X163794180Y-124239502D01*
X163904494Y-124180537D01*
X164001185Y-124101185D01*
X164080537Y-124004494D01*
X164139502Y-123894180D01*
X164161513Y-123821620D01*
X164293368Y-123953475D01*
X164536589Y-124115990D01*
X164806842Y-124227932D01*
X165093740Y-124285000D01*
X165386260Y-124285000D01*
X165673158Y-124227932D01*
X165943411Y-124115990D01*
X166186632Y-123953475D01*
X166393475Y-123746632D01*
X166515195Y-123564466D01*
X166584822Y-123681355D01*
X166779731Y-123897588D01*
X167013080Y-124071641D01*
X167275901Y-124196825D01*
X167423110Y-124241476D01*
X167653000Y-124120155D01*
X167653000Y-122927000D01*
X167633000Y-122927000D01*
X167633000Y-122673000D01*
X167653000Y-122673000D01*
X167653000Y-121479845D01*
X167423110Y-121358524D01*
X167275901Y-121403175D01*
X167013080Y-121528359D01*
X166779731Y-121702412D01*
X166584822Y-121918645D01*
X166515195Y-122035534D01*
X166393475Y-121853368D01*
X166282454Y-121742347D01*
X167105545Y-120919256D01*
X167140226Y-120953937D01*
X167309744Y-121067205D01*
X167498102Y-121145226D01*
X167698061Y-121185000D01*
X167901939Y-121185000D01*
X168101898Y-121145226D01*
X168290256Y-121067205D01*
X168459774Y-120953937D01*
X168603937Y-120809774D01*
X168717205Y-120640256D01*
X168750000Y-120561082D01*
X168782795Y-120640256D01*
X168896063Y-120809774D01*
X169040226Y-120953937D01*
X169209744Y-121067205D01*
X169398102Y-121145226D01*
X169598061Y-121185000D01*
X169801939Y-121185000D01*
X170001898Y-121145226D01*
X170190256Y-121067205D01*
X170359774Y-120953937D01*
X170403711Y-120910000D01*
X172596289Y-120910000D01*
X172740226Y-121053937D01*
X172909744Y-121167205D01*
X173098102Y-121245226D01*
X173298061Y-121285000D01*
X173501939Y-121285000D01*
X173701898Y-121245226D01*
X173890256Y-121167205D01*
X174059774Y-121053937D01*
X174203937Y-120909774D01*
X174317205Y-120740256D01*
X174395226Y-120551898D01*
X174435000Y-120351939D01*
X174435000Y-120189799D01*
X174448102Y-120195226D01*
X174648061Y-120235000D01*
X174851939Y-120235000D01*
X175051898Y-120195226D01*
X175240256Y-120117205D01*
X175409774Y-120003937D01*
X175490000Y-119923711D01*
X175489999Y-121315000D01*
X175253740Y-121315000D01*
X174966842Y-121372068D01*
X174696589Y-121484010D01*
X174453368Y-121646525D01*
X174246525Y-121853368D01*
X174130000Y-122027760D01*
X174013475Y-121853368D01*
X173806632Y-121646525D01*
X173563411Y-121484010D01*
X173293158Y-121372068D01*
X173006260Y-121315000D01*
X172713740Y-121315000D01*
X172426842Y-121372068D01*
X172156589Y-121484010D01*
X171913368Y-121646525D01*
X171706525Y-121853368D01*
X171590000Y-122027760D01*
X171473475Y-121853368D01*
X171266632Y-121646525D01*
X171023411Y-121484010D01*
X170753158Y-121372068D01*
X170466260Y-121315000D01*
X170173740Y-121315000D01*
X169886842Y-121372068D01*
X169616589Y-121484010D01*
X169373368Y-121646525D01*
X169166525Y-121853368D01*
X169044805Y-122035534D01*
X168975178Y-121918645D01*
X168780269Y-121702412D01*
X168546920Y-121528359D01*
X168284099Y-121403175D01*
X168136890Y-121358524D01*
X167907000Y-121479845D01*
X167907000Y-122673000D01*
X167927000Y-122673000D01*
X167927000Y-122927000D01*
X167907000Y-122927000D01*
X167907000Y-124120155D01*
X168136890Y-124241476D01*
X168284099Y-124196825D01*
X168546920Y-124071641D01*
X168780269Y-123897588D01*
X168975178Y-123681355D01*
X169044805Y-123564466D01*
X169166525Y-123746632D01*
X169373368Y-123953475D01*
X169616589Y-124115990D01*
X169886842Y-124227932D01*
X170173740Y-124285000D01*
X170466260Y-124285000D01*
X170753158Y-124227932D01*
X171023411Y-124115990D01*
X171266632Y-123953475D01*
X171473475Y-123746632D01*
X171590000Y-123572240D01*
X171706525Y-123746632D01*
X171913368Y-123953475D01*
X172156589Y-124115990D01*
X172426842Y-124227932D01*
X172713740Y-124285000D01*
X173006260Y-124285000D01*
X173293158Y-124227932D01*
X173563411Y-124115990D01*
X173806632Y-123953475D01*
X174013475Y-123746632D01*
X174130000Y-123572240D01*
X174246525Y-123746632D01*
X174453368Y-123953475D01*
X174696589Y-124115990D01*
X174966842Y-124227932D01*
X175253740Y-124285000D01*
X175546260Y-124285000D01*
X175833158Y-124227932D01*
X176103411Y-124115990D01*
X176346632Y-123953475D01*
X176553475Y-123746632D01*
X176670000Y-123572240D01*
X176786525Y-123746632D01*
X176993368Y-123953475D01*
X177236589Y-124115990D01*
X177506842Y-124227932D01*
X177793740Y-124285000D01*
X178086260Y-124285000D01*
X178373158Y-124227932D01*
X178643411Y-124115990D01*
X178886632Y-123953475D01*
X179093475Y-123746632D01*
X179210000Y-123572240D01*
X179326525Y-123746632D01*
X179533368Y-123953475D01*
X179776589Y-124115990D01*
X180046842Y-124227932D01*
X180333740Y-124285000D01*
X180626260Y-124285000D01*
X180913158Y-124227932D01*
X181183411Y-124115990D01*
X181426632Y-123953475D01*
X181633475Y-123746632D01*
X181755195Y-123564466D01*
X181824822Y-123681355D01*
X182019731Y-123897588D01*
X182253080Y-124071641D01*
X182515901Y-124196825D01*
X182663110Y-124241476D01*
X182893000Y-124120155D01*
X182893000Y-122927000D01*
X182873000Y-122927000D01*
X182873000Y-122673000D01*
X182893000Y-122673000D01*
X182893000Y-122653000D01*
X183147000Y-122653000D01*
X183147000Y-122673000D01*
X183167000Y-122673000D01*
X183167000Y-122927000D01*
X183147000Y-122927000D01*
X183147000Y-124120155D01*
X183376890Y-124241476D01*
X183524099Y-124196825D01*
X183786920Y-124071641D01*
X184020269Y-123897588D01*
X184215178Y-123681355D01*
X184284805Y-123564466D01*
X184406525Y-123746632D01*
X184613368Y-123953475D01*
X184856589Y-124115990D01*
X185126842Y-124227932D01*
X185413740Y-124285000D01*
X185706260Y-124285000D01*
X185993158Y-124227932D01*
X186263411Y-124115990D01*
X186506632Y-123953475D01*
X186713475Y-123746632D01*
X186835195Y-123564466D01*
X186904822Y-123681355D01*
X187099731Y-123897588D01*
X187333080Y-124071641D01*
X187595901Y-124196825D01*
X187743110Y-124241476D01*
X187973000Y-124120155D01*
X187973000Y-122927000D01*
X187953000Y-122927000D01*
X187953000Y-122673000D01*
X187973000Y-122673000D01*
X187973000Y-122653000D01*
X188227000Y-122653000D01*
X188227000Y-122673000D01*
X188247000Y-122673000D01*
X188247000Y-122927000D01*
X188227000Y-122927000D01*
X188227000Y-124120155D01*
X188456890Y-124241476D01*
X188604099Y-124196825D01*
X188866920Y-124071641D01*
X189100269Y-123897588D01*
X189295178Y-123681355D01*
X189364805Y-123564466D01*
X189486525Y-123746632D01*
X189693368Y-123953475D01*
X189936589Y-124115990D01*
X190206842Y-124227932D01*
X190493740Y-124285000D01*
X190786260Y-124285000D01*
X191073158Y-124227932D01*
X191343411Y-124115990D01*
X191586632Y-123953475D01*
X191793475Y-123746632D01*
X191955990Y-123503411D01*
X192067932Y-123233158D01*
X192125000Y-122946260D01*
X192125000Y-122653740D01*
X192067932Y-122366842D01*
X191955990Y-122096589D01*
X191793475Y-121853368D01*
X191586632Y-121646525D01*
X191343411Y-121484010D01*
X191073158Y-121372068D01*
X190786260Y-121315000D01*
X190493740Y-121315000D01*
X190273592Y-121358790D01*
X189253793Y-120338992D01*
X189229990Y-120309988D01*
X189114265Y-120215015D01*
X188982236Y-120144443D01*
X188838975Y-120100986D01*
X188727322Y-120089989D01*
X188727311Y-120089989D01*
X188689989Y-120086313D01*
X188652667Y-120089989D01*
X186250566Y-120089989D01*
X186317205Y-119990256D01*
X186395226Y-119801898D01*
X186435000Y-119601939D01*
X186435000Y-119398061D01*
X186409879Y-119271766D01*
X186435365Y-119274276D01*
X186600000Y-119290491D01*
X186655752Y-119285000D01*
X200279869Y-119285000D01*
X202458013Y-121463146D01*
X202493551Y-121506449D01*
X202536854Y-121541987D01*
X202536856Y-121541989D01*
X202666377Y-121648284D01*
X202863553Y-121753676D01*
X203077501Y-121818577D01*
X203300000Y-121840491D01*
X203355752Y-121835000D01*
X203750971Y-121835000D01*
X203832661Y-121987833D01*
X203958650Y-122141350D01*
X204073000Y-122235195D01*
X204073000Y-124450000D01*
X204075440Y-124474776D01*
X204082667Y-124498601D01*
X204094403Y-124520557D01*
X204110197Y-124539803D01*
X204129443Y-124555597D01*
X204151399Y-124567333D01*
X204175224Y-124574560D01*
X204200000Y-124577000D01*
X212050000Y-124577000D01*
X212074776Y-124574560D01*
X212098601Y-124567333D01*
X212120557Y-124555597D01*
X212139803Y-124539803D01*
X212155597Y-124520557D01*
X212167333Y-124498601D01*
X212174560Y-124474776D01*
X212177000Y-124450000D01*
X212177000Y-124200000D01*
X214511928Y-124200000D01*
X214524188Y-124324482D01*
X214560498Y-124444180D01*
X214619463Y-124554494D01*
X214698815Y-124651185D01*
X214795506Y-124730537D01*
X214905820Y-124789502D01*
X215025518Y-124825812D01*
X215150000Y-124838072D01*
X215764250Y-124835000D01*
X215923000Y-124676250D01*
X215923000Y-123077000D01*
X216177000Y-123077000D01*
X216177000Y-124676250D01*
X216335750Y-124835000D01*
X216950000Y-124838072D01*
X217074482Y-124825812D01*
X217194180Y-124789502D01*
X217304494Y-124730537D01*
X217401185Y-124651185D01*
X217480537Y-124554494D01*
X217539502Y-124444180D01*
X217575812Y-124324482D01*
X217588072Y-124200000D01*
X217585000Y-123235750D01*
X217426250Y-123077000D01*
X216177000Y-123077000D01*
X215923000Y-123077000D01*
X214673750Y-123077000D01*
X214515000Y-123235750D01*
X214511928Y-124200000D01*
X212177000Y-124200000D01*
X212177000Y-122326580D01*
X212287833Y-122267339D01*
X212441350Y-122141350D01*
X212567339Y-121987833D01*
X212660956Y-121812686D01*
X212695139Y-121700000D01*
X214511928Y-121700000D01*
X214515000Y-122664250D01*
X214673750Y-122823000D01*
X215923000Y-122823000D01*
X215923000Y-121223750D01*
X216177000Y-121223750D01*
X216177000Y-122823000D01*
X217426250Y-122823000D01*
X217585000Y-122664250D01*
X217588072Y-121700000D01*
X217575812Y-121575518D01*
X217539502Y-121455820D01*
X217480537Y-121345506D01*
X217401185Y-121248815D01*
X217304494Y-121169463D01*
X217194180Y-121110498D01*
X217074482Y-121074188D01*
X216950000Y-121061928D01*
X216335750Y-121065000D01*
X216177000Y-121223750D01*
X215923000Y-121223750D01*
X215764250Y-121065000D01*
X215150000Y-121061928D01*
X215025518Y-121074188D01*
X214905820Y-121110498D01*
X214795506Y-121169463D01*
X214698815Y-121248815D01*
X214619463Y-121345506D01*
X214560498Y-121455820D01*
X214524188Y-121575518D01*
X214511928Y-121700000D01*
X212695139Y-121700000D01*
X212696740Y-121694724D01*
X212783623Y-121648284D01*
X212956449Y-121506449D01*
X212991995Y-121463136D01*
X214370133Y-120085000D01*
X214511928Y-120085000D01*
X214511928Y-120200000D01*
X214524188Y-120324482D01*
X214560498Y-120444180D01*
X214619463Y-120554494D01*
X214698815Y-120651185D01*
X214795506Y-120730537D01*
X214905820Y-120789502D01*
X215025518Y-120825812D01*
X215150000Y-120838072D01*
X216950000Y-120838072D01*
X217074482Y-120825812D01*
X217194180Y-120789502D01*
X217304494Y-120730537D01*
X217401185Y-120651185D01*
X217480537Y-120554494D01*
X217539502Y-120444180D01*
X217575812Y-120324482D01*
X217588072Y-120200000D01*
X217588072Y-117700000D01*
X217575812Y-117575518D01*
X217539502Y-117455820D01*
X217480537Y-117345506D01*
X217401185Y-117248815D01*
X217304494Y-117169463D01*
X217194180Y-117110498D01*
X217074482Y-117074188D01*
X216950000Y-117061928D01*
X215150000Y-117061928D01*
X215025518Y-117074188D01*
X214905820Y-117110498D01*
X214795506Y-117169463D01*
X214698815Y-117248815D01*
X214619463Y-117345506D01*
X214560498Y-117455820D01*
X214524188Y-117575518D01*
X214511928Y-117700000D01*
X214511928Y-117815000D01*
X213955752Y-117815000D01*
X213900000Y-117809509D01*
X213677501Y-117831423D01*
X213463553Y-117896324D01*
X213266377Y-118001716D01*
X213136856Y-118108011D01*
X213136854Y-118108013D01*
X213093551Y-118143551D01*
X213058013Y-118186854D01*
X212173779Y-119071089D01*
X212151975Y-116848754D01*
X212149458Y-116824810D01*
X212142151Y-116801009D01*
X212130342Y-116779092D01*
X212127119Y-116775191D01*
X212194059Y-116739411D01*
X212328817Y-116628817D01*
X212356534Y-116595044D01*
X212486578Y-116465000D01*
X219411928Y-116465000D01*
X219424188Y-116589482D01*
X219460498Y-116709180D01*
X219519463Y-116819494D01*
X219598815Y-116916185D01*
X219695506Y-116995537D01*
X219805820Y-117054502D01*
X219925518Y-117090812D01*
X220050000Y-117103072D01*
X220664250Y-117100000D01*
X220823000Y-116941250D01*
X220823000Y-115692000D01*
X221077000Y-115692000D01*
X221077000Y-116941250D01*
X221235750Y-117100000D01*
X221850000Y-117103072D01*
X221974482Y-117090812D01*
X222094180Y-117054502D01*
X222204494Y-116995537D01*
X222301185Y-116916185D01*
X222380537Y-116819494D01*
X222439502Y-116709180D01*
X222475812Y-116589482D01*
X222488072Y-116465000D01*
X222485000Y-115850750D01*
X222326250Y-115692000D01*
X221077000Y-115692000D01*
X220823000Y-115692000D01*
X219573750Y-115692000D01*
X219415000Y-115850750D01*
X219411928Y-116465000D01*
X212486578Y-116465000D01*
X212981716Y-115969863D01*
X213015483Y-115942151D01*
X213126077Y-115807393D01*
X213208255Y-115653647D01*
X213258861Y-115486824D01*
X213271666Y-115356811D01*
X213271666Y-115356801D01*
X213275947Y-115313335D01*
X213271666Y-115269869D01*
X213271666Y-114788454D01*
X213303871Y-114740256D01*
X213335043Y-114665000D01*
X219411928Y-114665000D01*
X219415000Y-115279250D01*
X219573750Y-115438000D01*
X220823000Y-115438000D01*
X220823000Y-114188750D01*
X221077000Y-114188750D01*
X221077000Y-115438000D01*
X222326250Y-115438000D01*
X222352897Y-115411353D01*
X223190000Y-115411353D01*
X223190000Y-115718647D01*
X223249950Y-116020035D01*
X223367546Y-116303937D01*
X223538269Y-116559442D01*
X223755558Y-116776731D01*
X224011063Y-116947454D01*
X224294965Y-117065050D01*
X224596353Y-117125000D01*
X224903647Y-117125000D01*
X225205035Y-117065050D01*
X225488937Y-116947454D01*
X225744442Y-116776731D01*
X225961731Y-116559442D01*
X226132454Y-116303937D01*
X226250050Y-116020035D01*
X226310000Y-115718647D01*
X226310000Y-115411353D01*
X226250050Y-115109965D01*
X226132454Y-114826063D01*
X225961731Y-114570558D01*
X225744442Y-114353269D01*
X225488937Y-114182546D01*
X225205035Y-114064950D01*
X224903647Y-114005000D01*
X224596353Y-114005000D01*
X224294965Y-114064950D01*
X224011063Y-114182546D01*
X223755558Y-114353269D01*
X223538269Y-114570558D01*
X223367546Y-114826063D01*
X223249950Y-115109965D01*
X223190000Y-115411353D01*
X222352897Y-115411353D01*
X222485000Y-115279250D01*
X222488072Y-114665000D01*
X222475812Y-114540518D01*
X222439502Y-114420820D01*
X222380537Y-114310506D01*
X222301185Y-114213815D01*
X222204494Y-114134463D01*
X222094180Y-114075498D01*
X221974482Y-114039188D01*
X221850000Y-114026928D01*
X221235750Y-114030000D01*
X221077000Y-114188750D01*
X220823000Y-114188750D01*
X220664250Y-114030000D01*
X220050000Y-114026928D01*
X219925518Y-114039188D01*
X219805820Y-114075498D01*
X219695506Y-114134463D01*
X219598815Y-114213815D01*
X219519463Y-114310506D01*
X219460498Y-114420820D01*
X219424188Y-114540518D01*
X219411928Y-114665000D01*
X213335043Y-114665000D01*
X213381892Y-114551898D01*
X213421666Y-114351939D01*
X213421666Y-114148061D01*
X213381892Y-113948102D01*
X213303871Y-113759744D01*
X213190603Y-113590226D01*
X213046440Y-113446063D01*
X212876922Y-113332795D01*
X212688564Y-113254774D01*
X212488605Y-113215000D01*
X212284727Y-113215000D01*
X212084768Y-113254774D01*
X211896410Y-113332795D01*
X211726892Y-113446063D01*
X211582729Y-113590226D01*
X211469461Y-113759744D01*
X211391440Y-113948102D01*
X211351666Y-114148061D01*
X211351666Y-114351939D01*
X211391440Y-114551898D01*
X211469461Y-114740256D01*
X211501666Y-114788455D01*
X211501666Y-114946755D01*
X211333422Y-115115000D01*
X204620129Y-115115000D01*
X204576663Y-115110719D01*
X204533197Y-115115000D01*
X204533187Y-115115000D01*
X204403174Y-115127805D01*
X204236351Y-115178411D01*
X204082605Y-115260589D01*
X204082603Y-115260590D01*
X204082604Y-115260590D01*
X203981617Y-115343468D01*
X203981615Y-115343470D01*
X203947847Y-115371183D01*
X203920134Y-115404951D01*
X203154951Y-116170135D01*
X203121184Y-116197847D01*
X203093471Y-116231615D01*
X203093468Y-116231618D01*
X203010590Y-116332605D01*
X202928412Y-116486351D01*
X202877805Y-116653174D01*
X202860719Y-116826664D01*
X202865001Y-116870143D01*
X202865000Y-118659868D01*
X202685000Y-118479868D01*
X202685000Y-115038454D01*
X202717205Y-114990256D01*
X202795226Y-114801898D01*
X202835000Y-114601939D01*
X202835000Y-114398061D01*
X202795226Y-114198102D01*
X202717205Y-114009744D01*
X202603937Y-113840226D01*
X202459774Y-113696063D01*
X202290256Y-113582795D01*
X202101898Y-113504774D01*
X201901939Y-113465000D01*
X201698061Y-113465000D01*
X201498102Y-113504774D01*
X201309744Y-113582795D01*
X201140226Y-113696063D01*
X200996063Y-113840226D01*
X200882795Y-114009744D01*
X200804774Y-114198102D01*
X200765000Y-114398061D01*
X200765000Y-114601939D01*
X200804774Y-114801898D01*
X200882795Y-114990256D01*
X200915000Y-115038454D01*
X200915000Y-115109161D01*
X200915001Y-115109171D01*
X200915001Y-117025760D01*
X200805752Y-117015000D01*
X200805751Y-117015000D01*
X200750000Y-117009509D01*
X200694249Y-117015000D01*
X199510539Y-117015000D01*
X199727095Y-116925299D01*
X199978505Y-116757312D01*
X200192312Y-116543505D01*
X200360299Y-116292095D01*
X200476011Y-116012743D01*
X200535000Y-115716184D01*
X200535000Y-115413816D01*
X200476011Y-115117257D01*
X200360299Y-114837905D01*
X200192312Y-114586495D01*
X199978505Y-114372688D01*
X199727095Y-114204701D01*
X199447743Y-114088989D01*
X199151184Y-114030000D01*
X198848816Y-114030000D01*
X198552257Y-114088989D01*
X198272905Y-114204701D01*
X198021495Y-114372688D01*
X197807688Y-114586495D01*
X197639701Y-114837905D01*
X197523989Y-115117257D01*
X197465000Y-115413816D01*
X197465000Y-115716184D01*
X197523989Y-116012743D01*
X197639701Y-116292095D01*
X197807688Y-116543505D01*
X198021495Y-116757312D01*
X198272905Y-116925299D01*
X198489461Y-117015000D01*
X196418082Y-117015000D01*
X196454494Y-116995537D01*
X196551185Y-116916185D01*
X196630537Y-116819494D01*
X196689502Y-116709180D01*
X196725812Y-116589482D01*
X196738072Y-116465000D01*
X196738072Y-114665000D01*
X196725812Y-114540518D01*
X196689502Y-114420820D01*
X196630537Y-114310506D01*
X196551185Y-114213815D01*
X196454494Y-114134463D01*
X196344180Y-114075498D01*
X196224482Y-114039188D01*
X196100000Y-114026928D01*
X194300000Y-114026928D01*
X194175518Y-114039188D01*
X194055820Y-114075498D01*
X193945506Y-114134463D01*
X193848815Y-114213815D01*
X193769463Y-114310506D01*
X193710498Y-114420820D01*
X193674188Y-114540518D01*
X193661928Y-114665000D01*
X193661928Y-116465000D01*
X193674188Y-116589482D01*
X193710498Y-116709180D01*
X193769463Y-116819494D01*
X193848815Y-116916185D01*
X193945506Y-116995537D01*
X193981918Y-117015000D01*
X187070133Y-117015000D01*
X184813143Y-114758012D01*
X184683622Y-114651717D01*
X184486446Y-114546324D01*
X184272498Y-114481423D01*
X184050000Y-114459509D01*
X183827502Y-114481423D01*
X183613554Y-114546324D01*
X183416378Y-114651717D01*
X183339268Y-114715000D01*
X180866579Y-114715000D01*
X178999640Y-112848061D01*
X202815000Y-112848061D01*
X202815000Y-113051939D01*
X202854774Y-113251898D01*
X202932795Y-113440256D01*
X203046063Y-113609774D01*
X203190226Y-113753937D01*
X203359744Y-113867205D01*
X203548102Y-113945226D01*
X203748061Y-113985000D01*
X203951939Y-113985000D01*
X204151898Y-113945226D01*
X204340256Y-113867205D01*
X204509774Y-113753937D01*
X204553711Y-113710000D01*
X207012678Y-113710000D01*
X207050000Y-113713676D01*
X207087322Y-113710000D01*
X207087333Y-113710000D01*
X207198986Y-113699003D01*
X207342247Y-113655546D01*
X207474276Y-113584974D01*
X207590001Y-113490001D01*
X207613804Y-113460997D01*
X208289802Y-112785000D01*
X208351939Y-112785000D01*
X208551898Y-112745226D01*
X208740256Y-112667205D01*
X208909774Y-112553937D01*
X209053937Y-112409774D01*
X209167205Y-112240256D01*
X209245226Y-112051898D01*
X209285000Y-111851939D01*
X209285000Y-111648061D01*
X209245226Y-111448102D01*
X209167205Y-111259744D01*
X209053937Y-111090226D01*
X209010000Y-111046289D01*
X209010000Y-110289803D01*
X209674887Y-109624916D01*
X223680000Y-109624916D01*
X223680000Y-109875084D01*
X223728805Y-110120445D01*
X223824541Y-110351571D01*
X223963527Y-110559578D01*
X224140422Y-110736473D01*
X224348429Y-110875459D01*
X224579555Y-110971195D01*
X224824916Y-111020000D01*
X225075084Y-111020000D01*
X225320445Y-110971195D01*
X225551571Y-110875459D01*
X225759578Y-110736473D01*
X225936473Y-110559578D01*
X226075459Y-110351571D01*
X226171195Y-110120445D01*
X226220000Y-109875084D01*
X226220000Y-109624916D01*
X226171195Y-109379555D01*
X226075459Y-109148429D01*
X225936473Y-108940422D01*
X225759578Y-108763527D01*
X225551571Y-108624541D01*
X225320445Y-108528805D01*
X225075084Y-108480000D01*
X224824916Y-108480000D01*
X224579555Y-108528805D01*
X224348429Y-108624541D01*
X224140422Y-108763527D01*
X223963527Y-108940422D01*
X223824541Y-109148429D01*
X223728805Y-109379555D01*
X223680000Y-109624916D01*
X209674887Y-109624916D01*
X210114812Y-109184992D01*
X210176949Y-109184992D01*
X210376908Y-109145218D01*
X210565266Y-109067197D01*
X210734784Y-108953929D01*
X210878947Y-108809766D01*
X210992215Y-108640248D01*
X211070236Y-108451890D01*
X211110010Y-108251931D01*
X211110010Y-108048053D01*
X211105408Y-108024916D01*
X218580000Y-108024916D01*
X218580000Y-108275084D01*
X218628805Y-108520445D01*
X218724541Y-108751571D01*
X218863527Y-108959578D01*
X219040422Y-109136473D01*
X219248429Y-109275459D01*
X219479555Y-109371195D01*
X219724916Y-109420000D01*
X219975084Y-109420000D01*
X220220445Y-109371195D01*
X220451571Y-109275459D01*
X220659578Y-109136473D01*
X220836473Y-108959578D01*
X220975459Y-108751571D01*
X221071195Y-108520445D01*
X221120000Y-108275084D01*
X221120000Y-108024916D01*
X221071195Y-107779555D01*
X220975459Y-107548429D01*
X220836473Y-107340422D01*
X220659578Y-107163527D01*
X220451571Y-107024541D01*
X220220445Y-106928805D01*
X219975084Y-106880000D01*
X219724916Y-106880000D01*
X219479555Y-106928805D01*
X219248429Y-107024541D01*
X219040422Y-107163527D01*
X218863527Y-107340422D01*
X218724541Y-107548429D01*
X218628805Y-107779555D01*
X218580000Y-108024916D01*
X211105408Y-108024916D01*
X211070236Y-107848094D01*
X210992215Y-107659736D01*
X210878947Y-107490218D01*
X210734784Y-107346055D01*
X210565266Y-107232787D01*
X210376908Y-107154766D01*
X210176949Y-107114992D01*
X209973071Y-107114992D01*
X209773112Y-107154766D01*
X209584754Y-107232787D01*
X209415236Y-107346055D01*
X209271073Y-107490218D01*
X209157805Y-107659736D01*
X209079784Y-107848094D01*
X209040010Y-108048053D01*
X209040010Y-108110190D01*
X207738998Y-109411203D01*
X207710000Y-109435001D01*
X207686202Y-109463999D01*
X207686201Y-109464000D01*
X207615026Y-109550726D01*
X207544454Y-109682756D01*
X207523700Y-109751177D01*
X207500998Y-109826016D01*
X207491052Y-109927000D01*
X207486324Y-109975002D01*
X207490001Y-110012334D01*
X207490000Y-111046289D01*
X207446063Y-111090226D01*
X207332795Y-111259744D01*
X207254774Y-111448102D01*
X207215000Y-111648061D01*
X207215000Y-111710198D01*
X206735199Y-112190000D01*
X204553711Y-112190000D01*
X204509774Y-112146063D01*
X204340256Y-112032795D01*
X204151898Y-111954774D01*
X203951939Y-111915000D01*
X203748061Y-111915000D01*
X203548102Y-111954774D01*
X203359744Y-112032795D01*
X203190226Y-112146063D01*
X203046063Y-112290226D01*
X202932795Y-112459744D01*
X202854774Y-112648102D01*
X202815000Y-112848061D01*
X178999640Y-112848061D01*
X177485000Y-111333422D01*
X177485000Y-110500000D01*
X177936928Y-110500000D01*
X177949188Y-110624482D01*
X177985498Y-110744180D01*
X178044463Y-110854494D01*
X178123815Y-110951185D01*
X178220506Y-111030537D01*
X178330820Y-111089502D01*
X178450518Y-111125812D01*
X178575000Y-111138072D01*
X178776750Y-111135000D01*
X178935500Y-110976250D01*
X178935500Y-109927000D01*
X178098750Y-109927000D01*
X177940000Y-110085750D01*
X177936928Y-110500000D01*
X177485000Y-110500000D01*
X177485000Y-109100000D01*
X177936928Y-109100000D01*
X177940000Y-109514250D01*
X178098750Y-109673000D01*
X178935500Y-109673000D01*
X178935500Y-108623750D01*
X178776750Y-108465000D01*
X178575000Y-108461928D01*
X178450518Y-108474188D01*
X178330820Y-108510498D01*
X178220506Y-108569463D01*
X178123815Y-108648815D01*
X178044463Y-108745506D01*
X177985498Y-108855820D01*
X177949188Y-108975518D01*
X177936928Y-109100000D01*
X177485000Y-109100000D01*
X177485000Y-107888454D01*
X177517205Y-107840256D01*
X177595226Y-107651898D01*
X177635000Y-107451939D01*
X177635000Y-107248061D01*
X177595226Y-107048102D01*
X177517205Y-106859744D01*
X177403937Y-106690226D01*
X177259774Y-106546063D01*
X177090256Y-106432795D01*
X176901898Y-106354774D01*
X176701939Y-106315000D01*
X176498061Y-106315000D01*
X176298102Y-106354774D01*
X176109744Y-106432795D01*
X175940226Y-106546063D01*
X175796063Y-106690226D01*
X175682795Y-106859744D01*
X175604774Y-107048102D01*
X175593465Y-107104956D01*
X172333422Y-110365000D01*
X167538446Y-110365000D01*
X167490248Y-110332795D01*
X167301890Y-110254774D01*
X167101931Y-110215000D01*
X166985011Y-110215000D01*
X166985011Y-106337344D01*
X166988688Y-106300011D01*
X166979823Y-106209999D01*
X166974014Y-106151025D01*
X166930557Y-106007764D01*
X166859985Y-105875735D01*
X166765012Y-105760010D01*
X166736009Y-105736208D01*
X166488804Y-105489003D01*
X166465001Y-105459999D01*
X166349276Y-105365026D01*
X166217247Y-105294454D01*
X166150382Y-105274171D01*
X166136211Y-105260000D01*
X169087470Y-105260000D01*
X169003750Y-105416629D01*
X168939307Y-105629069D01*
X168917547Y-105850000D01*
X168917547Y-108350000D01*
X168939307Y-108570931D01*
X169003750Y-108783371D01*
X169108400Y-108979157D01*
X169249235Y-109150765D01*
X169420843Y-109291600D01*
X169616629Y-109396250D01*
X169829069Y-109460693D01*
X170050000Y-109482453D01*
X172550000Y-109482453D01*
X172770931Y-109460693D01*
X172983371Y-109396250D01*
X173179157Y-109291600D01*
X173350765Y-109150765D01*
X173491600Y-108979157D01*
X173596250Y-108783371D01*
X173660693Y-108570931D01*
X173682453Y-108350000D01*
X173682453Y-105850000D01*
X173660693Y-105629069D01*
X173596250Y-105416629D01*
X173512530Y-105260000D01*
X179208199Y-105260000D01*
X180177500Y-106229302D01*
X180177501Y-108632155D01*
X180070208Y-108720208D01*
X180064992Y-108726564D01*
X180001185Y-108648815D01*
X179904494Y-108569463D01*
X179794180Y-108510498D01*
X179674482Y-108474188D01*
X179550000Y-108461928D01*
X179348250Y-108465000D01*
X179189500Y-108623750D01*
X179189500Y-109673000D01*
X179209500Y-109673000D01*
X179209500Y-109927000D01*
X179189500Y-109927000D01*
X179189500Y-110976250D01*
X179348250Y-111135000D01*
X179550000Y-111138072D01*
X179674482Y-111125812D01*
X179794180Y-111089502D01*
X179904494Y-111030537D01*
X180001185Y-110951185D01*
X180064992Y-110873436D01*
X180070208Y-110879792D01*
X180203836Y-110989458D01*
X180356291Y-111070947D01*
X180521715Y-111121128D01*
X180693750Y-111138072D01*
X181181250Y-111138072D01*
X181353285Y-111121128D01*
X181518709Y-111070947D01*
X181671164Y-110989458D01*
X181804792Y-110879792D01*
X181914458Y-110746164D01*
X181995947Y-110593709D01*
X182024373Y-110500000D01*
X185936928Y-110500000D01*
X185949188Y-110624482D01*
X185985498Y-110744180D01*
X186044463Y-110854494D01*
X186123815Y-110951185D01*
X186220506Y-111030537D01*
X186330820Y-111089502D01*
X186450518Y-111125812D01*
X186575000Y-111138072D01*
X186776750Y-111135000D01*
X186935500Y-110976250D01*
X186935500Y-109927000D01*
X186098750Y-109927000D01*
X185940000Y-110085750D01*
X185936928Y-110500000D01*
X182024373Y-110500000D01*
X182046128Y-110428285D01*
X182063072Y-110256250D01*
X182063072Y-109343750D01*
X182046128Y-109171715D01*
X182024374Y-109100000D01*
X185936928Y-109100000D01*
X185940000Y-109514250D01*
X186098750Y-109673000D01*
X186935500Y-109673000D01*
X186935500Y-108623750D01*
X186776750Y-108465000D01*
X186575000Y-108461928D01*
X186450518Y-108474188D01*
X186330820Y-108510498D01*
X186220506Y-108569463D01*
X186123815Y-108648815D01*
X186044463Y-108745506D01*
X185985498Y-108855820D01*
X185949188Y-108975518D01*
X185936928Y-109100000D01*
X182024374Y-109100000D01*
X181995947Y-109006291D01*
X181914458Y-108853836D01*
X181804792Y-108720208D01*
X181697500Y-108632155D01*
X181697500Y-105951822D01*
X181701176Y-105914499D01*
X181697500Y-105877176D01*
X181697500Y-105877167D01*
X181686503Y-105765514D01*
X181643046Y-105622253D01*
X181628193Y-105594465D01*
X181572474Y-105490223D01*
X181501299Y-105403497D01*
X181477501Y-105374499D01*
X181448504Y-105350702D01*
X180307801Y-104210000D01*
X187385199Y-104210000D01*
X188177501Y-105002303D01*
X188177500Y-108632155D01*
X188070208Y-108720208D01*
X188064992Y-108726564D01*
X188001185Y-108648815D01*
X187904494Y-108569463D01*
X187794180Y-108510498D01*
X187674482Y-108474188D01*
X187550000Y-108461928D01*
X187348250Y-108465000D01*
X187189500Y-108623750D01*
X187189500Y-109673000D01*
X187209500Y-109673000D01*
X187209500Y-109927000D01*
X187189500Y-109927000D01*
X187189500Y-110976250D01*
X187348250Y-111135000D01*
X187550000Y-111138072D01*
X187674482Y-111125812D01*
X187794180Y-111089502D01*
X187904494Y-111030537D01*
X188001185Y-110951185D01*
X188064992Y-110873436D01*
X188070208Y-110879792D01*
X188203836Y-110989458D01*
X188356291Y-111070947D01*
X188521715Y-111121128D01*
X188693750Y-111138072D01*
X189181250Y-111138072D01*
X189353285Y-111121128D01*
X189518709Y-111070947D01*
X189671164Y-110989458D01*
X189804792Y-110879792D01*
X189914458Y-110746164D01*
X189995947Y-110593709D01*
X190046128Y-110428285D01*
X190063072Y-110256250D01*
X190063072Y-109343750D01*
X190046128Y-109171715D01*
X189995947Y-109006291D01*
X189914458Y-108853836D01*
X189804792Y-108720208D01*
X189697500Y-108632155D01*
X189697500Y-105850000D01*
X194367547Y-105850000D01*
X194367547Y-108350000D01*
X194389307Y-108570931D01*
X194453750Y-108783371D01*
X194558400Y-108979157D01*
X194699235Y-109150765D01*
X194870843Y-109291600D01*
X195066629Y-109396250D01*
X195279069Y-109460693D01*
X195500000Y-109482453D01*
X198000000Y-109482453D01*
X198220931Y-109460693D01*
X198433371Y-109396250D01*
X198629157Y-109291600D01*
X198800765Y-109150765D01*
X198941600Y-108979157D01*
X199046250Y-108783371D01*
X199110693Y-108570931D01*
X199132453Y-108350000D01*
X199132453Y-105850000D01*
X199110693Y-105629069D01*
X199046250Y-105416629D01*
X198941600Y-105220843D01*
X198800765Y-105049235D01*
X198629157Y-104908400D01*
X198433371Y-104803750D01*
X198220931Y-104739307D01*
X198000000Y-104717547D01*
X195500000Y-104717547D01*
X195279069Y-104739307D01*
X195066629Y-104803750D01*
X194870843Y-104908400D01*
X194699235Y-105049235D01*
X194558400Y-105220843D01*
X194453750Y-105416629D01*
X194389307Y-105629069D01*
X194367547Y-105850000D01*
X189697500Y-105850000D01*
X189697500Y-104724822D01*
X189701176Y-104687499D01*
X189697500Y-104650176D01*
X189697500Y-104650167D01*
X189686503Y-104538514D01*
X189643046Y-104395253D01*
X189572474Y-104263224D01*
X189477501Y-104147499D01*
X189448503Y-104123701D01*
X188263804Y-102939003D01*
X188240001Y-102909999D01*
X188124276Y-102815026D01*
X187992247Y-102744454D01*
X187848986Y-102700997D01*
X187737333Y-102690000D01*
X187737322Y-102690000D01*
X187700000Y-102686324D01*
X187662678Y-102690000D01*
X164837325Y-102690000D01*
X164800000Y-102686324D01*
X164762675Y-102690000D01*
X164762667Y-102690000D01*
X164651014Y-102700997D01*
X164507753Y-102744454D01*
X164375724Y-102815026D01*
X164259999Y-102909999D01*
X164236201Y-102938997D01*
X163460199Y-103715000D01*
X163398061Y-103715000D01*
X163198102Y-103754774D01*
X163009744Y-103832795D01*
X162840226Y-103946063D01*
X162696063Y-104090226D01*
X162582795Y-104259744D01*
X162504774Y-104448102D01*
X162465000Y-104648061D01*
X162465000Y-104851939D01*
X162504774Y-105051898D01*
X162582795Y-105240256D01*
X162696063Y-105409774D01*
X162840226Y-105553937D01*
X163009744Y-105667205D01*
X163198102Y-105745226D01*
X163240001Y-105753560D01*
X163240000Y-107046289D01*
X163196063Y-107090226D01*
X163082795Y-107259744D01*
X163004774Y-107448102D01*
X162965000Y-107648061D01*
X162965000Y-107851939D01*
X163004774Y-108051898D01*
X163082795Y-108240256D01*
X163196063Y-108409774D01*
X163340226Y-108553937D01*
X163509744Y-108667205D01*
X163698102Y-108745226D01*
X163898061Y-108785000D01*
X164101939Y-108785000D01*
X164301898Y-108745226D01*
X164490256Y-108667205D01*
X164659774Y-108553937D01*
X164803937Y-108409774D01*
X164917205Y-108240256D01*
X164995226Y-108051898D01*
X165035000Y-107851939D01*
X165035000Y-107648061D01*
X164995226Y-107448102D01*
X164917205Y-107259744D01*
X164803937Y-107090226D01*
X164760000Y-107046289D01*
X164760000Y-106808797D01*
X164922244Y-106917205D01*
X165110602Y-106995226D01*
X165310561Y-107035000D01*
X165465011Y-107035000D01*
X165465011Y-108215000D01*
X165398071Y-108215000D01*
X165198112Y-108254774D01*
X165009754Y-108332795D01*
X164840236Y-108446063D01*
X164696073Y-108590226D01*
X164582805Y-108759744D01*
X164504784Y-108948102D01*
X164465010Y-109148061D01*
X164465010Y-109351939D01*
X164504784Y-109551898D01*
X164582805Y-109740256D01*
X164696073Y-109909774D01*
X164740011Y-109953712D01*
X164740010Y-111712687D01*
X164736334Y-111750010D01*
X164740010Y-111787332D01*
X164740010Y-111787342D01*
X164751007Y-111898995D01*
X164791594Y-112032795D01*
X164794464Y-112042256D01*
X164865036Y-112174286D01*
X164904881Y-112222836D01*
X164960009Y-112290011D01*
X164989012Y-112313813D01*
X165636212Y-112961013D01*
X165660010Y-112990012D01*
X165689008Y-113013810D01*
X165775734Y-113084985D01*
X165871550Y-113136200D01*
X165907764Y-113155557D01*
X166051025Y-113199014D01*
X166162678Y-113210011D01*
X166162688Y-113210011D01*
X166200011Y-113213687D01*
X166237334Y-113210011D01*
X168465000Y-113210011D01*
X168465000Y-113401939D01*
X168504774Y-113601898D01*
X168582795Y-113790256D01*
X168696063Y-113959774D01*
X168840226Y-114103937D01*
X169009744Y-114217205D01*
X169198102Y-114295226D01*
X169398061Y-114335000D01*
X169460199Y-114335000D01*
X169640210Y-114515011D01*
X169586518Y-114515011D01*
X169386559Y-114554785D01*
X169198201Y-114632806D01*
X169028683Y-114746074D01*
X168884520Y-114890237D01*
X168771252Y-115059755D01*
X168693231Y-115248113D01*
X168653457Y-115448072D01*
X168653457Y-115651950D01*
X168693231Y-115851909D01*
X168771252Y-116040267D01*
X168884520Y-116209785D01*
X169028683Y-116353948D01*
X169198201Y-116467216D01*
X169386559Y-116545237D01*
X169586518Y-116585011D01*
X169790396Y-116585011D01*
X169990355Y-116545237D01*
X170178713Y-116467216D01*
X170348231Y-116353948D01*
X170392168Y-116310011D01*
X173231036Y-116310011D01*
X173961025Y-117040000D01*
X161603711Y-117040000D01*
X161559774Y-116996063D01*
X161390256Y-116882795D01*
X161201898Y-116804774D01*
X161001939Y-116765000D01*
X160798061Y-116765000D01*
X160598102Y-116804774D01*
X160409744Y-116882795D01*
X160240226Y-116996063D01*
X160096063Y-117140226D01*
X159982795Y-117309744D01*
X159904774Y-117498102D01*
X159865000Y-117698061D01*
X159865000Y-117789989D01*
X159689801Y-117789989D01*
X158635000Y-116735189D01*
X158635000Y-116673051D01*
X158595226Y-116473092D01*
X158517205Y-116284734D01*
X158403937Y-116115216D01*
X158259774Y-115971053D01*
X158090256Y-115857785D01*
X157901898Y-115779764D01*
X157701939Y-115739990D01*
X157498061Y-115739990D01*
X157298102Y-115779764D01*
X157109744Y-115857785D01*
X156940226Y-115971053D01*
X156796063Y-116115216D01*
X156682795Y-116284734D01*
X156604774Y-116473092D01*
X156565000Y-116673051D01*
X156565000Y-116876929D01*
X156604774Y-117076888D01*
X156682795Y-117265246D01*
X156796063Y-117434764D01*
X156940226Y-117578927D01*
X157109744Y-117692195D01*
X157298102Y-117770216D01*
X157498061Y-117809990D01*
X157560199Y-117809990D01*
X158811200Y-119060992D01*
X158834998Y-119089990D01*
X158950723Y-119184963D01*
X159082752Y-119255535D01*
X159226013Y-119298992D01*
X159337666Y-119309989D01*
X159337674Y-119309989D01*
X159374999Y-119313665D01*
X159412324Y-119309989D01*
X160126300Y-119309989D01*
X160096063Y-119340226D01*
X159982795Y-119509744D01*
X159904774Y-119698102D01*
X159865000Y-119898061D01*
X159865000Y-120101939D01*
X159904774Y-120301898D01*
X159982795Y-120490256D01*
X160096063Y-120659774D01*
X160240226Y-120803937D01*
X160409744Y-120917205D01*
X160598102Y-120995226D01*
X160798061Y-121035000D01*
X161001939Y-121035000D01*
X161201898Y-120995226D01*
X161390256Y-120917205D01*
X161559774Y-120803937D01*
X161703937Y-120659774D01*
X161817205Y-120490256D01*
X161895226Y-120301898D01*
X161935000Y-120101939D01*
X161935000Y-120039801D01*
X162364802Y-119610000D01*
X166259998Y-119610000D01*
X166236201Y-119638997D01*
X164728998Y-121146201D01*
X164700000Y-121169999D01*
X164676202Y-121198997D01*
X164676201Y-121198998D01*
X164605026Y-121285724D01*
X164534454Y-121417754D01*
X164508705Y-121502642D01*
X164293368Y-121646525D01*
X164161513Y-121778380D01*
X164139502Y-121705820D01*
X164080537Y-121595506D01*
X164001185Y-121498815D01*
X163904494Y-121419463D01*
X163794180Y-121360498D01*
X163674482Y-121324188D01*
X163550000Y-121311928D01*
X161850000Y-121311928D01*
X161725518Y-121324188D01*
X161605820Y-121360498D01*
X161495506Y-121419463D01*
X161398815Y-121498815D01*
X161319463Y-121595506D01*
X161260498Y-121705820D01*
X161224188Y-121825518D01*
X161214482Y-121924065D01*
X161176510Y-121927805D01*
X161009687Y-121978411D01*
X160855941Y-122060589D01*
X160728716Y-122165001D01*
X158766580Y-122165001D01*
X157006535Y-120404957D01*
X156995226Y-120348102D01*
X156917205Y-120159744D01*
X156803937Y-119990226D01*
X156659774Y-119846063D01*
X156490256Y-119732795D01*
X156301898Y-119654774D01*
X156245044Y-119643465D01*
X155606534Y-119004956D01*
X155578817Y-118971183D01*
X155444059Y-118860589D01*
X155290313Y-118778411D01*
X155123490Y-118727805D01*
X154993477Y-118715000D01*
X154993469Y-118715000D01*
X154950000Y-118710719D01*
X154906531Y-118715000D01*
X147843465Y-118715000D01*
X147799999Y-118710719D01*
X147756533Y-118715000D01*
X147756523Y-118715000D01*
X147626510Y-118727805D01*
X147459687Y-118778411D01*
X147305941Y-118860589D01*
X147305939Y-118860590D01*
X147305940Y-118860590D01*
X147204953Y-118943468D01*
X147204951Y-118943470D01*
X147171183Y-118971183D01*
X147143470Y-119004951D01*
X146504957Y-119643465D01*
X146448102Y-119654774D01*
X146259744Y-119732795D01*
X146090226Y-119846063D01*
X145946063Y-119990226D01*
X145832795Y-120159744D01*
X145754774Y-120348102D01*
X145715000Y-120548061D01*
X140660000Y-120548061D01*
X140660000Y-109000000D01*
X144051928Y-109000000D01*
X144051928Y-111000000D01*
X144064188Y-111124482D01*
X144100498Y-111244180D01*
X144159463Y-111354494D01*
X144238815Y-111451185D01*
X144335506Y-111530537D01*
X144445820Y-111589502D01*
X144565518Y-111625812D01*
X144690000Y-111638072D01*
X146690000Y-111638072D01*
X146814482Y-111625812D01*
X146934180Y-111589502D01*
X147044494Y-111530537D01*
X147141185Y-111451185D01*
X147220537Y-111354494D01*
X147279502Y-111244180D01*
X147315812Y-111124482D01*
X147328072Y-111000000D01*
X147328072Y-109829117D01*
X147765000Y-109829117D01*
X147765000Y-110170883D01*
X147831675Y-110506081D01*
X147962463Y-110821831D01*
X148152337Y-111105998D01*
X148394002Y-111347663D01*
X148678169Y-111537537D01*
X148993919Y-111668325D01*
X149329117Y-111735000D01*
X149670883Y-111735000D01*
X150006081Y-111668325D01*
X150067912Y-111642714D01*
X150636201Y-112211003D01*
X150659999Y-112240001D01*
X150688997Y-112263799D01*
X150775723Y-112334974D01*
X150907753Y-112405546D01*
X151051014Y-112449003D01*
X151162667Y-112460000D01*
X151162676Y-112460000D01*
X151199999Y-112463676D01*
X151237322Y-112460000D01*
X161196289Y-112460000D01*
X161240226Y-112503937D01*
X161409744Y-112617205D01*
X161598102Y-112695226D01*
X161798061Y-112735000D01*
X162001939Y-112735000D01*
X162201898Y-112695226D01*
X162390256Y-112617205D01*
X162559774Y-112503937D01*
X162703937Y-112359774D01*
X162817205Y-112190256D01*
X162895226Y-112001898D01*
X162935000Y-111801939D01*
X162935000Y-111598061D01*
X162895226Y-111398102D01*
X162817205Y-111209744D01*
X162703937Y-111040226D01*
X162559774Y-110896063D01*
X162390256Y-110782795D01*
X162201898Y-110704774D01*
X162001939Y-110665000D01*
X161798061Y-110665000D01*
X161598102Y-110704774D01*
X161409744Y-110782795D01*
X161240226Y-110896063D01*
X161196289Y-110940000D01*
X158578579Y-110940000D01*
X158657537Y-110821831D01*
X158788325Y-110506081D01*
X158855000Y-110170883D01*
X158855000Y-109829117D01*
X158788325Y-109493919D01*
X158657537Y-109178169D01*
X158467663Y-108894002D01*
X158225998Y-108652337D01*
X157941831Y-108462463D01*
X157626081Y-108331675D01*
X157290883Y-108265000D01*
X156949117Y-108265000D01*
X156613919Y-108331675D01*
X156298169Y-108462463D01*
X156014002Y-108652337D01*
X155772337Y-108894002D01*
X155582463Y-109178169D01*
X155451675Y-109493919D01*
X155385000Y-109829117D01*
X155385000Y-110170883D01*
X155451675Y-110506081D01*
X155582463Y-110821831D01*
X155661421Y-110940000D01*
X154768579Y-110940000D01*
X154847537Y-110821831D01*
X154978325Y-110506081D01*
X155045000Y-110170883D01*
X155045000Y-109829117D01*
X154978325Y-109493919D01*
X154952714Y-109432088D01*
X157949803Y-106434999D01*
X159211928Y-106434999D01*
X159211928Y-107500000D01*
X159224188Y-107624482D01*
X159260498Y-107744180D01*
X159319463Y-107854494D01*
X159398815Y-107951185D01*
X159495506Y-108030537D01*
X159590001Y-108081046D01*
X159590001Y-108337635D01*
X159427726Y-108446063D01*
X159283563Y-108590226D01*
X159170295Y-108759744D01*
X159092274Y-108948102D01*
X159052500Y-109148061D01*
X159052500Y-109351939D01*
X159092274Y-109551898D01*
X159170295Y-109740256D01*
X159283563Y-109909774D01*
X159427726Y-110053937D01*
X159597244Y-110167205D01*
X159785602Y-110245226D01*
X159985561Y-110285000D01*
X160189439Y-110285000D01*
X160389398Y-110245226D01*
X160577756Y-110167205D01*
X160747274Y-110053937D01*
X160891437Y-109909774D01*
X161004705Y-109740256D01*
X161082726Y-109551898D01*
X161122500Y-109351939D01*
X161122500Y-109148061D01*
X161106022Y-109065220D01*
X161110000Y-109024833D01*
X161110000Y-109024824D01*
X161113676Y-108987501D01*
X161110000Y-108950178D01*
X161110000Y-108134132D01*
X161150000Y-108138072D01*
X162150000Y-108138072D01*
X162274482Y-108125812D01*
X162394180Y-108089502D01*
X162504494Y-108030537D01*
X162601185Y-107951185D01*
X162680537Y-107854494D01*
X162739502Y-107744180D01*
X162775812Y-107624482D01*
X162788072Y-107500000D01*
X162788072Y-106000000D01*
X162775812Y-105875518D01*
X162739502Y-105755820D01*
X162680537Y-105645506D01*
X162601185Y-105548815D01*
X162504494Y-105469463D01*
X162394180Y-105410498D01*
X162317923Y-105387366D01*
X162284974Y-105325724D01*
X162190001Y-105209999D01*
X162161001Y-105186199D01*
X162138801Y-105163999D01*
X162115000Y-105134998D01*
X161999275Y-105040025D01*
X161867246Y-104969453D01*
X161723985Y-104925996D01*
X161612332Y-104914999D01*
X161612321Y-104914999D01*
X161574999Y-104911323D01*
X161537677Y-104914999D01*
X157672323Y-104914999D01*
X157635000Y-104911323D01*
X157597677Y-104914999D01*
X157597668Y-104914999D01*
X157486015Y-104925996D01*
X157357434Y-104965000D01*
X157342754Y-104969453D01*
X157210724Y-105040025D01*
X157127084Y-105108667D01*
X157095000Y-105134998D01*
X157071202Y-105163996D01*
X153877912Y-108357286D01*
X153816081Y-108331675D01*
X153480883Y-108265000D01*
X153139117Y-108265000D01*
X152803919Y-108331675D01*
X152488169Y-108462463D01*
X152204002Y-108652337D01*
X151962337Y-108894002D01*
X151772463Y-109178169D01*
X151641675Y-109493919D01*
X151575000Y-109829117D01*
X151575000Y-110170883D01*
X151641675Y-110506081D01*
X151772463Y-110821831D01*
X151851421Y-110940000D01*
X151514802Y-110940000D01*
X151142714Y-110567912D01*
X151168325Y-110506081D01*
X151235000Y-110170883D01*
X151235000Y-109829117D01*
X151168325Y-109493919D01*
X151037537Y-109178169D01*
X150847663Y-108894002D01*
X150605998Y-108652337D01*
X150321831Y-108462463D01*
X150006081Y-108331675D01*
X149670883Y-108265000D01*
X149329117Y-108265000D01*
X148993919Y-108331675D01*
X148678169Y-108462463D01*
X148394002Y-108652337D01*
X148152337Y-108894002D01*
X147962463Y-109178169D01*
X147831675Y-109493919D01*
X147765000Y-109829117D01*
X147328072Y-109829117D01*
X147328072Y-109000000D01*
X147315812Y-108875518D01*
X147279502Y-108755820D01*
X147220537Y-108645506D01*
X147141185Y-108548815D01*
X147044494Y-108469463D01*
X146934180Y-108410498D01*
X146814482Y-108374188D01*
X146690000Y-108361928D01*
X144690000Y-108361928D01*
X144565518Y-108374188D01*
X144445820Y-108410498D01*
X144335506Y-108469463D01*
X144238815Y-108548815D01*
X144159463Y-108645506D01*
X144100498Y-108755820D01*
X144064188Y-108875518D01*
X144051928Y-109000000D01*
X140660000Y-109000000D01*
X140660000Y-103289946D01*
X140830453Y-103006724D01*
X141057856Y-102701375D01*
X141314149Y-102419820D01*
X141596841Y-102164798D01*
X141903213Y-101938761D01*
X142230291Y-101743903D01*
X142574923Y-101582100D01*
X142933774Y-101454918D01*
X143303397Y-101363583D01*
X143680181Y-101308983D01*
X144063636Y-101291500D01*
X226019926Y-101587577D01*
G37*
X226019926Y-101587577D02*
X226401910Y-101607693D01*
X226777012Y-101664621D01*
X227144745Y-101757979D01*
X227501586Y-101886873D01*
X227844089Y-102050056D01*
X228168998Y-102245980D01*
X228473161Y-102472742D01*
X228753690Y-102728190D01*
X229007872Y-103009852D01*
X229233274Y-103315034D01*
X229340001Y-103493830D01*
X229340001Y-128247361D01*
X229207047Y-128468276D01*
X228979644Y-128773625D01*
X228723351Y-129055180D01*
X228440659Y-129310202D01*
X228400271Y-129340000D01*
X142052545Y-129340000D01*
X141868502Y-129229020D01*
X141564339Y-129002258D01*
X141283810Y-128746810D01*
X141029628Y-128465148D01*
X140804226Y-128159966D01*
X140660000Y-127918349D01*
X140660000Y-126679872D01*
X140865000Y-126679872D01*
X140865000Y-127120128D01*
X140950890Y-127551925D01*
X141119369Y-127958669D01*
X141363962Y-128324729D01*
X141675271Y-128636038D01*
X142041331Y-128880631D01*
X142448075Y-129049110D01*
X142879872Y-129135000D01*
X143320128Y-129135000D01*
X143751925Y-129049110D01*
X144158669Y-128880631D01*
X144524729Y-128636038D01*
X144836038Y-128324729D01*
X145080631Y-127958669D01*
X145249110Y-127551925D01*
X145335000Y-127120128D01*
X145335000Y-126679872D01*
X224665000Y-126679872D01*
X224665000Y-127120128D01*
X224750890Y-127551925D01*
X224919369Y-127958669D01*
X225163962Y-128324729D01*
X225475271Y-128636038D01*
X225841331Y-128880631D01*
X226248075Y-129049110D01*
X226679872Y-129135000D01*
X227120128Y-129135000D01*
X227551925Y-129049110D01*
X227958669Y-128880631D01*
X228324729Y-128636038D01*
X228636038Y-128324729D01*
X228880631Y-127958669D01*
X229049110Y-127551925D01*
X229135000Y-127120128D01*
X229135000Y-126679872D01*
X229049110Y-126248075D01*
X228880631Y-125841331D01*
X228636038Y-125475271D01*
X228324729Y-125163962D01*
X227958669Y-124919369D01*
X227551925Y-124750890D01*
X227120128Y-124665000D01*
X226679872Y-124665000D01*
X226248075Y-124750890D01*
X225841331Y-124919369D01*
X225475271Y-125163962D01*
X225163962Y-125475271D01*
X224919369Y-125841331D01*
X224750890Y-126248075D01*
X224665000Y-126679872D01*
X145335000Y-126679872D01*
X145249110Y-126248075D01*
X145080631Y-125841331D01*
X144836038Y-125475271D01*
X144524729Y-125163962D01*
X144158669Y-124919369D01*
X143751925Y-124750890D01*
X143320128Y-124665000D01*
X142879872Y-124665000D01*
X142448075Y-124750890D01*
X142041331Y-124919369D01*
X141675271Y-125163962D01*
X141363962Y-125475271D01*
X141119369Y-125841331D01*
X140950890Y-126248075D01*
X140865000Y-126679872D01*
X140660000Y-126679872D01*
X140660000Y-120548061D01*
X145715000Y-120548061D01*
X145715000Y-120751939D01*
X145754774Y-120951898D01*
X145832795Y-121140256D01*
X145946063Y-121309774D01*
X146090226Y-121453937D01*
X146259744Y-121567205D01*
X146448102Y-121645226D01*
X146648061Y-121685000D01*
X146851939Y-121685000D01*
X147051898Y-121645226D01*
X147240256Y-121567205D01*
X147409774Y-121453937D01*
X147553937Y-121309774D01*
X147667205Y-121140256D01*
X147745226Y-120951898D01*
X147756535Y-120895043D01*
X148166579Y-120485000D01*
X154583422Y-120485000D01*
X154993465Y-120895044D01*
X155004774Y-120951898D01*
X155082795Y-121140256D01*
X155196063Y-121309774D01*
X155340226Y-121453937D01*
X155509744Y-121567205D01*
X155698102Y-121645226D01*
X155754957Y-121656535D01*
X157743471Y-123645050D01*
X157771184Y-123678818D01*
X157804952Y-123706531D01*
X157804954Y-123706533D01*
X157853815Y-123746632D01*
X157905942Y-123789412D01*
X158059688Y-123871590D01*
X158145391Y-123897588D01*
X158226510Y-123922196D01*
X158241307Y-123923653D01*
X158356524Y-123935001D01*
X158356532Y-123935001D01*
X158400001Y-123939282D01*
X158443470Y-123935001D01*
X161056530Y-123935001D01*
X161099999Y-123939282D01*
X161143468Y-123935001D01*
X161143476Y-123935001D01*
X161273489Y-123922196D01*
X161275196Y-123921678D01*
X161319463Y-124004494D01*
X161398815Y-124101185D01*
X161495506Y-124180537D01*
X161605820Y-124239502D01*
X161725518Y-124275812D01*
X161850000Y-124288072D01*
X163550000Y-124288072D01*
X163674482Y-124275812D01*
X163794180Y-124239502D01*
X163904494Y-124180537D01*
X164001185Y-124101185D01*
X164080537Y-124004494D01*
X164139502Y-123894180D01*
X164161513Y-123821620D01*
X164293368Y-123953475D01*
X164536589Y-124115990D01*
X164806842Y-124227932D01*
X165093740Y-124285000D01*
X165386260Y-124285000D01*
X165673158Y-124227932D01*
X165943411Y-124115990D01*
X166186632Y-123953475D01*
X166393475Y-123746632D01*
X166515195Y-123564466D01*
X166584822Y-123681355D01*
X166779731Y-123897588D01*
X167013080Y-124071641D01*
X167275901Y-124196825D01*
X167423110Y-124241476D01*
X167653000Y-124120155D01*
X167653000Y-122927000D01*
X167633000Y-122927000D01*
X167633000Y-122673000D01*
X167653000Y-122673000D01*
X167653000Y-121479845D01*
X167423110Y-121358524D01*
X167275901Y-121403175D01*
X167013080Y-121528359D01*
X166779731Y-121702412D01*
X166584822Y-121918645D01*
X166515195Y-122035534D01*
X166393475Y-121853368D01*
X166282454Y-121742347D01*
X167105545Y-120919256D01*
X167140226Y-120953937D01*
X167309744Y-121067205D01*
X167498102Y-121145226D01*
X167698061Y-121185000D01*
X167901939Y-121185000D01*
X168101898Y-121145226D01*
X168290256Y-121067205D01*
X168459774Y-120953937D01*
X168603937Y-120809774D01*
X168717205Y-120640256D01*
X168750000Y-120561082D01*
X168782795Y-120640256D01*
X168896063Y-120809774D01*
X169040226Y-120953937D01*
X169209744Y-121067205D01*
X169398102Y-121145226D01*
X169598061Y-121185000D01*
X169801939Y-121185000D01*
X170001898Y-121145226D01*
X170190256Y-121067205D01*
X170359774Y-120953937D01*
X170403711Y-120910000D01*
X172596289Y-120910000D01*
X172740226Y-121053937D01*
X172909744Y-121167205D01*
X173098102Y-121245226D01*
X173298061Y-121285000D01*
X173501939Y-121285000D01*
X173701898Y-121245226D01*
X173890256Y-121167205D01*
X174059774Y-121053937D01*
X174203937Y-120909774D01*
X174317205Y-120740256D01*
X174395226Y-120551898D01*
X174435000Y-120351939D01*
X174435000Y-120189799D01*
X174448102Y-120195226D01*
X174648061Y-120235000D01*
X174851939Y-120235000D01*
X175051898Y-120195226D01*
X175240256Y-120117205D01*
X175409774Y-120003937D01*
X175490000Y-119923711D01*
X175489999Y-121315000D01*
X175253740Y-121315000D01*
X174966842Y-121372068D01*
X174696589Y-121484010D01*
X174453368Y-121646525D01*
X174246525Y-121853368D01*
X174130000Y-122027760D01*
X174013475Y-121853368D01*
X173806632Y-121646525D01*
X173563411Y-121484010D01*
X173293158Y-121372068D01*
X173006260Y-121315000D01*
X172713740Y-121315000D01*
X172426842Y-121372068D01*
X172156589Y-121484010D01*
X171913368Y-121646525D01*
X171706525Y-121853368D01*
X171590000Y-122027760D01*
X171473475Y-121853368D01*
X171266632Y-121646525D01*
X171023411Y-121484010D01*
X170753158Y-121372068D01*
X170466260Y-121315000D01*
X170173740Y-121315000D01*
X169886842Y-121372068D01*
X169616589Y-121484010D01*
X169373368Y-121646525D01*
X169166525Y-121853368D01*
X169044805Y-122035534D01*
X168975178Y-121918645D01*
X168780269Y-121702412D01*
X168546920Y-121528359D01*
X168284099Y-121403175D01*
X168136890Y-121358524D01*
X167907000Y-121479845D01*
X167907000Y-122673000D01*
X167927000Y-122673000D01*
X167927000Y-122927000D01*
X167907000Y-122927000D01*
X167907000Y-124120155D01*
X168136890Y-124241476D01*
X168284099Y-124196825D01*
X168546920Y-124071641D01*
X168780269Y-123897588D01*
X168975178Y-123681355D01*
X169044805Y-123564466D01*
X169166525Y-123746632D01*
X169373368Y-123953475D01*
X169616589Y-124115990D01*
X169886842Y-124227932D01*
X170173740Y-124285000D01*
X170466260Y-124285000D01*
X170753158Y-124227932D01*
X171023411Y-124115990D01*
X171266632Y-123953475D01*
X171473475Y-123746632D01*
X171590000Y-123572240D01*
X171706525Y-123746632D01*
X171913368Y-123953475D01*
X172156589Y-124115990D01*
X172426842Y-124227932D01*
X172713740Y-124285000D01*
X173006260Y-124285000D01*
X173293158Y-124227932D01*
X173563411Y-124115990D01*
X173806632Y-123953475D01*
X174013475Y-123746632D01*
X174130000Y-123572240D01*
X174246525Y-123746632D01*
X174453368Y-123953475D01*
X174696589Y-124115990D01*
X174966842Y-124227932D01*
X175253740Y-124285000D01*
X175546260Y-124285000D01*
X175833158Y-124227932D01*
X176103411Y-124115990D01*
X176346632Y-123953475D01*
X176553475Y-123746632D01*
X176670000Y-123572240D01*
X176786525Y-123746632D01*
X176993368Y-123953475D01*
X177236589Y-124115990D01*
X177506842Y-124227932D01*
X177793740Y-124285000D01*
X178086260Y-124285000D01*
X178373158Y-124227932D01*
X178643411Y-124115990D01*
X178886632Y-123953475D01*
X179093475Y-123746632D01*
X179210000Y-123572240D01*
X179326525Y-123746632D01*
X179533368Y-123953475D01*
X179776589Y-124115990D01*
X180046842Y-124227932D01*
X180333740Y-124285000D01*
X180626260Y-124285000D01*
X180913158Y-124227932D01*
X181183411Y-124115990D01*
X181426632Y-123953475D01*
X181633475Y-123746632D01*
X181755195Y-123564466D01*
X181824822Y-123681355D01*
X182019731Y-123897588D01*
X182253080Y-124071641D01*
X182515901Y-124196825D01*
X182663110Y-124241476D01*
X182893000Y-124120155D01*
X182893000Y-122927000D01*
X182873000Y-122927000D01*
X182873000Y-122673000D01*
X182893000Y-122673000D01*
X182893000Y-122653000D01*
X183147000Y-122653000D01*
X183147000Y-122673000D01*
X183167000Y-122673000D01*
X183167000Y-122927000D01*
X183147000Y-122927000D01*
X183147000Y-124120155D01*
X183376890Y-124241476D01*
X183524099Y-124196825D01*
X183786920Y-124071641D01*
X184020269Y-123897588D01*
X184215178Y-123681355D01*
X184284805Y-123564466D01*
X184406525Y-123746632D01*
X184613368Y-123953475D01*
X184856589Y-124115990D01*
X185126842Y-124227932D01*
X185413740Y-124285000D01*
X185706260Y-124285000D01*
X185993158Y-124227932D01*
X186263411Y-124115990D01*
X186506632Y-123953475D01*
X186713475Y-123746632D01*
X186835195Y-123564466D01*
X186904822Y-123681355D01*
X187099731Y-123897588D01*
X187333080Y-124071641D01*
X187595901Y-124196825D01*
X187743110Y-124241476D01*
X187973000Y-124120155D01*
X187973000Y-122927000D01*
X187953000Y-122927000D01*
X187953000Y-122673000D01*
X187973000Y-122673000D01*
X187973000Y-122653000D01*
X188227000Y-122653000D01*
X188227000Y-122673000D01*
X188247000Y-122673000D01*
X188247000Y-122927000D01*
X188227000Y-122927000D01*
X188227000Y-124120155D01*
X188456890Y-124241476D01*
X188604099Y-124196825D01*
X188866920Y-124071641D01*
X189100269Y-123897588D01*
X189295178Y-123681355D01*
X189364805Y-123564466D01*
X189486525Y-123746632D01*
X189693368Y-123953475D01*
X189936589Y-124115990D01*
X190206842Y-124227932D01*
X190493740Y-124285000D01*
X190786260Y-124285000D01*
X191073158Y-124227932D01*
X191343411Y-124115990D01*
X191586632Y-123953475D01*
X191793475Y-123746632D01*
X191955990Y-123503411D01*
X192067932Y-123233158D01*
X192125000Y-122946260D01*
X192125000Y-122653740D01*
X192067932Y-122366842D01*
X191955990Y-122096589D01*
X191793475Y-121853368D01*
X191586632Y-121646525D01*
X191343411Y-121484010D01*
X191073158Y-121372068D01*
X190786260Y-121315000D01*
X190493740Y-121315000D01*
X190273592Y-121358790D01*
X189253793Y-120338992D01*
X189229990Y-120309988D01*
X189114265Y-120215015D01*
X188982236Y-120144443D01*
X188838975Y-120100986D01*
X188727322Y-120089989D01*
X188727311Y-120089989D01*
X188689989Y-120086313D01*
X188652667Y-120089989D01*
X186250566Y-120089989D01*
X186317205Y-119990256D01*
X186395226Y-119801898D01*
X186435000Y-119601939D01*
X186435000Y-119398061D01*
X186409879Y-119271766D01*
X186435365Y-119274276D01*
X186600000Y-119290491D01*
X186655752Y-119285000D01*
X200279869Y-119285000D01*
X202458013Y-121463146D01*
X202493551Y-121506449D01*
X202536854Y-121541987D01*
X202536856Y-121541989D01*
X202666377Y-121648284D01*
X202863553Y-121753676D01*
X203077501Y-121818577D01*
X203300000Y-121840491D01*
X203355752Y-121835000D01*
X203750971Y-121835000D01*
X203832661Y-121987833D01*
X203958650Y-122141350D01*
X204073000Y-122235195D01*
X204073000Y-124450000D01*
X204075440Y-124474776D01*
X204082667Y-124498601D01*
X204094403Y-124520557D01*
X204110197Y-124539803D01*
X204129443Y-124555597D01*
X204151399Y-124567333D01*
X204175224Y-124574560D01*
X204200000Y-124577000D01*
X212050000Y-124577000D01*
X212074776Y-124574560D01*
X212098601Y-124567333D01*
X212120557Y-124555597D01*
X212139803Y-124539803D01*
X212155597Y-124520557D01*
X212167333Y-124498601D01*
X212174560Y-124474776D01*
X212177000Y-124450000D01*
X212177000Y-124200000D01*
X214511928Y-124200000D01*
X214524188Y-124324482D01*
X214560498Y-124444180D01*
X214619463Y-124554494D01*
X214698815Y-124651185D01*
X214795506Y-124730537D01*
X214905820Y-124789502D01*
X215025518Y-124825812D01*
X215150000Y-124838072D01*
X215764250Y-124835000D01*
X215923000Y-124676250D01*
X215923000Y-123077000D01*
X216177000Y-123077000D01*
X216177000Y-124676250D01*
X216335750Y-124835000D01*
X216950000Y-124838072D01*
X217074482Y-124825812D01*
X217194180Y-124789502D01*
X217304494Y-124730537D01*
X217401185Y-124651185D01*
X217480537Y-124554494D01*
X217539502Y-124444180D01*
X217575812Y-124324482D01*
X217588072Y-124200000D01*
X217585000Y-123235750D01*
X217426250Y-123077000D01*
X216177000Y-123077000D01*
X215923000Y-123077000D01*
X214673750Y-123077000D01*
X214515000Y-123235750D01*
X214511928Y-124200000D01*
X212177000Y-124200000D01*
X212177000Y-122326580D01*
X212287833Y-122267339D01*
X212441350Y-122141350D01*
X212567339Y-121987833D01*
X212660956Y-121812686D01*
X212695139Y-121700000D01*
X214511928Y-121700000D01*
X214515000Y-122664250D01*
X214673750Y-122823000D01*
X215923000Y-122823000D01*
X215923000Y-121223750D01*
X216177000Y-121223750D01*
X216177000Y-122823000D01*
X217426250Y-122823000D01*
X217585000Y-122664250D01*
X217588072Y-121700000D01*
X217575812Y-121575518D01*
X217539502Y-121455820D01*
X217480537Y-121345506D01*
X217401185Y-121248815D01*
X217304494Y-121169463D01*
X217194180Y-121110498D01*
X217074482Y-121074188D01*
X216950000Y-121061928D01*
X216335750Y-121065000D01*
X216177000Y-121223750D01*
X215923000Y-121223750D01*
X215764250Y-121065000D01*
X215150000Y-121061928D01*
X215025518Y-121074188D01*
X214905820Y-121110498D01*
X214795506Y-121169463D01*
X214698815Y-121248815D01*
X214619463Y-121345506D01*
X214560498Y-121455820D01*
X214524188Y-121575518D01*
X214511928Y-121700000D01*
X212695139Y-121700000D01*
X212696740Y-121694724D01*
X212783623Y-121648284D01*
X212956449Y-121506449D01*
X212991995Y-121463136D01*
X214370133Y-120085000D01*
X214511928Y-120085000D01*
X214511928Y-120200000D01*
X214524188Y-120324482D01*
X214560498Y-120444180D01*
X214619463Y-120554494D01*
X214698815Y-120651185D01*
X214795506Y-120730537D01*
X214905820Y-120789502D01*
X215025518Y-120825812D01*
X215150000Y-120838072D01*
X216950000Y-120838072D01*
X217074482Y-120825812D01*
X217194180Y-120789502D01*
X217304494Y-120730537D01*
X217401185Y-120651185D01*
X217480537Y-120554494D01*
X217539502Y-120444180D01*
X217575812Y-120324482D01*
X217588072Y-120200000D01*
X217588072Y-117700000D01*
X217575812Y-117575518D01*
X217539502Y-117455820D01*
X217480537Y-117345506D01*
X217401185Y-117248815D01*
X217304494Y-117169463D01*
X217194180Y-117110498D01*
X217074482Y-117074188D01*
X216950000Y-117061928D01*
X215150000Y-117061928D01*
X215025518Y-117074188D01*
X214905820Y-117110498D01*
X214795506Y-117169463D01*
X214698815Y-117248815D01*
X214619463Y-117345506D01*
X214560498Y-117455820D01*
X214524188Y-117575518D01*
X214511928Y-117700000D01*
X214511928Y-117815000D01*
X213955752Y-117815000D01*
X213900000Y-117809509D01*
X213677501Y-117831423D01*
X213463553Y-117896324D01*
X213266377Y-118001716D01*
X213136856Y-118108011D01*
X213136854Y-118108013D01*
X213093551Y-118143551D01*
X213058013Y-118186854D01*
X212173779Y-119071089D01*
X212151975Y-116848754D01*
X212149458Y-116824810D01*
X212142151Y-116801009D01*
X212130342Y-116779092D01*
X212127119Y-116775191D01*
X212194059Y-116739411D01*
X212328817Y-116628817D01*
X212356534Y-116595044D01*
X212486578Y-116465000D01*
X219411928Y-116465000D01*
X219424188Y-116589482D01*
X219460498Y-116709180D01*
X219519463Y-116819494D01*
X219598815Y-116916185D01*
X219695506Y-116995537D01*
X219805820Y-117054502D01*
X219925518Y-117090812D01*
X220050000Y-117103072D01*
X220664250Y-117100000D01*
X220823000Y-116941250D01*
X220823000Y-115692000D01*
X221077000Y-115692000D01*
X221077000Y-116941250D01*
X221235750Y-117100000D01*
X221850000Y-117103072D01*
X221974482Y-117090812D01*
X222094180Y-117054502D01*
X222204494Y-116995537D01*
X222301185Y-116916185D01*
X222380537Y-116819494D01*
X222439502Y-116709180D01*
X222475812Y-116589482D01*
X222488072Y-116465000D01*
X222485000Y-115850750D01*
X222326250Y-115692000D01*
X221077000Y-115692000D01*
X220823000Y-115692000D01*
X219573750Y-115692000D01*
X219415000Y-115850750D01*
X219411928Y-116465000D01*
X212486578Y-116465000D01*
X212981716Y-115969863D01*
X213015483Y-115942151D01*
X213126077Y-115807393D01*
X213208255Y-115653647D01*
X213258861Y-115486824D01*
X213271666Y-115356811D01*
X213271666Y-115356801D01*
X213275947Y-115313335D01*
X213271666Y-115269869D01*
X213271666Y-114788454D01*
X213303871Y-114740256D01*
X213335043Y-114665000D01*
X219411928Y-114665000D01*
X219415000Y-115279250D01*
X219573750Y-115438000D01*
X220823000Y-115438000D01*
X220823000Y-114188750D01*
X221077000Y-114188750D01*
X221077000Y-115438000D01*
X222326250Y-115438000D01*
X222352897Y-115411353D01*
X223190000Y-115411353D01*
X223190000Y-115718647D01*
X223249950Y-116020035D01*
X223367546Y-116303937D01*
X223538269Y-116559442D01*
X223755558Y-116776731D01*
X224011063Y-116947454D01*
X224294965Y-117065050D01*
X224596353Y-117125000D01*
X224903647Y-117125000D01*
X225205035Y-117065050D01*
X225488937Y-116947454D01*
X225744442Y-116776731D01*
X225961731Y-116559442D01*
X226132454Y-116303937D01*
X226250050Y-116020035D01*
X226310000Y-115718647D01*
X226310000Y-115411353D01*
X226250050Y-115109965D01*
X226132454Y-114826063D01*
X225961731Y-114570558D01*
X225744442Y-114353269D01*
X225488937Y-114182546D01*
X225205035Y-114064950D01*
X224903647Y-114005000D01*
X224596353Y-114005000D01*
X224294965Y-114064950D01*
X224011063Y-114182546D01*
X223755558Y-114353269D01*
X223538269Y-114570558D01*
X223367546Y-114826063D01*
X223249950Y-115109965D01*
X223190000Y-115411353D01*
X222352897Y-115411353D01*
X222485000Y-115279250D01*
X222488072Y-114665000D01*
X222475812Y-114540518D01*
X222439502Y-114420820D01*
X222380537Y-114310506D01*
X222301185Y-114213815D01*
X222204494Y-114134463D01*
X222094180Y-114075498D01*
X221974482Y-114039188D01*
X221850000Y-114026928D01*
X221235750Y-114030000D01*
X221077000Y-114188750D01*
X220823000Y-114188750D01*
X220664250Y-114030000D01*
X220050000Y-114026928D01*
X219925518Y-114039188D01*
X219805820Y-114075498D01*
X219695506Y-114134463D01*
X219598815Y-114213815D01*
X219519463Y-114310506D01*
X219460498Y-114420820D01*
X219424188Y-114540518D01*
X219411928Y-114665000D01*
X213335043Y-114665000D01*
X213381892Y-114551898D01*
X213421666Y-114351939D01*
X213421666Y-114148061D01*
X213381892Y-113948102D01*
X213303871Y-113759744D01*
X213190603Y-113590226D01*
X213046440Y-113446063D01*
X212876922Y-113332795D01*
X212688564Y-113254774D01*
X212488605Y-113215000D01*
X212284727Y-113215000D01*
X212084768Y-113254774D01*
X211896410Y-113332795D01*
X211726892Y-113446063D01*
X211582729Y-113590226D01*
X211469461Y-113759744D01*
X211391440Y-113948102D01*
X211351666Y-114148061D01*
X211351666Y-114351939D01*
X211391440Y-114551898D01*
X211469461Y-114740256D01*
X211501666Y-114788455D01*
X211501666Y-114946755D01*
X211333422Y-115115000D01*
X204620129Y-115115000D01*
X204576663Y-115110719D01*
X204533197Y-115115000D01*
X204533187Y-115115000D01*
X204403174Y-115127805D01*
X204236351Y-115178411D01*
X204082605Y-115260589D01*
X204082603Y-115260590D01*
X204082604Y-115260590D01*
X203981617Y-115343468D01*
X203981615Y-115343470D01*
X203947847Y-115371183D01*
X203920134Y-115404951D01*
X203154951Y-116170135D01*
X203121184Y-116197847D01*
X203093471Y-116231615D01*
X203093468Y-116231618D01*
X203010590Y-116332605D01*
X202928412Y-116486351D01*
X202877805Y-116653174D01*
X202860719Y-116826664D01*
X202865001Y-116870143D01*
X202865000Y-118659868D01*
X202685000Y-118479868D01*
X202685000Y-115038454D01*
X202717205Y-114990256D01*
X202795226Y-114801898D01*
X202835000Y-114601939D01*
X202835000Y-114398061D01*
X202795226Y-114198102D01*
X202717205Y-114009744D01*
X202603937Y-113840226D01*
X202459774Y-113696063D01*
X202290256Y-113582795D01*
X202101898Y-113504774D01*
X201901939Y-113465000D01*
X201698061Y-113465000D01*
X201498102Y-113504774D01*
X201309744Y-113582795D01*
X201140226Y-113696063D01*
X200996063Y-113840226D01*
X200882795Y-114009744D01*
X200804774Y-114198102D01*
X200765000Y-114398061D01*
X200765000Y-114601939D01*
X200804774Y-114801898D01*
X200882795Y-114990256D01*
X200915000Y-115038454D01*
X200915000Y-115109161D01*
X200915001Y-115109171D01*
X200915001Y-117025760D01*
X200805752Y-117015000D01*
X200805751Y-117015000D01*
X200750000Y-117009509D01*
X200694249Y-117015000D01*
X199510539Y-117015000D01*
X199727095Y-116925299D01*
X199978505Y-116757312D01*
X200192312Y-116543505D01*
X200360299Y-116292095D01*
X200476011Y-116012743D01*
X200535000Y-115716184D01*
X200535000Y-115413816D01*
X200476011Y-115117257D01*
X200360299Y-114837905D01*
X200192312Y-114586495D01*
X199978505Y-114372688D01*
X199727095Y-114204701D01*
X199447743Y-114088989D01*
X199151184Y-114030000D01*
X198848816Y-114030000D01*
X198552257Y-114088989D01*
X198272905Y-114204701D01*
X198021495Y-114372688D01*
X197807688Y-114586495D01*
X197639701Y-114837905D01*
X197523989Y-115117257D01*
X197465000Y-115413816D01*
X197465000Y-115716184D01*
X197523989Y-116012743D01*
X197639701Y-116292095D01*
X197807688Y-116543505D01*
X198021495Y-116757312D01*
X198272905Y-116925299D01*
X198489461Y-117015000D01*
X196418082Y-117015000D01*
X196454494Y-116995537D01*
X196551185Y-116916185D01*
X196630537Y-116819494D01*
X196689502Y-116709180D01*
X196725812Y-116589482D01*
X196738072Y-116465000D01*
X196738072Y-114665000D01*
X196725812Y-114540518D01*
X196689502Y-114420820D01*
X196630537Y-114310506D01*
X196551185Y-114213815D01*
X196454494Y-114134463D01*
X196344180Y-114075498D01*
X196224482Y-114039188D01*
X196100000Y-114026928D01*
X194300000Y-114026928D01*
X194175518Y-114039188D01*
X194055820Y-114075498D01*
X193945506Y-114134463D01*
X193848815Y-114213815D01*
X193769463Y-114310506D01*
X193710498Y-114420820D01*
X193674188Y-114540518D01*
X193661928Y-114665000D01*
X193661928Y-116465000D01*
X193674188Y-116589482D01*
X193710498Y-116709180D01*
X193769463Y-116819494D01*
X193848815Y-116916185D01*
X193945506Y-116995537D01*
X193981918Y-117015000D01*
X187070133Y-117015000D01*
X184813143Y-114758012D01*
X184683622Y-114651717D01*
X184486446Y-114546324D01*
X184272498Y-114481423D01*
X184050000Y-114459509D01*
X183827502Y-114481423D01*
X183613554Y-114546324D01*
X183416378Y-114651717D01*
X183339268Y-114715000D01*
X180866579Y-114715000D01*
X178999640Y-112848061D01*
X202815000Y-112848061D01*
X202815000Y-113051939D01*
X202854774Y-113251898D01*
X202932795Y-113440256D01*
X203046063Y-113609774D01*
X203190226Y-113753937D01*
X203359744Y-113867205D01*
X203548102Y-113945226D01*
X203748061Y-113985000D01*
X203951939Y-113985000D01*
X204151898Y-113945226D01*
X204340256Y-113867205D01*
X204509774Y-113753937D01*
X204553711Y-113710000D01*
X207012678Y-113710000D01*
X207050000Y-113713676D01*
X207087322Y-113710000D01*
X207087333Y-113710000D01*
X207198986Y-113699003D01*
X207342247Y-113655546D01*
X207474276Y-113584974D01*
X207590001Y-113490001D01*
X207613804Y-113460997D01*
X208289802Y-112785000D01*
X208351939Y-112785000D01*
X208551898Y-112745226D01*
X208740256Y-112667205D01*
X208909774Y-112553937D01*
X209053937Y-112409774D01*
X209167205Y-112240256D01*
X209245226Y-112051898D01*
X209285000Y-111851939D01*
X209285000Y-111648061D01*
X209245226Y-111448102D01*
X209167205Y-111259744D01*
X209053937Y-111090226D01*
X209010000Y-111046289D01*
X209010000Y-110289803D01*
X209674887Y-109624916D01*
X223680000Y-109624916D01*
X223680000Y-109875084D01*
X223728805Y-110120445D01*
X223824541Y-110351571D01*
X223963527Y-110559578D01*
X224140422Y-110736473D01*
X224348429Y-110875459D01*
X224579555Y-110971195D01*
X224824916Y-111020000D01*
X225075084Y-111020000D01*
X225320445Y-110971195D01*
X225551571Y-110875459D01*
X225759578Y-110736473D01*
X225936473Y-110559578D01*
X226075459Y-110351571D01*
X226171195Y-110120445D01*
X226220000Y-109875084D01*
X226220000Y-109624916D01*
X226171195Y-109379555D01*
X226075459Y-109148429D01*
X225936473Y-108940422D01*
X225759578Y-108763527D01*
X225551571Y-108624541D01*
X225320445Y-108528805D01*
X225075084Y-108480000D01*
X224824916Y-108480000D01*
X224579555Y-108528805D01*
X224348429Y-108624541D01*
X224140422Y-108763527D01*
X223963527Y-108940422D01*
X223824541Y-109148429D01*
X223728805Y-109379555D01*
X223680000Y-109624916D01*
X209674887Y-109624916D01*
X210114812Y-109184992D01*
X210176949Y-109184992D01*
X210376908Y-109145218D01*
X210565266Y-109067197D01*
X210734784Y-108953929D01*
X210878947Y-108809766D01*
X210992215Y-108640248D01*
X211070236Y-108451890D01*
X211110010Y-108251931D01*
X211110010Y-108048053D01*
X211105408Y-108024916D01*
X218580000Y-108024916D01*
X218580000Y-108275084D01*
X218628805Y-108520445D01*
X218724541Y-108751571D01*
X218863527Y-108959578D01*
X219040422Y-109136473D01*
X219248429Y-109275459D01*
X219479555Y-109371195D01*
X219724916Y-109420000D01*
X219975084Y-109420000D01*
X220220445Y-109371195D01*
X220451571Y-109275459D01*
X220659578Y-109136473D01*
X220836473Y-108959578D01*
X220975459Y-108751571D01*
X221071195Y-108520445D01*
X221120000Y-108275084D01*
X221120000Y-108024916D01*
X221071195Y-107779555D01*
X220975459Y-107548429D01*
X220836473Y-107340422D01*
X220659578Y-107163527D01*
X220451571Y-107024541D01*
X220220445Y-106928805D01*
X219975084Y-106880000D01*
X219724916Y-106880000D01*
X219479555Y-106928805D01*
X219248429Y-107024541D01*
X219040422Y-107163527D01*
X218863527Y-107340422D01*
X218724541Y-107548429D01*
X218628805Y-107779555D01*
X218580000Y-108024916D01*
X211105408Y-108024916D01*
X211070236Y-107848094D01*
X210992215Y-107659736D01*
X210878947Y-107490218D01*
X210734784Y-107346055D01*
X210565266Y-107232787D01*
X210376908Y-107154766D01*
X210176949Y-107114992D01*
X209973071Y-107114992D01*
X209773112Y-107154766D01*
X209584754Y-107232787D01*
X209415236Y-107346055D01*
X209271073Y-107490218D01*
X209157805Y-107659736D01*
X209079784Y-107848094D01*
X209040010Y-108048053D01*
X209040010Y-108110190D01*
X207738998Y-109411203D01*
X207710000Y-109435001D01*
X207686202Y-109463999D01*
X207686201Y-109464000D01*
X207615026Y-109550726D01*
X207544454Y-109682756D01*
X207523700Y-109751177D01*
X207500998Y-109826016D01*
X207491052Y-109927000D01*
X207486324Y-109975002D01*
X207490001Y-110012334D01*
X207490000Y-111046289D01*
X207446063Y-111090226D01*
X207332795Y-111259744D01*
X207254774Y-111448102D01*
X207215000Y-111648061D01*
X207215000Y-111710198D01*
X206735199Y-112190000D01*
X204553711Y-112190000D01*
X204509774Y-112146063D01*
X204340256Y-112032795D01*
X204151898Y-111954774D01*
X203951939Y-111915000D01*
X203748061Y-111915000D01*
X203548102Y-111954774D01*
X203359744Y-112032795D01*
X203190226Y-112146063D01*
X203046063Y-112290226D01*
X202932795Y-112459744D01*
X202854774Y-112648102D01*
X202815000Y-112848061D01*
X178999640Y-112848061D01*
X177485000Y-111333422D01*
X177485000Y-110500000D01*
X177936928Y-110500000D01*
X177949188Y-110624482D01*
X177985498Y-110744180D01*
X178044463Y-110854494D01*
X178123815Y-110951185D01*
X178220506Y-111030537D01*
X178330820Y-111089502D01*
X178450518Y-111125812D01*
X178575000Y-111138072D01*
X178776750Y-111135000D01*
X178935500Y-110976250D01*
X178935500Y-109927000D01*
X178098750Y-109927000D01*
X177940000Y-110085750D01*
X177936928Y-110500000D01*
X177485000Y-110500000D01*
X177485000Y-109100000D01*
X177936928Y-109100000D01*
X177940000Y-109514250D01*
X178098750Y-109673000D01*
X178935500Y-109673000D01*
X178935500Y-108623750D01*
X178776750Y-108465000D01*
X178575000Y-108461928D01*
X178450518Y-108474188D01*
X178330820Y-108510498D01*
X178220506Y-108569463D01*
X178123815Y-108648815D01*
X178044463Y-108745506D01*
X177985498Y-108855820D01*
X177949188Y-108975518D01*
X177936928Y-109100000D01*
X177485000Y-109100000D01*
X177485000Y-107888454D01*
X177517205Y-107840256D01*
X177595226Y-107651898D01*
X177635000Y-107451939D01*
X177635000Y-107248061D01*
X177595226Y-107048102D01*
X177517205Y-106859744D01*
X177403937Y-106690226D01*
X177259774Y-106546063D01*
X177090256Y-106432795D01*
X176901898Y-106354774D01*
X176701939Y-106315000D01*
X176498061Y-106315000D01*
X176298102Y-106354774D01*
X176109744Y-106432795D01*
X175940226Y-106546063D01*
X175796063Y-106690226D01*
X175682795Y-106859744D01*
X175604774Y-107048102D01*
X175593465Y-107104956D01*
X172333422Y-110365000D01*
X167538446Y-110365000D01*
X167490248Y-110332795D01*
X167301890Y-110254774D01*
X167101931Y-110215000D01*
X166985011Y-110215000D01*
X166985011Y-106337344D01*
X166988688Y-106300011D01*
X166979823Y-106209999D01*
X166974014Y-106151025D01*
X166930557Y-106007764D01*
X166859985Y-105875735D01*
X166765012Y-105760010D01*
X166736009Y-105736208D01*
X166488804Y-105489003D01*
X166465001Y-105459999D01*
X166349276Y-105365026D01*
X166217247Y-105294454D01*
X166150382Y-105274171D01*
X166136211Y-105260000D01*
X169087470Y-105260000D01*
X169003750Y-105416629D01*
X168939307Y-105629069D01*
X168917547Y-105850000D01*
X168917547Y-108350000D01*
X168939307Y-108570931D01*
X169003750Y-108783371D01*
X169108400Y-108979157D01*
X169249235Y-109150765D01*
X169420843Y-109291600D01*
X169616629Y-109396250D01*
X169829069Y-109460693D01*
X170050000Y-109482453D01*
X172550000Y-109482453D01*
X172770931Y-109460693D01*
X172983371Y-109396250D01*
X173179157Y-109291600D01*
X173350765Y-109150765D01*
X173491600Y-108979157D01*
X173596250Y-108783371D01*
X173660693Y-108570931D01*
X173682453Y-108350000D01*
X173682453Y-105850000D01*
X173660693Y-105629069D01*
X173596250Y-105416629D01*
X173512530Y-105260000D01*
X179208199Y-105260000D01*
X180177500Y-106229302D01*
X180177501Y-108632155D01*
X180070208Y-108720208D01*
X180064992Y-108726564D01*
X180001185Y-108648815D01*
X179904494Y-108569463D01*
X179794180Y-108510498D01*
X179674482Y-108474188D01*
X179550000Y-108461928D01*
X179348250Y-108465000D01*
X179189500Y-108623750D01*
X179189500Y-109673000D01*
X179209500Y-109673000D01*
X179209500Y-109927000D01*
X179189500Y-109927000D01*
X179189500Y-110976250D01*
X179348250Y-111135000D01*
X179550000Y-111138072D01*
X179674482Y-111125812D01*
X179794180Y-111089502D01*
X179904494Y-111030537D01*
X180001185Y-110951185D01*
X180064992Y-110873436D01*
X180070208Y-110879792D01*
X180203836Y-110989458D01*
X180356291Y-111070947D01*
X180521715Y-111121128D01*
X180693750Y-111138072D01*
X181181250Y-111138072D01*
X181353285Y-111121128D01*
X181518709Y-111070947D01*
X181671164Y-110989458D01*
X181804792Y-110879792D01*
X181914458Y-110746164D01*
X181995947Y-110593709D01*
X182024373Y-110500000D01*
X185936928Y-110500000D01*
X185949188Y-110624482D01*
X185985498Y-110744180D01*
X186044463Y-110854494D01*
X186123815Y-110951185D01*
X186220506Y-111030537D01*
X186330820Y-111089502D01*
X186450518Y-111125812D01*
X186575000Y-111138072D01*
X186776750Y-111135000D01*
X186935500Y-110976250D01*
X186935500Y-109927000D01*
X186098750Y-109927000D01*
X185940000Y-110085750D01*
X185936928Y-110500000D01*
X182024373Y-110500000D01*
X182046128Y-110428285D01*
X182063072Y-110256250D01*
X182063072Y-109343750D01*
X182046128Y-109171715D01*
X182024374Y-109100000D01*
X185936928Y-109100000D01*
X185940000Y-109514250D01*
X186098750Y-109673000D01*
X186935500Y-109673000D01*
X186935500Y-108623750D01*
X186776750Y-108465000D01*
X186575000Y-108461928D01*
X186450518Y-108474188D01*
X186330820Y-108510498D01*
X186220506Y-108569463D01*
X186123815Y-108648815D01*
X186044463Y-108745506D01*
X185985498Y-108855820D01*
X185949188Y-108975518D01*
X185936928Y-109100000D01*
X182024374Y-109100000D01*
X181995947Y-109006291D01*
X181914458Y-108853836D01*
X181804792Y-108720208D01*
X181697500Y-108632155D01*
X181697500Y-105951822D01*
X181701176Y-105914499D01*
X181697500Y-105877176D01*
X181697500Y-105877167D01*
X181686503Y-105765514D01*
X181643046Y-105622253D01*
X181628193Y-105594465D01*
X181572474Y-105490223D01*
X181501299Y-105403497D01*
X181477501Y-105374499D01*
X181448504Y-105350702D01*
X180307801Y-104210000D01*
X187385199Y-104210000D01*
X188177501Y-105002303D01*
X188177500Y-108632155D01*
X188070208Y-108720208D01*
X188064992Y-108726564D01*
X188001185Y-108648815D01*
X187904494Y-108569463D01*
X187794180Y-108510498D01*
X187674482Y-108474188D01*
X187550000Y-108461928D01*
X187348250Y-108465000D01*
X187189500Y-108623750D01*
X187189500Y-109673000D01*
X187209500Y-109673000D01*
X187209500Y-109927000D01*
X187189500Y-109927000D01*
X187189500Y-110976250D01*
X187348250Y-111135000D01*
X187550000Y-111138072D01*
X187674482Y-111125812D01*
X187794180Y-111089502D01*
X187904494Y-111030537D01*
X188001185Y-110951185D01*
X188064992Y-110873436D01*
X188070208Y-110879792D01*
X188203836Y-110989458D01*
X188356291Y-111070947D01*
X188521715Y-111121128D01*
X188693750Y-111138072D01*
X189181250Y-111138072D01*
X189353285Y-111121128D01*
X189518709Y-111070947D01*
X189671164Y-110989458D01*
X189804792Y-110879792D01*
X189914458Y-110746164D01*
X189995947Y-110593709D01*
X190046128Y-110428285D01*
X190063072Y-110256250D01*
X190063072Y-109343750D01*
X190046128Y-109171715D01*
X189995947Y-109006291D01*
X189914458Y-108853836D01*
X189804792Y-108720208D01*
X189697500Y-108632155D01*
X189697500Y-105850000D01*
X194367547Y-105850000D01*
X194367547Y-108350000D01*
X194389307Y-108570931D01*
X194453750Y-108783371D01*
X194558400Y-108979157D01*
X194699235Y-109150765D01*
X194870843Y-109291600D01*
X195066629Y-109396250D01*
X195279069Y-109460693D01*
X195500000Y-109482453D01*
X198000000Y-109482453D01*
X198220931Y-109460693D01*
X198433371Y-109396250D01*
X198629157Y-109291600D01*
X198800765Y-109150765D01*
X198941600Y-108979157D01*
X199046250Y-108783371D01*
X199110693Y-108570931D01*
X199132453Y-108350000D01*
X199132453Y-105850000D01*
X199110693Y-105629069D01*
X199046250Y-105416629D01*
X198941600Y-105220843D01*
X198800765Y-105049235D01*
X198629157Y-104908400D01*
X198433371Y-104803750D01*
X198220931Y-104739307D01*
X198000000Y-104717547D01*
X195500000Y-104717547D01*
X195279069Y-104739307D01*
X195066629Y-104803750D01*
X194870843Y-104908400D01*
X194699235Y-105049235D01*
X194558400Y-105220843D01*
X194453750Y-105416629D01*
X194389307Y-105629069D01*
X194367547Y-105850000D01*
X189697500Y-105850000D01*
X189697500Y-104724822D01*
X189701176Y-104687499D01*
X189697500Y-104650176D01*
X189697500Y-104650167D01*
X189686503Y-104538514D01*
X189643046Y-104395253D01*
X189572474Y-104263224D01*
X189477501Y-104147499D01*
X189448503Y-104123701D01*
X188263804Y-102939003D01*
X188240001Y-102909999D01*
X188124276Y-102815026D01*
X187992247Y-102744454D01*
X187848986Y-102700997D01*
X187737333Y-102690000D01*
X187737322Y-102690000D01*
X187700000Y-102686324D01*
X187662678Y-102690000D01*
X164837325Y-102690000D01*
X164800000Y-102686324D01*
X164762675Y-102690000D01*
X164762667Y-102690000D01*
X164651014Y-102700997D01*
X164507753Y-102744454D01*
X164375724Y-102815026D01*
X164259999Y-102909999D01*
X164236201Y-102938997D01*
X163460199Y-103715000D01*
X163398061Y-103715000D01*
X163198102Y-103754774D01*
X163009744Y-103832795D01*
X162840226Y-103946063D01*
X162696063Y-104090226D01*
X162582795Y-104259744D01*
X162504774Y-104448102D01*
X162465000Y-104648061D01*
X162465000Y-104851939D01*
X162504774Y-105051898D01*
X162582795Y-105240256D01*
X162696063Y-105409774D01*
X162840226Y-105553937D01*
X163009744Y-105667205D01*
X163198102Y-105745226D01*
X163240001Y-105753560D01*
X163240000Y-107046289D01*
X163196063Y-107090226D01*
X163082795Y-107259744D01*
X163004774Y-107448102D01*
X162965000Y-107648061D01*
X162965000Y-107851939D01*
X163004774Y-108051898D01*
X163082795Y-108240256D01*
X163196063Y-108409774D01*
X163340226Y-108553937D01*
X163509744Y-108667205D01*
X163698102Y-108745226D01*
X163898061Y-108785000D01*
X164101939Y-108785000D01*
X164301898Y-108745226D01*
X164490256Y-108667205D01*
X164659774Y-108553937D01*
X164803937Y-108409774D01*
X164917205Y-108240256D01*
X164995226Y-108051898D01*
X165035000Y-107851939D01*
X165035000Y-107648061D01*
X164995226Y-107448102D01*
X164917205Y-107259744D01*
X164803937Y-107090226D01*
X164760000Y-107046289D01*
X164760000Y-106808797D01*
X164922244Y-106917205D01*
X165110602Y-106995226D01*
X165310561Y-107035000D01*
X165465011Y-107035000D01*
X165465011Y-108215000D01*
X165398071Y-108215000D01*
X165198112Y-108254774D01*
X165009754Y-108332795D01*
X164840236Y-108446063D01*
X164696073Y-108590226D01*
X164582805Y-108759744D01*
X164504784Y-108948102D01*
X164465010Y-109148061D01*
X164465010Y-109351939D01*
X164504784Y-109551898D01*
X164582805Y-109740256D01*
X164696073Y-109909774D01*
X164740011Y-109953712D01*
X164740010Y-111712687D01*
X164736334Y-111750010D01*
X164740010Y-111787332D01*
X164740010Y-111787342D01*
X164751007Y-111898995D01*
X164791594Y-112032795D01*
X164794464Y-112042256D01*
X164865036Y-112174286D01*
X164904881Y-112222836D01*
X164960009Y-112290011D01*
X164989012Y-112313813D01*
X165636212Y-112961013D01*
X165660010Y-112990012D01*
X165689008Y-113013810D01*
X165775734Y-113084985D01*
X165871550Y-113136200D01*
X165907764Y-113155557D01*
X166051025Y-113199014D01*
X166162678Y-113210011D01*
X166162688Y-113210011D01*
X166200011Y-113213687D01*
X166237334Y-113210011D01*
X168465000Y-113210011D01*
X168465000Y-113401939D01*
X168504774Y-113601898D01*
X168582795Y-113790256D01*
X168696063Y-113959774D01*
X168840226Y-114103937D01*
X169009744Y-114217205D01*
X169198102Y-114295226D01*
X169398061Y-114335000D01*
X169460199Y-114335000D01*
X169640210Y-114515011D01*
X169586518Y-114515011D01*
X169386559Y-114554785D01*
X169198201Y-114632806D01*
X169028683Y-114746074D01*
X168884520Y-114890237D01*
X168771252Y-115059755D01*
X168693231Y-115248113D01*
X168653457Y-115448072D01*
X168653457Y-115651950D01*
X168693231Y-115851909D01*
X168771252Y-116040267D01*
X168884520Y-116209785D01*
X169028683Y-116353948D01*
X169198201Y-116467216D01*
X169386559Y-116545237D01*
X169586518Y-116585011D01*
X169790396Y-116585011D01*
X169990355Y-116545237D01*
X170178713Y-116467216D01*
X170348231Y-116353948D01*
X170392168Y-116310011D01*
X173231036Y-116310011D01*
X173961025Y-117040000D01*
X161603711Y-117040000D01*
X161559774Y-116996063D01*
X161390256Y-116882795D01*
X161201898Y-116804774D01*
X161001939Y-116765000D01*
X160798061Y-116765000D01*
X160598102Y-116804774D01*
X160409744Y-116882795D01*
X160240226Y-116996063D01*
X160096063Y-117140226D01*
X159982795Y-117309744D01*
X159904774Y-117498102D01*
X159865000Y-117698061D01*
X159865000Y-117789989D01*
X159689801Y-117789989D01*
X158635000Y-116735189D01*
X158635000Y-116673051D01*
X158595226Y-116473092D01*
X158517205Y-116284734D01*
X158403937Y-116115216D01*
X158259774Y-115971053D01*
X158090256Y-115857785D01*
X157901898Y-115779764D01*
X157701939Y-115739990D01*
X157498061Y-115739990D01*
X157298102Y-115779764D01*
X157109744Y-115857785D01*
X156940226Y-115971053D01*
X156796063Y-116115216D01*
X156682795Y-116284734D01*
X156604774Y-116473092D01*
X156565000Y-116673051D01*
X156565000Y-116876929D01*
X156604774Y-117076888D01*
X156682795Y-117265246D01*
X156796063Y-117434764D01*
X156940226Y-117578927D01*
X157109744Y-117692195D01*
X157298102Y-117770216D01*
X157498061Y-117809990D01*
X157560199Y-117809990D01*
X158811200Y-119060992D01*
X158834998Y-119089990D01*
X158950723Y-119184963D01*
X159082752Y-119255535D01*
X159226013Y-119298992D01*
X159337666Y-119309989D01*
X159337674Y-119309989D01*
X159374999Y-119313665D01*
X159412324Y-119309989D01*
X160126300Y-119309989D01*
X160096063Y-119340226D01*
X159982795Y-119509744D01*
X159904774Y-119698102D01*
X159865000Y-119898061D01*
X159865000Y-120101939D01*
X159904774Y-120301898D01*
X159982795Y-120490256D01*
X160096063Y-120659774D01*
X160240226Y-120803937D01*
X160409744Y-120917205D01*
X160598102Y-120995226D01*
X160798061Y-121035000D01*
X161001939Y-121035000D01*
X161201898Y-120995226D01*
X161390256Y-120917205D01*
X161559774Y-120803937D01*
X161703937Y-120659774D01*
X161817205Y-120490256D01*
X161895226Y-120301898D01*
X161935000Y-120101939D01*
X161935000Y-120039801D01*
X162364802Y-119610000D01*
X166259998Y-119610000D01*
X166236201Y-119638997D01*
X164728998Y-121146201D01*
X164700000Y-121169999D01*
X164676202Y-121198997D01*
X164676201Y-121198998D01*
X164605026Y-121285724D01*
X164534454Y-121417754D01*
X164508705Y-121502642D01*
X164293368Y-121646525D01*
X164161513Y-121778380D01*
X164139502Y-121705820D01*
X164080537Y-121595506D01*
X164001185Y-121498815D01*
X163904494Y-121419463D01*
X163794180Y-121360498D01*
X163674482Y-121324188D01*
X163550000Y-121311928D01*
X161850000Y-121311928D01*
X161725518Y-121324188D01*
X161605820Y-121360498D01*
X161495506Y-121419463D01*
X161398815Y-121498815D01*
X161319463Y-121595506D01*
X161260498Y-121705820D01*
X161224188Y-121825518D01*
X161214482Y-121924065D01*
X161176510Y-121927805D01*
X161009687Y-121978411D01*
X160855941Y-122060589D01*
X160728716Y-122165001D01*
X158766580Y-122165001D01*
X157006535Y-120404957D01*
X156995226Y-120348102D01*
X156917205Y-120159744D01*
X156803937Y-119990226D01*
X156659774Y-119846063D01*
X156490256Y-119732795D01*
X156301898Y-119654774D01*
X156245044Y-119643465D01*
X155606534Y-119004956D01*
X155578817Y-118971183D01*
X155444059Y-118860589D01*
X155290313Y-118778411D01*
X155123490Y-118727805D01*
X154993477Y-118715000D01*
X154993469Y-118715000D01*
X154950000Y-118710719D01*
X154906531Y-118715000D01*
X147843465Y-118715000D01*
X147799999Y-118710719D01*
X147756533Y-118715000D01*
X147756523Y-118715000D01*
X147626510Y-118727805D01*
X147459687Y-118778411D01*
X147305941Y-118860589D01*
X147305939Y-118860590D01*
X147305940Y-118860590D01*
X147204953Y-118943468D01*
X147204951Y-118943470D01*
X147171183Y-118971183D01*
X147143470Y-119004951D01*
X146504957Y-119643465D01*
X146448102Y-119654774D01*
X146259744Y-119732795D01*
X146090226Y-119846063D01*
X145946063Y-119990226D01*
X145832795Y-120159744D01*
X145754774Y-120348102D01*
X145715000Y-120548061D01*
X140660000Y-120548061D01*
X140660000Y-109000000D01*
X144051928Y-109000000D01*
X144051928Y-111000000D01*
X144064188Y-111124482D01*
X144100498Y-111244180D01*
X144159463Y-111354494D01*
X144238815Y-111451185D01*
X144335506Y-111530537D01*
X144445820Y-111589502D01*
X144565518Y-111625812D01*
X144690000Y-111638072D01*
X146690000Y-111638072D01*
X146814482Y-111625812D01*
X146934180Y-111589502D01*
X147044494Y-111530537D01*
X147141185Y-111451185D01*
X147220537Y-111354494D01*
X147279502Y-111244180D01*
X147315812Y-111124482D01*
X147328072Y-111000000D01*
X147328072Y-109829117D01*
X147765000Y-109829117D01*
X147765000Y-110170883D01*
X147831675Y-110506081D01*
X147962463Y-110821831D01*
X148152337Y-111105998D01*
X148394002Y-111347663D01*
X148678169Y-111537537D01*
X148993919Y-111668325D01*
X149329117Y-111735000D01*
X149670883Y-111735000D01*
X150006081Y-111668325D01*
X150067912Y-111642714D01*
X150636201Y-112211003D01*
X150659999Y-112240001D01*
X150688997Y-112263799D01*
X150775723Y-112334974D01*
X150907753Y-112405546D01*
X151051014Y-112449003D01*
X151162667Y-112460000D01*
X151162676Y-112460000D01*
X151199999Y-112463676D01*
X151237322Y-112460000D01*
X161196289Y-112460000D01*
X161240226Y-112503937D01*
X161409744Y-112617205D01*
X161598102Y-112695226D01*
X161798061Y-112735000D01*
X162001939Y-112735000D01*
X162201898Y-112695226D01*
X162390256Y-112617205D01*
X162559774Y-112503937D01*
X162703937Y-112359774D01*
X162817205Y-112190256D01*
X162895226Y-112001898D01*
X162935000Y-111801939D01*
X162935000Y-111598061D01*
X162895226Y-111398102D01*
X162817205Y-111209744D01*
X162703937Y-111040226D01*
X162559774Y-110896063D01*
X162390256Y-110782795D01*
X162201898Y-110704774D01*
X162001939Y-110665000D01*
X161798061Y-110665000D01*
X161598102Y-110704774D01*
X161409744Y-110782795D01*
X161240226Y-110896063D01*
X161196289Y-110940000D01*
X158578579Y-110940000D01*
X158657537Y-110821831D01*
X158788325Y-110506081D01*
X158855000Y-110170883D01*
X158855000Y-109829117D01*
X158788325Y-109493919D01*
X158657537Y-109178169D01*
X158467663Y-108894002D01*
X158225998Y-108652337D01*
X157941831Y-108462463D01*
X157626081Y-108331675D01*
X157290883Y-108265000D01*
X156949117Y-108265000D01*
X156613919Y-108331675D01*
X156298169Y-108462463D01*
X156014002Y-108652337D01*
X155772337Y-108894002D01*
X155582463Y-109178169D01*
X155451675Y-109493919D01*
X155385000Y-109829117D01*
X155385000Y-110170883D01*
X155451675Y-110506081D01*
X155582463Y-110821831D01*
X155661421Y-110940000D01*
X154768579Y-110940000D01*
X154847537Y-110821831D01*
X154978325Y-110506081D01*
X155045000Y-110170883D01*
X155045000Y-109829117D01*
X154978325Y-109493919D01*
X154952714Y-109432088D01*
X157949803Y-106434999D01*
X159211928Y-106434999D01*
X159211928Y-107500000D01*
X159224188Y-107624482D01*
X159260498Y-107744180D01*
X159319463Y-107854494D01*
X159398815Y-107951185D01*
X159495506Y-108030537D01*
X159590001Y-108081046D01*
X159590001Y-108337635D01*
X159427726Y-108446063D01*
X159283563Y-108590226D01*
X159170295Y-108759744D01*
X159092274Y-108948102D01*
X159052500Y-109148061D01*
X159052500Y-109351939D01*
X159092274Y-109551898D01*
X159170295Y-109740256D01*
X159283563Y-109909774D01*
X159427726Y-110053937D01*
X159597244Y-110167205D01*
X159785602Y-110245226D01*
X159985561Y-110285000D01*
X160189439Y-110285000D01*
X160389398Y-110245226D01*
X160577756Y-110167205D01*
X160747274Y-110053937D01*
X160891437Y-109909774D01*
X161004705Y-109740256D01*
X161082726Y-109551898D01*
X161122500Y-109351939D01*
X161122500Y-109148061D01*
X161106022Y-109065220D01*
X161110000Y-109024833D01*
X161110000Y-109024824D01*
X161113676Y-108987501D01*
X161110000Y-108950178D01*
X161110000Y-108134132D01*
X161150000Y-108138072D01*
X162150000Y-108138072D01*
X162274482Y-108125812D01*
X162394180Y-108089502D01*
X162504494Y-108030537D01*
X162601185Y-107951185D01*
X162680537Y-107854494D01*
X162739502Y-107744180D01*
X162775812Y-107624482D01*
X162788072Y-107500000D01*
X162788072Y-106000000D01*
X162775812Y-105875518D01*
X162739502Y-105755820D01*
X162680537Y-105645506D01*
X162601185Y-105548815D01*
X162504494Y-105469463D01*
X162394180Y-105410498D01*
X162317923Y-105387366D01*
X162284974Y-105325724D01*
X162190001Y-105209999D01*
X162161001Y-105186199D01*
X162138801Y-105163999D01*
X162115000Y-105134998D01*
X161999275Y-105040025D01*
X161867246Y-104969453D01*
X161723985Y-104925996D01*
X161612332Y-104914999D01*
X161612321Y-104914999D01*
X161574999Y-104911323D01*
X161537677Y-104914999D01*
X157672323Y-104914999D01*
X157635000Y-104911323D01*
X157597677Y-104914999D01*
X157597668Y-104914999D01*
X157486015Y-104925996D01*
X157357434Y-104965000D01*
X157342754Y-104969453D01*
X157210724Y-105040025D01*
X157127084Y-105108667D01*
X157095000Y-105134998D01*
X157071202Y-105163996D01*
X153877912Y-108357286D01*
X153816081Y-108331675D01*
X153480883Y-108265000D01*
X153139117Y-108265000D01*
X152803919Y-108331675D01*
X152488169Y-108462463D01*
X152204002Y-108652337D01*
X151962337Y-108894002D01*
X151772463Y-109178169D01*
X151641675Y-109493919D01*
X151575000Y-109829117D01*
X151575000Y-110170883D01*
X151641675Y-110506081D01*
X151772463Y-110821831D01*
X151851421Y-110940000D01*
X151514802Y-110940000D01*
X151142714Y-110567912D01*
X151168325Y-110506081D01*
X151235000Y-110170883D01*
X151235000Y-109829117D01*
X151168325Y-109493919D01*
X151037537Y-109178169D01*
X150847663Y-108894002D01*
X150605998Y-108652337D01*
X150321831Y-108462463D01*
X150006081Y-108331675D01*
X149670883Y-108265000D01*
X149329117Y-108265000D01*
X148993919Y-108331675D01*
X148678169Y-108462463D01*
X148394002Y-108652337D01*
X148152337Y-108894002D01*
X147962463Y-109178169D01*
X147831675Y-109493919D01*
X147765000Y-109829117D01*
X147328072Y-109829117D01*
X147328072Y-109000000D01*
X147315812Y-108875518D01*
X147279502Y-108755820D01*
X147220537Y-108645506D01*
X147141185Y-108548815D01*
X147044494Y-108469463D01*
X146934180Y-108410498D01*
X146814482Y-108374188D01*
X146690000Y-108361928D01*
X144690000Y-108361928D01*
X144565518Y-108374188D01*
X144445820Y-108410498D01*
X144335506Y-108469463D01*
X144238815Y-108548815D01*
X144159463Y-108645506D01*
X144100498Y-108755820D01*
X144064188Y-108875518D01*
X144051928Y-109000000D01*
X140660000Y-109000000D01*
X140660000Y-103289946D01*
X140830453Y-103006724D01*
X141057856Y-102701375D01*
X141314149Y-102419820D01*
X141596841Y-102164798D01*
X141903213Y-101938761D01*
X142230291Y-101743903D01*
X142574923Y-101582100D01*
X142933774Y-101454918D01*
X143303397Y-101363583D01*
X143680181Y-101308983D01*
X144063636Y-101291500D01*
X226019926Y-101587577D01*
G36*
X175715000Y-111656531D02*
G01*
X175710719Y-111700000D01*
X175715000Y-111743469D01*
X175715000Y-111743476D01*
X175720758Y-111801939D01*
X175727805Y-111873490D01*
X175737829Y-111906532D01*
X175778411Y-112040312D01*
X175860589Y-112194058D01*
X175971183Y-112328817D01*
X176004956Y-112356534D01*
X179843470Y-116195049D01*
X179871183Y-116228817D01*
X179904951Y-116256530D01*
X179904953Y-116256532D01*
X179962716Y-116303937D01*
X180005941Y-116339411D01*
X180159687Y-116421589D01*
X180326510Y-116472195D01*
X180456523Y-116485000D01*
X180456531Y-116485000D01*
X180500000Y-116489281D01*
X180543469Y-116485000D01*
X180649328Y-116485000D01*
X180632795Y-116509744D01*
X180554774Y-116698102D01*
X180515000Y-116898061D01*
X180515000Y-117101939D01*
X180554774Y-117301898D01*
X180632795Y-117490256D01*
X180746063Y-117659774D01*
X180890226Y-117803937D01*
X181059744Y-117917205D01*
X181248102Y-117995226D01*
X181448061Y-118035000D01*
X181651939Y-118035000D01*
X181851898Y-117995226D01*
X182040256Y-117917205D01*
X182209774Y-117803937D01*
X182353937Y-117659774D01*
X182467205Y-117490256D01*
X182545226Y-117301898D01*
X182585000Y-117101939D01*
X182585000Y-116898061D01*
X182545226Y-116698102D01*
X182467205Y-116509744D01*
X182450672Y-116485000D01*
X183329869Y-116485000D01*
X185309867Y-118465000D01*
X185298061Y-118465000D01*
X185098102Y-118504774D01*
X184909744Y-118582795D01*
X184740226Y-118696063D01*
X184696289Y-118740000D01*
X179083450Y-118740000D01*
X174133760Y-113790311D01*
X174167205Y-113740256D01*
X174245226Y-113551898D01*
X174285000Y-113351939D01*
X174285000Y-113148061D01*
X174245226Y-112948102D01*
X174167205Y-112759744D01*
X174053937Y-112590226D01*
X173909774Y-112446063D01*
X173740256Y-112332795D01*
X173551898Y-112254774D01*
X173351939Y-112215000D01*
X173289802Y-112215000D01*
X173109441Y-112034640D01*
X173194059Y-111989411D01*
X173328817Y-111878817D01*
X173356534Y-111845044D01*
X175715001Y-109486578D01*
X175715000Y-111656531D01*
G37*
X175715000Y-111656531D02*
X175710719Y-111700000D01*
X175715000Y-111743469D01*
X175715000Y-111743476D01*
X175720758Y-111801939D01*
X175727805Y-111873490D01*
X175737829Y-111906532D01*
X175778411Y-112040312D01*
X175860589Y-112194058D01*
X175971183Y-112328817D01*
X176004956Y-112356534D01*
X179843470Y-116195049D01*
X179871183Y-116228817D01*
X179904951Y-116256530D01*
X179904953Y-116256532D01*
X179962716Y-116303937D01*
X180005941Y-116339411D01*
X180159687Y-116421589D01*
X180326510Y-116472195D01*
X180456523Y-116485000D01*
X180456531Y-116485000D01*
X180500000Y-116489281D01*
X180543469Y-116485000D01*
X180649328Y-116485000D01*
X180632795Y-116509744D01*
X180554774Y-116698102D01*
X180515000Y-116898061D01*
X180515000Y-117101939D01*
X180554774Y-117301898D01*
X180632795Y-117490256D01*
X180746063Y-117659774D01*
X180890226Y-117803937D01*
X181059744Y-117917205D01*
X181248102Y-117995226D01*
X181448061Y-118035000D01*
X181651939Y-118035000D01*
X181851898Y-117995226D01*
X182040256Y-117917205D01*
X182209774Y-117803937D01*
X182353937Y-117659774D01*
X182467205Y-117490256D01*
X182545226Y-117301898D01*
X182585000Y-117101939D01*
X182585000Y-116898061D01*
X182545226Y-116698102D01*
X182467205Y-116509744D01*
X182450672Y-116485000D01*
X183329869Y-116485000D01*
X185309867Y-118465000D01*
X185298061Y-118465000D01*
X185098102Y-118504774D01*
X184909744Y-118582795D01*
X184740226Y-118696063D01*
X184696289Y-118740000D01*
X179083450Y-118740000D01*
X174133760Y-113790311D01*
X174167205Y-113740256D01*
X174245226Y-113551898D01*
X174285000Y-113351939D01*
X174285000Y-113148061D01*
X174245226Y-112948102D01*
X174167205Y-112759744D01*
X174053937Y-112590226D01*
X173909774Y-112446063D01*
X173740256Y-112332795D01*
X173551898Y-112254774D01*
X173351939Y-112215000D01*
X173289802Y-112215000D01*
X173109441Y-112034640D01*
X173194059Y-111989411D01*
X173328817Y-111878817D01*
X173356534Y-111845044D01*
X175715001Y-109486578D01*
X175715000Y-111656531D01*
M02*
