G04 #@! TF.GenerationSoftware,KiCad,Pcbnew,(5.1.5)-3*
G04 #@! TF.CreationDate,2021-04-30T10:03:26+01:00*
G04 #@! TF.ProjectId,CurrentShuntCircuit,43757272-656e-4745-9368-756e74436972,1*
G04 #@! TF.SameCoordinates,Original*
G04 #@! TF.FileFunction,Paste,Top*
G04 #@! TF.FilePolarity,Positive*
%FSLAX46Y46*%
G04 Gerber Fmt 4.6, Leading zero omitted, Abs format (unit mm)*
G04 Created by KiCad (PCBNEW (5.1.5)-3) date 2021-04-30 10:03:26*
%MOMM*%
%LPD*%
G04 APERTURE LIST*
%ADD10C,0.100000*%
G04 APERTURE END LIST*
D10*
G36*
X203321756Y-119841806D02*
G01*
X203358159Y-119847206D01*
X203393857Y-119856147D01*
X203428506Y-119868545D01*
X203461774Y-119884280D01*
X203493339Y-119903199D01*
X203522897Y-119925121D01*
X203550165Y-119949835D01*
X203574879Y-119977103D01*
X203596801Y-120006661D01*
X203615720Y-120038226D01*
X203631455Y-120071494D01*
X203643853Y-120106143D01*
X203652794Y-120141841D01*
X203658194Y-120178244D01*
X203660000Y-120215000D01*
X203660000Y-121665000D01*
X203658194Y-121701756D01*
X203652794Y-121738159D01*
X203643853Y-121773857D01*
X203631455Y-121808506D01*
X203615720Y-121841774D01*
X203596801Y-121873339D01*
X203574879Y-121902897D01*
X203550165Y-121930165D01*
X203522897Y-121954879D01*
X203493339Y-121976801D01*
X203461774Y-121995720D01*
X203428506Y-122011455D01*
X203393857Y-122023853D01*
X203358159Y-122032794D01*
X203321756Y-122038194D01*
X203285000Y-122040000D01*
X202535000Y-122040000D01*
X202498244Y-122038194D01*
X202461841Y-122032794D01*
X202426143Y-122023853D01*
X202391494Y-122011455D01*
X202358226Y-121995720D01*
X202326661Y-121976801D01*
X202297103Y-121954879D01*
X202269835Y-121930165D01*
X202245121Y-121902897D01*
X202223199Y-121873339D01*
X202204280Y-121841774D01*
X202188545Y-121808506D01*
X202176147Y-121773857D01*
X202167206Y-121738159D01*
X202161806Y-121701756D01*
X202160000Y-121665000D01*
X202160000Y-120215000D01*
X202161806Y-120178244D01*
X202167206Y-120141841D01*
X202176147Y-120106143D01*
X202188545Y-120071494D01*
X202204280Y-120038226D01*
X202223199Y-120006661D01*
X202245121Y-119977103D01*
X202269835Y-119949835D01*
X202297103Y-119925121D01*
X202326661Y-119903199D01*
X202358226Y-119884280D01*
X202391494Y-119868545D01*
X202426143Y-119856147D01*
X202461841Y-119847206D01*
X202498244Y-119841806D01*
X202535000Y-119840000D01*
X203285000Y-119840000D01*
X203321756Y-119841806D01*
G37*
G36*
X209621756Y-119841806D02*
G01*
X209658159Y-119847206D01*
X209693857Y-119856147D01*
X209728506Y-119868545D01*
X209761774Y-119884280D01*
X209793339Y-119903199D01*
X209822897Y-119925121D01*
X209850165Y-119949835D01*
X209874879Y-119977103D01*
X209896801Y-120006661D01*
X209915720Y-120038226D01*
X209931455Y-120071494D01*
X209943853Y-120106143D01*
X209952794Y-120141841D01*
X209958194Y-120178244D01*
X209960000Y-120215000D01*
X209960000Y-121665000D01*
X209958194Y-121701756D01*
X209952794Y-121738159D01*
X209943853Y-121773857D01*
X209931455Y-121808506D01*
X209915720Y-121841774D01*
X209896801Y-121873339D01*
X209874879Y-121902897D01*
X209850165Y-121930165D01*
X209822897Y-121954879D01*
X209793339Y-121976801D01*
X209761774Y-121995720D01*
X209728506Y-122011455D01*
X209693857Y-122023853D01*
X209658159Y-122032794D01*
X209621756Y-122038194D01*
X209585000Y-122040000D01*
X208835000Y-122040000D01*
X208798244Y-122038194D01*
X208761841Y-122032794D01*
X208726143Y-122023853D01*
X208691494Y-122011455D01*
X208658226Y-121995720D01*
X208626661Y-121976801D01*
X208597103Y-121954879D01*
X208569835Y-121930165D01*
X208545121Y-121902897D01*
X208523199Y-121873339D01*
X208504280Y-121841774D01*
X208488545Y-121808506D01*
X208476147Y-121773857D01*
X208467206Y-121738159D01*
X208461806Y-121701756D01*
X208460000Y-121665000D01*
X208460000Y-120215000D01*
X208461806Y-120178244D01*
X208467206Y-120141841D01*
X208476147Y-120106143D01*
X208488545Y-120071494D01*
X208504280Y-120038226D01*
X208523199Y-120006661D01*
X208545121Y-119977103D01*
X208569835Y-119949835D01*
X208597103Y-119925121D01*
X208626661Y-119903199D01*
X208658226Y-119884280D01*
X208691494Y-119868545D01*
X208726143Y-119856147D01*
X208761841Y-119847206D01*
X208798244Y-119841806D01*
X208835000Y-119840000D01*
X209585000Y-119840000D01*
X209621756Y-119841806D01*
G37*
G36*
X181205142Y-109101174D02*
G01*
X181228803Y-109104684D01*
X181252007Y-109110496D01*
X181274529Y-109118554D01*
X181296153Y-109128782D01*
X181316670Y-109141079D01*
X181335883Y-109155329D01*
X181353607Y-109171393D01*
X181369671Y-109189117D01*
X181383921Y-109208330D01*
X181396218Y-109228847D01*
X181406446Y-109250471D01*
X181414504Y-109272993D01*
X181420316Y-109296197D01*
X181423826Y-109319858D01*
X181425000Y-109343750D01*
X181425000Y-110256250D01*
X181423826Y-110280142D01*
X181420316Y-110303803D01*
X181414504Y-110327007D01*
X181406446Y-110349529D01*
X181396218Y-110371153D01*
X181383921Y-110391670D01*
X181369671Y-110410883D01*
X181353607Y-110428607D01*
X181335883Y-110444671D01*
X181316670Y-110458921D01*
X181296153Y-110471218D01*
X181274529Y-110481446D01*
X181252007Y-110489504D01*
X181228803Y-110495316D01*
X181205142Y-110498826D01*
X181181250Y-110500000D01*
X180693750Y-110500000D01*
X180669858Y-110498826D01*
X180646197Y-110495316D01*
X180622993Y-110489504D01*
X180600471Y-110481446D01*
X180578847Y-110471218D01*
X180558330Y-110458921D01*
X180539117Y-110444671D01*
X180521393Y-110428607D01*
X180505329Y-110410883D01*
X180491079Y-110391670D01*
X180478782Y-110371153D01*
X180468554Y-110349529D01*
X180460496Y-110327007D01*
X180454684Y-110303803D01*
X180451174Y-110280142D01*
X180450000Y-110256250D01*
X180450000Y-109343750D01*
X180451174Y-109319858D01*
X180454684Y-109296197D01*
X180460496Y-109272993D01*
X180468554Y-109250471D01*
X180478782Y-109228847D01*
X180491079Y-109208330D01*
X180505329Y-109189117D01*
X180521393Y-109171393D01*
X180539117Y-109155329D01*
X180558330Y-109141079D01*
X180578847Y-109128782D01*
X180600471Y-109118554D01*
X180622993Y-109110496D01*
X180646197Y-109104684D01*
X180669858Y-109101174D01*
X180693750Y-109100000D01*
X181181250Y-109100000D01*
X181205142Y-109101174D01*
G37*
G36*
X179330142Y-109101174D02*
G01*
X179353803Y-109104684D01*
X179377007Y-109110496D01*
X179399529Y-109118554D01*
X179421153Y-109128782D01*
X179441670Y-109141079D01*
X179460883Y-109155329D01*
X179478607Y-109171393D01*
X179494671Y-109189117D01*
X179508921Y-109208330D01*
X179521218Y-109228847D01*
X179531446Y-109250471D01*
X179539504Y-109272993D01*
X179545316Y-109296197D01*
X179548826Y-109319858D01*
X179550000Y-109343750D01*
X179550000Y-110256250D01*
X179548826Y-110280142D01*
X179545316Y-110303803D01*
X179539504Y-110327007D01*
X179531446Y-110349529D01*
X179521218Y-110371153D01*
X179508921Y-110391670D01*
X179494671Y-110410883D01*
X179478607Y-110428607D01*
X179460883Y-110444671D01*
X179441670Y-110458921D01*
X179421153Y-110471218D01*
X179399529Y-110481446D01*
X179377007Y-110489504D01*
X179353803Y-110495316D01*
X179330142Y-110498826D01*
X179306250Y-110500000D01*
X178818750Y-110500000D01*
X178794858Y-110498826D01*
X178771197Y-110495316D01*
X178747993Y-110489504D01*
X178725471Y-110481446D01*
X178703847Y-110471218D01*
X178683330Y-110458921D01*
X178664117Y-110444671D01*
X178646393Y-110428607D01*
X178630329Y-110410883D01*
X178616079Y-110391670D01*
X178603782Y-110371153D01*
X178593554Y-110349529D01*
X178585496Y-110327007D01*
X178579684Y-110303803D01*
X178576174Y-110280142D01*
X178575000Y-110256250D01*
X178575000Y-109343750D01*
X178576174Y-109319858D01*
X178579684Y-109296197D01*
X178585496Y-109272993D01*
X178593554Y-109250471D01*
X178603782Y-109228847D01*
X178616079Y-109208330D01*
X178630329Y-109189117D01*
X178646393Y-109171393D01*
X178664117Y-109155329D01*
X178683330Y-109141079D01*
X178703847Y-109128782D01*
X178725471Y-109118554D01*
X178747993Y-109110496D01*
X178771197Y-109104684D01*
X178794858Y-109101174D01*
X178818750Y-109100000D01*
X179306250Y-109100000D01*
X179330142Y-109101174D01*
G37*
G36*
X189205142Y-109101174D02*
G01*
X189228803Y-109104684D01*
X189252007Y-109110496D01*
X189274529Y-109118554D01*
X189296153Y-109128782D01*
X189316670Y-109141079D01*
X189335883Y-109155329D01*
X189353607Y-109171393D01*
X189369671Y-109189117D01*
X189383921Y-109208330D01*
X189396218Y-109228847D01*
X189406446Y-109250471D01*
X189414504Y-109272993D01*
X189420316Y-109296197D01*
X189423826Y-109319858D01*
X189425000Y-109343750D01*
X189425000Y-110256250D01*
X189423826Y-110280142D01*
X189420316Y-110303803D01*
X189414504Y-110327007D01*
X189406446Y-110349529D01*
X189396218Y-110371153D01*
X189383921Y-110391670D01*
X189369671Y-110410883D01*
X189353607Y-110428607D01*
X189335883Y-110444671D01*
X189316670Y-110458921D01*
X189296153Y-110471218D01*
X189274529Y-110481446D01*
X189252007Y-110489504D01*
X189228803Y-110495316D01*
X189205142Y-110498826D01*
X189181250Y-110500000D01*
X188693750Y-110500000D01*
X188669858Y-110498826D01*
X188646197Y-110495316D01*
X188622993Y-110489504D01*
X188600471Y-110481446D01*
X188578847Y-110471218D01*
X188558330Y-110458921D01*
X188539117Y-110444671D01*
X188521393Y-110428607D01*
X188505329Y-110410883D01*
X188491079Y-110391670D01*
X188478782Y-110371153D01*
X188468554Y-110349529D01*
X188460496Y-110327007D01*
X188454684Y-110303803D01*
X188451174Y-110280142D01*
X188450000Y-110256250D01*
X188450000Y-109343750D01*
X188451174Y-109319858D01*
X188454684Y-109296197D01*
X188460496Y-109272993D01*
X188468554Y-109250471D01*
X188478782Y-109228847D01*
X188491079Y-109208330D01*
X188505329Y-109189117D01*
X188521393Y-109171393D01*
X188539117Y-109155329D01*
X188558330Y-109141079D01*
X188578847Y-109128782D01*
X188600471Y-109118554D01*
X188622993Y-109110496D01*
X188646197Y-109104684D01*
X188669858Y-109101174D01*
X188693750Y-109100000D01*
X189181250Y-109100000D01*
X189205142Y-109101174D01*
G37*
G36*
X187330142Y-109101174D02*
G01*
X187353803Y-109104684D01*
X187377007Y-109110496D01*
X187399529Y-109118554D01*
X187421153Y-109128782D01*
X187441670Y-109141079D01*
X187460883Y-109155329D01*
X187478607Y-109171393D01*
X187494671Y-109189117D01*
X187508921Y-109208330D01*
X187521218Y-109228847D01*
X187531446Y-109250471D01*
X187539504Y-109272993D01*
X187545316Y-109296197D01*
X187548826Y-109319858D01*
X187550000Y-109343750D01*
X187550000Y-110256250D01*
X187548826Y-110280142D01*
X187545316Y-110303803D01*
X187539504Y-110327007D01*
X187531446Y-110349529D01*
X187521218Y-110371153D01*
X187508921Y-110391670D01*
X187494671Y-110410883D01*
X187478607Y-110428607D01*
X187460883Y-110444671D01*
X187441670Y-110458921D01*
X187421153Y-110471218D01*
X187399529Y-110481446D01*
X187377007Y-110489504D01*
X187353803Y-110495316D01*
X187330142Y-110498826D01*
X187306250Y-110500000D01*
X186818750Y-110500000D01*
X186794858Y-110498826D01*
X186771197Y-110495316D01*
X186747993Y-110489504D01*
X186725471Y-110481446D01*
X186703847Y-110471218D01*
X186683330Y-110458921D01*
X186664117Y-110444671D01*
X186646393Y-110428607D01*
X186630329Y-110410883D01*
X186616079Y-110391670D01*
X186603782Y-110371153D01*
X186593554Y-110349529D01*
X186585496Y-110327007D01*
X186579684Y-110303803D01*
X186576174Y-110280142D01*
X186575000Y-110256250D01*
X186575000Y-109343750D01*
X186576174Y-109319858D01*
X186579684Y-109296197D01*
X186585496Y-109272993D01*
X186593554Y-109250471D01*
X186603782Y-109228847D01*
X186616079Y-109208330D01*
X186630329Y-109189117D01*
X186646393Y-109171393D01*
X186664117Y-109155329D01*
X186683330Y-109141079D01*
X186703847Y-109128782D01*
X186725471Y-109118554D01*
X186747993Y-109110496D01*
X186771197Y-109104684D01*
X186794858Y-109101174D01*
X186818750Y-109100000D01*
X187306250Y-109100000D01*
X187330142Y-109101174D01*
G37*
M02*
