G04 #@! TF.GenerationSoftware,KiCad,Pcbnew,(5.1.5)-3*
G04 #@! TF.CreationDate,2021-02-24T10:35:47+00:00*
G04 #@! TF.ProjectId,CurrentShuntCircuit,43757272-656e-4745-9368-756e74436972,1*
G04 #@! TF.SameCoordinates,Original*
G04 #@! TF.FileFunction,Soldermask,Top*
G04 #@! TF.FilePolarity,Negative*
%FSLAX46Y46*%
G04 Gerber Fmt 4.6, Leading zero omitted, Abs format (unit mm)*
G04 Created by KiCad (PCBNEW (5.1.5)-3) date 2021-02-24 10:35:47*
%MOMM*%
%LPD*%
G04 APERTURE LIST*
%ADD10C,0.100000*%
G04 APERTURE END LIST*
D10*
G36*
X143475256Y-125291298D02*
G01*
X143581579Y-125312447D01*
X143882042Y-125436903D01*
X144152451Y-125617585D01*
X144382415Y-125847549D01*
X144563097Y-126117958D01*
X144687553Y-126418421D01*
X144751000Y-126737391D01*
X144751000Y-127062609D01*
X144687553Y-127381579D01*
X144563097Y-127682042D01*
X144382415Y-127952451D01*
X144152451Y-128182415D01*
X143882042Y-128363097D01*
X143581579Y-128487553D01*
X143475256Y-128508702D01*
X143262611Y-128551000D01*
X142937389Y-128551000D01*
X142724744Y-128508702D01*
X142618421Y-128487553D01*
X142317958Y-128363097D01*
X142047549Y-128182415D01*
X141817585Y-127952451D01*
X141636903Y-127682042D01*
X141512447Y-127381579D01*
X141449000Y-127062609D01*
X141449000Y-126737391D01*
X141512447Y-126418421D01*
X141636903Y-126117958D01*
X141817585Y-125847549D01*
X142047549Y-125617585D01*
X142317958Y-125436903D01*
X142618421Y-125312447D01*
X142724744Y-125291298D01*
X142937389Y-125249000D01*
X143262611Y-125249000D01*
X143475256Y-125291298D01*
G37*
G36*
X227275256Y-125291298D02*
G01*
X227381579Y-125312447D01*
X227682042Y-125436903D01*
X227952451Y-125617585D01*
X228182415Y-125847549D01*
X228363097Y-126117958D01*
X228487553Y-126418421D01*
X228551000Y-126737391D01*
X228551000Y-127062609D01*
X228487553Y-127381579D01*
X228363097Y-127682042D01*
X228182415Y-127952451D01*
X227952451Y-128182415D01*
X227682042Y-128363097D01*
X227381579Y-128487553D01*
X227275256Y-128508702D01*
X227062611Y-128551000D01*
X226737389Y-128551000D01*
X226524744Y-128508702D01*
X226418421Y-128487553D01*
X226117958Y-128363097D01*
X225847549Y-128182415D01*
X225617585Y-127952451D01*
X225436903Y-127682042D01*
X225312447Y-127381579D01*
X225249000Y-127062609D01*
X225249000Y-126737391D01*
X225312447Y-126418421D01*
X225436903Y-126117958D01*
X225617585Y-125847549D01*
X225847549Y-125617585D01*
X226117958Y-125436903D01*
X226418421Y-125312447D01*
X226524744Y-125291298D01*
X226737389Y-125249000D01*
X227062611Y-125249000D01*
X227275256Y-125291298D01*
G37*
G36*
X217001000Y-124251000D02*
G01*
X215099000Y-124251000D01*
X215099000Y-121649000D01*
X217001000Y-121649000D01*
X217001000Y-124251000D01*
G37*
G36*
X188213512Y-121903927D02*
G01*
X188362812Y-121933624D01*
X188526784Y-122001544D01*
X188674354Y-122100147D01*
X188799853Y-122225646D01*
X188898456Y-122373216D01*
X188966376Y-122537188D01*
X189001000Y-122711259D01*
X189001000Y-122888741D01*
X188966376Y-123062812D01*
X188898456Y-123226784D01*
X188799853Y-123374354D01*
X188674354Y-123499853D01*
X188526784Y-123598456D01*
X188362812Y-123666376D01*
X188213512Y-123696073D01*
X188188742Y-123701000D01*
X188011258Y-123701000D01*
X187986488Y-123696073D01*
X187837188Y-123666376D01*
X187673216Y-123598456D01*
X187525646Y-123499853D01*
X187400147Y-123374354D01*
X187301544Y-123226784D01*
X187233624Y-123062812D01*
X187199000Y-122888741D01*
X187199000Y-122711259D01*
X187233624Y-122537188D01*
X187301544Y-122373216D01*
X187400147Y-122225646D01*
X187525646Y-122100147D01*
X187673216Y-122001544D01*
X187837188Y-121933624D01*
X187986488Y-121903927D01*
X188011258Y-121899000D01*
X188188742Y-121899000D01*
X188213512Y-121903927D01*
G37*
G36*
X163601000Y-123701000D02*
G01*
X161799000Y-123701000D01*
X161799000Y-121899000D01*
X163601000Y-121899000D01*
X163601000Y-123701000D01*
G37*
G36*
X165353512Y-121903927D02*
G01*
X165502812Y-121933624D01*
X165666784Y-122001544D01*
X165814354Y-122100147D01*
X165939853Y-122225646D01*
X166038456Y-122373216D01*
X166106376Y-122537188D01*
X166141000Y-122711259D01*
X166141000Y-122888741D01*
X166106376Y-123062812D01*
X166038456Y-123226784D01*
X165939853Y-123374354D01*
X165814354Y-123499853D01*
X165666784Y-123598456D01*
X165502812Y-123666376D01*
X165353512Y-123696073D01*
X165328742Y-123701000D01*
X165151258Y-123701000D01*
X165126488Y-123696073D01*
X164977188Y-123666376D01*
X164813216Y-123598456D01*
X164665646Y-123499853D01*
X164540147Y-123374354D01*
X164441544Y-123226784D01*
X164373624Y-123062812D01*
X164339000Y-122888741D01*
X164339000Y-122711259D01*
X164373624Y-122537188D01*
X164441544Y-122373216D01*
X164540147Y-122225646D01*
X164665646Y-122100147D01*
X164813216Y-122001544D01*
X164977188Y-121933624D01*
X165126488Y-121903927D01*
X165151258Y-121899000D01*
X165328742Y-121899000D01*
X165353512Y-121903927D01*
G37*
G36*
X167893512Y-121903927D02*
G01*
X168042812Y-121933624D01*
X168206784Y-122001544D01*
X168354354Y-122100147D01*
X168479853Y-122225646D01*
X168578456Y-122373216D01*
X168646376Y-122537188D01*
X168681000Y-122711259D01*
X168681000Y-122888741D01*
X168646376Y-123062812D01*
X168578456Y-123226784D01*
X168479853Y-123374354D01*
X168354354Y-123499853D01*
X168206784Y-123598456D01*
X168042812Y-123666376D01*
X167893512Y-123696073D01*
X167868742Y-123701000D01*
X167691258Y-123701000D01*
X167666488Y-123696073D01*
X167517188Y-123666376D01*
X167353216Y-123598456D01*
X167205646Y-123499853D01*
X167080147Y-123374354D01*
X166981544Y-123226784D01*
X166913624Y-123062812D01*
X166879000Y-122888741D01*
X166879000Y-122711259D01*
X166913624Y-122537188D01*
X166981544Y-122373216D01*
X167080147Y-122225646D01*
X167205646Y-122100147D01*
X167353216Y-122001544D01*
X167517188Y-121933624D01*
X167666488Y-121903927D01*
X167691258Y-121899000D01*
X167868742Y-121899000D01*
X167893512Y-121903927D01*
G37*
G36*
X170433512Y-121903927D02*
G01*
X170582812Y-121933624D01*
X170746784Y-122001544D01*
X170894354Y-122100147D01*
X171019853Y-122225646D01*
X171118456Y-122373216D01*
X171186376Y-122537188D01*
X171221000Y-122711259D01*
X171221000Y-122888741D01*
X171186376Y-123062812D01*
X171118456Y-123226784D01*
X171019853Y-123374354D01*
X170894354Y-123499853D01*
X170746784Y-123598456D01*
X170582812Y-123666376D01*
X170433512Y-123696073D01*
X170408742Y-123701000D01*
X170231258Y-123701000D01*
X170206488Y-123696073D01*
X170057188Y-123666376D01*
X169893216Y-123598456D01*
X169745646Y-123499853D01*
X169620147Y-123374354D01*
X169521544Y-123226784D01*
X169453624Y-123062812D01*
X169419000Y-122888741D01*
X169419000Y-122711259D01*
X169453624Y-122537188D01*
X169521544Y-122373216D01*
X169620147Y-122225646D01*
X169745646Y-122100147D01*
X169893216Y-122001544D01*
X170057188Y-121933624D01*
X170206488Y-121903927D01*
X170231258Y-121899000D01*
X170408742Y-121899000D01*
X170433512Y-121903927D01*
G37*
G36*
X172973512Y-121903927D02*
G01*
X173122812Y-121933624D01*
X173286784Y-122001544D01*
X173434354Y-122100147D01*
X173559853Y-122225646D01*
X173658456Y-122373216D01*
X173726376Y-122537188D01*
X173761000Y-122711259D01*
X173761000Y-122888741D01*
X173726376Y-123062812D01*
X173658456Y-123226784D01*
X173559853Y-123374354D01*
X173434354Y-123499853D01*
X173286784Y-123598456D01*
X173122812Y-123666376D01*
X172973512Y-123696073D01*
X172948742Y-123701000D01*
X172771258Y-123701000D01*
X172746488Y-123696073D01*
X172597188Y-123666376D01*
X172433216Y-123598456D01*
X172285646Y-123499853D01*
X172160147Y-123374354D01*
X172061544Y-123226784D01*
X171993624Y-123062812D01*
X171959000Y-122888741D01*
X171959000Y-122711259D01*
X171993624Y-122537188D01*
X172061544Y-122373216D01*
X172160147Y-122225646D01*
X172285646Y-122100147D01*
X172433216Y-122001544D01*
X172597188Y-121933624D01*
X172746488Y-121903927D01*
X172771258Y-121899000D01*
X172948742Y-121899000D01*
X172973512Y-121903927D01*
G37*
G36*
X175513512Y-121903927D02*
G01*
X175662812Y-121933624D01*
X175826784Y-122001544D01*
X175974354Y-122100147D01*
X176099853Y-122225646D01*
X176198456Y-122373216D01*
X176266376Y-122537188D01*
X176301000Y-122711259D01*
X176301000Y-122888741D01*
X176266376Y-123062812D01*
X176198456Y-123226784D01*
X176099853Y-123374354D01*
X175974354Y-123499853D01*
X175826784Y-123598456D01*
X175662812Y-123666376D01*
X175513512Y-123696073D01*
X175488742Y-123701000D01*
X175311258Y-123701000D01*
X175286488Y-123696073D01*
X175137188Y-123666376D01*
X174973216Y-123598456D01*
X174825646Y-123499853D01*
X174700147Y-123374354D01*
X174601544Y-123226784D01*
X174533624Y-123062812D01*
X174499000Y-122888741D01*
X174499000Y-122711259D01*
X174533624Y-122537188D01*
X174601544Y-122373216D01*
X174700147Y-122225646D01*
X174825646Y-122100147D01*
X174973216Y-122001544D01*
X175137188Y-121933624D01*
X175286488Y-121903927D01*
X175311258Y-121899000D01*
X175488742Y-121899000D01*
X175513512Y-121903927D01*
G37*
G36*
X178053512Y-121903927D02*
G01*
X178202812Y-121933624D01*
X178366784Y-122001544D01*
X178514354Y-122100147D01*
X178639853Y-122225646D01*
X178738456Y-122373216D01*
X178806376Y-122537188D01*
X178841000Y-122711259D01*
X178841000Y-122888741D01*
X178806376Y-123062812D01*
X178738456Y-123226784D01*
X178639853Y-123374354D01*
X178514354Y-123499853D01*
X178366784Y-123598456D01*
X178202812Y-123666376D01*
X178053512Y-123696073D01*
X178028742Y-123701000D01*
X177851258Y-123701000D01*
X177826488Y-123696073D01*
X177677188Y-123666376D01*
X177513216Y-123598456D01*
X177365646Y-123499853D01*
X177240147Y-123374354D01*
X177141544Y-123226784D01*
X177073624Y-123062812D01*
X177039000Y-122888741D01*
X177039000Y-122711259D01*
X177073624Y-122537188D01*
X177141544Y-122373216D01*
X177240147Y-122225646D01*
X177365646Y-122100147D01*
X177513216Y-122001544D01*
X177677188Y-121933624D01*
X177826488Y-121903927D01*
X177851258Y-121899000D01*
X178028742Y-121899000D01*
X178053512Y-121903927D01*
G37*
G36*
X180593512Y-121903927D02*
G01*
X180742812Y-121933624D01*
X180906784Y-122001544D01*
X181054354Y-122100147D01*
X181179853Y-122225646D01*
X181278456Y-122373216D01*
X181346376Y-122537188D01*
X181381000Y-122711259D01*
X181381000Y-122888741D01*
X181346376Y-123062812D01*
X181278456Y-123226784D01*
X181179853Y-123374354D01*
X181054354Y-123499853D01*
X180906784Y-123598456D01*
X180742812Y-123666376D01*
X180593512Y-123696073D01*
X180568742Y-123701000D01*
X180391258Y-123701000D01*
X180366488Y-123696073D01*
X180217188Y-123666376D01*
X180053216Y-123598456D01*
X179905646Y-123499853D01*
X179780147Y-123374354D01*
X179681544Y-123226784D01*
X179613624Y-123062812D01*
X179579000Y-122888741D01*
X179579000Y-122711259D01*
X179613624Y-122537188D01*
X179681544Y-122373216D01*
X179780147Y-122225646D01*
X179905646Y-122100147D01*
X180053216Y-122001544D01*
X180217188Y-121933624D01*
X180366488Y-121903927D01*
X180391258Y-121899000D01*
X180568742Y-121899000D01*
X180593512Y-121903927D01*
G37*
G36*
X183133512Y-121903927D02*
G01*
X183282812Y-121933624D01*
X183446784Y-122001544D01*
X183594354Y-122100147D01*
X183719853Y-122225646D01*
X183818456Y-122373216D01*
X183886376Y-122537188D01*
X183921000Y-122711259D01*
X183921000Y-122888741D01*
X183886376Y-123062812D01*
X183818456Y-123226784D01*
X183719853Y-123374354D01*
X183594354Y-123499853D01*
X183446784Y-123598456D01*
X183282812Y-123666376D01*
X183133512Y-123696073D01*
X183108742Y-123701000D01*
X182931258Y-123701000D01*
X182906488Y-123696073D01*
X182757188Y-123666376D01*
X182593216Y-123598456D01*
X182445646Y-123499853D01*
X182320147Y-123374354D01*
X182221544Y-123226784D01*
X182153624Y-123062812D01*
X182119000Y-122888741D01*
X182119000Y-122711259D01*
X182153624Y-122537188D01*
X182221544Y-122373216D01*
X182320147Y-122225646D01*
X182445646Y-122100147D01*
X182593216Y-122001544D01*
X182757188Y-121933624D01*
X182906488Y-121903927D01*
X182931258Y-121899000D01*
X183108742Y-121899000D01*
X183133512Y-121903927D01*
G37*
G36*
X185673512Y-121903927D02*
G01*
X185822812Y-121933624D01*
X185986784Y-122001544D01*
X186134354Y-122100147D01*
X186259853Y-122225646D01*
X186358456Y-122373216D01*
X186426376Y-122537188D01*
X186461000Y-122711259D01*
X186461000Y-122888741D01*
X186426376Y-123062812D01*
X186358456Y-123226784D01*
X186259853Y-123374354D01*
X186134354Y-123499853D01*
X185986784Y-123598456D01*
X185822812Y-123666376D01*
X185673512Y-123696073D01*
X185648742Y-123701000D01*
X185471258Y-123701000D01*
X185446488Y-123696073D01*
X185297188Y-123666376D01*
X185133216Y-123598456D01*
X184985646Y-123499853D01*
X184860147Y-123374354D01*
X184761544Y-123226784D01*
X184693624Y-123062812D01*
X184659000Y-122888741D01*
X184659000Y-122711259D01*
X184693624Y-122537188D01*
X184761544Y-122373216D01*
X184860147Y-122225646D01*
X184985646Y-122100147D01*
X185133216Y-122001544D01*
X185297188Y-121933624D01*
X185446488Y-121903927D01*
X185471258Y-121899000D01*
X185648742Y-121899000D01*
X185673512Y-121903927D01*
G37*
G36*
X190753512Y-121903927D02*
G01*
X190902812Y-121933624D01*
X191066784Y-122001544D01*
X191214354Y-122100147D01*
X191339853Y-122225646D01*
X191438456Y-122373216D01*
X191506376Y-122537188D01*
X191541000Y-122711259D01*
X191541000Y-122888741D01*
X191506376Y-123062812D01*
X191438456Y-123226784D01*
X191339853Y-123374354D01*
X191214354Y-123499853D01*
X191066784Y-123598456D01*
X190902812Y-123666376D01*
X190753512Y-123696073D01*
X190728742Y-123701000D01*
X190551258Y-123701000D01*
X190526488Y-123696073D01*
X190377188Y-123666376D01*
X190213216Y-123598456D01*
X190065646Y-123499853D01*
X189940147Y-123374354D01*
X189841544Y-123226784D01*
X189773624Y-123062812D01*
X189739000Y-122888741D01*
X189739000Y-122711259D01*
X189773624Y-122537188D01*
X189841544Y-122373216D01*
X189940147Y-122225646D01*
X190065646Y-122100147D01*
X190213216Y-122001544D01*
X190377188Y-121933624D01*
X190526488Y-121903927D01*
X190551258Y-121899000D01*
X190728742Y-121899000D01*
X190753512Y-121903927D01*
G37*
G36*
X211878823Y-119556087D02*
G01*
X211942111Y-119575286D01*
X212000449Y-119606468D01*
X212051575Y-119648425D01*
X212093532Y-119699551D01*
X212124714Y-119757889D01*
X212143913Y-119821177D01*
X212151000Y-119893138D01*
X212151000Y-121506862D01*
X212143913Y-121578823D01*
X212124714Y-121642111D01*
X212093532Y-121700449D01*
X212051575Y-121751575D01*
X212000449Y-121793532D01*
X211942111Y-121824714D01*
X211878823Y-121843913D01*
X211806862Y-121851000D01*
X210893138Y-121851000D01*
X210821177Y-121843913D01*
X210757889Y-121824714D01*
X210699551Y-121793532D01*
X210648425Y-121751575D01*
X210606468Y-121700449D01*
X210575286Y-121642111D01*
X210556087Y-121578823D01*
X210549000Y-121506862D01*
X210549000Y-119893138D01*
X210556087Y-119821177D01*
X210575286Y-119757889D01*
X210606468Y-119699551D01*
X210648425Y-119648425D01*
X210699551Y-119606468D01*
X210757889Y-119575286D01*
X210821177Y-119556087D01*
X210893138Y-119549000D01*
X211806862Y-119549000D01*
X211878823Y-119556087D01*
G37*
G36*
X205578823Y-119556087D02*
G01*
X205642111Y-119575286D01*
X205700449Y-119606468D01*
X205751575Y-119648425D01*
X205793532Y-119699551D01*
X205824714Y-119757889D01*
X205843913Y-119821177D01*
X205851000Y-119893138D01*
X205851000Y-121506862D01*
X205843913Y-121578823D01*
X205824714Y-121642111D01*
X205793532Y-121700449D01*
X205751575Y-121751575D01*
X205700449Y-121793532D01*
X205642111Y-121824714D01*
X205578823Y-121843913D01*
X205506862Y-121851000D01*
X204593138Y-121851000D01*
X204521177Y-121843913D01*
X204457889Y-121824714D01*
X204399551Y-121793532D01*
X204348425Y-121751575D01*
X204306468Y-121700449D01*
X204275286Y-121642111D01*
X204256087Y-121578823D01*
X204249000Y-121506862D01*
X204249000Y-119893138D01*
X204256087Y-119821177D01*
X204275286Y-119757889D01*
X204306468Y-119699551D01*
X204348425Y-119648425D01*
X204399551Y-119606468D01*
X204457889Y-119575286D01*
X204521177Y-119556087D01*
X204593138Y-119549000D01*
X205506862Y-119549000D01*
X205578823Y-119556087D01*
G37*
G36*
X217001000Y-120251000D02*
G01*
X215099000Y-120251000D01*
X215099000Y-117649000D01*
X217001000Y-117649000D01*
X217001000Y-120251000D01*
G37*
G36*
X221901000Y-116516000D02*
G01*
X219999000Y-116516000D01*
X219999000Y-114614000D01*
X221901000Y-114614000D01*
X221901000Y-116516000D01*
G37*
G36*
X196151000Y-116516000D02*
G01*
X194249000Y-116516000D01*
X194249000Y-114614000D01*
X196151000Y-114614000D01*
X196151000Y-116516000D01*
G37*
G36*
X199237142Y-114783242D02*
G01*
X199385101Y-114844529D01*
X199518255Y-114933499D01*
X199631501Y-115046745D01*
X199720471Y-115179899D01*
X199781758Y-115327858D01*
X199813000Y-115484925D01*
X199813000Y-115645075D01*
X199781758Y-115802142D01*
X199720471Y-115950101D01*
X199631501Y-116083255D01*
X199518255Y-116196501D01*
X199385101Y-116285471D01*
X199237142Y-116346758D01*
X199080075Y-116378000D01*
X198919925Y-116378000D01*
X198762858Y-116346758D01*
X198614899Y-116285471D01*
X198481745Y-116196501D01*
X198368499Y-116083255D01*
X198279529Y-115950101D01*
X198218242Y-115802142D01*
X198187000Y-115645075D01*
X198187000Y-115484925D01*
X198218242Y-115327858D01*
X198279529Y-115179899D01*
X198368499Y-115046745D01*
X198481745Y-114933499D01*
X198614899Y-114844529D01*
X198762858Y-114783242D01*
X198919925Y-114752000D01*
X199080075Y-114752000D01*
X199237142Y-114783242D01*
G37*
G36*
X224987142Y-114783242D02*
G01*
X225135101Y-114844529D01*
X225268255Y-114933499D01*
X225381501Y-115046745D01*
X225470471Y-115179899D01*
X225531758Y-115327858D01*
X225563000Y-115484925D01*
X225563000Y-115645075D01*
X225531758Y-115802142D01*
X225470471Y-115950101D01*
X225381501Y-116083255D01*
X225268255Y-116196501D01*
X225135101Y-116285471D01*
X224987142Y-116346758D01*
X224830075Y-116378000D01*
X224669925Y-116378000D01*
X224512858Y-116346758D01*
X224364899Y-116285471D01*
X224231745Y-116196501D01*
X224118499Y-116083255D01*
X224029529Y-115950101D01*
X223968242Y-115802142D01*
X223937000Y-115645075D01*
X223937000Y-115484925D01*
X223968242Y-115327858D01*
X224029529Y-115179899D01*
X224118499Y-115046745D01*
X224231745Y-114933499D01*
X224364899Y-114844529D01*
X224512858Y-114783242D01*
X224669925Y-114752000D01*
X224830075Y-114752000D01*
X224987142Y-114783242D01*
G37*
G36*
X149724549Y-108871116D02*
G01*
X149835734Y-108893232D01*
X150045203Y-108979997D01*
X150233720Y-109105960D01*
X150394040Y-109266280D01*
X150520003Y-109454797D01*
X150520004Y-109454799D01*
X150606768Y-109664267D01*
X150651000Y-109886635D01*
X150651000Y-110113365D01*
X150628884Y-110224549D01*
X150606768Y-110335734D01*
X150520003Y-110545203D01*
X150394040Y-110733720D01*
X150233720Y-110894040D01*
X150045203Y-111020003D01*
X149835734Y-111106768D01*
X149724549Y-111128884D01*
X149613365Y-111151000D01*
X149386635Y-111151000D01*
X149275451Y-111128884D01*
X149164266Y-111106768D01*
X148954797Y-111020003D01*
X148766280Y-110894040D01*
X148605960Y-110733720D01*
X148479997Y-110545203D01*
X148393232Y-110335734D01*
X148371116Y-110224549D01*
X148349000Y-110113365D01*
X148349000Y-109886635D01*
X148393232Y-109664267D01*
X148479996Y-109454799D01*
X148479997Y-109454797D01*
X148605960Y-109266280D01*
X148766280Y-109105960D01*
X148954797Y-108979997D01*
X149164266Y-108893232D01*
X149275451Y-108871116D01*
X149386635Y-108849000D01*
X149613365Y-108849000D01*
X149724549Y-108871116D01*
G37*
G36*
X153534549Y-108871116D02*
G01*
X153645734Y-108893232D01*
X153855203Y-108979997D01*
X154043720Y-109105960D01*
X154204040Y-109266280D01*
X154330003Y-109454797D01*
X154330004Y-109454799D01*
X154416768Y-109664267D01*
X154461000Y-109886635D01*
X154461000Y-110113365D01*
X154438884Y-110224549D01*
X154416768Y-110335734D01*
X154330003Y-110545203D01*
X154204040Y-110733720D01*
X154043720Y-110894040D01*
X153855203Y-111020003D01*
X153645734Y-111106768D01*
X153534549Y-111128884D01*
X153423365Y-111151000D01*
X153196635Y-111151000D01*
X153085451Y-111128884D01*
X152974266Y-111106768D01*
X152764797Y-111020003D01*
X152576280Y-110894040D01*
X152415960Y-110733720D01*
X152289997Y-110545203D01*
X152203232Y-110335734D01*
X152181116Y-110224549D01*
X152159000Y-110113365D01*
X152159000Y-109886635D01*
X152203232Y-109664267D01*
X152289996Y-109454799D01*
X152289997Y-109454797D01*
X152415960Y-109266280D01*
X152576280Y-109105960D01*
X152764797Y-108979997D01*
X152974266Y-108893232D01*
X153085451Y-108871116D01*
X153196635Y-108849000D01*
X153423365Y-108849000D01*
X153534549Y-108871116D01*
G37*
G36*
X157344549Y-108871116D02*
G01*
X157455734Y-108893232D01*
X157665203Y-108979997D01*
X157853720Y-109105960D01*
X158014040Y-109266280D01*
X158140003Y-109454797D01*
X158140004Y-109454799D01*
X158226768Y-109664267D01*
X158271000Y-109886635D01*
X158271000Y-110113365D01*
X158248884Y-110224549D01*
X158226768Y-110335734D01*
X158140003Y-110545203D01*
X158014040Y-110733720D01*
X157853720Y-110894040D01*
X157665203Y-111020003D01*
X157455734Y-111106768D01*
X157344549Y-111128884D01*
X157233365Y-111151000D01*
X157006635Y-111151000D01*
X156895451Y-111128884D01*
X156784266Y-111106768D01*
X156574797Y-111020003D01*
X156386280Y-110894040D01*
X156225960Y-110733720D01*
X156099997Y-110545203D01*
X156013232Y-110335734D01*
X155991116Y-110224549D01*
X155969000Y-110113365D01*
X155969000Y-109886635D01*
X156013232Y-109664267D01*
X156099996Y-109454799D01*
X156099997Y-109454797D01*
X156225960Y-109266280D01*
X156386280Y-109105960D01*
X156574797Y-108979997D01*
X156784266Y-108893232D01*
X156895451Y-108871116D01*
X157006635Y-108849000D01*
X157233365Y-108849000D01*
X157344549Y-108871116D01*
G37*
G36*
X146741000Y-111051000D02*
G01*
X144639000Y-111051000D01*
X144639000Y-108949000D01*
X146741000Y-108949000D01*
X146741000Y-111051000D01*
G37*
G36*
X189309468Y-109053565D02*
G01*
X189348138Y-109065296D01*
X189383777Y-109084346D01*
X189415017Y-109109983D01*
X189440654Y-109141223D01*
X189459704Y-109176862D01*
X189471435Y-109215532D01*
X189476000Y-109261888D01*
X189476000Y-110338112D01*
X189471435Y-110384468D01*
X189459704Y-110423138D01*
X189440654Y-110458777D01*
X189415017Y-110490017D01*
X189383777Y-110515654D01*
X189348138Y-110534704D01*
X189309468Y-110546435D01*
X189263112Y-110551000D01*
X188611888Y-110551000D01*
X188565532Y-110546435D01*
X188526862Y-110534704D01*
X188491223Y-110515654D01*
X188459983Y-110490017D01*
X188434346Y-110458777D01*
X188415296Y-110423138D01*
X188403565Y-110384468D01*
X188399000Y-110338112D01*
X188399000Y-109261888D01*
X188403565Y-109215532D01*
X188415296Y-109176862D01*
X188434346Y-109141223D01*
X188459983Y-109109983D01*
X188491223Y-109084346D01*
X188526862Y-109065296D01*
X188565532Y-109053565D01*
X188611888Y-109049000D01*
X189263112Y-109049000D01*
X189309468Y-109053565D01*
G37*
G36*
X187434468Y-109053565D02*
G01*
X187473138Y-109065296D01*
X187508777Y-109084346D01*
X187540017Y-109109983D01*
X187565654Y-109141223D01*
X187584704Y-109176862D01*
X187596435Y-109215532D01*
X187601000Y-109261888D01*
X187601000Y-110338112D01*
X187596435Y-110384468D01*
X187584704Y-110423138D01*
X187565654Y-110458777D01*
X187540017Y-110490017D01*
X187508777Y-110515654D01*
X187473138Y-110534704D01*
X187434468Y-110546435D01*
X187388112Y-110551000D01*
X186736888Y-110551000D01*
X186690532Y-110546435D01*
X186651862Y-110534704D01*
X186616223Y-110515654D01*
X186584983Y-110490017D01*
X186559346Y-110458777D01*
X186540296Y-110423138D01*
X186528565Y-110384468D01*
X186524000Y-110338112D01*
X186524000Y-109261888D01*
X186528565Y-109215532D01*
X186540296Y-109176862D01*
X186559346Y-109141223D01*
X186584983Y-109109983D01*
X186616223Y-109084346D01*
X186651862Y-109065296D01*
X186690532Y-109053565D01*
X186736888Y-109049000D01*
X187388112Y-109049000D01*
X187434468Y-109053565D01*
G37*
G36*
X179434468Y-109053565D02*
G01*
X179473138Y-109065296D01*
X179508777Y-109084346D01*
X179540017Y-109109983D01*
X179565654Y-109141223D01*
X179584704Y-109176862D01*
X179596435Y-109215532D01*
X179601000Y-109261888D01*
X179601000Y-110338112D01*
X179596435Y-110384468D01*
X179584704Y-110423138D01*
X179565654Y-110458777D01*
X179540017Y-110490017D01*
X179508777Y-110515654D01*
X179473138Y-110534704D01*
X179434468Y-110546435D01*
X179388112Y-110551000D01*
X178736888Y-110551000D01*
X178690532Y-110546435D01*
X178651862Y-110534704D01*
X178616223Y-110515654D01*
X178584983Y-110490017D01*
X178559346Y-110458777D01*
X178540296Y-110423138D01*
X178528565Y-110384468D01*
X178524000Y-110338112D01*
X178524000Y-109261888D01*
X178528565Y-109215532D01*
X178540296Y-109176862D01*
X178559346Y-109141223D01*
X178584983Y-109109983D01*
X178616223Y-109084346D01*
X178651862Y-109065296D01*
X178690532Y-109053565D01*
X178736888Y-109049000D01*
X179388112Y-109049000D01*
X179434468Y-109053565D01*
G37*
G36*
X181309468Y-109053565D02*
G01*
X181348138Y-109065296D01*
X181383777Y-109084346D01*
X181415017Y-109109983D01*
X181440654Y-109141223D01*
X181459704Y-109176862D01*
X181471435Y-109215532D01*
X181476000Y-109261888D01*
X181476000Y-110338112D01*
X181471435Y-110384468D01*
X181459704Y-110423138D01*
X181440654Y-110458777D01*
X181415017Y-110490017D01*
X181383777Y-110515654D01*
X181348138Y-110534704D01*
X181309468Y-110546435D01*
X181263112Y-110551000D01*
X180611888Y-110551000D01*
X180565532Y-110546435D01*
X180526862Y-110534704D01*
X180491223Y-110515654D01*
X180459983Y-110490017D01*
X180434346Y-110458777D01*
X180415296Y-110423138D01*
X180403565Y-110384468D01*
X180399000Y-110338112D01*
X180399000Y-109261888D01*
X180403565Y-109215532D01*
X180415296Y-109176862D01*
X180434346Y-109141223D01*
X180459983Y-109109983D01*
X180491223Y-109084346D01*
X180526862Y-109065296D01*
X180565532Y-109053565D01*
X180611888Y-109049000D01*
X181263112Y-109049000D01*
X181309468Y-109053565D01*
G37*
G36*
X225150098Y-109090362D02*
G01*
X225274941Y-109142074D01*
X225274943Y-109142075D01*
X225327005Y-109176862D01*
X225387299Y-109217149D01*
X225482851Y-109312701D01*
X225557926Y-109425059D01*
X225609638Y-109549902D01*
X225636000Y-109682434D01*
X225636000Y-109817566D01*
X225609638Y-109950098D01*
X225557926Y-110074941D01*
X225557925Y-110074943D01*
X225482851Y-110187299D01*
X225387299Y-110282851D01*
X225274943Y-110357925D01*
X225274942Y-110357926D01*
X225274941Y-110357926D01*
X225150098Y-110409638D01*
X225017566Y-110436000D01*
X224882434Y-110436000D01*
X224749902Y-110409638D01*
X224625059Y-110357926D01*
X224625058Y-110357926D01*
X224625057Y-110357925D01*
X224512701Y-110282851D01*
X224417149Y-110187299D01*
X224342075Y-110074943D01*
X224342074Y-110074941D01*
X224290362Y-109950098D01*
X224264000Y-109817566D01*
X224264000Y-109682434D01*
X224290362Y-109549902D01*
X224342074Y-109425059D01*
X224417149Y-109312701D01*
X224512701Y-109217149D01*
X224572995Y-109176862D01*
X224625057Y-109142075D01*
X224625059Y-109142074D01*
X224749902Y-109090362D01*
X224882434Y-109064000D01*
X225017566Y-109064000D01*
X225150098Y-109090362D01*
G37*
G36*
X173050000Y-108850000D02*
G01*
X169550000Y-108850000D01*
X169550000Y-105350000D01*
X173050000Y-105350000D01*
X173050000Y-108850000D01*
G37*
G36*
X198500000Y-108850000D02*
G01*
X195000000Y-108850000D01*
X195000000Y-105350000D01*
X198500000Y-105350000D01*
X198500000Y-108850000D01*
G37*
G36*
X220050098Y-107490362D02*
G01*
X220174941Y-107542074D01*
X220174943Y-107542075D01*
X220188300Y-107551000D01*
X220287299Y-107617149D01*
X220382851Y-107712701D01*
X220457926Y-107825059D01*
X220509638Y-107949902D01*
X220536000Y-108082434D01*
X220536000Y-108217566D01*
X220509638Y-108350098D01*
X220457926Y-108474941D01*
X220457925Y-108474943D01*
X220382851Y-108587299D01*
X220287299Y-108682851D01*
X220174943Y-108757925D01*
X220174942Y-108757926D01*
X220174941Y-108757926D01*
X220050098Y-108809638D01*
X219917566Y-108836000D01*
X219782434Y-108836000D01*
X219649902Y-108809638D01*
X219525059Y-108757926D01*
X219525058Y-108757926D01*
X219525057Y-108757925D01*
X219412701Y-108682851D01*
X219317149Y-108587299D01*
X219242075Y-108474943D01*
X219242074Y-108474941D01*
X219190362Y-108350098D01*
X219164000Y-108217566D01*
X219164000Y-108082434D01*
X219190362Y-107949902D01*
X219242074Y-107825059D01*
X219317149Y-107712701D01*
X219412701Y-107617149D01*
X219511700Y-107551000D01*
X219525057Y-107542075D01*
X219525059Y-107542074D01*
X219649902Y-107490362D01*
X219782434Y-107464000D01*
X219917566Y-107464000D01*
X220050098Y-107490362D01*
G37*
G36*
X162201000Y-107551000D02*
G01*
X159799000Y-107551000D01*
X159799000Y-105949000D01*
X162201000Y-105949000D01*
X162201000Y-107551000D01*
G37*
G36*
X186044098Y-95347033D02*
G01*
X186508350Y-95539332D01*
X186508352Y-95539333D01*
X186926168Y-95818509D01*
X187281491Y-96173832D01*
X187560667Y-96591648D01*
X187560668Y-96591650D01*
X187752967Y-97055902D01*
X187851000Y-97548747D01*
X187851000Y-98051253D01*
X187752967Y-98544098D01*
X187583823Y-98952449D01*
X187560667Y-99008352D01*
X187281491Y-99426168D01*
X186926168Y-99781491D01*
X186508352Y-100060667D01*
X186508351Y-100060668D01*
X186508350Y-100060668D01*
X186044098Y-100252967D01*
X185551253Y-100351000D01*
X185048747Y-100351000D01*
X184555902Y-100252967D01*
X184091650Y-100060668D01*
X184091649Y-100060668D01*
X184091648Y-100060667D01*
X183673832Y-99781491D01*
X183318509Y-99426168D01*
X183039333Y-99008352D01*
X183016177Y-98952449D01*
X182847033Y-98544098D01*
X182749000Y-98051253D01*
X182749000Y-97548747D01*
X182847033Y-97055902D01*
X183039332Y-96591650D01*
X183039333Y-96591648D01*
X183318509Y-96173832D01*
X183673832Y-95818509D01*
X184091648Y-95539333D01*
X184091650Y-95539332D01*
X184555902Y-95347033D01*
X185048747Y-95249000D01*
X185551253Y-95249000D01*
X186044098Y-95347033D01*
G37*
G36*
X227275256Y-96391298D02*
G01*
X227381579Y-96412447D01*
X227682042Y-96536903D01*
X227952451Y-96717585D01*
X228182415Y-96947549D01*
X228363097Y-97217958D01*
X228446132Y-97418421D01*
X228487553Y-97518422D01*
X228531109Y-97737389D01*
X228551000Y-97837391D01*
X228551000Y-98162609D01*
X228487553Y-98481579D01*
X228363097Y-98782042D01*
X228182415Y-99052451D01*
X227952451Y-99282415D01*
X227682042Y-99463097D01*
X227381579Y-99587553D01*
X227275256Y-99608702D01*
X227062611Y-99651000D01*
X226737389Y-99651000D01*
X226524744Y-99608702D01*
X226418421Y-99587553D01*
X226117958Y-99463097D01*
X225847549Y-99282415D01*
X225617585Y-99052451D01*
X225436903Y-98782042D01*
X225312447Y-98481579D01*
X225249000Y-98162609D01*
X225249000Y-97837391D01*
X225268892Y-97737389D01*
X225312447Y-97518422D01*
X225353869Y-97418421D01*
X225436903Y-97217958D01*
X225617585Y-96947549D01*
X225847549Y-96717585D01*
X226117958Y-96536903D01*
X226418421Y-96412447D01*
X226524744Y-96391298D01*
X226737389Y-96349000D01*
X227062611Y-96349000D01*
X227275256Y-96391298D01*
G37*
G36*
X143475256Y-96291298D02*
G01*
X143581579Y-96312447D01*
X143882042Y-96436903D01*
X144152451Y-96617585D01*
X144382415Y-96847549D01*
X144521632Y-97055902D01*
X144563098Y-97117960D01*
X144687553Y-97418422D01*
X144751000Y-97737389D01*
X144751000Y-98062611D01*
X144708702Y-98275256D01*
X144687553Y-98381579D01*
X144563097Y-98682042D01*
X144382415Y-98952451D01*
X144152451Y-99182415D01*
X143882042Y-99363097D01*
X143581579Y-99487553D01*
X143475256Y-99508702D01*
X143262611Y-99551000D01*
X142937389Y-99551000D01*
X142724744Y-99508702D01*
X142618421Y-99487553D01*
X142317958Y-99363097D01*
X142047549Y-99182415D01*
X141817585Y-98952451D01*
X141636903Y-98682042D01*
X141512447Y-98381579D01*
X141491298Y-98275256D01*
X141449000Y-98062611D01*
X141449000Y-97737389D01*
X141512447Y-97418422D01*
X141636902Y-97117960D01*
X141678368Y-97055902D01*
X141817585Y-96847549D01*
X142047549Y-96617585D01*
X142317958Y-96436903D01*
X142618421Y-96312447D01*
X142724744Y-96291298D01*
X142937389Y-96249000D01*
X143262611Y-96249000D01*
X143475256Y-96291298D01*
G37*
G36*
X186044098Y-86347033D02*
G01*
X186508350Y-86539332D01*
X186508352Y-86539333D01*
X186926168Y-86818509D01*
X187281491Y-87173832D01*
X187560667Y-87591648D01*
X187560668Y-87591650D01*
X187752967Y-88055902D01*
X187851000Y-88548747D01*
X187851000Y-89051253D01*
X187752967Y-89544098D01*
X187560668Y-90008350D01*
X187560667Y-90008352D01*
X187281491Y-90426168D01*
X186926168Y-90781491D01*
X186508352Y-91060667D01*
X186508351Y-91060668D01*
X186508350Y-91060668D01*
X186044098Y-91252967D01*
X185551253Y-91351000D01*
X185048747Y-91351000D01*
X184555902Y-91252967D01*
X184091650Y-91060668D01*
X184091649Y-91060668D01*
X184091648Y-91060667D01*
X183673832Y-90781491D01*
X183318509Y-90426168D01*
X183039333Y-90008352D01*
X183039332Y-90008350D01*
X182847033Y-89544098D01*
X182749000Y-89051253D01*
X182749000Y-88548747D01*
X182847033Y-88055902D01*
X183039332Y-87591650D01*
X183039333Y-87591648D01*
X183318509Y-87173832D01*
X183673832Y-86818509D01*
X184091648Y-86539333D01*
X184091650Y-86539332D01*
X184555902Y-86347033D01*
X185048747Y-86249000D01*
X185551253Y-86249000D01*
X186044098Y-86347033D01*
G37*
G36*
X186044098Y-73347033D02*
G01*
X186508350Y-73539332D01*
X186508352Y-73539333D01*
X186926168Y-73818509D01*
X187281491Y-74173832D01*
X187560667Y-74591648D01*
X187560668Y-74591650D01*
X187752967Y-75055902D01*
X187851000Y-75548747D01*
X187851000Y-76051253D01*
X187752967Y-76544098D01*
X187560668Y-77008350D01*
X187560667Y-77008352D01*
X187281491Y-77426168D01*
X186926168Y-77781491D01*
X186508352Y-78060667D01*
X186508351Y-78060668D01*
X186508350Y-78060668D01*
X186044098Y-78252967D01*
X185551253Y-78351000D01*
X185048747Y-78351000D01*
X184555902Y-78252967D01*
X184091650Y-78060668D01*
X184091649Y-78060668D01*
X184091648Y-78060667D01*
X183673832Y-77781491D01*
X183318509Y-77426168D01*
X183039333Y-77008352D01*
X183039332Y-77008350D01*
X182847033Y-76544098D01*
X182749000Y-76051253D01*
X182749000Y-75548747D01*
X182847033Y-75055902D01*
X183039332Y-74591650D01*
X183039333Y-74591648D01*
X183318509Y-74173832D01*
X183673832Y-73818509D01*
X184091648Y-73539333D01*
X184091650Y-73539332D01*
X184555902Y-73347033D01*
X185048747Y-73249000D01*
X185551253Y-73249000D01*
X186044098Y-73347033D01*
G37*
G36*
X227275256Y-59491298D02*
G01*
X227381579Y-59512447D01*
X227682042Y-59636903D01*
X227952451Y-59817585D01*
X228182415Y-60047549D01*
X228363097Y-60317958D01*
X228487553Y-60618421D01*
X228551000Y-60937391D01*
X228551000Y-61262609D01*
X228487553Y-61581579D01*
X228363097Y-61882042D01*
X228182415Y-62152451D01*
X227952451Y-62382415D01*
X227682042Y-62563097D01*
X227381579Y-62687553D01*
X227275256Y-62708702D01*
X227062611Y-62751000D01*
X226737389Y-62751000D01*
X226524744Y-62708702D01*
X226418421Y-62687553D01*
X226117958Y-62563097D01*
X225847549Y-62382415D01*
X225617585Y-62152451D01*
X225436903Y-61882042D01*
X225312447Y-61581579D01*
X225249000Y-61262609D01*
X225249000Y-60937391D01*
X225312447Y-60618421D01*
X225436903Y-60317958D01*
X225617585Y-60047549D01*
X225847549Y-59817585D01*
X226117958Y-59636903D01*
X226418421Y-59512447D01*
X226524744Y-59491298D01*
X226737389Y-59449000D01*
X227062611Y-59449000D01*
X227275256Y-59491298D01*
G37*
G36*
X143475256Y-59491298D02*
G01*
X143581579Y-59512447D01*
X143882042Y-59636903D01*
X144152451Y-59817585D01*
X144382415Y-60047549D01*
X144563097Y-60317958D01*
X144687553Y-60618421D01*
X144751000Y-60937391D01*
X144751000Y-61262609D01*
X144687553Y-61581579D01*
X144563097Y-61882042D01*
X144382415Y-62152451D01*
X144152451Y-62382415D01*
X143882042Y-62563097D01*
X143581579Y-62687553D01*
X143475256Y-62708702D01*
X143262611Y-62751000D01*
X142937389Y-62751000D01*
X142724744Y-62708702D01*
X142618421Y-62687553D01*
X142317958Y-62563097D01*
X142047549Y-62382415D01*
X141817585Y-62152451D01*
X141636903Y-61882042D01*
X141512447Y-61581579D01*
X141449000Y-61262609D01*
X141449000Y-60937391D01*
X141512447Y-60618421D01*
X141636903Y-60317958D01*
X141817585Y-60047549D01*
X142047549Y-59817585D01*
X142317958Y-59636903D01*
X142618421Y-59512447D01*
X142724744Y-59491298D01*
X142937389Y-59449000D01*
X143262611Y-59449000D01*
X143475256Y-59491298D01*
G37*
M02*
