G04 #@! TF.GenerationSoftware,KiCad,Pcbnew,(5.1.5)-3*
G04 #@! TF.CreationDate,2021-02-24T11:53:18+00:00*
G04 #@! TF.ProjectId,CurrentShuntCircuit,43757272-656e-4745-9368-756e74436972,1*
G04 #@! TF.SameCoordinates,Original*
G04 #@! TF.FileFunction,Paste,Top*
G04 #@! TF.FilePolarity,Positive*
%FSLAX46Y46*%
G04 Gerber Fmt 4.6, Leading zero omitted, Abs format (unit mm)*
G04 Created by KiCad (PCBNEW (5.1.5)-3) date 2021-02-24 11:53:18*
%MOMM*%
%LPD*%
G04 APERTURE LIST*
%ADD10C,0.100000*%
%ADD11R,1.800000X2.500000*%
G04 APERTURE END LIST*
D10*
G36*
X205461756Y-119601806D02*
G01*
X205498159Y-119607206D01*
X205533857Y-119616147D01*
X205568506Y-119628545D01*
X205601774Y-119644280D01*
X205633339Y-119663199D01*
X205662897Y-119685121D01*
X205690165Y-119709835D01*
X205714879Y-119737103D01*
X205736801Y-119766661D01*
X205755720Y-119798226D01*
X205771455Y-119831494D01*
X205783853Y-119866143D01*
X205792794Y-119901841D01*
X205798194Y-119938244D01*
X205800000Y-119975000D01*
X205800000Y-121425000D01*
X205798194Y-121461756D01*
X205792794Y-121498159D01*
X205783853Y-121533857D01*
X205771455Y-121568506D01*
X205755720Y-121601774D01*
X205736801Y-121633339D01*
X205714879Y-121662897D01*
X205690165Y-121690165D01*
X205662897Y-121714879D01*
X205633339Y-121736801D01*
X205601774Y-121755720D01*
X205568506Y-121771455D01*
X205533857Y-121783853D01*
X205498159Y-121792794D01*
X205461756Y-121798194D01*
X205425000Y-121800000D01*
X204675000Y-121800000D01*
X204638244Y-121798194D01*
X204601841Y-121792794D01*
X204566143Y-121783853D01*
X204531494Y-121771455D01*
X204498226Y-121755720D01*
X204466661Y-121736801D01*
X204437103Y-121714879D01*
X204409835Y-121690165D01*
X204385121Y-121662897D01*
X204363199Y-121633339D01*
X204344280Y-121601774D01*
X204328545Y-121568506D01*
X204316147Y-121533857D01*
X204307206Y-121498159D01*
X204301806Y-121461756D01*
X204300000Y-121425000D01*
X204300000Y-119975000D01*
X204301806Y-119938244D01*
X204307206Y-119901841D01*
X204316147Y-119866143D01*
X204328545Y-119831494D01*
X204344280Y-119798226D01*
X204363199Y-119766661D01*
X204385121Y-119737103D01*
X204409835Y-119709835D01*
X204437103Y-119685121D01*
X204466661Y-119663199D01*
X204498226Y-119644280D01*
X204531494Y-119628545D01*
X204566143Y-119616147D01*
X204601841Y-119607206D01*
X204638244Y-119601806D01*
X204675000Y-119600000D01*
X205425000Y-119600000D01*
X205461756Y-119601806D01*
G37*
G36*
X211761756Y-119601806D02*
G01*
X211798159Y-119607206D01*
X211833857Y-119616147D01*
X211868506Y-119628545D01*
X211901774Y-119644280D01*
X211933339Y-119663199D01*
X211962897Y-119685121D01*
X211990165Y-119709835D01*
X212014879Y-119737103D01*
X212036801Y-119766661D01*
X212055720Y-119798226D01*
X212071455Y-119831494D01*
X212083853Y-119866143D01*
X212092794Y-119901841D01*
X212098194Y-119938244D01*
X212100000Y-119975000D01*
X212100000Y-121425000D01*
X212098194Y-121461756D01*
X212092794Y-121498159D01*
X212083853Y-121533857D01*
X212071455Y-121568506D01*
X212055720Y-121601774D01*
X212036801Y-121633339D01*
X212014879Y-121662897D01*
X211990165Y-121690165D01*
X211962897Y-121714879D01*
X211933339Y-121736801D01*
X211901774Y-121755720D01*
X211868506Y-121771455D01*
X211833857Y-121783853D01*
X211798159Y-121792794D01*
X211761756Y-121798194D01*
X211725000Y-121800000D01*
X210975000Y-121800000D01*
X210938244Y-121798194D01*
X210901841Y-121792794D01*
X210866143Y-121783853D01*
X210831494Y-121771455D01*
X210798226Y-121755720D01*
X210766661Y-121736801D01*
X210737103Y-121714879D01*
X210709835Y-121690165D01*
X210685121Y-121662897D01*
X210663199Y-121633339D01*
X210644280Y-121601774D01*
X210628545Y-121568506D01*
X210616147Y-121533857D01*
X210607206Y-121498159D01*
X210601806Y-121461756D01*
X210600000Y-121425000D01*
X210600000Y-119975000D01*
X210601806Y-119938244D01*
X210607206Y-119901841D01*
X210616147Y-119866143D01*
X210628545Y-119831494D01*
X210644280Y-119798226D01*
X210663199Y-119766661D01*
X210685121Y-119737103D01*
X210709835Y-119709835D01*
X210737103Y-119685121D01*
X210766661Y-119663199D01*
X210798226Y-119644280D01*
X210831494Y-119628545D01*
X210866143Y-119616147D01*
X210901841Y-119607206D01*
X210938244Y-119601806D01*
X210975000Y-119600000D01*
X211725000Y-119600000D01*
X211761756Y-119601806D01*
G37*
G36*
X181205142Y-109101174D02*
G01*
X181228803Y-109104684D01*
X181252007Y-109110496D01*
X181274529Y-109118554D01*
X181296153Y-109128782D01*
X181316670Y-109141079D01*
X181335883Y-109155329D01*
X181353607Y-109171393D01*
X181369671Y-109189117D01*
X181383921Y-109208330D01*
X181396218Y-109228847D01*
X181406446Y-109250471D01*
X181414504Y-109272993D01*
X181420316Y-109296197D01*
X181423826Y-109319858D01*
X181425000Y-109343750D01*
X181425000Y-110256250D01*
X181423826Y-110280142D01*
X181420316Y-110303803D01*
X181414504Y-110327007D01*
X181406446Y-110349529D01*
X181396218Y-110371153D01*
X181383921Y-110391670D01*
X181369671Y-110410883D01*
X181353607Y-110428607D01*
X181335883Y-110444671D01*
X181316670Y-110458921D01*
X181296153Y-110471218D01*
X181274529Y-110481446D01*
X181252007Y-110489504D01*
X181228803Y-110495316D01*
X181205142Y-110498826D01*
X181181250Y-110500000D01*
X180693750Y-110500000D01*
X180669858Y-110498826D01*
X180646197Y-110495316D01*
X180622993Y-110489504D01*
X180600471Y-110481446D01*
X180578847Y-110471218D01*
X180558330Y-110458921D01*
X180539117Y-110444671D01*
X180521393Y-110428607D01*
X180505329Y-110410883D01*
X180491079Y-110391670D01*
X180478782Y-110371153D01*
X180468554Y-110349529D01*
X180460496Y-110327007D01*
X180454684Y-110303803D01*
X180451174Y-110280142D01*
X180450000Y-110256250D01*
X180450000Y-109343750D01*
X180451174Y-109319858D01*
X180454684Y-109296197D01*
X180460496Y-109272993D01*
X180468554Y-109250471D01*
X180478782Y-109228847D01*
X180491079Y-109208330D01*
X180505329Y-109189117D01*
X180521393Y-109171393D01*
X180539117Y-109155329D01*
X180558330Y-109141079D01*
X180578847Y-109128782D01*
X180600471Y-109118554D01*
X180622993Y-109110496D01*
X180646197Y-109104684D01*
X180669858Y-109101174D01*
X180693750Y-109100000D01*
X181181250Y-109100000D01*
X181205142Y-109101174D01*
G37*
G36*
X179330142Y-109101174D02*
G01*
X179353803Y-109104684D01*
X179377007Y-109110496D01*
X179399529Y-109118554D01*
X179421153Y-109128782D01*
X179441670Y-109141079D01*
X179460883Y-109155329D01*
X179478607Y-109171393D01*
X179494671Y-109189117D01*
X179508921Y-109208330D01*
X179521218Y-109228847D01*
X179531446Y-109250471D01*
X179539504Y-109272993D01*
X179545316Y-109296197D01*
X179548826Y-109319858D01*
X179550000Y-109343750D01*
X179550000Y-110256250D01*
X179548826Y-110280142D01*
X179545316Y-110303803D01*
X179539504Y-110327007D01*
X179531446Y-110349529D01*
X179521218Y-110371153D01*
X179508921Y-110391670D01*
X179494671Y-110410883D01*
X179478607Y-110428607D01*
X179460883Y-110444671D01*
X179441670Y-110458921D01*
X179421153Y-110471218D01*
X179399529Y-110481446D01*
X179377007Y-110489504D01*
X179353803Y-110495316D01*
X179330142Y-110498826D01*
X179306250Y-110500000D01*
X178818750Y-110500000D01*
X178794858Y-110498826D01*
X178771197Y-110495316D01*
X178747993Y-110489504D01*
X178725471Y-110481446D01*
X178703847Y-110471218D01*
X178683330Y-110458921D01*
X178664117Y-110444671D01*
X178646393Y-110428607D01*
X178630329Y-110410883D01*
X178616079Y-110391670D01*
X178603782Y-110371153D01*
X178593554Y-110349529D01*
X178585496Y-110327007D01*
X178579684Y-110303803D01*
X178576174Y-110280142D01*
X178575000Y-110256250D01*
X178575000Y-109343750D01*
X178576174Y-109319858D01*
X178579684Y-109296197D01*
X178585496Y-109272993D01*
X178593554Y-109250471D01*
X178603782Y-109228847D01*
X178616079Y-109208330D01*
X178630329Y-109189117D01*
X178646393Y-109171393D01*
X178664117Y-109155329D01*
X178683330Y-109141079D01*
X178703847Y-109128782D01*
X178725471Y-109118554D01*
X178747993Y-109110496D01*
X178771197Y-109104684D01*
X178794858Y-109101174D01*
X178818750Y-109100000D01*
X179306250Y-109100000D01*
X179330142Y-109101174D01*
G37*
G36*
X189205142Y-109101174D02*
G01*
X189228803Y-109104684D01*
X189252007Y-109110496D01*
X189274529Y-109118554D01*
X189296153Y-109128782D01*
X189316670Y-109141079D01*
X189335883Y-109155329D01*
X189353607Y-109171393D01*
X189369671Y-109189117D01*
X189383921Y-109208330D01*
X189396218Y-109228847D01*
X189406446Y-109250471D01*
X189414504Y-109272993D01*
X189420316Y-109296197D01*
X189423826Y-109319858D01*
X189425000Y-109343750D01*
X189425000Y-110256250D01*
X189423826Y-110280142D01*
X189420316Y-110303803D01*
X189414504Y-110327007D01*
X189406446Y-110349529D01*
X189396218Y-110371153D01*
X189383921Y-110391670D01*
X189369671Y-110410883D01*
X189353607Y-110428607D01*
X189335883Y-110444671D01*
X189316670Y-110458921D01*
X189296153Y-110471218D01*
X189274529Y-110481446D01*
X189252007Y-110489504D01*
X189228803Y-110495316D01*
X189205142Y-110498826D01*
X189181250Y-110500000D01*
X188693750Y-110500000D01*
X188669858Y-110498826D01*
X188646197Y-110495316D01*
X188622993Y-110489504D01*
X188600471Y-110481446D01*
X188578847Y-110471218D01*
X188558330Y-110458921D01*
X188539117Y-110444671D01*
X188521393Y-110428607D01*
X188505329Y-110410883D01*
X188491079Y-110391670D01*
X188478782Y-110371153D01*
X188468554Y-110349529D01*
X188460496Y-110327007D01*
X188454684Y-110303803D01*
X188451174Y-110280142D01*
X188450000Y-110256250D01*
X188450000Y-109343750D01*
X188451174Y-109319858D01*
X188454684Y-109296197D01*
X188460496Y-109272993D01*
X188468554Y-109250471D01*
X188478782Y-109228847D01*
X188491079Y-109208330D01*
X188505329Y-109189117D01*
X188521393Y-109171393D01*
X188539117Y-109155329D01*
X188558330Y-109141079D01*
X188578847Y-109128782D01*
X188600471Y-109118554D01*
X188622993Y-109110496D01*
X188646197Y-109104684D01*
X188669858Y-109101174D01*
X188693750Y-109100000D01*
X189181250Y-109100000D01*
X189205142Y-109101174D01*
G37*
G36*
X187330142Y-109101174D02*
G01*
X187353803Y-109104684D01*
X187377007Y-109110496D01*
X187399529Y-109118554D01*
X187421153Y-109128782D01*
X187441670Y-109141079D01*
X187460883Y-109155329D01*
X187478607Y-109171393D01*
X187494671Y-109189117D01*
X187508921Y-109208330D01*
X187521218Y-109228847D01*
X187531446Y-109250471D01*
X187539504Y-109272993D01*
X187545316Y-109296197D01*
X187548826Y-109319858D01*
X187550000Y-109343750D01*
X187550000Y-110256250D01*
X187548826Y-110280142D01*
X187545316Y-110303803D01*
X187539504Y-110327007D01*
X187531446Y-110349529D01*
X187521218Y-110371153D01*
X187508921Y-110391670D01*
X187494671Y-110410883D01*
X187478607Y-110428607D01*
X187460883Y-110444671D01*
X187441670Y-110458921D01*
X187421153Y-110471218D01*
X187399529Y-110481446D01*
X187377007Y-110489504D01*
X187353803Y-110495316D01*
X187330142Y-110498826D01*
X187306250Y-110500000D01*
X186818750Y-110500000D01*
X186794858Y-110498826D01*
X186771197Y-110495316D01*
X186747993Y-110489504D01*
X186725471Y-110481446D01*
X186703847Y-110471218D01*
X186683330Y-110458921D01*
X186664117Y-110444671D01*
X186646393Y-110428607D01*
X186630329Y-110410883D01*
X186616079Y-110391670D01*
X186603782Y-110371153D01*
X186593554Y-110349529D01*
X186585496Y-110327007D01*
X186579684Y-110303803D01*
X186576174Y-110280142D01*
X186575000Y-110256250D01*
X186575000Y-109343750D01*
X186576174Y-109319858D01*
X186579684Y-109296197D01*
X186585496Y-109272993D01*
X186593554Y-109250471D01*
X186603782Y-109228847D01*
X186616079Y-109208330D01*
X186630329Y-109189117D01*
X186646393Y-109171393D01*
X186664117Y-109155329D01*
X186683330Y-109141079D01*
X186703847Y-109128782D01*
X186725471Y-109118554D01*
X186747993Y-109110496D01*
X186771197Y-109104684D01*
X186794858Y-109101174D01*
X186818750Y-109100000D01*
X187306250Y-109100000D01*
X187330142Y-109101174D01*
G37*
D11*
X216050000Y-122950000D03*
X216050000Y-118950000D03*
M02*
