G04 #@! TF.GenerationSoftware,KiCad,Pcbnew,5.1.9+dfsg1-1~bpo10+1*
G04 #@! TF.CreationDate,2022-02-04T12:18:33+00:00*
G04 #@! TF.ProjectId,CurrentShuntCircuit,43757272-656e-4745-9368-756e74436972,1*
G04 #@! TF.SameCoordinates,Original*
G04 #@! TF.FileFunction,Soldermask,Top*
G04 #@! TF.FilePolarity,Negative*
%FSLAX46Y46*%
G04 Gerber Fmt 4.6, Leading zero omitted, Abs format (unit mm)*
G04 Created by KiCad (PCBNEW 5.1.9+dfsg1-1~bpo10+1) date 2022-02-04 12:18:33*
%MOMM*%
%LPD*%
G01*
G04 APERTURE LIST*
%ADD10C,2.302000*%
%ADD11O,7.000000X12.000000*%
%ADD12O,7.000000X22.000000*%
%ADD13O,1.702000X1.702000*%
%ADD14O,1.802000X1.802000*%
%ADD15C,3.302000*%
%ADD16C,1.902000*%
%ADD17C,1.372000*%
%ADD18C,0.100000*%
G04 APERTURE END LIST*
D10*
X157120000Y-110300000D03*
X153310000Y-110300000D03*
X149500000Y-110300000D03*
G36*
G01*
X144639000Y-111300000D02*
X144639000Y-109300000D01*
G75*
G02*
X144690000Y-109249000I51000J0D01*
G01*
X146690000Y-109249000D01*
G75*
G02*
X146741000Y-109300000I0J-51000D01*
G01*
X146741000Y-111300000D01*
G75*
G02*
X146690000Y-111351000I-51000J0D01*
G01*
X144690000Y-111351000D01*
G75*
G02*
X144639000Y-111300000I0J51000D01*
G01*
G37*
G36*
G01*
X160899000Y-106850000D02*
X160899000Y-105350000D01*
G75*
G02*
X160950000Y-105299000I51000J0D01*
G01*
X161950000Y-105299000D01*
G75*
G02*
X162001000Y-105350000I0J-51000D01*
G01*
X162001000Y-106850000D01*
G75*
G02*
X161950000Y-106901000I-51000J0D01*
G01*
X160950000Y-106901000D01*
G75*
G02*
X160899000Y-106850000I0J51000D01*
G01*
G37*
G36*
G01*
X159599000Y-106850000D02*
X159599000Y-105350000D01*
G75*
G02*
X159650000Y-105299000I51000J0D01*
G01*
X160650000Y-105299000D01*
G75*
G02*
X160701000Y-105350000I0J-51000D01*
G01*
X160701000Y-106850000D01*
G75*
G02*
X160650000Y-106901000I-51000J0D01*
G01*
X159650000Y-106901000D01*
G75*
G02*
X159599000Y-106850000I0J51000D01*
G01*
G37*
D11*
X185057000Y-96271000D03*
D12*
X185087000Y-70771000D03*
D13*
X184410000Y-116680000D03*
X186950000Y-124300000D03*
X186950000Y-116680000D03*
G36*
G01*
X185210000Y-125151000D02*
X183610000Y-125151000D01*
G75*
G02*
X183559000Y-125100000I0J51000D01*
G01*
X183559000Y-123500000D01*
G75*
G02*
X183610000Y-123449000I51000J0D01*
G01*
X185210000Y-123449000D01*
G75*
G02*
X185261000Y-123500000I0J-51000D01*
G01*
X185261000Y-125100000D01*
G75*
G02*
X185210000Y-125151000I-51000J0D01*
G01*
G37*
D14*
X179020000Y-121460000D03*
X176480000Y-121460000D03*
X173940000Y-121460000D03*
X171400000Y-121460000D03*
X168860000Y-121460000D03*
X166320000Y-121460000D03*
X163780000Y-121460000D03*
G36*
G01*
X162090000Y-122361000D02*
X160390000Y-122361000D01*
G75*
G02*
X160339000Y-122310000I0J51000D01*
G01*
X160339000Y-120610000D01*
G75*
G02*
X160390000Y-120559000I51000J0D01*
G01*
X162090000Y-120559000D01*
G75*
G02*
X162141000Y-120610000I0J-51000D01*
G01*
X162141000Y-122310000D01*
G75*
G02*
X162090000Y-122361000I-51000J0D01*
G01*
G37*
D10*
X225020000Y-113510000D03*
X221210000Y-113510000D03*
X217400000Y-113510000D03*
G36*
G01*
X212539000Y-114510000D02*
X212539000Y-112510000D01*
G75*
G02*
X212590000Y-112459000I51000J0D01*
G01*
X214590000Y-112459000D01*
G75*
G02*
X214641000Y-112510000I0J-51000D01*
G01*
X214641000Y-114510000D01*
G75*
G02*
X214590000Y-114561000I-51000J0D01*
G01*
X212590000Y-114561000D01*
G75*
G02*
X212539000Y-114510000I0J51000D01*
G01*
G37*
D15*
X143100000Y-97900000D03*
X226900000Y-98000000D03*
X226900000Y-61100000D03*
X143100000Y-61100000D03*
X143100000Y-126900000D03*
X226900000Y-126900000D03*
G36*
G01*
X193129000Y-115250000D02*
X193129000Y-113450000D01*
G75*
G02*
X193180000Y-113399000I51000J0D01*
G01*
X194980000Y-113399000D01*
G75*
G02*
X195031000Y-113450000I0J-51000D01*
G01*
X195031000Y-115250000D01*
G75*
G02*
X194980000Y-115301000I-51000J0D01*
G01*
X193180000Y-115301000D01*
G75*
G02*
X193129000Y-115250000I0J51000D01*
G01*
G37*
D16*
X197880000Y-114350000D03*
G36*
G01*
X169550000Y-108350000D02*
X169550000Y-105850000D01*
G75*
G02*
X170050000Y-105350000I500000J0D01*
G01*
X172550000Y-105350000D01*
G75*
G02*
X173050000Y-105850000I0J-500000D01*
G01*
X173050000Y-108350000D01*
G75*
G02*
X172550000Y-108850000I-500000J0D01*
G01*
X170050000Y-108850000D01*
G75*
G02*
X169550000Y-108350000I0J500000D01*
G01*
G37*
G36*
G01*
X195000000Y-108350000D02*
X195000000Y-105850000D01*
G75*
G02*
X195500000Y-105350000I500000J0D01*
G01*
X198000000Y-105350000D01*
G75*
G02*
X198500000Y-105850000I0J-500000D01*
G01*
X198500000Y-108350000D01*
G75*
G02*
X198000000Y-108850000I-500000J0D01*
G01*
X195500000Y-108850000D01*
G75*
G02*
X195000000Y-108350000I0J500000D01*
G01*
G37*
D17*
X219850000Y-106030000D03*
X224950000Y-107630000D03*
G36*
G01*
X180399000Y-110281750D02*
X180399000Y-109318250D01*
G75*
G02*
X180668250Y-109049000I269250J0D01*
G01*
X181206750Y-109049000D01*
G75*
G02*
X181476000Y-109318250I0J-269250D01*
G01*
X181476000Y-110281750D01*
G75*
G02*
X181206750Y-110551000I-269250J0D01*
G01*
X180668250Y-110551000D01*
G75*
G02*
X180399000Y-110281750I0J269250D01*
G01*
G37*
G36*
G01*
X178524000Y-110281750D02*
X178524000Y-109318250D01*
G75*
G02*
X178793250Y-109049000I269250J0D01*
G01*
X179331750Y-109049000D01*
G75*
G02*
X179601000Y-109318250I0J-269250D01*
G01*
X179601000Y-110281750D01*
G75*
G02*
X179331750Y-110551000I-269250J0D01*
G01*
X178793250Y-110551000D01*
G75*
G02*
X178524000Y-110281750I0J269250D01*
G01*
G37*
G36*
G01*
X188399000Y-110281750D02*
X188399000Y-109318250D01*
G75*
G02*
X188668250Y-109049000I269250J0D01*
G01*
X189206750Y-109049000D01*
G75*
G02*
X189476000Y-109318250I0J-269250D01*
G01*
X189476000Y-110281750D01*
G75*
G02*
X189206750Y-110551000I-269250J0D01*
G01*
X188668250Y-110551000D01*
G75*
G02*
X188399000Y-110281750I0J269250D01*
G01*
G37*
G36*
G01*
X186524000Y-110281750D02*
X186524000Y-109318250D01*
G75*
G02*
X186793250Y-109049000I269250J0D01*
G01*
X187331750Y-109049000D01*
G75*
G02*
X187601000Y-109318250I0J-269250D01*
G01*
X187601000Y-110281750D01*
G75*
G02*
X187331750Y-110551000I-269250J0D01*
G01*
X186793250Y-110551000D01*
G75*
G02*
X186524000Y-110281750I0J269250D01*
G01*
G37*
D18*
G36*
X160900732Y-105298000D02*
G01*
X160901000Y-105299000D01*
X160901000Y-106901000D01*
X160900000Y-106902732D01*
X160899000Y-106903000D01*
X160701000Y-106903000D01*
X160699268Y-106902000D01*
X160699000Y-106901000D01*
X160699000Y-105299000D01*
X160700000Y-105297268D01*
X160701000Y-105297000D01*
X160899000Y-105297000D01*
X160900732Y-105298000D01*
G37*
M02*
