M48
; DRILL file {KiCad 5.1.9+dfsg1-1~bpo10+1} date Wed Jun  9 09:20:32 2021
; FORMAT={-:-/ absolute / inch / decimal}
; #@! TF.CreationDate,2021-06-09T09:20:32+00:00
; #@! TF.GenerationSoftware,Kicad,Pcbnew,5.1.9+dfsg1-1~bpo10+1
FMAT,2
INCH
T1C0.0157
T2C0.0280
T3C0.0315
T4C0.0394
T5C0.0433
T6C0.0512
T7C0.0551
T8C0.1260
T9C0.1969
%
G90
G05
T1
X5.7776Y-4.75
X5.8563Y-4.6024
X5.8957Y-4.6024
X5.935Y-4.6024
X6.0866Y-4.7638
X6.1083Y-4.6724
X6.1417Y-4.75
X6.1437Y-4.6724
X6.2039Y-4.6724
X6.2047Y-4.5974
X6.2425Y-4.6724
X6.278Y-4.6089
X6.2866Y-4.6717
X6.2932Y-4.3676
X6.3027Y-4.3012
X6.3496Y-4.5398
X6.437Y-4.124
X6.4567Y-4.2421
X6.5123Y-4.1732
X6.5157Y-4.3012
X6.5551Y-4.502
X6.5551Y-4.5677
X6.5748Y-4.3799
X6.5787Y-4.2402
X6.5961Y-4.7059
X6.6142Y-4.2402
X6.6732Y-4.4606
X6.6772Y-4.5209
X6.72Y-4.4585
X6.7717Y-4.4585
X6.8134Y-4.7055
X6.8209Y-4.4585
X6.8462Y-4.6754
X6.8728Y-4.4591
X6.9528Y-4.2264
X6.9803Y-4.5764
X7.0157Y-4.5764
X7.0512Y-4.4291
X7.0866Y-4.4291
X7.0885Y-4.6789
X7.1555Y-4.1398
X7.228Y-4.452
X7.2723Y-4.4757
X7.2732Y-4.524
X7.3504Y-4.3949
X7.4185Y-4.4756
X7.4398Y-4.5248
X7.4583Y-4.4744
X7.4976Y-4.4744
X7.8756Y-4.2823
X7.8902Y-4.1819
X7.9311Y-4.5945
X7.9764Y-4.4067
X8.0638Y-4.2634
X8.1488Y-4.5398
X8.1677Y-4.1224
X8.1976Y-4.3984
X8.215Y-4.0835
X8.224Y-4.3126
X8.2707Y-4.1744
X8.3563Y-4.6909
X8.5445Y-4.7681
X8.5457Y-4.8079
X8.5457Y-4.8472
X8.5799Y-4.7681
X8.5811Y-4.8079
X8.5811Y-4.8472
T2
X8.6555Y-4.1744
X8.8563Y-4.2374
T3
X7.2602Y-4.5937
X7.2602Y-4.8937
X7.3602Y-4.5937
X7.3602Y-4.8937
T4
X6.348Y-4.7819
X6.448Y-4.7819
X6.548Y-4.7819
X6.648Y-4.7819
X6.748Y-4.7819
X6.848Y-4.7819
X6.948Y-4.7819
X7.048Y-4.7819
X7.6409Y-4.502
X7.7906Y-4.502
T5
X5.7358Y-4.3307
X5.8858Y-4.3307
X6.0358Y-4.3307
X6.1858Y-4.3307
T6
X8.4091Y-4.4689
X8.5591Y-4.4689
X8.7091Y-4.4689
X8.8591Y-4.4689
T7
X6.7441Y-4.2165
X7.7461Y-4.2165
T8
X5.6339Y-2.4055
X5.6339Y-3.8543
X5.6339Y-4.9961
X8.9331Y-2.4055
X8.9331Y-3.8583
X8.9331Y-4.9961
T9
X7.2953Y-2.9843
X7.2953Y-3.4961
X7.2953Y-3.8504
T9
G00X7.2953Y-2.7106
M15
G01X7.2953Y-3.1634
M16
G05
T0
M30
