G04 #@! TF.GenerationSoftware,KiCad,Pcbnew,5.1.9+dfsg1-1~bpo10+1*
G04 #@! TF.CreationDate,2021-05-14T11:02:45+00:00*
G04 #@! TF.ProjectId,CurrentShuntCircuit,43757272-656e-4745-9368-756e74436972,1*
G04 #@! TF.SameCoordinates,Original*
G04 #@! TF.FileFunction,Legend,Top*
G04 #@! TF.FilePolarity,Positive*
%FSLAX46Y46*%
G04 Gerber Fmt 4.6, Leading zero omitted, Abs format (unit mm)*
G04 Created by KiCad (PCBNEW 5.1.9+dfsg1-1~bpo10+1) date 2021-05-14 11:02:45*
%MOMM*%
%LPD*%
G01*
G04 APERTURE LIST*
%ADD10C,0.120000*%
%ADD11C,0.200000*%
%ADD12C,0.150000*%
%ADD13C,0.100000*%
G04 APERTURE END LIST*
D10*
X143800000Y-129400000D02*
X143800000Y-105500000D01*
X159200000Y-129400000D02*
X143800000Y-129400000D01*
X159200000Y-105500000D02*
X159200000Y-129400000D01*
X143800000Y-105500000D02*
X159200000Y-105500000D01*
D11*
X153314285Y-128467142D02*
X153371428Y-128295714D01*
X153428571Y-128238571D01*
X153542857Y-128181428D01*
X153714285Y-128181428D01*
X153828571Y-128238571D01*
X153885714Y-128295714D01*
X153942857Y-128409999D01*
X153942857Y-128867142D01*
X152742857Y-128867142D01*
X152742857Y-128467142D01*
X152800000Y-128352857D01*
X152857142Y-128295714D01*
X152971428Y-128238571D01*
X153085714Y-128238571D01*
X153200000Y-128295714D01*
X153257142Y-128352857D01*
X153314285Y-128467142D01*
X153314285Y-128867142D01*
X156500000Y-128268571D02*
X156442857Y-128382857D01*
X156442857Y-128554286D01*
X156500000Y-128725714D01*
X156614285Y-128840000D01*
X156728571Y-128897143D01*
X156957142Y-128954286D01*
X157128571Y-128954286D01*
X157357142Y-128897143D01*
X157471428Y-128840000D01*
X157585714Y-128725714D01*
X157642857Y-128554286D01*
X157642857Y-128440000D01*
X157585714Y-128268571D01*
X157528571Y-128211428D01*
X157128571Y-128211428D01*
X157128571Y-128440000D01*
X157642857Y-127697143D02*
X156442857Y-127697143D01*
X157642857Y-127011428D01*
X156442857Y-127011428D01*
X157642857Y-126440000D02*
X156442857Y-126440000D01*
X156442857Y-126154286D01*
X156500000Y-125982857D01*
X156614285Y-125868571D01*
X156728571Y-125811428D01*
X156957142Y-125754286D01*
X157128571Y-125754286D01*
X157357142Y-125811428D01*
X157471428Y-125868571D01*
X157585714Y-125982857D01*
X157642857Y-126154286D01*
X157642857Y-126440000D01*
X145905714Y-128897143D02*
X145905714Y-127982857D01*
X146362857Y-128440000D02*
X145448571Y-128440000D01*
X145162857Y-126840000D02*
X145162857Y-127411428D01*
X145734285Y-127468571D01*
X145677142Y-127411428D01*
X145620000Y-127297143D01*
X145620000Y-127011428D01*
X145677142Y-126897143D01*
X145734285Y-126840000D01*
X145848571Y-126782857D01*
X146134285Y-126782857D01*
X146248571Y-126840000D01*
X146305714Y-126897143D01*
X146362857Y-127011428D01*
X146362857Y-127297143D01*
X146305714Y-127411428D01*
X146248571Y-127468571D01*
X145162857Y-126440000D02*
X146362857Y-126040000D01*
X145162857Y-125640000D01*
X149720000Y-128924285D02*
X149720000Y-128352857D01*
X150062857Y-129038571D02*
X148862857Y-128638571D01*
X150062857Y-128238571D01*
D12*
X165607023Y-127402380D02*
X165659404Y-127350000D01*
X165764166Y-127297619D01*
X166026071Y-127297619D01*
X166130833Y-127350000D01*
X166183214Y-127402380D01*
X166235595Y-127507142D01*
X166235595Y-127611904D01*
X166183214Y-127769047D01*
X165554642Y-128397619D01*
X166235595Y-128397619D01*
X167178452Y-127664285D02*
X167178452Y-128397619D01*
X166916547Y-127245238D02*
X166654642Y-128030952D01*
X167335595Y-128030952D01*
X167807023Y-128397619D02*
X168016547Y-128397619D01*
X168121309Y-128345238D01*
X168173690Y-128292857D01*
X168278452Y-128135714D01*
X168330833Y-127926190D01*
X168330833Y-127507142D01*
X168278452Y-127402380D01*
X168226071Y-127350000D01*
X168121309Y-127297619D01*
X167911785Y-127297619D01*
X167807023Y-127350000D01*
X167754642Y-127402380D01*
X167702261Y-127507142D01*
X167702261Y-127769047D01*
X167754642Y-127873809D01*
X167807023Y-127926190D01*
X167911785Y-127978571D01*
X168121309Y-127978571D01*
X168226071Y-127926190D01*
X168278452Y-127873809D01*
X168330833Y-127769047D01*
X169273690Y-128397619D02*
X169273690Y-127821428D01*
X169221309Y-127716666D01*
X169116547Y-127664285D01*
X168907023Y-127664285D01*
X168802261Y-127716666D01*
X169273690Y-128345238D02*
X169168928Y-128397619D01*
X168907023Y-128397619D01*
X168802261Y-128345238D01*
X168749880Y-128240476D01*
X168749880Y-128135714D01*
X168802261Y-128030952D01*
X168907023Y-127978571D01*
X169168928Y-127978571D01*
X169273690Y-127926190D01*
X169745119Y-127402380D02*
X169797500Y-127350000D01*
X169902261Y-127297619D01*
X170164166Y-127297619D01*
X170268928Y-127350000D01*
X170321309Y-127402380D01*
X170373690Y-127507142D01*
X170373690Y-127611904D01*
X170321309Y-127769047D01*
X169692738Y-128397619D01*
X170373690Y-128397619D01*
X171264166Y-128345238D02*
X171159404Y-128397619D01*
X170949880Y-128397619D01*
X170845119Y-128345238D01*
X170792738Y-128240476D01*
X170792738Y-127821428D01*
X170845119Y-127716666D01*
X170949880Y-127664285D01*
X171159404Y-127664285D01*
X171264166Y-127716666D01*
X171316547Y-127821428D01*
X171316547Y-127926190D01*
X170792738Y-128030952D01*
X171630833Y-127664285D02*
X172049880Y-127664285D01*
X171787976Y-128397619D02*
X171787976Y-127454761D01*
X171840357Y-127350000D01*
X171945119Y-127297619D01*
X172049880Y-127297619D01*
X187300000Y-129411904D02*
X187300000Y-128888095D01*
X187642857Y-129516666D02*
X186442857Y-129150000D01*
X187642857Y-128783333D01*
X187642857Y-128416666D02*
X186442857Y-128416666D01*
X186442857Y-128154761D01*
X186500000Y-127997619D01*
X186614285Y-127892857D01*
X186728571Y-127840476D01*
X186957142Y-127788095D01*
X187128571Y-127788095D01*
X187357142Y-127840476D01*
X187471428Y-127892857D01*
X187585714Y-127997619D01*
X187642857Y-128154761D01*
X187642857Y-128416666D01*
X187642857Y-127316666D02*
X186442857Y-127316666D01*
X186442857Y-127054761D01*
X186500000Y-126897619D01*
X186614285Y-126792857D01*
X186728571Y-126740476D01*
X186957142Y-126688095D01*
X187128571Y-126688095D01*
X187357142Y-126740476D01*
X187471428Y-126792857D01*
X187585714Y-126897619D01*
X187642857Y-127054761D01*
X187642857Y-127316666D01*
X187642857Y-125588095D02*
X187071428Y-125954761D01*
X187642857Y-126216666D02*
X186442857Y-126216666D01*
X186442857Y-125797619D01*
X186500000Y-125692857D01*
X186557142Y-125640476D01*
X186671428Y-125588095D01*
X186842857Y-125588095D01*
X186957142Y-125640476D01*
X187014285Y-125692857D01*
X187071428Y-125797619D01*
X187071428Y-126216666D01*
D10*
X159970000Y-125610000D02*
X180320000Y-125610000D01*
D13*
X228572380Y-77039047D02*
X229286666Y-77039047D01*
X229429523Y-77086666D01*
X229524761Y-77181904D01*
X229572380Y-77324761D01*
X229572380Y-77420000D01*
X229572380Y-76086666D02*
X229572380Y-76562857D01*
X228572380Y-76562857D01*
X229477142Y-75181904D02*
X229524761Y-75229523D01*
X229572380Y-75372380D01*
X229572380Y-75467619D01*
X229524761Y-75610476D01*
X229429523Y-75705714D01*
X229334285Y-75753333D01*
X229143809Y-75800952D01*
X229000952Y-75800952D01*
X228810476Y-75753333D01*
X228715238Y-75705714D01*
X228620000Y-75610476D01*
X228572380Y-75467619D01*
X228572380Y-75372380D01*
X228620000Y-75229523D01*
X228667619Y-75181904D01*
X228572380Y-74467619D02*
X229286666Y-74467619D01*
X229429523Y-74515238D01*
X229524761Y-74610476D01*
X229572380Y-74753333D01*
X229572380Y-74848571D01*
X229572380Y-73515238D02*
X229572380Y-73991428D01*
X228572380Y-73991428D01*
X229477142Y-72610476D02*
X229524761Y-72658095D01*
X229572380Y-72800952D01*
X229572380Y-72896190D01*
X229524761Y-73039047D01*
X229429523Y-73134285D01*
X229334285Y-73181904D01*
X229143809Y-73229523D01*
X229000952Y-73229523D01*
X228810476Y-73181904D01*
X228715238Y-73134285D01*
X228620000Y-73039047D01*
X228572380Y-72896190D01*
X228572380Y-72800952D01*
X228620000Y-72658095D01*
X228667619Y-72610476D01*
X228572380Y-71896190D02*
X229286666Y-71896190D01*
X229429523Y-71943809D01*
X229524761Y-72039047D01*
X229572380Y-72181904D01*
X229572380Y-72277142D01*
X229572380Y-70943809D02*
X229572380Y-71420000D01*
X228572380Y-71420000D01*
X229477142Y-70039047D02*
X229524761Y-70086666D01*
X229572380Y-70229523D01*
X229572380Y-70324761D01*
X229524761Y-70467619D01*
X229429523Y-70562857D01*
X229334285Y-70610476D01*
X229143809Y-70658095D01*
X229000952Y-70658095D01*
X228810476Y-70610476D01*
X228715238Y-70562857D01*
X228620000Y-70467619D01*
X228572380Y-70324761D01*
X228572380Y-70229523D01*
X228620000Y-70086666D01*
X228667619Y-70039047D01*
X228572380Y-69324761D02*
X229286666Y-69324761D01*
X229429523Y-69372380D01*
X229524761Y-69467619D01*
X229572380Y-69610476D01*
X229572380Y-69705714D01*
X229572380Y-68372380D02*
X229572380Y-68848571D01*
X228572380Y-68848571D01*
X229477142Y-67467619D02*
X229524761Y-67515238D01*
X229572380Y-67658095D01*
X229572380Y-67753333D01*
X229524761Y-67896190D01*
X229429523Y-67991428D01*
X229334285Y-68039047D01*
X229143809Y-68086666D01*
X229000952Y-68086666D01*
X228810476Y-68039047D01*
X228715238Y-67991428D01*
X228620000Y-67896190D01*
X228572380Y-67753333D01*
X228572380Y-67658095D01*
X228620000Y-67515238D01*
X228667619Y-67467619D01*
D11*
X216720000Y-128138571D02*
X216662857Y-128252857D01*
X216662857Y-128424285D01*
X216720000Y-128595714D01*
X216834285Y-128709999D01*
X216948571Y-128767142D01*
X217177142Y-128824285D01*
X217348571Y-128824285D01*
X217577142Y-128767142D01*
X217691428Y-128709999D01*
X217805714Y-128595714D01*
X217862857Y-128424285D01*
X217862857Y-128309999D01*
X217805714Y-128138571D01*
X217748571Y-128081428D01*
X217348571Y-128081428D01*
X217348571Y-128309999D01*
X217862857Y-127567142D02*
X216662857Y-127567142D01*
X217862857Y-126881428D01*
X216662857Y-126881428D01*
X217862857Y-126309999D02*
X216662857Y-126309999D01*
X216662857Y-126024285D01*
X216720000Y-125852857D01*
X216834285Y-125738571D01*
X216948571Y-125681428D01*
X217177142Y-125624285D01*
X217348571Y-125624285D01*
X217577142Y-125681428D01*
X217691428Y-125738571D01*
X217805714Y-125852857D01*
X217862857Y-126024285D01*
X217862857Y-126309999D01*
X221705714Y-128767142D02*
X221705714Y-127852857D01*
X222162857Y-128309999D02*
X221248571Y-128309999D01*
X220962857Y-127452857D02*
X222162857Y-127052857D01*
X220962857Y-126652857D01*
X222105714Y-125395714D02*
X222162857Y-125224285D01*
X222162857Y-124938571D01*
X222105714Y-124824285D01*
X222048571Y-124767142D01*
X221934285Y-124709999D01*
X221820000Y-124709999D01*
X221705714Y-124767142D01*
X221648571Y-124824285D01*
X221591428Y-124938571D01*
X221534285Y-125167142D01*
X221477142Y-125281428D01*
X221420000Y-125338571D01*
X221305714Y-125395714D01*
X221191428Y-125395714D01*
X221077142Y-125338571D01*
X221020000Y-125281428D01*
X220962857Y-125167142D01*
X220962857Y-124881428D01*
X221020000Y-124709999D01*
X221534285Y-124195714D02*
X221534285Y-123795714D01*
X222162857Y-123624285D02*
X222162857Y-124195714D01*
X220962857Y-124195714D01*
X220962857Y-123624285D01*
X222162857Y-123109999D02*
X220962857Y-123109999D01*
X222162857Y-122424285D01*
X220962857Y-122424285D01*
X222105714Y-121909999D02*
X222162857Y-121738571D01*
X222162857Y-121452857D01*
X222105714Y-121338571D01*
X222048571Y-121281428D01*
X221934285Y-121224285D01*
X221820000Y-121224285D01*
X221705714Y-121281428D01*
X221648571Y-121338571D01*
X221591428Y-121452857D01*
X221534285Y-121681428D01*
X221477142Y-121795714D01*
X221420000Y-121852857D01*
X221305714Y-121909999D01*
X221191428Y-121909999D01*
X221077142Y-121852857D01*
X221020000Y-121795714D01*
X220962857Y-121681428D01*
X220962857Y-121395714D01*
X221020000Y-121224285D01*
X221534285Y-120709999D02*
X221534285Y-120309999D01*
X222162857Y-120138571D02*
X222162857Y-120709999D01*
X220962857Y-120709999D01*
X220962857Y-120138571D01*
D12*
X179541428Y-124902857D02*
X179141428Y-124331428D01*
X178855714Y-124902857D02*
X178855714Y-123702857D01*
X179312857Y-123702857D01*
X179427142Y-123760000D01*
X179484285Y-123817142D01*
X179541428Y-123931428D01*
X179541428Y-124102857D01*
X179484285Y-124217142D01*
X179427142Y-124274285D01*
X179312857Y-124331428D01*
X178855714Y-124331428D01*
D11*
X224085714Y-128942857D02*
X224085714Y-128028571D01*
X224542857Y-128485714D02*
X223628571Y-128485714D01*
X224085714Y-127457142D02*
X224085714Y-126542857D01*
X224542857Y-127000000D02*
X223628571Y-127000000D01*
X224085714Y-125971428D02*
X224085714Y-125057142D01*
X224542857Y-125514285D02*
X223628571Y-125514285D01*
X213020000Y-128168571D02*
X212962857Y-128282857D01*
X212962857Y-128454286D01*
X213020000Y-128625714D01*
X213134285Y-128740000D01*
X213248571Y-128797143D01*
X213477142Y-128854286D01*
X213648571Y-128854286D01*
X213877142Y-128797143D01*
X213991428Y-128740000D01*
X214105714Y-128625714D01*
X214162857Y-128454286D01*
X214162857Y-128340000D01*
X214105714Y-128168571D01*
X214048571Y-128111428D01*
X213648571Y-128111428D01*
X213648571Y-128340000D01*
X214162857Y-127597143D02*
X212962857Y-127597143D01*
X214162857Y-126911428D01*
X212962857Y-126911428D01*
X214162857Y-126340000D02*
X212962857Y-126340000D01*
X212962857Y-126054286D01*
X213020000Y-125882857D01*
X213134285Y-125768571D01*
X213248571Y-125711428D01*
X213477142Y-125654286D01*
X213648571Y-125654286D01*
X213877142Y-125711428D01*
X213991428Y-125768571D01*
X214105714Y-125882857D01*
X214162857Y-126054286D01*
X214162857Y-126340000D01*
X194504285Y-124122857D02*
X194104285Y-123551428D01*
X193818571Y-124122857D02*
X193818571Y-122922857D01*
X194275714Y-122922857D01*
X194390000Y-122980000D01*
X194447142Y-123037142D01*
X194504285Y-123151428D01*
X194504285Y-123322857D01*
X194447142Y-123437142D01*
X194390000Y-123494285D01*
X194275714Y-123551428D01*
X193818571Y-123551428D01*
X195018571Y-123494285D02*
X195418571Y-123494285D01*
X195590000Y-124122857D02*
X195018571Y-124122857D01*
X195018571Y-122922857D01*
X195590000Y-122922857D01*
X196675714Y-124122857D02*
X196104285Y-124122857D01*
X196104285Y-122922857D01*
X197018571Y-123780000D02*
X197590000Y-123780000D01*
X196904285Y-124122857D02*
X197304285Y-122922857D01*
X197704285Y-124122857D01*
X198332857Y-123551428D02*
X198332857Y-124122857D01*
X197932857Y-122922857D02*
X198332857Y-123551428D01*
X198732857Y-122922857D01*
X201881428Y-126187142D02*
X201767142Y-126130000D01*
X201710000Y-126072857D01*
X201652857Y-125958571D01*
X201652857Y-125901428D01*
X201710000Y-125787142D01*
X201767142Y-125730000D01*
X201881428Y-125672857D01*
X202110000Y-125672857D01*
X202224285Y-125730000D01*
X202281428Y-125787142D01*
X202338571Y-125901428D01*
X202338571Y-125958571D01*
X202281428Y-126072857D01*
X202224285Y-126130000D01*
X202110000Y-126187142D01*
X201881428Y-126187142D01*
X201767142Y-126244285D01*
X201710000Y-126301428D01*
X201652857Y-126415714D01*
X201652857Y-126644285D01*
X201710000Y-126758571D01*
X201767142Y-126815714D01*
X201881428Y-126872857D01*
X202110000Y-126872857D01*
X202224285Y-126815714D01*
X202281428Y-126758571D01*
X202338571Y-126644285D01*
X202338571Y-126415714D01*
X202281428Y-126301428D01*
X202224285Y-126244285D01*
X202110000Y-126187142D01*
X203424285Y-125672857D02*
X202852857Y-125672857D01*
X202795714Y-126244285D01*
X202852857Y-126187142D01*
X202967142Y-126130000D01*
X203252857Y-126130000D01*
X203367142Y-126187142D01*
X203424285Y-126244285D01*
X203481428Y-126358571D01*
X203481428Y-126644285D01*
X203424285Y-126758571D01*
X203367142Y-126815714D01*
X203252857Y-126872857D01*
X202967142Y-126872857D01*
X202852857Y-126815714D01*
X202795714Y-126758571D01*
X203824285Y-125672857D02*
X204224285Y-126872857D01*
X204624285Y-125672857D01*
X205938571Y-126872857D02*
X205938571Y-125672857D01*
X206338571Y-126530000D01*
X206738571Y-125672857D01*
X206738571Y-126872857D01*
X207252857Y-126530000D02*
X207824285Y-126530000D01*
X207138571Y-126872857D02*
X207538571Y-125672857D01*
X207938571Y-126872857D01*
X208224285Y-125672857D02*
X209024285Y-126872857D01*
X209024285Y-125672857D02*
X208224285Y-126872857D01*
D12*
X178398095Y-111922380D02*
X178398095Y-110922380D01*
X178969523Y-111922380D02*
X178540952Y-111350952D01*
X178969523Y-110922380D02*
X178398095Y-111493809D01*
X186528095Y-111922380D02*
X186528095Y-110922380D01*
X187099523Y-111922380D02*
X186670952Y-111350952D01*
X187099523Y-110922380D02*
X186528095Y-111493809D01*
X211348095Y-118942380D02*
X211348095Y-117942380D01*
X211919523Y-118942380D02*
X211490952Y-118370952D01*
X211919523Y-117942380D02*
X211348095Y-118513809D01*
X179528571Y-108452380D02*
X179195238Y-107976190D01*
X178957142Y-108452380D02*
X178957142Y-107452380D01*
X179338095Y-107452380D01*
X179433333Y-107500000D01*
X179480952Y-107547619D01*
X179528571Y-107642857D01*
X179528571Y-107785714D01*
X179480952Y-107880952D01*
X179433333Y-107928571D01*
X179338095Y-107976190D01*
X178957142Y-107976190D01*
X180338095Y-108404761D02*
X180242857Y-108452380D01*
X180052380Y-108452380D01*
X179957142Y-108404761D01*
X179909523Y-108309523D01*
X179909523Y-107928571D01*
X179957142Y-107833333D01*
X180052380Y-107785714D01*
X180242857Y-107785714D01*
X180338095Y-107833333D01*
X180385714Y-107928571D01*
X180385714Y-108023809D01*
X179909523Y-108119047D01*
X181242857Y-108452380D02*
X181242857Y-107452380D01*
X181242857Y-108404761D02*
X181147619Y-108452380D01*
X180957142Y-108452380D01*
X180861904Y-108404761D01*
X180814285Y-108357142D01*
X180766666Y-108261904D01*
X180766666Y-107976190D01*
X180814285Y-107880952D01*
X180861904Y-107833333D01*
X180957142Y-107785714D01*
X181147619Y-107785714D01*
X181242857Y-107833333D01*
X186642857Y-107500000D02*
X186547619Y-107452380D01*
X186404761Y-107452380D01*
X186261904Y-107500000D01*
X186166666Y-107595238D01*
X186119047Y-107690476D01*
X186071428Y-107880952D01*
X186071428Y-108023809D01*
X186119047Y-108214285D01*
X186166666Y-108309523D01*
X186261904Y-108404761D01*
X186404761Y-108452380D01*
X186500000Y-108452380D01*
X186642857Y-108404761D01*
X186690476Y-108357142D01*
X186690476Y-108023809D01*
X186500000Y-108023809D01*
X187119047Y-108452380D02*
X187119047Y-107785714D01*
X187119047Y-107976190D02*
X187166666Y-107880952D01*
X187214285Y-107833333D01*
X187309523Y-107785714D01*
X187404761Y-107785714D01*
X188119047Y-108404761D02*
X188023809Y-108452380D01*
X187833333Y-108452380D01*
X187738095Y-108404761D01*
X187690476Y-108309523D01*
X187690476Y-107928571D01*
X187738095Y-107833333D01*
X187833333Y-107785714D01*
X188023809Y-107785714D01*
X188119047Y-107833333D01*
X188166666Y-107928571D01*
X188166666Y-108023809D01*
X187690476Y-108119047D01*
X188976190Y-108404761D02*
X188880952Y-108452380D01*
X188690476Y-108452380D01*
X188595238Y-108404761D01*
X188547619Y-108309523D01*
X188547619Y-107928571D01*
X188595238Y-107833333D01*
X188690476Y-107785714D01*
X188880952Y-107785714D01*
X188976190Y-107833333D01*
X189023809Y-107928571D01*
X189023809Y-108023809D01*
X188547619Y-108119047D01*
X189452380Y-107785714D02*
X189452380Y-108452380D01*
X189452380Y-107880952D02*
X189500000Y-107833333D01*
X189595238Y-107785714D01*
X189738095Y-107785714D01*
X189833333Y-107833333D01*
X189880952Y-107928571D01*
X189880952Y-108452380D01*
X165730000Y-118848214D02*
X165672857Y-118962500D01*
X165672857Y-119133928D01*
X165730000Y-119305357D01*
X165844285Y-119419642D01*
X165958571Y-119476785D01*
X166187142Y-119533928D01*
X166358571Y-119533928D01*
X166587142Y-119476785D01*
X166701428Y-119419642D01*
X166815714Y-119305357D01*
X166872857Y-119133928D01*
X166872857Y-119019642D01*
X166815714Y-118848214D01*
X166758571Y-118791071D01*
X166358571Y-118791071D01*
X166358571Y-119019642D01*
X166872857Y-118276785D02*
X165672857Y-118276785D01*
X166872857Y-117591071D01*
X165672857Y-117591071D01*
X166872857Y-117019642D02*
X165672857Y-117019642D01*
X165672857Y-116733928D01*
X165730000Y-116562500D01*
X165844285Y-116448214D01*
X165958571Y-116391071D01*
X166187142Y-116333928D01*
X166358571Y-116333928D01*
X166587142Y-116391071D01*
X166701428Y-116448214D01*
X166815714Y-116562500D01*
X166872857Y-116733928D01*
X166872857Y-117019642D01*
X164172857Y-118791071D02*
X163601428Y-119191071D01*
X164172857Y-119476785D02*
X162972857Y-119476785D01*
X162972857Y-119019642D01*
X163030000Y-118905357D01*
X163087142Y-118848214D01*
X163201428Y-118791071D01*
X163372857Y-118791071D01*
X163487142Y-118848214D01*
X163544285Y-118905357D01*
X163601428Y-119019642D01*
X163601428Y-119476785D01*
X163544285Y-118276785D02*
X163544285Y-117876785D01*
X164172857Y-117705357D02*
X164172857Y-118276785D01*
X162972857Y-118276785D01*
X162972857Y-117705357D01*
X164115714Y-117248214D02*
X164172857Y-117076785D01*
X164172857Y-116791071D01*
X164115714Y-116676785D01*
X164058571Y-116619642D01*
X163944285Y-116562500D01*
X163830000Y-116562500D01*
X163715714Y-116619642D01*
X163658571Y-116676785D01*
X163601428Y-116791071D01*
X163544285Y-117019642D01*
X163487142Y-117133928D01*
X163430000Y-117191071D01*
X163315714Y-117248214D01*
X163201428Y-117248214D01*
X163087142Y-117191071D01*
X163030000Y-117133928D01*
X162972857Y-117019642D01*
X162972857Y-116733928D01*
X163030000Y-116562500D01*
X163544285Y-116048214D02*
X163544285Y-115648214D01*
X164172857Y-115476785D02*
X164172857Y-116048214D01*
X162972857Y-116048214D01*
X162972857Y-115476785D01*
X162972857Y-115133928D02*
X162972857Y-114448214D01*
X164172857Y-114791071D02*
X162972857Y-114791071D01*
X161315714Y-119476785D02*
X161315714Y-118562500D01*
X161772857Y-119019642D02*
X160858571Y-119019642D01*
X160572857Y-117419642D02*
X160572857Y-117991071D01*
X161144285Y-118048214D01*
X161087142Y-117991071D01*
X161030000Y-117876785D01*
X161030000Y-117591071D01*
X161087142Y-117476785D01*
X161144285Y-117419642D01*
X161258571Y-117362500D01*
X161544285Y-117362500D01*
X161658571Y-117419642D01*
X161715714Y-117476785D01*
X161772857Y-117591071D01*
X161772857Y-117876785D01*
X161715714Y-117991071D01*
X161658571Y-118048214D01*
X160572857Y-117019642D02*
X161772857Y-116619642D01*
X160572857Y-116219642D01*
X173084285Y-123702857D02*
X173770000Y-123702857D01*
X173427142Y-124902857D02*
X173427142Y-123702857D01*
X174055714Y-123702857D02*
X174855714Y-124902857D01*
X174855714Y-123702857D02*
X174055714Y-124902857D01*
X175998571Y-124902857D02*
X175598571Y-124331428D01*
X175312857Y-124902857D02*
X175312857Y-123702857D01*
X175770000Y-123702857D01*
X175884285Y-123760000D01*
X175941428Y-123817142D01*
X175998571Y-123931428D01*
X175998571Y-124102857D01*
X175941428Y-124217142D01*
X175884285Y-124274285D01*
X175770000Y-124331428D01*
X175312857Y-124331428D01*
X176398571Y-123702857D02*
X177198571Y-124902857D01*
X177198571Y-123702857D02*
X176398571Y-124902857D01*
X168998571Y-124902857D02*
X168998571Y-123702857D01*
X169512857Y-123817142D02*
X169570000Y-123760000D01*
X169684285Y-123702857D01*
X169970000Y-123702857D01*
X170084285Y-123760000D01*
X170141428Y-123817142D01*
X170198571Y-123931428D01*
X170198571Y-124045714D01*
X170141428Y-124217142D01*
X169455714Y-124902857D01*
X170198571Y-124902857D01*
X171398571Y-124788571D02*
X171341428Y-124845714D01*
X171170000Y-124902857D01*
X171055714Y-124902857D01*
X170884285Y-124845714D01*
X170770000Y-124731428D01*
X170712857Y-124617142D01*
X170655714Y-124388571D01*
X170655714Y-124217142D01*
X170712857Y-123988571D01*
X170770000Y-123874285D01*
X170884285Y-123760000D01*
X171055714Y-123702857D01*
X171170000Y-123702857D01*
X171341428Y-123760000D01*
X171398571Y-123817142D01*
D10*
X177770000Y-123060000D02*
X177770000Y-125610000D01*
X172670000Y-123060000D02*
X172670000Y-125610000D01*
X167670000Y-123060000D02*
X167670000Y-125610000D01*
X159970000Y-122960000D02*
X159970000Y-125610000D01*
D12*
X161941428Y-123702857D02*
X161941428Y-124674285D01*
X161998571Y-124788571D01*
X162055714Y-124845714D01*
X162170000Y-124902857D01*
X162398571Y-124902857D01*
X162512857Y-124845714D01*
X162570000Y-124788571D01*
X162627142Y-124674285D01*
X162627142Y-123702857D01*
X163198571Y-124902857D02*
X163198571Y-123702857D01*
X163655714Y-123702857D01*
X163770000Y-123760000D01*
X163827142Y-123817142D01*
X163884285Y-123931428D01*
X163884285Y-124102857D01*
X163827142Y-124217142D01*
X163770000Y-124274285D01*
X163655714Y-124331428D01*
X163198571Y-124331428D01*
X164398571Y-124902857D02*
X164398571Y-123702857D01*
X164684285Y-123702857D01*
X164855714Y-123760000D01*
X164970000Y-123874285D01*
X165027142Y-123988571D01*
X165084285Y-124217142D01*
X165084285Y-124388571D01*
X165027142Y-124617142D01*
X164970000Y-124731428D01*
X164855714Y-124845714D01*
X164684285Y-124902857D01*
X164398571Y-124902857D01*
X165598571Y-124902857D02*
X165598571Y-123702857D01*
D10*
X180320000Y-123110000D02*
X180320000Y-125610000D01*
D12*
X184414285Y-129019047D02*
X184471428Y-128861904D01*
X184528571Y-128809523D01*
X184642857Y-128757142D01*
X184814285Y-128757142D01*
X184928571Y-128809523D01*
X184985714Y-128861904D01*
X185042857Y-128966666D01*
X185042857Y-129385714D01*
X183842857Y-129385714D01*
X183842857Y-129019047D01*
X183900000Y-128914285D01*
X183957142Y-128861904D01*
X184071428Y-128809523D01*
X184185714Y-128809523D01*
X184300000Y-128861904D01*
X184357142Y-128914285D01*
X184414285Y-129019047D01*
X184414285Y-129385714D01*
X184700000Y-128338095D02*
X184700000Y-127814285D01*
X185042857Y-128442857D02*
X183842857Y-128076190D01*
X185042857Y-127709523D01*
X183842857Y-127342857D02*
X184814285Y-127342857D01*
X184928571Y-127290476D01*
X184985714Y-127238095D01*
X185042857Y-127133333D01*
X185042857Y-126923809D01*
X184985714Y-126819047D01*
X184928571Y-126766666D01*
X184814285Y-126714285D01*
X183842857Y-126714285D01*
X185042857Y-126190476D02*
X183842857Y-126190476D01*
X183842857Y-125928571D01*
X183900000Y-125771428D01*
X184014285Y-125666666D01*
X184128571Y-125614285D01*
X184357142Y-125561904D01*
X184528571Y-125561904D01*
X184757142Y-125614285D01*
X184871428Y-125666666D01*
X184985714Y-125771428D01*
X185042857Y-125928571D01*
X185042857Y-126190476D01*
X180952380Y-54935160D02*
X181142857Y-54935160D01*
X181238095Y-54887541D01*
X181285714Y-54839922D01*
X181380952Y-54697065D01*
X181428571Y-54506589D01*
X181428571Y-54125637D01*
X181380952Y-54030399D01*
X181333333Y-53982780D01*
X181238095Y-53935160D01*
X181047619Y-53935160D01*
X180952380Y-53982780D01*
X180904761Y-54030399D01*
X180857142Y-54125637D01*
X180857142Y-54363732D01*
X180904761Y-54458970D01*
X180952380Y-54506589D01*
X181047619Y-54554208D01*
X181238095Y-54554208D01*
X181333333Y-54506589D01*
X181380952Y-54458970D01*
X181428571Y-54363732D01*
X182047619Y-53935160D02*
X182142857Y-53935160D01*
X182238095Y-53982780D01*
X182285714Y-54030399D01*
X182333333Y-54125637D01*
X182380952Y-54316113D01*
X182380952Y-54554208D01*
X182333333Y-54744684D01*
X182285714Y-54839922D01*
X182238095Y-54887541D01*
X182142857Y-54935160D01*
X182047619Y-54935160D01*
X181952380Y-54887541D01*
X181904761Y-54839922D01*
X181857142Y-54744684D01*
X181809523Y-54554208D01*
X181809523Y-54316113D01*
X181857142Y-54125637D01*
X181904761Y-54030399D01*
X181952380Y-53982780D01*
X182047619Y-53935160D01*
X182809523Y-54839922D02*
X182857142Y-54887541D01*
X182809523Y-54935160D01*
X182761904Y-54887541D01*
X182809523Y-54839922D01*
X182809523Y-54935160D01*
X183476190Y-53935160D02*
X183571428Y-53935160D01*
X183666666Y-53982780D01*
X183714285Y-54030399D01*
X183761904Y-54125637D01*
X183809523Y-54316113D01*
X183809523Y-54554208D01*
X183761904Y-54744684D01*
X183714285Y-54839922D01*
X183666666Y-54887541D01*
X183571428Y-54935160D01*
X183476190Y-54935160D01*
X183380952Y-54887541D01*
X183333333Y-54839922D01*
X183285714Y-54744684D01*
X183238095Y-54554208D01*
X183238095Y-54316113D01*
X183285714Y-54125637D01*
X183333333Y-54030399D01*
X183380952Y-53982780D01*
X183476190Y-53935160D01*
X184428571Y-53935160D02*
X184523809Y-53935160D01*
X184619047Y-53982780D01*
X184666666Y-54030399D01*
X184714285Y-54125637D01*
X184761904Y-54316113D01*
X184761904Y-54554208D01*
X184714285Y-54744684D01*
X184666666Y-54839922D01*
X184619047Y-54887541D01*
X184523809Y-54935160D01*
X184428571Y-54935160D01*
X184333333Y-54887541D01*
X184285714Y-54839922D01*
X184238095Y-54744684D01*
X184190476Y-54554208D01*
X184190476Y-54316113D01*
X184238095Y-54125637D01*
X184285714Y-54030399D01*
X184333333Y-53982780D01*
X184428571Y-53935160D01*
X185380952Y-53935160D02*
X185476190Y-53935160D01*
X185571428Y-53982780D01*
X185619047Y-54030399D01*
X185666666Y-54125637D01*
X185714285Y-54316113D01*
X185714285Y-54554208D01*
X185666666Y-54744684D01*
X185619047Y-54839922D01*
X185571428Y-54887541D01*
X185476190Y-54935160D01*
X185380952Y-54935160D01*
X185285714Y-54887541D01*
X185238095Y-54839922D01*
X185190476Y-54744684D01*
X185142857Y-54554208D01*
X185142857Y-54316113D01*
X185190476Y-54125637D01*
X185238095Y-54030399D01*
X185285714Y-53982780D01*
X185380952Y-53935160D01*
X186904761Y-54935160D02*
X186904761Y-54268494D01*
X186904761Y-54363732D02*
X186952380Y-54316113D01*
X187047619Y-54268494D01*
X187190476Y-54268494D01*
X187285714Y-54316113D01*
X187333333Y-54411351D01*
X187333333Y-54935160D01*
X187333333Y-54411351D02*
X187380952Y-54316113D01*
X187476190Y-54268494D01*
X187619047Y-54268494D01*
X187714285Y-54316113D01*
X187761904Y-54411351D01*
X187761904Y-54935160D01*
X188238095Y-54935160D02*
X188238095Y-54268494D01*
X188238095Y-54363732D02*
X188285714Y-54316113D01*
X188380952Y-54268494D01*
X188523809Y-54268494D01*
X188619047Y-54316113D01*
X188666666Y-54411351D01*
X188666666Y-54935160D01*
X188666666Y-54411351D02*
X188714285Y-54316113D01*
X188809523Y-54268494D01*
X188952380Y-54268494D01*
X189047619Y-54316113D01*
X189095238Y-54411351D01*
X189095238Y-54935160D01*
D10*
X230000000Y-55752780D02*
X140000000Y-55752780D01*
X230000000Y-58000000D02*
X230000000Y-55166359D01*
X140000000Y-58000000D02*
X140000000Y-55166359D01*
X140000000Y-55752780D02*
X141126504Y-55166359D01*
X140000000Y-55752780D02*
X141126504Y-56339201D01*
X230000000Y-55752780D02*
X228873496Y-55166359D01*
X230000000Y-55752780D02*
X228873496Y-56339201D01*
D12*
X234722380Y-98190476D02*
X234722380Y-97523809D01*
X235722380Y-97952380D01*
X234817619Y-97190476D02*
X234770000Y-97142857D01*
X234722380Y-97047619D01*
X234722380Y-96809523D01*
X234770000Y-96714285D01*
X234817619Y-96666666D01*
X234912857Y-96619047D01*
X235008095Y-96619047D01*
X235150952Y-96666666D01*
X235722380Y-97238095D01*
X235722380Y-96619047D01*
X235627142Y-96190476D02*
X235674761Y-96142857D01*
X235722380Y-96190476D01*
X235674761Y-96238095D01*
X235627142Y-96190476D01*
X235722380Y-96190476D01*
X234722380Y-95523809D02*
X234722380Y-95428571D01*
X234770000Y-95333333D01*
X234817619Y-95285714D01*
X234912857Y-95238095D01*
X235103333Y-95190476D01*
X235341428Y-95190476D01*
X235531904Y-95238095D01*
X235627142Y-95285714D01*
X235674761Y-95333333D01*
X235722380Y-95428571D01*
X235722380Y-95523809D01*
X235674761Y-95619047D01*
X235627142Y-95666666D01*
X235531904Y-95714285D01*
X235341428Y-95761904D01*
X235103333Y-95761904D01*
X234912857Y-95714285D01*
X234817619Y-95666666D01*
X234770000Y-95619047D01*
X234722380Y-95523809D01*
X234722380Y-94571428D02*
X234722380Y-94476190D01*
X234770000Y-94380952D01*
X234817619Y-94333333D01*
X234912857Y-94285714D01*
X235103333Y-94238095D01*
X235341428Y-94238095D01*
X235531904Y-94285714D01*
X235627142Y-94333333D01*
X235674761Y-94380952D01*
X235722380Y-94476190D01*
X235722380Y-94571428D01*
X235674761Y-94666666D01*
X235627142Y-94714285D01*
X235531904Y-94761904D01*
X235341428Y-94809523D01*
X235103333Y-94809523D01*
X234912857Y-94761904D01*
X234817619Y-94714285D01*
X234770000Y-94666666D01*
X234722380Y-94571428D01*
X234722380Y-93619047D02*
X234722380Y-93523809D01*
X234770000Y-93428571D01*
X234817619Y-93380952D01*
X234912857Y-93333333D01*
X235103333Y-93285714D01*
X235341428Y-93285714D01*
X235531904Y-93333333D01*
X235627142Y-93380952D01*
X235674761Y-93428571D01*
X235722380Y-93523809D01*
X235722380Y-93619047D01*
X235674761Y-93714285D01*
X235627142Y-93761904D01*
X235531904Y-93809523D01*
X235341428Y-93857142D01*
X235103333Y-93857142D01*
X234912857Y-93809523D01*
X234817619Y-93761904D01*
X234770000Y-93714285D01*
X234722380Y-93619047D01*
X235722380Y-92095238D02*
X235055714Y-92095238D01*
X235150952Y-92095238D02*
X235103333Y-92047619D01*
X235055714Y-91952380D01*
X235055714Y-91809523D01*
X235103333Y-91714285D01*
X235198571Y-91666666D01*
X235722380Y-91666666D01*
X235198571Y-91666666D02*
X235103333Y-91619047D01*
X235055714Y-91523809D01*
X235055714Y-91380952D01*
X235103333Y-91285714D01*
X235198571Y-91238095D01*
X235722380Y-91238095D01*
X235722380Y-90761904D02*
X235055714Y-90761904D01*
X235150952Y-90761904D02*
X235103333Y-90714285D01*
X235055714Y-90619047D01*
X235055714Y-90476190D01*
X235103333Y-90380952D01*
X235198571Y-90333333D01*
X235722380Y-90333333D01*
X235198571Y-90333333D02*
X235103333Y-90285714D01*
X235055714Y-90190476D01*
X235055714Y-90047619D01*
X235103333Y-89952380D01*
X235198571Y-89904761D01*
X235722380Y-89904761D01*
D10*
X234000000Y-130000000D02*
X234000000Y-58000000D01*
X231900000Y-130000000D02*
X234586421Y-130000000D01*
X231900000Y-58000000D02*
X234586421Y-58000000D01*
X234000000Y-58000000D02*
X234586421Y-59126504D01*
X234000000Y-58000000D02*
X233413579Y-59126504D01*
X234000000Y-130000000D02*
X234586421Y-128873496D01*
X234000000Y-130000000D02*
X233413579Y-128873496D01*
D13*
G36*
X150647173Y-122905508D02*
G01*
X150615267Y-122835127D01*
X150520486Y-122802282D01*
X150427582Y-122834188D01*
X150397552Y-122904570D01*
X150430397Y-122976829D01*
X150524240Y-123010612D01*
X150616205Y-122976829D01*
X150647173Y-122905508D01*
G37*
G36*
X151508196Y-120665745D02*
G01*
X151382466Y-120926730D01*
X151635831Y-120926730D01*
X151508196Y-120665745D01*
G37*
G36*
X150397552Y-123551144D02*
G01*
X150523301Y-123596188D01*
X150647173Y-123551144D01*
X150688464Y-123454486D01*
X150646235Y-123357829D01*
X150522363Y-123312784D01*
X150397552Y-123356890D01*
X150354385Y-123453548D01*
X150397552Y-123551144D01*
G37*
G36*
X146992951Y-123175774D02*
G01*
X147233188Y-123175774D01*
X147342045Y-123134484D01*
X147396474Y-123010612D01*
X147342045Y-122885802D01*
X147229434Y-122843572D01*
X146992951Y-122843572D01*
X146992951Y-123175774D01*
G37*
G36*
X155442021Y-120446670D02*
G01*
X155259141Y-120446670D01*
X155259141Y-121166760D01*
X155443926Y-121166760D01*
X155574418Y-121141280D01*
X155691576Y-121064842D01*
X155774443Y-120949828D01*
X155802066Y-120808620D01*
X155775157Y-120666935D01*
X155694433Y-120550492D01*
X155577514Y-120472625D01*
X155442021Y-120446670D01*
G37*
G36*
X148570686Y-120810525D02*
G01*
X148582856Y-120916464D01*
X148619369Y-121008221D01*
X148680223Y-121085797D01*
X148796190Y-121165093D01*
X148925016Y-121191525D01*
X149053603Y-121165807D01*
X149168856Y-121088655D01*
X149229181Y-121012243D01*
X149265376Y-120920168D01*
X149277441Y-120812430D01*
X149265270Y-120704480D01*
X149228757Y-120611770D01*
X149167903Y-120534300D01*
X149051936Y-120455718D01*
X148923111Y-120429525D01*
X148794523Y-120455956D01*
X148679271Y-120535252D01*
X148618946Y-120612828D01*
X148582751Y-120704585D01*
X148570686Y-120810525D01*
G37*
G36*
X146660749Y-119573994D02*
G01*
X146661876Y-120277125D01*
X146664733Y-120211402D01*
X146682831Y-120160920D01*
X146733313Y-120122343D01*
X146831421Y-120109485D01*
X146937624Y-120127106D01*
X146989536Y-120179970D01*
X146999061Y-120279030D01*
X147143364Y-121143661D01*
X147204801Y-121071510D01*
X147305766Y-121025790D01*
X147369583Y-121049602D01*
X147454356Y-121121040D01*
X147530556Y-121182952D01*
X147621996Y-121212480D01*
X147720421Y-121196393D01*
X147779476Y-121148133D01*
X147799161Y-121067700D01*
X147750583Y-120994357D01*
X147629616Y-120951495D01*
X147554368Y-120934111D01*
X147473406Y-120908632D01*
X147392443Y-120876485D01*
X147317196Y-120839100D01*
X147250759Y-120787426D01*
X147196228Y-120712417D01*
X147159795Y-120616929D01*
X147147651Y-120503820D01*
X147161515Y-120396822D01*
X147203107Y-120299350D01*
X147272428Y-120211402D01*
X147365667Y-120142081D01*
X147479015Y-120100489D01*
X147612471Y-120086625D01*
X147721770Y-120094006D01*
X147821068Y-120116152D01*
X147951561Y-120176160D01*
X147999186Y-120212355D01*
X148058241Y-120305700D01*
X148012521Y-120410475D01*
X147946798Y-120481912D01*
X147879171Y-120505725D01*
X147780111Y-120467625D01*
X147758203Y-120448575D01*
X147728676Y-120423810D01*
X147626758Y-120399045D01*
X147523888Y-120428572D01*
X147482931Y-120510487D01*
X147531508Y-120595260D01*
X147652476Y-120639075D01*
X147728199Y-120653600D01*
X147810591Y-120674317D01*
X147892982Y-120700749D01*
X148290651Y-120523822D01*
X148357326Y-120396901D01*
X148443051Y-120292365D01*
X148545444Y-120209021D01*
X148662126Y-120145680D01*
X148787856Y-120105675D01*
X148917396Y-120092340D01*
X149053722Y-120105079D01*
X149180762Y-120143298D01*
X149298515Y-120206997D01*
X149406981Y-120296175D01*
X149497825Y-120404224D01*
X149562714Y-120524536D01*
X149601648Y-120657113D01*
X149614626Y-120801952D01*
X149602243Y-120947327D01*
X149565096Y-121081511D01*
X149503183Y-121204502D01*
X149738451Y-121336305D01*
X149738451Y-120277125D01*
X149741308Y-120211402D01*
X149759406Y-120160920D01*
X149809888Y-120122343D01*
X149907996Y-120109485D01*
X150014199Y-120127106D01*
X150066111Y-120179970D01*
X150075636Y-120279030D01*
X150075636Y-121223910D01*
X150593796Y-121223910D01*
X150685236Y-121238197D01*
X150723336Y-121282965D01*
X150732861Y-121363927D01*
X150723336Y-121444890D01*
X150690951Y-121486800D01*
X150591891Y-121505850D01*
X149906091Y-121505850D01*
X149800363Y-121487752D01*
X149749881Y-121433460D01*
X149738451Y-121336305D01*
X149503183Y-121204502D01*
X149416506Y-121316302D01*
X149311731Y-121409230D01*
X149195526Y-121475608D01*
X149067891Y-121515434D01*
X148928826Y-121528710D01*
X148789463Y-121515613D01*
X148660935Y-121476322D01*
X148543242Y-121410838D01*
X148436383Y-121319160D01*
X148347622Y-121209384D01*
X148284221Y-121089607D01*
X148246181Y-120959829D01*
X148233501Y-120820050D01*
X148247788Y-120666935D01*
X148290651Y-120523822D01*
X147892982Y-120700749D01*
X147968706Y-120732420D01*
X148035142Y-120779330D01*
X148089673Y-120851482D01*
X148126106Y-120946018D01*
X148138251Y-121060080D01*
X148125868Y-121176523D01*
X148088721Y-121278202D01*
X148031571Y-121361784D01*
X147959181Y-121423935D01*
X147853982Y-121480026D01*
X147744127Y-121513681D01*
X147629616Y-121524900D01*
X147542462Y-121519423D01*
X147460071Y-121502992D01*
X147330531Y-121448700D01*
X147244806Y-121388692D01*
X147189561Y-121330590D01*
X147172416Y-121309635D01*
X147122886Y-121200097D01*
X147143364Y-121143661D01*
X146999061Y-120279030D01*
X146999061Y-121338210D01*
X149586754Y-122556415D01*
X149638368Y-122519816D01*
X149734087Y-122509494D01*
X149828868Y-122521693D01*
X149879543Y-122561107D01*
X149897373Y-122610843D01*
X149900188Y-122676533D01*
X150063474Y-122907385D01*
X150078905Y-122791855D01*
X150125201Y-122690505D01*
X150202360Y-122603336D01*
X150299956Y-122536604D01*
X150407562Y-122496564D01*
X150525178Y-122483218D01*
X150642377Y-122496773D01*
X150748731Y-122537438D01*
X150844242Y-122605213D01*
X150919316Y-122694050D01*
X150964360Y-122797903D01*
X150979375Y-122916770D01*
X150952161Y-123031257D01*
X150896794Y-123119469D01*
X150868641Y-123149499D01*
X150910870Y-123187974D01*
X150978437Y-123290262D01*
X151010108Y-123367682D01*
X151020666Y-123446040D01*
X151003670Y-123577107D01*
X150952682Y-123690031D01*
X150867703Y-123784811D01*
X150761244Y-123856236D01*
X150645818Y-123899091D01*
X150521424Y-123913375D01*
X150397031Y-123899195D01*
X150281605Y-123856653D01*
X150175146Y-123785750D01*
X150090167Y-123691282D01*
X150039179Y-123578045D01*
X150022183Y-123446040D01*
X150031802Y-123368386D01*
X150060658Y-123293077D01*
X150136671Y-123185159D01*
X150176084Y-123149499D01*
X150144178Y-123119469D01*
X150094442Y-123037826D01*
X150063474Y-122907385D01*
X149900188Y-122676533D01*
X149900188Y-123720060D01*
X149882358Y-123827979D01*
X149827929Y-123873962D01*
X149736902Y-123885223D01*
X149650567Y-123875838D01*
X149601769Y-123853316D01*
X149577370Y-123815779D01*
X149566109Y-123718183D01*
X149566109Y-123489208D01*
X149057483Y-123489208D01*
X148952849Y-123471378D01*
X148901705Y-123417888D01*
X148892321Y-123337183D01*
X148897951Y-123262109D01*
X149053730Y-122633366D01*
X149073437Y-122567676D01*
X149107220Y-122524508D01*
X149171971Y-122503863D01*
X149258306Y-122517001D01*
X149356841Y-122564861D01*
X149389685Y-122637119D01*
X149376547Y-122715947D01*
X149374671Y-122721577D01*
X149260183Y-123179528D01*
X149566109Y-123179528D01*
X149566109Y-122667149D01*
X149568924Y-122603336D01*
X149586754Y-122556415D01*
X146999061Y-121338210D01*
X146996203Y-121404885D01*
X146978106Y-121454415D01*
X146927623Y-121492991D01*
X147233188Y-122511371D01*
X147342254Y-122524717D01*
X147449234Y-122564756D01*
X147554129Y-122631489D01*
X147622634Y-122699994D01*
X147678001Y-122789144D01*
X147714599Y-122894247D01*
X147726799Y-123010612D01*
X147711158Y-123143660D01*
X147816887Y-123585866D01*
X147837063Y-123530264D01*
X147897592Y-123459178D01*
X147997065Y-123414134D01*
X148059939Y-123437595D01*
X148143459Y-123507976D01*
X148218533Y-123568974D01*
X148308621Y-123598065D01*
X148439531Y-123562405D01*
X148483168Y-123455425D01*
X148435309Y-123383166D01*
X148316129Y-123340937D01*
X148241993Y-123323811D01*
X148162227Y-123298708D01*
X148082461Y-123267036D01*
X148008326Y-123230203D01*
X147942871Y-123179294D01*
X147889146Y-123105393D01*
X147853251Y-123011316D01*
X147841286Y-122899878D01*
X147854946Y-122794462D01*
X147895924Y-122698430D01*
X147964220Y-122611782D01*
X148056081Y-122543485D01*
X148167754Y-122502508D01*
X148299237Y-122488848D01*
X148406921Y-122496121D01*
X148504752Y-122517939D01*
X148633316Y-122577060D01*
X148680237Y-122612720D01*
X148738419Y-122704686D01*
X148693375Y-122807912D01*
X148628624Y-122878294D01*
X148561996Y-122901755D01*
X148464400Y-122864218D01*
X148442816Y-122845449D01*
X148413725Y-122821050D01*
X148313313Y-122796651D01*
X148211964Y-122825742D01*
X148171612Y-122906447D01*
X148219471Y-122989967D01*
X148338651Y-123033134D01*
X148413256Y-123047445D01*
X148494429Y-123067856D01*
X148575603Y-123093897D01*
X148650208Y-123125100D01*
X148715663Y-123171317D01*
X148769387Y-123242403D01*
X148805282Y-123335541D01*
X148817247Y-123447917D01*
X148805047Y-123562640D01*
X148768449Y-123662816D01*
X148712144Y-123745163D01*
X148640823Y-123806395D01*
X148537180Y-123861658D01*
X148428948Y-123894815D01*
X148316129Y-123905868D01*
X148230263Y-123900472D01*
X148149089Y-123884284D01*
X148021464Y-123830794D01*
X147937006Y-123771673D01*
X147882577Y-123714430D01*
X147865685Y-123693784D01*
X147816887Y-123585866D01*
X147711158Y-123143660D01*
X147664237Y-123260024D01*
X147586035Y-123359705D01*
X147618567Y-123436656D01*
X147661109Y-123534878D01*
X147713661Y-123654371D01*
X147741813Y-123751967D01*
X147712722Y-123817656D01*
X147625449Y-123872085D01*
X147528791Y-123898361D01*
X147468732Y-123880531D01*
X147434011Y-123843932D01*
X147409403Y-123790338D01*
X147360605Y-123677101D01*
X147287616Y-123504223D01*
X147229434Y-123507976D01*
X146992951Y-123507976D01*
X146992951Y-123720060D01*
X146990136Y-123784811D01*
X146972306Y-123834548D01*
X146922570Y-123872554D01*
X146825912Y-123885223D01*
X146721747Y-123867862D01*
X146672011Y-123815779D01*
X146660749Y-123718183D01*
X146660749Y-122676533D01*
X146663565Y-122611782D01*
X146681395Y-122562045D01*
X146731131Y-122524039D01*
X146827789Y-122511371D01*
X147233188Y-122511371D01*
X146927623Y-121492991D01*
X146829516Y-121505850D01*
X146723788Y-121487752D01*
X146673306Y-121433460D01*
X146661876Y-121336305D01*
X146661876Y-120277125D01*
X146660749Y-119573994D01*
X146148119Y-119573994D01*
X146029081Y-119576917D01*
X145910330Y-119585677D01*
X145792151Y-119600253D01*
X145674830Y-119620610D01*
X145558649Y-119646700D01*
X145443888Y-119678459D01*
X145330824Y-119715810D01*
X145219729Y-119758665D01*
X145110870Y-119806919D01*
X145004511Y-119860456D01*
X144900906Y-119919148D01*
X144800306Y-119982852D01*
X144702953Y-120051416D01*
X144609081Y-120124674D01*
X144518917Y-120202451D01*
X144432678Y-120284557D01*
X144350572Y-120370796D01*
X144272796Y-120460960D01*
X144199538Y-120554832D01*
X144130974Y-120652185D01*
X144067270Y-120752786D01*
X144008579Y-120856391D01*
X143955042Y-120962751D01*
X143906788Y-121071609D01*
X143863934Y-121182705D01*
X143826582Y-121295769D01*
X143794824Y-121410530D01*
X143768735Y-121526711D01*
X143748378Y-121644032D01*
X143733802Y-121762210D01*
X143725042Y-121880962D01*
X143722120Y-122000000D01*
X143725042Y-122119038D01*
X143733802Y-122237790D01*
X143748378Y-122355968D01*
X143768735Y-122473289D01*
X143794824Y-122589470D01*
X143826582Y-122704231D01*
X143863934Y-122817295D01*
X143906788Y-122928391D01*
X143955042Y-123037249D01*
X144008579Y-123143609D01*
X144067270Y-123247214D01*
X144130974Y-123347815D01*
X144199538Y-123445168D01*
X144272796Y-123539040D01*
X144350572Y-123629204D01*
X144432678Y-123715443D01*
X144518917Y-123797549D01*
X144609081Y-123875326D01*
X144702953Y-123948584D01*
X144800306Y-124017148D01*
X144900906Y-124080852D01*
X145004511Y-124139544D01*
X145110870Y-124193081D01*
X145219729Y-124241335D01*
X145330824Y-124284190D01*
X145443888Y-124321541D01*
X145558649Y-124353300D01*
X145674830Y-124379390D01*
X145792151Y-124399747D01*
X145910330Y-124414323D01*
X146029081Y-124423083D01*
X146148119Y-124426006D01*
X146660749Y-124426006D01*
X156139251Y-124426006D01*
X151987242Y-122680287D01*
X151975512Y-122770845D01*
X151940321Y-122817297D01*
X151894338Y-122835127D01*
X151833341Y-122837942D01*
X151504892Y-122837942D01*
X151486124Y-122980582D01*
X151551813Y-122976829D01*
X151666718Y-122991739D01*
X151773699Y-123036471D01*
X151872754Y-123111023D01*
X151951999Y-123207160D01*
X151999546Y-123316642D01*
X152015395Y-123439471D01*
X152000380Y-123562926D01*
X151955336Y-123674286D01*
X151880262Y-123773550D01*
X151782874Y-123851231D01*
X151670889Y-123897839D01*
X151544306Y-123913375D01*
X151431695Y-123903574D01*
X151326592Y-123874170D01*
X151228996Y-123825164D01*
X151182075Y-123789504D01*
X151167060Y-123776366D01*
X151095740Y-123663755D01*
X151165183Y-123541760D01*
X151274040Y-123479824D01*
X151399789Y-123539883D01*
X151517092Y-123579297D01*
X151640964Y-123543637D01*
X151681316Y-123445102D01*
X151637210Y-123345629D01*
X151536799Y-123309031D01*
X151446710Y-123342814D01*
X151344422Y-123385981D01*
X151226180Y-123350321D01*
X151138907Y-123293077D01*
X151118262Y-123247095D01*
X151127646Y-123159352D01*
X151155799Y-122944922D01*
X151184421Y-122733777D01*
X151195213Y-122655888D01*
X151208350Y-122616474D01*
X151235565Y-122565799D01*
X151284363Y-122525447D01*
X151360375Y-122507617D01*
X151645656Y-122509494D01*
X151822079Y-122509494D01*
X151887769Y-122512309D01*
X151936567Y-122530139D01*
X151974573Y-122580814D01*
X151987242Y-122680287D01*
X156139251Y-124426006D01*
X156651881Y-124426006D01*
X153098871Y-121342020D01*
X153096013Y-121406790D01*
X153078868Y-121455367D01*
X153028386Y-121494420D01*
X152933136Y-121505850D01*
X152838838Y-121494420D01*
X152789308Y-121455367D01*
X152772163Y-121405837D01*
X152769306Y-121340115D01*
X152769306Y-120383805D01*
X152403546Y-120383805D01*
X152314011Y-120369517D01*
X152275911Y-120324750D01*
X152266386Y-120244740D01*
X152275911Y-120165682D01*
X152308296Y-120124725D01*
X152405451Y-120107580D01*
X153464631Y-120107580D01*
X153554166Y-120121867D01*
X153592266Y-120166635D01*
X153601791Y-120246645D01*
X153592266Y-120325702D01*
X153559881Y-120366660D01*
X153462726Y-120383805D01*
X153098871Y-120383805D01*
X153098871Y-121342020D01*
X156651881Y-124426006D01*
X156770919Y-124423083D01*
X154628586Y-121505850D01*
X153874206Y-121505850D01*
X153768478Y-121487752D01*
X153717996Y-121433460D01*
X153706566Y-121336305D01*
X153706566Y-120277125D01*
X153742761Y-120144727D01*
X153879921Y-120109485D01*
X154630491Y-120109485D01*
X154696213Y-120112342D01*
X154746696Y-120130440D01*
X154785272Y-120180922D01*
X154798131Y-120279030D01*
X154780509Y-120384757D01*
X154727646Y-120435240D01*
X154628586Y-120446670D01*
X154043751Y-120446670D01*
X154043751Y-120639075D01*
X154420941Y-120639075D01*
X154486663Y-120641932D01*
X154537146Y-120660030D01*
X154575722Y-120710512D01*
X154588581Y-120808620D01*
X154570483Y-120914347D01*
X154516191Y-120964830D01*
X154417131Y-120976260D01*
X154043751Y-120976260D01*
X154043751Y-121168665D01*
X154630491Y-121168665D01*
X154696213Y-121171522D01*
X154746696Y-121189620D01*
X154785272Y-121240102D01*
X154798131Y-121338210D01*
X154780509Y-121443937D01*
X154727646Y-121494420D01*
X154628586Y-121505850D01*
X156770919Y-124423083D01*
X156889670Y-124414323D01*
X155708006Y-121452033D01*
X155578526Y-121490967D01*
X155438211Y-121503945D01*
X155089596Y-121503945D01*
X154995298Y-121492038D01*
X154944816Y-121456320D01*
X154921956Y-121334400D01*
X154921956Y-120275220D01*
X154924813Y-120208545D01*
X154942911Y-120159015D01*
X154993393Y-120120438D01*
X155091501Y-120107580D01*
X155443926Y-120109485D01*
X155577871Y-120121927D01*
X155703482Y-120159253D01*
X155820758Y-120221463D01*
X155929701Y-120308557D01*
X156021379Y-120413808D01*
X156086863Y-120530490D01*
X156126154Y-120658601D01*
X156139251Y-120798142D01*
X156126451Y-120938219D01*
X156088054Y-121067938D01*
X156024058Y-121187298D01*
X155934463Y-121296300D01*
X155826652Y-121387144D01*
X155708006Y-121452033D01*
X156889670Y-124414323D01*
X157007849Y-124399747D01*
X157125170Y-124379390D01*
X157241351Y-124353300D01*
X157356112Y-124321541D01*
X157469176Y-124284190D01*
X157580271Y-124241335D01*
X157689130Y-124193081D01*
X157795489Y-124139544D01*
X157899094Y-124080852D01*
X157999694Y-124017148D01*
X158097047Y-123948584D01*
X158190919Y-123875326D01*
X158281083Y-123797549D01*
X158367322Y-123715443D01*
X158449428Y-123629204D01*
X158527204Y-123539040D01*
X158600462Y-123445168D01*
X158669026Y-123347815D01*
X158732730Y-123247214D01*
X158791421Y-123143609D01*
X158844958Y-123037249D01*
X158893212Y-122928391D01*
X158936066Y-122817295D01*
X158973418Y-122704231D01*
X159005176Y-122589470D01*
X159031265Y-122473289D01*
X159051622Y-122355968D01*
X159066198Y-122237790D01*
X159074958Y-122119038D01*
X159077880Y-122000000D01*
X159074958Y-121880962D01*
X159066198Y-121762210D01*
X159051622Y-121644032D01*
X159031265Y-121526711D01*
X159005176Y-121410530D01*
X158973418Y-121295769D01*
X158936066Y-121182705D01*
X158893212Y-121071609D01*
X158844958Y-120962751D01*
X158791421Y-120856391D01*
X158732730Y-120752786D01*
X158669026Y-120652185D01*
X158600462Y-120554832D01*
X158527204Y-120460960D01*
X158449428Y-120370796D01*
X158367322Y-120284557D01*
X158281083Y-120202451D01*
X158190919Y-120124674D01*
X158097047Y-120051416D01*
X157999694Y-119982852D01*
X157899094Y-119919148D01*
X157795489Y-119860456D01*
X157689130Y-119806919D01*
X157580271Y-119758665D01*
X157469176Y-119715810D01*
X157356112Y-119678459D01*
X157241351Y-119646700D01*
X157125170Y-119620610D01*
X157007849Y-119600253D01*
X156889670Y-119585677D01*
X156770919Y-119576917D01*
X156651881Y-119573994D01*
X156139251Y-119573994D01*
X151662501Y-120208545D01*
X152176851Y-121271535D01*
X152209236Y-121368690D01*
X152181613Y-121433936D01*
X152098746Y-121492515D01*
X151996828Y-121524900D01*
X151935868Y-121507755D01*
X151901578Y-121471560D01*
X151872051Y-121414410D01*
X151772991Y-121208670D01*
X151245306Y-121208670D01*
X151146246Y-121414410D01*
X151116718Y-121469655D01*
X151082428Y-121504897D01*
X151021468Y-121522995D01*
X150919551Y-121490610D01*
X150836683Y-121433460D01*
X150809061Y-121368690D01*
X150841446Y-121271535D01*
X151355796Y-120206640D01*
X151419613Y-120136155D01*
X151510101Y-120109485D01*
X151599636Y-120134250D01*
X151662501Y-120208545D01*
X156139251Y-119573994D01*
X146660749Y-119573994D01*
G37*
G36*
X145852350Y-70070250D02*
G01*
X146287325Y-70279800D01*
X146287325Y-69857525D01*
X145852350Y-70070250D01*
G37*
G36*
X145852350Y-86792975D02*
G01*
X146287325Y-87002525D01*
X146287325Y-86580250D01*
X145852350Y-86792975D01*
G37*
G36*
X146049200Y-84887975D02*
G01*
X146049200Y-84481575D01*
X145979350Y-84297425D01*
X145769800Y-84205350D01*
X145558662Y-84297425D01*
X145487225Y-84487925D01*
X145487225Y-84887975D01*
X146049200Y-84887975D01*
G37*
G36*
X146049200Y-78591950D02*
G01*
X146049200Y-78185550D01*
X145979350Y-78001400D01*
X145769800Y-77909325D01*
X145558662Y-78001400D01*
X145487225Y-78191900D01*
X145487225Y-78591950D01*
X146049200Y-78591950D01*
G37*
G36*
X145487225Y-67860450D02*
G01*
X145487225Y-68165250D01*
X146687375Y-68165250D01*
X146687375Y-67857275D01*
X146644909Y-67639787D01*
X146517513Y-67444525D01*
X146325822Y-67306412D01*
X146090475Y-67260375D01*
X145854334Y-67305222D01*
X145660262Y-67439762D01*
X145530484Y-67634628D01*
X145487225Y-67860450D01*
G37*
G36*
X146093650Y-73102375D02*
G01*
X146270215Y-73082090D01*
X146423144Y-73021236D01*
X146552438Y-72919812D01*
X146684597Y-72726534D01*
X146728650Y-72511825D01*
X146685788Y-72297512D01*
X146557200Y-72105425D01*
X146429847Y-72004883D01*
X146276389Y-71944558D01*
X146096825Y-71924450D01*
X145916908Y-71944735D01*
X145762392Y-72005589D01*
X145633275Y-72107012D01*
X145502306Y-72300291D01*
X145458650Y-72515000D01*
X145502703Y-72729312D01*
X145634862Y-72921400D01*
X145764156Y-73021942D01*
X145917085Y-73082267D01*
X146093650Y-73102375D01*
G37*
G36*
X144257045Y-92301600D02*
G01*
X145174091Y-91870197D01*
X145074475Y-91714225D01*
X144979225Y-91506439D01*
X144922075Y-91297947D01*
X144903025Y-91088750D01*
X144914534Y-90938334D01*
X144949062Y-90785538D01*
X145042725Y-90552175D01*
X145087175Y-90475975D01*
X145144325Y-90387075D01*
X145295137Y-90304525D01*
X145471350Y-90371200D01*
X146966775Y-90098150D01*
X145204650Y-90098150D01*
X145095113Y-90093388D01*
X145010975Y-90063225D01*
X144946681Y-89979088D01*
X144925250Y-89815575D01*
X144954619Y-89638569D01*
X145042725Y-89552050D01*
X145207825Y-89536175D01*
X145855525Y-89536175D01*
X145855525Y-88694800D01*
X145204650Y-88694800D01*
X145095113Y-88690038D01*
X145010975Y-88659875D01*
X144944300Y-88574150D01*
X144925250Y-88421750D01*
X144941125Y-88275700D01*
X144979225Y-88193150D01*
X145042725Y-88148700D01*
X145087175Y-87046975D01*
X144969700Y-86940613D01*
X144925250Y-86789800D01*
X144966525Y-86640575D01*
X145090350Y-86535800D01*
X146862000Y-85678550D01*
X147023925Y-85624575D01*
X147131875Y-85430900D01*
X146966775Y-85449950D01*
X145204650Y-85449950D01*
X145095113Y-85445188D01*
X145010975Y-85415025D01*
X144946681Y-85330888D01*
X144925250Y-85167375D01*
X144925250Y-84481575D01*
X144947828Y-84297072D01*
X145015561Y-84116097D01*
X145128450Y-83938650D01*
X145244337Y-83822763D01*
X145395150Y-83729100D01*
X145572950Y-83667188D01*
X145769800Y-83646550D01*
X145994872Y-83673008D01*
X146191722Y-83752383D01*
X146360350Y-83884675D01*
X146308260Y-83472322D01*
X146065075Y-83494150D01*
X145823080Y-83471925D01*
X145601922Y-83405250D01*
X145401599Y-83294125D01*
X145222112Y-83138550D01*
X145074177Y-82952813D01*
X144968509Y-82751200D01*
X144905109Y-82533713D01*
X144883975Y-82300350D01*
X144911492Y-82055169D01*
X144994042Y-81819161D01*
X145131625Y-81592325D01*
X145272912Y-81506600D01*
X145452300Y-81579625D01*
X145578506Y-81697894D01*
X145620575Y-81805050D01*
X145533262Y-81998725D01*
X145467778Y-82144775D01*
X145445950Y-82316225D01*
X145488416Y-82544031D01*
X145615812Y-82744850D01*
X145811869Y-82885344D01*
X146060312Y-82932175D01*
X146234232Y-82911008D01*
X146389807Y-82847508D01*
X146527038Y-82741675D01*
X146671103Y-82538475D01*
X146719125Y-82309875D01*
X146704838Y-82143981D01*
X146661975Y-81995550D01*
X146315900Y-81995550D01*
X146315900Y-82246375D01*
X146290500Y-82386075D01*
X146215888Y-82440050D01*
X146082537Y-82452750D01*
X145947600Y-82438463D01*
X145877750Y-82386075D01*
X145849175Y-82233675D01*
X145849175Y-81674875D01*
X145938075Y-81465325D01*
X146115875Y-81433575D01*
X146969950Y-81179575D01*
X145204650Y-81179575D01*
X144983987Y-81119250D01*
X144925250Y-80890650D01*
X144925250Y-79639700D01*
X144930012Y-79530163D01*
X144960175Y-79446025D01*
X145044312Y-79381731D01*
X145207825Y-79360300D01*
X145384037Y-79389669D01*
X145468175Y-79477775D01*
X145487225Y-79642875D01*
X145487225Y-80617600D01*
X145807900Y-80617600D01*
X145807900Y-79988950D01*
X145812662Y-79879413D01*
X145842825Y-79795275D01*
X145926962Y-79730981D01*
X146090475Y-79709550D01*
X146266688Y-79739713D01*
X146350825Y-79830200D01*
X146369875Y-79995300D01*
X146369875Y-80617600D01*
X146690550Y-80617600D01*
X146690550Y-79639700D01*
X146695313Y-79530163D01*
X146725475Y-79446025D01*
X146809613Y-79381731D01*
X146973125Y-79360300D01*
X146966775Y-79153925D01*
X145204650Y-79153925D01*
X145095113Y-79149162D01*
X145010975Y-79119000D01*
X144946681Y-79034862D01*
X144925250Y-78871350D01*
X144925250Y-78185550D01*
X144947828Y-78001047D01*
X145015561Y-77820072D01*
X145128450Y-77642625D01*
X145244337Y-77526737D01*
X145395150Y-77433075D01*
X145572950Y-77371162D01*
X145769800Y-77350525D01*
X145994872Y-77376983D01*
X146191722Y-77456358D01*
X146360350Y-77588650D01*
X146490525Y-77533617D01*
X146656683Y-77461650D01*
X146858825Y-77372750D01*
X147023925Y-77325125D01*
X147135050Y-77374337D01*
X147227125Y-77521975D01*
X147271575Y-77685487D01*
X147241413Y-77787087D01*
X147179500Y-77845825D01*
X147088836Y-77887453D01*
X146897278Y-77970003D01*
X146604825Y-78093475D01*
X146611175Y-78191900D01*
X146611175Y-78591950D01*
X146969950Y-78591950D01*
X147079488Y-78596712D01*
X147163625Y-78626875D01*
X147227919Y-78711012D01*
X147249350Y-78874525D01*
X147219981Y-79050737D01*
X147131875Y-79134875D01*
X146966775Y-79153925D01*
X146973125Y-79360300D01*
X147149338Y-79389669D01*
X147233475Y-79477775D01*
X147252525Y-79642875D01*
X147252525Y-80900175D01*
X147222363Y-81076388D01*
X147131875Y-81160525D01*
X146969950Y-81179575D01*
X146115875Y-81433575D01*
X146814375Y-81433575D01*
X147008050Y-81522475D01*
X147128898Y-81672494D01*
X147215219Y-81855850D01*
X147267011Y-82072544D01*
X147284275Y-82322575D01*
X147261951Y-82551373D01*
X147194978Y-82764694D01*
X147083357Y-82962536D01*
X146927088Y-83144900D01*
X146739266Y-83297697D01*
X146532991Y-83406838D01*
X146308260Y-83472322D01*
X146360350Y-83884675D01*
X146490525Y-83829642D01*
X146656683Y-83757675D01*
X146858825Y-83668775D01*
X147023925Y-83621150D01*
X147135050Y-83670363D01*
X147227125Y-83818000D01*
X147271575Y-83981513D01*
X147241413Y-84083113D01*
X147179500Y-84141850D01*
X147088836Y-84183478D01*
X146897278Y-84266028D01*
X146604825Y-84389500D01*
X146611175Y-84487925D01*
X146611175Y-84887975D01*
X146969950Y-84887975D01*
X147079488Y-84892738D01*
X147163625Y-84922900D01*
X147227919Y-85007038D01*
X147249350Y-85170550D01*
X147219981Y-85346763D01*
X147131875Y-85430900D01*
X147023925Y-85624575D01*
X147132669Y-85670613D01*
X147230300Y-85808725D01*
X147284275Y-85978588D01*
X147255700Y-86080188D01*
X147195375Y-86137338D01*
X147100125Y-86186550D01*
X146757225Y-86351650D01*
X146757225Y-87231125D01*
X147100125Y-87396225D01*
X147192200Y-87445438D01*
X147250938Y-87502588D01*
X147281100Y-87604188D01*
X147227125Y-87774050D01*
X147131875Y-87912163D01*
X147023925Y-87958200D01*
X146862000Y-87904225D01*
X145087175Y-87046975D01*
X145042725Y-88148700D01*
X145207825Y-88132825D01*
X146969950Y-88132825D01*
X147079488Y-88137588D01*
X147163625Y-88167750D01*
X147227919Y-88251888D01*
X147249350Y-88415400D01*
X147219981Y-88591613D01*
X147131875Y-88675750D01*
X146966775Y-88694800D01*
X146322250Y-88694800D01*
X146322250Y-89536175D01*
X146969950Y-89536175D01*
X147079488Y-89540938D01*
X147163625Y-89571100D01*
X147227919Y-89655238D01*
X147249350Y-89818750D01*
X147219981Y-89994963D01*
X147131875Y-90079100D01*
X146966775Y-90098150D01*
X145471350Y-90371200D01*
X145599938Y-90488675D01*
X145642800Y-90593450D01*
X145572950Y-90755375D01*
X145491987Y-90910950D01*
X145465000Y-91110975D01*
X145500719Y-91315763D01*
X145607875Y-91517375D01*
X145804725Y-91676125D01*
X145940059Y-91723750D01*
X146092062Y-91739625D01*
X146244066Y-91723750D01*
X146379400Y-91676125D01*
X146579425Y-91514200D01*
X146684200Y-91316556D01*
X146719125Y-91110975D01*
X146693725Y-90925238D01*
X146642925Y-90799825D01*
X146601650Y-90742675D01*
X146538150Y-90590275D01*
X146582600Y-90487881D01*
X146715950Y-90377550D01*
X146893750Y-90307700D01*
X147004875Y-90350563D01*
X147084250Y-90450575D01*
X147150925Y-90560113D01*
X147233475Y-90774425D01*
X147271575Y-90933572D01*
X147284275Y-91087163D01*
X147274353Y-91238769D01*
X147244588Y-91391963D01*
X147191406Y-91548331D01*
X147111238Y-91709463D01*
X147007256Y-91864641D01*
X146882638Y-92003150D01*
X146728650Y-92121816D01*
X146536563Y-92217463D01*
X146316297Y-92280566D01*
X146077775Y-92301600D01*
X145841634Y-92280963D01*
X145628512Y-92219050D01*
X145444362Y-92124991D01*
X145295137Y-92007913D01*
X145174091Y-91870197D01*
X144257045Y-92301600D01*
X144257045Y-92814230D01*
X146100000Y-94042867D01*
X147942955Y-92814230D01*
X147298563Y-77193362D01*
X147217600Y-77229875D01*
X147058850Y-77191775D01*
X144922075Y-76169425D01*
X144782375Y-76061475D01*
X144769675Y-75986862D01*
X144820475Y-75826525D01*
X144906994Y-75697937D01*
X145001450Y-75655075D01*
X145160200Y-75699525D01*
X146969950Y-75480450D01*
X145204650Y-75480450D01*
X145095113Y-75475688D01*
X145010975Y-75445525D01*
X144946681Y-75361387D01*
X144925250Y-75197875D01*
X144954619Y-75020869D01*
X145042725Y-74934350D01*
X145207825Y-74918475D01*
X146782625Y-74918475D01*
X146782625Y-74054875D01*
X146806438Y-73902475D01*
X146881050Y-73838975D01*
X147015988Y-73823100D01*
X147150925Y-73838975D01*
X147220775Y-73892950D01*
X147252525Y-74058050D01*
X147252525Y-75201050D01*
X147222363Y-75377262D01*
X147131875Y-75461400D01*
X146969950Y-75480450D01*
X145160200Y-75699525D01*
X147277925Y-76718700D01*
X147357300Y-76758387D01*
X147406513Y-76806012D01*
X147430325Y-76893325D01*
X147382700Y-77052075D01*
X147298563Y-77193362D01*
X147942955Y-92814230D01*
X147942955Y-92301600D01*
X147942955Y-66698400D01*
X146903275Y-67039712D01*
X147054683Y-67219398D01*
X147162831Y-67417141D01*
X147227720Y-67632941D01*
X147249350Y-67866800D01*
X147249350Y-68447825D01*
X147229506Y-68604987D01*
X147169975Y-68689125D01*
X146966775Y-68727225D01*
X145201475Y-68727225D01*
X145090350Y-68722462D01*
X145007800Y-68692300D01*
X144943506Y-68608162D01*
X144922075Y-68444650D01*
X144925250Y-67857275D01*
X144945987Y-67634033D01*
X145008197Y-67424681D01*
X145111880Y-67229220D01*
X145257037Y-67047650D01*
X145432456Y-66894853D01*
X145626925Y-66785712D01*
X145840444Y-66720228D01*
X146073012Y-66698400D01*
X146306474Y-66719732D01*
X146522672Y-66783728D01*
X146721605Y-66890388D01*
X146903275Y-67039712D01*
X147942955Y-66698400D01*
X147942955Y-66185770D01*
X146100000Y-64957133D01*
X144257045Y-66185770D01*
X144896675Y-72524525D01*
X144917908Y-72297314D01*
X144981606Y-72085581D01*
X145087175Y-70324250D01*
X144969700Y-70217887D01*
X144925250Y-70067075D01*
X144966525Y-69917850D01*
X145090350Y-69813075D01*
X146862000Y-68955825D01*
X147023925Y-68901850D01*
X147132669Y-68947887D01*
X147230300Y-69086000D01*
X147284275Y-69255862D01*
X147255700Y-69357462D01*
X147195375Y-69414612D01*
X147100125Y-69463825D01*
X146757225Y-69628925D01*
X146757225Y-70508400D01*
X147100125Y-70673500D01*
X147192200Y-70722712D01*
X147250938Y-70779862D01*
X147281100Y-70881462D01*
X147227125Y-71051325D01*
X147131875Y-71189437D01*
X147023925Y-71235475D01*
X146862000Y-71181500D01*
X145087175Y-70324250D01*
X144981606Y-72085581D01*
X145087770Y-71889327D01*
X145236400Y-71708550D01*
X145416482Y-71557142D01*
X145617003Y-71448994D01*
X145837963Y-71384105D01*
X146079362Y-71362475D01*
X146321655Y-71383112D01*
X146545294Y-71445025D01*
X146750280Y-71548212D01*
X146936613Y-71692675D01*
X147091493Y-71867300D01*
X147202122Y-72060975D01*
X147268499Y-72273700D01*
X147290625Y-72505475D01*
X147268797Y-72737746D01*
X147203313Y-72951959D01*
X147094172Y-73148115D01*
X146941375Y-73326212D01*
X146758416Y-73474148D01*
X146558788Y-73579816D01*
X146342491Y-73643216D01*
X146109525Y-73664350D01*
X145854334Y-73640537D01*
X145615812Y-73569100D01*
X145404278Y-73457975D01*
X145230050Y-73315100D01*
X145091144Y-73144444D01*
X144985575Y-72949975D01*
X144918900Y-72740425D01*
X144896675Y-72524525D01*
X144257045Y-66185770D01*
X144257045Y-66698400D01*
X144257045Y-92301600D01*
G37*
G36*
X224565050Y-85260975D02*
G01*
X225000025Y-85470525D01*
X225000025Y-85048250D01*
X224565050Y-85260975D01*
G37*
G36*
X224761900Y-76688475D02*
G01*
X224761900Y-76282075D01*
X224692050Y-76097925D01*
X224482500Y-76005850D01*
X224271362Y-76097925D01*
X224199925Y-76288425D01*
X224199925Y-76688475D01*
X224761900Y-76688475D01*
G37*
G36*
X225184175Y-87115175D02*
G01*
X225063525Y-87132638D01*
X225000025Y-87191375D01*
X224974625Y-87369175D01*
X224930175Y-87540625D01*
X224747612Y-87597775D01*
X224565050Y-87539038D01*
X224520600Y-87343775D01*
X224453925Y-87191375D01*
X224339625Y-87181850D01*
X224228500Y-87234238D01*
X224196750Y-87391400D01*
X224196750Y-87835900D01*
X225400075Y-87835900D01*
X225400075Y-87315200D01*
X225346100Y-87165181D01*
X225184175Y-87115175D01*
G37*
G36*
X223090395Y-88397875D02*
G01*
X223634775Y-88115300D01*
X223634775Y-87315200D01*
X223657353Y-87131050D01*
X223725086Y-86968067D01*
X223837975Y-86826250D01*
X223984731Y-86711597D01*
X224149831Y-86642806D01*
X224333275Y-86619875D01*
X224534094Y-86650038D01*
X224717450Y-86740525D01*
X224871614Y-86636456D01*
X225037772Y-86574014D01*
X225574700Y-86372225D01*
X223799875Y-85514975D01*
X223682400Y-85408613D01*
X223637950Y-85257800D01*
X223679225Y-85108575D01*
X223803050Y-85003800D01*
X223634775Y-83765550D01*
X223634775Y-82000250D01*
X223658587Y-81851025D01*
X223733200Y-81787525D01*
X223866550Y-81771650D01*
X223998312Y-81787525D01*
X224066575Y-81841500D01*
X224095150Y-82003425D01*
X224095150Y-82609850D01*
X225692175Y-82609850D01*
X225800125Y-82614613D01*
X225881088Y-82643188D01*
X225946175Y-82727325D01*
X225965225Y-82886075D01*
X225946175Y-83043238D01*
X225881088Y-83125788D01*
X225798538Y-83154363D01*
X225689000Y-83159125D01*
X224095150Y-83159125D01*
X224095150Y-83768725D01*
X224071337Y-83917950D01*
X223996725Y-83981450D01*
X223863375Y-83997325D01*
X223731612Y-83981450D01*
X223663350Y-83927475D01*
X223634775Y-83765550D01*
X223803050Y-85003800D01*
X225574700Y-84146550D01*
X225736625Y-84092575D01*
X225845369Y-84138613D01*
X225943000Y-84276725D01*
X225996975Y-84446588D01*
X225968400Y-84548188D01*
X225908075Y-84605338D01*
X225812825Y-84654550D01*
X225469925Y-84819650D01*
X225469925Y-85699125D01*
X225812825Y-85864225D01*
X225904900Y-85913438D01*
X225963638Y-85970588D01*
X225993800Y-86072188D01*
X225939825Y-86242050D01*
X225844575Y-86380163D01*
X225736625Y-86426200D01*
X225574700Y-86372225D01*
X225037772Y-86574014D01*
X225215925Y-86553200D01*
X225416126Y-86580188D01*
X225593397Y-86652683D01*
X225747738Y-86770688D01*
X225866800Y-86921500D01*
X225938238Y-87092421D01*
X225962050Y-87283450D01*
X225962050Y-88118475D01*
X225931888Y-88294688D01*
X225841400Y-88378825D01*
X225676300Y-88397875D01*
X223914175Y-88397875D01*
X223803050Y-88393113D01*
X223720500Y-88362950D01*
X223656206Y-88278813D01*
X223634775Y-88115300D01*
X223090395Y-88397875D01*
X223090395Y-88910505D01*
X224800000Y-90050242D01*
X226509605Y-88910505D01*
X226509605Y-88397875D01*
X226509605Y-71602125D01*
X225346100Y-71833900D01*
X225346100Y-72106950D01*
X225603275Y-72106950D01*
X225765200Y-72133937D01*
X225833463Y-72214900D01*
X225850925Y-72359362D01*
X225833463Y-72503825D01*
X225774725Y-72580025D01*
X225600100Y-72608600D01*
X225346100Y-72608600D01*
X225346100Y-72884825D01*
X225320700Y-73037225D01*
X225239738Y-73100725D01*
X225095275Y-73116600D01*
X224950813Y-73099137D01*
X224873025Y-73037225D01*
X224844450Y-72862600D01*
X224844450Y-72608600D01*
X224587275Y-72608600D01*
X224425350Y-72583200D01*
X224357087Y-72502237D01*
X224339625Y-72357775D01*
X224357087Y-72213312D01*
X224415825Y-72135525D01*
X224590450Y-72106950D01*
X224844450Y-72106950D01*
X224844450Y-71849775D01*
X224871438Y-71687850D01*
X224952400Y-71619587D01*
X225096863Y-71602125D01*
X225241325Y-71618000D01*
X225317525Y-71671975D01*
X225346100Y-71833900D01*
X226509605Y-71602125D01*
X226509605Y-71089495D01*
X224800000Y-69949758D01*
X223682400Y-73399175D01*
X223788762Y-73282494D01*
X223891950Y-73243600D01*
X224060225Y-73316625D01*
X225085750Y-74002425D01*
X225692175Y-74002425D01*
X225801713Y-74007187D01*
X225885850Y-74037350D01*
X225952525Y-74123075D01*
X225971575Y-74285000D01*
X225952525Y-74446925D01*
X225884263Y-74532650D01*
X225798538Y-74562812D01*
X225685825Y-74567575D01*
X225085750Y-74567575D01*
X224060225Y-75253375D01*
X223891950Y-75326400D01*
X223792334Y-75291475D01*
X223696687Y-75186700D01*
X223603025Y-74986675D01*
X223628425Y-74891425D01*
X223758600Y-74777125D01*
X224546000Y-74285000D01*
X223758600Y-73792875D01*
X223633187Y-73688100D01*
X223603025Y-73584912D01*
X223682400Y-73399175D01*
X224800000Y-69949758D01*
X223090395Y-71089495D01*
X223634775Y-81444625D01*
X223634775Y-79679325D01*
X223658587Y-79530100D01*
X223733200Y-79466600D01*
X223866550Y-79450725D01*
X223998312Y-79466600D01*
X224066575Y-79520575D01*
X224095150Y-79682500D01*
X224095150Y-80288925D01*
X225682650Y-79276100D01*
X223917350Y-79276100D01*
X223696687Y-79215775D01*
X223637950Y-78987175D01*
X223637950Y-77736225D01*
X223642712Y-77626687D01*
X223672875Y-77542550D01*
X223757012Y-77478256D01*
X223920525Y-77456825D01*
X224096737Y-77486194D01*
X224180875Y-77574300D01*
X224199925Y-77739400D01*
X224199925Y-78714125D01*
X224520600Y-78714125D01*
X224520600Y-78085475D01*
X224525362Y-77975938D01*
X224555525Y-77891800D01*
X224639662Y-77827506D01*
X224803175Y-77806075D01*
X224979388Y-77836237D01*
X225063525Y-77926725D01*
X225082575Y-78091825D01*
X225082575Y-78714125D01*
X225403250Y-78714125D01*
X225403250Y-77736225D01*
X225408013Y-77626687D01*
X225438175Y-77542550D01*
X225522313Y-77478256D01*
X225685825Y-77456825D01*
X225679475Y-77250450D01*
X223917350Y-77250450D01*
X223807812Y-77245687D01*
X223723675Y-77215525D01*
X223659381Y-77131387D01*
X223637950Y-76967875D01*
X223637950Y-76282075D01*
X223660528Y-76097572D01*
X223728261Y-75916597D01*
X223841150Y-75739150D01*
X223957037Y-75623262D01*
X224107850Y-75529600D01*
X224285650Y-75467687D01*
X224482500Y-75447050D01*
X224707572Y-75473508D01*
X224904422Y-75552883D01*
X225073050Y-75685175D01*
X225203225Y-75630142D01*
X225369383Y-75558175D01*
X225571525Y-75469275D01*
X225736625Y-75421650D01*
X225847750Y-75470862D01*
X225939825Y-75618500D01*
X225984275Y-75782012D01*
X225954113Y-75883612D01*
X225892200Y-75942350D01*
X225801536Y-75983978D01*
X225609978Y-76066528D01*
X225317525Y-76190000D01*
X225323875Y-76288425D01*
X225323875Y-76688475D01*
X225682650Y-76688475D01*
X225792188Y-76693237D01*
X225876325Y-76723400D01*
X225940619Y-76807537D01*
X225962050Y-76971050D01*
X225932681Y-77147262D01*
X225844575Y-77231400D01*
X225679475Y-77250450D01*
X225685825Y-77456825D01*
X225862038Y-77486194D01*
X225946175Y-77574300D01*
X225965225Y-77739400D01*
X225965225Y-78996700D01*
X225935063Y-79172912D01*
X225844575Y-79257050D01*
X225682650Y-79276100D01*
X224095150Y-80288925D01*
X225692175Y-80288925D01*
X225800125Y-80293688D01*
X225881088Y-80322263D01*
X225946175Y-80406400D01*
X225965225Y-80565150D01*
X225946175Y-80722313D01*
X225881088Y-80804863D01*
X225798538Y-80833438D01*
X225689000Y-80838200D01*
X224095150Y-80838200D01*
X224095150Y-81447800D01*
X224071337Y-81597025D01*
X223996725Y-81660525D01*
X223863375Y-81676400D01*
X223731612Y-81660525D01*
X223663350Y-81606550D01*
X223634775Y-81444625D01*
X223090395Y-71089495D01*
X223090395Y-71602125D01*
X223090395Y-88397875D01*
G37*
G36*
X185714300Y-61598287D02*
G01*
X185727794Y-61719731D01*
X185768275Y-61855462D01*
X185898847Y-61768150D01*
X185992113Y-61696712D01*
X186066725Y-61576062D01*
X186027831Y-61471287D01*
X185911150Y-61436362D01*
X185763513Y-61476844D01*
X185714300Y-61598287D01*
G37*
G36*
X199747800Y-62512687D02*
G01*
X199868450Y-62411087D01*
X199812888Y-62293612D01*
X199654138Y-62249162D01*
X199449350Y-62333300D01*
X199347750Y-62512687D01*
X199747800Y-62512687D01*
G37*
G36*
X179992950Y-62512687D02*
G01*
X180113600Y-62411087D01*
X180058037Y-62293612D01*
X179899287Y-62249162D01*
X179694500Y-62333300D01*
X179592900Y-62512687D01*
X179992950Y-62512687D01*
G37*
G36*
X185812725Y-63011163D02*
G01*
X185955600Y-62998463D01*
X185834950Y-62881340D01*
X185718533Y-62750107D01*
X185606350Y-62604763D01*
X185533325Y-62795263D01*
X185603175Y-62957188D01*
X185812725Y-63011163D01*
G37*
G36*
X197442750Y-62596825D02*
G01*
X197523713Y-62782563D01*
X197720563Y-62865113D01*
X197912650Y-62780975D01*
X197988850Y-62596825D01*
X197915825Y-62409500D01*
X197718975Y-62322187D01*
X197518950Y-62407912D01*
X197442750Y-62596825D01*
G37*
G36*
X195563150Y-62620638D02*
G01*
X195645700Y-62809550D01*
X195845725Y-62893688D01*
X196040988Y-62807963D01*
X196118775Y-62619050D01*
X196044163Y-62426962D01*
X195844138Y-62338062D01*
X195640938Y-62426962D01*
X195563150Y-62620638D01*
G37*
G36*
X158402950Y-62811138D02*
G01*
X158602975Y-62896863D01*
X158798237Y-62811138D01*
X158876025Y-62622225D01*
X158801412Y-62430137D01*
X158599800Y-62341237D01*
X158396600Y-62428550D01*
X158320400Y-62620638D01*
X158402950Y-62811138D01*
G37*
G36*
X210869825Y-62847650D02*
G01*
X211076200Y-62925438D01*
X211285750Y-62846063D01*
X211364331Y-62747638D01*
X211390525Y-62611113D01*
X211365919Y-62475381D01*
X211292100Y-62379337D01*
X211079375Y-62303137D01*
X210866650Y-62382512D01*
X210792831Y-62480541D01*
X210768225Y-62615875D01*
X210793625Y-62750813D01*
X210869825Y-62847650D01*
G37*
G36*
X191302300Y-62847650D02*
G01*
X191508675Y-62925438D01*
X191718225Y-62846063D01*
X191796806Y-62747638D01*
X191823000Y-62611113D01*
X191798394Y-62475381D01*
X191724575Y-62379337D01*
X191511850Y-62303137D01*
X191299125Y-62382512D01*
X191225306Y-62480541D01*
X191200700Y-62615875D01*
X191226100Y-62750813D01*
X191302300Y-62847650D01*
G37*
G36*
X204805575Y-62847650D02*
G01*
X205011950Y-62925438D01*
X205221500Y-62846063D01*
X205300081Y-62747638D01*
X205326275Y-62611113D01*
X205301669Y-62475381D01*
X205227850Y-62379337D01*
X205015125Y-62303137D01*
X204802400Y-62382512D01*
X204728581Y-62480541D01*
X204703975Y-62615875D01*
X204729375Y-62750813D01*
X204805575Y-62847650D01*
G37*
G36*
X163705200Y-62674613D02*
G01*
X163687737Y-62553962D01*
X163629000Y-62490462D01*
X163451200Y-62465062D01*
X163279750Y-62420612D01*
X163222600Y-62238050D01*
X163281337Y-62055487D01*
X163476600Y-62011037D01*
X163629000Y-61944362D01*
X163638525Y-61830062D01*
X163586137Y-61718937D01*
X163428975Y-61687187D01*
X162984475Y-61687187D01*
X162984475Y-62890513D01*
X163505175Y-62890513D01*
X163655194Y-62836538D01*
X163705200Y-62674613D01*
G37*
G36*
X157764775Y-60482407D02*
G01*
X158918887Y-61085525D01*
X159003025Y-61020437D01*
X159163362Y-61001387D01*
X159323700Y-61020437D01*
X159407837Y-61087112D01*
X159726925Y-61087112D01*
X159811062Y-61022819D01*
X159974575Y-61001387D01*
X160134912Y-61022819D01*
X160215875Y-61087112D01*
X160246037Y-61171250D01*
X160250800Y-61280787D01*
X162060550Y-61801487D01*
X162201044Y-61892769D01*
X162247875Y-62001512D01*
X162222475Y-62109462D01*
X162422500Y-63166738D01*
X162422500Y-61404612D01*
X162427262Y-61293487D01*
X162457425Y-61210937D01*
X162541562Y-61146644D01*
X162705075Y-61125212D01*
X163505175Y-61125212D01*
X163689325Y-61147790D01*
X164508475Y-61214112D01*
X164594200Y-61152200D01*
X164756125Y-61131562D01*
X164903762Y-61152200D01*
X164984725Y-61195062D01*
X165003775Y-61214112D01*
X165724500Y-62160262D01*
X165926049Y-61893943D01*
X166098896Y-61666486D01*
X166243041Y-61477891D01*
X166358484Y-61328158D01*
X166445225Y-61217287D01*
X166536109Y-61152994D01*
X166700812Y-61131562D01*
X166863134Y-61152994D01*
X166946875Y-61217287D01*
X166977037Y-61303012D01*
X166981800Y-61414137D01*
X167222306Y-62852016D01*
X167324700Y-62731763D01*
X167492975Y-62655563D01*
X167599337Y-62695250D01*
X167740625Y-62814313D01*
X167867625Y-62917500D01*
X168020025Y-62966713D01*
X168184067Y-62939901D01*
X168282492Y-62859468D01*
X168315300Y-62725413D01*
X168234337Y-62603175D01*
X168032725Y-62531737D01*
X167907312Y-62502766D01*
X167772375Y-62460300D01*
X167637437Y-62406722D01*
X167512025Y-62344412D01*
X167401297Y-62258291D01*
X167310412Y-62133275D01*
X167249691Y-61974128D01*
X167229450Y-61785612D01*
X167252557Y-61607283D01*
X167321878Y-61444829D01*
X167437412Y-61298250D01*
X167592811Y-61182715D01*
X167781724Y-61113394D01*
X168004150Y-61090287D01*
X168186316Y-61102591D01*
X168351812Y-61139500D01*
X168569300Y-61239512D01*
X168648675Y-61299837D01*
X168747100Y-61455412D01*
X168670900Y-61630037D01*
X168561362Y-61749100D01*
X168448650Y-61788787D01*
X168283550Y-61725287D01*
X168247037Y-61693537D01*
X168197825Y-61652262D01*
X168027962Y-61610987D01*
X167856512Y-61660200D01*
X167788250Y-61796725D01*
X167869212Y-61938012D01*
X168070825Y-62011037D01*
X168197031Y-62035247D01*
X168334350Y-62069775D01*
X168471669Y-62113828D01*
X168597875Y-62166612D01*
X168708603Y-62244797D01*
X168799487Y-62365050D01*
X168860209Y-62522609D01*
X168880450Y-62712713D01*
X168859812Y-62906784D01*
X168797900Y-63076250D01*
X168702650Y-63215553D01*
X170826725Y-63014338D01*
X170071075Y-63014338D01*
X169928994Y-62987350D01*
X169858350Y-62906388D01*
X169842475Y-62760338D01*
X169861525Y-62617463D01*
X169921850Y-62541262D01*
X170074250Y-62512687D01*
X170829900Y-62512687D01*
X170971187Y-62538881D01*
X171039450Y-62617463D01*
X171058500Y-62763513D01*
X171041037Y-62907975D01*
X170985475Y-62985763D01*
X170826725Y-63014338D01*
X168702650Y-63215553D01*
X168582000Y-63319138D01*
X172318975Y-63085775D01*
X172200309Y-62931788D01*
X172104662Y-62739700D01*
X172041559Y-62519434D01*
X172020525Y-62280912D01*
X172041162Y-62044772D01*
X172103075Y-61831650D01*
X172197134Y-61647500D01*
X172314212Y-61498275D01*
X172451928Y-61377228D01*
X172607900Y-61277612D01*
X172815686Y-61182362D01*
X173024178Y-61125212D01*
X173233375Y-61106162D01*
X173383791Y-61117672D01*
X173536587Y-61152200D01*
X173769950Y-61245862D01*
X173846150Y-61290312D01*
X173935050Y-61347462D01*
X174017600Y-61498275D01*
X181799525Y-61782437D01*
X181999374Y-61809425D01*
X182175586Y-61890387D01*
X182328162Y-62025325D01*
X182445461Y-62199068D01*
X182759962Y-62287262D01*
X182713925Y-62103112D01*
X182729800Y-61914200D01*
X182774250Y-61830062D01*
X182901250Y-61788787D01*
X183006025Y-61801487D01*
X183006025Y-61474462D01*
X183010787Y-61366512D01*
X183040950Y-61290312D01*
X183122706Y-61230781D01*
X183285425Y-61210937D01*
X183457669Y-61240306D01*
X183542600Y-61328412D01*
X183558475Y-61490337D01*
X183558475Y-61801487D01*
X183769612Y-61788787D01*
X183877562Y-61793550D01*
X183961700Y-61823712D01*
X184023612Y-61905469D01*
X184044250Y-62068187D01*
X184022819Y-62229319D01*
X183958525Y-62312662D01*
X183874387Y-62339650D01*
X183764850Y-62344412D01*
X183558475Y-62331712D01*
X183558475Y-62769863D01*
X183585463Y-62893688D01*
X183687062Y-62931788D01*
X183801362Y-62936550D01*
X183885500Y-62966713D01*
X183958525Y-63179438D01*
X183936300Y-63340569D01*
X183869625Y-63423913D01*
X183785487Y-63450900D01*
X183679125Y-63455663D01*
X183476631Y-63439082D01*
X183309414Y-63389340D01*
X183177475Y-63306438D01*
X183082225Y-63184024D01*
X183025075Y-63015749D01*
X183006025Y-62801613D01*
X183006025Y-62331712D01*
X182875850Y-62341237D01*
X182759962Y-62287262D01*
X182445461Y-62199068D01*
X182515840Y-62396447D01*
X182539300Y-62617463D01*
X182539300Y-63176263D01*
X182534537Y-63285800D01*
X182507550Y-63366763D01*
X182423412Y-63431056D01*
X182259900Y-63452488D01*
X182082100Y-63423119D01*
X181999550Y-63335013D01*
X181980500Y-63173088D01*
X181980500Y-62614288D01*
X181905887Y-62411087D01*
X181705862Y-62338062D01*
X181502662Y-62414262D01*
X181424875Y-62614288D01*
X181424875Y-63176263D01*
X181420112Y-63285800D01*
X181389950Y-63366763D01*
X181308194Y-63431056D01*
X181145475Y-63452488D01*
X180984344Y-63431056D01*
X180901000Y-63366763D01*
X180874012Y-63282625D01*
X180869250Y-63173088D01*
X180869250Y-62049137D01*
X180874012Y-61942775D01*
X180904175Y-61861812D01*
X180987519Y-61802281D01*
X181148650Y-61782437D01*
X181305019Y-61800694D01*
X181386775Y-61855462D01*
X181418525Y-61985637D01*
X181475675Y-61922137D01*
X181561400Y-61855462D01*
X181799525Y-61782437D01*
X174017600Y-61498275D01*
X173950925Y-61674487D01*
X173833450Y-61803075D01*
X173728675Y-61845937D01*
X173566750Y-61776087D01*
X173411175Y-61695125D01*
X173211150Y-61668137D01*
X173006362Y-61703856D01*
X172804750Y-61811012D01*
X172646000Y-62007862D01*
X172598375Y-62143197D01*
X172582500Y-62295200D01*
X172598375Y-62447203D01*
X172646000Y-62582537D01*
X172807925Y-62782563D01*
X173005569Y-62887338D01*
X173211150Y-62922263D01*
X173396887Y-62896863D01*
X173522300Y-62846063D01*
X173579450Y-62804788D01*
X173731850Y-62741288D01*
X173834244Y-62785738D01*
X173944575Y-62919088D01*
X174014425Y-63096888D01*
X173971562Y-63208013D01*
X173871550Y-63287388D01*
X173762012Y-63354063D01*
X173547700Y-63436613D01*
X173388553Y-63474713D01*
X173234962Y-63487413D01*
X173083356Y-63477491D01*
X172930162Y-63447725D01*
X172773794Y-63394544D01*
X172612662Y-63314375D01*
X172457484Y-63210394D01*
X172318975Y-63085775D01*
X168582000Y-63319138D01*
X168406669Y-63412624D01*
X168223578Y-63468715D01*
X168032725Y-63487413D01*
X167887469Y-63478284D01*
X167750150Y-63450900D01*
X167534250Y-63360413D01*
X167391375Y-63260400D01*
X167299300Y-63163563D01*
X167270725Y-63128638D01*
X167188175Y-62946075D01*
X167222306Y-62852016D01*
X166981800Y-61414137D01*
X166981800Y-63176263D01*
X166951637Y-63350094D01*
X166861150Y-63433438D01*
X166708750Y-63452488D01*
X166562700Y-63436613D01*
X166480150Y-63398513D01*
X166435700Y-63335013D01*
X166419825Y-63169913D01*
X166419825Y-62106287D01*
X166322194Y-62233684D01*
X166188050Y-62419025D01*
X166063431Y-62593253D01*
X165994375Y-62687313D01*
X165937225Y-62761925D01*
X165859437Y-62819075D01*
X165726087Y-62855588D01*
X165595912Y-62822250D01*
X165511775Y-62757163D01*
X165486375Y-62722238D01*
X165391919Y-62598016D01*
X165235550Y-62384100D01*
X165091087Y-62185266D01*
X165032350Y-62106287D01*
X165032350Y-63176263D01*
X165027587Y-63285800D01*
X164997425Y-63366763D01*
X164911700Y-63431056D01*
X164749775Y-63452488D01*
X164592612Y-63431056D01*
X164508475Y-63366763D01*
X164478312Y-63284213D01*
X164473550Y-63169913D01*
X164473550Y-61407787D01*
X164478312Y-61298250D01*
X164508475Y-61214112D01*
X163689325Y-61147790D01*
X163852308Y-61215524D01*
X163994125Y-61328412D01*
X164108778Y-61475168D01*
X164177569Y-61640268D01*
X164200500Y-61823712D01*
X164170337Y-62024531D01*
X164079850Y-62207887D01*
X164183919Y-62362051D01*
X164246361Y-62528210D01*
X164267175Y-62706363D01*
X164240187Y-62906564D01*
X164167692Y-63083835D01*
X164049687Y-63238175D01*
X163898875Y-63357238D01*
X163727954Y-63428675D01*
X163536925Y-63452488D01*
X162701900Y-63452488D01*
X162525687Y-63422325D01*
X162441550Y-63331838D01*
X162422500Y-63166738D01*
X162222475Y-62109462D01*
X162197075Y-62163437D01*
X161365225Y-64023988D01*
X174966925Y-63449313D01*
X174765312Y-63422325D01*
X174588042Y-63341363D01*
X174435112Y-63206425D01*
X174317814Y-63032682D01*
X174247435Y-62835303D01*
X174223975Y-62614288D01*
X174223975Y-62058662D01*
X174228737Y-61947537D01*
X174255725Y-61864987D01*
X174339862Y-61800694D01*
X174503375Y-61779262D01*
X174679587Y-61809425D01*
X174763725Y-61899912D01*
X174782775Y-62061837D01*
X174782775Y-62617463D01*
X174857387Y-62820663D01*
X175057412Y-62893688D01*
X175260612Y-62817488D01*
X175338400Y-62617463D01*
X175338400Y-62055487D01*
X175343162Y-61945950D01*
X175373325Y-61861812D01*
X175455081Y-61799900D01*
X175617800Y-61779262D01*
X175778931Y-61800694D01*
X175862275Y-61864987D01*
X175889262Y-61949125D01*
X175894025Y-62058662D01*
X176148025Y-63173088D01*
X176148025Y-62058662D01*
X176152787Y-61949125D01*
X176179775Y-61868162D01*
X176263912Y-61803869D01*
X176427425Y-61782437D01*
X176582206Y-61800694D01*
X176665550Y-61855462D01*
X176700475Y-61960237D01*
X176746512Y-61906262D01*
X176875100Y-61820537D01*
X177048137Y-61766562D01*
X177173550Y-61774500D01*
X177284675Y-61801487D01*
X177384687Y-61866575D01*
X177424375Y-62014212D01*
X177599000Y-63173088D01*
X177599000Y-62058662D01*
X177603762Y-61949125D01*
X177630750Y-61868162D01*
X177714887Y-61803869D01*
X177878400Y-61782437D01*
X178033181Y-61800694D01*
X178116525Y-61855462D01*
X178151450Y-61960237D01*
X178197487Y-61906262D01*
X178326075Y-61820537D01*
X178499112Y-61766562D01*
X178624525Y-61774500D01*
X178735650Y-61801487D01*
X178835662Y-61866575D01*
X178875350Y-62014212D01*
X178815025Y-62236462D01*
X178640400Y-62357112D01*
X178530862Y-62331712D01*
X178392750Y-62306312D01*
X178232412Y-62366637D01*
X178157800Y-62512687D01*
X179002350Y-62626988D01*
X179031101Y-62378103D01*
X179117356Y-62164849D01*
X179261112Y-61987225D01*
X179447908Y-61854051D01*
X179663279Y-61774147D01*
X179907225Y-61747512D01*
X180113203Y-61766959D01*
X180289812Y-61825300D01*
X180437053Y-61922534D01*
X180554925Y-62058662D01*
X180635887Y-62231303D01*
X180662875Y-62419025D01*
X180638666Y-62588887D01*
X180566037Y-62707950D01*
X180351725Y-62801613D01*
X179599250Y-62801613D01*
X179704025Y-62950838D01*
X179913575Y-63011163D01*
X180077881Y-63001638D01*
X180202500Y-62973063D01*
X180237425Y-62960363D01*
X180364425Y-62925438D01*
X180539050Y-63068313D01*
X180580325Y-63214363D01*
X180538058Y-63337989D01*
X180411256Y-63426294D01*
X180199920Y-63479277D01*
X179904050Y-63496938D01*
X179682197Y-63476697D01*
X179486537Y-63415975D01*
X179324216Y-63321916D01*
X179202375Y-63201663D01*
X179091250Y-63023510D01*
X179024575Y-62831951D01*
X179002350Y-62626988D01*
X178157800Y-62512687D01*
X178157800Y-63179438D01*
X178153037Y-63288975D01*
X178122875Y-63373113D01*
X178037150Y-63435025D01*
X177875225Y-63455663D01*
X177656150Y-63401688D01*
X177599000Y-63265163D01*
X177599000Y-63173088D01*
X177424375Y-62014212D01*
X177364050Y-62236462D01*
X177189425Y-62357112D01*
X177079887Y-62331712D01*
X176941775Y-62306312D01*
X176781437Y-62366637D01*
X176706825Y-62512687D01*
X176706825Y-63179438D01*
X176702062Y-63288975D01*
X176671900Y-63373113D01*
X176586175Y-63435025D01*
X176424250Y-63455663D01*
X176205175Y-63401688D01*
X176148025Y-63265163D01*
X176148025Y-63173088D01*
X175894025Y-62058662D01*
X175894025Y-63182613D01*
X175889262Y-63288975D01*
X175859100Y-63369938D01*
X175774169Y-63431850D01*
X175614625Y-63452488D01*
X175458256Y-63433438D01*
X175376500Y-63376288D01*
X175344750Y-63246113D01*
X175287600Y-63309613D01*
X175201875Y-63379463D01*
X174966925Y-63449313D01*
X161365225Y-64023988D01*
X161322362Y-64116063D01*
X161266800Y-64176388D01*
X161171550Y-64204963D01*
X161003275Y-64157338D01*
X160862781Y-64066850D01*
X160815950Y-63960488D01*
X160835000Y-63886470D01*
X160892150Y-63740619D01*
X160987400Y-63522933D01*
X161120750Y-63233413D01*
X160488925Y-62169787D01*
X160425425Y-62014212D01*
X160468287Y-61912612D01*
X160596875Y-61811012D01*
X160765150Y-61747512D01*
X160863575Y-61772912D01*
X160919137Y-61825300D01*
X160971525Y-61912612D01*
X161093762Y-62120575D01*
X161196950Y-62295376D01*
X161296962Y-62462064D01*
X161393800Y-62620638D01*
X161444600Y-62497209D01*
X161565250Y-62228525D01*
X161684709Y-61966984D01*
X161731937Y-61864987D01*
X161768450Y-61811012D01*
X161884337Y-61757037D01*
X162060550Y-61801487D01*
X160250800Y-61280787D01*
X160246037Y-61390325D01*
X160217462Y-61472875D01*
X160133325Y-61537962D01*
X159972987Y-61557012D01*
X159812650Y-61537962D01*
X159728512Y-61471287D01*
X159699937Y-61387150D01*
X159695175Y-61277612D01*
X159699937Y-61168075D01*
X159726925Y-61087112D01*
X159407837Y-61087112D01*
X159436412Y-61171250D01*
X159441175Y-61280787D01*
X159695175Y-62061837D01*
X159699937Y-61952300D01*
X159726925Y-61868162D01*
X159811062Y-61806250D01*
X159974575Y-61785612D01*
X160190475Y-61839587D01*
X160247625Y-61976112D01*
X160250800Y-62068187D01*
X160250800Y-63179438D01*
X160246037Y-63288975D01*
X160215875Y-63373113D01*
X160134119Y-63435025D01*
X159971400Y-63455663D01*
X159810269Y-63434231D01*
X159726925Y-63369938D01*
X159699937Y-63287388D01*
X159695175Y-63176263D01*
X159695175Y-62061837D01*
X159441175Y-61280787D01*
X159441175Y-63176263D01*
X159436412Y-63285800D01*
X159406250Y-63366763D01*
X159315366Y-63431056D01*
X159137962Y-63452488D01*
X158966116Y-63413594D01*
X158891900Y-63296913D01*
X158732356Y-63411213D01*
X158520425Y-63449313D01*
X158335569Y-63421619D01*
X158162003Y-63338540D01*
X157999725Y-63200075D01*
X157869197Y-63024744D01*
X157790881Y-62831069D01*
X157764775Y-62619050D01*
X157791057Y-62406854D01*
X157869903Y-62212650D01*
X158001312Y-62036437D01*
X158164119Y-61897090D01*
X158337157Y-61813482D01*
X158520425Y-61785612D01*
X158729181Y-61825300D01*
X158885550Y-61944362D01*
X158885550Y-61277612D01*
X158890312Y-61168075D01*
X158918887Y-61085525D01*
X157764775Y-60482407D01*
X157252145Y-60482407D01*
X157044584Y-60492604D01*
X156839023Y-60523096D01*
X156637440Y-60573590D01*
X156441777Y-60643599D01*
X156253918Y-60732450D01*
X156075673Y-60839286D01*
X155908758Y-60963079D01*
X155754781Y-61102636D01*
X155615223Y-61256613D01*
X155491431Y-61423529D01*
X155384595Y-61601774D01*
X155295744Y-61789632D01*
X155225735Y-61985295D01*
X155175241Y-62186878D01*
X155144749Y-62392440D01*
X155134552Y-62600000D01*
X155144749Y-62807560D01*
X155175241Y-63013122D01*
X155225735Y-63214705D01*
X155295744Y-63410368D01*
X155384595Y-63598226D01*
X155491431Y-63776471D01*
X155615223Y-63943387D01*
X155754781Y-64097364D01*
X155908758Y-64236921D01*
X156075673Y-64360714D01*
X186946200Y-63458838D01*
X186762756Y-63442963D01*
X186580722Y-63395338D01*
X186400100Y-63315963D01*
X186198311Y-63407685D01*
X185995111Y-63462718D01*
X185790500Y-63481063D01*
X185541174Y-63462189D01*
X185337181Y-63405568D01*
X185178519Y-63311200D01*
X185065189Y-63179085D01*
X184997191Y-63009222D01*
X184974525Y-62801613D01*
X184997345Y-62628575D01*
X185065806Y-62461887D01*
X185179908Y-62301550D01*
X185339650Y-62147562D01*
X185269094Y-61965176D01*
X185226761Y-61794785D01*
X185212650Y-61636387D01*
X185233817Y-61443065D01*
X185297317Y-61286432D01*
X185403150Y-61166487D01*
X185544614Y-61081821D01*
X185715006Y-61031021D01*
X185914325Y-61014087D01*
X186110822Y-61031021D01*
X186272747Y-61081821D01*
X188308275Y-61163312D01*
X188468613Y-61109337D01*
X188552750Y-61122037D01*
X188606725Y-61166487D01*
X188659113Y-61250625D01*
X188701578Y-61339525D01*
X188781350Y-61514150D01*
X188883347Y-61738384D01*
X188992488Y-61976112D01*
X189102025Y-62213841D01*
X189205213Y-62438075D01*
X189283397Y-62607541D01*
X189317925Y-62680963D01*
X189952925Y-61290312D01*
X189997375Y-61195062D01*
X190137075Y-61109337D01*
X190324400Y-61163312D01*
X190464894Y-61260150D01*
X190511725Y-61366512D01*
X190464100Y-61518912D01*
X190905425Y-61991987D01*
X191091692Y-61854404D01*
X191294892Y-61771854D01*
X191515025Y-61744337D01*
X191734806Y-61771678D01*
X191936947Y-61853699D01*
X192121450Y-61990400D01*
X192267853Y-62169435D01*
X192355694Y-62378456D01*
X192384975Y-62617463D01*
X192350844Y-62866303D01*
X192248450Y-63085775D01*
X192097241Y-63263575D01*
X191916663Y-63387400D01*
X191717828Y-63460028D01*
X191511850Y-63484238D01*
X191305475Y-63458441D01*
X191105450Y-63381050D01*
X190924078Y-63253256D01*
X190773663Y-63076250D01*
X190672459Y-62861541D01*
X190638725Y-62620638D01*
X190668358Y-62381454D01*
X190757258Y-62171904D01*
X190905425Y-61991987D01*
X190464100Y-61518912D01*
X189587800Y-63296913D01*
X189481438Y-63409625D01*
X189333800Y-63452488D01*
X189302050Y-63452488D01*
X189151238Y-63409625D01*
X189044875Y-63296913D01*
X188168575Y-61518912D01*
X188120950Y-61366512D01*
X188167781Y-61260150D01*
X188308275Y-61163312D01*
X186272747Y-61081821D01*
X186400100Y-61166487D01*
X186523925Y-61346669D01*
X186565200Y-61582412D01*
X186519956Y-61793550D01*
X186384225Y-61982462D01*
X186223888Y-62122956D01*
X186009575Y-62277737D01*
X186137986Y-62434371D01*
X186273453Y-62574071D01*
X186415975Y-62696838D01*
X186491381Y-62558725D01*
X186539800Y-62417437D01*
X186627113Y-62312662D01*
X186825550Y-62277737D01*
X186989063Y-62306312D01*
X187052563Y-62365050D01*
X187057325Y-62442837D01*
X187029808Y-62603351D01*
X186964192Y-62763160D01*
X186860475Y-62922263D01*
X186949375Y-62931788D01*
X187135113Y-62994494D01*
X187197025Y-63182613D01*
X187139875Y-63408038D01*
X186946200Y-63458838D01*
X156075673Y-64360714D01*
X156253918Y-64467550D01*
X156441777Y-64556401D01*
X156637440Y-64626410D01*
X156839023Y-64676904D01*
X157044584Y-64707396D01*
X157252145Y-64717593D01*
X157764775Y-64717593D01*
X213435225Y-64717593D01*
X208574300Y-63179438D01*
X208569538Y-63288975D01*
X208539375Y-63373113D01*
X208457619Y-63435025D01*
X208294900Y-63455663D01*
X208133769Y-63434231D01*
X208050425Y-63369938D01*
X208023438Y-63287388D01*
X208018675Y-63176263D01*
X208018675Y-62061837D01*
X208023438Y-61952300D01*
X208050425Y-61868162D01*
X208134563Y-61806250D01*
X208298075Y-61785612D01*
X208513975Y-61839587D01*
X208571125Y-61976112D01*
X208574300Y-62068187D01*
X208794963Y-62287262D01*
X208748925Y-62103112D01*
X208764800Y-61914200D01*
X208809250Y-61830062D01*
X208936250Y-61788787D01*
X209041025Y-61801487D01*
X209041025Y-61474462D01*
X209045788Y-61366512D01*
X209075950Y-61290312D01*
X209157706Y-61230781D01*
X209320425Y-61210937D01*
X209492669Y-61240306D01*
X209577600Y-61328412D01*
X209593475Y-61490337D01*
X209593475Y-61801487D01*
X209804613Y-61788787D01*
X209912563Y-61793550D01*
X209996700Y-61823712D01*
X210058613Y-61905469D01*
X210079250Y-62068187D01*
X210057819Y-62229319D01*
X210235883Y-62381454D01*
X210324783Y-62171904D01*
X210472950Y-61991987D01*
X210659217Y-61854404D01*
X210862417Y-61771854D01*
X211082550Y-61744337D01*
X211302331Y-61771678D01*
X211504472Y-61853699D01*
X211688975Y-61990400D01*
X211835378Y-62169435D01*
X211923219Y-62378456D01*
X211952500Y-62617463D01*
X211918369Y-62866303D01*
X211815975Y-63085775D01*
X211664766Y-63263575D01*
X211484188Y-63387400D01*
X211285353Y-63460028D01*
X211079375Y-63484238D01*
X210873000Y-63458441D01*
X210672975Y-63381050D01*
X210491603Y-63253256D01*
X210341188Y-63076250D01*
X210239984Y-62861541D01*
X210206250Y-62620638D01*
X210235883Y-62381454D01*
X210057819Y-62229319D01*
X209993525Y-62312662D01*
X209909388Y-62339650D01*
X209799850Y-62344412D01*
X209593475Y-62331712D01*
X209593475Y-62769863D01*
X209620463Y-62893688D01*
X209722063Y-62931788D01*
X209836363Y-62936550D01*
X209920500Y-62966713D01*
X209993525Y-63179438D01*
X209971300Y-63340569D01*
X209904625Y-63423913D01*
X209820488Y-63450900D01*
X209714125Y-63455663D01*
X209511631Y-63439082D01*
X209344414Y-63389340D01*
X209212475Y-63306438D01*
X209117225Y-63184024D01*
X209060075Y-63015749D01*
X209041025Y-62801613D01*
X209041025Y-62331712D01*
X208910850Y-62341237D01*
X208794963Y-62287262D01*
X208574300Y-62068187D01*
X208574300Y-63179438D01*
X213435225Y-64717593D01*
X213947855Y-64717593D01*
X213200275Y-62357112D01*
X213090738Y-62331712D01*
X212952625Y-62306312D01*
X212792288Y-62366637D01*
X212717675Y-62512687D01*
X212717675Y-63179438D01*
X212712913Y-63288975D01*
X212682750Y-63373113D01*
X212597025Y-63435025D01*
X212435100Y-63455663D01*
X212216025Y-63401688D01*
X212158875Y-63265163D01*
X212158875Y-63173088D01*
X212158875Y-62058662D01*
X212163638Y-61949125D01*
X212190625Y-61868162D01*
X212274763Y-61803869D01*
X212438275Y-61782437D01*
X212593056Y-61800694D01*
X212676400Y-61855462D01*
X212711325Y-61960237D01*
X212757363Y-61906262D01*
X212885950Y-61820537D01*
X213058988Y-61766562D01*
X213184400Y-61774500D01*
X213295525Y-61801487D01*
X213395538Y-61866575D01*
X213435225Y-62014212D01*
X213374900Y-62236462D01*
X213200275Y-62357112D01*
X213947855Y-64717593D01*
X214155416Y-64707396D01*
X214360977Y-64676904D01*
X214562560Y-64626410D01*
X214758223Y-64556401D01*
X214946082Y-64467550D01*
X215124327Y-64360714D01*
X215291242Y-64236921D01*
X215445219Y-64097364D01*
X215584777Y-63943387D01*
X215708569Y-63776471D01*
X215815405Y-63598226D01*
X215904256Y-63410368D01*
X215974265Y-63214705D01*
X216024759Y-63013122D01*
X216055251Y-62807560D01*
X216065448Y-62600000D01*
X216055251Y-62392440D01*
X216024759Y-62186878D01*
X208539375Y-61087112D01*
X208569538Y-61171250D01*
X208574300Y-61280787D01*
X208569538Y-61390325D01*
X208540963Y-61472875D01*
X208456825Y-61537962D01*
X208296488Y-61557012D01*
X208136150Y-61537962D01*
X208052013Y-61471287D01*
X208023438Y-61387150D01*
X208018675Y-61277612D01*
X208023438Y-61168075D01*
X208050425Y-61087112D01*
X208134563Y-61022819D01*
X208298075Y-61001387D01*
X208458413Y-61022819D01*
X208539375Y-61087112D01*
X216024759Y-62186878D01*
X215974265Y-61985295D01*
X215904256Y-61789632D01*
X215815405Y-61601774D01*
X215708569Y-61423529D01*
X215584777Y-61256613D01*
X215445219Y-61102636D01*
X215291242Y-60963079D01*
X215124327Y-60839286D01*
X193142213Y-61166487D01*
X193146975Y-61277612D01*
X193842300Y-61801487D01*
X193842300Y-61474462D01*
X193847063Y-61366512D01*
X193877225Y-61290312D01*
X193958981Y-61230781D01*
X194121700Y-61210937D01*
X194293944Y-61240306D01*
X194378875Y-61328412D01*
X194394750Y-61490337D01*
X194394750Y-61801487D01*
X194605888Y-61788787D01*
X194713838Y-61793550D01*
X194797975Y-61823712D01*
X194859888Y-61905469D01*
X194880525Y-62068187D01*
X194859094Y-62229319D01*
X195112653Y-62210181D01*
X195244063Y-62034850D01*
X195406869Y-61896385D01*
X195579907Y-61813306D01*
X195763175Y-61785612D01*
X195960025Y-61823712D01*
X196083850Y-61895150D01*
X196141000Y-61960237D01*
X196213231Y-61826887D01*
X196391825Y-61782437D01*
X196575975Y-61801487D01*
X196660113Y-61868162D01*
X196688688Y-61952300D01*
X196693450Y-62061837D01*
X196693450Y-63173088D01*
X197287175Y-63296913D01*
X197130013Y-63161975D01*
X197002131Y-62991054D01*
X196925401Y-62802142D01*
X196899825Y-62595237D01*
X196925578Y-62388157D01*
X197002836Y-62198715D01*
X197131600Y-62026912D01*
X197291056Y-61891093D01*
X197460389Y-61809601D01*
X197639600Y-61782437D01*
X197836450Y-61822125D01*
X197958688Y-61895150D01*
X198011075Y-61957062D01*
X198076163Y-61822125D01*
X198255550Y-61776087D01*
X198436525Y-61795137D01*
X198517488Y-61860225D01*
X198546063Y-61941187D01*
X198550825Y-62049137D01*
X198785951Y-62378103D01*
X198872206Y-62164849D01*
X199015963Y-61987225D01*
X199202758Y-61854051D01*
X199418129Y-61774147D01*
X199662075Y-61747512D01*
X199868053Y-61766959D01*
X200044663Y-61825300D01*
X200191903Y-61922534D01*
X200309775Y-62058662D01*
X200390738Y-62231303D01*
X200417725Y-62419025D01*
X200393516Y-62588887D01*
X200320888Y-62707950D01*
X201427375Y-63169913D01*
X201427375Y-61407787D01*
X201432138Y-61298250D01*
X201462300Y-61214112D01*
X201548025Y-61152200D01*
X201709950Y-61131562D01*
X201857588Y-61152200D01*
X201938550Y-61195062D01*
X201957600Y-61214112D01*
X202678325Y-62160262D01*
X202879874Y-61893943D01*
X203052721Y-61666486D01*
X203196866Y-61477891D01*
X203312309Y-61328158D01*
X203399050Y-61217287D01*
X203489934Y-61152994D01*
X203654638Y-61131562D01*
X203816959Y-61152994D01*
X203900700Y-61217287D01*
X207024900Y-61782437D01*
X207224749Y-61809425D01*
X207400961Y-61890387D01*
X207553538Y-62025325D01*
X207670836Y-62199068D01*
X207741215Y-62396447D01*
X207764675Y-62617463D01*
X207764675Y-63176263D01*
X207759913Y-63285800D01*
X207732925Y-63366763D01*
X207648788Y-63431056D01*
X207485275Y-63452488D01*
X207307475Y-63423119D01*
X207224925Y-63335013D01*
X207205875Y-63173088D01*
X207205875Y-62614288D01*
X207131263Y-62411087D01*
X206931238Y-62338062D01*
X206728038Y-62414262D01*
X206650250Y-62614288D01*
X206650250Y-63176263D01*
X206645488Y-63285800D01*
X206615325Y-63366763D01*
X206533569Y-63431056D01*
X206370850Y-63452488D01*
X206209719Y-63431056D01*
X206126375Y-63366763D01*
X206099388Y-63282625D01*
X206094625Y-63173088D01*
X206094625Y-62049137D01*
X206099388Y-61942775D01*
X206129550Y-61861812D01*
X206212894Y-61802281D01*
X206374025Y-61782437D01*
X206530394Y-61800694D01*
X206612150Y-61855462D01*
X206643900Y-61985637D01*
X206701050Y-61922137D01*
X206786775Y-61855462D01*
X207024900Y-61782437D01*
X203900700Y-61217287D01*
X203930863Y-61303012D01*
X203935625Y-61414137D01*
X204594967Y-61854404D01*
X204798167Y-61771854D01*
X205018300Y-61744337D01*
X205238081Y-61771678D01*
X205440222Y-61853699D01*
X205624725Y-61990400D01*
X205771128Y-62169435D01*
X205858969Y-62378456D01*
X205888250Y-62617463D01*
X205854119Y-62866303D01*
X205751725Y-63085775D01*
X205600516Y-63263575D01*
X205419938Y-63387400D01*
X205221103Y-63460028D01*
X205015125Y-63484238D01*
X204808750Y-63458441D01*
X204608725Y-63381050D01*
X204427353Y-63253256D01*
X204276938Y-63076250D01*
X204175734Y-62861541D01*
X204142000Y-62620638D01*
X204171633Y-62381454D01*
X204260533Y-62171904D01*
X204408700Y-61991987D01*
X204594967Y-61854404D01*
X203935625Y-61414137D01*
X203935625Y-63176263D01*
X203905463Y-63350094D01*
X203814975Y-63433438D01*
X203662575Y-63452488D01*
X203516525Y-63436613D01*
X203433975Y-63398513D01*
X203389525Y-63335013D01*
X203373650Y-63169913D01*
X203373650Y-62106287D01*
X203276019Y-62233684D01*
X203141875Y-62419025D01*
X203017256Y-62593253D01*
X202948200Y-62687313D01*
X202891050Y-62761925D01*
X202813263Y-62819075D01*
X202679913Y-62855588D01*
X202549738Y-62822250D01*
X202465600Y-62757163D01*
X202440200Y-62722238D01*
X202345744Y-62598016D01*
X202189375Y-62384100D01*
X202044913Y-62185266D01*
X201986175Y-62106287D01*
X201986175Y-63176263D01*
X201981413Y-63285800D01*
X201951250Y-63366763D01*
X201865525Y-63431056D01*
X201703600Y-63452488D01*
X201546438Y-63431056D01*
X201462300Y-63366763D01*
X201432138Y-63284213D01*
X201427375Y-63169913D01*
X200320888Y-62707950D01*
X200106575Y-62801613D01*
X199354100Y-62801613D01*
X199458875Y-62950838D01*
X199668425Y-63011163D01*
X199832731Y-63001638D01*
X199957350Y-62973063D01*
X199992275Y-62960363D01*
X200119275Y-62925438D01*
X200293900Y-63068313D01*
X200335175Y-63214363D01*
X200292908Y-63337989D01*
X200166106Y-63426294D01*
X199954770Y-63479277D01*
X199658900Y-63496938D01*
X199437047Y-63476697D01*
X199241388Y-63415975D01*
X199079066Y-63321916D01*
X198957225Y-63201663D01*
X198846100Y-63023510D01*
X198779425Y-62831951D01*
X198757200Y-62626988D01*
X198785951Y-62378103D01*
X198550825Y-62049137D01*
X198550825Y-63363588D01*
X198522603Y-63591306D01*
X198437936Y-63787626D01*
X198296825Y-63952550D01*
X198120436Y-64076904D01*
X197929936Y-64151517D01*
X197725325Y-64176388D01*
X197489581Y-64147019D01*
X197264950Y-64058913D01*
X197100644Y-63946994D01*
X197045875Y-63846188D01*
X197141125Y-63627113D01*
X197234788Y-63535038D01*
X197312575Y-63509638D01*
X197404650Y-63547738D01*
X197563400Y-63635844D01*
X197734850Y-63665213D01*
X197931700Y-63569963D01*
X198007900Y-63341363D01*
X198007900Y-63246113D01*
X197851531Y-63365175D01*
X197623725Y-63404863D01*
X197451746Y-63377875D01*
X197287175Y-63296913D01*
X196693450Y-63173088D01*
X196688688Y-63282625D01*
X196661700Y-63366763D01*
X196585103Y-63428675D01*
X196444213Y-63449313D01*
X196212438Y-63406450D01*
X196144175Y-63281038D01*
X195987409Y-63407244D01*
X195752063Y-63449313D01*
X195573381Y-63421443D01*
X195403518Y-63337835D01*
X195242475Y-63198488D01*
X195111947Y-63022275D01*
X195033631Y-62828071D01*
X195007525Y-62615875D01*
X195033807Y-62403856D01*
X195112653Y-62210181D01*
X194859094Y-62229319D01*
X194794800Y-62312662D01*
X194710663Y-62339650D01*
X194601125Y-62344412D01*
X194394750Y-62331712D01*
X194394750Y-62769863D01*
X194421738Y-62893688D01*
X194523338Y-62931788D01*
X194637638Y-62936550D01*
X194721775Y-62966713D01*
X194794800Y-63179438D01*
X194772575Y-63340569D01*
X194705900Y-63423913D01*
X194621763Y-63450900D01*
X194515400Y-63455663D01*
X194312906Y-63439082D01*
X194145689Y-63389340D01*
X194013750Y-63306438D01*
X193918500Y-63184024D01*
X193861350Y-63015749D01*
X193842300Y-62801613D01*
X193842300Y-62331712D01*
X193712125Y-62341237D01*
X193596238Y-62287262D01*
X193550200Y-62103112D01*
X193566075Y-61914200D01*
X193610525Y-61830062D01*
X193737525Y-61788787D01*
X193842300Y-61801487D01*
X193146975Y-61277612D01*
X193146975Y-62747638D01*
X193166025Y-62892100D01*
X193250163Y-62922263D01*
X193337475Y-62927025D01*
X193391450Y-62954013D01*
X193454950Y-63179438D01*
X193439075Y-63340569D01*
X193391450Y-63423913D01*
X193251750Y-63457250D01*
X192997750Y-63442963D01*
X192796138Y-63386606D01*
X192680250Y-63281038D01*
X192613575Y-63079425D01*
X192591350Y-62785738D01*
X192591350Y-61274437D01*
X192596113Y-61164900D01*
X192623100Y-61080762D01*
X192707238Y-61016469D01*
X192870750Y-60995037D01*
X193027913Y-61016469D01*
X193112050Y-61080762D01*
X193142213Y-61166487D01*
X215124327Y-60839286D01*
X214946082Y-60732450D01*
X214758223Y-60643599D01*
X214562560Y-60573590D01*
X214360977Y-60523096D01*
X214155416Y-60492604D01*
X213947855Y-60482407D01*
X213435225Y-60482407D01*
X157764775Y-60482407D01*
G37*
D10*
X186315000Y-121093333D02*
X187585000Y-121093333D01*
X187515000Y-122300000D02*
X187515000Y-121093333D01*
X187395000Y-122300000D02*
X187395000Y-121093333D01*
X187275000Y-122300000D02*
X187275000Y-121093333D01*
X187155000Y-122300000D02*
X187155000Y-121093333D01*
X187035000Y-122300000D02*
X187035000Y-121093333D01*
X186915000Y-122300000D02*
X186915000Y-121093333D01*
X186795000Y-122300000D02*
X186795000Y-121093333D01*
X186675000Y-122300000D02*
X186675000Y-121093333D01*
X186555000Y-122300000D02*
X186555000Y-121093333D01*
X186435000Y-122300000D02*
X186435000Y-121093333D01*
X186315000Y-118680000D02*
X186315000Y-122300000D01*
X187585000Y-118680000D02*
X186315000Y-118680000D01*
X187585000Y-122300000D02*
X187585000Y-118680000D01*
X186315000Y-122300000D02*
X187585000Y-122300000D01*
X183775000Y-121093333D02*
X185045000Y-121093333D01*
X184975000Y-122300000D02*
X184975000Y-121093333D01*
X184855000Y-122300000D02*
X184855000Y-121093333D01*
X184735000Y-122300000D02*
X184735000Y-121093333D01*
X184615000Y-122300000D02*
X184615000Y-121093333D01*
X184495000Y-122300000D02*
X184495000Y-121093333D01*
X184375000Y-122300000D02*
X184375000Y-121093333D01*
X184255000Y-122300000D02*
X184255000Y-121093333D01*
X184135000Y-122300000D02*
X184135000Y-121093333D01*
X184015000Y-122300000D02*
X184015000Y-121093333D01*
X183895000Y-122300000D02*
X183895000Y-121093333D01*
X183775000Y-118680000D02*
X183775000Y-122300000D01*
X185045000Y-118680000D02*
X183775000Y-118680000D01*
X185045000Y-122300000D02*
X185045000Y-118680000D01*
X183775000Y-122300000D02*
X185045000Y-122300000D01*
X182060000Y-124140000D02*
X183370000Y-124140000D01*
X182060000Y-124140000D02*
X182060000Y-122757000D01*
X185400000Y-117079000D02*
X185961000Y-117079000D01*
X182300000Y-117079000D02*
X183420000Y-117079000D01*
X187940000Y-117079000D02*
X189060000Y-117079000D01*
X187940000Y-123900000D02*
X189060000Y-123900000D01*
X185450000Y-123900000D02*
X185961000Y-123900000D01*
X182300000Y-123900000D02*
X183370000Y-123900000D01*
X189060000Y-123900000D02*
X189060000Y-117079000D01*
X182300000Y-123900000D02*
X182300000Y-117079000D01*
X159910000Y-122790000D02*
X159910000Y-121460000D01*
X161240000Y-122790000D02*
X159910000Y-122790000D01*
X162510000Y-122790000D02*
X162510000Y-120130000D01*
X162510000Y-120130000D02*
X180350000Y-120130000D01*
X162510000Y-122790000D02*
X180350000Y-122790000D01*
X180350000Y-122790000D02*
X180350000Y-120130000D01*
X159600000Y-105750000D02*
X162400000Y-105750000D01*
X162400000Y-105750000D02*
X162400000Y-107750000D01*
X162400000Y-107750000D02*
X159600000Y-107750000D01*
X159600000Y-107750000D02*
X159600000Y-105750000D01*
X209680000Y-119590000D02*
X209680000Y-117320000D01*
X209680000Y-124560000D02*
X209680000Y-122290000D01*
X209680000Y-117320000D02*
X202440000Y-117320000D01*
X202440000Y-119590000D02*
X202440000Y-117320000D01*
X202440000Y-124560000D02*
X202440000Y-122290000D01*
X209680000Y-124560000D02*
X202440000Y-124560000D01*
X210060000Y-124940000D02*
X207726667Y-124940000D01*
X210060000Y-122606667D02*
X210060000Y-124940000D01*
X193980000Y-110350000D02*
X199980000Y-110350000D01*
X199980000Y-110350000D02*
X199980000Y-118350000D01*
X199980000Y-118350000D02*
X191980000Y-118350000D01*
X191980000Y-118350000D02*
X191980000Y-110350000D01*
X191980000Y-110350000D02*
X193980000Y-110350000D01*
X191980000Y-117350000D02*
X199980000Y-117350000D01*
X169850000Y-108550000D02*
X169850000Y-105650000D01*
X172750000Y-108550000D02*
X169850000Y-108550000D01*
X172750000Y-105650000D02*
X172750000Y-108550000D01*
X169850000Y-105650000D02*
X172750000Y-105650000D01*
X195300000Y-108550000D02*
X195300000Y-105650000D01*
X198200000Y-108550000D02*
X195300000Y-108550000D01*
X198200000Y-105650000D02*
X198200000Y-108550000D01*
X195300000Y-105650000D02*
X198200000Y-105650000D01*
X218100000Y-104780000D02*
X226700000Y-104780000D01*
X218100000Y-104780000D02*
X218100000Y-108880000D01*
X226700000Y-104780000D02*
X226700000Y-108880000D01*
X218100000Y-108880000D02*
X226700000Y-108880000D01*
X178315000Y-110760000D02*
X181000000Y-110760000D01*
X178315000Y-108840000D02*
X178315000Y-110760000D01*
X181000000Y-108840000D02*
X178315000Y-108840000D01*
X186315000Y-110760000D02*
X189000000Y-110760000D01*
X186315000Y-108840000D02*
X186315000Y-110760000D01*
X189000000Y-108840000D02*
X186315000Y-108840000D01*
D12*
X155307142Y-68442857D02*
X155307142Y-67242857D01*
X155307142Y-67700000D02*
X155421428Y-67642857D01*
X155650000Y-67642857D01*
X155764285Y-67700000D01*
X155821428Y-67757142D01*
X155878571Y-67871428D01*
X155878571Y-68214285D01*
X155821428Y-68328571D01*
X155764285Y-68385714D01*
X155650000Y-68442857D01*
X155421428Y-68442857D01*
X155307142Y-68385714D01*
X156564285Y-68442857D02*
X156450000Y-68385714D01*
X156392857Y-68271428D01*
X156392857Y-67242857D01*
X157535714Y-68442857D02*
X157535714Y-67814285D01*
X157478571Y-67700000D01*
X157364285Y-67642857D01*
X157135714Y-67642857D01*
X157021428Y-67700000D01*
X157535714Y-68385714D02*
X157421428Y-68442857D01*
X157135714Y-68442857D01*
X157021428Y-68385714D01*
X156964285Y-68271428D01*
X156964285Y-68157142D01*
X157021428Y-68042857D01*
X157135714Y-67985714D01*
X157421428Y-67985714D01*
X157535714Y-67928571D01*
X158621428Y-68442857D02*
X158621428Y-67242857D01*
X158621428Y-68385714D02*
X158507142Y-68442857D01*
X158278571Y-68442857D01*
X158164285Y-68385714D01*
X158107142Y-68328571D01*
X158050000Y-68214285D01*
X158050000Y-67871428D01*
X158107142Y-67757142D01*
X158164285Y-67700000D01*
X158278571Y-67642857D01*
X158507142Y-67642857D01*
X158621428Y-67700000D01*
X159650000Y-68385714D02*
X159535714Y-68442857D01*
X159307142Y-68442857D01*
X159192857Y-68385714D01*
X159135714Y-68271428D01*
X159135714Y-67814285D01*
X159192857Y-67700000D01*
X159307142Y-67642857D01*
X159535714Y-67642857D01*
X159650000Y-67700000D01*
X159707142Y-67814285D01*
X159707142Y-67928571D01*
X159135714Y-68042857D01*
X160164285Y-68385714D02*
X160278571Y-68442857D01*
X160507142Y-68442857D01*
X160621428Y-68385714D01*
X160678571Y-68271428D01*
X160678571Y-68214285D01*
X160621428Y-68100000D01*
X160507142Y-68042857D01*
X160335714Y-68042857D01*
X160221428Y-67985714D01*
X160164285Y-67871428D01*
X160164285Y-67814285D01*
X160221428Y-67700000D01*
X160335714Y-67642857D01*
X160507142Y-67642857D01*
X160621428Y-67700000D01*
X162107142Y-68442857D02*
X162107142Y-67642857D01*
X162107142Y-67242857D02*
X162050000Y-67300000D01*
X162107142Y-67357142D01*
X162164285Y-67300000D01*
X162107142Y-67242857D01*
X162107142Y-67357142D01*
X162678571Y-67642857D02*
X162678571Y-68442857D01*
X162678571Y-67757142D02*
X162735714Y-67700000D01*
X162850000Y-67642857D01*
X163021428Y-67642857D01*
X163135714Y-67700000D01*
X163192857Y-67814285D01*
X163192857Y-68442857D01*
X165192857Y-68442857D02*
X165192857Y-67814285D01*
X165135714Y-67700000D01*
X165021428Y-67642857D01*
X164792857Y-67642857D01*
X164678571Y-67700000D01*
X165192857Y-68385714D02*
X165078571Y-68442857D01*
X164792857Y-68442857D01*
X164678571Y-68385714D01*
X164621428Y-68271428D01*
X164621428Y-68157142D01*
X164678571Y-68042857D01*
X164792857Y-67985714D01*
X165078571Y-67985714D01*
X165192857Y-67928571D01*
X166564285Y-67642857D02*
X166850000Y-68442857D01*
X167135714Y-67642857D01*
X168050000Y-68385714D02*
X167935714Y-68442857D01*
X167707142Y-68442857D01*
X167592857Y-68385714D01*
X167535714Y-68271428D01*
X167535714Y-67814285D01*
X167592857Y-67700000D01*
X167707142Y-67642857D01*
X167935714Y-67642857D01*
X168050000Y-67700000D01*
X168107142Y-67814285D01*
X168107142Y-67928571D01*
X167535714Y-68042857D01*
X168621428Y-68442857D02*
X168621428Y-67642857D01*
X168621428Y-67871428D02*
X168678571Y-67757142D01*
X168735714Y-67700000D01*
X168850000Y-67642857D01*
X168964285Y-67642857D01*
X169192857Y-67642857D02*
X169650000Y-67642857D01*
X169364285Y-67242857D02*
X169364285Y-68271428D01*
X169421428Y-68385714D01*
X169535714Y-68442857D01*
X169650000Y-68442857D01*
X170050000Y-68442857D02*
X170050000Y-67642857D01*
X170050000Y-67242857D02*
X169992857Y-67300000D01*
X170050000Y-67357142D01*
X170107142Y-67300000D01*
X170050000Y-67242857D01*
X170050000Y-67357142D01*
X171135714Y-68385714D02*
X171021428Y-68442857D01*
X170792857Y-68442857D01*
X170678571Y-68385714D01*
X170621428Y-68328571D01*
X170564285Y-68214285D01*
X170564285Y-67871428D01*
X170621428Y-67757142D01*
X170678571Y-67700000D01*
X170792857Y-67642857D01*
X171021428Y-67642857D01*
X171135714Y-67700000D01*
X172164285Y-68442857D02*
X172164285Y-67814285D01*
X172107142Y-67700000D01*
X171992857Y-67642857D01*
X171764285Y-67642857D01*
X171650000Y-67700000D01*
X172164285Y-68385714D02*
X172050000Y-68442857D01*
X171764285Y-68442857D01*
X171650000Y-68385714D01*
X171592857Y-68271428D01*
X171592857Y-68157142D01*
X171650000Y-68042857D01*
X171764285Y-67985714D01*
X172050000Y-67985714D01*
X172164285Y-67928571D01*
X172907142Y-68442857D02*
X172792857Y-68385714D01*
X172735714Y-68271428D01*
X172735714Y-67242857D01*
X174278571Y-67642857D02*
X174278571Y-68842857D01*
X174278571Y-67700000D02*
X174392857Y-67642857D01*
X174621428Y-67642857D01*
X174735714Y-67700000D01*
X174792857Y-67757142D01*
X174850000Y-67871428D01*
X174850000Y-68214285D01*
X174792857Y-68328571D01*
X174735714Y-68385714D01*
X174621428Y-68442857D01*
X174392857Y-68442857D01*
X174278571Y-68385714D01*
X175535714Y-68442857D02*
X175421428Y-68385714D01*
X175364285Y-68328571D01*
X175307142Y-68214285D01*
X175307142Y-67871428D01*
X175364285Y-67757142D01*
X175421428Y-67700000D01*
X175535714Y-67642857D01*
X175707142Y-67642857D01*
X175821428Y-67700000D01*
X175878571Y-67757142D01*
X175935714Y-67871428D01*
X175935714Y-68214285D01*
X175878571Y-68328571D01*
X175821428Y-68385714D01*
X175707142Y-68442857D01*
X175535714Y-68442857D01*
X176392857Y-68385714D02*
X176507142Y-68442857D01*
X176735714Y-68442857D01*
X176850000Y-68385714D01*
X176907142Y-68271428D01*
X176907142Y-68214285D01*
X176850000Y-68100000D01*
X176735714Y-68042857D01*
X176564285Y-68042857D01*
X176450000Y-67985714D01*
X176392857Y-67871428D01*
X176392857Y-67814285D01*
X176450000Y-67700000D01*
X176564285Y-67642857D01*
X176735714Y-67642857D01*
X176850000Y-67700000D01*
X177421428Y-68442857D02*
X177421428Y-67642857D01*
X177421428Y-67242857D02*
X177364285Y-67300000D01*
X177421428Y-67357142D01*
X177478571Y-67300000D01*
X177421428Y-67242857D01*
X177421428Y-67357142D01*
X177821428Y-67642857D02*
X178278571Y-67642857D01*
X177992857Y-67242857D02*
X177992857Y-68271428D01*
X178050000Y-68385714D01*
X178164285Y-68442857D01*
X178278571Y-68442857D01*
X178678571Y-68442857D02*
X178678571Y-67642857D01*
X178678571Y-67242857D02*
X178621428Y-67300000D01*
X178678571Y-67357142D01*
X178735714Y-67300000D01*
X178678571Y-67242857D01*
X178678571Y-67357142D01*
X179421428Y-68442857D02*
X179307142Y-68385714D01*
X179250000Y-68328571D01*
X179192857Y-68214285D01*
X179192857Y-67871428D01*
X179250000Y-67757142D01*
X179307142Y-67700000D01*
X179421428Y-67642857D01*
X179592857Y-67642857D01*
X179707142Y-67700000D01*
X179764285Y-67757142D01*
X179821428Y-67871428D01*
X179821428Y-68214285D01*
X179764285Y-68328571D01*
X179707142Y-68385714D01*
X179592857Y-68442857D01*
X179421428Y-68442857D01*
X180335714Y-67642857D02*
X180335714Y-68442857D01*
X180335714Y-67757142D02*
X180392857Y-67700000D01*
X180507142Y-67642857D01*
X180678571Y-67642857D01*
X180792857Y-67700000D01*
X180850000Y-67814285D01*
X180850000Y-68442857D01*
X182164285Y-67642857D02*
X182621428Y-67642857D01*
X182335714Y-67242857D02*
X182335714Y-68271428D01*
X182392857Y-68385714D01*
X182507142Y-68442857D01*
X182621428Y-68442857D01*
X183192857Y-68442857D02*
X183078571Y-68385714D01*
X183021428Y-68328571D01*
X182964285Y-68214285D01*
X182964285Y-67871428D01*
X183021428Y-67757142D01*
X183078571Y-67700000D01*
X183192857Y-67642857D01*
X183364285Y-67642857D01*
X183478571Y-67700000D01*
X183535714Y-67757142D01*
X183592857Y-67871428D01*
X183592857Y-68214285D01*
X183535714Y-68328571D01*
X183478571Y-68385714D01*
X183364285Y-68442857D01*
X183192857Y-68442857D01*
X185535714Y-68442857D02*
X185535714Y-67814285D01*
X185478571Y-67700000D01*
X185364285Y-67642857D01*
X185135714Y-67642857D01*
X185021428Y-67700000D01*
X185535714Y-68385714D02*
X185421428Y-68442857D01*
X185135714Y-68442857D01*
X185021428Y-68385714D01*
X184964285Y-68271428D01*
X184964285Y-68157142D01*
X185021428Y-68042857D01*
X185135714Y-67985714D01*
X185421428Y-67985714D01*
X185535714Y-67928571D01*
X186278571Y-68442857D02*
X186164285Y-68385714D01*
X186107142Y-68271428D01*
X186107142Y-67242857D01*
X186907142Y-68442857D02*
X186792857Y-68385714D01*
X186735714Y-68271428D01*
X186735714Y-67242857D01*
X187535714Y-68442857D02*
X187421428Y-68385714D01*
X187364285Y-68328571D01*
X187307142Y-68214285D01*
X187307142Y-67871428D01*
X187364285Y-67757142D01*
X187421428Y-67700000D01*
X187535714Y-67642857D01*
X187707142Y-67642857D01*
X187821428Y-67700000D01*
X187878571Y-67757142D01*
X187935714Y-67871428D01*
X187935714Y-68214285D01*
X187878571Y-68328571D01*
X187821428Y-68385714D01*
X187707142Y-68442857D01*
X187535714Y-68442857D01*
X188335714Y-67642857D02*
X188564285Y-68442857D01*
X188792857Y-67871428D01*
X189021428Y-68442857D01*
X189250000Y-67642857D01*
X190450000Y-67642857D02*
X190907142Y-67642857D01*
X190621428Y-68442857D02*
X190621428Y-67414285D01*
X190678571Y-67300000D01*
X190792857Y-67242857D01*
X190907142Y-67242857D01*
X191478571Y-68442857D02*
X191364285Y-68385714D01*
X191307142Y-68328571D01*
X191250000Y-68214285D01*
X191250000Y-67871428D01*
X191307142Y-67757142D01*
X191364285Y-67700000D01*
X191478571Y-67642857D01*
X191650000Y-67642857D01*
X191764285Y-67700000D01*
X191821428Y-67757142D01*
X191878571Y-67871428D01*
X191878571Y-68214285D01*
X191821428Y-68328571D01*
X191764285Y-68385714D01*
X191650000Y-68442857D01*
X191478571Y-68442857D01*
X192392857Y-68442857D02*
X192392857Y-67642857D01*
X192392857Y-67871428D02*
X192450000Y-67757142D01*
X192507142Y-67700000D01*
X192621428Y-67642857D01*
X192735714Y-67642857D01*
X194050000Y-67642857D02*
X194050000Y-68442857D01*
X194050000Y-67757142D02*
X194107142Y-67700000D01*
X194221428Y-67642857D01*
X194392857Y-67642857D01*
X194507142Y-67700000D01*
X194564285Y-67814285D01*
X194564285Y-68442857D01*
X195650000Y-68442857D02*
X195650000Y-67814285D01*
X195592857Y-67700000D01*
X195478571Y-67642857D01*
X195250000Y-67642857D01*
X195135714Y-67700000D01*
X195650000Y-68385714D02*
X195535714Y-68442857D01*
X195250000Y-68442857D01*
X195135714Y-68385714D01*
X195078571Y-68271428D01*
X195078571Y-68157142D01*
X195135714Y-68042857D01*
X195250000Y-67985714D01*
X195535714Y-67985714D01*
X195650000Y-67928571D01*
X196050000Y-67642857D02*
X196507142Y-67642857D01*
X196221428Y-67242857D02*
X196221428Y-68271428D01*
X196278571Y-68385714D01*
X196392857Y-68442857D01*
X196507142Y-68442857D01*
X197421428Y-67642857D02*
X197421428Y-68442857D01*
X196907142Y-67642857D02*
X196907142Y-68271428D01*
X196964285Y-68385714D01*
X197078571Y-68442857D01*
X197250000Y-68442857D01*
X197364285Y-68385714D01*
X197421428Y-68328571D01*
X197992857Y-68442857D02*
X197992857Y-67642857D01*
X197992857Y-67871428D02*
X198050000Y-67757142D01*
X198107142Y-67700000D01*
X198221428Y-67642857D01*
X198335714Y-67642857D01*
X199250000Y-68442857D02*
X199250000Y-67814285D01*
X199192857Y-67700000D01*
X199078571Y-67642857D01*
X198850000Y-67642857D01*
X198735714Y-67700000D01*
X199250000Y-68385714D02*
X199135714Y-68442857D01*
X198850000Y-68442857D01*
X198735714Y-68385714D01*
X198678571Y-68271428D01*
X198678571Y-68157142D01*
X198735714Y-68042857D01*
X198850000Y-67985714D01*
X199135714Y-67985714D01*
X199250000Y-67928571D01*
X199992857Y-68442857D02*
X199878571Y-68385714D01*
X199821428Y-68271428D01*
X199821428Y-67242857D01*
X201878571Y-68385714D02*
X201764285Y-68442857D01*
X201535714Y-68442857D01*
X201421428Y-68385714D01*
X201364285Y-68328571D01*
X201307142Y-68214285D01*
X201307142Y-67871428D01*
X201364285Y-67757142D01*
X201421428Y-67700000D01*
X201535714Y-67642857D01*
X201764285Y-67642857D01*
X201878571Y-67700000D01*
X202564285Y-68442857D02*
X202450000Y-68385714D01*
X202392857Y-68328571D01*
X202335714Y-68214285D01*
X202335714Y-67871428D01*
X202392857Y-67757142D01*
X202450000Y-67700000D01*
X202564285Y-67642857D01*
X202735714Y-67642857D01*
X202850000Y-67700000D01*
X202907142Y-67757142D01*
X202964285Y-67871428D01*
X202964285Y-68214285D01*
X202907142Y-68328571D01*
X202850000Y-68385714D01*
X202735714Y-68442857D01*
X202564285Y-68442857D01*
X203478571Y-67642857D02*
X203478571Y-68442857D01*
X203478571Y-67757142D02*
X203535714Y-67700000D01*
X203650000Y-67642857D01*
X203821428Y-67642857D01*
X203935714Y-67700000D01*
X203992857Y-67814285D01*
X203992857Y-68442857D01*
X204450000Y-67642857D02*
X204735714Y-68442857D01*
X205021428Y-67642857D01*
X205935714Y-68385714D02*
X205821428Y-68442857D01*
X205592857Y-68442857D01*
X205478571Y-68385714D01*
X205421428Y-68271428D01*
X205421428Y-67814285D01*
X205478571Y-67700000D01*
X205592857Y-67642857D01*
X205821428Y-67642857D01*
X205935714Y-67700000D01*
X205992857Y-67814285D01*
X205992857Y-67928571D01*
X205421428Y-68042857D01*
X207021428Y-68385714D02*
X206907142Y-68442857D01*
X206678571Y-68442857D01*
X206564285Y-68385714D01*
X206507142Y-68328571D01*
X206449999Y-68214285D01*
X206449999Y-67871428D01*
X206507142Y-67757142D01*
X206564285Y-67700000D01*
X206678571Y-67642857D01*
X206907142Y-67642857D01*
X207021428Y-67700000D01*
X207364285Y-67642857D02*
X207821428Y-67642857D01*
X207535714Y-67242857D02*
X207535714Y-68271428D01*
X207592857Y-68385714D01*
X207707142Y-68442857D01*
X207821428Y-68442857D01*
X208221428Y-68442857D02*
X208221428Y-67642857D01*
X208221428Y-67242857D02*
X208164285Y-67300000D01*
X208221428Y-67357142D01*
X208278571Y-67300000D01*
X208221428Y-67242857D01*
X208221428Y-67357142D01*
X208964285Y-68442857D02*
X208849999Y-68385714D01*
X208792857Y-68328571D01*
X208735714Y-68214285D01*
X208735714Y-67871428D01*
X208792857Y-67757142D01*
X208849999Y-67700000D01*
X208964285Y-67642857D01*
X209135714Y-67642857D01*
X209249999Y-67700000D01*
X209307142Y-67757142D01*
X209364285Y-67871428D01*
X209364285Y-68214285D01*
X209307142Y-68328571D01*
X209249999Y-68385714D01*
X209135714Y-68442857D01*
X208964285Y-68442857D01*
X209878571Y-67642857D02*
X209878571Y-68442857D01*
X209878571Y-67757142D02*
X209935714Y-67700000D01*
X210049999Y-67642857D01*
X210221428Y-67642857D01*
X210335714Y-67700000D01*
X210392857Y-67814285D01*
X210392857Y-68442857D01*
X212392857Y-68385714D02*
X212278571Y-68442857D01*
X212049999Y-68442857D01*
X211935714Y-68385714D01*
X211878571Y-68328571D01*
X211821428Y-68214285D01*
X211821428Y-67871428D01*
X211878571Y-67757142D01*
X211935714Y-67700000D01*
X212049999Y-67642857D01*
X212278571Y-67642857D01*
X212392857Y-67700000D01*
X213078571Y-68442857D02*
X212964285Y-68385714D01*
X212907142Y-68328571D01*
X212849999Y-68214285D01*
X212849999Y-67871428D01*
X212907142Y-67757142D01*
X212964285Y-67700000D01*
X213078571Y-67642857D01*
X213249999Y-67642857D01*
X213364285Y-67700000D01*
X213421428Y-67757142D01*
X213478571Y-67871428D01*
X213478571Y-68214285D01*
X213421428Y-68328571D01*
X213364285Y-68385714D01*
X213249999Y-68442857D01*
X213078571Y-68442857D01*
X214164285Y-68442857D02*
X214049999Y-68385714D01*
X213992857Y-68328571D01*
X213935714Y-68214285D01*
X213935714Y-67871428D01*
X213992857Y-67757142D01*
X214049999Y-67700000D01*
X214164285Y-67642857D01*
X214335714Y-67642857D01*
X214449999Y-67700000D01*
X214507142Y-67757142D01*
X214564285Y-67871428D01*
X214564285Y-68214285D01*
X214507142Y-68328571D01*
X214449999Y-68385714D01*
X214335714Y-68442857D01*
X214164285Y-68442857D01*
X215249999Y-68442857D02*
X215135714Y-68385714D01*
X215078571Y-68271428D01*
X215078571Y-67242857D01*
X215707142Y-68442857D02*
X215707142Y-67642857D01*
X215707142Y-67242857D02*
X215649999Y-67300000D01*
X215707142Y-67357142D01*
X215764285Y-67300000D01*
X215707142Y-67242857D01*
X215707142Y-67357142D01*
X216278571Y-67642857D02*
X216278571Y-68442857D01*
X216278571Y-67757142D02*
X216335714Y-67700000D01*
X216449999Y-67642857D01*
X216621428Y-67642857D01*
X216735714Y-67700000D01*
X216792857Y-67814285D01*
X216792857Y-68442857D01*
X217878571Y-67642857D02*
X217878571Y-68614285D01*
X217821428Y-68728571D01*
X217764285Y-68785714D01*
X217649999Y-68842857D01*
X217478571Y-68842857D01*
X217364285Y-68785714D01*
X217878571Y-68385714D02*
X217764285Y-68442857D01*
X217535714Y-68442857D01*
X217421428Y-68385714D01*
X217364285Y-68328571D01*
X217307142Y-68214285D01*
X217307142Y-67871428D01*
X217364285Y-67757142D01*
X217421428Y-67700000D01*
X217535714Y-67642857D01*
X217764285Y-67642857D01*
X217878571Y-67700000D01*
X164078571Y-66200000D02*
X164650000Y-66200000D01*
X163964285Y-66542857D02*
X164364285Y-65342857D01*
X164764285Y-66542857D01*
X165335714Y-66542857D02*
X165221428Y-66485714D01*
X165164285Y-66371428D01*
X165164285Y-65342857D01*
X165964285Y-66542857D02*
X165850000Y-66485714D01*
X165792857Y-66371428D01*
X165792857Y-65342857D01*
X167278571Y-66485714D02*
X167392857Y-66542857D01*
X167621428Y-66542857D01*
X167735714Y-66485714D01*
X167792857Y-66371428D01*
X167792857Y-66314285D01*
X167735714Y-66200000D01*
X167621428Y-66142857D01*
X167450000Y-66142857D01*
X167335714Y-66085714D01*
X167278571Y-65971428D01*
X167278571Y-65914285D01*
X167335714Y-65800000D01*
X167450000Y-65742857D01*
X167621428Y-65742857D01*
X167735714Y-65800000D01*
X168307142Y-66542857D02*
X168307142Y-65342857D01*
X168821428Y-66542857D02*
X168821428Y-65914285D01*
X168764285Y-65800000D01*
X168650000Y-65742857D01*
X168478571Y-65742857D01*
X168364285Y-65800000D01*
X168307142Y-65857142D01*
X169907142Y-65742857D02*
X169907142Y-66542857D01*
X169392857Y-65742857D02*
X169392857Y-66371428D01*
X169450000Y-66485714D01*
X169564285Y-66542857D01*
X169735714Y-66542857D01*
X169850000Y-66485714D01*
X169907142Y-66428571D01*
X170478571Y-65742857D02*
X170478571Y-66542857D01*
X170478571Y-65857142D02*
X170535714Y-65800000D01*
X170650000Y-65742857D01*
X170821428Y-65742857D01*
X170935714Y-65800000D01*
X170992857Y-65914285D01*
X170992857Y-66542857D01*
X171392857Y-65742857D02*
X171850000Y-65742857D01*
X171564285Y-65342857D02*
X171564285Y-66371428D01*
X171621428Y-66485714D01*
X171735714Y-66542857D01*
X171850000Y-66542857D01*
X172192857Y-66485714D02*
X172307142Y-66542857D01*
X172535714Y-66542857D01*
X172650000Y-66485714D01*
X172707142Y-66371428D01*
X172707142Y-66314285D01*
X172650000Y-66200000D01*
X172535714Y-66142857D01*
X172364285Y-66142857D01*
X172250000Y-66085714D01*
X172192857Y-65971428D01*
X172192857Y-65914285D01*
X172250000Y-65800000D01*
X172364285Y-65742857D01*
X172535714Y-65742857D01*
X172650000Y-65800000D01*
X174078571Y-66485714D02*
X174192857Y-66542857D01*
X174421428Y-66542857D01*
X174535714Y-66485714D01*
X174592857Y-66371428D01*
X174592857Y-66314285D01*
X174535714Y-66200000D01*
X174421428Y-66142857D01*
X174250000Y-66142857D01*
X174135714Y-66085714D01*
X174078571Y-65971428D01*
X174078571Y-65914285D01*
X174135714Y-65800000D01*
X174250000Y-65742857D01*
X174421428Y-65742857D01*
X174535714Y-65800000D01*
X175107142Y-66542857D02*
X175107142Y-65342857D01*
X175621428Y-66542857D02*
X175621428Y-65914285D01*
X175564285Y-65800000D01*
X175450000Y-65742857D01*
X175278571Y-65742857D01*
X175164285Y-65800000D01*
X175107142Y-65857142D01*
X176364285Y-66542857D02*
X176250000Y-66485714D01*
X176192857Y-66428571D01*
X176135714Y-66314285D01*
X176135714Y-65971428D01*
X176192857Y-65857142D01*
X176250000Y-65800000D01*
X176364285Y-65742857D01*
X176535714Y-65742857D01*
X176650000Y-65800000D01*
X176707142Y-65857142D01*
X176764285Y-65971428D01*
X176764285Y-66314285D01*
X176707142Y-66428571D01*
X176650000Y-66485714D01*
X176535714Y-66542857D01*
X176364285Y-66542857D01*
X177792857Y-65742857D02*
X177792857Y-66542857D01*
X177278571Y-65742857D02*
X177278571Y-66371428D01*
X177335714Y-66485714D01*
X177450000Y-66542857D01*
X177621428Y-66542857D01*
X177735714Y-66485714D01*
X177792857Y-66428571D01*
X178535714Y-66542857D02*
X178421428Y-66485714D01*
X178364285Y-66371428D01*
X178364285Y-65342857D01*
X179507142Y-66542857D02*
X179507142Y-65342857D01*
X179507142Y-66485714D02*
X179392857Y-66542857D01*
X179164285Y-66542857D01*
X179050000Y-66485714D01*
X178992857Y-66428571D01*
X178935714Y-66314285D01*
X178935714Y-65971428D01*
X178992857Y-65857142D01*
X179050000Y-65800000D01*
X179164285Y-65742857D01*
X179392857Y-65742857D01*
X179507142Y-65800000D01*
X180992857Y-66542857D02*
X180992857Y-65342857D01*
X180992857Y-65800000D02*
X181107142Y-65742857D01*
X181335714Y-65742857D01*
X181450000Y-65800000D01*
X181507142Y-65857142D01*
X181564285Y-65971428D01*
X181564285Y-66314285D01*
X181507142Y-66428571D01*
X181450000Y-66485714D01*
X181335714Y-66542857D01*
X181107142Y-66542857D01*
X180992857Y-66485714D01*
X182535714Y-66485714D02*
X182421428Y-66542857D01*
X182192857Y-66542857D01*
X182078571Y-66485714D01*
X182021428Y-66371428D01*
X182021428Y-65914285D01*
X182078571Y-65800000D01*
X182192857Y-65742857D01*
X182421428Y-65742857D01*
X182535714Y-65800000D01*
X182592857Y-65914285D01*
X182592857Y-66028571D01*
X182021428Y-66142857D01*
X184021428Y-66542857D02*
X184021428Y-65742857D01*
X184021428Y-65857142D02*
X184078571Y-65800000D01*
X184192857Y-65742857D01*
X184364285Y-65742857D01*
X184478571Y-65800000D01*
X184535714Y-65914285D01*
X184535714Y-66542857D01*
X184535714Y-65914285D02*
X184592857Y-65800000D01*
X184707142Y-65742857D01*
X184878571Y-65742857D01*
X184992857Y-65800000D01*
X185050000Y-65914285D01*
X185050000Y-66542857D01*
X185792857Y-66542857D02*
X185678571Y-66485714D01*
X185621428Y-66428571D01*
X185564285Y-66314285D01*
X185564285Y-65971428D01*
X185621428Y-65857142D01*
X185678571Y-65800000D01*
X185792857Y-65742857D01*
X185964285Y-65742857D01*
X186078571Y-65800000D01*
X186135714Y-65857142D01*
X186192857Y-65971428D01*
X186192857Y-66314285D01*
X186135714Y-66428571D01*
X186078571Y-66485714D01*
X185964285Y-66542857D01*
X185792857Y-66542857D01*
X187221428Y-65742857D02*
X187221428Y-66542857D01*
X186707142Y-65742857D02*
X186707142Y-66371428D01*
X186764285Y-66485714D01*
X186878571Y-66542857D01*
X187050000Y-66542857D01*
X187164285Y-66485714D01*
X187221428Y-66428571D01*
X187792857Y-65742857D02*
X187792857Y-66542857D01*
X187792857Y-65857142D02*
X187850000Y-65800000D01*
X187964285Y-65742857D01*
X188135714Y-65742857D01*
X188250000Y-65800000D01*
X188307142Y-65914285D01*
X188307142Y-66542857D01*
X188707142Y-65742857D02*
X189164285Y-65742857D01*
X188878571Y-65342857D02*
X188878571Y-66371428D01*
X188935714Y-66485714D01*
X189050000Y-66542857D01*
X189164285Y-66542857D01*
X190021428Y-66485714D02*
X189907142Y-66542857D01*
X189678571Y-66542857D01*
X189564285Y-66485714D01*
X189507142Y-66371428D01*
X189507142Y-65914285D01*
X189564285Y-65800000D01*
X189678571Y-65742857D01*
X189907142Y-65742857D01*
X190021428Y-65800000D01*
X190078571Y-65914285D01*
X190078571Y-66028571D01*
X189507142Y-66142857D01*
X191107142Y-66542857D02*
X191107142Y-65342857D01*
X191107142Y-66485714D02*
X190992857Y-66542857D01*
X190764285Y-66542857D01*
X190650000Y-66485714D01*
X190592857Y-66428571D01*
X190535714Y-66314285D01*
X190535714Y-65971428D01*
X190592857Y-65857142D01*
X190650000Y-65800000D01*
X190764285Y-65742857D01*
X190992857Y-65742857D01*
X191107142Y-65800000D01*
X192478571Y-65742857D02*
X192707142Y-66542857D01*
X192935714Y-65971428D01*
X193164285Y-66542857D01*
X193392857Y-65742857D01*
X193850000Y-66542857D02*
X193850000Y-65742857D01*
X193850000Y-65342857D02*
X193792857Y-65400000D01*
X193850000Y-65457142D01*
X193907142Y-65400000D01*
X193850000Y-65342857D01*
X193850000Y-65457142D01*
X194250000Y-65742857D02*
X194707142Y-65742857D01*
X194421428Y-65342857D02*
X194421428Y-66371428D01*
X194478571Y-66485714D01*
X194592857Y-66542857D01*
X194707142Y-66542857D01*
X195107142Y-66542857D02*
X195107142Y-65342857D01*
X195621428Y-66542857D02*
X195621428Y-65914285D01*
X195564285Y-65800000D01*
X195450000Y-65742857D01*
X195278571Y-65742857D01*
X195164285Y-65800000D01*
X195107142Y-65857142D01*
X196935714Y-65742857D02*
X197392857Y-65742857D01*
X197107142Y-65342857D02*
X197107142Y-66371428D01*
X197164285Y-66485714D01*
X197278571Y-66542857D01*
X197392857Y-66542857D01*
X197792857Y-66542857D02*
X197792857Y-65342857D01*
X198307142Y-66542857D02*
X198307142Y-65914285D01*
X198250000Y-65800000D01*
X198135714Y-65742857D01*
X197964285Y-65742857D01*
X197850000Y-65800000D01*
X197792857Y-65857142D01*
X199335714Y-66485714D02*
X199221428Y-66542857D01*
X198992857Y-66542857D01*
X198878571Y-66485714D01*
X198821428Y-66371428D01*
X198821428Y-65914285D01*
X198878571Y-65800000D01*
X198992857Y-65742857D01*
X199221428Y-65742857D01*
X199335714Y-65800000D01*
X199392857Y-65914285D01*
X199392857Y-66028571D01*
X198821428Y-66142857D01*
X199907142Y-66542857D02*
X199907142Y-65742857D01*
X199907142Y-65342857D02*
X199850000Y-65400000D01*
X199907142Y-65457142D01*
X199964285Y-65400000D01*
X199907142Y-65342857D01*
X199907142Y-65457142D01*
X200478571Y-66542857D02*
X200478571Y-65742857D01*
X200478571Y-65971428D02*
X200535714Y-65857142D01*
X200592857Y-65800000D01*
X200707142Y-65742857D01*
X200821428Y-65742857D01*
X202135714Y-66542857D02*
X202135714Y-65742857D01*
X202135714Y-65971428D02*
X202192857Y-65857142D01*
X202250000Y-65800000D01*
X202364285Y-65742857D01*
X202478571Y-65742857D01*
X203335714Y-66485714D02*
X203221428Y-66542857D01*
X202992857Y-66542857D01*
X202878571Y-66485714D01*
X202821428Y-66371428D01*
X202821428Y-65914285D01*
X202878571Y-65800000D01*
X202992857Y-65742857D01*
X203221428Y-65742857D01*
X203335714Y-65800000D01*
X203392857Y-65914285D01*
X203392857Y-66028571D01*
X202821428Y-66142857D01*
X203850000Y-66485714D02*
X203964285Y-66542857D01*
X204192857Y-66542857D01*
X204307142Y-66485714D01*
X204364285Y-66371428D01*
X204364285Y-66314285D01*
X204307142Y-66200000D01*
X204192857Y-66142857D01*
X204021428Y-66142857D01*
X203907142Y-66085714D01*
X203850000Y-65971428D01*
X203850000Y-65914285D01*
X203907142Y-65800000D01*
X204021428Y-65742857D01*
X204192857Y-65742857D01*
X204307142Y-65800000D01*
X204878571Y-66542857D02*
X204878571Y-65742857D01*
X204878571Y-65342857D02*
X204821428Y-65400000D01*
X204878571Y-65457142D01*
X204935714Y-65400000D01*
X204878571Y-65342857D01*
X204878571Y-65457142D01*
X205392857Y-66485714D02*
X205507142Y-66542857D01*
X205735714Y-66542857D01*
X205850000Y-66485714D01*
X205907142Y-66371428D01*
X205907142Y-66314285D01*
X205850000Y-66200000D01*
X205735714Y-66142857D01*
X205564285Y-66142857D01*
X205450000Y-66085714D01*
X205392857Y-65971428D01*
X205392857Y-65914285D01*
X205450000Y-65800000D01*
X205564285Y-65742857D01*
X205735714Y-65742857D01*
X205850000Y-65800000D01*
X206250000Y-65742857D02*
X206707142Y-65742857D01*
X206421428Y-65342857D02*
X206421428Y-66371428D01*
X206478571Y-66485714D01*
X206592857Y-66542857D01*
X206707142Y-66542857D01*
X207621428Y-66542857D02*
X207621428Y-65914285D01*
X207564285Y-65800000D01*
X207450000Y-65742857D01*
X207221428Y-65742857D01*
X207107142Y-65800000D01*
X207621428Y-66485714D02*
X207507142Y-66542857D01*
X207221428Y-66542857D01*
X207107142Y-66485714D01*
X207050000Y-66371428D01*
X207050000Y-66257142D01*
X207107142Y-66142857D01*
X207221428Y-66085714D01*
X207507142Y-66085714D01*
X207621428Y-66028571D01*
X208192857Y-65742857D02*
X208192857Y-66542857D01*
X208192857Y-65857142D02*
X208250000Y-65800000D01*
X208364285Y-65742857D01*
X208535714Y-65742857D01*
X208650000Y-65800000D01*
X208707142Y-65914285D01*
X208707142Y-66542857D01*
X209792857Y-66485714D02*
X209678571Y-66542857D01*
X209450000Y-66542857D01*
X209335714Y-66485714D01*
X209278571Y-66428571D01*
X209221428Y-66314285D01*
X209221428Y-65971428D01*
X209278571Y-65857142D01*
X209335714Y-65800000D01*
X209450000Y-65742857D01*
X209678571Y-65742857D01*
X209792857Y-65800000D01*
X210764285Y-66485714D02*
X210650000Y-66542857D01*
X210421428Y-66542857D01*
X210307142Y-66485714D01*
X210250000Y-66371428D01*
X210250000Y-65914285D01*
X210307142Y-65800000D01*
X210421428Y-65742857D01*
X210650000Y-65742857D01*
X210764285Y-65800000D01*
X210821428Y-65914285D01*
X210821428Y-66028571D01*
X210250000Y-66142857D01*
X166369047Y-94652380D02*
X166369047Y-93652380D01*
X166702380Y-94366666D01*
X167035714Y-93652380D01*
X167035714Y-94652380D01*
X167940476Y-93985714D02*
X167940476Y-94652380D01*
X167511904Y-93985714D02*
X167511904Y-94509523D01*
X167559523Y-94604761D01*
X167654761Y-94652380D01*
X167797619Y-94652380D01*
X167892857Y-94604761D01*
X167940476Y-94557142D01*
X168416666Y-94652380D02*
X168416666Y-93985714D01*
X168416666Y-94176190D02*
X168464285Y-94080952D01*
X168511904Y-94033333D01*
X168607142Y-93985714D01*
X168702380Y-93985714D01*
X169464285Y-94652380D02*
X169464285Y-94128571D01*
X169416666Y-94033333D01*
X169321428Y-93985714D01*
X169130952Y-93985714D01*
X169035714Y-94033333D01*
X169464285Y-94604761D02*
X169369047Y-94652380D01*
X169130952Y-94652380D01*
X169035714Y-94604761D01*
X168988095Y-94509523D01*
X168988095Y-94414285D01*
X169035714Y-94319047D01*
X169130952Y-94271428D01*
X169369047Y-94271428D01*
X169464285Y-94223809D01*
X169797619Y-93985714D02*
X170178571Y-93985714D01*
X169940476Y-93652380D02*
X169940476Y-94509523D01*
X169988095Y-94604761D01*
X170083333Y-94652380D01*
X170178571Y-94652380D01*
X170940476Y-94652380D02*
X170940476Y-94128571D01*
X170892857Y-94033333D01*
X170797619Y-93985714D01*
X170607142Y-93985714D01*
X170511904Y-94033333D01*
X170940476Y-94604761D02*
X170845238Y-94652380D01*
X170607142Y-94652380D01*
X170511904Y-94604761D01*
X170464285Y-94509523D01*
X170464285Y-94414285D01*
X170511904Y-94319047D01*
X170607142Y-94271428D01*
X170845238Y-94271428D01*
X170940476Y-94223809D01*
X172130952Y-94604761D02*
X172273809Y-94652380D01*
X172511904Y-94652380D01*
X172607142Y-94604761D01*
X172654761Y-94557142D01*
X172702380Y-94461904D01*
X172702380Y-94366666D01*
X172654761Y-94271428D01*
X172607142Y-94223809D01*
X172511904Y-94176190D01*
X172321428Y-94128571D01*
X172226190Y-94080952D01*
X172178571Y-94033333D01*
X172130952Y-93938095D01*
X172130952Y-93842857D01*
X172178571Y-93747619D01*
X172226190Y-93700000D01*
X172321428Y-93652380D01*
X172559523Y-93652380D01*
X172702380Y-93700000D01*
X172988095Y-93985714D02*
X173369047Y-93985714D01*
X173130952Y-93652380D02*
X173130952Y-94509523D01*
X173178571Y-94604761D01*
X173273809Y-94652380D01*
X173369047Y-94652380D01*
X173607142Y-93985714D02*
X173845238Y-94652380D01*
X174083333Y-93985714D02*
X173845238Y-94652380D01*
X173750000Y-94890476D01*
X173702380Y-94938095D01*
X173607142Y-94985714D01*
X174607142Y-94652380D02*
X174511904Y-94604761D01*
X174464285Y-94509523D01*
X174464285Y-93652380D01*
X175369047Y-94604761D02*
X175273809Y-94652380D01*
X175083333Y-94652380D01*
X174988095Y-94604761D01*
X174940476Y-94509523D01*
X174940476Y-94128571D01*
X174988095Y-94033333D01*
X175083333Y-93985714D01*
X175273809Y-93985714D01*
X175369047Y-94033333D01*
X175416666Y-94128571D01*
X175416666Y-94223809D01*
X174940476Y-94319047D01*
X176559523Y-94604761D02*
X176702380Y-94652380D01*
X176940476Y-94652380D01*
X177035714Y-94604761D01*
X177083333Y-94557142D01*
X177130952Y-94461904D01*
X177130952Y-94366666D01*
X177083333Y-94271428D01*
X177035714Y-94223809D01*
X176940476Y-94176190D01*
X176750000Y-94128571D01*
X176654761Y-94080952D01*
X176607142Y-94033333D01*
X176559523Y-93938095D01*
X176559523Y-93842857D01*
X176607142Y-93747619D01*
X176654761Y-93700000D01*
X176750000Y-93652380D01*
X176988095Y-93652380D01*
X177130952Y-93700000D01*
X177559523Y-94652380D02*
X177559523Y-93652380D01*
X177988095Y-94652380D02*
X177988095Y-94128571D01*
X177940476Y-94033333D01*
X177845238Y-93985714D01*
X177702380Y-93985714D01*
X177607142Y-94033333D01*
X177559523Y-94080952D01*
X178892857Y-93985714D02*
X178892857Y-94652380D01*
X178464285Y-93985714D02*
X178464285Y-94509523D01*
X178511904Y-94604761D01*
X178607142Y-94652380D01*
X178750000Y-94652380D01*
X178845238Y-94604761D01*
X178892857Y-94557142D01*
X179369047Y-93985714D02*
X179369047Y-94652380D01*
X179369047Y-94080952D02*
X179416666Y-94033333D01*
X179511904Y-93985714D01*
X179654761Y-93985714D01*
X179750000Y-94033333D01*
X179797619Y-94128571D01*
X179797619Y-94652380D01*
X180130952Y-93985714D02*
X180511904Y-93985714D01*
X180273809Y-93652380D02*
X180273809Y-94509523D01*
X180321428Y-94604761D01*
X180416666Y-94652380D01*
X180511904Y-94652380D01*
X181511904Y-93652380D02*
X182130952Y-93652380D01*
X181797619Y-94033333D01*
X181940476Y-94033333D01*
X182035714Y-94080952D01*
X182083333Y-94128571D01*
X182130952Y-94223809D01*
X182130952Y-94461904D01*
X182083333Y-94557142D01*
X182035714Y-94604761D01*
X181940476Y-94652380D01*
X181654761Y-94652380D01*
X181559523Y-94604761D01*
X181511904Y-94557142D01*
X182750000Y-93652380D02*
X182845238Y-93652380D01*
X182940476Y-93700000D01*
X182988095Y-93747619D01*
X183035714Y-93842857D01*
X183083333Y-94033333D01*
X183083333Y-94271428D01*
X183035714Y-94461904D01*
X182988095Y-94557142D01*
X182940476Y-94604761D01*
X182845238Y-94652380D01*
X182750000Y-94652380D01*
X182654761Y-94604761D01*
X182607142Y-94557142D01*
X182559523Y-94461904D01*
X182511904Y-94271428D01*
X182511904Y-94033333D01*
X182559523Y-93842857D01*
X182607142Y-93747619D01*
X182654761Y-93700000D01*
X182750000Y-93652380D01*
X183464285Y-93747619D02*
X183511904Y-93700000D01*
X183607142Y-93652380D01*
X183845238Y-93652380D01*
X183940476Y-93700000D01*
X183988095Y-93747619D01*
X184035714Y-93842857D01*
X184035714Y-93938095D01*
X183988095Y-94080952D01*
X183416666Y-94652380D01*
X184035714Y-94652380D01*
X184654761Y-93652380D02*
X184750000Y-93652380D01*
X184845238Y-93700000D01*
X184892857Y-93747619D01*
X184940476Y-93842857D01*
X184988095Y-94033333D01*
X184988095Y-94271428D01*
X184940476Y-94461904D01*
X184892857Y-94557142D01*
X184845238Y-94604761D01*
X184750000Y-94652380D01*
X184654761Y-94652380D01*
X184559523Y-94604761D01*
X184511904Y-94557142D01*
X184464285Y-94461904D01*
X184416666Y-94271428D01*
X184416666Y-94033333D01*
X184464285Y-93842857D01*
X184511904Y-93747619D01*
X184559523Y-93700000D01*
X184654761Y-93652380D01*
X185416666Y-94271428D02*
X186178571Y-94271428D01*
X186845238Y-93652380D02*
X186940476Y-93652380D01*
X187035714Y-93700000D01*
X187083333Y-93747619D01*
X187130952Y-93842857D01*
X187178571Y-94033333D01*
X187178571Y-94271428D01*
X187130952Y-94461904D01*
X187083333Y-94557142D01*
X187035714Y-94604761D01*
X186940476Y-94652380D01*
X186845238Y-94652380D01*
X186750000Y-94604761D01*
X186702380Y-94557142D01*
X186654761Y-94461904D01*
X186607142Y-94271428D01*
X186607142Y-94033333D01*
X186654761Y-93842857D01*
X186702380Y-93747619D01*
X186750000Y-93700000D01*
X186845238Y-93652380D01*
X188130952Y-94652380D02*
X187559523Y-94652380D01*
X187845238Y-94652380D02*
X187845238Y-93652380D01*
X187750000Y-93795238D01*
X187654761Y-93890476D01*
X187559523Y-93938095D01*
X189083333Y-94652380D02*
X188511904Y-94652380D01*
X188797619Y-94652380D02*
X188797619Y-93652380D01*
X188702380Y-93795238D01*
X188607142Y-93890476D01*
X188511904Y-93938095D01*
X189702380Y-93652380D02*
X189797619Y-93652380D01*
X189892857Y-93700000D01*
X189940476Y-93747619D01*
X189988095Y-93842857D01*
X190035714Y-94033333D01*
X190035714Y-94271428D01*
X189988095Y-94461904D01*
X189940476Y-94557142D01*
X189892857Y-94604761D01*
X189797619Y-94652380D01*
X189702380Y-94652380D01*
X189607142Y-94604761D01*
X189559523Y-94557142D01*
X189511904Y-94461904D01*
X189464285Y-94271428D01*
X189464285Y-94033333D01*
X189511904Y-93842857D01*
X189559523Y-93747619D01*
X189607142Y-93700000D01*
X189702380Y-93652380D01*
X190369047Y-93652380D02*
X191035714Y-94652380D01*
X191035714Y-93652380D02*
X190369047Y-94652380D01*
X191416666Y-94271428D02*
X192178571Y-94271428D01*
X192845238Y-93652380D02*
X192940476Y-93652380D01*
X193035714Y-93700000D01*
X193083333Y-93747619D01*
X193130952Y-93842857D01*
X193178571Y-94033333D01*
X193178571Y-94271428D01*
X193130952Y-94461904D01*
X193083333Y-94557142D01*
X193035714Y-94604761D01*
X192940476Y-94652380D01*
X192845238Y-94652380D01*
X192750000Y-94604761D01*
X192702380Y-94557142D01*
X192654761Y-94461904D01*
X192607142Y-94271428D01*
X192607142Y-94033333D01*
X192654761Y-93842857D01*
X192702380Y-93747619D01*
X192750000Y-93700000D01*
X192845238Y-93652380D01*
X194321428Y-93747619D02*
X194369047Y-93700000D01*
X194464285Y-93652380D01*
X194702380Y-93652380D01*
X194797619Y-93700000D01*
X194845238Y-93747619D01*
X194892857Y-93842857D01*
X194892857Y-93938095D01*
X194845238Y-94080952D01*
X194273809Y-94652380D01*
X194892857Y-94652380D01*
X195511904Y-93652380D02*
X195607142Y-93652380D01*
X195702380Y-93700000D01*
X195750000Y-93747619D01*
X195797619Y-93842857D01*
X195845238Y-94033333D01*
X195845238Y-94271428D01*
X195797619Y-94461904D01*
X195750000Y-94557142D01*
X195702380Y-94604761D01*
X195607142Y-94652380D01*
X195511904Y-94652380D01*
X195416666Y-94604761D01*
X195369047Y-94557142D01*
X195321428Y-94461904D01*
X195273809Y-94271428D01*
X195273809Y-94033333D01*
X195321428Y-93842857D01*
X195369047Y-93747619D01*
X195416666Y-93700000D01*
X195511904Y-93652380D01*
X196464285Y-93652380D02*
X196559523Y-93652380D01*
X196654761Y-93700000D01*
X196702380Y-93747619D01*
X196750000Y-93842857D01*
X196797619Y-94033333D01*
X196797619Y-94271428D01*
X196750000Y-94461904D01*
X196702380Y-94557142D01*
X196654761Y-94604761D01*
X196559523Y-94652380D01*
X196464285Y-94652380D01*
X196369047Y-94604761D01*
X196321428Y-94557142D01*
X196273809Y-94461904D01*
X196226190Y-94271428D01*
X196226190Y-94033333D01*
X196273809Y-93842857D01*
X196321428Y-93747619D01*
X196369047Y-93700000D01*
X196464285Y-93652380D01*
X197178571Y-94366666D02*
X197654761Y-94366666D01*
X197083333Y-94652380D02*
X197416666Y-93652380D01*
X197750000Y-94652380D01*
X198797619Y-93604761D02*
X197940476Y-94890476D01*
X199035714Y-93652380D02*
X199654761Y-93652380D01*
X199321428Y-94033333D01*
X199464285Y-94033333D01*
X199559523Y-94080952D01*
X199607142Y-94128571D01*
X199654761Y-94223809D01*
X199654761Y-94461904D01*
X199607142Y-94557142D01*
X199559523Y-94604761D01*
X199464285Y-94652380D01*
X199178571Y-94652380D01*
X199083333Y-94604761D01*
X199035714Y-94557142D01*
X200273809Y-93652380D02*
X200369047Y-93652380D01*
X200464285Y-93700000D01*
X200511904Y-93747619D01*
X200559523Y-93842857D01*
X200607142Y-94033333D01*
X200607142Y-94271428D01*
X200559523Y-94461904D01*
X200511904Y-94557142D01*
X200464285Y-94604761D01*
X200369047Y-94652380D01*
X200273809Y-94652380D01*
X200178571Y-94604761D01*
X200130952Y-94557142D01*
X200083333Y-94461904D01*
X200035714Y-94271428D01*
X200035714Y-94033333D01*
X200083333Y-93842857D01*
X200130952Y-93747619D01*
X200178571Y-93700000D01*
X200273809Y-93652380D01*
X201226190Y-93652380D02*
X201321428Y-93652380D01*
X201416666Y-93700000D01*
X201464285Y-93747619D01*
X201511904Y-93842857D01*
X201559523Y-94033333D01*
X201559523Y-94271428D01*
X201511904Y-94461904D01*
X201464285Y-94557142D01*
X201416666Y-94604761D01*
X201321428Y-94652380D01*
X201226190Y-94652380D01*
X201130952Y-94604761D01*
X201083333Y-94557142D01*
X201035714Y-94461904D01*
X200988095Y-94271428D01*
X200988095Y-94033333D01*
X201035714Y-93842857D01*
X201083333Y-93747619D01*
X201130952Y-93700000D01*
X201226190Y-93652380D01*
X201940476Y-94366666D02*
X202416666Y-94366666D01*
X201845238Y-94652380D02*
X202178571Y-93652380D01*
X202511904Y-94652380D01*
X203559523Y-93604761D02*
X202702380Y-94890476D01*
X204369047Y-93652380D02*
X203892857Y-93652380D01*
X203845238Y-94128571D01*
X203892857Y-94080952D01*
X203988095Y-94033333D01*
X204226190Y-94033333D01*
X204321428Y-94080952D01*
X204369047Y-94128571D01*
X204416666Y-94223809D01*
X204416666Y-94461904D01*
X204369047Y-94557142D01*
X204321428Y-94604761D01*
X204226190Y-94652380D01*
X203988095Y-94652380D01*
X203892857Y-94604761D01*
X203845238Y-94557142D01*
X205035714Y-93652380D02*
X205130952Y-93652380D01*
X205226190Y-93700000D01*
X205273809Y-93747619D01*
X205321428Y-93842857D01*
X205369047Y-94033333D01*
X205369047Y-94271428D01*
X205321428Y-94461904D01*
X205273809Y-94557142D01*
X205226190Y-94604761D01*
X205130952Y-94652380D01*
X205035714Y-94652380D01*
X204940476Y-94604761D01*
X204892857Y-94557142D01*
X204845238Y-94461904D01*
X204797619Y-94271428D01*
X204797619Y-94033333D01*
X204845238Y-93842857D01*
X204892857Y-93747619D01*
X204940476Y-93700000D01*
X205035714Y-93652380D01*
X205988095Y-93652380D02*
X206083333Y-93652380D01*
X206178571Y-93700000D01*
X206226190Y-93747619D01*
X206273809Y-93842857D01*
X206321428Y-94033333D01*
X206321428Y-94271428D01*
X206273809Y-94461904D01*
X206226190Y-94557142D01*
X206178571Y-94604761D01*
X206083333Y-94652380D01*
X205988095Y-94652380D01*
X205892857Y-94604761D01*
X205845238Y-94557142D01*
X205797619Y-94461904D01*
X205750000Y-94271428D01*
X205750000Y-94033333D01*
X205797619Y-93842857D01*
X205845238Y-93747619D01*
X205892857Y-93700000D01*
X205988095Y-93652380D01*
X206702380Y-94366666D02*
X207178571Y-94366666D01*
X206607142Y-94652380D02*
X206940476Y-93652380D01*
X207273809Y-94652380D01*
X188754761Y-121333333D02*
X188802380Y-121190476D01*
X188802380Y-120952380D01*
X188754761Y-120857142D01*
X188707142Y-120809523D01*
X188611904Y-120761904D01*
X188516666Y-120761904D01*
X188421428Y-120809523D01*
X188373809Y-120857142D01*
X188326190Y-120952380D01*
X188278571Y-121142857D01*
X188230952Y-121238095D01*
X188183333Y-121285714D01*
X188088095Y-121333333D01*
X187992857Y-121333333D01*
X187897619Y-121285714D01*
X187850000Y-121238095D01*
X187802380Y-121142857D01*
X187802380Y-120904761D01*
X187850000Y-120761904D01*
X187802380Y-120428571D02*
X188802380Y-120190476D01*
X188088095Y-120000000D01*
X188802380Y-119809523D01*
X187802380Y-119571428D01*
X188802380Y-118666666D02*
X188802380Y-119238095D01*
X188802380Y-118952380D02*
X187802380Y-118952380D01*
X187945238Y-119047619D01*
X188040476Y-119142857D01*
X188088095Y-119238095D01*
X177466666Y-118452380D02*
X177466666Y-119166666D01*
X177419047Y-119309523D01*
X177323809Y-119404761D01*
X177180952Y-119452380D01*
X177085714Y-119452380D01*
X177847619Y-118452380D02*
X178466666Y-118452380D01*
X178133333Y-118833333D01*
X178276190Y-118833333D01*
X178371428Y-118880952D01*
X178419047Y-118928571D01*
X178466666Y-119023809D01*
X178466666Y-119261904D01*
X178419047Y-119357142D01*
X178371428Y-119404761D01*
X178276190Y-119452380D01*
X177990476Y-119452380D01*
X177895238Y-119404761D01*
X177847619Y-119357142D01*
X213866666Y-109862380D02*
X213866666Y-110576666D01*
X213819047Y-110719523D01*
X213723809Y-110814761D01*
X213580952Y-110862380D01*
X213485714Y-110862380D01*
X214771428Y-110195714D02*
X214771428Y-110862380D01*
X214533333Y-109814761D02*
X214295238Y-110529047D01*
X214914285Y-110529047D01*
X171480952Y-82852380D02*
X171480952Y-81852380D01*
X171814285Y-82566666D01*
X172147619Y-81852380D01*
X172147619Y-82852380D01*
X173052380Y-82185714D02*
X173052380Y-82852380D01*
X172623809Y-82185714D02*
X172623809Y-82709523D01*
X172671428Y-82804761D01*
X172766666Y-82852380D01*
X172909523Y-82852380D01*
X173004761Y-82804761D01*
X173052380Y-82757142D01*
X173528571Y-82852380D02*
X173528571Y-82185714D01*
X173528571Y-82376190D02*
X173576190Y-82280952D01*
X173623809Y-82233333D01*
X173719047Y-82185714D01*
X173814285Y-82185714D01*
X174576190Y-82852380D02*
X174576190Y-82328571D01*
X174528571Y-82233333D01*
X174433333Y-82185714D01*
X174242857Y-82185714D01*
X174147619Y-82233333D01*
X174576190Y-82804761D02*
X174480952Y-82852380D01*
X174242857Y-82852380D01*
X174147619Y-82804761D01*
X174100000Y-82709523D01*
X174100000Y-82614285D01*
X174147619Y-82519047D01*
X174242857Y-82471428D01*
X174480952Y-82471428D01*
X174576190Y-82423809D01*
X174909523Y-82185714D02*
X175290476Y-82185714D01*
X175052380Y-81852380D02*
X175052380Y-82709523D01*
X175100000Y-82804761D01*
X175195238Y-82852380D01*
X175290476Y-82852380D01*
X176052380Y-82852380D02*
X176052380Y-82328571D01*
X176004761Y-82233333D01*
X175909523Y-82185714D01*
X175719047Y-82185714D01*
X175623809Y-82233333D01*
X176052380Y-82804761D02*
X175957142Y-82852380D01*
X175719047Y-82852380D01*
X175623809Y-82804761D01*
X175576190Y-82709523D01*
X175576190Y-82614285D01*
X175623809Y-82519047D01*
X175719047Y-82471428D01*
X175957142Y-82471428D01*
X176052380Y-82423809D01*
X177242857Y-82804761D02*
X177385714Y-82852380D01*
X177623809Y-82852380D01*
X177719047Y-82804761D01*
X177766666Y-82757142D01*
X177814285Y-82661904D01*
X177814285Y-82566666D01*
X177766666Y-82471428D01*
X177719047Y-82423809D01*
X177623809Y-82376190D01*
X177433333Y-82328571D01*
X177338095Y-82280952D01*
X177290476Y-82233333D01*
X177242857Y-82138095D01*
X177242857Y-82042857D01*
X177290476Y-81947619D01*
X177338095Y-81900000D01*
X177433333Y-81852380D01*
X177671428Y-81852380D01*
X177814285Y-81900000D01*
X178100000Y-82185714D02*
X178480952Y-82185714D01*
X178242857Y-81852380D02*
X178242857Y-82709523D01*
X178290476Y-82804761D01*
X178385714Y-82852380D01*
X178480952Y-82852380D01*
X178719047Y-82185714D02*
X178957142Y-82852380D01*
X179195238Y-82185714D02*
X178957142Y-82852380D01*
X178861904Y-83090476D01*
X178814285Y-83138095D01*
X178719047Y-83185714D01*
X179719047Y-82852380D02*
X179623809Y-82804761D01*
X179576190Y-82709523D01*
X179576190Y-81852380D01*
X180480952Y-82804761D02*
X180385714Y-82852380D01*
X180195238Y-82852380D01*
X180100000Y-82804761D01*
X180052380Y-82709523D01*
X180052380Y-82328571D01*
X180100000Y-82233333D01*
X180195238Y-82185714D01*
X180385714Y-82185714D01*
X180480952Y-82233333D01*
X180528571Y-82328571D01*
X180528571Y-82423809D01*
X180052380Y-82519047D01*
X181671428Y-82804761D02*
X181814285Y-82852380D01*
X182052380Y-82852380D01*
X182147619Y-82804761D01*
X182195238Y-82757142D01*
X182242857Y-82661904D01*
X182242857Y-82566666D01*
X182195238Y-82471428D01*
X182147619Y-82423809D01*
X182052380Y-82376190D01*
X181861904Y-82328571D01*
X181766666Y-82280952D01*
X181719047Y-82233333D01*
X181671428Y-82138095D01*
X181671428Y-82042857D01*
X181719047Y-81947619D01*
X181766666Y-81900000D01*
X181861904Y-81852380D01*
X182100000Y-81852380D01*
X182242857Y-81900000D01*
X182671428Y-82852380D02*
X182671428Y-81852380D01*
X183100000Y-82852380D02*
X183100000Y-82328571D01*
X183052380Y-82233333D01*
X182957142Y-82185714D01*
X182814285Y-82185714D01*
X182719047Y-82233333D01*
X182671428Y-82280952D01*
X184004761Y-82185714D02*
X184004761Y-82852380D01*
X183576190Y-82185714D02*
X183576190Y-82709523D01*
X183623809Y-82804761D01*
X183719047Y-82852380D01*
X183861904Y-82852380D01*
X183957142Y-82804761D01*
X184004761Y-82757142D01*
X184480952Y-82185714D02*
X184480952Y-82852380D01*
X184480952Y-82280952D02*
X184528571Y-82233333D01*
X184623809Y-82185714D01*
X184766666Y-82185714D01*
X184861904Y-82233333D01*
X184909523Y-82328571D01*
X184909523Y-82852380D01*
X185242857Y-82185714D02*
X185623809Y-82185714D01*
X185385714Y-81852380D02*
X185385714Y-82709523D01*
X185433333Y-82804761D01*
X185528571Y-82852380D01*
X185623809Y-82852380D01*
X186623809Y-81852380D02*
X187242857Y-81852380D01*
X186909523Y-82233333D01*
X187052380Y-82233333D01*
X187147619Y-82280952D01*
X187195238Y-82328571D01*
X187242857Y-82423809D01*
X187242857Y-82661904D01*
X187195238Y-82757142D01*
X187147619Y-82804761D01*
X187052380Y-82852380D01*
X186766666Y-82852380D01*
X186671428Y-82804761D01*
X186623809Y-82757142D01*
X187861904Y-81852380D02*
X187957142Y-81852380D01*
X188052380Y-81900000D01*
X188100000Y-81947619D01*
X188147619Y-82042857D01*
X188195238Y-82233333D01*
X188195238Y-82471428D01*
X188147619Y-82661904D01*
X188100000Y-82757142D01*
X188052380Y-82804761D01*
X187957142Y-82852380D01*
X187861904Y-82852380D01*
X187766666Y-82804761D01*
X187719047Y-82757142D01*
X187671428Y-82661904D01*
X187623809Y-82471428D01*
X187623809Y-82233333D01*
X187671428Y-82042857D01*
X187719047Y-81947619D01*
X187766666Y-81900000D01*
X187861904Y-81852380D01*
X188576190Y-81947619D02*
X188623809Y-81900000D01*
X188719047Y-81852380D01*
X188957142Y-81852380D01*
X189052380Y-81900000D01*
X189100000Y-81947619D01*
X189147619Y-82042857D01*
X189147619Y-82138095D01*
X189100000Y-82280952D01*
X188528571Y-82852380D01*
X189147619Y-82852380D01*
X189766666Y-81852380D02*
X189861904Y-81852380D01*
X189957142Y-81900000D01*
X190004761Y-81947619D01*
X190052380Y-82042857D01*
X190100000Y-82233333D01*
X190100000Y-82471428D01*
X190052380Y-82661904D01*
X190004761Y-82757142D01*
X189957142Y-82804761D01*
X189861904Y-82852380D01*
X189766666Y-82852380D01*
X189671428Y-82804761D01*
X189623809Y-82757142D01*
X189576190Y-82661904D01*
X189528571Y-82471428D01*
X189528571Y-82233333D01*
X189576190Y-82042857D01*
X189623809Y-81947619D01*
X189671428Y-81900000D01*
X189766666Y-81852380D01*
X190528571Y-82471428D02*
X191290476Y-82471428D01*
X191957142Y-81852380D02*
X192052380Y-81852380D01*
X192147619Y-81900000D01*
X192195238Y-81947619D01*
X192242857Y-82042857D01*
X192290476Y-82233333D01*
X192290476Y-82471428D01*
X192242857Y-82661904D01*
X192195238Y-82757142D01*
X192147619Y-82804761D01*
X192052380Y-82852380D01*
X191957142Y-82852380D01*
X191861904Y-82804761D01*
X191814285Y-82757142D01*
X191766666Y-82661904D01*
X191719047Y-82471428D01*
X191719047Y-82233333D01*
X191766666Y-82042857D01*
X191814285Y-81947619D01*
X191861904Y-81900000D01*
X191957142Y-81852380D01*
X193242857Y-82852380D02*
X192671428Y-82852380D01*
X192957142Y-82852380D02*
X192957142Y-81852380D01*
X192861904Y-81995238D01*
X192766666Y-82090476D01*
X192671428Y-82138095D01*
X194195238Y-82852380D02*
X193623809Y-82852380D01*
X193909523Y-82852380D02*
X193909523Y-81852380D01*
X193814285Y-81995238D01*
X193719047Y-82090476D01*
X193623809Y-82138095D01*
X194814285Y-81852380D02*
X194909523Y-81852380D01*
X195004761Y-81900000D01*
X195052380Y-81947619D01*
X195099999Y-82042857D01*
X195147619Y-82233333D01*
X195147619Y-82471428D01*
X195099999Y-82661904D01*
X195052380Y-82757142D01*
X195004761Y-82804761D01*
X194909523Y-82852380D01*
X194814285Y-82852380D01*
X194719047Y-82804761D01*
X194671428Y-82757142D01*
X194623809Y-82661904D01*
X194576190Y-82471428D01*
X194576190Y-82233333D01*
X194623809Y-82042857D01*
X194671428Y-81947619D01*
X194719047Y-81900000D01*
X194814285Y-81852380D01*
X195766666Y-81852380D02*
X195861904Y-81852380D01*
X195957142Y-81900000D01*
X196004761Y-81947619D01*
X196052380Y-82042857D01*
X196099999Y-82233333D01*
X196099999Y-82471428D01*
X196052380Y-82661904D01*
X196004761Y-82757142D01*
X195957142Y-82804761D01*
X195861904Y-82852380D01*
X195766666Y-82852380D01*
X195671428Y-82804761D01*
X195623809Y-82757142D01*
X195576190Y-82661904D01*
X195528571Y-82471428D01*
X195528571Y-82233333D01*
X195576190Y-82042857D01*
X195623809Y-81947619D01*
X195671428Y-81900000D01*
X195766666Y-81852380D01*
X196528571Y-82471428D02*
X197290476Y-82471428D01*
X197957142Y-81852380D02*
X198052380Y-81852380D01*
X198147619Y-81900000D01*
X198195238Y-81947619D01*
X198242857Y-82042857D01*
X198290476Y-82233333D01*
X198290476Y-82471428D01*
X198242857Y-82661904D01*
X198195238Y-82757142D01*
X198147619Y-82804761D01*
X198052380Y-82852380D01*
X197957142Y-82852380D01*
X197861904Y-82804761D01*
X197814285Y-82757142D01*
X197766666Y-82661904D01*
X197719047Y-82471428D01*
X197719047Y-82233333D01*
X197766666Y-82042857D01*
X197814285Y-81947619D01*
X197861904Y-81900000D01*
X197957142Y-81852380D01*
X200004761Y-82852380D02*
X199433333Y-82852380D01*
X199719047Y-82852380D02*
X199719047Y-81852380D01*
X199623809Y-81995238D01*
X199528571Y-82090476D01*
X199433333Y-82138095D01*
X200909523Y-81852380D02*
X200433333Y-81852380D01*
X200385714Y-82328571D01*
X200433333Y-82280952D01*
X200528571Y-82233333D01*
X200766666Y-82233333D01*
X200861904Y-82280952D01*
X200909523Y-82328571D01*
X200957142Y-82423809D01*
X200957142Y-82661904D01*
X200909523Y-82757142D01*
X200861904Y-82804761D01*
X200766666Y-82852380D01*
X200528571Y-82852380D01*
X200433333Y-82804761D01*
X200385714Y-82757142D01*
X201576190Y-81852380D02*
X201671428Y-81852380D01*
X201766666Y-81900000D01*
X201814285Y-81947619D01*
X201861904Y-82042857D01*
X201909523Y-82233333D01*
X201909523Y-82471428D01*
X201861904Y-82661904D01*
X201814285Y-82757142D01*
X201766666Y-82804761D01*
X201671428Y-82852380D01*
X201576190Y-82852380D01*
X201480952Y-82804761D01*
X201433333Y-82757142D01*
X201385714Y-82661904D01*
X201338095Y-82471428D01*
X201338095Y-82233333D01*
X201385714Y-82042857D01*
X201433333Y-81947619D01*
X201480952Y-81900000D01*
X201576190Y-81852380D01*
X202290476Y-82566666D02*
X202766666Y-82566666D01*
X202195238Y-82852380D02*
X202528571Y-81852380D01*
X202861904Y-82852380D01*
X160216666Y-104102380D02*
X160216666Y-104816666D01*
X160169047Y-104959523D01*
X160073809Y-105054761D01*
X159930952Y-105102380D01*
X159835714Y-105102380D01*
X160692857Y-105102380D02*
X160692857Y-104102380D01*
X161073809Y-104102380D01*
X161169047Y-104150000D01*
X161216666Y-104197619D01*
X161264285Y-104292857D01*
X161264285Y-104435714D01*
X161216666Y-104530952D01*
X161169047Y-104578571D01*
X161073809Y-104626190D01*
X160692857Y-104626190D01*
X162216666Y-105102380D02*
X161645238Y-105102380D01*
X161930952Y-105102380D02*
X161930952Y-104102380D01*
X161835714Y-104245238D01*
X161740476Y-104340476D01*
X161645238Y-104388095D01*
X205893333Y-121392380D02*
X205417142Y-121392380D01*
X205417142Y-120392380D01*
X206750476Y-121392380D02*
X206179047Y-121392380D01*
X206464761Y-121392380D02*
X206464761Y-120392380D01*
X206369523Y-120535238D01*
X206274285Y-120630476D01*
X206179047Y-120678095D01*
X195746666Y-110637380D02*
X195746666Y-111351666D01*
X195699047Y-111494523D01*
X195603809Y-111589761D01*
X195460952Y-111637380D01*
X195365714Y-111637380D01*
X196651428Y-110637380D02*
X196460952Y-110637380D01*
X196365714Y-110685000D01*
X196318095Y-110732619D01*
X196222857Y-110875476D01*
X196175238Y-111065952D01*
X196175238Y-111446904D01*
X196222857Y-111542142D01*
X196270476Y-111589761D01*
X196365714Y-111637380D01*
X196556190Y-111637380D01*
X196651428Y-111589761D01*
X196699047Y-111542142D01*
X196746666Y-111446904D01*
X196746666Y-111208809D01*
X196699047Y-111113571D01*
X196651428Y-111065952D01*
X196556190Y-111018333D01*
X196365714Y-111018333D01*
X196270476Y-111065952D01*
X196222857Y-111113571D01*
X196175238Y-111208809D01*
X145966666Y-106352380D02*
X145966666Y-107066666D01*
X145919047Y-107209523D01*
X145823809Y-107304761D01*
X145680952Y-107352380D01*
X145585714Y-107352380D01*
X146919047Y-106352380D02*
X146442857Y-106352380D01*
X146395238Y-106828571D01*
X146442857Y-106780952D01*
X146538095Y-106733333D01*
X146776190Y-106733333D01*
X146871428Y-106780952D01*
X146919047Y-106828571D01*
X146966666Y-106923809D01*
X146966666Y-107161904D01*
X146919047Y-107257142D01*
X146871428Y-107304761D01*
X146776190Y-107352380D01*
X146538095Y-107352380D01*
X146442857Y-107304761D01*
X146395238Y-107257142D01*
X167616666Y-105252380D02*
X167616666Y-105966666D01*
X167569047Y-106109523D01*
X167473809Y-106204761D01*
X167330952Y-106252380D01*
X167235714Y-106252380D01*
X168045238Y-105347619D02*
X168092857Y-105300000D01*
X168188095Y-105252380D01*
X168426190Y-105252380D01*
X168521428Y-105300000D01*
X168569047Y-105347619D01*
X168616666Y-105442857D01*
X168616666Y-105538095D01*
X168569047Y-105680952D01*
X167997619Y-106252380D01*
X168616666Y-106252380D01*
X193456666Y-107772380D02*
X193456666Y-108486666D01*
X193409047Y-108629523D01*
X193313809Y-108724761D01*
X193170952Y-108772380D01*
X193075714Y-108772380D01*
X194456666Y-108772380D02*
X193885238Y-108772380D01*
X194170952Y-108772380D02*
X194170952Y-107772380D01*
X194075714Y-107915238D01*
X193980476Y-108010476D01*
X193885238Y-108058095D01*
X222056666Y-103418571D02*
X221723333Y-103418571D01*
X221723333Y-103942380D02*
X221723333Y-102942380D01*
X222199523Y-102942380D01*
X223104285Y-103942380D02*
X222532857Y-103942380D01*
X222818571Y-103942380D02*
X222818571Y-102942380D01*
X222723333Y-103085238D01*
X222628095Y-103180476D01*
X222532857Y-103228095D01*
X176261904Y-110602380D02*
X176261904Y-109602380D01*
X176500000Y-109602380D01*
X176642857Y-109650000D01*
X176738095Y-109745238D01*
X176785714Y-109840476D01*
X176833333Y-110030952D01*
X176833333Y-110173809D01*
X176785714Y-110364285D01*
X176738095Y-110459523D01*
X176642857Y-110554761D01*
X176500000Y-110602380D01*
X176261904Y-110602380D01*
X177166666Y-109602380D02*
X177785714Y-109602380D01*
X177452380Y-109983333D01*
X177595238Y-109983333D01*
X177690476Y-110030952D01*
X177738095Y-110078571D01*
X177785714Y-110173809D01*
X177785714Y-110411904D01*
X177738095Y-110507142D01*
X177690476Y-110554761D01*
X177595238Y-110602380D01*
X177309523Y-110602380D01*
X177214285Y-110554761D01*
X177166666Y-110507142D01*
X184261904Y-110602380D02*
X184261904Y-109602380D01*
X184500000Y-109602380D01*
X184642857Y-109650000D01*
X184738095Y-109745238D01*
X184785714Y-109840476D01*
X184833333Y-110030952D01*
X184833333Y-110173809D01*
X184785714Y-110364285D01*
X184738095Y-110459523D01*
X184642857Y-110554761D01*
X184500000Y-110602380D01*
X184261904Y-110602380D01*
X185214285Y-109697619D02*
X185261904Y-109650000D01*
X185357142Y-109602380D01*
X185595238Y-109602380D01*
X185690476Y-109650000D01*
X185738095Y-109697619D01*
X185785714Y-109792857D01*
X185785714Y-109888095D01*
X185738095Y-110030952D01*
X185166666Y-110602380D01*
X185785714Y-110602380D01*
M02*
