G04 #@! TF.GenerationSoftware,KiCad,Pcbnew,5.1.9+dfsg1-1~bpo10+1*
G04 #@! TF.CreationDate,2022-02-04T10:03:53+00:00*
G04 #@! TF.ProjectId,CurrentShuntCircuit,43757272-656e-4745-9368-756e74436972,1*
G04 #@! TF.SameCoordinates,Original*
G04 #@! TF.FileFunction,Copper,L1,Top*
G04 #@! TF.FilePolarity,Positive*
%FSLAX46Y46*%
G04 Gerber Fmt 4.6, Leading zero omitted, Abs format (unit mm)*
G04 Created by KiCad (PCBNEW 5.1.9+dfsg1-1~bpo10+1) date 2022-02-04 10:03:53*
%MOMM*%
%LPD*%
G01*
G04 APERTURE LIST*
G04 #@! TA.AperFunction,EtchedComponent*
%ADD10C,0.100000*%
G04 #@! TD*
G04 #@! TA.AperFunction,ComponentPad*
%ADD11O,1.600000X1.600000*%
G04 #@! TD*
G04 #@! TA.AperFunction,ComponentPad*
%ADD12R,1.600000X1.600000*%
G04 #@! TD*
G04 #@! TA.AperFunction,ComponentPad*
%ADD13O,1.700000X1.700000*%
G04 #@! TD*
G04 #@! TA.AperFunction,ComponentPad*
%ADD14R,1.700000X1.700000*%
G04 #@! TD*
G04 #@! TA.AperFunction,ComponentPad*
%ADD15C,2.200000*%
G04 #@! TD*
G04 #@! TA.AperFunction,ComponentPad*
%ADD16R,2.000000X2.000000*%
G04 #@! TD*
G04 #@! TA.AperFunction,SMDPad,CuDef*
%ADD17R,1.000000X1.500000*%
G04 #@! TD*
G04 #@! TA.AperFunction,ComponentPad*
%ADD18R,1.800000X1.800000*%
G04 #@! TD*
G04 #@! TA.AperFunction,ComponentPad*
%ADD19C,1.800000*%
G04 #@! TD*
G04 #@! TA.AperFunction,ComponentPad*
%ADD20R,2.500000X2.500000*%
G04 #@! TD*
G04 #@! TA.AperFunction,ComponentPad*
%ADD21C,1.270000*%
G04 #@! TD*
G04 #@! TA.AperFunction,ViaPad*
%ADD22C,0.800000*%
G04 #@! TD*
G04 #@! TA.AperFunction,Conductor*
%ADD23C,0.500000*%
G04 #@! TD*
G04 #@! TA.AperFunction,Conductor*
%ADD24C,1.000000*%
G04 #@! TD*
G04 #@! TA.AperFunction,Conductor*
%ADD25C,0.250000*%
G04 #@! TD*
G04 #@! TA.AperFunction,Conductor*
%ADD26C,0.254000*%
G04 #@! TD*
G04 #@! TA.AperFunction,Conductor*
%ADD27C,0.100000*%
G04 #@! TD*
G04 APERTURE END LIST*
D10*
G36*
X160750000Y-106450000D02*
G01*
X161250000Y-106450000D01*
X161250000Y-107050000D01*
X160750000Y-107050000D01*
X160750000Y-106450000D01*
G37*
D11*
X184410000Y-116680000D03*
X186950000Y-124300000D03*
X186950000Y-116680000D03*
D12*
X184410000Y-124300000D03*
D13*
X179020000Y-121460000D03*
X176480000Y-121460000D03*
X173940000Y-121460000D03*
X171400000Y-121460000D03*
X168860000Y-121460000D03*
X166320000Y-121460000D03*
X163780000Y-121460000D03*
D14*
X161240000Y-121460000D03*
D15*
X225020000Y-113510000D03*
X221210000Y-113510000D03*
X217400000Y-113510000D03*
D16*
X213590000Y-113510000D03*
D17*
X161650000Y-106750000D03*
X160350000Y-106750000D03*
G04 #@! TA.AperFunction,SMDPad,CuDef*
G36*
G01*
X203660000Y-120215000D02*
X203660000Y-121665000D01*
G75*
G02*
X203285000Y-122040000I-375000J0D01*
G01*
X202535000Y-122040000D01*
G75*
G02*
X202160000Y-121665000I0J375000D01*
G01*
X202160000Y-120215000D01*
G75*
G02*
X202535000Y-119840000I375000J0D01*
G01*
X203285000Y-119840000D01*
G75*
G02*
X203660000Y-120215000I0J-375000D01*
G01*
G37*
G04 #@! TD.AperFunction*
G04 #@! TA.AperFunction,SMDPad,CuDef*
G36*
G01*
X209960000Y-120215000D02*
X209960000Y-121665000D01*
G75*
G02*
X209585000Y-122040000I-375000J0D01*
G01*
X208835000Y-122040000D01*
G75*
G02*
X208460000Y-121665000I0J375000D01*
G01*
X208460000Y-120215000D01*
G75*
G02*
X208835000Y-119840000I375000J0D01*
G01*
X209585000Y-119840000D01*
G75*
G02*
X209960000Y-120215000I0J-375000D01*
G01*
G37*
G04 #@! TD.AperFunction*
D18*
X194080000Y-114350000D03*
D19*
X197880000Y-114350000D03*
D15*
X157120000Y-110000000D03*
X153310000Y-110000000D03*
X149500000Y-110000000D03*
D16*
X145690000Y-110000000D03*
D20*
X171300000Y-107100000D03*
X196750000Y-107100000D03*
D21*
X219850000Y-106030000D03*
X224950000Y-107630000D03*
G04 #@! TA.AperFunction,SMDPad,CuDef*
G36*
G01*
X180450000Y-110256250D02*
X180450000Y-109343750D01*
G75*
G02*
X180693750Y-109100000I243750J0D01*
G01*
X181181250Y-109100000D01*
G75*
G02*
X181425000Y-109343750I0J-243750D01*
G01*
X181425000Y-110256250D01*
G75*
G02*
X181181250Y-110500000I-243750J0D01*
G01*
X180693750Y-110500000D01*
G75*
G02*
X180450000Y-110256250I0J243750D01*
G01*
G37*
G04 #@! TD.AperFunction*
G04 #@! TA.AperFunction,SMDPad,CuDef*
G36*
G01*
X178575000Y-110256250D02*
X178575000Y-109343750D01*
G75*
G02*
X178818750Y-109100000I243750J0D01*
G01*
X179306250Y-109100000D01*
G75*
G02*
X179550000Y-109343750I0J-243750D01*
G01*
X179550000Y-110256250D01*
G75*
G02*
X179306250Y-110500000I-243750J0D01*
G01*
X178818750Y-110500000D01*
G75*
G02*
X178575000Y-110256250I0J243750D01*
G01*
G37*
G04 #@! TD.AperFunction*
G04 #@! TA.AperFunction,SMDPad,CuDef*
G36*
G01*
X188450000Y-110256250D02*
X188450000Y-109343750D01*
G75*
G02*
X188693750Y-109100000I243750J0D01*
G01*
X189181250Y-109100000D01*
G75*
G02*
X189425000Y-109343750I0J-243750D01*
G01*
X189425000Y-110256250D01*
G75*
G02*
X189181250Y-110500000I-243750J0D01*
G01*
X188693750Y-110500000D01*
G75*
G02*
X188450000Y-110256250I0J243750D01*
G01*
G37*
G04 #@! TD.AperFunction*
G04 #@! TA.AperFunction,SMDPad,CuDef*
G36*
G01*
X186575000Y-110256250D02*
X186575000Y-109343750D01*
G75*
G02*
X186818750Y-109100000I243750J0D01*
G01*
X187306250Y-109100000D01*
G75*
G02*
X187550000Y-109343750I0J-243750D01*
G01*
X187550000Y-110256250D01*
G75*
G02*
X187306250Y-110500000I-243750J0D01*
G01*
X186818750Y-110500000D01*
G75*
G02*
X186575000Y-110256250I0J243750D01*
G01*
G37*
G04 #@! TD.AperFunction*
D22*
X148750000Y-116900000D03*
X149750000Y-116900000D03*
X150750000Y-116900000D03*
X161280000Y-115310000D03*
X154600000Y-121000000D03*
X157580000Y-118680000D03*
X158560000Y-118680000D03*
X155150000Y-118680000D03*
X156050000Y-118680000D03*
X180000000Y-112500000D03*
X179100000Y-112500000D03*
X168000000Y-107700000D03*
X167100000Y-107700000D03*
X178200000Y-116240000D03*
X177300000Y-116240000D03*
X181750000Y-105150000D03*
X166500000Y-114350000D03*
X186700000Y-111630000D03*
X207460000Y-104710000D03*
X188430000Y-113680000D03*
X189440000Y-113650000D03*
X190440000Y-113650000D03*
X208660000Y-103720000D03*
X166500000Y-116020000D03*
X200040000Y-108770000D03*
X208890000Y-109540000D03*
X217030000Y-121110000D03*
X217060000Y-122120000D03*
X217960000Y-122120000D03*
X217960000Y-123120000D03*
X217930000Y-121110000D03*
X217060000Y-123120000D03*
X184716048Y-113683952D03*
X183590750Y-113079990D03*
X146750000Y-120650000D03*
X156000000Y-120650000D03*
X166999992Y-111250000D03*
X184740000Y-114910000D03*
X188969986Y-114930000D03*
X176600000Y-107350000D03*
X200410000Y-106220000D03*
X202600000Y-111930000D03*
X208220000Y-111720000D03*
X212250000Y-119150000D03*
X210075010Y-106029992D03*
X206980000Y-115310000D03*
X204820000Y-108290000D03*
X163500000Y-104750000D03*
X164000000Y-107750000D03*
X159460165Y-117065155D03*
X157600000Y-116774990D03*
X170686933Y-113244989D03*
X180047660Y-118844990D03*
X173060000Y-119520000D03*
X167540000Y-119530000D03*
X160087500Y-109250000D03*
X165412500Y-106000000D03*
X173249936Y-113244989D03*
X165500010Y-109250000D03*
X172000000Y-113244989D03*
X169600000Y-114830000D03*
X159680000Y-118660000D03*
X173892968Y-118755131D03*
X169500000Y-113300000D03*
X174570000Y-113260000D03*
X201450000Y-116700000D03*
X159846065Y-110937814D03*
D23*
X147800000Y-119600000D02*
X146750000Y-120650000D01*
X156000000Y-120650000D02*
X154950000Y-119600000D01*
X154950000Y-119600000D02*
X147800000Y-119600000D01*
X172700000Y-111250000D02*
X176600000Y-107350000D01*
X166999992Y-111250000D02*
X172700000Y-111250000D01*
D24*
X202910000Y-120940000D02*
X202160000Y-120940000D01*
D23*
X202600000Y-111364315D02*
X202690000Y-111274315D01*
X202600000Y-111930000D02*
X202600000Y-111364315D01*
X202690000Y-108500000D02*
X200410000Y-106220000D01*
X202690000Y-111274315D02*
X202690000Y-108500000D01*
D24*
X202160000Y-120940000D02*
X201600000Y-120380000D01*
D23*
X202600000Y-111930000D02*
X208010000Y-111930000D01*
X208010000Y-111930000D02*
X208220000Y-111720000D01*
X156480000Y-120170000D02*
X156000000Y-120650000D01*
X161240000Y-121460000D02*
X159950000Y-120170000D01*
X159950000Y-120170000D02*
X156480000Y-120170000D01*
X200410000Y-119190000D02*
X201600000Y-120380000D01*
X202600000Y-111930000D02*
X201640000Y-112890000D01*
X200410000Y-113660000D02*
X200410000Y-119190000D01*
X201180000Y-112890000D02*
X200410000Y-113660000D01*
X201640000Y-112890000D02*
X201180000Y-112890000D01*
X177110000Y-107860000D02*
X176600000Y-107350000D01*
X177110000Y-112210000D02*
X177110000Y-107860000D01*
X184740000Y-114910000D02*
X183760000Y-113930000D01*
X183760000Y-113930000D02*
X178830000Y-113930000D01*
X178830000Y-113930000D02*
X177110000Y-112210000D01*
D24*
X188970000Y-114930000D02*
X184720000Y-114930000D01*
X201600000Y-120380000D02*
X200700000Y-119480000D01*
X200700000Y-119480000D02*
X191490000Y-119480000D01*
X191490000Y-119480000D02*
X190350000Y-118340000D01*
X190350000Y-116310000D02*
X188970000Y-114930000D01*
X190350000Y-118340000D02*
X190350000Y-116310000D01*
D23*
X209610000Y-120940000D02*
X211400000Y-119150000D01*
X211400000Y-119150000D02*
X212250000Y-119150000D01*
X209210000Y-120940000D02*
X209610000Y-120940000D01*
D25*
X210075010Y-108149992D02*
X204960008Y-108149992D01*
X204960008Y-108149992D02*
X204820000Y-108290000D01*
X210075010Y-108149992D02*
X210075010Y-112214990D01*
X210075010Y-112214990D02*
X206980000Y-115310000D01*
X210075010Y-108149992D02*
X210075010Y-106029992D01*
X164539000Y-103711000D02*
X163500000Y-104750000D01*
X188481000Y-103711000D02*
X164539000Y-103711000D01*
X188937500Y-104167500D02*
X188481000Y-103711000D01*
X188937500Y-109800000D02*
X188937500Y-104167500D01*
X164000000Y-105500000D02*
X165000000Y-104500000D01*
X179523000Y-104500000D02*
X180937500Y-105914500D01*
X180937500Y-105914500D02*
X180937500Y-109800000D01*
X164000000Y-107750000D02*
X164000000Y-105500000D01*
X165000000Y-104500000D02*
X179523000Y-104500000D01*
D24*
X225020000Y-107700000D02*
X224950000Y-107630000D01*
X225020000Y-113510000D02*
X225020000Y-107700000D01*
D25*
X160025850Y-117065155D02*
X159460165Y-117065155D01*
X176500000Y-121440000D02*
X176500000Y-118838589D01*
X160285683Y-117324988D02*
X160025850Y-117065155D01*
X176480000Y-121460000D02*
X176500000Y-121440000D01*
X174986399Y-117324988D02*
X160285683Y-117324988D01*
X176500000Y-118838589D02*
X174986399Y-117324988D01*
X158615166Y-117790156D02*
X174043160Y-117790156D01*
X157600000Y-116774990D02*
X158615166Y-117790156D01*
X174799999Y-118546995D02*
X174799999Y-119010001D01*
X174799999Y-119010001D02*
X173940000Y-119870000D01*
X173940000Y-119870000D02*
X173940000Y-121460000D01*
X174043160Y-117790156D02*
X174799999Y-118546995D01*
X178078588Y-118742178D02*
X179379163Y-118742178D01*
X179481975Y-118844990D02*
X180047660Y-118844990D01*
X175761376Y-116424966D02*
X178078588Y-118742178D01*
X173866910Y-116424966D02*
X175761376Y-116424966D01*
X179379163Y-118742178D02*
X179481975Y-118844990D01*
X170686933Y-113244989D02*
X173866910Y-116424966D01*
X173050000Y-119530000D02*
X173060000Y-119520000D01*
X167540000Y-119530000D02*
X173050000Y-119530000D01*
X160350000Y-106750000D02*
X160350000Y-108987500D01*
X160350000Y-108987500D02*
X160087500Y-109250000D01*
X166225011Y-111725011D02*
X166500000Y-112000000D01*
X166500000Y-112000000D02*
X172004947Y-112000000D01*
X165412500Y-106000000D02*
X165925000Y-106000000D01*
X166225011Y-106300011D02*
X166225011Y-111725011D01*
X165925000Y-106000000D02*
X166225011Y-106300011D01*
X172004947Y-112000000D02*
X173249936Y-113244989D01*
X166200011Y-112450011D02*
X171205022Y-112450011D01*
X165500010Y-109250000D02*
X165500010Y-111750010D01*
X171205022Y-112450011D02*
X172000000Y-113244989D01*
X165500010Y-111750010D02*
X166200011Y-112450011D01*
X169999999Y-115229999D02*
X169600000Y-114830000D01*
X170009998Y-115220000D02*
X169999999Y-115229999D01*
X184410000Y-123890000D02*
X184410000Y-124300000D01*
X180090000Y-119570000D02*
X184410000Y-123890000D01*
X171644977Y-116874977D02*
X175172799Y-116874977D01*
X179240000Y-119570000D02*
X180090000Y-119570000D01*
X177490011Y-119192189D02*
X178862189Y-119192189D01*
X169999999Y-115229999D02*
X171644977Y-116874977D01*
X178862189Y-119192189D02*
X179240000Y-119570000D01*
X175172799Y-116874977D02*
X177490011Y-119192189D01*
X159680000Y-118660000D02*
X173797837Y-118660000D01*
X173797837Y-118660000D02*
X173892968Y-118755131D01*
X174570000Y-113825685D02*
X174570000Y-113260000D01*
X186950000Y-123370000D02*
X181699989Y-118119989D01*
X178132309Y-118119989D02*
X174570000Y-114557680D01*
X186950000Y-124300000D02*
X186950000Y-123370000D01*
X181699989Y-118119989D02*
X178132309Y-118119989D01*
X174570000Y-114557680D02*
X174570000Y-113825685D01*
D23*
X201450000Y-116700000D02*
X208390000Y-116700000D01*
X219575634Y-116700000D02*
X208390000Y-116700000D01*
X221210000Y-113510000D02*
X221210000Y-115065634D01*
X221210000Y-115065634D02*
X219575634Y-116700000D01*
D25*
X157635001Y-105674999D02*
X153310000Y-110000000D01*
X161650000Y-106750000D02*
X161650000Y-105750000D01*
X161574999Y-105674999D02*
X157635001Y-105674999D01*
X161650000Y-105750000D02*
X161574999Y-105674999D01*
X158883879Y-111900000D02*
X159446066Y-111337813D01*
X159446066Y-111337813D02*
X159846065Y-110937814D01*
X149500000Y-110000000D02*
X151400000Y-111900000D01*
X151400000Y-111900000D02*
X158883879Y-111900000D01*
D26*
X179848376Y-101420777D02*
X179814592Y-102309174D01*
X179816940Y-102338776D01*
X179824167Y-102362601D01*
X179835903Y-102384557D01*
X179851697Y-102403803D01*
X179870943Y-102419597D01*
X179892899Y-102431333D01*
X179916724Y-102438560D01*
X179941500Y-102441000D01*
X191752500Y-102441000D01*
X191772525Y-102439411D01*
X191796607Y-102433095D01*
X191818994Y-102422202D01*
X191838825Y-102407150D01*
X191855339Y-102388519D01*
X191867901Y-102367024D01*
X191876028Y-102343492D01*
X191879408Y-102318826D01*
X191911902Y-101464358D01*
X226019926Y-101587577D01*
X226401910Y-101607693D01*
X226777012Y-101664621D01*
X227144745Y-101757979D01*
X227501586Y-101886873D01*
X227844089Y-102050056D01*
X228168998Y-102245980D01*
X228473161Y-102472742D01*
X228753690Y-102728190D01*
X229007872Y-103009852D01*
X229233274Y-103315034D01*
X229340001Y-103493830D01*
X229340001Y-124776333D01*
X228957093Y-124393425D01*
X228428558Y-124040270D01*
X227841281Y-123797012D01*
X227217832Y-123673000D01*
X226582168Y-123673000D01*
X225958719Y-123797012D01*
X225371442Y-124040270D01*
X224842907Y-124393425D01*
X224393425Y-124842907D01*
X224040270Y-125371442D01*
X223797012Y-125958719D01*
X223673000Y-126582168D01*
X223673000Y-127217832D01*
X223797012Y-127841281D01*
X224040270Y-128428558D01*
X224393425Y-128957093D01*
X224776332Y-129340000D01*
X145223668Y-129340000D01*
X145606575Y-128957093D01*
X145959730Y-128428558D01*
X146202988Y-127841281D01*
X146327000Y-127217832D01*
X146327000Y-126582168D01*
X146202988Y-125958719D01*
X145959730Y-125371442D01*
X145606575Y-124842907D01*
X145157093Y-124393425D01*
X144628558Y-124040270D01*
X144041281Y-123797012D01*
X143417832Y-123673000D01*
X142782168Y-123673000D01*
X142158719Y-123797012D01*
X141571442Y-124040270D01*
X141042907Y-124393425D01*
X140660000Y-124776332D01*
X140660000Y-120548061D01*
X145715000Y-120548061D01*
X145715000Y-120751939D01*
X145754774Y-120951898D01*
X145832795Y-121140256D01*
X145946063Y-121309774D01*
X146090226Y-121453937D01*
X146259744Y-121567205D01*
X146448102Y-121645226D01*
X146648061Y-121685000D01*
X146851939Y-121685000D01*
X147051898Y-121645226D01*
X147240256Y-121567205D01*
X147409774Y-121453937D01*
X147553937Y-121309774D01*
X147667205Y-121140256D01*
X147745226Y-120951898D01*
X147756535Y-120895043D01*
X148166579Y-120485000D01*
X154583422Y-120485000D01*
X154993465Y-120895044D01*
X155004774Y-120951898D01*
X155082795Y-121140256D01*
X155196063Y-121309774D01*
X155340226Y-121453937D01*
X155509744Y-121567205D01*
X155698102Y-121645226D01*
X155898061Y-121685000D01*
X156101939Y-121685000D01*
X156301898Y-121645226D01*
X156490256Y-121567205D01*
X156659774Y-121453937D01*
X156803937Y-121309774D01*
X156917205Y-121140256D01*
X156952519Y-121055000D01*
X159583422Y-121055000D01*
X159751928Y-121223506D01*
X159751928Y-122310000D01*
X159764188Y-122434482D01*
X159800498Y-122554180D01*
X159859463Y-122664494D01*
X159938815Y-122761185D01*
X160035506Y-122840537D01*
X160145820Y-122899502D01*
X160265518Y-122935812D01*
X160390000Y-122948072D01*
X162090000Y-122948072D01*
X162214482Y-122935812D01*
X162334180Y-122899502D01*
X162444494Y-122840537D01*
X162541185Y-122761185D01*
X162620537Y-122664494D01*
X162679502Y-122554180D01*
X162701513Y-122481620D01*
X162833368Y-122613475D01*
X163076589Y-122775990D01*
X163346842Y-122887932D01*
X163633740Y-122945000D01*
X163926260Y-122945000D01*
X164213158Y-122887932D01*
X164483411Y-122775990D01*
X164726632Y-122613475D01*
X164933475Y-122406632D01*
X165055195Y-122224466D01*
X165124822Y-122341355D01*
X165319731Y-122557588D01*
X165553080Y-122731641D01*
X165815901Y-122856825D01*
X165963110Y-122901476D01*
X166193000Y-122780155D01*
X166193000Y-121587000D01*
X166173000Y-121587000D01*
X166173000Y-121333000D01*
X166193000Y-121333000D01*
X166193000Y-120139845D01*
X165963110Y-120018524D01*
X165815901Y-120063175D01*
X165553080Y-120188359D01*
X165319731Y-120362412D01*
X165124822Y-120578645D01*
X165055195Y-120695534D01*
X164933475Y-120513368D01*
X164726632Y-120306525D01*
X164483411Y-120144010D01*
X164213158Y-120032068D01*
X163926260Y-119975000D01*
X163633740Y-119975000D01*
X163346842Y-120032068D01*
X163076589Y-120144010D01*
X162833368Y-120306525D01*
X162701513Y-120438380D01*
X162679502Y-120365820D01*
X162620537Y-120255506D01*
X162541185Y-120158815D01*
X162444494Y-120079463D01*
X162334180Y-120020498D01*
X162214482Y-119984188D01*
X162090000Y-119971928D01*
X161003506Y-119971928D01*
X160606534Y-119574956D01*
X160578817Y-119541183D01*
X160444059Y-119430589D01*
X160424248Y-119420000D01*
X166506603Y-119420000D01*
X166505000Y-119428061D01*
X166505000Y-119631939D01*
X166544774Y-119831898D01*
X166622795Y-120020256D01*
X166636042Y-120040081D01*
X166447000Y-120139845D01*
X166447000Y-121333000D01*
X166467000Y-121333000D01*
X166467000Y-121587000D01*
X166447000Y-121587000D01*
X166447000Y-122780155D01*
X166676890Y-122901476D01*
X166824099Y-122856825D01*
X167086920Y-122731641D01*
X167320269Y-122557588D01*
X167515178Y-122341355D01*
X167584805Y-122224466D01*
X167706525Y-122406632D01*
X167913368Y-122613475D01*
X168156589Y-122775990D01*
X168426842Y-122887932D01*
X168713740Y-122945000D01*
X169006260Y-122945000D01*
X169293158Y-122887932D01*
X169563411Y-122775990D01*
X169806632Y-122613475D01*
X170013475Y-122406632D01*
X170130000Y-122232240D01*
X170246525Y-122406632D01*
X170453368Y-122613475D01*
X170696589Y-122775990D01*
X170966842Y-122887932D01*
X171253740Y-122945000D01*
X171546260Y-122945000D01*
X171833158Y-122887932D01*
X172103411Y-122775990D01*
X172346632Y-122613475D01*
X172553475Y-122406632D01*
X172670000Y-122232240D01*
X172786525Y-122406632D01*
X172993368Y-122613475D01*
X173236589Y-122775990D01*
X173506842Y-122887932D01*
X173793740Y-122945000D01*
X174086260Y-122945000D01*
X174373158Y-122887932D01*
X174643411Y-122775990D01*
X174886632Y-122613475D01*
X175093475Y-122406632D01*
X175210000Y-122232240D01*
X175326525Y-122406632D01*
X175533368Y-122613475D01*
X175776589Y-122775990D01*
X176046842Y-122887932D01*
X176333740Y-122945000D01*
X176626260Y-122945000D01*
X176913158Y-122887932D01*
X177183411Y-122775990D01*
X177426632Y-122613475D01*
X177633475Y-122406632D01*
X177750000Y-122232240D01*
X177866525Y-122406632D01*
X178073368Y-122613475D01*
X178316589Y-122775990D01*
X178586842Y-122887932D01*
X178873740Y-122945000D01*
X179166260Y-122945000D01*
X179453158Y-122887932D01*
X179723411Y-122775990D01*
X179966632Y-122613475D01*
X180173475Y-122406632D01*
X180335990Y-122163411D01*
X180447932Y-121893158D01*
X180505000Y-121606260D01*
X180505000Y-121313740D01*
X180447932Y-121026842D01*
X180430885Y-120985686D01*
X182971928Y-123526730D01*
X182971928Y-125100000D01*
X182984188Y-125224482D01*
X183020498Y-125344180D01*
X183079463Y-125454494D01*
X183158815Y-125551185D01*
X183255506Y-125630537D01*
X183365820Y-125689502D01*
X183485518Y-125725812D01*
X183610000Y-125738072D01*
X185210000Y-125738072D01*
X185334482Y-125725812D01*
X185454180Y-125689502D01*
X185564494Y-125630537D01*
X185661185Y-125551185D01*
X185740537Y-125454494D01*
X185799502Y-125344180D01*
X185835812Y-125224482D01*
X185836643Y-125216039D01*
X186035241Y-125414637D01*
X186270273Y-125571680D01*
X186531426Y-125679853D01*
X186808665Y-125735000D01*
X187091335Y-125735000D01*
X187368574Y-125679853D01*
X187629727Y-125571680D01*
X187864759Y-125414637D01*
X188064637Y-125214759D01*
X188221680Y-124979727D01*
X188329853Y-124718574D01*
X188385000Y-124441335D01*
X188385000Y-124158665D01*
X188329853Y-123881426D01*
X188221680Y-123620273D01*
X188064637Y-123385241D01*
X187864759Y-123185363D01*
X187629727Y-123028320D01*
X187628951Y-123027999D01*
X187584974Y-122945724D01*
X187490001Y-122829999D01*
X187461003Y-122806201D01*
X182263793Y-117608992D01*
X182239990Y-117579988D01*
X182124265Y-117485015D01*
X181992236Y-117414443D01*
X181848975Y-117370986D01*
X181737322Y-117359989D01*
X181737311Y-117359989D01*
X181699989Y-117356313D01*
X181662667Y-117359989D01*
X178447111Y-117359989D01*
X178116162Y-117029040D01*
X183018091Y-117029040D01*
X183112930Y-117293881D01*
X183257615Y-117535131D01*
X183446586Y-117743519D01*
X183672580Y-117911037D01*
X183926913Y-118031246D01*
X184060961Y-118071904D01*
X184283000Y-117949915D01*
X184283000Y-116807000D01*
X184537000Y-116807000D01*
X184537000Y-117949915D01*
X184759039Y-118071904D01*
X184893087Y-118031246D01*
X185147420Y-117911037D01*
X185373414Y-117743519D01*
X185562385Y-117535131D01*
X185680000Y-117339018D01*
X185797615Y-117535131D01*
X185986586Y-117743519D01*
X186212580Y-117911037D01*
X186466913Y-118031246D01*
X186600961Y-118071904D01*
X186823000Y-117949915D01*
X186823000Y-116807000D01*
X187077000Y-116807000D01*
X187077000Y-117949915D01*
X187299039Y-118071904D01*
X187433087Y-118031246D01*
X187687420Y-117911037D01*
X187913414Y-117743519D01*
X188102385Y-117535131D01*
X188247070Y-117293881D01*
X188341909Y-117029040D01*
X188220624Y-116807000D01*
X187077000Y-116807000D01*
X186823000Y-116807000D01*
X184537000Y-116807000D01*
X184283000Y-116807000D01*
X183139376Y-116807000D01*
X183018091Y-117029040D01*
X178116162Y-117029040D01*
X175330000Y-114242879D01*
X175330000Y-113963711D01*
X175373937Y-113919774D01*
X175487205Y-113750256D01*
X175565226Y-113561898D01*
X175605000Y-113361939D01*
X175605000Y-113158061D01*
X175565226Y-112958102D01*
X175487205Y-112769744D01*
X175373937Y-112600226D01*
X175229774Y-112456063D01*
X175060256Y-112342795D01*
X174871898Y-112264774D01*
X174671939Y-112225000D01*
X174468061Y-112225000D01*
X174268102Y-112264774D01*
X174079744Y-112342795D01*
X173918915Y-112450257D01*
X173909710Y-112441052D01*
X173740192Y-112327784D01*
X173551834Y-112249763D01*
X173351875Y-112209989D01*
X173289738Y-112209989D01*
X173112665Y-112032917D01*
X173194059Y-111989411D01*
X173328817Y-111878817D01*
X173356534Y-111845044D01*
X176225001Y-108976578D01*
X176225000Y-112166531D01*
X176220719Y-112210000D01*
X176225000Y-112253469D01*
X176225000Y-112253476D01*
X176231064Y-112315046D01*
X176237805Y-112383490D01*
X176248958Y-112420256D01*
X176288411Y-112550312D01*
X176370589Y-112704058D01*
X176481183Y-112838817D01*
X176514956Y-112866534D01*
X178173470Y-114525049D01*
X178201183Y-114558817D01*
X178234951Y-114586530D01*
X178234953Y-114586532D01*
X178285606Y-114628102D01*
X178335941Y-114669411D01*
X178489687Y-114751589D01*
X178656510Y-114802195D01*
X178786523Y-114815000D01*
X178786533Y-114815000D01*
X178829999Y-114819281D01*
X178873465Y-114815000D01*
X183393422Y-114815000D01*
X183587275Y-115008854D01*
X183601423Y-115152499D01*
X183666324Y-115366447D01*
X183702796Y-115434682D01*
X183672580Y-115448963D01*
X183446586Y-115616481D01*
X183257615Y-115824869D01*
X183112930Y-116066119D01*
X183018091Y-116330960D01*
X183139376Y-116553000D01*
X184283000Y-116553000D01*
X184283000Y-116533000D01*
X184537000Y-116533000D01*
X184537000Y-116553000D01*
X186823000Y-116553000D01*
X186823000Y-116533000D01*
X187077000Y-116533000D01*
X187077000Y-116553000D01*
X188220624Y-116553000D01*
X188341909Y-116330960D01*
X188247070Y-116066119D01*
X188246399Y-116065000D01*
X188499868Y-116065000D01*
X189215001Y-116780133D01*
X189215000Y-118284248D01*
X189209509Y-118340000D01*
X189216624Y-118412236D01*
X189231423Y-118562498D01*
X189296324Y-118776446D01*
X189401716Y-118973623D01*
X189543551Y-119146449D01*
X189586864Y-119181996D01*
X190648008Y-120243140D01*
X190683551Y-120286449D01*
X190856377Y-120428284D01*
X191053553Y-120533676D01*
X191267501Y-120598577D01*
X191434248Y-120615000D01*
X191434257Y-120615000D01*
X191489999Y-120620490D01*
X191545741Y-120615000D01*
X200229869Y-120615000D01*
X200836856Y-121221988D01*
X200836861Y-121221992D01*
X201318008Y-121703140D01*
X201353551Y-121746449D01*
X201526377Y-121888284D01*
X201553584Y-121902826D01*
X201599044Y-122052686D01*
X201692661Y-122227833D01*
X201818650Y-122381350D01*
X201933000Y-122475195D01*
X201933000Y-124690000D01*
X201935440Y-124714776D01*
X201942667Y-124738601D01*
X201954403Y-124760557D01*
X201970197Y-124779803D01*
X201989443Y-124795597D01*
X202011399Y-124807333D01*
X202035224Y-124814560D01*
X202060000Y-124817000D01*
X209910000Y-124817000D01*
X209934776Y-124814560D01*
X209958601Y-124807333D01*
X209980557Y-124795597D01*
X209999803Y-124779803D01*
X210015597Y-124760557D01*
X210027333Y-124738601D01*
X210034560Y-124714776D01*
X210037000Y-124690000D01*
X210037000Y-122566580D01*
X210147833Y-122507339D01*
X210301350Y-122381350D01*
X210427339Y-122227833D01*
X210520956Y-122052686D01*
X210578606Y-121862641D01*
X210598072Y-121665000D01*
X210598072Y-121203506D01*
X211744536Y-120057043D01*
X211759744Y-120067205D01*
X211948102Y-120145226D01*
X212148061Y-120185000D01*
X212351939Y-120185000D01*
X212551898Y-120145226D01*
X212740256Y-120067205D01*
X212909774Y-119953937D01*
X213053937Y-119809774D01*
X213167205Y-119640256D01*
X213245226Y-119451898D01*
X213285000Y-119251939D01*
X213285000Y-119048061D01*
X213245226Y-118848102D01*
X213167205Y-118659744D01*
X213053937Y-118490226D01*
X212909774Y-118346063D01*
X212740256Y-118232795D01*
X212551898Y-118154774D01*
X212351939Y-118115000D01*
X212148061Y-118115000D01*
X211948102Y-118154774D01*
X211759744Y-118232795D01*
X211711546Y-118265000D01*
X211443465Y-118265000D01*
X211399999Y-118260719D01*
X211356533Y-118265000D01*
X211356523Y-118265000D01*
X211226510Y-118277805D01*
X211059687Y-118328411D01*
X210905941Y-118410589D01*
X210893604Y-118420714D01*
X210804953Y-118493468D01*
X210804951Y-118493470D01*
X210771183Y-118521183D01*
X210743470Y-118554951D01*
X210033328Y-119265094D01*
X210016844Y-117585000D01*
X219532165Y-117585000D01*
X219575634Y-117589281D01*
X219619103Y-117585000D01*
X219619111Y-117585000D01*
X219749124Y-117572195D01*
X219915947Y-117521589D01*
X220069693Y-117439411D01*
X220204451Y-117328817D01*
X220232168Y-117295044D01*
X221805049Y-115722164D01*
X221838817Y-115694451D01*
X221912644Y-115604494D01*
X221949411Y-115559693D01*
X222031589Y-115405948D01*
X222082195Y-115239124D01*
X222083094Y-115229998D01*
X222095000Y-115109111D01*
X222095000Y-115109103D01*
X222099281Y-115065634D01*
X222095000Y-115022165D01*
X222095000Y-115005329D01*
X222315998Y-114857663D01*
X222557663Y-114615998D01*
X222747537Y-114331831D01*
X222878325Y-114016081D01*
X222945000Y-113680883D01*
X222945000Y-113339117D01*
X223285000Y-113339117D01*
X223285000Y-113680883D01*
X223351675Y-114016081D01*
X223482463Y-114331831D01*
X223672337Y-114615998D01*
X223914002Y-114857663D01*
X224198169Y-115047537D01*
X224513919Y-115178325D01*
X224849117Y-115245000D01*
X225190883Y-115245000D01*
X225526081Y-115178325D01*
X225841831Y-115047537D01*
X226125998Y-114857663D01*
X226367663Y-114615998D01*
X226557537Y-114331831D01*
X226688325Y-114016081D01*
X226755000Y-113680883D01*
X226755000Y-113339117D01*
X226688325Y-113003919D01*
X226557537Y-112688169D01*
X226367663Y-112404002D01*
X226155000Y-112191339D01*
X226155000Y-108039543D01*
X226171195Y-108000445D01*
X226220000Y-107755084D01*
X226220000Y-107504916D01*
X226171195Y-107259555D01*
X226075459Y-107028429D01*
X225936473Y-106820422D01*
X225759578Y-106643527D01*
X225551571Y-106504541D01*
X225320445Y-106408805D01*
X225075084Y-106360000D01*
X224824916Y-106360000D01*
X224579555Y-106408805D01*
X224348429Y-106504541D01*
X224140422Y-106643527D01*
X223963527Y-106820422D01*
X223824541Y-107028429D01*
X223728805Y-107259555D01*
X223680000Y-107504916D01*
X223680000Y-107755084D01*
X223728805Y-108000445D01*
X223824541Y-108231571D01*
X223885001Y-108322056D01*
X223885000Y-112191339D01*
X223672337Y-112404002D01*
X223482463Y-112688169D01*
X223351675Y-113003919D01*
X223285000Y-113339117D01*
X222945000Y-113339117D01*
X222878325Y-113003919D01*
X222747537Y-112688169D01*
X222557663Y-112404002D01*
X222315998Y-112162337D01*
X222031831Y-111972463D01*
X221716081Y-111841675D01*
X221380883Y-111775000D01*
X221039117Y-111775000D01*
X220703919Y-111841675D01*
X220388169Y-111972463D01*
X220104002Y-112162337D01*
X219862337Y-112404002D01*
X219672463Y-112688169D01*
X219541675Y-113003919D01*
X219475000Y-113339117D01*
X219475000Y-113680883D01*
X219541675Y-114016081D01*
X219672463Y-114331831D01*
X219862337Y-114615998D01*
X220104002Y-114857663D01*
X220141402Y-114882653D01*
X219209056Y-115815000D01*
X207887353Y-115815000D01*
X207897205Y-115800256D01*
X207975226Y-115611898D01*
X208015000Y-115411939D01*
X208015000Y-115349801D01*
X210586013Y-112778789D01*
X210615011Y-112754991D01*
X210647645Y-112715226D01*
X210709984Y-112639267D01*
X210780556Y-112507237D01*
X210783867Y-112496323D01*
X210824013Y-112363976D01*
X210835010Y-112252323D01*
X210835010Y-112252314D01*
X210838686Y-112214991D01*
X210835010Y-112177668D01*
X210835010Y-108187324D01*
X210838687Y-108149992D01*
X210835010Y-108112659D01*
X210835010Y-106733703D01*
X210878947Y-106689766D01*
X210992215Y-106520248D01*
X211070236Y-106331890D01*
X211110010Y-106131931D01*
X211110010Y-105928053D01*
X211105408Y-105904916D01*
X218580000Y-105904916D01*
X218580000Y-106155084D01*
X218628805Y-106400445D01*
X218724541Y-106631571D01*
X218863527Y-106839578D01*
X219040422Y-107016473D01*
X219248429Y-107155459D01*
X219479555Y-107251195D01*
X219724916Y-107300000D01*
X219975084Y-107300000D01*
X220220445Y-107251195D01*
X220451571Y-107155459D01*
X220659578Y-107016473D01*
X220836473Y-106839578D01*
X220975459Y-106631571D01*
X221071195Y-106400445D01*
X221120000Y-106155084D01*
X221120000Y-105904916D01*
X221071195Y-105659555D01*
X220975459Y-105428429D01*
X220836473Y-105220422D01*
X220659578Y-105043527D01*
X220451571Y-104904541D01*
X220220445Y-104808805D01*
X219975084Y-104760000D01*
X219724916Y-104760000D01*
X219479555Y-104808805D01*
X219248429Y-104904541D01*
X219040422Y-105043527D01*
X218863527Y-105220422D01*
X218724541Y-105428429D01*
X218628805Y-105659555D01*
X218580000Y-105904916D01*
X211105408Y-105904916D01*
X211070236Y-105728094D01*
X210992215Y-105539736D01*
X210878947Y-105370218D01*
X210734784Y-105226055D01*
X210565266Y-105112787D01*
X210376908Y-105034766D01*
X210176949Y-104994992D01*
X209973071Y-104994992D01*
X209773112Y-105034766D01*
X209584754Y-105112787D01*
X209415236Y-105226055D01*
X209271073Y-105370218D01*
X209157805Y-105539736D01*
X209079784Y-105728094D01*
X209040010Y-105928053D01*
X209040010Y-106131931D01*
X209079784Y-106331890D01*
X209157805Y-106520248D01*
X209271073Y-106689766D01*
X209315011Y-106733704D01*
X209315010Y-107389992D01*
X205335993Y-107389992D01*
X205310256Y-107372795D01*
X205121898Y-107294774D01*
X204921939Y-107255000D01*
X204718061Y-107255000D01*
X204518102Y-107294774D01*
X204329744Y-107372795D01*
X204160226Y-107486063D01*
X204016063Y-107630226D01*
X203902795Y-107799744D01*
X203824774Y-107988102D01*
X203785000Y-108188061D01*
X203785000Y-108391939D01*
X203824774Y-108591898D01*
X203902795Y-108780256D01*
X204016063Y-108949774D01*
X204160226Y-109093937D01*
X204329744Y-109207205D01*
X204518102Y-109285226D01*
X204718061Y-109325000D01*
X204921939Y-109325000D01*
X205121898Y-109285226D01*
X205310256Y-109207205D01*
X205479774Y-109093937D01*
X205623937Y-108949774D01*
X205650518Y-108909992D01*
X209315010Y-108909992D01*
X209315011Y-111900187D01*
X209220670Y-111994528D01*
X209255000Y-111821939D01*
X209255000Y-111618061D01*
X209215226Y-111418102D01*
X209137205Y-111229744D01*
X209023937Y-111060226D01*
X208879774Y-110916063D01*
X208710256Y-110802795D01*
X208521898Y-110724774D01*
X208321939Y-110685000D01*
X208118061Y-110685000D01*
X207918102Y-110724774D01*
X207729744Y-110802795D01*
X207560226Y-110916063D01*
X207431289Y-111045000D01*
X203575000Y-111045000D01*
X203575000Y-108543469D01*
X203579281Y-108500000D01*
X203575000Y-108456531D01*
X203575000Y-108456523D01*
X203563652Y-108341306D01*
X203562195Y-108326509D01*
X203520196Y-108188061D01*
X203511589Y-108159687D01*
X203429411Y-108005941D01*
X203379436Y-107945047D01*
X203346532Y-107904953D01*
X203346530Y-107904951D01*
X203318817Y-107871183D01*
X203285049Y-107843470D01*
X201416535Y-105974957D01*
X201405226Y-105918102D01*
X201327205Y-105729744D01*
X201213937Y-105560226D01*
X201069774Y-105416063D01*
X200900256Y-105302795D01*
X200711898Y-105224774D01*
X200511939Y-105185000D01*
X200308061Y-105185000D01*
X200108102Y-105224774D01*
X199919744Y-105302795D01*
X199750226Y-105416063D01*
X199606063Y-105560226D01*
X199492795Y-105729744D01*
X199414774Y-105918102D01*
X199375000Y-106118061D01*
X199375000Y-106321939D01*
X199414774Y-106521898D01*
X199492795Y-106710256D01*
X199606063Y-106879774D01*
X199750226Y-107023937D01*
X199919744Y-107137205D01*
X200108102Y-107215226D01*
X200164957Y-107226535D01*
X201805001Y-108866580D01*
X201805000Y-110974257D01*
X201778411Y-111024002D01*
X201727805Y-111190825D01*
X201715000Y-111320838D01*
X201715000Y-111320846D01*
X201710719Y-111364315D01*
X201713606Y-111393632D01*
X201682795Y-111439744D01*
X201604774Y-111628102D01*
X201593465Y-111684956D01*
X201273422Y-112005000D01*
X201223465Y-112005000D01*
X201179999Y-112000719D01*
X201136533Y-112005000D01*
X201136523Y-112005000D01*
X201006510Y-112017805D01*
X200839687Y-112068411D01*
X200685941Y-112150589D01*
X200685939Y-112150590D01*
X200685940Y-112150590D01*
X200584953Y-112233468D01*
X200584951Y-112233470D01*
X200551183Y-112261183D01*
X200523470Y-112294951D01*
X200127000Y-112691422D01*
X200127000Y-110320000D01*
X200124560Y-110295224D01*
X200117333Y-110271399D01*
X200105597Y-110249443D01*
X200089803Y-110230197D01*
X200070557Y-110214403D01*
X200048601Y-110202667D01*
X200024776Y-110195440D01*
X200000000Y-110193000D01*
X191520000Y-110193000D01*
X191495224Y-110195440D01*
X191471399Y-110202667D01*
X191449443Y-110214403D01*
X191430197Y-110230197D01*
X191414403Y-110249443D01*
X191402667Y-110271399D01*
X191395440Y-110295224D01*
X191393000Y-110320000D01*
X191393000Y-115853579D01*
X191298284Y-115676377D01*
X191263454Y-115633937D01*
X191191989Y-115546856D01*
X191191987Y-115546854D01*
X191156449Y-115503551D01*
X191113146Y-115468013D01*
X189811995Y-114166864D01*
X189776449Y-114123551D01*
X189603623Y-113981716D01*
X189406447Y-113876324D01*
X189192499Y-113811423D01*
X189025752Y-113795000D01*
X189025751Y-113795000D01*
X188970000Y-113789509D01*
X188914249Y-113795000D01*
X184876579Y-113795000D01*
X184416534Y-113334956D01*
X184388817Y-113301183D01*
X184254059Y-113190589D01*
X184100313Y-113108411D01*
X183933490Y-113057805D01*
X183803477Y-113045000D01*
X183803469Y-113045000D01*
X183760000Y-113040719D01*
X183716531Y-113045000D01*
X179196579Y-113045000D01*
X177995000Y-111843422D01*
X177995000Y-110761957D01*
X178044463Y-110854494D01*
X178123815Y-110951185D01*
X178220506Y-111030537D01*
X178330820Y-111089502D01*
X178450518Y-111125812D01*
X178575000Y-111138072D01*
X178776750Y-111135000D01*
X178935500Y-110976250D01*
X178935500Y-109927000D01*
X178915500Y-109927000D01*
X178915500Y-109673000D01*
X178935500Y-109673000D01*
X178935500Y-108623750D01*
X178776750Y-108465000D01*
X178575000Y-108461928D01*
X178450518Y-108474188D01*
X178330820Y-108510498D01*
X178220506Y-108569463D01*
X178123815Y-108648815D01*
X178044463Y-108745506D01*
X177995000Y-108838043D01*
X177995000Y-107903469D01*
X177999281Y-107860000D01*
X177995000Y-107816531D01*
X177995000Y-107816523D01*
X177982195Y-107686510D01*
X177981733Y-107684985D01*
X177958983Y-107609991D01*
X177931589Y-107519687D01*
X177849411Y-107365941D01*
X177738817Y-107231183D01*
X177705044Y-107203466D01*
X177606535Y-107104957D01*
X177595226Y-107048102D01*
X177517205Y-106859744D01*
X177403937Y-106690226D01*
X177259774Y-106546063D01*
X177090256Y-106432795D01*
X176901898Y-106354774D01*
X176701939Y-106315000D01*
X176498061Y-106315000D01*
X176298102Y-106354774D01*
X176109744Y-106432795D01*
X175940226Y-106546063D01*
X175796063Y-106690226D01*
X175682795Y-106859744D01*
X175604774Y-107048102D01*
X175593465Y-107104956D01*
X172333422Y-110365000D01*
X167538446Y-110365000D01*
X167490248Y-110332795D01*
X167301890Y-110254774D01*
X167101931Y-110215000D01*
X166985011Y-110215000D01*
X166985011Y-106337344D01*
X166988688Y-106300011D01*
X166979823Y-106209999D01*
X166974014Y-106151025D01*
X166930557Y-106007764D01*
X166859985Y-105875735D01*
X166765012Y-105760010D01*
X166736009Y-105736208D01*
X166488804Y-105489003D01*
X166465001Y-105459999D01*
X166349276Y-105365026D01*
X166217247Y-105294454D01*
X166150382Y-105274171D01*
X166136211Y-105260000D01*
X169087470Y-105260000D01*
X169003750Y-105416629D01*
X168939307Y-105629069D01*
X168917547Y-105850000D01*
X168917547Y-108350000D01*
X168939307Y-108570931D01*
X169003750Y-108783371D01*
X169108400Y-108979157D01*
X169249235Y-109150765D01*
X169420843Y-109291600D01*
X169616629Y-109396250D01*
X169829069Y-109460693D01*
X170050000Y-109482453D01*
X172550000Y-109482453D01*
X172770931Y-109460693D01*
X172983371Y-109396250D01*
X173179157Y-109291600D01*
X173350765Y-109150765D01*
X173491600Y-108979157D01*
X173596250Y-108783371D01*
X173660693Y-108570931D01*
X173682453Y-108350000D01*
X173682453Y-105850000D01*
X173660693Y-105629069D01*
X173596250Y-105416629D01*
X173512530Y-105260000D01*
X179208199Y-105260000D01*
X180177500Y-106229302D01*
X180177501Y-108632155D01*
X180070208Y-108720208D01*
X180064992Y-108726564D01*
X180001185Y-108648815D01*
X179904494Y-108569463D01*
X179794180Y-108510498D01*
X179674482Y-108474188D01*
X179550000Y-108461928D01*
X179348250Y-108465000D01*
X179189500Y-108623750D01*
X179189500Y-109673000D01*
X179209500Y-109673000D01*
X179209500Y-109927000D01*
X179189500Y-109927000D01*
X179189500Y-110976250D01*
X179348250Y-111135000D01*
X179550000Y-111138072D01*
X179674482Y-111125812D01*
X179794180Y-111089502D01*
X179904494Y-111030537D01*
X180001185Y-110951185D01*
X180064992Y-110873436D01*
X180070208Y-110879792D01*
X180203836Y-110989458D01*
X180356291Y-111070947D01*
X180521715Y-111121128D01*
X180693750Y-111138072D01*
X181181250Y-111138072D01*
X181353285Y-111121128D01*
X181518709Y-111070947D01*
X181671164Y-110989458D01*
X181804792Y-110879792D01*
X181914458Y-110746164D01*
X181995947Y-110593709D01*
X182024373Y-110500000D01*
X185936928Y-110500000D01*
X185949188Y-110624482D01*
X185985498Y-110744180D01*
X186044463Y-110854494D01*
X186123815Y-110951185D01*
X186220506Y-111030537D01*
X186330820Y-111089502D01*
X186450518Y-111125812D01*
X186575000Y-111138072D01*
X186776750Y-111135000D01*
X186935500Y-110976250D01*
X186935500Y-109927000D01*
X186098750Y-109927000D01*
X185940000Y-110085750D01*
X185936928Y-110500000D01*
X182024373Y-110500000D01*
X182046128Y-110428285D01*
X182063072Y-110256250D01*
X182063072Y-109343750D01*
X182046128Y-109171715D01*
X182024374Y-109100000D01*
X185936928Y-109100000D01*
X185940000Y-109514250D01*
X186098750Y-109673000D01*
X186935500Y-109673000D01*
X186935500Y-108623750D01*
X186776750Y-108465000D01*
X186575000Y-108461928D01*
X186450518Y-108474188D01*
X186330820Y-108510498D01*
X186220506Y-108569463D01*
X186123815Y-108648815D01*
X186044463Y-108745506D01*
X185985498Y-108855820D01*
X185949188Y-108975518D01*
X185936928Y-109100000D01*
X182024374Y-109100000D01*
X181995947Y-109006291D01*
X181914458Y-108853836D01*
X181804792Y-108720208D01*
X181697500Y-108632155D01*
X181697500Y-105951822D01*
X181701176Y-105914499D01*
X181697500Y-105877176D01*
X181697500Y-105877167D01*
X181686503Y-105765514D01*
X181643046Y-105622253D01*
X181628193Y-105594465D01*
X181572474Y-105490223D01*
X181501299Y-105403497D01*
X181477501Y-105374499D01*
X181448504Y-105350702D01*
X180568801Y-104471000D01*
X188166199Y-104471000D01*
X188177501Y-104482302D01*
X188177500Y-108632155D01*
X188070208Y-108720208D01*
X188064992Y-108726564D01*
X188001185Y-108648815D01*
X187904494Y-108569463D01*
X187794180Y-108510498D01*
X187674482Y-108474188D01*
X187550000Y-108461928D01*
X187348250Y-108465000D01*
X187189500Y-108623750D01*
X187189500Y-109673000D01*
X187209500Y-109673000D01*
X187209500Y-109927000D01*
X187189500Y-109927000D01*
X187189500Y-110976250D01*
X187348250Y-111135000D01*
X187550000Y-111138072D01*
X187674482Y-111125812D01*
X187794180Y-111089502D01*
X187904494Y-111030537D01*
X188001185Y-110951185D01*
X188064992Y-110873436D01*
X188070208Y-110879792D01*
X188203836Y-110989458D01*
X188356291Y-111070947D01*
X188521715Y-111121128D01*
X188693750Y-111138072D01*
X189181250Y-111138072D01*
X189353285Y-111121128D01*
X189518709Y-111070947D01*
X189671164Y-110989458D01*
X189804792Y-110879792D01*
X189914458Y-110746164D01*
X189995947Y-110593709D01*
X190046128Y-110428285D01*
X190063072Y-110256250D01*
X190063072Y-109343750D01*
X190046128Y-109171715D01*
X189995947Y-109006291D01*
X189914458Y-108853836D01*
X189804792Y-108720208D01*
X189697500Y-108632155D01*
X189697500Y-105850000D01*
X194367547Y-105850000D01*
X194367547Y-108350000D01*
X194389307Y-108570931D01*
X194453750Y-108783371D01*
X194558400Y-108979157D01*
X194699235Y-109150765D01*
X194870843Y-109291600D01*
X195066629Y-109396250D01*
X195279069Y-109460693D01*
X195500000Y-109482453D01*
X198000000Y-109482453D01*
X198220931Y-109460693D01*
X198433371Y-109396250D01*
X198629157Y-109291600D01*
X198800765Y-109150765D01*
X198941600Y-108979157D01*
X199046250Y-108783371D01*
X199110693Y-108570931D01*
X199132453Y-108350000D01*
X199132453Y-105850000D01*
X199110693Y-105629069D01*
X199046250Y-105416629D01*
X198941600Y-105220843D01*
X198800765Y-105049235D01*
X198629157Y-104908400D01*
X198433371Y-104803750D01*
X198220931Y-104739307D01*
X198000000Y-104717547D01*
X195500000Y-104717547D01*
X195279069Y-104739307D01*
X195066629Y-104803750D01*
X194870843Y-104908400D01*
X194699235Y-105049235D01*
X194558400Y-105220843D01*
X194453750Y-105416629D01*
X194389307Y-105629069D01*
X194367547Y-105850000D01*
X189697500Y-105850000D01*
X189697500Y-104204822D01*
X189701176Y-104167499D01*
X189697500Y-104130176D01*
X189697500Y-104130167D01*
X189686503Y-104018514D01*
X189643046Y-103875253D01*
X189572474Y-103743224D01*
X189477501Y-103627499D01*
X189448502Y-103603700D01*
X189044803Y-103200002D01*
X189021001Y-103170999D01*
X188905276Y-103076026D01*
X188773247Y-103005454D01*
X188629986Y-102961997D01*
X188518333Y-102951000D01*
X188518322Y-102951000D01*
X188481000Y-102947324D01*
X188443678Y-102951000D01*
X164576323Y-102951000D01*
X164539000Y-102947324D01*
X164501677Y-102951000D01*
X164501667Y-102951000D01*
X164390014Y-102961997D01*
X164246753Y-103005454D01*
X164114723Y-103076026D01*
X164031083Y-103144668D01*
X163998999Y-103170999D01*
X163975201Y-103199997D01*
X163460199Y-103715000D01*
X163398061Y-103715000D01*
X163198102Y-103754774D01*
X163009744Y-103832795D01*
X162840226Y-103946063D01*
X162696063Y-104090226D01*
X162582795Y-104259744D01*
X162504774Y-104448102D01*
X162465000Y-104648061D01*
X162465000Y-104851939D01*
X162504774Y-105051898D01*
X162582795Y-105240256D01*
X162696063Y-105409774D01*
X162840226Y-105553937D01*
X163009744Y-105667205D01*
X163198102Y-105745226D01*
X163240001Y-105753560D01*
X163240000Y-107046289D01*
X163196063Y-107090226D01*
X163082795Y-107259744D01*
X163004774Y-107448102D01*
X162965000Y-107648061D01*
X162965000Y-107851939D01*
X163004774Y-108051898D01*
X163082795Y-108240256D01*
X163196063Y-108409774D01*
X163340226Y-108553937D01*
X163509744Y-108667205D01*
X163698102Y-108745226D01*
X163898061Y-108785000D01*
X164101939Y-108785000D01*
X164301898Y-108745226D01*
X164490256Y-108667205D01*
X164659774Y-108553937D01*
X164803937Y-108409774D01*
X164917205Y-108240256D01*
X164995226Y-108051898D01*
X165035000Y-107851939D01*
X165035000Y-107648061D01*
X164995226Y-107448102D01*
X164917205Y-107259744D01*
X164803937Y-107090226D01*
X164760000Y-107046289D01*
X164760000Y-106808797D01*
X164922244Y-106917205D01*
X165110602Y-106995226D01*
X165310561Y-107035000D01*
X165465011Y-107035000D01*
X165465011Y-108215000D01*
X165398071Y-108215000D01*
X165198112Y-108254774D01*
X165009754Y-108332795D01*
X164840236Y-108446063D01*
X164696073Y-108590226D01*
X164582805Y-108759744D01*
X164504784Y-108948102D01*
X164465010Y-109148061D01*
X164465010Y-109351939D01*
X164504784Y-109551898D01*
X164582805Y-109740256D01*
X164696073Y-109909774D01*
X164740010Y-109953711D01*
X164740011Y-111712678D01*
X164736334Y-111750010D01*
X164740011Y-111787343D01*
X164751008Y-111898996D01*
X164754349Y-111910010D01*
X164794464Y-112042256D01*
X164865036Y-112174286D01*
X164930027Y-112253477D01*
X164960010Y-112290011D01*
X164989008Y-112313809D01*
X165636212Y-112961013D01*
X165660010Y-112990012D01*
X165689008Y-113013810D01*
X165775734Y-113084985D01*
X165884365Y-113143050D01*
X165907764Y-113155557D01*
X166051025Y-113199014D01*
X166162678Y-113210011D01*
X166162688Y-113210011D01*
X166200011Y-113213687D01*
X166237334Y-113210011D01*
X168465000Y-113210011D01*
X168465000Y-113401939D01*
X168504774Y-113601898D01*
X168582795Y-113790256D01*
X168696063Y-113959774D01*
X168840226Y-114103937D01*
X168853490Y-114112799D01*
X168796063Y-114170226D01*
X168682795Y-114339744D01*
X168604774Y-114528102D01*
X168565000Y-114728061D01*
X168565000Y-114931939D01*
X168604774Y-115131898D01*
X168682795Y-115320256D01*
X168796063Y-115489774D01*
X168940226Y-115633937D01*
X169109744Y-115747205D01*
X169298102Y-115825226D01*
X169498061Y-115865000D01*
X169560199Y-115865000D01*
X170260187Y-116564988D01*
X160600484Y-116564988D01*
X160589654Y-116554158D01*
X160565851Y-116525154D01*
X160450126Y-116430181D01*
X160318097Y-116359609D01*
X160174889Y-116316168D01*
X160119939Y-116261218D01*
X159950421Y-116147950D01*
X159762063Y-116069929D01*
X159562104Y-116030155D01*
X159358226Y-116030155D01*
X159158267Y-116069929D01*
X158969909Y-116147950D01*
X158800391Y-116261218D01*
X158656228Y-116405381D01*
X158598841Y-116491267D01*
X158595226Y-116473092D01*
X158517205Y-116284734D01*
X158403937Y-116115216D01*
X158259774Y-115971053D01*
X158090256Y-115857785D01*
X157901898Y-115779764D01*
X157701939Y-115739990D01*
X157498061Y-115739990D01*
X157298102Y-115779764D01*
X157109744Y-115857785D01*
X156940226Y-115971053D01*
X156796063Y-116115216D01*
X156682795Y-116284734D01*
X156604774Y-116473092D01*
X156565000Y-116673051D01*
X156565000Y-116876929D01*
X156604774Y-117076888D01*
X156682795Y-117265246D01*
X156796063Y-117434764D01*
X156940226Y-117578927D01*
X157109744Y-117692195D01*
X157298102Y-117770216D01*
X157498061Y-117809990D01*
X157560199Y-117809990D01*
X158051366Y-118301158D01*
X158075165Y-118330157D01*
X158190890Y-118425130D01*
X158322919Y-118495702D01*
X158466180Y-118539159D01*
X158518022Y-118544265D01*
X158615166Y-118553833D01*
X158646454Y-118550751D01*
X158645000Y-118558061D01*
X158645000Y-118761939D01*
X158684774Y-118961898D01*
X158762795Y-119150256D01*
X158852828Y-119285000D01*
X156523469Y-119285000D01*
X156480000Y-119280719D01*
X156436531Y-119285000D01*
X156436523Y-119285000D01*
X156306510Y-119297805D01*
X156139686Y-119348411D01*
X156071250Y-119384991D01*
X156016066Y-119414487D01*
X155606534Y-119004956D01*
X155578817Y-118971183D01*
X155444059Y-118860589D01*
X155290313Y-118778411D01*
X155123490Y-118727805D01*
X154993477Y-118715000D01*
X154993469Y-118715000D01*
X154950000Y-118710719D01*
X154906531Y-118715000D01*
X147843465Y-118715000D01*
X147799999Y-118710719D01*
X147756533Y-118715000D01*
X147756523Y-118715000D01*
X147626510Y-118727805D01*
X147459687Y-118778411D01*
X147305941Y-118860589D01*
X147282302Y-118879989D01*
X147204953Y-118943468D01*
X147204951Y-118943470D01*
X147171183Y-118971183D01*
X147143470Y-119004951D01*
X146504957Y-119643465D01*
X146448102Y-119654774D01*
X146259744Y-119732795D01*
X146090226Y-119846063D01*
X145946063Y-119990226D01*
X145832795Y-120159744D01*
X145754774Y-120348102D01*
X145715000Y-120548061D01*
X140660000Y-120548061D01*
X140660000Y-109000000D01*
X144051928Y-109000000D01*
X144051928Y-111000000D01*
X144064188Y-111124482D01*
X144100498Y-111244180D01*
X144159463Y-111354494D01*
X144238815Y-111451185D01*
X144335506Y-111530537D01*
X144445820Y-111589502D01*
X144565518Y-111625812D01*
X144690000Y-111638072D01*
X146690000Y-111638072D01*
X146814482Y-111625812D01*
X146934180Y-111589502D01*
X147044494Y-111530537D01*
X147141185Y-111451185D01*
X147220537Y-111354494D01*
X147279502Y-111244180D01*
X147315812Y-111124482D01*
X147328072Y-111000000D01*
X147328072Y-109829117D01*
X147765000Y-109829117D01*
X147765000Y-110170883D01*
X147831675Y-110506081D01*
X147962463Y-110821831D01*
X148152337Y-111105998D01*
X148394002Y-111347663D01*
X148678169Y-111537537D01*
X148993919Y-111668325D01*
X149329117Y-111735000D01*
X149670883Y-111735000D01*
X150006081Y-111668325D01*
X150067912Y-111642714D01*
X150836201Y-112411003D01*
X150859999Y-112440001D01*
X150975724Y-112534974D01*
X151107753Y-112605546D01*
X151251014Y-112649003D01*
X151362667Y-112660000D01*
X151362675Y-112660000D01*
X151400000Y-112663676D01*
X151437325Y-112660000D01*
X158846557Y-112660000D01*
X158883879Y-112663676D01*
X158921201Y-112660000D01*
X158921212Y-112660000D01*
X159032865Y-112649003D01*
X159176126Y-112605546D01*
X159308155Y-112534974D01*
X159423880Y-112440001D01*
X159447682Y-112410998D01*
X159885868Y-111972814D01*
X159948004Y-111972814D01*
X160147963Y-111933040D01*
X160336321Y-111855019D01*
X160505839Y-111741751D01*
X160650002Y-111597588D01*
X160763270Y-111428070D01*
X160841291Y-111239712D01*
X160881065Y-111039753D01*
X160881065Y-110835875D01*
X160841291Y-110635916D01*
X160763270Y-110447558D01*
X160650002Y-110278040D01*
X160550470Y-110178508D01*
X160577756Y-110167205D01*
X160747274Y-110053937D01*
X160891437Y-109909774D01*
X161004705Y-109740256D01*
X161082726Y-109551898D01*
X161122500Y-109351939D01*
X161122500Y-109148061D01*
X161106022Y-109065220D01*
X161110000Y-109024833D01*
X161110000Y-109024824D01*
X161113676Y-108987501D01*
X161110000Y-108950178D01*
X161110000Y-108134132D01*
X161150000Y-108138072D01*
X162150000Y-108138072D01*
X162274482Y-108125812D01*
X162394180Y-108089502D01*
X162504494Y-108030537D01*
X162601185Y-107951185D01*
X162680537Y-107854494D01*
X162739502Y-107744180D01*
X162775812Y-107624482D01*
X162788072Y-107500000D01*
X162788072Y-106000000D01*
X162775812Y-105875518D01*
X162739502Y-105755820D01*
X162680537Y-105645506D01*
X162601185Y-105548815D01*
X162504494Y-105469463D01*
X162394180Y-105410498D01*
X162317923Y-105387366D01*
X162284974Y-105325724D01*
X162190001Y-105209999D01*
X162161001Y-105186199D01*
X162138801Y-105163999D01*
X162115000Y-105134998D01*
X161999275Y-105040025D01*
X161867246Y-104969453D01*
X161723985Y-104925996D01*
X161612332Y-104914999D01*
X161612321Y-104914999D01*
X161574999Y-104911323D01*
X161537677Y-104914999D01*
X157672323Y-104914999D01*
X157635000Y-104911323D01*
X157597677Y-104914999D01*
X157597668Y-104914999D01*
X157486015Y-104925996D01*
X157357434Y-104965000D01*
X157342754Y-104969453D01*
X157210724Y-105040025D01*
X157127084Y-105108667D01*
X157095000Y-105134998D01*
X157071202Y-105163996D01*
X153877912Y-108357286D01*
X153816081Y-108331675D01*
X153480883Y-108265000D01*
X153139117Y-108265000D01*
X152803919Y-108331675D01*
X152488169Y-108462463D01*
X152204002Y-108652337D01*
X151962337Y-108894002D01*
X151772463Y-109178169D01*
X151641675Y-109493919D01*
X151575000Y-109829117D01*
X151575000Y-110170883D01*
X151641675Y-110506081D01*
X151772463Y-110821831D01*
X151962337Y-111105998D01*
X151996339Y-111140000D01*
X151714802Y-111140000D01*
X151142714Y-110567912D01*
X151168325Y-110506081D01*
X151235000Y-110170883D01*
X151235000Y-109829117D01*
X151168325Y-109493919D01*
X151037537Y-109178169D01*
X150847663Y-108894002D01*
X150605998Y-108652337D01*
X150321831Y-108462463D01*
X150006081Y-108331675D01*
X149670883Y-108265000D01*
X149329117Y-108265000D01*
X148993919Y-108331675D01*
X148678169Y-108462463D01*
X148394002Y-108652337D01*
X148152337Y-108894002D01*
X147962463Y-109178169D01*
X147831675Y-109493919D01*
X147765000Y-109829117D01*
X147328072Y-109829117D01*
X147328072Y-109000000D01*
X147315812Y-108875518D01*
X147279502Y-108755820D01*
X147220537Y-108645506D01*
X147141185Y-108548815D01*
X147044494Y-108469463D01*
X146934180Y-108410498D01*
X146814482Y-108374188D01*
X146690000Y-108361928D01*
X144690000Y-108361928D01*
X144565518Y-108374188D01*
X144445820Y-108410498D01*
X144335506Y-108469463D01*
X144238815Y-108548815D01*
X144159463Y-108645506D01*
X144100498Y-108755820D01*
X144064188Y-108875518D01*
X144051928Y-109000000D01*
X140660000Y-109000000D01*
X140660000Y-103289946D01*
X140830453Y-103006724D01*
X141057856Y-102701375D01*
X141314149Y-102419820D01*
X141596841Y-102164798D01*
X141903213Y-101938761D01*
X142230291Y-101743903D01*
X142574923Y-101582100D01*
X142933774Y-101454918D01*
X143303397Y-101363583D01*
X143680181Y-101308983D01*
X144063636Y-101291500D01*
X179848376Y-101420777D01*
G04 #@! TA.AperFunction,Conductor*
D27*
G36*
X179848376Y-101420777D02*
G01*
X179814592Y-102309174D01*
X179816940Y-102338776D01*
X179824167Y-102362601D01*
X179835903Y-102384557D01*
X179851697Y-102403803D01*
X179870943Y-102419597D01*
X179892899Y-102431333D01*
X179916724Y-102438560D01*
X179941500Y-102441000D01*
X191752500Y-102441000D01*
X191772525Y-102439411D01*
X191796607Y-102433095D01*
X191818994Y-102422202D01*
X191838825Y-102407150D01*
X191855339Y-102388519D01*
X191867901Y-102367024D01*
X191876028Y-102343492D01*
X191879408Y-102318826D01*
X191911902Y-101464358D01*
X226019926Y-101587577D01*
X226401910Y-101607693D01*
X226777012Y-101664621D01*
X227144745Y-101757979D01*
X227501586Y-101886873D01*
X227844089Y-102050056D01*
X228168998Y-102245980D01*
X228473161Y-102472742D01*
X228753690Y-102728190D01*
X229007872Y-103009852D01*
X229233274Y-103315034D01*
X229340001Y-103493830D01*
X229340001Y-124776333D01*
X228957093Y-124393425D01*
X228428558Y-124040270D01*
X227841281Y-123797012D01*
X227217832Y-123673000D01*
X226582168Y-123673000D01*
X225958719Y-123797012D01*
X225371442Y-124040270D01*
X224842907Y-124393425D01*
X224393425Y-124842907D01*
X224040270Y-125371442D01*
X223797012Y-125958719D01*
X223673000Y-126582168D01*
X223673000Y-127217832D01*
X223797012Y-127841281D01*
X224040270Y-128428558D01*
X224393425Y-128957093D01*
X224776332Y-129340000D01*
X145223668Y-129340000D01*
X145606575Y-128957093D01*
X145959730Y-128428558D01*
X146202988Y-127841281D01*
X146327000Y-127217832D01*
X146327000Y-126582168D01*
X146202988Y-125958719D01*
X145959730Y-125371442D01*
X145606575Y-124842907D01*
X145157093Y-124393425D01*
X144628558Y-124040270D01*
X144041281Y-123797012D01*
X143417832Y-123673000D01*
X142782168Y-123673000D01*
X142158719Y-123797012D01*
X141571442Y-124040270D01*
X141042907Y-124393425D01*
X140660000Y-124776332D01*
X140660000Y-120548061D01*
X145715000Y-120548061D01*
X145715000Y-120751939D01*
X145754774Y-120951898D01*
X145832795Y-121140256D01*
X145946063Y-121309774D01*
X146090226Y-121453937D01*
X146259744Y-121567205D01*
X146448102Y-121645226D01*
X146648061Y-121685000D01*
X146851939Y-121685000D01*
X147051898Y-121645226D01*
X147240256Y-121567205D01*
X147409774Y-121453937D01*
X147553937Y-121309774D01*
X147667205Y-121140256D01*
X147745226Y-120951898D01*
X147756535Y-120895043D01*
X148166579Y-120485000D01*
X154583422Y-120485000D01*
X154993465Y-120895044D01*
X155004774Y-120951898D01*
X155082795Y-121140256D01*
X155196063Y-121309774D01*
X155340226Y-121453937D01*
X155509744Y-121567205D01*
X155698102Y-121645226D01*
X155898061Y-121685000D01*
X156101939Y-121685000D01*
X156301898Y-121645226D01*
X156490256Y-121567205D01*
X156659774Y-121453937D01*
X156803937Y-121309774D01*
X156917205Y-121140256D01*
X156952519Y-121055000D01*
X159583422Y-121055000D01*
X159751928Y-121223506D01*
X159751928Y-122310000D01*
X159764188Y-122434482D01*
X159800498Y-122554180D01*
X159859463Y-122664494D01*
X159938815Y-122761185D01*
X160035506Y-122840537D01*
X160145820Y-122899502D01*
X160265518Y-122935812D01*
X160390000Y-122948072D01*
X162090000Y-122948072D01*
X162214482Y-122935812D01*
X162334180Y-122899502D01*
X162444494Y-122840537D01*
X162541185Y-122761185D01*
X162620537Y-122664494D01*
X162679502Y-122554180D01*
X162701513Y-122481620D01*
X162833368Y-122613475D01*
X163076589Y-122775990D01*
X163346842Y-122887932D01*
X163633740Y-122945000D01*
X163926260Y-122945000D01*
X164213158Y-122887932D01*
X164483411Y-122775990D01*
X164726632Y-122613475D01*
X164933475Y-122406632D01*
X165055195Y-122224466D01*
X165124822Y-122341355D01*
X165319731Y-122557588D01*
X165553080Y-122731641D01*
X165815901Y-122856825D01*
X165963110Y-122901476D01*
X166193000Y-122780155D01*
X166193000Y-121587000D01*
X166173000Y-121587000D01*
X166173000Y-121333000D01*
X166193000Y-121333000D01*
X166193000Y-120139845D01*
X165963110Y-120018524D01*
X165815901Y-120063175D01*
X165553080Y-120188359D01*
X165319731Y-120362412D01*
X165124822Y-120578645D01*
X165055195Y-120695534D01*
X164933475Y-120513368D01*
X164726632Y-120306525D01*
X164483411Y-120144010D01*
X164213158Y-120032068D01*
X163926260Y-119975000D01*
X163633740Y-119975000D01*
X163346842Y-120032068D01*
X163076589Y-120144010D01*
X162833368Y-120306525D01*
X162701513Y-120438380D01*
X162679502Y-120365820D01*
X162620537Y-120255506D01*
X162541185Y-120158815D01*
X162444494Y-120079463D01*
X162334180Y-120020498D01*
X162214482Y-119984188D01*
X162090000Y-119971928D01*
X161003506Y-119971928D01*
X160606534Y-119574956D01*
X160578817Y-119541183D01*
X160444059Y-119430589D01*
X160424248Y-119420000D01*
X166506603Y-119420000D01*
X166505000Y-119428061D01*
X166505000Y-119631939D01*
X166544774Y-119831898D01*
X166622795Y-120020256D01*
X166636042Y-120040081D01*
X166447000Y-120139845D01*
X166447000Y-121333000D01*
X166467000Y-121333000D01*
X166467000Y-121587000D01*
X166447000Y-121587000D01*
X166447000Y-122780155D01*
X166676890Y-122901476D01*
X166824099Y-122856825D01*
X167086920Y-122731641D01*
X167320269Y-122557588D01*
X167515178Y-122341355D01*
X167584805Y-122224466D01*
X167706525Y-122406632D01*
X167913368Y-122613475D01*
X168156589Y-122775990D01*
X168426842Y-122887932D01*
X168713740Y-122945000D01*
X169006260Y-122945000D01*
X169293158Y-122887932D01*
X169563411Y-122775990D01*
X169806632Y-122613475D01*
X170013475Y-122406632D01*
X170130000Y-122232240D01*
X170246525Y-122406632D01*
X170453368Y-122613475D01*
X170696589Y-122775990D01*
X170966842Y-122887932D01*
X171253740Y-122945000D01*
X171546260Y-122945000D01*
X171833158Y-122887932D01*
X172103411Y-122775990D01*
X172346632Y-122613475D01*
X172553475Y-122406632D01*
X172670000Y-122232240D01*
X172786525Y-122406632D01*
X172993368Y-122613475D01*
X173236589Y-122775990D01*
X173506842Y-122887932D01*
X173793740Y-122945000D01*
X174086260Y-122945000D01*
X174373158Y-122887932D01*
X174643411Y-122775990D01*
X174886632Y-122613475D01*
X175093475Y-122406632D01*
X175210000Y-122232240D01*
X175326525Y-122406632D01*
X175533368Y-122613475D01*
X175776589Y-122775990D01*
X176046842Y-122887932D01*
X176333740Y-122945000D01*
X176626260Y-122945000D01*
X176913158Y-122887932D01*
X177183411Y-122775990D01*
X177426632Y-122613475D01*
X177633475Y-122406632D01*
X177750000Y-122232240D01*
X177866525Y-122406632D01*
X178073368Y-122613475D01*
X178316589Y-122775990D01*
X178586842Y-122887932D01*
X178873740Y-122945000D01*
X179166260Y-122945000D01*
X179453158Y-122887932D01*
X179723411Y-122775990D01*
X179966632Y-122613475D01*
X180173475Y-122406632D01*
X180335990Y-122163411D01*
X180447932Y-121893158D01*
X180505000Y-121606260D01*
X180505000Y-121313740D01*
X180447932Y-121026842D01*
X180430885Y-120985686D01*
X182971928Y-123526730D01*
X182971928Y-125100000D01*
X182984188Y-125224482D01*
X183020498Y-125344180D01*
X183079463Y-125454494D01*
X183158815Y-125551185D01*
X183255506Y-125630537D01*
X183365820Y-125689502D01*
X183485518Y-125725812D01*
X183610000Y-125738072D01*
X185210000Y-125738072D01*
X185334482Y-125725812D01*
X185454180Y-125689502D01*
X185564494Y-125630537D01*
X185661185Y-125551185D01*
X185740537Y-125454494D01*
X185799502Y-125344180D01*
X185835812Y-125224482D01*
X185836643Y-125216039D01*
X186035241Y-125414637D01*
X186270273Y-125571680D01*
X186531426Y-125679853D01*
X186808665Y-125735000D01*
X187091335Y-125735000D01*
X187368574Y-125679853D01*
X187629727Y-125571680D01*
X187864759Y-125414637D01*
X188064637Y-125214759D01*
X188221680Y-124979727D01*
X188329853Y-124718574D01*
X188385000Y-124441335D01*
X188385000Y-124158665D01*
X188329853Y-123881426D01*
X188221680Y-123620273D01*
X188064637Y-123385241D01*
X187864759Y-123185363D01*
X187629727Y-123028320D01*
X187628951Y-123027999D01*
X187584974Y-122945724D01*
X187490001Y-122829999D01*
X187461003Y-122806201D01*
X182263793Y-117608992D01*
X182239990Y-117579988D01*
X182124265Y-117485015D01*
X181992236Y-117414443D01*
X181848975Y-117370986D01*
X181737322Y-117359989D01*
X181737311Y-117359989D01*
X181699989Y-117356313D01*
X181662667Y-117359989D01*
X178447111Y-117359989D01*
X178116162Y-117029040D01*
X183018091Y-117029040D01*
X183112930Y-117293881D01*
X183257615Y-117535131D01*
X183446586Y-117743519D01*
X183672580Y-117911037D01*
X183926913Y-118031246D01*
X184060961Y-118071904D01*
X184283000Y-117949915D01*
X184283000Y-116807000D01*
X184537000Y-116807000D01*
X184537000Y-117949915D01*
X184759039Y-118071904D01*
X184893087Y-118031246D01*
X185147420Y-117911037D01*
X185373414Y-117743519D01*
X185562385Y-117535131D01*
X185680000Y-117339018D01*
X185797615Y-117535131D01*
X185986586Y-117743519D01*
X186212580Y-117911037D01*
X186466913Y-118031246D01*
X186600961Y-118071904D01*
X186823000Y-117949915D01*
X186823000Y-116807000D01*
X187077000Y-116807000D01*
X187077000Y-117949915D01*
X187299039Y-118071904D01*
X187433087Y-118031246D01*
X187687420Y-117911037D01*
X187913414Y-117743519D01*
X188102385Y-117535131D01*
X188247070Y-117293881D01*
X188341909Y-117029040D01*
X188220624Y-116807000D01*
X187077000Y-116807000D01*
X186823000Y-116807000D01*
X184537000Y-116807000D01*
X184283000Y-116807000D01*
X183139376Y-116807000D01*
X183018091Y-117029040D01*
X178116162Y-117029040D01*
X175330000Y-114242879D01*
X175330000Y-113963711D01*
X175373937Y-113919774D01*
X175487205Y-113750256D01*
X175565226Y-113561898D01*
X175605000Y-113361939D01*
X175605000Y-113158061D01*
X175565226Y-112958102D01*
X175487205Y-112769744D01*
X175373937Y-112600226D01*
X175229774Y-112456063D01*
X175060256Y-112342795D01*
X174871898Y-112264774D01*
X174671939Y-112225000D01*
X174468061Y-112225000D01*
X174268102Y-112264774D01*
X174079744Y-112342795D01*
X173918915Y-112450257D01*
X173909710Y-112441052D01*
X173740192Y-112327784D01*
X173551834Y-112249763D01*
X173351875Y-112209989D01*
X173289738Y-112209989D01*
X173112665Y-112032917D01*
X173194059Y-111989411D01*
X173328817Y-111878817D01*
X173356534Y-111845044D01*
X176225001Y-108976578D01*
X176225000Y-112166531D01*
X176220719Y-112210000D01*
X176225000Y-112253469D01*
X176225000Y-112253476D01*
X176231064Y-112315046D01*
X176237805Y-112383490D01*
X176248958Y-112420256D01*
X176288411Y-112550312D01*
X176370589Y-112704058D01*
X176481183Y-112838817D01*
X176514956Y-112866534D01*
X178173470Y-114525049D01*
X178201183Y-114558817D01*
X178234951Y-114586530D01*
X178234953Y-114586532D01*
X178285606Y-114628102D01*
X178335941Y-114669411D01*
X178489687Y-114751589D01*
X178656510Y-114802195D01*
X178786523Y-114815000D01*
X178786533Y-114815000D01*
X178829999Y-114819281D01*
X178873465Y-114815000D01*
X183393422Y-114815000D01*
X183587275Y-115008854D01*
X183601423Y-115152499D01*
X183666324Y-115366447D01*
X183702796Y-115434682D01*
X183672580Y-115448963D01*
X183446586Y-115616481D01*
X183257615Y-115824869D01*
X183112930Y-116066119D01*
X183018091Y-116330960D01*
X183139376Y-116553000D01*
X184283000Y-116553000D01*
X184283000Y-116533000D01*
X184537000Y-116533000D01*
X184537000Y-116553000D01*
X186823000Y-116553000D01*
X186823000Y-116533000D01*
X187077000Y-116533000D01*
X187077000Y-116553000D01*
X188220624Y-116553000D01*
X188341909Y-116330960D01*
X188247070Y-116066119D01*
X188246399Y-116065000D01*
X188499868Y-116065000D01*
X189215001Y-116780133D01*
X189215000Y-118284248D01*
X189209509Y-118340000D01*
X189216624Y-118412236D01*
X189231423Y-118562498D01*
X189296324Y-118776446D01*
X189401716Y-118973623D01*
X189543551Y-119146449D01*
X189586864Y-119181996D01*
X190648008Y-120243140D01*
X190683551Y-120286449D01*
X190856377Y-120428284D01*
X191053553Y-120533676D01*
X191267501Y-120598577D01*
X191434248Y-120615000D01*
X191434257Y-120615000D01*
X191489999Y-120620490D01*
X191545741Y-120615000D01*
X200229869Y-120615000D01*
X200836856Y-121221988D01*
X200836861Y-121221992D01*
X201318008Y-121703140D01*
X201353551Y-121746449D01*
X201526377Y-121888284D01*
X201553584Y-121902826D01*
X201599044Y-122052686D01*
X201692661Y-122227833D01*
X201818650Y-122381350D01*
X201933000Y-122475195D01*
X201933000Y-124690000D01*
X201935440Y-124714776D01*
X201942667Y-124738601D01*
X201954403Y-124760557D01*
X201970197Y-124779803D01*
X201989443Y-124795597D01*
X202011399Y-124807333D01*
X202035224Y-124814560D01*
X202060000Y-124817000D01*
X209910000Y-124817000D01*
X209934776Y-124814560D01*
X209958601Y-124807333D01*
X209980557Y-124795597D01*
X209999803Y-124779803D01*
X210015597Y-124760557D01*
X210027333Y-124738601D01*
X210034560Y-124714776D01*
X210037000Y-124690000D01*
X210037000Y-122566580D01*
X210147833Y-122507339D01*
X210301350Y-122381350D01*
X210427339Y-122227833D01*
X210520956Y-122052686D01*
X210578606Y-121862641D01*
X210598072Y-121665000D01*
X210598072Y-121203506D01*
X211744536Y-120057043D01*
X211759744Y-120067205D01*
X211948102Y-120145226D01*
X212148061Y-120185000D01*
X212351939Y-120185000D01*
X212551898Y-120145226D01*
X212740256Y-120067205D01*
X212909774Y-119953937D01*
X213053937Y-119809774D01*
X213167205Y-119640256D01*
X213245226Y-119451898D01*
X213285000Y-119251939D01*
X213285000Y-119048061D01*
X213245226Y-118848102D01*
X213167205Y-118659744D01*
X213053937Y-118490226D01*
X212909774Y-118346063D01*
X212740256Y-118232795D01*
X212551898Y-118154774D01*
X212351939Y-118115000D01*
X212148061Y-118115000D01*
X211948102Y-118154774D01*
X211759744Y-118232795D01*
X211711546Y-118265000D01*
X211443465Y-118265000D01*
X211399999Y-118260719D01*
X211356533Y-118265000D01*
X211356523Y-118265000D01*
X211226510Y-118277805D01*
X211059687Y-118328411D01*
X210905941Y-118410589D01*
X210893604Y-118420714D01*
X210804953Y-118493468D01*
X210804951Y-118493470D01*
X210771183Y-118521183D01*
X210743470Y-118554951D01*
X210033328Y-119265094D01*
X210016844Y-117585000D01*
X219532165Y-117585000D01*
X219575634Y-117589281D01*
X219619103Y-117585000D01*
X219619111Y-117585000D01*
X219749124Y-117572195D01*
X219915947Y-117521589D01*
X220069693Y-117439411D01*
X220204451Y-117328817D01*
X220232168Y-117295044D01*
X221805049Y-115722164D01*
X221838817Y-115694451D01*
X221912644Y-115604494D01*
X221949411Y-115559693D01*
X222031589Y-115405948D01*
X222082195Y-115239124D01*
X222083094Y-115229998D01*
X222095000Y-115109111D01*
X222095000Y-115109103D01*
X222099281Y-115065634D01*
X222095000Y-115022165D01*
X222095000Y-115005329D01*
X222315998Y-114857663D01*
X222557663Y-114615998D01*
X222747537Y-114331831D01*
X222878325Y-114016081D01*
X222945000Y-113680883D01*
X222945000Y-113339117D01*
X223285000Y-113339117D01*
X223285000Y-113680883D01*
X223351675Y-114016081D01*
X223482463Y-114331831D01*
X223672337Y-114615998D01*
X223914002Y-114857663D01*
X224198169Y-115047537D01*
X224513919Y-115178325D01*
X224849117Y-115245000D01*
X225190883Y-115245000D01*
X225526081Y-115178325D01*
X225841831Y-115047537D01*
X226125998Y-114857663D01*
X226367663Y-114615998D01*
X226557537Y-114331831D01*
X226688325Y-114016081D01*
X226755000Y-113680883D01*
X226755000Y-113339117D01*
X226688325Y-113003919D01*
X226557537Y-112688169D01*
X226367663Y-112404002D01*
X226155000Y-112191339D01*
X226155000Y-108039543D01*
X226171195Y-108000445D01*
X226220000Y-107755084D01*
X226220000Y-107504916D01*
X226171195Y-107259555D01*
X226075459Y-107028429D01*
X225936473Y-106820422D01*
X225759578Y-106643527D01*
X225551571Y-106504541D01*
X225320445Y-106408805D01*
X225075084Y-106360000D01*
X224824916Y-106360000D01*
X224579555Y-106408805D01*
X224348429Y-106504541D01*
X224140422Y-106643527D01*
X223963527Y-106820422D01*
X223824541Y-107028429D01*
X223728805Y-107259555D01*
X223680000Y-107504916D01*
X223680000Y-107755084D01*
X223728805Y-108000445D01*
X223824541Y-108231571D01*
X223885001Y-108322056D01*
X223885000Y-112191339D01*
X223672337Y-112404002D01*
X223482463Y-112688169D01*
X223351675Y-113003919D01*
X223285000Y-113339117D01*
X222945000Y-113339117D01*
X222878325Y-113003919D01*
X222747537Y-112688169D01*
X222557663Y-112404002D01*
X222315998Y-112162337D01*
X222031831Y-111972463D01*
X221716081Y-111841675D01*
X221380883Y-111775000D01*
X221039117Y-111775000D01*
X220703919Y-111841675D01*
X220388169Y-111972463D01*
X220104002Y-112162337D01*
X219862337Y-112404002D01*
X219672463Y-112688169D01*
X219541675Y-113003919D01*
X219475000Y-113339117D01*
X219475000Y-113680883D01*
X219541675Y-114016081D01*
X219672463Y-114331831D01*
X219862337Y-114615998D01*
X220104002Y-114857663D01*
X220141402Y-114882653D01*
X219209056Y-115815000D01*
X207887353Y-115815000D01*
X207897205Y-115800256D01*
X207975226Y-115611898D01*
X208015000Y-115411939D01*
X208015000Y-115349801D01*
X210586013Y-112778789D01*
X210615011Y-112754991D01*
X210647645Y-112715226D01*
X210709984Y-112639267D01*
X210780556Y-112507237D01*
X210783867Y-112496323D01*
X210824013Y-112363976D01*
X210835010Y-112252323D01*
X210835010Y-112252314D01*
X210838686Y-112214991D01*
X210835010Y-112177668D01*
X210835010Y-108187324D01*
X210838687Y-108149992D01*
X210835010Y-108112659D01*
X210835010Y-106733703D01*
X210878947Y-106689766D01*
X210992215Y-106520248D01*
X211070236Y-106331890D01*
X211110010Y-106131931D01*
X211110010Y-105928053D01*
X211105408Y-105904916D01*
X218580000Y-105904916D01*
X218580000Y-106155084D01*
X218628805Y-106400445D01*
X218724541Y-106631571D01*
X218863527Y-106839578D01*
X219040422Y-107016473D01*
X219248429Y-107155459D01*
X219479555Y-107251195D01*
X219724916Y-107300000D01*
X219975084Y-107300000D01*
X220220445Y-107251195D01*
X220451571Y-107155459D01*
X220659578Y-107016473D01*
X220836473Y-106839578D01*
X220975459Y-106631571D01*
X221071195Y-106400445D01*
X221120000Y-106155084D01*
X221120000Y-105904916D01*
X221071195Y-105659555D01*
X220975459Y-105428429D01*
X220836473Y-105220422D01*
X220659578Y-105043527D01*
X220451571Y-104904541D01*
X220220445Y-104808805D01*
X219975084Y-104760000D01*
X219724916Y-104760000D01*
X219479555Y-104808805D01*
X219248429Y-104904541D01*
X219040422Y-105043527D01*
X218863527Y-105220422D01*
X218724541Y-105428429D01*
X218628805Y-105659555D01*
X218580000Y-105904916D01*
X211105408Y-105904916D01*
X211070236Y-105728094D01*
X210992215Y-105539736D01*
X210878947Y-105370218D01*
X210734784Y-105226055D01*
X210565266Y-105112787D01*
X210376908Y-105034766D01*
X210176949Y-104994992D01*
X209973071Y-104994992D01*
X209773112Y-105034766D01*
X209584754Y-105112787D01*
X209415236Y-105226055D01*
X209271073Y-105370218D01*
X209157805Y-105539736D01*
X209079784Y-105728094D01*
X209040010Y-105928053D01*
X209040010Y-106131931D01*
X209079784Y-106331890D01*
X209157805Y-106520248D01*
X209271073Y-106689766D01*
X209315011Y-106733704D01*
X209315010Y-107389992D01*
X205335993Y-107389992D01*
X205310256Y-107372795D01*
X205121898Y-107294774D01*
X204921939Y-107255000D01*
X204718061Y-107255000D01*
X204518102Y-107294774D01*
X204329744Y-107372795D01*
X204160226Y-107486063D01*
X204016063Y-107630226D01*
X203902795Y-107799744D01*
X203824774Y-107988102D01*
X203785000Y-108188061D01*
X203785000Y-108391939D01*
X203824774Y-108591898D01*
X203902795Y-108780256D01*
X204016063Y-108949774D01*
X204160226Y-109093937D01*
X204329744Y-109207205D01*
X204518102Y-109285226D01*
X204718061Y-109325000D01*
X204921939Y-109325000D01*
X205121898Y-109285226D01*
X205310256Y-109207205D01*
X205479774Y-109093937D01*
X205623937Y-108949774D01*
X205650518Y-108909992D01*
X209315010Y-108909992D01*
X209315011Y-111900187D01*
X209220670Y-111994528D01*
X209255000Y-111821939D01*
X209255000Y-111618061D01*
X209215226Y-111418102D01*
X209137205Y-111229744D01*
X209023937Y-111060226D01*
X208879774Y-110916063D01*
X208710256Y-110802795D01*
X208521898Y-110724774D01*
X208321939Y-110685000D01*
X208118061Y-110685000D01*
X207918102Y-110724774D01*
X207729744Y-110802795D01*
X207560226Y-110916063D01*
X207431289Y-111045000D01*
X203575000Y-111045000D01*
X203575000Y-108543469D01*
X203579281Y-108500000D01*
X203575000Y-108456531D01*
X203575000Y-108456523D01*
X203563652Y-108341306D01*
X203562195Y-108326509D01*
X203520196Y-108188061D01*
X203511589Y-108159687D01*
X203429411Y-108005941D01*
X203379436Y-107945047D01*
X203346532Y-107904953D01*
X203346530Y-107904951D01*
X203318817Y-107871183D01*
X203285049Y-107843470D01*
X201416535Y-105974957D01*
X201405226Y-105918102D01*
X201327205Y-105729744D01*
X201213937Y-105560226D01*
X201069774Y-105416063D01*
X200900256Y-105302795D01*
X200711898Y-105224774D01*
X200511939Y-105185000D01*
X200308061Y-105185000D01*
X200108102Y-105224774D01*
X199919744Y-105302795D01*
X199750226Y-105416063D01*
X199606063Y-105560226D01*
X199492795Y-105729744D01*
X199414774Y-105918102D01*
X199375000Y-106118061D01*
X199375000Y-106321939D01*
X199414774Y-106521898D01*
X199492795Y-106710256D01*
X199606063Y-106879774D01*
X199750226Y-107023937D01*
X199919744Y-107137205D01*
X200108102Y-107215226D01*
X200164957Y-107226535D01*
X201805001Y-108866580D01*
X201805000Y-110974257D01*
X201778411Y-111024002D01*
X201727805Y-111190825D01*
X201715000Y-111320838D01*
X201715000Y-111320846D01*
X201710719Y-111364315D01*
X201713606Y-111393632D01*
X201682795Y-111439744D01*
X201604774Y-111628102D01*
X201593465Y-111684956D01*
X201273422Y-112005000D01*
X201223465Y-112005000D01*
X201179999Y-112000719D01*
X201136533Y-112005000D01*
X201136523Y-112005000D01*
X201006510Y-112017805D01*
X200839687Y-112068411D01*
X200685941Y-112150589D01*
X200685939Y-112150590D01*
X200685940Y-112150590D01*
X200584953Y-112233468D01*
X200584951Y-112233470D01*
X200551183Y-112261183D01*
X200523470Y-112294951D01*
X200127000Y-112691422D01*
X200127000Y-110320000D01*
X200124560Y-110295224D01*
X200117333Y-110271399D01*
X200105597Y-110249443D01*
X200089803Y-110230197D01*
X200070557Y-110214403D01*
X200048601Y-110202667D01*
X200024776Y-110195440D01*
X200000000Y-110193000D01*
X191520000Y-110193000D01*
X191495224Y-110195440D01*
X191471399Y-110202667D01*
X191449443Y-110214403D01*
X191430197Y-110230197D01*
X191414403Y-110249443D01*
X191402667Y-110271399D01*
X191395440Y-110295224D01*
X191393000Y-110320000D01*
X191393000Y-115853579D01*
X191298284Y-115676377D01*
X191263454Y-115633937D01*
X191191989Y-115546856D01*
X191191987Y-115546854D01*
X191156449Y-115503551D01*
X191113146Y-115468013D01*
X189811995Y-114166864D01*
X189776449Y-114123551D01*
X189603623Y-113981716D01*
X189406447Y-113876324D01*
X189192499Y-113811423D01*
X189025752Y-113795000D01*
X189025751Y-113795000D01*
X188970000Y-113789509D01*
X188914249Y-113795000D01*
X184876579Y-113795000D01*
X184416534Y-113334956D01*
X184388817Y-113301183D01*
X184254059Y-113190589D01*
X184100313Y-113108411D01*
X183933490Y-113057805D01*
X183803477Y-113045000D01*
X183803469Y-113045000D01*
X183760000Y-113040719D01*
X183716531Y-113045000D01*
X179196579Y-113045000D01*
X177995000Y-111843422D01*
X177995000Y-110761957D01*
X178044463Y-110854494D01*
X178123815Y-110951185D01*
X178220506Y-111030537D01*
X178330820Y-111089502D01*
X178450518Y-111125812D01*
X178575000Y-111138072D01*
X178776750Y-111135000D01*
X178935500Y-110976250D01*
X178935500Y-109927000D01*
X178915500Y-109927000D01*
X178915500Y-109673000D01*
X178935500Y-109673000D01*
X178935500Y-108623750D01*
X178776750Y-108465000D01*
X178575000Y-108461928D01*
X178450518Y-108474188D01*
X178330820Y-108510498D01*
X178220506Y-108569463D01*
X178123815Y-108648815D01*
X178044463Y-108745506D01*
X177995000Y-108838043D01*
X177995000Y-107903469D01*
X177999281Y-107860000D01*
X177995000Y-107816531D01*
X177995000Y-107816523D01*
X177982195Y-107686510D01*
X177981733Y-107684985D01*
X177958983Y-107609991D01*
X177931589Y-107519687D01*
X177849411Y-107365941D01*
X177738817Y-107231183D01*
X177705044Y-107203466D01*
X177606535Y-107104957D01*
X177595226Y-107048102D01*
X177517205Y-106859744D01*
X177403937Y-106690226D01*
X177259774Y-106546063D01*
X177090256Y-106432795D01*
X176901898Y-106354774D01*
X176701939Y-106315000D01*
X176498061Y-106315000D01*
X176298102Y-106354774D01*
X176109744Y-106432795D01*
X175940226Y-106546063D01*
X175796063Y-106690226D01*
X175682795Y-106859744D01*
X175604774Y-107048102D01*
X175593465Y-107104956D01*
X172333422Y-110365000D01*
X167538446Y-110365000D01*
X167490248Y-110332795D01*
X167301890Y-110254774D01*
X167101931Y-110215000D01*
X166985011Y-110215000D01*
X166985011Y-106337344D01*
X166988688Y-106300011D01*
X166979823Y-106209999D01*
X166974014Y-106151025D01*
X166930557Y-106007764D01*
X166859985Y-105875735D01*
X166765012Y-105760010D01*
X166736009Y-105736208D01*
X166488804Y-105489003D01*
X166465001Y-105459999D01*
X166349276Y-105365026D01*
X166217247Y-105294454D01*
X166150382Y-105274171D01*
X166136211Y-105260000D01*
X169087470Y-105260000D01*
X169003750Y-105416629D01*
X168939307Y-105629069D01*
X168917547Y-105850000D01*
X168917547Y-108350000D01*
X168939307Y-108570931D01*
X169003750Y-108783371D01*
X169108400Y-108979157D01*
X169249235Y-109150765D01*
X169420843Y-109291600D01*
X169616629Y-109396250D01*
X169829069Y-109460693D01*
X170050000Y-109482453D01*
X172550000Y-109482453D01*
X172770931Y-109460693D01*
X172983371Y-109396250D01*
X173179157Y-109291600D01*
X173350765Y-109150765D01*
X173491600Y-108979157D01*
X173596250Y-108783371D01*
X173660693Y-108570931D01*
X173682453Y-108350000D01*
X173682453Y-105850000D01*
X173660693Y-105629069D01*
X173596250Y-105416629D01*
X173512530Y-105260000D01*
X179208199Y-105260000D01*
X180177500Y-106229302D01*
X180177501Y-108632155D01*
X180070208Y-108720208D01*
X180064992Y-108726564D01*
X180001185Y-108648815D01*
X179904494Y-108569463D01*
X179794180Y-108510498D01*
X179674482Y-108474188D01*
X179550000Y-108461928D01*
X179348250Y-108465000D01*
X179189500Y-108623750D01*
X179189500Y-109673000D01*
X179209500Y-109673000D01*
X179209500Y-109927000D01*
X179189500Y-109927000D01*
X179189500Y-110976250D01*
X179348250Y-111135000D01*
X179550000Y-111138072D01*
X179674482Y-111125812D01*
X179794180Y-111089502D01*
X179904494Y-111030537D01*
X180001185Y-110951185D01*
X180064992Y-110873436D01*
X180070208Y-110879792D01*
X180203836Y-110989458D01*
X180356291Y-111070947D01*
X180521715Y-111121128D01*
X180693750Y-111138072D01*
X181181250Y-111138072D01*
X181353285Y-111121128D01*
X181518709Y-111070947D01*
X181671164Y-110989458D01*
X181804792Y-110879792D01*
X181914458Y-110746164D01*
X181995947Y-110593709D01*
X182024373Y-110500000D01*
X185936928Y-110500000D01*
X185949188Y-110624482D01*
X185985498Y-110744180D01*
X186044463Y-110854494D01*
X186123815Y-110951185D01*
X186220506Y-111030537D01*
X186330820Y-111089502D01*
X186450518Y-111125812D01*
X186575000Y-111138072D01*
X186776750Y-111135000D01*
X186935500Y-110976250D01*
X186935500Y-109927000D01*
X186098750Y-109927000D01*
X185940000Y-110085750D01*
X185936928Y-110500000D01*
X182024373Y-110500000D01*
X182046128Y-110428285D01*
X182063072Y-110256250D01*
X182063072Y-109343750D01*
X182046128Y-109171715D01*
X182024374Y-109100000D01*
X185936928Y-109100000D01*
X185940000Y-109514250D01*
X186098750Y-109673000D01*
X186935500Y-109673000D01*
X186935500Y-108623750D01*
X186776750Y-108465000D01*
X186575000Y-108461928D01*
X186450518Y-108474188D01*
X186330820Y-108510498D01*
X186220506Y-108569463D01*
X186123815Y-108648815D01*
X186044463Y-108745506D01*
X185985498Y-108855820D01*
X185949188Y-108975518D01*
X185936928Y-109100000D01*
X182024374Y-109100000D01*
X181995947Y-109006291D01*
X181914458Y-108853836D01*
X181804792Y-108720208D01*
X181697500Y-108632155D01*
X181697500Y-105951822D01*
X181701176Y-105914499D01*
X181697500Y-105877176D01*
X181697500Y-105877167D01*
X181686503Y-105765514D01*
X181643046Y-105622253D01*
X181628193Y-105594465D01*
X181572474Y-105490223D01*
X181501299Y-105403497D01*
X181477501Y-105374499D01*
X181448504Y-105350702D01*
X180568801Y-104471000D01*
X188166199Y-104471000D01*
X188177501Y-104482302D01*
X188177500Y-108632155D01*
X188070208Y-108720208D01*
X188064992Y-108726564D01*
X188001185Y-108648815D01*
X187904494Y-108569463D01*
X187794180Y-108510498D01*
X187674482Y-108474188D01*
X187550000Y-108461928D01*
X187348250Y-108465000D01*
X187189500Y-108623750D01*
X187189500Y-109673000D01*
X187209500Y-109673000D01*
X187209500Y-109927000D01*
X187189500Y-109927000D01*
X187189500Y-110976250D01*
X187348250Y-111135000D01*
X187550000Y-111138072D01*
X187674482Y-111125812D01*
X187794180Y-111089502D01*
X187904494Y-111030537D01*
X188001185Y-110951185D01*
X188064992Y-110873436D01*
X188070208Y-110879792D01*
X188203836Y-110989458D01*
X188356291Y-111070947D01*
X188521715Y-111121128D01*
X188693750Y-111138072D01*
X189181250Y-111138072D01*
X189353285Y-111121128D01*
X189518709Y-111070947D01*
X189671164Y-110989458D01*
X189804792Y-110879792D01*
X189914458Y-110746164D01*
X189995947Y-110593709D01*
X190046128Y-110428285D01*
X190063072Y-110256250D01*
X190063072Y-109343750D01*
X190046128Y-109171715D01*
X189995947Y-109006291D01*
X189914458Y-108853836D01*
X189804792Y-108720208D01*
X189697500Y-108632155D01*
X189697500Y-105850000D01*
X194367547Y-105850000D01*
X194367547Y-108350000D01*
X194389307Y-108570931D01*
X194453750Y-108783371D01*
X194558400Y-108979157D01*
X194699235Y-109150765D01*
X194870843Y-109291600D01*
X195066629Y-109396250D01*
X195279069Y-109460693D01*
X195500000Y-109482453D01*
X198000000Y-109482453D01*
X198220931Y-109460693D01*
X198433371Y-109396250D01*
X198629157Y-109291600D01*
X198800765Y-109150765D01*
X198941600Y-108979157D01*
X199046250Y-108783371D01*
X199110693Y-108570931D01*
X199132453Y-108350000D01*
X199132453Y-105850000D01*
X199110693Y-105629069D01*
X199046250Y-105416629D01*
X198941600Y-105220843D01*
X198800765Y-105049235D01*
X198629157Y-104908400D01*
X198433371Y-104803750D01*
X198220931Y-104739307D01*
X198000000Y-104717547D01*
X195500000Y-104717547D01*
X195279069Y-104739307D01*
X195066629Y-104803750D01*
X194870843Y-104908400D01*
X194699235Y-105049235D01*
X194558400Y-105220843D01*
X194453750Y-105416629D01*
X194389307Y-105629069D01*
X194367547Y-105850000D01*
X189697500Y-105850000D01*
X189697500Y-104204822D01*
X189701176Y-104167499D01*
X189697500Y-104130176D01*
X189697500Y-104130167D01*
X189686503Y-104018514D01*
X189643046Y-103875253D01*
X189572474Y-103743224D01*
X189477501Y-103627499D01*
X189448502Y-103603700D01*
X189044803Y-103200002D01*
X189021001Y-103170999D01*
X188905276Y-103076026D01*
X188773247Y-103005454D01*
X188629986Y-102961997D01*
X188518333Y-102951000D01*
X188518322Y-102951000D01*
X188481000Y-102947324D01*
X188443678Y-102951000D01*
X164576323Y-102951000D01*
X164539000Y-102947324D01*
X164501677Y-102951000D01*
X164501667Y-102951000D01*
X164390014Y-102961997D01*
X164246753Y-103005454D01*
X164114723Y-103076026D01*
X164031083Y-103144668D01*
X163998999Y-103170999D01*
X163975201Y-103199997D01*
X163460199Y-103715000D01*
X163398061Y-103715000D01*
X163198102Y-103754774D01*
X163009744Y-103832795D01*
X162840226Y-103946063D01*
X162696063Y-104090226D01*
X162582795Y-104259744D01*
X162504774Y-104448102D01*
X162465000Y-104648061D01*
X162465000Y-104851939D01*
X162504774Y-105051898D01*
X162582795Y-105240256D01*
X162696063Y-105409774D01*
X162840226Y-105553937D01*
X163009744Y-105667205D01*
X163198102Y-105745226D01*
X163240001Y-105753560D01*
X163240000Y-107046289D01*
X163196063Y-107090226D01*
X163082795Y-107259744D01*
X163004774Y-107448102D01*
X162965000Y-107648061D01*
X162965000Y-107851939D01*
X163004774Y-108051898D01*
X163082795Y-108240256D01*
X163196063Y-108409774D01*
X163340226Y-108553937D01*
X163509744Y-108667205D01*
X163698102Y-108745226D01*
X163898061Y-108785000D01*
X164101939Y-108785000D01*
X164301898Y-108745226D01*
X164490256Y-108667205D01*
X164659774Y-108553937D01*
X164803937Y-108409774D01*
X164917205Y-108240256D01*
X164995226Y-108051898D01*
X165035000Y-107851939D01*
X165035000Y-107648061D01*
X164995226Y-107448102D01*
X164917205Y-107259744D01*
X164803937Y-107090226D01*
X164760000Y-107046289D01*
X164760000Y-106808797D01*
X164922244Y-106917205D01*
X165110602Y-106995226D01*
X165310561Y-107035000D01*
X165465011Y-107035000D01*
X165465011Y-108215000D01*
X165398071Y-108215000D01*
X165198112Y-108254774D01*
X165009754Y-108332795D01*
X164840236Y-108446063D01*
X164696073Y-108590226D01*
X164582805Y-108759744D01*
X164504784Y-108948102D01*
X164465010Y-109148061D01*
X164465010Y-109351939D01*
X164504784Y-109551898D01*
X164582805Y-109740256D01*
X164696073Y-109909774D01*
X164740010Y-109953711D01*
X164740011Y-111712678D01*
X164736334Y-111750010D01*
X164740011Y-111787343D01*
X164751008Y-111898996D01*
X164754349Y-111910010D01*
X164794464Y-112042256D01*
X164865036Y-112174286D01*
X164930027Y-112253477D01*
X164960010Y-112290011D01*
X164989008Y-112313809D01*
X165636212Y-112961013D01*
X165660010Y-112990012D01*
X165689008Y-113013810D01*
X165775734Y-113084985D01*
X165884365Y-113143050D01*
X165907764Y-113155557D01*
X166051025Y-113199014D01*
X166162678Y-113210011D01*
X166162688Y-113210011D01*
X166200011Y-113213687D01*
X166237334Y-113210011D01*
X168465000Y-113210011D01*
X168465000Y-113401939D01*
X168504774Y-113601898D01*
X168582795Y-113790256D01*
X168696063Y-113959774D01*
X168840226Y-114103937D01*
X168853490Y-114112799D01*
X168796063Y-114170226D01*
X168682795Y-114339744D01*
X168604774Y-114528102D01*
X168565000Y-114728061D01*
X168565000Y-114931939D01*
X168604774Y-115131898D01*
X168682795Y-115320256D01*
X168796063Y-115489774D01*
X168940226Y-115633937D01*
X169109744Y-115747205D01*
X169298102Y-115825226D01*
X169498061Y-115865000D01*
X169560199Y-115865000D01*
X170260187Y-116564988D01*
X160600484Y-116564988D01*
X160589654Y-116554158D01*
X160565851Y-116525154D01*
X160450126Y-116430181D01*
X160318097Y-116359609D01*
X160174889Y-116316168D01*
X160119939Y-116261218D01*
X159950421Y-116147950D01*
X159762063Y-116069929D01*
X159562104Y-116030155D01*
X159358226Y-116030155D01*
X159158267Y-116069929D01*
X158969909Y-116147950D01*
X158800391Y-116261218D01*
X158656228Y-116405381D01*
X158598841Y-116491267D01*
X158595226Y-116473092D01*
X158517205Y-116284734D01*
X158403937Y-116115216D01*
X158259774Y-115971053D01*
X158090256Y-115857785D01*
X157901898Y-115779764D01*
X157701939Y-115739990D01*
X157498061Y-115739990D01*
X157298102Y-115779764D01*
X157109744Y-115857785D01*
X156940226Y-115971053D01*
X156796063Y-116115216D01*
X156682795Y-116284734D01*
X156604774Y-116473092D01*
X156565000Y-116673051D01*
X156565000Y-116876929D01*
X156604774Y-117076888D01*
X156682795Y-117265246D01*
X156796063Y-117434764D01*
X156940226Y-117578927D01*
X157109744Y-117692195D01*
X157298102Y-117770216D01*
X157498061Y-117809990D01*
X157560199Y-117809990D01*
X158051366Y-118301158D01*
X158075165Y-118330157D01*
X158190890Y-118425130D01*
X158322919Y-118495702D01*
X158466180Y-118539159D01*
X158518022Y-118544265D01*
X158615166Y-118553833D01*
X158646454Y-118550751D01*
X158645000Y-118558061D01*
X158645000Y-118761939D01*
X158684774Y-118961898D01*
X158762795Y-119150256D01*
X158852828Y-119285000D01*
X156523469Y-119285000D01*
X156480000Y-119280719D01*
X156436531Y-119285000D01*
X156436523Y-119285000D01*
X156306510Y-119297805D01*
X156139686Y-119348411D01*
X156071250Y-119384991D01*
X156016066Y-119414487D01*
X155606534Y-119004956D01*
X155578817Y-118971183D01*
X155444059Y-118860589D01*
X155290313Y-118778411D01*
X155123490Y-118727805D01*
X154993477Y-118715000D01*
X154993469Y-118715000D01*
X154950000Y-118710719D01*
X154906531Y-118715000D01*
X147843465Y-118715000D01*
X147799999Y-118710719D01*
X147756533Y-118715000D01*
X147756523Y-118715000D01*
X147626510Y-118727805D01*
X147459687Y-118778411D01*
X147305941Y-118860589D01*
X147282302Y-118879989D01*
X147204953Y-118943468D01*
X147204951Y-118943470D01*
X147171183Y-118971183D01*
X147143470Y-119004951D01*
X146504957Y-119643465D01*
X146448102Y-119654774D01*
X146259744Y-119732795D01*
X146090226Y-119846063D01*
X145946063Y-119990226D01*
X145832795Y-120159744D01*
X145754774Y-120348102D01*
X145715000Y-120548061D01*
X140660000Y-120548061D01*
X140660000Y-109000000D01*
X144051928Y-109000000D01*
X144051928Y-111000000D01*
X144064188Y-111124482D01*
X144100498Y-111244180D01*
X144159463Y-111354494D01*
X144238815Y-111451185D01*
X144335506Y-111530537D01*
X144445820Y-111589502D01*
X144565518Y-111625812D01*
X144690000Y-111638072D01*
X146690000Y-111638072D01*
X146814482Y-111625812D01*
X146934180Y-111589502D01*
X147044494Y-111530537D01*
X147141185Y-111451185D01*
X147220537Y-111354494D01*
X147279502Y-111244180D01*
X147315812Y-111124482D01*
X147328072Y-111000000D01*
X147328072Y-109829117D01*
X147765000Y-109829117D01*
X147765000Y-110170883D01*
X147831675Y-110506081D01*
X147962463Y-110821831D01*
X148152337Y-111105998D01*
X148394002Y-111347663D01*
X148678169Y-111537537D01*
X148993919Y-111668325D01*
X149329117Y-111735000D01*
X149670883Y-111735000D01*
X150006081Y-111668325D01*
X150067912Y-111642714D01*
X150836201Y-112411003D01*
X150859999Y-112440001D01*
X150975724Y-112534974D01*
X151107753Y-112605546D01*
X151251014Y-112649003D01*
X151362667Y-112660000D01*
X151362675Y-112660000D01*
X151400000Y-112663676D01*
X151437325Y-112660000D01*
X158846557Y-112660000D01*
X158883879Y-112663676D01*
X158921201Y-112660000D01*
X158921212Y-112660000D01*
X159032865Y-112649003D01*
X159176126Y-112605546D01*
X159308155Y-112534974D01*
X159423880Y-112440001D01*
X159447682Y-112410998D01*
X159885868Y-111972814D01*
X159948004Y-111972814D01*
X160147963Y-111933040D01*
X160336321Y-111855019D01*
X160505839Y-111741751D01*
X160650002Y-111597588D01*
X160763270Y-111428070D01*
X160841291Y-111239712D01*
X160881065Y-111039753D01*
X160881065Y-110835875D01*
X160841291Y-110635916D01*
X160763270Y-110447558D01*
X160650002Y-110278040D01*
X160550470Y-110178508D01*
X160577756Y-110167205D01*
X160747274Y-110053937D01*
X160891437Y-109909774D01*
X161004705Y-109740256D01*
X161082726Y-109551898D01*
X161122500Y-109351939D01*
X161122500Y-109148061D01*
X161106022Y-109065220D01*
X161110000Y-109024833D01*
X161110000Y-109024824D01*
X161113676Y-108987501D01*
X161110000Y-108950178D01*
X161110000Y-108134132D01*
X161150000Y-108138072D01*
X162150000Y-108138072D01*
X162274482Y-108125812D01*
X162394180Y-108089502D01*
X162504494Y-108030537D01*
X162601185Y-107951185D01*
X162680537Y-107854494D01*
X162739502Y-107744180D01*
X162775812Y-107624482D01*
X162788072Y-107500000D01*
X162788072Y-106000000D01*
X162775812Y-105875518D01*
X162739502Y-105755820D01*
X162680537Y-105645506D01*
X162601185Y-105548815D01*
X162504494Y-105469463D01*
X162394180Y-105410498D01*
X162317923Y-105387366D01*
X162284974Y-105325724D01*
X162190001Y-105209999D01*
X162161001Y-105186199D01*
X162138801Y-105163999D01*
X162115000Y-105134998D01*
X161999275Y-105040025D01*
X161867246Y-104969453D01*
X161723985Y-104925996D01*
X161612332Y-104914999D01*
X161612321Y-104914999D01*
X161574999Y-104911323D01*
X161537677Y-104914999D01*
X157672323Y-104914999D01*
X157635000Y-104911323D01*
X157597677Y-104914999D01*
X157597668Y-104914999D01*
X157486015Y-104925996D01*
X157357434Y-104965000D01*
X157342754Y-104969453D01*
X157210724Y-105040025D01*
X157127084Y-105108667D01*
X157095000Y-105134998D01*
X157071202Y-105163996D01*
X153877912Y-108357286D01*
X153816081Y-108331675D01*
X153480883Y-108265000D01*
X153139117Y-108265000D01*
X152803919Y-108331675D01*
X152488169Y-108462463D01*
X152204002Y-108652337D01*
X151962337Y-108894002D01*
X151772463Y-109178169D01*
X151641675Y-109493919D01*
X151575000Y-109829117D01*
X151575000Y-110170883D01*
X151641675Y-110506081D01*
X151772463Y-110821831D01*
X151962337Y-111105998D01*
X151996339Y-111140000D01*
X151714802Y-111140000D01*
X151142714Y-110567912D01*
X151168325Y-110506081D01*
X151235000Y-110170883D01*
X151235000Y-109829117D01*
X151168325Y-109493919D01*
X151037537Y-109178169D01*
X150847663Y-108894002D01*
X150605998Y-108652337D01*
X150321831Y-108462463D01*
X150006081Y-108331675D01*
X149670883Y-108265000D01*
X149329117Y-108265000D01*
X148993919Y-108331675D01*
X148678169Y-108462463D01*
X148394002Y-108652337D01*
X148152337Y-108894002D01*
X147962463Y-109178169D01*
X147831675Y-109493919D01*
X147765000Y-109829117D01*
X147328072Y-109829117D01*
X147328072Y-109000000D01*
X147315812Y-108875518D01*
X147279502Y-108755820D01*
X147220537Y-108645506D01*
X147141185Y-108548815D01*
X147044494Y-108469463D01*
X146934180Y-108410498D01*
X146814482Y-108374188D01*
X146690000Y-108361928D01*
X144690000Y-108361928D01*
X144565518Y-108374188D01*
X144445820Y-108410498D01*
X144335506Y-108469463D01*
X144238815Y-108548815D01*
X144159463Y-108645506D01*
X144100498Y-108755820D01*
X144064188Y-108875518D01*
X144051928Y-109000000D01*
X140660000Y-109000000D01*
X140660000Y-103289946D01*
X140830453Y-103006724D01*
X141057856Y-102701375D01*
X141314149Y-102419820D01*
X141596841Y-102164798D01*
X141903213Y-101938761D01*
X142230291Y-101743903D01*
X142574923Y-101582100D01*
X142933774Y-101454918D01*
X143303397Y-101363583D01*
X143680181Y-101308983D01*
X144063636Y-101291500D01*
X179848376Y-101420777D01*
G37*
G04 #@! TD.AperFunction*
M02*
