G04 #@! TF.GenerationSoftware,KiCad,Pcbnew,5.1.9+dfsg1-1~bpo10+1*
G04 #@! TF.CreationDate,2021-05-10T17:54:19+00:00*
G04 #@! TF.ProjectId,CurrentShuntCircuit,43757272-656e-4745-9368-756e74436972,1*
G04 #@! TF.SameCoordinates,Original*
G04 #@! TF.FileFunction,Soldermask,Bot*
G04 #@! TF.FilePolarity,Negative*
%FSLAX46Y46*%
G04 Gerber Fmt 4.6, Leading zero omitted, Abs format (unit mm)*
G04 Created by KiCad (PCBNEW 5.1.9+dfsg1-1~bpo10+1) date 2021-05-10 17:54:19*
%MOMM*%
%LPD*%
G01*
G04 APERTURE LIST*
%ADD10O,1.702000X1.702000*%
%ADD11O,1.802000X1.802000*%
%ADD12C,2.302000*%
%ADD13C,3.302000*%
%ADD14C,5.102000*%
%ADD15C,1.902000*%
%ADD16C,1.372000*%
%ADD17C,0.100000*%
G04 APERTURE END LIST*
D10*
X184410000Y-116680000D03*
X186950000Y-124300000D03*
X186950000Y-116680000D03*
G36*
G01*
X185210000Y-125151000D02*
X183610000Y-125151000D01*
G75*
G02*
X183559000Y-125100000I0J51000D01*
G01*
X183559000Y-123500000D01*
G75*
G02*
X183610000Y-123449000I51000J0D01*
G01*
X185210000Y-123449000D01*
G75*
G02*
X185261000Y-123500000I0J-51000D01*
G01*
X185261000Y-125100000D01*
G75*
G02*
X185210000Y-125151000I-51000J0D01*
G01*
G37*
D11*
X179020000Y-121460000D03*
X176480000Y-121460000D03*
X173940000Y-121460000D03*
X171400000Y-121460000D03*
X168860000Y-121460000D03*
X166320000Y-121460000D03*
X163780000Y-121460000D03*
G36*
G01*
X162090000Y-122361000D02*
X160390000Y-122361000D01*
G75*
G02*
X160339000Y-122310000I0J51000D01*
G01*
X160339000Y-120610000D01*
G75*
G02*
X160390000Y-120559000I51000J0D01*
G01*
X162090000Y-120559000D01*
G75*
G02*
X162141000Y-120610000I0J-51000D01*
G01*
X162141000Y-122310000D01*
G75*
G02*
X162090000Y-122361000I-51000J0D01*
G01*
G37*
D12*
X225020000Y-113510000D03*
X221210000Y-113510000D03*
X217400000Y-113510000D03*
G36*
G01*
X212539000Y-114510000D02*
X212539000Y-112510000D01*
G75*
G02*
X212590000Y-112459000I51000J0D01*
G01*
X214590000Y-112459000D01*
G75*
G02*
X214641000Y-112510000I0J-51000D01*
G01*
X214641000Y-114510000D01*
G75*
G02*
X214590000Y-114561000I-51000J0D01*
G01*
X212590000Y-114561000D01*
G75*
G02*
X212539000Y-114510000I0J51000D01*
G01*
G37*
G36*
G01*
X188021000Y-104389500D02*
X188021000Y-105390500D01*
G75*
G02*
X187745500Y-105666000I-275500J0D01*
G01*
X187194500Y-105666000D01*
G75*
G02*
X186919000Y-105390500I0J275500D01*
G01*
X186919000Y-104389500D01*
G75*
G02*
X187194500Y-104114000I275500J0D01*
G01*
X187745500Y-104114000D01*
G75*
G02*
X188021000Y-104389500I0J-275500D01*
G01*
G37*
G36*
G01*
X189921000Y-104389500D02*
X189921000Y-105390500D01*
G75*
G02*
X189645500Y-105666000I-275500J0D01*
G01*
X189094500Y-105666000D01*
G75*
G02*
X188819000Y-105390500I0J275500D01*
G01*
X188819000Y-104389500D01*
G75*
G02*
X189094500Y-104114000I275500J0D01*
G01*
X189645500Y-104114000D01*
G75*
G02*
X189921000Y-104389500I0J-275500D01*
G01*
G37*
G36*
G01*
X164419000Y-118846124D02*
X164419000Y-117893876D01*
G75*
G02*
X164693876Y-117619000I274876J0D01*
G01*
X165271124Y-117619000D01*
G75*
G02*
X165546000Y-117893876I0J-274876D01*
G01*
X165546000Y-118846124D01*
G75*
G02*
X165271124Y-119121000I-274876J0D01*
G01*
X164693876Y-119121000D01*
G75*
G02*
X164419000Y-118846124I0J274876D01*
G01*
G37*
G36*
G01*
X162594000Y-118846124D02*
X162594000Y-117893876D01*
G75*
G02*
X162868876Y-117619000I274876J0D01*
G01*
X163446124Y-117619000D01*
G75*
G02*
X163721000Y-117893876I0J-274876D01*
G01*
X163721000Y-118846124D01*
G75*
G02*
X163446124Y-119121000I-274876J0D01*
G01*
X162868876Y-119121000D01*
G75*
G02*
X162594000Y-118846124I0J274876D01*
G01*
G37*
G36*
G01*
X198639000Y-124370000D02*
X198639000Y-123730000D01*
G75*
G02*
X198690000Y-123679000I51000J0D01*
G01*
X200690000Y-123679000D01*
G75*
G02*
X200741000Y-123730000I0J-51000D01*
G01*
X200741000Y-124370000D01*
G75*
G02*
X200690000Y-124421000I-51000J0D01*
G01*
X198690000Y-124421000D01*
G75*
G02*
X198639000Y-124370000I0J51000D01*
G01*
G37*
G36*
G01*
X198639000Y-121830000D02*
X198639000Y-121190000D01*
G75*
G02*
X198690000Y-121139000I51000J0D01*
G01*
X200690000Y-121139000D01*
G75*
G02*
X200741000Y-121190000I0J-51000D01*
G01*
X200741000Y-121830000D01*
G75*
G02*
X200690000Y-121881000I-51000J0D01*
G01*
X198690000Y-121881000D01*
G75*
G02*
X198639000Y-121830000I0J51000D01*
G01*
G37*
G36*
G01*
X192339000Y-121830000D02*
X192339000Y-121190000D01*
G75*
G02*
X192390000Y-121139000I51000J0D01*
G01*
X194390000Y-121139000D01*
G75*
G02*
X194441000Y-121190000I0J-51000D01*
G01*
X194441000Y-121830000D01*
G75*
G02*
X194390000Y-121881000I-51000J0D01*
G01*
X192390000Y-121881000D01*
G75*
G02*
X192339000Y-121830000I0J51000D01*
G01*
G37*
G36*
G01*
X192339000Y-124370000D02*
X192339000Y-123730000D01*
G75*
G02*
X192390000Y-123679000I51000J0D01*
G01*
X194390000Y-123679000D01*
G75*
G02*
X194441000Y-123730000I0J-51000D01*
G01*
X194441000Y-124370000D01*
G75*
G02*
X194390000Y-124421000I-51000J0D01*
G01*
X192390000Y-124421000D01*
G75*
G02*
X192339000Y-124370000I0J51000D01*
G01*
G37*
D13*
X143100000Y-97900000D03*
X226900000Y-98000000D03*
X226900000Y-61100000D03*
X143100000Y-61100000D03*
X143100000Y-126900000D03*
X226900000Y-126900000D03*
D14*
X185300000Y-97800000D03*
X185300000Y-75800000D03*
X185300000Y-75800000D03*
X185300000Y-88800000D03*
G36*
G01*
X210949000Y-108130500D02*
X210949000Y-107879500D01*
G75*
G02*
X211074500Y-107754000I125500J0D01*
G01*
X212550500Y-107754000D01*
G75*
G02*
X212676000Y-107879500I0J-125500D01*
G01*
X212676000Y-108130500D01*
G75*
G02*
X212550500Y-108256000I-125500J0D01*
G01*
X211074500Y-108256000D01*
G75*
G02*
X210949000Y-108130500I0J125500D01*
G01*
G37*
G36*
G01*
X210949000Y-107480500D02*
X210949000Y-107229500D01*
G75*
G02*
X211074500Y-107104000I125500J0D01*
G01*
X212550500Y-107104000D01*
G75*
G02*
X212676000Y-107229500I0J-125500D01*
G01*
X212676000Y-107480500D01*
G75*
G02*
X212550500Y-107606000I-125500J0D01*
G01*
X211074500Y-107606000D01*
G75*
G02*
X210949000Y-107480500I0J125500D01*
G01*
G37*
G36*
G01*
X210949000Y-106830500D02*
X210949000Y-106579500D01*
G75*
G02*
X211074500Y-106454000I125500J0D01*
G01*
X212550500Y-106454000D01*
G75*
G02*
X212676000Y-106579500I0J-125500D01*
G01*
X212676000Y-106830500D01*
G75*
G02*
X212550500Y-106956000I-125500J0D01*
G01*
X211074500Y-106956000D01*
G75*
G02*
X210949000Y-106830500I0J125500D01*
G01*
G37*
G36*
G01*
X210949000Y-106180500D02*
X210949000Y-105929500D01*
G75*
G02*
X211074500Y-105804000I125500J0D01*
G01*
X212550500Y-105804000D01*
G75*
G02*
X212676000Y-105929500I0J-125500D01*
G01*
X212676000Y-106180500D01*
G75*
G02*
X212550500Y-106306000I-125500J0D01*
G01*
X211074500Y-106306000D01*
G75*
G02*
X210949000Y-106180500I0J125500D01*
G01*
G37*
G36*
G01*
X206724000Y-106180500D02*
X206724000Y-105929500D01*
G75*
G02*
X206849500Y-105804000I125500J0D01*
G01*
X208325500Y-105804000D01*
G75*
G02*
X208451000Y-105929500I0J-125500D01*
G01*
X208451000Y-106180500D01*
G75*
G02*
X208325500Y-106306000I-125500J0D01*
G01*
X206849500Y-106306000D01*
G75*
G02*
X206724000Y-106180500I0J125500D01*
G01*
G37*
G36*
G01*
X206724000Y-106830500D02*
X206724000Y-106579500D01*
G75*
G02*
X206849500Y-106454000I125500J0D01*
G01*
X208325500Y-106454000D01*
G75*
G02*
X208451000Y-106579500I0J-125500D01*
G01*
X208451000Y-106830500D01*
G75*
G02*
X208325500Y-106956000I-125500J0D01*
G01*
X206849500Y-106956000D01*
G75*
G02*
X206724000Y-106830500I0J125500D01*
G01*
G37*
G36*
G01*
X206724000Y-107480500D02*
X206724000Y-107229500D01*
G75*
G02*
X206849500Y-107104000I125500J0D01*
G01*
X208325500Y-107104000D01*
G75*
G02*
X208451000Y-107229500I0J-125500D01*
G01*
X208451000Y-107480500D01*
G75*
G02*
X208325500Y-107606000I-125500J0D01*
G01*
X206849500Y-107606000D01*
G75*
G02*
X206724000Y-107480500I0J125500D01*
G01*
G37*
G36*
G01*
X206724000Y-108130500D02*
X206724000Y-107879500D01*
G75*
G02*
X206849500Y-107754000I125500J0D01*
G01*
X208325500Y-107754000D01*
G75*
G02*
X208451000Y-107879500I0J-125500D01*
G01*
X208451000Y-108130500D01*
G75*
G02*
X208325500Y-108256000I-125500J0D01*
G01*
X206849500Y-108256000D01*
G75*
G02*
X206724000Y-108130500I0J125500D01*
G01*
G37*
G36*
G01*
X156120500Y-114576000D02*
X155769500Y-114576000D01*
G75*
G02*
X155594000Y-114400500I0J175500D01*
G01*
X155594000Y-112599500D01*
G75*
G02*
X155769500Y-112424000I175500J0D01*
G01*
X156120500Y-112424000D01*
G75*
G02*
X156296000Y-112599500I0J-175500D01*
G01*
X156296000Y-114400500D01*
G75*
G02*
X156120500Y-114576000I-175500J0D01*
G01*
G37*
G36*
G01*
X154850500Y-114576000D02*
X154499500Y-114576000D01*
G75*
G02*
X154324000Y-114400500I0J175500D01*
G01*
X154324000Y-112599500D01*
G75*
G02*
X154499500Y-112424000I175500J0D01*
G01*
X154850500Y-112424000D01*
G75*
G02*
X155026000Y-112599500I0J-175500D01*
G01*
X155026000Y-114400500D01*
G75*
G02*
X154850500Y-114576000I-175500J0D01*
G01*
G37*
G36*
G01*
X153580500Y-114576000D02*
X153229500Y-114576000D01*
G75*
G02*
X153054000Y-114400500I0J175500D01*
G01*
X153054000Y-112599500D01*
G75*
G02*
X153229500Y-112424000I175500J0D01*
G01*
X153580500Y-112424000D01*
G75*
G02*
X153756000Y-112599500I0J-175500D01*
G01*
X153756000Y-114400500D01*
G75*
G02*
X153580500Y-114576000I-175500J0D01*
G01*
G37*
G36*
G01*
X152310500Y-114576000D02*
X151959500Y-114576000D01*
G75*
G02*
X151784000Y-114400500I0J175500D01*
G01*
X151784000Y-112599500D01*
G75*
G02*
X151959500Y-112424000I175500J0D01*
G01*
X152310500Y-112424000D01*
G75*
G02*
X152486000Y-112599500I0J-175500D01*
G01*
X152486000Y-114400500D01*
G75*
G02*
X152310500Y-114576000I-175500J0D01*
G01*
G37*
G36*
G01*
X151040500Y-114576000D02*
X150689500Y-114576000D01*
G75*
G02*
X150514000Y-114400500I0J175500D01*
G01*
X150514000Y-112599500D01*
G75*
G02*
X150689500Y-112424000I175500J0D01*
G01*
X151040500Y-112424000D01*
G75*
G02*
X151216000Y-112599500I0J-175500D01*
G01*
X151216000Y-114400500D01*
G75*
G02*
X151040500Y-114576000I-175500J0D01*
G01*
G37*
G36*
G01*
X149770500Y-114576000D02*
X149419500Y-114576000D01*
G75*
G02*
X149244000Y-114400500I0J175500D01*
G01*
X149244000Y-112599500D01*
G75*
G02*
X149419500Y-112424000I175500J0D01*
G01*
X149770500Y-112424000D01*
G75*
G02*
X149946000Y-112599500I0J-175500D01*
G01*
X149946000Y-114400500D01*
G75*
G02*
X149770500Y-114576000I-175500J0D01*
G01*
G37*
G36*
G01*
X148500500Y-114576000D02*
X148149500Y-114576000D01*
G75*
G02*
X147974000Y-114400500I0J175500D01*
G01*
X147974000Y-112599500D01*
G75*
G02*
X148149500Y-112424000I175500J0D01*
G01*
X148500500Y-112424000D01*
G75*
G02*
X148676000Y-112599500I0J-175500D01*
G01*
X148676000Y-114400500D01*
G75*
G02*
X148500500Y-114576000I-175500J0D01*
G01*
G37*
G36*
G01*
X147230500Y-114576000D02*
X146879500Y-114576000D01*
G75*
G02*
X146704000Y-114400500I0J175500D01*
G01*
X146704000Y-112599500D01*
G75*
G02*
X146879500Y-112424000I175500J0D01*
G01*
X147230500Y-112424000D01*
G75*
G02*
X147406000Y-112599500I0J-175500D01*
G01*
X147406000Y-114400500D01*
G75*
G02*
X147230500Y-114576000I-175500J0D01*
G01*
G37*
G36*
G01*
X147230500Y-123876000D02*
X146879500Y-123876000D01*
G75*
G02*
X146704000Y-123700500I0J175500D01*
G01*
X146704000Y-121899500D01*
G75*
G02*
X146879500Y-121724000I175500J0D01*
G01*
X147230500Y-121724000D01*
G75*
G02*
X147406000Y-121899500I0J-175500D01*
G01*
X147406000Y-123700500D01*
G75*
G02*
X147230500Y-123876000I-175500J0D01*
G01*
G37*
G36*
G01*
X148500500Y-123876000D02*
X148149500Y-123876000D01*
G75*
G02*
X147974000Y-123700500I0J175500D01*
G01*
X147974000Y-121899500D01*
G75*
G02*
X148149500Y-121724000I175500J0D01*
G01*
X148500500Y-121724000D01*
G75*
G02*
X148676000Y-121899500I0J-175500D01*
G01*
X148676000Y-123700500D01*
G75*
G02*
X148500500Y-123876000I-175500J0D01*
G01*
G37*
G36*
G01*
X149770500Y-123876000D02*
X149419500Y-123876000D01*
G75*
G02*
X149244000Y-123700500I0J175500D01*
G01*
X149244000Y-121899500D01*
G75*
G02*
X149419500Y-121724000I175500J0D01*
G01*
X149770500Y-121724000D01*
G75*
G02*
X149946000Y-121899500I0J-175500D01*
G01*
X149946000Y-123700500D01*
G75*
G02*
X149770500Y-123876000I-175500J0D01*
G01*
G37*
G36*
G01*
X151040500Y-123876000D02*
X150689500Y-123876000D01*
G75*
G02*
X150514000Y-123700500I0J175500D01*
G01*
X150514000Y-121899500D01*
G75*
G02*
X150689500Y-121724000I175500J0D01*
G01*
X151040500Y-121724000D01*
G75*
G02*
X151216000Y-121899500I0J-175500D01*
G01*
X151216000Y-123700500D01*
G75*
G02*
X151040500Y-123876000I-175500J0D01*
G01*
G37*
G36*
G01*
X152310500Y-123876000D02*
X151959500Y-123876000D01*
G75*
G02*
X151784000Y-123700500I0J175500D01*
G01*
X151784000Y-121899500D01*
G75*
G02*
X151959500Y-121724000I175500J0D01*
G01*
X152310500Y-121724000D01*
G75*
G02*
X152486000Y-121899500I0J-175500D01*
G01*
X152486000Y-123700500D01*
G75*
G02*
X152310500Y-123876000I-175500J0D01*
G01*
G37*
G36*
G01*
X153580500Y-123876000D02*
X153229500Y-123876000D01*
G75*
G02*
X153054000Y-123700500I0J175500D01*
G01*
X153054000Y-121899500D01*
G75*
G02*
X153229500Y-121724000I175500J0D01*
G01*
X153580500Y-121724000D01*
G75*
G02*
X153756000Y-121899500I0J-175500D01*
G01*
X153756000Y-123700500D01*
G75*
G02*
X153580500Y-123876000I-175500J0D01*
G01*
G37*
G36*
G01*
X154850500Y-123876000D02*
X154499500Y-123876000D01*
G75*
G02*
X154324000Y-123700500I0J175500D01*
G01*
X154324000Y-121899500D01*
G75*
G02*
X154499500Y-121724000I175500J0D01*
G01*
X154850500Y-121724000D01*
G75*
G02*
X155026000Y-121899500I0J-175500D01*
G01*
X155026000Y-123700500D01*
G75*
G02*
X154850500Y-123876000I-175500J0D01*
G01*
G37*
G36*
G01*
X156120500Y-123876000D02*
X155769500Y-123876000D01*
G75*
G02*
X155594000Y-123700500I0J175500D01*
G01*
X155594000Y-121899500D01*
G75*
G02*
X155769500Y-121724000I175500J0D01*
G01*
X156120500Y-121724000D01*
G75*
G02*
X156296000Y-121899500I0J-175500D01*
G01*
X156296000Y-123700500D01*
G75*
G02*
X156120500Y-123876000I-175500J0D01*
G01*
G37*
G36*
G01*
X185150500Y-106476000D02*
X184949500Y-106476000D01*
G75*
G02*
X184849000Y-106375500I0J100500D01*
G01*
X184849000Y-105024500D01*
G75*
G02*
X184949500Y-104924000I100500J0D01*
G01*
X185150500Y-104924000D01*
G75*
G02*
X185251000Y-105024500I0J-100500D01*
G01*
X185251000Y-106375500D01*
G75*
G02*
X185150500Y-106476000I-100500J0D01*
G01*
G37*
G36*
G01*
X184650500Y-106476000D02*
X184449500Y-106476000D01*
G75*
G02*
X184349000Y-106375500I0J100500D01*
G01*
X184349000Y-105024500D01*
G75*
G02*
X184449500Y-104924000I100500J0D01*
G01*
X184650500Y-104924000D01*
G75*
G02*
X184751000Y-105024500I0J-100500D01*
G01*
X184751000Y-106375500D01*
G75*
G02*
X184650500Y-106476000I-100500J0D01*
G01*
G37*
G36*
G01*
X184150500Y-106476000D02*
X183949500Y-106476000D01*
G75*
G02*
X183849000Y-106375500I0J100500D01*
G01*
X183849000Y-105024500D01*
G75*
G02*
X183949500Y-104924000I100500J0D01*
G01*
X184150500Y-104924000D01*
G75*
G02*
X184251000Y-105024500I0J-100500D01*
G01*
X184251000Y-106375500D01*
G75*
G02*
X184150500Y-106476000I-100500J0D01*
G01*
G37*
G36*
G01*
X183650500Y-106476000D02*
X183449500Y-106476000D01*
G75*
G02*
X183349000Y-106375500I0J100500D01*
G01*
X183349000Y-105024500D01*
G75*
G02*
X183449500Y-104924000I100500J0D01*
G01*
X183650500Y-104924000D01*
G75*
G02*
X183751000Y-105024500I0J-100500D01*
G01*
X183751000Y-106375500D01*
G75*
G02*
X183650500Y-106476000I-100500J0D01*
G01*
G37*
G36*
G01*
X183150500Y-106476000D02*
X182949500Y-106476000D01*
G75*
G02*
X182849000Y-106375500I0J100500D01*
G01*
X182849000Y-105024500D01*
G75*
G02*
X182949500Y-104924000I100500J0D01*
G01*
X183150500Y-104924000D01*
G75*
G02*
X183251000Y-105024500I0J-100500D01*
G01*
X183251000Y-106375500D01*
G75*
G02*
X183150500Y-106476000I-100500J0D01*
G01*
G37*
G36*
G01*
X183150500Y-110876000D02*
X182949500Y-110876000D01*
G75*
G02*
X182849000Y-110775500I0J100500D01*
G01*
X182849000Y-109424500D01*
G75*
G02*
X182949500Y-109324000I100500J0D01*
G01*
X183150500Y-109324000D01*
G75*
G02*
X183251000Y-109424500I0J-100500D01*
G01*
X183251000Y-110775500D01*
G75*
G02*
X183150500Y-110876000I-100500J0D01*
G01*
G37*
G36*
G01*
X183650500Y-110876000D02*
X183449500Y-110876000D01*
G75*
G02*
X183349000Y-110775500I0J100500D01*
G01*
X183349000Y-109424500D01*
G75*
G02*
X183449500Y-109324000I100500J0D01*
G01*
X183650500Y-109324000D01*
G75*
G02*
X183751000Y-109424500I0J-100500D01*
G01*
X183751000Y-110775500D01*
G75*
G02*
X183650500Y-110876000I-100500J0D01*
G01*
G37*
G36*
G01*
X184150500Y-110876000D02*
X183949500Y-110876000D01*
G75*
G02*
X183849000Y-110775500I0J100500D01*
G01*
X183849000Y-109424500D01*
G75*
G02*
X183949500Y-109324000I100500J0D01*
G01*
X184150500Y-109324000D01*
G75*
G02*
X184251000Y-109424500I0J-100500D01*
G01*
X184251000Y-110775500D01*
G75*
G02*
X184150500Y-110876000I-100500J0D01*
G01*
G37*
G36*
G01*
X184650500Y-110876000D02*
X184449500Y-110876000D01*
G75*
G02*
X184349000Y-110775500I0J100500D01*
G01*
X184349000Y-109424500D01*
G75*
G02*
X184449500Y-109324000I100500J0D01*
G01*
X184650500Y-109324000D01*
G75*
G02*
X184751000Y-109424500I0J-100500D01*
G01*
X184751000Y-110775500D01*
G75*
G02*
X184650500Y-110876000I-100500J0D01*
G01*
G37*
G36*
G01*
X185150500Y-110876000D02*
X184949500Y-110876000D01*
G75*
G02*
X184849000Y-110775500I0J100500D01*
G01*
X184849000Y-109424500D01*
G75*
G02*
X184949500Y-109324000I100500J0D01*
G01*
X185150500Y-109324000D01*
G75*
G02*
X185251000Y-109424500I0J-100500D01*
G01*
X185251000Y-110775500D01*
G75*
G02*
X185150500Y-110876000I-100500J0D01*
G01*
G37*
G36*
G01*
X168014500Y-115499000D02*
X168365500Y-115499000D01*
G75*
G02*
X168541000Y-115674500I0J-175500D01*
G01*
X168541000Y-117375500D01*
G75*
G02*
X168365500Y-117551000I-175500J0D01*
G01*
X168014500Y-117551000D01*
G75*
G02*
X167839000Y-117375500I0J175500D01*
G01*
X167839000Y-115674500D01*
G75*
G02*
X168014500Y-115499000I175500J0D01*
G01*
G37*
G36*
G01*
X169284500Y-115499000D02*
X169635500Y-115499000D01*
G75*
G02*
X169811000Y-115674500I0J-175500D01*
G01*
X169811000Y-117375500D01*
G75*
G02*
X169635500Y-117551000I-175500J0D01*
G01*
X169284500Y-117551000D01*
G75*
G02*
X169109000Y-117375500I0J175500D01*
G01*
X169109000Y-115674500D01*
G75*
G02*
X169284500Y-115499000I175500J0D01*
G01*
G37*
G36*
G01*
X170554500Y-115499000D02*
X170905500Y-115499000D01*
G75*
G02*
X171081000Y-115674500I0J-175500D01*
G01*
X171081000Y-117375500D01*
G75*
G02*
X170905500Y-117551000I-175500J0D01*
G01*
X170554500Y-117551000D01*
G75*
G02*
X170379000Y-117375500I0J175500D01*
G01*
X170379000Y-115674500D01*
G75*
G02*
X170554500Y-115499000I175500J0D01*
G01*
G37*
G36*
G01*
X171824500Y-115499000D02*
X172175500Y-115499000D01*
G75*
G02*
X172351000Y-115674500I0J-175500D01*
G01*
X172351000Y-117375500D01*
G75*
G02*
X172175500Y-117551000I-175500J0D01*
G01*
X171824500Y-117551000D01*
G75*
G02*
X171649000Y-117375500I0J175500D01*
G01*
X171649000Y-115674500D01*
G75*
G02*
X171824500Y-115499000I175500J0D01*
G01*
G37*
G36*
G01*
X173094500Y-115499000D02*
X173445500Y-115499000D01*
G75*
G02*
X173621000Y-115674500I0J-175500D01*
G01*
X173621000Y-117375500D01*
G75*
G02*
X173445500Y-117551000I-175500J0D01*
G01*
X173094500Y-117551000D01*
G75*
G02*
X172919000Y-117375500I0J175500D01*
G01*
X172919000Y-115674500D01*
G75*
G02*
X173094500Y-115499000I175500J0D01*
G01*
G37*
G36*
G01*
X174364500Y-115499000D02*
X174715500Y-115499000D01*
G75*
G02*
X174891000Y-115674500I0J-175500D01*
G01*
X174891000Y-117375500D01*
G75*
G02*
X174715500Y-117551000I-175500J0D01*
G01*
X174364500Y-117551000D01*
G75*
G02*
X174189000Y-117375500I0J175500D01*
G01*
X174189000Y-115674500D01*
G75*
G02*
X174364500Y-115499000I175500J0D01*
G01*
G37*
G36*
G01*
X175634500Y-115499000D02*
X175985500Y-115499000D01*
G75*
G02*
X176161000Y-115674500I0J-175500D01*
G01*
X176161000Y-117375500D01*
G75*
G02*
X175985500Y-117551000I-175500J0D01*
G01*
X175634500Y-117551000D01*
G75*
G02*
X175459000Y-117375500I0J175500D01*
G01*
X175459000Y-115674500D01*
G75*
G02*
X175634500Y-115499000I175500J0D01*
G01*
G37*
G36*
G01*
X175634500Y-110549000D02*
X175985500Y-110549000D01*
G75*
G02*
X176161000Y-110724500I0J-175500D01*
G01*
X176161000Y-112425500D01*
G75*
G02*
X175985500Y-112601000I-175500J0D01*
G01*
X175634500Y-112601000D01*
G75*
G02*
X175459000Y-112425500I0J175500D01*
G01*
X175459000Y-110724500D01*
G75*
G02*
X175634500Y-110549000I175500J0D01*
G01*
G37*
G36*
G01*
X174364500Y-110549000D02*
X174715500Y-110549000D01*
G75*
G02*
X174891000Y-110724500I0J-175500D01*
G01*
X174891000Y-112425500D01*
G75*
G02*
X174715500Y-112601000I-175500J0D01*
G01*
X174364500Y-112601000D01*
G75*
G02*
X174189000Y-112425500I0J175500D01*
G01*
X174189000Y-110724500D01*
G75*
G02*
X174364500Y-110549000I175500J0D01*
G01*
G37*
G36*
G01*
X173094500Y-110549000D02*
X173445500Y-110549000D01*
G75*
G02*
X173621000Y-110724500I0J-175500D01*
G01*
X173621000Y-112425500D01*
G75*
G02*
X173445500Y-112601000I-175500J0D01*
G01*
X173094500Y-112601000D01*
G75*
G02*
X172919000Y-112425500I0J175500D01*
G01*
X172919000Y-110724500D01*
G75*
G02*
X173094500Y-110549000I175500J0D01*
G01*
G37*
G36*
G01*
X171824500Y-110549000D02*
X172175500Y-110549000D01*
G75*
G02*
X172351000Y-110724500I0J-175500D01*
G01*
X172351000Y-112425500D01*
G75*
G02*
X172175500Y-112601000I-175500J0D01*
G01*
X171824500Y-112601000D01*
G75*
G02*
X171649000Y-112425500I0J175500D01*
G01*
X171649000Y-110724500D01*
G75*
G02*
X171824500Y-110549000I175500J0D01*
G01*
G37*
G36*
G01*
X170554500Y-110549000D02*
X170905500Y-110549000D01*
G75*
G02*
X171081000Y-110724500I0J-175500D01*
G01*
X171081000Y-112425500D01*
G75*
G02*
X170905500Y-112601000I-175500J0D01*
G01*
X170554500Y-112601000D01*
G75*
G02*
X170379000Y-112425500I0J175500D01*
G01*
X170379000Y-110724500D01*
G75*
G02*
X170554500Y-110549000I175500J0D01*
G01*
G37*
G36*
G01*
X169284500Y-110549000D02*
X169635500Y-110549000D01*
G75*
G02*
X169811000Y-110724500I0J-175500D01*
G01*
X169811000Y-112425500D01*
G75*
G02*
X169635500Y-112601000I-175500J0D01*
G01*
X169284500Y-112601000D01*
G75*
G02*
X169109000Y-112425500I0J175500D01*
G01*
X169109000Y-110724500D01*
G75*
G02*
X169284500Y-110549000I175500J0D01*
G01*
G37*
G36*
G01*
X168014500Y-110549000D02*
X168365500Y-110549000D01*
G75*
G02*
X168541000Y-110724500I0J-175500D01*
G01*
X168541000Y-112425500D01*
G75*
G02*
X168365500Y-112601000I-175500J0D01*
G01*
X168014500Y-112601000D01*
G75*
G02*
X167839000Y-112425500I0J175500D01*
G01*
X167839000Y-110724500D01*
G75*
G02*
X168014500Y-110549000I175500J0D01*
G01*
G37*
G36*
G01*
X164849000Y-109726124D02*
X164849000Y-108773876D01*
G75*
G02*
X165123876Y-108499000I274876J0D01*
G01*
X165701124Y-108499000D01*
G75*
G02*
X165976000Y-108773876I0J-274876D01*
G01*
X165976000Y-109726124D01*
G75*
G02*
X165701124Y-110001000I-274876J0D01*
G01*
X165123876Y-110001000D01*
G75*
G02*
X164849000Y-109726124I0J274876D01*
G01*
G37*
G36*
G01*
X163024000Y-109726124D02*
X163024000Y-108773876D01*
G75*
G02*
X163298876Y-108499000I274876J0D01*
G01*
X163876124Y-108499000D01*
G75*
G02*
X164151000Y-108773876I0J-274876D01*
G01*
X164151000Y-109726124D01*
G75*
G02*
X163876124Y-110001000I-274876J0D01*
G01*
X163298876Y-110001000D01*
G75*
G02*
X163024000Y-109726124I0J274876D01*
G01*
G37*
G36*
G01*
X164849000Y-106476124D02*
X164849000Y-105523876D01*
G75*
G02*
X165123876Y-105249000I274876J0D01*
G01*
X165701124Y-105249000D01*
G75*
G02*
X165976000Y-105523876I0J-274876D01*
G01*
X165976000Y-106476124D01*
G75*
G02*
X165701124Y-106751000I-274876J0D01*
G01*
X165123876Y-106751000D01*
G75*
G02*
X164849000Y-106476124I0J274876D01*
G01*
G37*
G36*
G01*
X163024000Y-106476124D02*
X163024000Y-105523876D01*
G75*
G02*
X163298876Y-105249000I274876J0D01*
G01*
X163876124Y-105249000D01*
G75*
G02*
X164151000Y-105523876I0J-274876D01*
G01*
X164151000Y-106476124D01*
G75*
G02*
X163876124Y-106751000I-274876J0D01*
G01*
X163298876Y-106751000D01*
G75*
G02*
X163024000Y-106476124I0J274876D01*
G01*
G37*
G36*
G01*
X145226124Y-117801000D02*
X144273876Y-117801000D01*
G75*
G02*
X143999000Y-117526124I0J274876D01*
G01*
X143999000Y-116948876D01*
G75*
G02*
X144273876Y-116674000I274876J0D01*
G01*
X145226124Y-116674000D01*
G75*
G02*
X145501000Y-116948876I0J-274876D01*
G01*
X145501000Y-117526124D01*
G75*
G02*
X145226124Y-117801000I-274876J0D01*
G01*
G37*
G36*
G01*
X145226124Y-119626000D02*
X144273876Y-119626000D01*
G75*
G02*
X143999000Y-119351124I0J274876D01*
G01*
X143999000Y-118773876D01*
G75*
G02*
X144273876Y-118499000I274876J0D01*
G01*
X145226124Y-118499000D01*
G75*
G02*
X145501000Y-118773876I0J-274876D01*
G01*
X145501000Y-119351124D01*
G75*
G02*
X145226124Y-119626000I-274876J0D01*
G01*
G37*
G36*
G01*
X161349000Y-109726124D02*
X161349000Y-108773876D01*
G75*
G02*
X161623876Y-108499000I274876J0D01*
G01*
X162201124Y-108499000D01*
G75*
G02*
X162476000Y-108773876I0J-274876D01*
G01*
X162476000Y-109726124D01*
G75*
G02*
X162201124Y-110001000I-274876J0D01*
G01*
X161623876Y-110001000D01*
G75*
G02*
X161349000Y-109726124I0J274876D01*
G01*
G37*
G36*
G01*
X159524000Y-109726124D02*
X159524000Y-108773876D01*
G75*
G02*
X159798876Y-108499000I274876J0D01*
G01*
X160376124Y-108499000D01*
G75*
G02*
X160651000Y-108773876I0J-274876D01*
G01*
X160651000Y-109726124D01*
G75*
G02*
X160376124Y-110001000I-274876J0D01*
G01*
X159798876Y-110001000D01*
G75*
G02*
X159524000Y-109726124I0J274876D01*
G01*
G37*
G36*
G01*
X180899000Y-117196124D02*
X180899000Y-116243876D01*
G75*
G02*
X181173876Y-115969000I274876J0D01*
G01*
X181751124Y-115969000D01*
G75*
G02*
X182026000Y-116243876I0J-274876D01*
G01*
X182026000Y-117196124D01*
G75*
G02*
X181751124Y-117471000I-274876J0D01*
G01*
X181173876Y-117471000D01*
G75*
G02*
X180899000Y-117196124I0J274876D01*
G01*
G37*
G36*
G01*
X179074000Y-117196124D02*
X179074000Y-116243876D01*
G75*
G02*
X179348876Y-115969000I274876J0D01*
G01*
X179926124Y-115969000D01*
G75*
G02*
X180201000Y-116243876I0J-274876D01*
G01*
X180201000Y-117196124D01*
G75*
G02*
X179926124Y-117471000I-274876J0D01*
G01*
X179348876Y-117471000D01*
G75*
G02*
X179074000Y-117196124I0J274876D01*
G01*
G37*
G36*
G01*
X179973876Y-108499000D02*
X180926124Y-108499000D01*
G75*
G02*
X181201000Y-108773876I0J-274876D01*
G01*
X181201000Y-109351124D01*
G75*
G02*
X180926124Y-109626000I-274876J0D01*
G01*
X179973876Y-109626000D01*
G75*
G02*
X179699000Y-109351124I0J274876D01*
G01*
X179699000Y-108773876D01*
G75*
G02*
X179973876Y-108499000I274876J0D01*
G01*
G37*
G36*
G01*
X179973876Y-106674000D02*
X180926124Y-106674000D01*
G75*
G02*
X181201000Y-106948876I0J-274876D01*
G01*
X181201000Y-107526124D01*
G75*
G02*
X180926124Y-107801000I-274876J0D01*
G01*
X179973876Y-107801000D01*
G75*
G02*
X179699000Y-107526124I0J274876D01*
G01*
X179699000Y-106948876D01*
G75*
G02*
X179973876Y-106674000I274876J0D01*
G01*
G37*
G36*
G01*
X177973876Y-108499000D02*
X178926124Y-108499000D01*
G75*
G02*
X179201000Y-108773876I0J-274876D01*
G01*
X179201000Y-109351124D01*
G75*
G02*
X178926124Y-109626000I-274876J0D01*
G01*
X177973876Y-109626000D01*
G75*
G02*
X177699000Y-109351124I0J274876D01*
G01*
X177699000Y-108773876D01*
G75*
G02*
X177973876Y-108499000I274876J0D01*
G01*
G37*
G36*
G01*
X177973876Y-106674000D02*
X178926124Y-106674000D01*
G75*
G02*
X179201000Y-106948876I0J-274876D01*
G01*
X179201000Y-107526124D01*
G75*
G02*
X178926124Y-107801000I-274876J0D01*
G01*
X177973876Y-107801000D01*
G75*
G02*
X177699000Y-107526124I0J274876D01*
G01*
X177699000Y-106948876D01*
G75*
G02*
X177973876Y-106674000I274876J0D01*
G01*
G37*
G36*
G01*
X190513876Y-122779000D02*
X191466124Y-122779000D01*
G75*
G02*
X191741000Y-123053876I0J-274876D01*
G01*
X191741000Y-123631124D01*
G75*
G02*
X191466124Y-123906000I-274876J0D01*
G01*
X190513876Y-123906000D01*
G75*
G02*
X190239000Y-123631124I0J274876D01*
G01*
X190239000Y-123053876D01*
G75*
G02*
X190513876Y-122779000I274876J0D01*
G01*
G37*
G36*
G01*
X190513876Y-120954000D02*
X191466124Y-120954000D01*
G75*
G02*
X191741000Y-121228876I0J-274876D01*
G01*
X191741000Y-121806124D01*
G75*
G02*
X191466124Y-122081000I-274876J0D01*
G01*
X190513876Y-122081000D01*
G75*
G02*
X190239000Y-121806124I0J274876D01*
G01*
X190239000Y-121228876D01*
G75*
G02*
X190513876Y-120954000I274876J0D01*
G01*
G37*
G36*
G01*
X202201000Y-109833876D02*
X202201000Y-110786124D01*
G75*
G02*
X201926124Y-111061000I-274876J0D01*
G01*
X201348876Y-111061000D01*
G75*
G02*
X201074000Y-110786124I0J274876D01*
G01*
X201074000Y-109833876D01*
G75*
G02*
X201348876Y-109559000I274876J0D01*
G01*
X201926124Y-109559000D01*
G75*
G02*
X202201000Y-109833876I0J-274876D01*
G01*
G37*
G36*
G01*
X204026000Y-109833876D02*
X204026000Y-110786124D01*
G75*
G02*
X203751124Y-111061000I-274876J0D01*
G01*
X203173876Y-111061000D01*
G75*
G02*
X202899000Y-110786124I0J274876D01*
G01*
X202899000Y-109833876D01*
G75*
G02*
X203173876Y-109559000I274876J0D01*
G01*
X203751124Y-109559000D01*
G75*
G02*
X204026000Y-109833876I0J-274876D01*
G01*
G37*
G36*
G01*
X202929000Y-108636124D02*
X202929000Y-107683876D01*
G75*
G02*
X203203876Y-107409000I274876J0D01*
G01*
X203781124Y-107409000D01*
G75*
G02*
X204056000Y-107683876I0J-274876D01*
G01*
X204056000Y-108636124D01*
G75*
G02*
X203781124Y-108911000I-274876J0D01*
G01*
X203203876Y-108911000D01*
G75*
G02*
X202929000Y-108636124I0J274876D01*
G01*
G37*
G36*
G01*
X201104000Y-108636124D02*
X201104000Y-107683876D01*
G75*
G02*
X201378876Y-107409000I274876J0D01*
G01*
X201956124Y-107409000D01*
G75*
G02*
X202231000Y-107683876I0J-274876D01*
G01*
X202231000Y-108636124D01*
G75*
G02*
X201956124Y-108911000I-274876J0D01*
G01*
X201378876Y-108911000D01*
G75*
G02*
X201104000Y-108636124I0J274876D01*
G01*
G37*
G36*
G01*
X205819000Y-113656124D02*
X205819000Y-112703876D01*
G75*
G02*
X206093876Y-112429000I274876J0D01*
G01*
X206671124Y-112429000D01*
G75*
G02*
X206946000Y-112703876I0J-274876D01*
G01*
X206946000Y-113656124D01*
G75*
G02*
X206671124Y-113931000I-274876J0D01*
G01*
X206093876Y-113931000D01*
G75*
G02*
X205819000Y-113656124I0J274876D01*
G01*
G37*
G36*
G01*
X203994000Y-113656124D02*
X203994000Y-112703876D01*
G75*
G02*
X204268876Y-112429000I274876J0D01*
G01*
X204846124Y-112429000D01*
G75*
G02*
X205121000Y-112703876I0J-274876D01*
G01*
X205121000Y-113656124D01*
G75*
G02*
X204846124Y-113931000I-274876J0D01*
G01*
X204268876Y-113931000D01*
G75*
G02*
X203994000Y-113656124I0J274876D01*
G01*
G37*
G36*
G01*
X207949000Y-102656124D02*
X207949000Y-101703876D01*
G75*
G02*
X208223876Y-101429000I274876J0D01*
G01*
X208801124Y-101429000D01*
G75*
G02*
X209076000Y-101703876I0J-274876D01*
G01*
X209076000Y-102656124D01*
G75*
G02*
X208801124Y-102931000I-274876J0D01*
G01*
X208223876Y-102931000D01*
G75*
G02*
X207949000Y-102656124I0J274876D01*
G01*
G37*
G36*
G01*
X206124000Y-102656124D02*
X206124000Y-101703876D01*
G75*
G02*
X206398876Y-101429000I274876J0D01*
G01*
X206976124Y-101429000D01*
G75*
G02*
X207251000Y-101703876I0J-274876D01*
G01*
X207251000Y-102656124D01*
G75*
G02*
X206976124Y-102931000I-274876J0D01*
G01*
X206398876Y-102931000D01*
G75*
G02*
X206124000Y-102656124I0J274876D01*
G01*
G37*
G36*
G01*
X216369000Y-104656124D02*
X216369000Y-103703876D01*
G75*
G02*
X216643876Y-103429000I274876J0D01*
G01*
X217221124Y-103429000D01*
G75*
G02*
X217496000Y-103703876I0J-274876D01*
G01*
X217496000Y-104656124D01*
G75*
G02*
X217221124Y-104931000I-274876J0D01*
G01*
X216643876Y-104931000D01*
G75*
G02*
X216369000Y-104656124I0J274876D01*
G01*
G37*
G36*
G01*
X214544000Y-104656124D02*
X214544000Y-103703876D01*
G75*
G02*
X214818876Y-103429000I274876J0D01*
G01*
X215396124Y-103429000D01*
G75*
G02*
X215671000Y-103703876I0J-274876D01*
G01*
X215671000Y-104656124D01*
G75*
G02*
X215396124Y-104931000I-274876J0D01*
G01*
X214818876Y-104931000D01*
G75*
G02*
X214544000Y-104656124I0J274876D01*
G01*
G37*
G36*
G01*
X175701000Y-104373876D02*
X175701000Y-105326124D01*
G75*
G02*
X175426124Y-105601000I-274876J0D01*
G01*
X174848876Y-105601000D01*
G75*
G02*
X174574000Y-105326124I0J274876D01*
G01*
X174574000Y-104373876D01*
G75*
G02*
X174848876Y-104099000I274876J0D01*
G01*
X175426124Y-104099000D01*
G75*
G02*
X175701000Y-104373876I0J-274876D01*
G01*
G37*
G36*
G01*
X177526000Y-104373876D02*
X177526000Y-105326124D01*
G75*
G02*
X177251124Y-105601000I-274876J0D01*
G01*
X176673876Y-105601000D01*
G75*
G02*
X176399000Y-105326124I0J274876D01*
G01*
X176399000Y-104373876D01*
G75*
G02*
X176673876Y-104099000I274876J0D01*
G01*
X177251124Y-104099000D01*
G75*
G02*
X177526000Y-104373876I0J-274876D01*
G01*
G37*
G36*
G01*
X192399000Y-105336124D02*
X192399000Y-104383876D01*
G75*
G02*
X192673876Y-104109000I274876J0D01*
G01*
X193251124Y-104109000D01*
G75*
G02*
X193526000Y-104383876I0J-274876D01*
G01*
X193526000Y-105336124D01*
G75*
G02*
X193251124Y-105611000I-274876J0D01*
G01*
X192673876Y-105611000D01*
G75*
G02*
X192399000Y-105336124I0J274876D01*
G01*
G37*
G36*
G01*
X190574000Y-105336124D02*
X190574000Y-104383876D01*
G75*
G02*
X190848876Y-104109000I274876J0D01*
G01*
X191426124Y-104109000D01*
G75*
G02*
X191701000Y-104383876I0J-274876D01*
G01*
X191701000Y-105336124D01*
G75*
G02*
X191426124Y-105611000I-274876J0D01*
G01*
X190848876Y-105611000D01*
G75*
G02*
X190574000Y-105336124I0J274876D01*
G01*
G37*
G36*
G01*
X193129000Y-115250000D02*
X193129000Y-113450000D01*
G75*
G02*
X193180000Y-113399000I51000J0D01*
G01*
X194980000Y-113399000D01*
G75*
G02*
X195031000Y-113450000I0J-51000D01*
G01*
X195031000Y-115250000D01*
G75*
G02*
X194980000Y-115301000I-51000J0D01*
G01*
X193180000Y-115301000D01*
G75*
G02*
X193129000Y-115250000I0J51000D01*
G01*
G37*
D15*
X197880000Y-114350000D03*
D12*
X157120000Y-110000000D03*
X153310000Y-110000000D03*
X149500000Y-110000000D03*
G36*
G01*
X144639000Y-111000000D02*
X144639000Y-109000000D01*
G75*
G02*
X144690000Y-108949000I51000J0D01*
G01*
X146690000Y-108949000D01*
G75*
G02*
X146741000Y-109000000I0J-51000D01*
G01*
X146741000Y-111000000D01*
G75*
G02*
X146690000Y-111051000I-51000J0D01*
G01*
X144690000Y-111051000D01*
G75*
G02*
X144639000Y-111000000I0J51000D01*
G01*
G37*
G36*
G01*
X169550000Y-108350000D02*
X169550000Y-105850000D01*
G75*
G02*
X170050000Y-105350000I500000J0D01*
G01*
X172550000Y-105350000D01*
G75*
G02*
X173050000Y-105850000I0J-500000D01*
G01*
X173050000Y-108350000D01*
G75*
G02*
X172550000Y-108850000I-500000J0D01*
G01*
X170050000Y-108850000D01*
G75*
G02*
X169550000Y-108350000I0J500000D01*
G01*
G37*
G36*
G01*
X195000000Y-108350000D02*
X195000000Y-105850000D01*
G75*
G02*
X195500000Y-105350000I500000J0D01*
G01*
X198000000Y-105350000D01*
G75*
G02*
X198500000Y-105850000I0J-500000D01*
G01*
X198500000Y-108350000D01*
G75*
G02*
X198000000Y-108850000I-500000J0D01*
G01*
X195500000Y-108850000D01*
G75*
G02*
X195000000Y-108350000I0J500000D01*
G01*
G37*
D16*
X219850000Y-106030000D03*
X224950000Y-107630000D03*
G36*
G01*
X211350000Y-121849000D02*
X213150000Y-121849000D01*
G75*
G02*
X213201000Y-121900000I0J-51000D01*
G01*
X213201000Y-124400000D01*
G75*
G02*
X213150000Y-124451000I-51000J0D01*
G01*
X211350000Y-124451000D01*
G75*
G02*
X211299000Y-124400000I0J51000D01*
G01*
X211299000Y-121900000D01*
G75*
G02*
X211350000Y-121849000I51000J0D01*
G01*
G37*
G36*
G01*
X211350000Y-117849000D02*
X213150000Y-117849000D01*
G75*
G02*
X213201000Y-117900000I0J-51000D01*
G01*
X213201000Y-120400000D01*
G75*
G02*
X213150000Y-120451000I-51000J0D01*
G01*
X211350000Y-120451000D01*
G75*
G02*
X211299000Y-120400000I0J51000D01*
G01*
X211299000Y-117900000D01*
G75*
G02*
X211350000Y-117849000I51000J0D01*
G01*
G37*
G36*
G01*
X158750500Y-113751000D02*
X157749500Y-113751000D01*
G75*
G02*
X157474000Y-113475500I0J275500D01*
G01*
X157474000Y-112924500D01*
G75*
G02*
X157749500Y-112649000I275500J0D01*
G01*
X158750500Y-112649000D01*
G75*
G02*
X159026000Y-112924500I0J-275500D01*
G01*
X159026000Y-113475500D01*
G75*
G02*
X158750500Y-113751000I-275500J0D01*
G01*
G37*
G36*
G01*
X158750500Y-115651000D02*
X157749500Y-115651000D01*
G75*
G02*
X157474000Y-115375500I0J275500D01*
G01*
X157474000Y-114824500D01*
G75*
G02*
X157749500Y-114549000I275500J0D01*
G01*
X158750500Y-114549000D01*
G75*
G02*
X159026000Y-114824500I0J-275500D01*
G01*
X159026000Y-115375500D01*
G75*
G02*
X158750500Y-115651000I-275500J0D01*
G01*
G37*
G36*
G01*
X144249500Y-122549000D02*
X145250500Y-122549000D01*
G75*
G02*
X145526000Y-122824500I0J-275500D01*
G01*
X145526000Y-123375500D01*
G75*
G02*
X145250500Y-123651000I-275500J0D01*
G01*
X144249500Y-123651000D01*
G75*
G02*
X143974000Y-123375500I0J275500D01*
G01*
X143974000Y-122824500D01*
G75*
G02*
X144249500Y-122549000I275500J0D01*
G01*
G37*
G36*
G01*
X144249500Y-120649000D02*
X145250500Y-120649000D01*
G75*
G02*
X145526000Y-120924500I0J-275500D01*
G01*
X145526000Y-121475500D01*
G75*
G02*
X145250500Y-121751000I-275500J0D01*
G01*
X144249500Y-121751000D01*
G75*
G02*
X143974000Y-121475500I0J275500D01*
G01*
X143974000Y-120924500D01*
G75*
G02*
X144249500Y-120649000I275500J0D01*
G01*
G37*
G36*
G01*
X202351000Y-104271172D02*
X202351000Y-106528828D01*
G75*
G02*
X202078828Y-106801000I-272172J0D01*
G01*
X201371172Y-106801000D01*
G75*
G02*
X201099000Y-106528828I0J272172D01*
G01*
X201099000Y-104271172D01*
G75*
G02*
X201371172Y-103999000I272172J0D01*
G01*
X202078828Y-103999000D01*
G75*
G02*
X202351000Y-104271172I0J-272172D01*
G01*
G37*
G36*
G01*
X205301000Y-104271172D02*
X205301000Y-106528828D01*
G75*
G02*
X205028828Y-106801000I-272172J0D01*
G01*
X204321172Y-106801000D01*
G75*
G02*
X204049000Y-106528828I0J272172D01*
G01*
X204049000Y-104271172D01*
G75*
G02*
X204321172Y-103999000I272172J0D01*
G01*
X205028828Y-103999000D01*
G75*
G02*
X205301000Y-104271172I0J-272172D01*
G01*
G37*
G36*
G01*
X209559000Y-113640500D02*
X209559000Y-112639500D01*
G75*
G02*
X209834500Y-112364000I275500J0D01*
G01*
X210385500Y-112364000D01*
G75*
G02*
X210661000Y-112639500I0J-275500D01*
G01*
X210661000Y-113640500D01*
G75*
G02*
X210385500Y-113916000I-275500J0D01*
G01*
X209834500Y-113916000D01*
G75*
G02*
X209559000Y-113640500I0J275500D01*
G01*
G37*
G36*
G01*
X207659000Y-113640500D02*
X207659000Y-112639500D01*
G75*
G02*
X207934500Y-112364000I275500J0D01*
G01*
X208485500Y-112364000D01*
G75*
G02*
X208761000Y-112639500I0J-275500D01*
G01*
X208761000Y-113640500D01*
G75*
G02*
X208485500Y-113916000I-275500J0D01*
G01*
X207934500Y-113916000D01*
G75*
G02*
X207659000Y-113640500I0J275500D01*
G01*
G37*
G36*
G01*
X209559000Y-115770500D02*
X209559000Y-114769500D01*
G75*
G02*
X209834500Y-114494000I275500J0D01*
G01*
X210385500Y-114494000D01*
G75*
G02*
X210661000Y-114769500I0J-275500D01*
G01*
X210661000Y-115770500D01*
G75*
G02*
X210385500Y-116046000I-275500J0D01*
G01*
X209834500Y-116046000D01*
G75*
G02*
X209559000Y-115770500I0J275500D01*
G01*
G37*
G36*
G01*
X207659000Y-115770500D02*
X207659000Y-114769500D01*
G75*
G02*
X207934500Y-114494000I275500J0D01*
G01*
X208485500Y-114494000D01*
G75*
G02*
X208761000Y-114769500I0J-275500D01*
G01*
X208761000Y-115770500D01*
G75*
G02*
X208485500Y-116046000I-275500J0D01*
G01*
X207934500Y-116046000D01*
G75*
G02*
X207659000Y-115770500I0J275500D01*
G01*
G37*
G36*
G01*
X203989000Y-115770500D02*
X203989000Y-114769500D01*
G75*
G02*
X204264500Y-114494000I275500J0D01*
G01*
X204815500Y-114494000D01*
G75*
G02*
X205091000Y-114769500I0J-275500D01*
G01*
X205091000Y-115770500D01*
G75*
G02*
X204815500Y-116046000I-275500J0D01*
G01*
X204264500Y-116046000D01*
G75*
G02*
X203989000Y-115770500I0J275500D01*
G01*
G37*
G36*
G01*
X202089000Y-115770500D02*
X202089000Y-114769500D01*
G75*
G02*
X202364500Y-114494000I275500J0D01*
G01*
X202915500Y-114494000D01*
G75*
G02*
X203191000Y-114769500I0J-275500D01*
G01*
X203191000Y-115770500D01*
G75*
G02*
X202915500Y-116046000I-275500J0D01*
G01*
X202364500Y-116046000D01*
G75*
G02*
X202089000Y-115770500I0J275500D01*
G01*
G37*
G36*
G01*
X216439000Y-108330500D02*
X216439000Y-107329500D01*
G75*
G02*
X216714500Y-107054000I275500J0D01*
G01*
X217265500Y-107054000D01*
G75*
G02*
X217541000Y-107329500I0J-275500D01*
G01*
X217541000Y-108330500D01*
G75*
G02*
X217265500Y-108606000I-275500J0D01*
G01*
X216714500Y-108606000D01*
G75*
G02*
X216439000Y-108330500I0J275500D01*
G01*
G37*
G36*
G01*
X214539000Y-108330500D02*
X214539000Y-107329500D01*
G75*
G02*
X214814500Y-107054000I275500J0D01*
G01*
X215365500Y-107054000D01*
G75*
G02*
X215641000Y-107329500I0J-275500D01*
G01*
X215641000Y-108330500D01*
G75*
G02*
X215365500Y-108606000I-275500J0D01*
G01*
X214814500Y-108606000D01*
G75*
G02*
X214539000Y-108330500I0J275500D01*
G01*
G37*
G36*
G01*
X225499000Y-103830500D02*
X225499000Y-102829500D01*
G75*
G02*
X225774500Y-102554000I275500J0D01*
G01*
X226325500Y-102554000D01*
G75*
G02*
X226601000Y-102829500I0J-275500D01*
G01*
X226601000Y-103830500D01*
G75*
G02*
X226325500Y-104106000I-275500J0D01*
G01*
X225774500Y-104106000D01*
G75*
G02*
X225499000Y-103830500I0J275500D01*
G01*
G37*
G36*
G01*
X223599000Y-103830500D02*
X223599000Y-102829500D01*
G75*
G02*
X223874500Y-102554000I275500J0D01*
G01*
X224425500Y-102554000D01*
G75*
G02*
X224701000Y-102829500I0J-275500D01*
G01*
X224701000Y-103830500D01*
G75*
G02*
X224425500Y-104106000I-275500J0D01*
G01*
X223874500Y-104106000D01*
G75*
G02*
X223599000Y-103830500I0J275500D01*
G01*
G37*
G36*
G01*
X221699000Y-104058828D02*
X221699000Y-102701172D01*
G75*
G02*
X221971172Y-102429000I272172J0D01*
G01*
X222678828Y-102429000D01*
G75*
G02*
X222951000Y-102701172I0J-272172D01*
G01*
X222951000Y-104058828D01*
G75*
G02*
X222678828Y-104331000I-272172J0D01*
G01*
X221971172Y-104331000D01*
G75*
G02*
X221699000Y-104058828I0J272172D01*
G01*
G37*
G36*
G01*
X218749000Y-104058828D02*
X218749000Y-102701172D01*
G75*
G02*
X219021172Y-102429000I272172J0D01*
G01*
X219728828Y-102429000D01*
G75*
G02*
X220001000Y-102701172I0J-272172D01*
G01*
X220001000Y-104058828D01*
G75*
G02*
X219728828Y-104331000I-272172J0D01*
G01*
X219021172Y-104331000D01*
G75*
G02*
X218749000Y-104058828I0J272172D01*
G01*
G37*
G36*
G01*
X164489000Y-114750500D02*
X164489000Y-113749500D01*
G75*
G02*
X164764500Y-113474000I275500J0D01*
G01*
X165315500Y-113474000D01*
G75*
G02*
X165591000Y-113749500I0J-275500D01*
G01*
X165591000Y-114750500D01*
G75*
G02*
X165315500Y-115026000I-275500J0D01*
G01*
X164764500Y-115026000D01*
G75*
G02*
X164489000Y-114750500I0J275500D01*
G01*
G37*
G36*
G01*
X162589000Y-114750500D02*
X162589000Y-113749500D01*
G75*
G02*
X162864500Y-113474000I275500J0D01*
G01*
X163415500Y-113474000D01*
G75*
G02*
X163691000Y-113749500I0J-275500D01*
G01*
X163691000Y-114750500D01*
G75*
G02*
X163415500Y-115026000I-275500J0D01*
G01*
X162864500Y-115026000D01*
G75*
G02*
X162589000Y-114750500I0J275500D01*
G01*
G37*
G36*
G01*
X189799000Y-110050500D02*
X189799000Y-109049500D01*
G75*
G02*
X190074500Y-108774000I275500J0D01*
G01*
X190625500Y-108774000D01*
G75*
G02*
X190901000Y-109049500I0J-275500D01*
G01*
X190901000Y-110050500D01*
G75*
G02*
X190625500Y-110326000I-275500J0D01*
G01*
X190074500Y-110326000D01*
G75*
G02*
X189799000Y-110050500I0J275500D01*
G01*
G37*
G36*
G01*
X187899000Y-110050500D02*
X187899000Y-109049500D01*
G75*
G02*
X188174500Y-108774000I275500J0D01*
G01*
X188725500Y-108774000D01*
G75*
G02*
X189001000Y-109049500I0J-275500D01*
G01*
X189001000Y-110050500D01*
G75*
G02*
X188725500Y-110326000I-275500J0D01*
G01*
X188174500Y-110326000D01*
G75*
G02*
X187899000Y-110050500I0J275500D01*
G01*
G37*
G36*
G01*
X164489000Y-116850500D02*
X164489000Y-115849500D01*
G75*
G02*
X164764500Y-115574000I275500J0D01*
G01*
X165315500Y-115574000D01*
G75*
G02*
X165591000Y-115849500I0J-275500D01*
G01*
X165591000Y-116850500D01*
G75*
G02*
X165315500Y-117126000I-275500J0D01*
G01*
X164764500Y-117126000D01*
G75*
G02*
X164489000Y-116850500I0J275500D01*
G01*
G37*
G36*
G01*
X162589000Y-116850500D02*
X162589000Y-115849500D01*
G75*
G02*
X162864500Y-115574000I275500J0D01*
G01*
X163415500Y-115574000D01*
G75*
G02*
X163691000Y-115849500I0J-275500D01*
G01*
X163691000Y-116850500D01*
G75*
G02*
X163415500Y-117126000I-275500J0D01*
G01*
X162864500Y-117126000D01*
G75*
G02*
X162589000Y-116850500I0J275500D01*
G01*
G37*
G36*
G01*
X189799000Y-112350500D02*
X189799000Y-111349500D01*
G75*
G02*
X190074500Y-111074000I275500J0D01*
G01*
X190625500Y-111074000D01*
G75*
G02*
X190901000Y-111349500I0J-275500D01*
G01*
X190901000Y-112350500D01*
G75*
G02*
X190625500Y-112626000I-275500J0D01*
G01*
X190074500Y-112626000D01*
G75*
G02*
X189799000Y-112350500I0J275500D01*
G01*
G37*
G36*
G01*
X187899000Y-112350500D02*
X187899000Y-111349500D01*
G75*
G02*
X188174500Y-111074000I275500J0D01*
G01*
X188725500Y-111074000D01*
G75*
G02*
X189001000Y-111349500I0J-275500D01*
G01*
X189001000Y-112350500D01*
G75*
G02*
X188725500Y-112626000I-275500J0D01*
G01*
X188174500Y-112626000D01*
G75*
G02*
X187899000Y-112350500I0J275500D01*
G01*
G37*
D17*
G36*
X183707056Y-109322010D02*
G01*
X183720491Y-109323333D01*
X183720876Y-109323409D01*
X183727890Y-109325537D01*
X183728252Y-109325687D01*
X183741935Y-109333000D01*
X183764298Y-109342263D01*
X183787948Y-109346967D01*
X183812054Y-109346967D01*
X183835704Y-109342262D01*
X183858065Y-109333000D01*
X183871748Y-109325687D01*
X183872110Y-109325537D01*
X183879124Y-109323409D01*
X183879509Y-109323333D01*
X183892944Y-109322010D01*
X183893140Y-109322000D01*
X183949500Y-109322000D01*
X183951232Y-109323000D01*
X183951232Y-109325000D01*
X183949696Y-109325990D01*
X183930288Y-109327901D01*
X183911809Y-109333507D01*
X183894781Y-109342608D01*
X183879857Y-109354857D01*
X183867608Y-109369781D01*
X183858507Y-109386809D01*
X183852901Y-109405288D01*
X183851000Y-109424594D01*
X183851000Y-110775406D01*
X183852901Y-110794712D01*
X183858507Y-110813191D01*
X183867608Y-110830219D01*
X183879857Y-110845143D01*
X183894781Y-110857392D01*
X183911809Y-110866493D01*
X183930288Y-110872099D01*
X183949696Y-110874010D01*
X183951322Y-110875175D01*
X183951126Y-110877165D01*
X183949500Y-110878000D01*
X183893140Y-110878000D01*
X183892944Y-110877990D01*
X183879509Y-110876667D01*
X183879124Y-110876591D01*
X183872110Y-110874463D01*
X183871748Y-110874313D01*
X183858065Y-110867000D01*
X183835702Y-110857737D01*
X183812052Y-110853033D01*
X183787946Y-110853033D01*
X183764296Y-110857738D01*
X183741935Y-110867000D01*
X183728252Y-110874313D01*
X183727890Y-110874463D01*
X183720876Y-110876591D01*
X183720491Y-110876667D01*
X183707056Y-110877990D01*
X183706860Y-110878000D01*
X183650500Y-110878000D01*
X183648768Y-110877000D01*
X183648768Y-110875000D01*
X183650304Y-110874010D01*
X183669712Y-110872099D01*
X183688191Y-110866493D01*
X183705219Y-110857392D01*
X183720143Y-110845143D01*
X183732392Y-110830219D01*
X183741493Y-110813191D01*
X183747099Y-110794712D01*
X183749000Y-110775406D01*
X183749000Y-109424594D01*
X183747099Y-109405288D01*
X183741493Y-109386809D01*
X183732392Y-109369781D01*
X183720143Y-109354857D01*
X183705219Y-109342608D01*
X183688191Y-109333507D01*
X183669712Y-109327901D01*
X183650304Y-109325990D01*
X183648678Y-109324825D01*
X183648874Y-109322835D01*
X183650500Y-109322000D01*
X183706860Y-109322000D01*
X183707056Y-109322010D01*
G37*
G36*
X184207056Y-109322010D02*
G01*
X184220491Y-109323333D01*
X184220876Y-109323409D01*
X184227890Y-109325537D01*
X184228252Y-109325687D01*
X184241935Y-109333000D01*
X184264298Y-109342263D01*
X184287948Y-109346967D01*
X184312054Y-109346967D01*
X184335704Y-109342262D01*
X184358065Y-109333000D01*
X184371748Y-109325687D01*
X184372110Y-109325537D01*
X184379124Y-109323409D01*
X184379509Y-109323333D01*
X184392944Y-109322010D01*
X184393140Y-109322000D01*
X184449500Y-109322000D01*
X184451232Y-109323000D01*
X184451232Y-109325000D01*
X184449696Y-109325990D01*
X184430288Y-109327901D01*
X184411809Y-109333507D01*
X184394781Y-109342608D01*
X184379857Y-109354857D01*
X184367608Y-109369781D01*
X184358507Y-109386809D01*
X184352901Y-109405288D01*
X184351000Y-109424594D01*
X184351000Y-110775406D01*
X184352901Y-110794712D01*
X184358507Y-110813191D01*
X184367608Y-110830219D01*
X184379857Y-110845143D01*
X184394781Y-110857392D01*
X184411809Y-110866493D01*
X184430288Y-110872099D01*
X184449696Y-110874010D01*
X184451322Y-110875175D01*
X184451126Y-110877165D01*
X184449500Y-110878000D01*
X184393140Y-110878000D01*
X184392944Y-110877990D01*
X184379509Y-110876667D01*
X184379124Y-110876591D01*
X184372110Y-110874463D01*
X184371748Y-110874313D01*
X184358065Y-110867000D01*
X184335702Y-110857737D01*
X184312052Y-110853033D01*
X184287946Y-110853033D01*
X184264296Y-110857738D01*
X184241935Y-110867000D01*
X184228252Y-110874313D01*
X184227890Y-110874463D01*
X184220876Y-110876591D01*
X184220491Y-110876667D01*
X184207056Y-110877990D01*
X184206860Y-110878000D01*
X184150500Y-110878000D01*
X184148768Y-110877000D01*
X184148768Y-110875000D01*
X184150304Y-110874010D01*
X184169712Y-110872099D01*
X184188191Y-110866493D01*
X184205219Y-110857392D01*
X184220143Y-110845143D01*
X184232392Y-110830219D01*
X184241493Y-110813191D01*
X184247099Y-110794712D01*
X184249000Y-110775406D01*
X184249000Y-109424594D01*
X184247099Y-109405288D01*
X184241493Y-109386809D01*
X184232392Y-109369781D01*
X184220143Y-109354857D01*
X184205219Y-109342608D01*
X184188191Y-109333507D01*
X184169712Y-109327901D01*
X184150304Y-109325990D01*
X184148678Y-109324825D01*
X184148874Y-109322835D01*
X184150500Y-109322000D01*
X184206860Y-109322000D01*
X184207056Y-109322010D01*
G37*
G36*
X184707056Y-109322010D02*
G01*
X184720491Y-109323333D01*
X184720876Y-109323409D01*
X184727890Y-109325537D01*
X184728252Y-109325687D01*
X184741935Y-109333000D01*
X184764298Y-109342263D01*
X184787948Y-109346967D01*
X184812054Y-109346967D01*
X184835704Y-109342262D01*
X184858065Y-109333000D01*
X184871748Y-109325687D01*
X184872110Y-109325537D01*
X184879124Y-109323409D01*
X184879509Y-109323333D01*
X184892944Y-109322010D01*
X184893140Y-109322000D01*
X184949500Y-109322000D01*
X184951232Y-109323000D01*
X184951232Y-109325000D01*
X184949696Y-109325990D01*
X184930288Y-109327901D01*
X184911809Y-109333507D01*
X184894781Y-109342608D01*
X184879857Y-109354857D01*
X184867608Y-109369781D01*
X184858507Y-109386809D01*
X184852901Y-109405288D01*
X184851000Y-109424594D01*
X184851000Y-110775406D01*
X184852901Y-110794712D01*
X184858507Y-110813191D01*
X184867608Y-110830219D01*
X184879857Y-110845143D01*
X184894781Y-110857392D01*
X184911809Y-110866493D01*
X184930288Y-110872099D01*
X184949696Y-110874010D01*
X184951322Y-110875175D01*
X184951126Y-110877165D01*
X184949500Y-110878000D01*
X184893140Y-110878000D01*
X184892944Y-110877990D01*
X184879509Y-110876667D01*
X184879124Y-110876591D01*
X184872110Y-110874463D01*
X184871748Y-110874313D01*
X184858065Y-110867000D01*
X184835702Y-110857737D01*
X184812052Y-110853033D01*
X184787946Y-110853033D01*
X184764296Y-110857738D01*
X184741935Y-110867000D01*
X184728252Y-110874313D01*
X184727890Y-110874463D01*
X184720876Y-110876591D01*
X184720491Y-110876667D01*
X184707056Y-110877990D01*
X184706860Y-110878000D01*
X184650500Y-110878000D01*
X184648768Y-110877000D01*
X184648768Y-110875000D01*
X184650304Y-110874010D01*
X184669712Y-110872099D01*
X184688191Y-110866493D01*
X184705219Y-110857392D01*
X184720143Y-110845143D01*
X184732392Y-110830219D01*
X184741493Y-110813191D01*
X184747099Y-110794712D01*
X184749000Y-110775406D01*
X184749000Y-109424594D01*
X184747099Y-109405288D01*
X184741493Y-109386809D01*
X184732392Y-109369781D01*
X184720143Y-109354857D01*
X184705219Y-109342608D01*
X184688191Y-109333507D01*
X184669712Y-109327901D01*
X184650304Y-109325990D01*
X184648678Y-109324825D01*
X184648874Y-109322835D01*
X184650500Y-109322000D01*
X184706860Y-109322000D01*
X184707056Y-109322010D01*
G37*
G36*
X183207056Y-109322010D02*
G01*
X183220491Y-109323333D01*
X183220876Y-109323409D01*
X183227890Y-109325537D01*
X183228252Y-109325687D01*
X183241935Y-109333000D01*
X183264298Y-109342263D01*
X183287948Y-109346967D01*
X183312054Y-109346967D01*
X183335704Y-109342262D01*
X183358065Y-109333000D01*
X183371748Y-109325687D01*
X183372110Y-109325537D01*
X183379124Y-109323409D01*
X183379509Y-109323333D01*
X183392944Y-109322010D01*
X183393140Y-109322000D01*
X183449500Y-109322000D01*
X183451232Y-109323000D01*
X183451232Y-109325000D01*
X183449696Y-109325990D01*
X183430288Y-109327901D01*
X183411809Y-109333507D01*
X183394781Y-109342608D01*
X183379857Y-109354857D01*
X183367608Y-109369781D01*
X183358507Y-109386809D01*
X183352901Y-109405288D01*
X183351000Y-109424594D01*
X183351000Y-110775406D01*
X183352901Y-110794712D01*
X183358507Y-110813191D01*
X183367608Y-110830219D01*
X183379857Y-110845143D01*
X183394781Y-110857392D01*
X183411809Y-110866493D01*
X183430288Y-110872099D01*
X183449696Y-110874010D01*
X183451322Y-110875175D01*
X183451126Y-110877165D01*
X183449500Y-110878000D01*
X183393140Y-110878000D01*
X183392944Y-110877990D01*
X183379509Y-110876667D01*
X183379124Y-110876591D01*
X183372110Y-110874463D01*
X183371748Y-110874313D01*
X183358065Y-110867000D01*
X183335702Y-110857737D01*
X183312052Y-110853033D01*
X183287946Y-110853033D01*
X183264296Y-110857738D01*
X183241935Y-110867000D01*
X183228252Y-110874313D01*
X183227890Y-110874463D01*
X183220876Y-110876591D01*
X183220491Y-110876667D01*
X183207056Y-110877990D01*
X183206860Y-110878000D01*
X183150500Y-110878000D01*
X183148768Y-110877000D01*
X183148768Y-110875000D01*
X183150304Y-110874010D01*
X183169712Y-110872099D01*
X183188191Y-110866493D01*
X183205219Y-110857392D01*
X183220143Y-110845143D01*
X183232392Y-110830219D01*
X183241493Y-110813191D01*
X183247099Y-110794712D01*
X183249000Y-110775406D01*
X183249000Y-109424594D01*
X183247099Y-109405288D01*
X183241493Y-109386809D01*
X183232392Y-109369781D01*
X183220143Y-109354857D01*
X183205219Y-109342608D01*
X183188191Y-109333507D01*
X183169712Y-109327901D01*
X183150304Y-109325990D01*
X183148678Y-109324825D01*
X183148874Y-109322835D01*
X183150500Y-109322000D01*
X183206860Y-109322000D01*
X183207056Y-109322010D01*
G37*
G36*
X208452165Y-107478874D02*
G01*
X208453000Y-107480500D01*
X208453000Y-107536862D01*
X208452990Y-107537058D01*
X208451187Y-107555366D01*
X208451111Y-107555751D01*
X208447560Y-107567456D01*
X208447410Y-107567818D01*
X208441643Y-107578608D01*
X208441425Y-107578934D01*
X208429916Y-107592957D01*
X208429784Y-107593102D01*
X208420909Y-107601978D01*
X208407514Y-107622025D01*
X208398289Y-107644299D01*
X208393585Y-107667950D01*
X208393585Y-107692056D01*
X208398290Y-107715706D01*
X208407517Y-107737979D01*
X208420912Y-107758027D01*
X208429788Y-107766903D01*
X208429920Y-107767048D01*
X208441425Y-107781066D01*
X208441643Y-107781392D01*
X208447410Y-107792182D01*
X208447560Y-107792544D01*
X208451111Y-107804249D01*
X208451187Y-107804634D01*
X208452990Y-107822942D01*
X208453000Y-107823138D01*
X208453000Y-107879500D01*
X208452000Y-107881232D01*
X208450000Y-107881232D01*
X208449010Y-107879696D01*
X208446619Y-107855411D01*
X208439590Y-107832242D01*
X208428178Y-107810892D01*
X208412821Y-107792179D01*
X208394108Y-107776822D01*
X208372758Y-107765410D01*
X208349589Y-107758381D01*
X208325406Y-107756000D01*
X206849594Y-107756000D01*
X206825411Y-107758381D01*
X206802242Y-107765410D01*
X206780892Y-107776822D01*
X206762179Y-107792179D01*
X206746822Y-107810892D01*
X206735410Y-107832242D01*
X206728381Y-107855411D01*
X206725990Y-107879696D01*
X206724825Y-107881322D01*
X206722835Y-107881126D01*
X206722000Y-107879500D01*
X206722000Y-107823138D01*
X206722010Y-107822942D01*
X206723813Y-107804634D01*
X206723889Y-107804249D01*
X206727440Y-107792544D01*
X206727590Y-107792182D01*
X206733357Y-107781392D01*
X206733575Y-107781066D01*
X206745084Y-107767043D01*
X206745216Y-107766898D01*
X206754091Y-107758022D01*
X206767486Y-107737975D01*
X206776711Y-107715701D01*
X206781415Y-107692050D01*
X206781415Y-107667944D01*
X206776710Y-107644294D01*
X206767483Y-107622021D01*
X206754088Y-107601973D01*
X206745212Y-107593097D01*
X206745080Y-107592952D01*
X206733575Y-107578934D01*
X206733357Y-107578608D01*
X206727590Y-107567818D01*
X206727440Y-107567456D01*
X206723889Y-107555751D01*
X206723813Y-107555366D01*
X206722010Y-107537058D01*
X206722000Y-107536862D01*
X206722000Y-107480500D01*
X206723000Y-107478768D01*
X206725000Y-107478768D01*
X206725990Y-107480304D01*
X206728381Y-107504589D01*
X206735410Y-107527758D01*
X206746822Y-107549108D01*
X206762179Y-107567821D01*
X206780892Y-107583178D01*
X206802242Y-107594590D01*
X206825411Y-107601619D01*
X206849594Y-107604000D01*
X208325406Y-107604000D01*
X208349589Y-107601619D01*
X208372758Y-107594590D01*
X208394108Y-107583178D01*
X208412821Y-107567821D01*
X208428178Y-107549108D01*
X208439590Y-107527758D01*
X208446619Y-107504589D01*
X208449010Y-107480304D01*
X208450175Y-107478678D01*
X208452165Y-107478874D01*
G37*
G36*
X212677165Y-107478874D02*
G01*
X212678000Y-107480500D01*
X212678000Y-107536862D01*
X212677990Y-107537058D01*
X212676187Y-107555366D01*
X212676111Y-107555751D01*
X212672560Y-107567456D01*
X212672410Y-107567818D01*
X212666643Y-107578608D01*
X212666425Y-107578934D01*
X212654916Y-107592957D01*
X212654784Y-107593102D01*
X212645909Y-107601978D01*
X212632514Y-107622025D01*
X212623289Y-107644299D01*
X212618585Y-107667950D01*
X212618585Y-107692056D01*
X212623290Y-107715706D01*
X212632517Y-107737979D01*
X212645912Y-107758027D01*
X212654788Y-107766903D01*
X212654920Y-107767048D01*
X212666425Y-107781066D01*
X212666643Y-107781392D01*
X212672410Y-107792182D01*
X212672560Y-107792544D01*
X212676111Y-107804249D01*
X212676187Y-107804634D01*
X212677990Y-107822942D01*
X212678000Y-107823138D01*
X212678000Y-107879500D01*
X212677000Y-107881232D01*
X212675000Y-107881232D01*
X212674010Y-107879696D01*
X212671619Y-107855411D01*
X212664590Y-107832242D01*
X212653178Y-107810892D01*
X212637821Y-107792179D01*
X212619108Y-107776822D01*
X212597758Y-107765410D01*
X212574589Y-107758381D01*
X212550406Y-107756000D01*
X211074594Y-107756000D01*
X211050411Y-107758381D01*
X211027242Y-107765410D01*
X211005892Y-107776822D01*
X210987179Y-107792179D01*
X210971822Y-107810892D01*
X210960410Y-107832242D01*
X210953381Y-107855411D01*
X210950990Y-107879696D01*
X210949825Y-107881322D01*
X210947835Y-107881126D01*
X210947000Y-107879500D01*
X210947000Y-107823138D01*
X210947010Y-107822942D01*
X210948813Y-107804634D01*
X210948889Y-107804249D01*
X210952440Y-107792544D01*
X210952590Y-107792182D01*
X210958357Y-107781392D01*
X210958575Y-107781066D01*
X210970084Y-107767043D01*
X210970216Y-107766898D01*
X210979091Y-107758022D01*
X210992486Y-107737975D01*
X211001711Y-107715701D01*
X211006415Y-107692050D01*
X211006415Y-107667944D01*
X211001710Y-107644294D01*
X210992483Y-107622021D01*
X210979088Y-107601973D01*
X210970212Y-107593097D01*
X210970080Y-107592952D01*
X210958575Y-107578934D01*
X210958357Y-107578608D01*
X210952590Y-107567818D01*
X210952440Y-107567456D01*
X210948889Y-107555751D01*
X210948813Y-107555366D01*
X210947010Y-107537058D01*
X210947000Y-107536862D01*
X210947000Y-107480500D01*
X210948000Y-107478768D01*
X210950000Y-107478768D01*
X210950990Y-107480304D01*
X210953381Y-107504589D01*
X210960410Y-107527758D01*
X210971822Y-107549108D01*
X210987179Y-107567821D01*
X211005892Y-107583178D01*
X211027242Y-107594590D01*
X211050411Y-107601619D01*
X211074594Y-107604000D01*
X212550406Y-107604000D01*
X212574589Y-107601619D01*
X212597758Y-107594590D01*
X212619108Y-107583178D01*
X212637821Y-107567821D01*
X212653178Y-107549108D01*
X212664590Y-107527758D01*
X212671619Y-107504589D01*
X212674010Y-107480304D01*
X212675175Y-107478678D01*
X212677165Y-107478874D01*
G37*
G36*
X212677165Y-106828874D02*
G01*
X212678000Y-106830500D01*
X212678000Y-106886862D01*
X212677990Y-106887058D01*
X212676187Y-106905366D01*
X212676111Y-106905751D01*
X212672560Y-106917456D01*
X212672410Y-106917818D01*
X212666643Y-106928608D01*
X212666425Y-106928934D01*
X212654916Y-106942957D01*
X212654784Y-106943102D01*
X212645909Y-106951978D01*
X212632514Y-106972025D01*
X212623289Y-106994299D01*
X212618585Y-107017950D01*
X212618585Y-107042056D01*
X212623290Y-107065706D01*
X212632517Y-107087979D01*
X212645912Y-107108027D01*
X212654788Y-107116903D01*
X212654920Y-107117048D01*
X212666425Y-107131066D01*
X212666643Y-107131392D01*
X212672410Y-107142182D01*
X212672560Y-107142544D01*
X212676111Y-107154249D01*
X212676187Y-107154634D01*
X212677990Y-107172942D01*
X212678000Y-107173138D01*
X212678000Y-107229500D01*
X212677000Y-107231232D01*
X212675000Y-107231232D01*
X212674010Y-107229696D01*
X212671619Y-107205411D01*
X212664590Y-107182242D01*
X212653178Y-107160892D01*
X212637821Y-107142179D01*
X212619108Y-107126822D01*
X212597758Y-107115410D01*
X212574589Y-107108381D01*
X212550406Y-107106000D01*
X211074594Y-107106000D01*
X211050411Y-107108381D01*
X211027242Y-107115410D01*
X211005892Y-107126822D01*
X210987179Y-107142179D01*
X210971822Y-107160892D01*
X210960410Y-107182242D01*
X210953381Y-107205411D01*
X210950990Y-107229696D01*
X210949825Y-107231322D01*
X210947835Y-107231126D01*
X210947000Y-107229500D01*
X210947000Y-107173138D01*
X210947010Y-107172942D01*
X210948813Y-107154634D01*
X210948889Y-107154249D01*
X210952440Y-107142544D01*
X210952590Y-107142182D01*
X210958357Y-107131392D01*
X210958575Y-107131066D01*
X210970084Y-107117043D01*
X210970216Y-107116898D01*
X210979091Y-107108022D01*
X210992486Y-107087975D01*
X211001711Y-107065701D01*
X211006415Y-107042050D01*
X211006415Y-107017944D01*
X211001710Y-106994294D01*
X210992483Y-106972021D01*
X210979088Y-106951973D01*
X210970212Y-106943097D01*
X210970080Y-106942952D01*
X210958575Y-106928934D01*
X210958357Y-106928608D01*
X210952590Y-106917818D01*
X210952440Y-106917456D01*
X210948889Y-106905751D01*
X210948813Y-106905366D01*
X210947010Y-106887058D01*
X210947000Y-106886862D01*
X210947000Y-106830500D01*
X210948000Y-106828768D01*
X210950000Y-106828768D01*
X210950990Y-106830304D01*
X210953381Y-106854589D01*
X210960410Y-106877758D01*
X210971822Y-106899108D01*
X210987179Y-106917821D01*
X211005892Y-106933178D01*
X211027242Y-106944590D01*
X211050411Y-106951619D01*
X211074594Y-106954000D01*
X212550406Y-106954000D01*
X212574589Y-106951619D01*
X212597758Y-106944590D01*
X212619108Y-106933178D01*
X212637821Y-106917821D01*
X212653178Y-106899108D01*
X212664590Y-106877758D01*
X212671619Y-106854589D01*
X212674010Y-106830304D01*
X212675175Y-106828678D01*
X212677165Y-106828874D01*
G37*
G36*
X208452165Y-106828874D02*
G01*
X208453000Y-106830500D01*
X208453000Y-106886862D01*
X208452990Y-106887058D01*
X208451187Y-106905366D01*
X208451111Y-106905751D01*
X208447560Y-106917456D01*
X208447410Y-106917818D01*
X208441643Y-106928608D01*
X208441425Y-106928934D01*
X208429916Y-106942957D01*
X208429784Y-106943102D01*
X208420909Y-106951978D01*
X208407514Y-106972025D01*
X208398289Y-106994299D01*
X208393585Y-107017950D01*
X208393585Y-107042056D01*
X208398290Y-107065706D01*
X208407517Y-107087979D01*
X208420912Y-107108027D01*
X208429788Y-107116903D01*
X208429920Y-107117048D01*
X208441425Y-107131066D01*
X208441643Y-107131392D01*
X208447410Y-107142182D01*
X208447560Y-107142544D01*
X208451111Y-107154249D01*
X208451187Y-107154634D01*
X208452990Y-107172942D01*
X208453000Y-107173138D01*
X208453000Y-107229500D01*
X208452000Y-107231232D01*
X208450000Y-107231232D01*
X208449010Y-107229696D01*
X208446619Y-107205411D01*
X208439590Y-107182242D01*
X208428178Y-107160892D01*
X208412821Y-107142179D01*
X208394108Y-107126822D01*
X208372758Y-107115410D01*
X208349589Y-107108381D01*
X208325406Y-107106000D01*
X206849594Y-107106000D01*
X206825411Y-107108381D01*
X206802242Y-107115410D01*
X206780892Y-107126822D01*
X206762179Y-107142179D01*
X206746822Y-107160892D01*
X206735410Y-107182242D01*
X206728381Y-107205411D01*
X206725990Y-107229696D01*
X206724825Y-107231322D01*
X206722835Y-107231126D01*
X206722000Y-107229500D01*
X206722000Y-107173138D01*
X206722010Y-107172942D01*
X206723813Y-107154634D01*
X206723889Y-107154249D01*
X206727440Y-107142544D01*
X206727590Y-107142182D01*
X206733357Y-107131392D01*
X206733575Y-107131066D01*
X206745084Y-107117043D01*
X206745216Y-107116898D01*
X206754091Y-107108022D01*
X206767486Y-107087975D01*
X206776711Y-107065701D01*
X206781415Y-107042050D01*
X206781415Y-107017944D01*
X206776710Y-106994294D01*
X206767483Y-106972021D01*
X206754088Y-106951973D01*
X206745212Y-106943097D01*
X206745080Y-106942952D01*
X206733575Y-106928934D01*
X206733357Y-106928608D01*
X206727590Y-106917818D01*
X206727440Y-106917456D01*
X206723889Y-106905751D01*
X206723813Y-106905366D01*
X206722010Y-106887058D01*
X206722000Y-106886862D01*
X206722000Y-106830500D01*
X206723000Y-106828768D01*
X206725000Y-106828768D01*
X206725990Y-106830304D01*
X206728381Y-106854589D01*
X206735410Y-106877758D01*
X206746822Y-106899108D01*
X206762179Y-106917821D01*
X206780892Y-106933178D01*
X206802242Y-106944590D01*
X206825411Y-106951619D01*
X206849594Y-106954000D01*
X208325406Y-106954000D01*
X208349589Y-106951619D01*
X208372758Y-106944590D01*
X208394108Y-106933178D01*
X208412821Y-106917821D01*
X208428178Y-106899108D01*
X208439590Y-106877758D01*
X208446619Y-106854589D01*
X208449010Y-106830304D01*
X208450175Y-106828678D01*
X208452165Y-106828874D01*
G37*
G36*
X212677165Y-106178874D02*
G01*
X212678000Y-106180500D01*
X212678000Y-106236862D01*
X212677990Y-106237058D01*
X212676187Y-106255366D01*
X212676111Y-106255751D01*
X212672560Y-106267456D01*
X212672410Y-106267818D01*
X212666643Y-106278608D01*
X212666425Y-106278934D01*
X212654916Y-106292957D01*
X212654784Y-106293102D01*
X212645909Y-106301978D01*
X212632514Y-106322025D01*
X212623289Y-106344299D01*
X212618585Y-106367950D01*
X212618585Y-106392056D01*
X212623290Y-106415706D01*
X212632517Y-106437979D01*
X212645912Y-106458027D01*
X212654788Y-106466903D01*
X212654920Y-106467048D01*
X212666425Y-106481066D01*
X212666643Y-106481392D01*
X212672410Y-106492182D01*
X212672560Y-106492544D01*
X212676111Y-106504249D01*
X212676187Y-106504634D01*
X212677990Y-106522942D01*
X212678000Y-106523138D01*
X212678000Y-106579500D01*
X212677000Y-106581232D01*
X212675000Y-106581232D01*
X212674010Y-106579696D01*
X212671619Y-106555411D01*
X212664590Y-106532242D01*
X212653178Y-106510892D01*
X212637821Y-106492179D01*
X212619108Y-106476822D01*
X212597758Y-106465410D01*
X212574589Y-106458381D01*
X212550406Y-106456000D01*
X211074594Y-106456000D01*
X211050411Y-106458381D01*
X211027242Y-106465410D01*
X211005892Y-106476822D01*
X210987179Y-106492179D01*
X210971822Y-106510892D01*
X210960410Y-106532242D01*
X210953381Y-106555411D01*
X210950990Y-106579696D01*
X210949825Y-106581322D01*
X210947835Y-106581126D01*
X210947000Y-106579500D01*
X210947000Y-106523138D01*
X210947010Y-106522942D01*
X210948813Y-106504634D01*
X210948889Y-106504249D01*
X210952440Y-106492544D01*
X210952590Y-106492182D01*
X210958357Y-106481392D01*
X210958575Y-106481066D01*
X210970084Y-106467043D01*
X210970216Y-106466898D01*
X210979091Y-106458022D01*
X210992486Y-106437975D01*
X211001711Y-106415701D01*
X211006415Y-106392050D01*
X211006415Y-106367944D01*
X211001710Y-106344294D01*
X210992483Y-106322021D01*
X210979088Y-106301973D01*
X210970212Y-106293097D01*
X210970080Y-106292952D01*
X210958575Y-106278934D01*
X210958357Y-106278608D01*
X210952590Y-106267818D01*
X210952440Y-106267456D01*
X210948889Y-106255751D01*
X210948813Y-106255366D01*
X210947010Y-106237058D01*
X210947000Y-106236862D01*
X210947000Y-106180500D01*
X210948000Y-106178768D01*
X210950000Y-106178768D01*
X210950990Y-106180304D01*
X210953381Y-106204589D01*
X210960410Y-106227758D01*
X210971822Y-106249108D01*
X210987179Y-106267821D01*
X211005892Y-106283178D01*
X211027242Y-106294590D01*
X211050411Y-106301619D01*
X211074594Y-106304000D01*
X212550406Y-106304000D01*
X212574589Y-106301619D01*
X212597758Y-106294590D01*
X212619108Y-106283178D01*
X212637821Y-106267821D01*
X212653178Y-106249108D01*
X212664590Y-106227758D01*
X212671619Y-106204589D01*
X212674010Y-106180304D01*
X212675175Y-106178678D01*
X212677165Y-106178874D01*
G37*
G36*
X208452165Y-106178874D02*
G01*
X208453000Y-106180500D01*
X208453000Y-106236862D01*
X208452990Y-106237058D01*
X208451187Y-106255366D01*
X208451111Y-106255751D01*
X208447560Y-106267456D01*
X208447410Y-106267818D01*
X208441643Y-106278608D01*
X208441425Y-106278934D01*
X208429916Y-106292957D01*
X208429784Y-106293102D01*
X208420909Y-106301978D01*
X208407514Y-106322025D01*
X208398289Y-106344299D01*
X208393585Y-106367950D01*
X208393585Y-106392056D01*
X208398290Y-106415706D01*
X208407517Y-106437979D01*
X208420912Y-106458027D01*
X208429788Y-106466903D01*
X208429920Y-106467048D01*
X208441425Y-106481066D01*
X208441643Y-106481392D01*
X208447410Y-106492182D01*
X208447560Y-106492544D01*
X208451111Y-106504249D01*
X208451187Y-106504634D01*
X208452990Y-106522942D01*
X208453000Y-106523138D01*
X208453000Y-106579500D01*
X208452000Y-106581232D01*
X208450000Y-106581232D01*
X208449010Y-106579696D01*
X208446619Y-106555411D01*
X208439590Y-106532242D01*
X208428178Y-106510892D01*
X208412821Y-106492179D01*
X208394108Y-106476822D01*
X208372758Y-106465410D01*
X208349589Y-106458381D01*
X208325406Y-106456000D01*
X206849594Y-106456000D01*
X206825411Y-106458381D01*
X206802242Y-106465410D01*
X206780892Y-106476822D01*
X206762179Y-106492179D01*
X206746822Y-106510892D01*
X206735410Y-106532242D01*
X206728381Y-106555411D01*
X206725990Y-106579696D01*
X206724825Y-106581322D01*
X206722835Y-106581126D01*
X206722000Y-106579500D01*
X206722000Y-106523138D01*
X206722010Y-106522942D01*
X206723813Y-106504634D01*
X206723889Y-106504249D01*
X206727440Y-106492544D01*
X206727590Y-106492182D01*
X206733357Y-106481392D01*
X206733575Y-106481066D01*
X206745084Y-106467043D01*
X206745216Y-106466898D01*
X206754091Y-106458022D01*
X206767486Y-106437975D01*
X206776711Y-106415701D01*
X206781415Y-106392050D01*
X206781415Y-106367944D01*
X206776710Y-106344294D01*
X206767483Y-106322021D01*
X206754088Y-106301973D01*
X206745212Y-106293097D01*
X206745080Y-106292952D01*
X206733575Y-106278934D01*
X206733357Y-106278608D01*
X206727590Y-106267818D01*
X206727440Y-106267456D01*
X206723889Y-106255751D01*
X206723813Y-106255366D01*
X206722010Y-106237058D01*
X206722000Y-106236862D01*
X206722000Y-106180500D01*
X206723000Y-106178768D01*
X206725000Y-106178768D01*
X206725990Y-106180304D01*
X206728381Y-106204589D01*
X206735410Y-106227758D01*
X206746822Y-106249108D01*
X206762179Y-106267821D01*
X206780892Y-106283178D01*
X206802242Y-106294590D01*
X206825411Y-106301619D01*
X206849594Y-106304000D01*
X208325406Y-106304000D01*
X208349589Y-106301619D01*
X208372758Y-106294590D01*
X208394108Y-106283178D01*
X208412821Y-106267821D01*
X208428178Y-106249108D01*
X208439590Y-106227758D01*
X208446619Y-106204589D01*
X208449010Y-106180304D01*
X208450175Y-106178678D01*
X208452165Y-106178874D01*
G37*
G36*
X183207056Y-104922010D02*
G01*
X183220491Y-104923333D01*
X183220876Y-104923409D01*
X183227890Y-104925537D01*
X183228252Y-104925687D01*
X183241935Y-104933000D01*
X183264298Y-104942263D01*
X183287948Y-104946967D01*
X183312054Y-104946967D01*
X183335704Y-104942262D01*
X183358065Y-104933000D01*
X183371748Y-104925687D01*
X183372110Y-104925537D01*
X183379124Y-104923409D01*
X183379509Y-104923333D01*
X183392944Y-104922010D01*
X183393140Y-104922000D01*
X183449500Y-104922000D01*
X183451232Y-104923000D01*
X183451232Y-104925000D01*
X183449696Y-104925990D01*
X183430288Y-104927901D01*
X183411809Y-104933507D01*
X183394781Y-104942608D01*
X183379857Y-104954857D01*
X183367608Y-104969781D01*
X183358507Y-104986809D01*
X183352901Y-105005288D01*
X183351000Y-105024594D01*
X183351000Y-106375406D01*
X183352901Y-106394712D01*
X183358507Y-106413191D01*
X183367608Y-106430219D01*
X183379857Y-106445143D01*
X183394781Y-106457392D01*
X183411809Y-106466493D01*
X183430288Y-106472099D01*
X183449696Y-106474010D01*
X183451322Y-106475175D01*
X183451126Y-106477165D01*
X183449500Y-106478000D01*
X183393140Y-106478000D01*
X183392944Y-106477990D01*
X183379509Y-106476667D01*
X183379124Y-106476591D01*
X183372110Y-106474463D01*
X183371748Y-106474313D01*
X183358065Y-106467000D01*
X183335702Y-106457737D01*
X183312052Y-106453033D01*
X183287946Y-106453033D01*
X183264296Y-106457738D01*
X183241935Y-106467000D01*
X183228252Y-106474313D01*
X183227890Y-106474463D01*
X183220876Y-106476591D01*
X183220491Y-106476667D01*
X183207056Y-106477990D01*
X183206860Y-106478000D01*
X183150500Y-106478000D01*
X183148768Y-106477000D01*
X183148768Y-106475000D01*
X183150304Y-106474010D01*
X183169712Y-106472099D01*
X183188191Y-106466493D01*
X183205219Y-106457392D01*
X183220143Y-106445143D01*
X183232392Y-106430219D01*
X183241493Y-106413191D01*
X183247099Y-106394712D01*
X183249000Y-106375406D01*
X183249000Y-105024594D01*
X183247099Y-105005288D01*
X183241493Y-104986809D01*
X183232392Y-104969781D01*
X183220143Y-104954857D01*
X183205219Y-104942608D01*
X183188191Y-104933507D01*
X183169712Y-104927901D01*
X183150304Y-104925990D01*
X183148678Y-104924825D01*
X183148874Y-104922835D01*
X183150500Y-104922000D01*
X183206860Y-104922000D01*
X183207056Y-104922010D01*
G37*
G36*
X184707056Y-104922010D02*
G01*
X184720491Y-104923333D01*
X184720876Y-104923409D01*
X184727890Y-104925537D01*
X184728252Y-104925687D01*
X184741935Y-104933000D01*
X184764298Y-104942263D01*
X184787948Y-104946967D01*
X184812054Y-104946967D01*
X184835704Y-104942262D01*
X184858065Y-104933000D01*
X184871748Y-104925687D01*
X184872110Y-104925537D01*
X184879124Y-104923409D01*
X184879509Y-104923333D01*
X184892944Y-104922010D01*
X184893140Y-104922000D01*
X184949500Y-104922000D01*
X184951232Y-104923000D01*
X184951232Y-104925000D01*
X184949696Y-104925990D01*
X184930288Y-104927901D01*
X184911809Y-104933507D01*
X184894781Y-104942608D01*
X184879857Y-104954857D01*
X184867608Y-104969781D01*
X184858507Y-104986809D01*
X184852901Y-105005288D01*
X184851000Y-105024594D01*
X184851000Y-106375406D01*
X184852901Y-106394712D01*
X184858507Y-106413191D01*
X184867608Y-106430219D01*
X184879857Y-106445143D01*
X184894781Y-106457392D01*
X184911809Y-106466493D01*
X184930288Y-106472099D01*
X184949696Y-106474010D01*
X184951322Y-106475175D01*
X184951126Y-106477165D01*
X184949500Y-106478000D01*
X184893140Y-106478000D01*
X184892944Y-106477990D01*
X184879509Y-106476667D01*
X184879124Y-106476591D01*
X184872110Y-106474463D01*
X184871748Y-106474313D01*
X184858065Y-106467000D01*
X184835702Y-106457737D01*
X184812052Y-106453033D01*
X184787946Y-106453033D01*
X184764296Y-106457738D01*
X184741935Y-106467000D01*
X184728252Y-106474313D01*
X184727890Y-106474463D01*
X184720876Y-106476591D01*
X184720491Y-106476667D01*
X184707056Y-106477990D01*
X184706860Y-106478000D01*
X184650500Y-106478000D01*
X184648768Y-106477000D01*
X184648768Y-106475000D01*
X184650304Y-106474010D01*
X184669712Y-106472099D01*
X184688191Y-106466493D01*
X184705219Y-106457392D01*
X184720143Y-106445143D01*
X184732392Y-106430219D01*
X184741493Y-106413191D01*
X184747099Y-106394712D01*
X184749000Y-106375406D01*
X184749000Y-105024594D01*
X184747099Y-105005288D01*
X184741493Y-104986809D01*
X184732392Y-104969781D01*
X184720143Y-104954857D01*
X184705219Y-104942608D01*
X184688191Y-104933507D01*
X184669712Y-104927901D01*
X184650304Y-104925990D01*
X184648678Y-104924825D01*
X184648874Y-104922835D01*
X184650500Y-104922000D01*
X184706860Y-104922000D01*
X184707056Y-104922010D01*
G37*
G36*
X183707056Y-104922010D02*
G01*
X183720491Y-104923333D01*
X183720876Y-104923409D01*
X183727890Y-104925537D01*
X183728252Y-104925687D01*
X183741935Y-104933000D01*
X183764298Y-104942263D01*
X183787948Y-104946967D01*
X183812054Y-104946967D01*
X183835704Y-104942262D01*
X183858065Y-104933000D01*
X183871748Y-104925687D01*
X183872110Y-104925537D01*
X183879124Y-104923409D01*
X183879509Y-104923333D01*
X183892944Y-104922010D01*
X183893140Y-104922000D01*
X183949500Y-104922000D01*
X183951232Y-104923000D01*
X183951232Y-104925000D01*
X183949696Y-104925990D01*
X183930288Y-104927901D01*
X183911809Y-104933507D01*
X183894781Y-104942608D01*
X183879857Y-104954857D01*
X183867608Y-104969781D01*
X183858507Y-104986809D01*
X183852901Y-105005288D01*
X183851000Y-105024594D01*
X183851000Y-106375406D01*
X183852901Y-106394712D01*
X183858507Y-106413191D01*
X183867608Y-106430219D01*
X183879857Y-106445143D01*
X183894781Y-106457392D01*
X183911809Y-106466493D01*
X183930288Y-106472099D01*
X183949696Y-106474010D01*
X183951322Y-106475175D01*
X183951126Y-106477165D01*
X183949500Y-106478000D01*
X183893140Y-106478000D01*
X183892944Y-106477990D01*
X183879509Y-106476667D01*
X183879124Y-106476591D01*
X183872110Y-106474463D01*
X183871748Y-106474313D01*
X183858065Y-106467000D01*
X183835702Y-106457737D01*
X183812052Y-106453033D01*
X183787946Y-106453033D01*
X183764296Y-106457738D01*
X183741935Y-106467000D01*
X183728252Y-106474313D01*
X183727890Y-106474463D01*
X183720876Y-106476591D01*
X183720491Y-106476667D01*
X183707056Y-106477990D01*
X183706860Y-106478000D01*
X183650500Y-106478000D01*
X183648768Y-106477000D01*
X183648768Y-106475000D01*
X183650304Y-106474010D01*
X183669712Y-106472099D01*
X183688191Y-106466493D01*
X183705219Y-106457392D01*
X183720143Y-106445143D01*
X183732392Y-106430219D01*
X183741493Y-106413191D01*
X183747099Y-106394712D01*
X183749000Y-106375406D01*
X183749000Y-105024594D01*
X183747099Y-105005288D01*
X183741493Y-104986809D01*
X183732392Y-104969781D01*
X183720143Y-104954857D01*
X183705219Y-104942608D01*
X183688191Y-104933507D01*
X183669712Y-104927901D01*
X183650304Y-104925990D01*
X183648678Y-104924825D01*
X183648874Y-104922835D01*
X183650500Y-104922000D01*
X183706860Y-104922000D01*
X183707056Y-104922010D01*
G37*
G36*
X184207056Y-104922010D02*
G01*
X184220491Y-104923333D01*
X184220876Y-104923409D01*
X184227890Y-104925537D01*
X184228252Y-104925687D01*
X184241935Y-104933000D01*
X184264298Y-104942263D01*
X184287948Y-104946967D01*
X184312054Y-104946967D01*
X184335704Y-104942262D01*
X184358065Y-104933000D01*
X184371748Y-104925687D01*
X184372110Y-104925537D01*
X184379124Y-104923409D01*
X184379509Y-104923333D01*
X184392944Y-104922010D01*
X184393140Y-104922000D01*
X184449500Y-104922000D01*
X184451232Y-104923000D01*
X184451232Y-104925000D01*
X184449696Y-104925990D01*
X184430288Y-104927901D01*
X184411809Y-104933507D01*
X184394781Y-104942608D01*
X184379857Y-104954857D01*
X184367608Y-104969781D01*
X184358507Y-104986809D01*
X184352901Y-105005288D01*
X184351000Y-105024594D01*
X184351000Y-106375406D01*
X184352901Y-106394712D01*
X184358507Y-106413191D01*
X184367608Y-106430219D01*
X184379857Y-106445143D01*
X184394781Y-106457392D01*
X184411809Y-106466493D01*
X184430288Y-106472099D01*
X184449696Y-106474010D01*
X184451322Y-106475175D01*
X184451126Y-106477165D01*
X184449500Y-106478000D01*
X184393140Y-106478000D01*
X184392944Y-106477990D01*
X184379509Y-106476667D01*
X184379124Y-106476591D01*
X184372110Y-106474463D01*
X184371748Y-106474313D01*
X184358065Y-106467000D01*
X184335702Y-106457737D01*
X184312052Y-106453033D01*
X184287946Y-106453033D01*
X184264296Y-106457738D01*
X184241935Y-106467000D01*
X184228252Y-106474313D01*
X184227890Y-106474463D01*
X184220876Y-106476591D01*
X184220491Y-106476667D01*
X184207056Y-106477990D01*
X184206860Y-106478000D01*
X184150500Y-106478000D01*
X184148768Y-106477000D01*
X184148768Y-106475000D01*
X184150304Y-106474010D01*
X184169712Y-106472099D01*
X184188191Y-106466493D01*
X184205219Y-106457392D01*
X184220143Y-106445143D01*
X184232392Y-106430219D01*
X184241493Y-106413191D01*
X184247099Y-106394712D01*
X184249000Y-106375406D01*
X184249000Y-105024594D01*
X184247099Y-105005288D01*
X184241493Y-104986809D01*
X184232392Y-104969781D01*
X184220143Y-104954857D01*
X184205219Y-104942608D01*
X184188191Y-104933507D01*
X184169712Y-104927901D01*
X184150304Y-104925990D01*
X184148678Y-104924825D01*
X184148874Y-104922835D01*
X184150500Y-104922000D01*
X184206860Y-104922000D01*
X184207056Y-104922010D01*
G37*
M02*
