M48
; DRILL file {KiCad 5.1.9+dfsg1-1~bpo10+1} date Mon Feb 14 12:11:38 2022
; FORMAT={-:-/ absolute / inch / decimal}
; #@! TF.CreationDate,2022-02-14T12:11:38+00:00
; #@! TF.GenerationSoftware,Kicad,Pcbnew,5.1.9+dfsg1-1~bpo10+1
FMAT,2
INCH
T1C0.0157
T2C0.0280
T3C0.0315
T4C0.0394
T5C0.0512
T6C0.0551
T7C0.1260
T8C0.1969
%
G90
G05
T1
X5.8898Y-4.6339
X5.8976Y-4.122
X6.0984Y-4.7067
X6.1791Y-3.4783
X6.185Y-3.998
X6.252Y-4.1713
X6.3496Y-4.5398
X6.3753Y-4.395
X6.435Y-4.4429
X6.437Y-4.124
X6.4567Y-4.2421
X6.5123Y-4.1732
X6.5157Y-4.3012
X6.5551Y-4.502
X6.5551Y-4.5677
X6.5806Y-4.3938
X6.5812Y-4.3528
X6.5965Y-4.2933
X6.5984Y-4.1516
X6.6606Y-4.7059
X6.6732Y-4.4606
X6.6741Y-4.5246
X6.6821Y-3.9341
X6.685Y-3.5039
X6.7205Y-4.0157
X6.7244Y-4.503
X6.7643Y-4.4445
X6.7843Y-4.7059
X6.8197Y-4.4281
X6.9114Y-4.2343
X6.9316Y-3.4523
X6.9547Y-3.9567
X6.9596Y-4.3268
X6.9764Y-4.0295
X6.9894Y-4.4154
X6.9995Y-4.3484
X7.0066Y-4.501
X7.0276Y-4.1152
X7.1083Y-4.4094
X7.1161Y-4.0315
X7.1555Y-4.1398
X7.2106Y-4.7854
X7.228Y-4.452
X7.2705Y-4.5328
X7.3091Y-4.4252
X7.3504Y-4.3949
X7.3571Y-4.5248
X7.4185Y-4.4756
X7.4976Y-4.4744
X7.622Y-4.2146
X7.8756Y-4.2823
X7.8902Y-4.1819
X7.9016Y-4.7039
X7.9311Y-4.5945
X7.9764Y-4.4067
X8.0638Y-4.2634
X8.1488Y-4.5398
X8.1677Y-4.1224
X8.1976Y-4.3984
X8.215Y-4.0835
X8.224Y-4.3126
X8.2707Y-4.1744
X8.5445Y-4.7681
X8.5457Y-4.8079
X8.5457Y-4.8472
X8.5799Y-4.7681
X8.5811Y-4.8079
X8.5811Y-4.8472
T2
X8.6555Y-4.1744
X8.8563Y-4.2374
T3
X7.2602Y-4.5937
X7.2602Y-4.8937
X7.3602Y-4.5937
X7.3602Y-4.8937
T4
X6.348Y-4.7819
X6.448Y-4.7819
X6.548Y-4.7819
X6.648Y-4.7819
X6.748Y-4.7819
X6.848Y-4.7819
X6.948Y-4.7819
X7.048Y-4.7819
X7.6409Y-4.502
X7.7906Y-4.502
T5
X5.7358Y-4.3425
X5.8858Y-4.3425
X6.0358Y-4.3425
X6.1858Y-4.3425
X8.4091Y-4.4689
X8.5591Y-4.4689
X8.7091Y-4.4689
X8.8591Y-4.4689
T6
X6.7441Y-4.2165
X7.7461Y-4.2165
T7
X5.6339Y-2.4055
X5.6339Y-3.8543
X5.6339Y-4.9961
X8.9331Y-2.4055
X8.9331Y-3.8583
X8.9331Y-4.9961
T8
G00X7.2857Y-3.6918
M15
G01X7.2857Y-3.8886
M16
G05
G00X7.2869Y-2.491
M15
G01X7.2869Y-3.0815
M16
G05
T0
M30
