G04 #@! TF.GenerationSoftware,KiCad,Pcbnew,5.1.9+dfsg1-1~bpo10+1*
G04 #@! TF.CreationDate,2021-05-14T11:14:34+00:00*
G04 #@! TF.ProjectId,CurrentShuntCircuit,43757272-656e-4745-9368-756e74436972,1*
G04 #@! TF.SameCoordinates,Original*
G04 #@! TF.FileFunction,Soldermask,Top*
G04 #@! TF.FilePolarity,Negative*
%FSLAX46Y46*%
G04 Gerber Fmt 4.6, Leading zero omitted, Abs format (unit mm)*
G04 Created by KiCad (PCBNEW 5.1.9+dfsg1-1~bpo10+1) date 2021-05-14 11:14:34*
%MOMM*%
%LPD*%
G01*
G04 APERTURE LIST*
%ADD10C,7.000000*%
%ADD11O,1.702000X1.702000*%
%ADD12O,1.802000X1.802000*%
%ADD13C,2.302000*%
%ADD14C,6.100000*%
%ADD15C,5.102000*%
%ADD16C,1.902000*%
%ADD17C,1.372000*%
%ADD18C,0.100000*%
G04 APERTURE END LIST*
D10*
X185300000Y-75800000D03*
X185300000Y-88800000D03*
D11*
X184410000Y-116680000D03*
X186950000Y-124300000D03*
X186950000Y-116680000D03*
G36*
G01*
X185210000Y-125151000D02*
X183610000Y-125151000D01*
G75*
G02*
X183559000Y-125100000I0J51000D01*
G01*
X183559000Y-123500000D01*
G75*
G02*
X183610000Y-123449000I51000J0D01*
G01*
X185210000Y-123449000D01*
G75*
G02*
X185261000Y-123500000I0J-51000D01*
G01*
X185261000Y-125100000D01*
G75*
G02*
X185210000Y-125151000I-51000J0D01*
G01*
G37*
D12*
X179020000Y-121460000D03*
X176480000Y-121460000D03*
X173940000Y-121460000D03*
X171400000Y-121460000D03*
X168860000Y-121460000D03*
X166320000Y-121460000D03*
X163780000Y-121460000D03*
G36*
G01*
X162090000Y-122361000D02*
X160390000Y-122361000D01*
G75*
G02*
X160339000Y-122310000I0J51000D01*
G01*
X160339000Y-120610000D01*
G75*
G02*
X160390000Y-120559000I51000J0D01*
G01*
X162090000Y-120559000D01*
G75*
G02*
X162141000Y-120610000I0J-51000D01*
G01*
X162141000Y-122310000D01*
G75*
G02*
X162090000Y-122361000I-51000J0D01*
G01*
G37*
D13*
X225020000Y-113510000D03*
X221210000Y-113510000D03*
X217400000Y-113510000D03*
G36*
G01*
X212539000Y-114510000D02*
X212539000Y-112510000D01*
G75*
G02*
X212590000Y-112459000I51000J0D01*
G01*
X214590000Y-112459000D01*
G75*
G02*
X214641000Y-112510000I0J-51000D01*
G01*
X214641000Y-114510000D01*
G75*
G02*
X214590000Y-114561000I-51000J0D01*
G01*
X212590000Y-114561000D01*
G75*
G02*
X212539000Y-114510000I0J51000D01*
G01*
G37*
D14*
X143100000Y-97900000D03*
X226900000Y-98000000D03*
X226900000Y-61100000D03*
X143100000Y-61100000D03*
X143100000Y-126900000D03*
X226900000Y-126900000D03*
D15*
X185300000Y-97800000D03*
X185300000Y-75800000D03*
G36*
G01*
X161099000Y-107500000D02*
X161099000Y-106000000D01*
G75*
G02*
X161150000Y-105949000I51000J0D01*
G01*
X162150000Y-105949000D01*
G75*
G02*
X162201000Y-106000000I0J-51000D01*
G01*
X162201000Y-107500000D01*
G75*
G02*
X162150000Y-107551000I-51000J0D01*
G01*
X161150000Y-107551000D01*
G75*
G02*
X161099000Y-107500000I0J51000D01*
G01*
G37*
G36*
G01*
X159799000Y-107500000D02*
X159799000Y-106000000D01*
G75*
G02*
X159850000Y-105949000I51000J0D01*
G01*
X160850000Y-105949000D01*
G75*
G02*
X160901000Y-106000000I0J-51000D01*
G01*
X160901000Y-107500000D01*
G75*
G02*
X160850000Y-107551000I-51000J0D01*
G01*
X159850000Y-107551000D01*
G75*
G02*
X159799000Y-107500000I0J51000D01*
G01*
G37*
G36*
G01*
X203711000Y-120189500D02*
X203711000Y-121690500D01*
G75*
G02*
X203310500Y-122091000I-400500J0D01*
G01*
X202509500Y-122091000D01*
G75*
G02*
X202109000Y-121690500I0J400500D01*
G01*
X202109000Y-120189500D01*
G75*
G02*
X202509500Y-119789000I400500J0D01*
G01*
X203310500Y-119789000D01*
G75*
G02*
X203711000Y-120189500I0J-400500D01*
G01*
G37*
G36*
G01*
X210011000Y-120189500D02*
X210011000Y-121690500D01*
G75*
G02*
X209610500Y-122091000I-400500J0D01*
G01*
X208809500Y-122091000D01*
G75*
G02*
X208409000Y-121690500I0J400500D01*
G01*
X208409000Y-120189500D01*
G75*
G02*
X208809500Y-119789000I400500J0D01*
G01*
X209610500Y-119789000D01*
G75*
G02*
X210011000Y-120189500I0J-400500D01*
G01*
G37*
G36*
G01*
X193129000Y-115250000D02*
X193129000Y-113450000D01*
G75*
G02*
X193180000Y-113399000I51000J0D01*
G01*
X194980000Y-113399000D01*
G75*
G02*
X195031000Y-113450000I0J-51000D01*
G01*
X195031000Y-115250000D01*
G75*
G02*
X194980000Y-115301000I-51000J0D01*
G01*
X193180000Y-115301000D01*
G75*
G02*
X193129000Y-115250000I0J51000D01*
G01*
G37*
D16*
X197880000Y-114350000D03*
D13*
X157120000Y-110000000D03*
X153310000Y-110000000D03*
X149500000Y-110000000D03*
G36*
G01*
X144639000Y-111000000D02*
X144639000Y-109000000D01*
G75*
G02*
X144690000Y-108949000I51000J0D01*
G01*
X146690000Y-108949000D01*
G75*
G02*
X146741000Y-109000000I0J-51000D01*
G01*
X146741000Y-111000000D01*
G75*
G02*
X146690000Y-111051000I-51000J0D01*
G01*
X144690000Y-111051000D01*
G75*
G02*
X144639000Y-111000000I0J51000D01*
G01*
G37*
G36*
G01*
X169550000Y-108350000D02*
X169550000Y-105850000D01*
G75*
G02*
X170050000Y-105350000I500000J0D01*
G01*
X172550000Y-105350000D01*
G75*
G02*
X173050000Y-105850000I0J-500000D01*
G01*
X173050000Y-108350000D01*
G75*
G02*
X172550000Y-108850000I-500000J0D01*
G01*
X170050000Y-108850000D01*
G75*
G02*
X169550000Y-108350000I0J500000D01*
G01*
G37*
G36*
G01*
X195000000Y-108350000D02*
X195000000Y-105850000D01*
G75*
G02*
X195500000Y-105350000I500000J0D01*
G01*
X198000000Y-105350000D01*
G75*
G02*
X198500000Y-105850000I0J-500000D01*
G01*
X198500000Y-108350000D01*
G75*
G02*
X198000000Y-108850000I-500000J0D01*
G01*
X195500000Y-108850000D01*
G75*
G02*
X195000000Y-108350000I0J500000D01*
G01*
G37*
D17*
X219850000Y-106030000D03*
X224950000Y-107630000D03*
G36*
G01*
X180399000Y-110281750D02*
X180399000Y-109318250D01*
G75*
G02*
X180668250Y-109049000I269250J0D01*
G01*
X181206750Y-109049000D01*
G75*
G02*
X181476000Y-109318250I0J-269250D01*
G01*
X181476000Y-110281750D01*
G75*
G02*
X181206750Y-110551000I-269250J0D01*
G01*
X180668250Y-110551000D01*
G75*
G02*
X180399000Y-110281750I0J269250D01*
G01*
G37*
G36*
G01*
X178524000Y-110281750D02*
X178524000Y-109318250D01*
G75*
G02*
X178793250Y-109049000I269250J0D01*
G01*
X179331750Y-109049000D01*
G75*
G02*
X179601000Y-109318250I0J-269250D01*
G01*
X179601000Y-110281750D01*
G75*
G02*
X179331750Y-110551000I-269250J0D01*
G01*
X178793250Y-110551000D01*
G75*
G02*
X178524000Y-110281750I0J269250D01*
G01*
G37*
G36*
G01*
X188399000Y-110281750D02*
X188399000Y-109318250D01*
G75*
G02*
X188668250Y-109049000I269250J0D01*
G01*
X189206750Y-109049000D01*
G75*
G02*
X189476000Y-109318250I0J-269250D01*
G01*
X189476000Y-110281750D01*
G75*
G02*
X189206750Y-110551000I-269250J0D01*
G01*
X188668250Y-110551000D01*
G75*
G02*
X188399000Y-110281750I0J269250D01*
G01*
G37*
G36*
G01*
X186524000Y-110281750D02*
X186524000Y-109318250D01*
G75*
G02*
X186793250Y-109049000I269250J0D01*
G01*
X187331750Y-109049000D01*
G75*
G02*
X187601000Y-109318250I0J-269250D01*
G01*
X187601000Y-110281750D01*
G75*
G02*
X187331750Y-110551000I-269250J0D01*
G01*
X186793250Y-110551000D01*
G75*
G02*
X186524000Y-110281750I0J269250D01*
G01*
G37*
D18*
G36*
X208410990Y-121690304D02*
G01*
X208418665Y-121768239D01*
X208441343Y-121842996D01*
X208478167Y-121911890D01*
X208527725Y-121972275D01*
X208588110Y-122021833D01*
X208657004Y-122058657D01*
X208731761Y-122081335D01*
X208809696Y-122089010D01*
X208811322Y-122090175D01*
X208811126Y-122092165D01*
X208809500Y-122093000D01*
X208753138Y-122093000D01*
X208752942Y-122092990D01*
X208680981Y-122085903D01*
X208680596Y-122085827D01*
X208617308Y-122066628D01*
X208616946Y-122066478D01*
X208558608Y-122035296D01*
X208558282Y-122035078D01*
X208507156Y-121993121D01*
X208506879Y-121992844D01*
X208464922Y-121941718D01*
X208464704Y-121941392D01*
X208433522Y-121883054D01*
X208433372Y-121882692D01*
X208414173Y-121819404D01*
X208414097Y-121819019D01*
X208407010Y-121747058D01*
X208407000Y-121746862D01*
X208407000Y-121690500D01*
X208408000Y-121688768D01*
X208410000Y-121688768D01*
X208410990Y-121690304D01*
G37*
G36*
X210012165Y-121688874D02*
G01*
X210013000Y-121690500D01*
X210013000Y-121746862D01*
X210012990Y-121747058D01*
X210005903Y-121819019D01*
X210005827Y-121819404D01*
X209986628Y-121882692D01*
X209986478Y-121883054D01*
X209955296Y-121941392D01*
X209955078Y-121941718D01*
X209913121Y-121992844D01*
X209912844Y-121993121D01*
X209861718Y-122035078D01*
X209861392Y-122035296D01*
X209803054Y-122066478D01*
X209802692Y-122066628D01*
X209739404Y-122085827D01*
X209739019Y-122085903D01*
X209667058Y-122092990D01*
X209666862Y-122093000D01*
X209610500Y-122093000D01*
X209608768Y-122092000D01*
X209608768Y-122090000D01*
X209610304Y-122089010D01*
X209688239Y-122081335D01*
X209762996Y-122058657D01*
X209831890Y-122021833D01*
X209892275Y-121972275D01*
X209941833Y-121911890D01*
X209978657Y-121842996D01*
X210001335Y-121768239D01*
X210009010Y-121690304D01*
X210010175Y-121688678D01*
X210012165Y-121688874D01*
G37*
G36*
X202110990Y-121690304D02*
G01*
X202118665Y-121768239D01*
X202141343Y-121842996D01*
X202178167Y-121911890D01*
X202227725Y-121972275D01*
X202288110Y-122021833D01*
X202357004Y-122058657D01*
X202431761Y-122081335D01*
X202509696Y-122089010D01*
X202511322Y-122090175D01*
X202511126Y-122092165D01*
X202509500Y-122093000D01*
X202453138Y-122093000D01*
X202452942Y-122092990D01*
X202380981Y-122085903D01*
X202380596Y-122085827D01*
X202317308Y-122066628D01*
X202316946Y-122066478D01*
X202258608Y-122035296D01*
X202258282Y-122035078D01*
X202207156Y-121993121D01*
X202206879Y-121992844D01*
X202164922Y-121941718D01*
X202164704Y-121941392D01*
X202133522Y-121883054D01*
X202133372Y-121882692D01*
X202114173Y-121819404D01*
X202114097Y-121819019D01*
X202107010Y-121747058D01*
X202107000Y-121746862D01*
X202107000Y-121690500D01*
X202108000Y-121688768D01*
X202110000Y-121688768D01*
X202110990Y-121690304D01*
G37*
G36*
X203712165Y-121688874D02*
G01*
X203713000Y-121690500D01*
X203713000Y-121746862D01*
X203712990Y-121747058D01*
X203705903Y-121819019D01*
X203705827Y-121819404D01*
X203686628Y-121882692D01*
X203686478Y-121883054D01*
X203655296Y-121941392D01*
X203655078Y-121941718D01*
X203613121Y-121992844D01*
X203612844Y-121993121D01*
X203561718Y-122035078D01*
X203561392Y-122035296D01*
X203503054Y-122066478D01*
X203502692Y-122066628D01*
X203439404Y-122085827D01*
X203439019Y-122085903D01*
X203367058Y-122092990D01*
X203366862Y-122093000D01*
X203310500Y-122093000D01*
X203308768Y-122092000D01*
X203308768Y-122090000D01*
X203310304Y-122089010D01*
X203388239Y-122081335D01*
X203462996Y-122058657D01*
X203531890Y-122021833D01*
X203592275Y-121972275D01*
X203641833Y-121911890D01*
X203678657Y-121842996D01*
X203701335Y-121768239D01*
X203709010Y-121690304D01*
X203710175Y-121688678D01*
X203712165Y-121688874D01*
G37*
G36*
X208811232Y-119788000D02*
G01*
X208811232Y-119790000D01*
X208809696Y-119790990D01*
X208731761Y-119798665D01*
X208657004Y-119821343D01*
X208588110Y-119858167D01*
X208527725Y-119907725D01*
X208478167Y-119968110D01*
X208441343Y-120037004D01*
X208418665Y-120111761D01*
X208410990Y-120189696D01*
X208409825Y-120191322D01*
X208407835Y-120191126D01*
X208407000Y-120189500D01*
X208407000Y-120133138D01*
X208407010Y-120132942D01*
X208414097Y-120060981D01*
X208414173Y-120060596D01*
X208433372Y-119997308D01*
X208433522Y-119996946D01*
X208464704Y-119938608D01*
X208464922Y-119938282D01*
X208506879Y-119887156D01*
X208507156Y-119886879D01*
X208558282Y-119844922D01*
X208558608Y-119844704D01*
X208616946Y-119813522D01*
X208617308Y-119813372D01*
X208680596Y-119794173D01*
X208680981Y-119794097D01*
X208752942Y-119787010D01*
X208753138Y-119787000D01*
X208809500Y-119787000D01*
X208811232Y-119788000D01*
G37*
G36*
X202511232Y-119788000D02*
G01*
X202511232Y-119790000D01*
X202509696Y-119790990D01*
X202431761Y-119798665D01*
X202357004Y-119821343D01*
X202288110Y-119858167D01*
X202227725Y-119907725D01*
X202178167Y-119968110D01*
X202141343Y-120037004D01*
X202118665Y-120111761D01*
X202110990Y-120189696D01*
X202109825Y-120191322D01*
X202107835Y-120191126D01*
X202107000Y-120189500D01*
X202107000Y-120133138D01*
X202107010Y-120132942D01*
X202114097Y-120060981D01*
X202114173Y-120060596D01*
X202133372Y-119997308D01*
X202133522Y-119996946D01*
X202164704Y-119938608D01*
X202164922Y-119938282D01*
X202206879Y-119887156D01*
X202207156Y-119886879D01*
X202258282Y-119844922D01*
X202258608Y-119844704D01*
X202316946Y-119813522D01*
X202317308Y-119813372D01*
X202380596Y-119794173D01*
X202380981Y-119794097D01*
X202452942Y-119787010D01*
X202453138Y-119787000D01*
X202509500Y-119787000D01*
X202511232Y-119788000D01*
G37*
G36*
X209667058Y-119787010D02*
G01*
X209739019Y-119794097D01*
X209739404Y-119794173D01*
X209802692Y-119813372D01*
X209803054Y-119813522D01*
X209861392Y-119844704D01*
X209861718Y-119844922D01*
X209912844Y-119886879D01*
X209913121Y-119887156D01*
X209955078Y-119938282D01*
X209955296Y-119938608D01*
X209986478Y-119996946D01*
X209986628Y-119997308D01*
X210005827Y-120060596D01*
X210005903Y-120060981D01*
X210012990Y-120132942D01*
X210013000Y-120133138D01*
X210013000Y-120189500D01*
X210012000Y-120191232D01*
X210010000Y-120191232D01*
X210009010Y-120189696D01*
X210001335Y-120111761D01*
X209978657Y-120037004D01*
X209941833Y-119968110D01*
X209892275Y-119907725D01*
X209831890Y-119858167D01*
X209762996Y-119821343D01*
X209688239Y-119798665D01*
X209610304Y-119790990D01*
X209608678Y-119789825D01*
X209608874Y-119787835D01*
X209610500Y-119787000D01*
X209666862Y-119787000D01*
X209667058Y-119787010D01*
G37*
G36*
X203367058Y-119787010D02*
G01*
X203439019Y-119794097D01*
X203439404Y-119794173D01*
X203502692Y-119813372D01*
X203503054Y-119813522D01*
X203561392Y-119844704D01*
X203561718Y-119844922D01*
X203612844Y-119886879D01*
X203613121Y-119887156D01*
X203655078Y-119938282D01*
X203655296Y-119938608D01*
X203686478Y-119996946D01*
X203686628Y-119997308D01*
X203705827Y-120060596D01*
X203705903Y-120060981D01*
X203712990Y-120132942D01*
X203713000Y-120133138D01*
X203713000Y-120189500D01*
X203712000Y-120191232D01*
X203710000Y-120191232D01*
X203709010Y-120189696D01*
X203701335Y-120111761D01*
X203678657Y-120037004D01*
X203641833Y-119968110D01*
X203592275Y-119907725D01*
X203531890Y-119858167D01*
X203462996Y-119821343D01*
X203388239Y-119798665D01*
X203310304Y-119790990D01*
X203308678Y-119789825D01*
X203308874Y-119787835D01*
X203310500Y-119787000D01*
X203366862Y-119787000D01*
X203367058Y-119787010D01*
G37*
G36*
X161100732Y-105948000D02*
G01*
X161101000Y-105949000D01*
X161101000Y-107551000D01*
X161100000Y-107552732D01*
X161099000Y-107553000D01*
X160901000Y-107553000D01*
X160899268Y-107552000D01*
X160899000Y-107551000D01*
X160899000Y-105949000D01*
X160900000Y-105947268D01*
X160901000Y-105947000D01*
X161099000Y-105947000D01*
X161100732Y-105948000D01*
G37*
M02*
