G04 #@! TF.GenerationSoftware,KiCad,Pcbnew,5.1.9+dfsg1-1~bpo10+1*
G04 #@! TF.CreationDate,2021-05-12T15:22:45+00:00*
G04 #@! TF.ProjectId,CurrentShuntCircuit,43757272-656e-4745-9368-756e74436972,1*
G04 #@! TF.SameCoordinates,Original*
G04 #@! TF.FileFunction,Legend,Bot*
G04 #@! TF.FilePolarity,Positive*
%FSLAX46Y46*%
G04 Gerber Fmt 4.6, Leading zero omitted, Abs format (unit mm)*
G04 Created by KiCad (PCBNEW 5.1.9+dfsg1-1~bpo10+1) date 2021-05-12 15:22:45*
%MOMM*%
%LPD*%
G01*
G04 APERTURE LIST*
%ADD10C,0.150000*%
%ADD11C,0.200000*%
%ADD12C,0.120000*%
G04 APERTURE END LIST*
D10*
X189609523Y-102512380D02*
X190180952Y-102512380D01*
X189895238Y-102512380D02*
X189895238Y-101512380D01*
X189990476Y-101655238D01*
X190085714Y-101750476D01*
X190180952Y-101798095D01*
X188990476Y-101512380D02*
X188895238Y-101512380D01*
X188800000Y-101560000D01*
X188752380Y-101607619D01*
X188704761Y-101702857D01*
X188657142Y-101893333D01*
X188657142Y-102131428D01*
X188704761Y-102321904D01*
X188752380Y-102417142D01*
X188800000Y-102464761D01*
X188895238Y-102512380D01*
X188990476Y-102512380D01*
X189085714Y-102464761D01*
X189133333Y-102417142D01*
X189180952Y-102321904D01*
X189228571Y-102131428D01*
X189228571Y-101893333D01*
X189180952Y-101702857D01*
X189133333Y-101607619D01*
X189085714Y-101560000D01*
X188990476Y-101512380D01*
X188038095Y-101512380D02*
X187942857Y-101512380D01*
X187847619Y-101560000D01*
X187800000Y-101607619D01*
X187752380Y-101702857D01*
X187704761Y-101893333D01*
X187704761Y-102131428D01*
X187752380Y-102321904D01*
X187800000Y-102417142D01*
X187847619Y-102464761D01*
X187942857Y-102512380D01*
X188038095Y-102512380D01*
X188133333Y-102464761D01*
X188180952Y-102417142D01*
X188228571Y-102321904D01*
X188276190Y-102131428D01*
X188276190Y-101893333D01*
X188228571Y-101702857D01*
X188180952Y-101607619D01*
X188133333Y-101560000D01*
X188038095Y-101512380D01*
X187419047Y-101512380D02*
X187085714Y-102512380D01*
X186752380Y-101512380D01*
X185228571Y-102464761D02*
X185323809Y-102512380D01*
X185514285Y-102512380D01*
X185609523Y-102464761D01*
X185657142Y-102417142D01*
X185704761Y-102321904D01*
X185704761Y-102036190D01*
X185657142Y-101940952D01*
X185609523Y-101893333D01*
X185514285Y-101845714D01*
X185323809Y-101845714D01*
X185228571Y-101893333D01*
X184371428Y-102512380D02*
X184371428Y-101988571D01*
X184419047Y-101893333D01*
X184514285Y-101845714D01*
X184704761Y-101845714D01*
X184800000Y-101893333D01*
X184371428Y-102464761D02*
X184466666Y-102512380D01*
X184704761Y-102512380D01*
X184800000Y-102464761D01*
X184847619Y-102369523D01*
X184847619Y-102274285D01*
X184800000Y-102179047D01*
X184704761Y-102131428D01*
X184466666Y-102131428D01*
X184371428Y-102083809D01*
X183895238Y-101845714D02*
X183895238Y-102845714D01*
X183895238Y-101893333D02*
X183800000Y-101845714D01*
X183609523Y-101845714D01*
X183514285Y-101893333D01*
X183466666Y-101940952D01*
X183419047Y-102036190D01*
X183419047Y-102321904D01*
X183466666Y-102417142D01*
X183514285Y-102464761D01*
X183609523Y-102512380D01*
X183800000Y-102512380D01*
X183895238Y-102464761D01*
X225674285Y-101772380D02*
X226245714Y-101772380D01*
X225960000Y-101772380D02*
X225960000Y-100772380D01*
X226055238Y-100915238D01*
X226150476Y-101010476D01*
X226245714Y-101058095D01*
X225055238Y-100772380D02*
X224960000Y-100772380D01*
X224864761Y-100820000D01*
X224817142Y-100867619D01*
X224769523Y-100962857D01*
X224721904Y-101153333D01*
X224721904Y-101391428D01*
X224769523Y-101581904D01*
X224817142Y-101677142D01*
X224864761Y-101724761D01*
X224960000Y-101772380D01*
X225055238Y-101772380D01*
X225150476Y-101724761D01*
X225198095Y-101677142D01*
X225245714Y-101581904D01*
X225293333Y-101391428D01*
X225293333Y-101153333D01*
X225245714Y-100962857D01*
X225198095Y-100867619D01*
X225150476Y-100820000D01*
X225055238Y-100772380D01*
X224102857Y-100772380D02*
X224007619Y-100772380D01*
X223912380Y-100820000D01*
X223864761Y-100867619D01*
X223817142Y-100962857D01*
X223769523Y-101153333D01*
X223769523Y-101391428D01*
X223817142Y-101581904D01*
X223864761Y-101677142D01*
X223912380Y-101724761D01*
X224007619Y-101772380D01*
X224102857Y-101772380D01*
X224198095Y-101724761D01*
X224245714Y-101677142D01*
X224293333Y-101581904D01*
X224340952Y-101391428D01*
X224340952Y-101153333D01*
X224293333Y-100962857D01*
X224245714Y-100867619D01*
X224198095Y-100820000D01*
X224102857Y-100772380D01*
X223483809Y-100772380D02*
X223150476Y-101772380D01*
X222817142Y-100772380D01*
X221293333Y-101724761D02*
X221388571Y-101772380D01*
X221579047Y-101772380D01*
X221674285Y-101724761D01*
X221721904Y-101677142D01*
X221769523Y-101581904D01*
X221769523Y-101296190D01*
X221721904Y-101200952D01*
X221674285Y-101153333D01*
X221579047Y-101105714D01*
X221388571Y-101105714D01*
X221293333Y-101153333D01*
X220436190Y-101772380D02*
X220436190Y-101248571D01*
X220483809Y-101153333D01*
X220579047Y-101105714D01*
X220769523Y-101105714D01*
X220864761Y-101153333D01*
X220436190Y-101724761D02*
X220531428Y-101772380D01*
X220769523Y-101772380D01*
X220864761Y-101724761D01*
X220912380Y-101629523D01*
X220912380Y-101534285D01*
X220864761Y-101439047D01*
X220769523Y-101391428D01*
X220531428Y-101391428D01*
X220436190Y-101343809D01*
X219960000Y-101105714D02*
X219960000Y-102105714D01*
X219960000Y-101153333D02*
X219864761Y-101105714D01*
X219674285Y-101105714D01*
X219579047Y-101153333D01*
X219531428Y-101200952D01*
X219483809Y-101296190D01*
X219483809Y-101581904D01*
X219531428Y-101677142D01*
X219579047Y-101724761D01*
X219674285Y-101772380D01*
X219864761Y-101772380D01*
X219960000Y-101724761D01*
X219102857Y-101724761D02*
X219007619Y-101772380D01*
X218817142Y-101772380D01*
X218721904Y-101724761D01*
X218674285Y-101629523D01*
X218674285Y-101581904D01*
X218721904Y-101486666D01*
X218817142Y-101439047D01*
X218960000Y-101439047D01*
X219055238Y-101391428D01*
X219102857Y-101296190D01*
X219102857Y-101248571D01*
X219055238Y-101153333D01*
X218960000Y-101105714D01*
X218817142Y-101105714D01*
X218721904Y-101153333D01*
X179652857Y-123859642D02*
X179081428Y-123459642D01*
X179652857Y-123173928D02*
X178452857Y-123173928D01*
X178452857Y-123631071D01*
X178510000Y-123745357D01*
X178567142Y-123802500D01*
X178681428Y-123859642D01*
X178852857Y-123859642D01*
X178967142Y-123802500D01*
X179024285Y-123745357D01*
X179081428Y-123631071D01*
X179081428Y-123173928D01*
X179024285Y-124373928D02*
X179024285Y-124773928D01*
X179652857Y-124945357D02*
X179652857Y-124373928D01*
X178452857Y-124373928D01*
X178452857Y-124945357D01*
X179652857Y-126031071D02*
X179652857Y-125459642D01*
X178452857Y-125459642D01*
X179310000Y-126373928D02*
X179310000Y-126945357D01*
X179652857Y-126259642D02*
X178452857Y-126659642D01*
X179652857Y-127059642D01*
X179081428Y-127688214D02*
X179652857Y-127688214D01*
X178452857Y-127288214D02*
X179081428Y-127688214D01*
X178452857Y-128088214D01*
X177212857Y-123976785D02*
X176641428Y-123576785D01*
X177212857Y-123291071D02*
X176012857Y-123291071D01*
X176012857Y-123748214D01*
X176070000Y-123862499D01*
X176127142Y-123919642D01*
X176241428Y-123976785D01*
X176412857Y-123976785D01*
X176527142Y-123919642D01*
X176584285Y-123862499D01*
X176641428Y-123748214D01*
X176641428Y-123291071D01*
X176012857Y-124376785D02*
X177212857Y-125176785D01*
X176012857Y-125176785D02*
X177212857Y-124376785D01*
X177212857Y-125633928D02*
X176012857Y-125633928D01*
X176012857Y-125919642D01*
X176070000Y-126091071D01*
X176184285Y-126205356D01*
X176298571Y-126262499D01*
X176527142Y-126319642D01*
X176698571Y-126319642D01*
X176927142Y-126262499D01*
X177041428Y-126205356D01*
X177155714Y-126091071D01*
X177212857Y-125919642D01*
X177212857Y-125633928D01*
X173412857Y-123119642D02*
X173412857Y-123805357D01*
X174612857Y-123462500D02*
X173412857Y-123462500D01*
X173412857Y-124091071D02*
X174612857Y-124891071D01*
X173412857Y-124891071D02*
X174612857Y-124091071D01*
X174612857Y-125348214D02*
X173412857Y-125348214D01*
X173412857Y-125633928D01*
X173470000Y-125805357D01*
X173584285Y-125919642D01*
X173698571Y-125976785D01*
X173927142Y-126033928D01*
X174098571Y-126033928D01*
X174327142Y-125976785D01*
X174441428Y-125919642D01*
X174555714Y-125805357D01*
X174612857Y-125633928D01*
X174612857Y-125348214D01*
X171875714Y-123233928D02*
X171932857Y-123405357D01*
X171932857Y-123691071D01*
X171875714Y-123805357D01*
X171818571Y-123862500D01*
X171704285Y-123919643D01*
X171590000Y-123919643D01*
X171475714Y-123862500D01*
X171418571Y-123805357D01*
X171361428Y-123691071D01*
X171304285Y-123462500D01*
X171247142Y-123348214D01*
X171190000Y-123291071D01*
X171075714Y-123233928D01*
X170961428Y-123233928D01*
X170847142Y-123291071D01*
X170790000Y-123348214D01*
X170732857Y-123462500D01*
X170732857Y-123748214D01*
X170790000Y-123919643D01*
X171932857Y-124433928D02*
X170732857Y-124433928D01*
X170732857Y-124719643D01*
X170790000Y-124891071D01*
X170904285Y-125005357D01*
X171018571Y-125062500D01*
X171247142Y-125119643D01*
X171418571Y-125119643D01*
X171647142Y-125062500D01*
X171761428Y-125005357D01*
X171875714Y-124891071D01*
X171932857Y-124719643D01*
X171932857Y-124433928D01*
X171590000Y-125576786D02*
X171590000Y-126148214D01*
X171932857Y-125462500D02*
X170732857Y-125862500D01*
X171932857Y-126262500D01*
X169275714Y-123233928D02*
X169332857Y-123405357D01*
X169332857Y-123691071D01*
X169275714Y-123805357D01*
X169218571Y-123862500D01*
X169104285Y-123919643D01*
X168990000Y-123919643D01*
X168875714Y-123862500D01*
X168818571Y-123805357D01*
X168761428Y-123691071D01*
X168704285Y-123462500D01*
X168647142Y-123348214D01*
X168590000Y-123291071D01*
X168475714Y-123233928D01*
X168361428Y-123233928D01*
X168247142Y-123291071D01*
X168190000Y-123348214D01*
X168132857Y-123462500D01*
X168132857Y-123748214D01*
X168190000Y-123919643D01*
X169218571Y-125119643D02*
X169275714Y-125062500D01*
X169332857Y-124891071D01*
X169332857Y-124776785D01*
X169275714Y-124605357D01*
X169161428Y-124491071D01*
X169047142Y-124433928D01*
X168818571Y-124376785D01*
X168647142Y-124376785D01*
X168418571Y-124433928D01*
X168304285Y-124491071D01*
X168190000Y-124605357D01*
X168132857Y-124776785D01*
X168132857Y-124891071D01*
X168190000Y-125062500D01*
X168247142Y-125119643D01*
X169332857Y-126205357D02*
X169332857Y-125633928D01*
X168132857Y-125633928D01*
X161325714Y-123291071D02*
X161325714Y-124205357D01*
X161782857Y-123748214D02*
X160868571Y-123748214D01*
X160582857Y-125348214D02*
X160582857Y-124776785D01*
X161154285Y-124719642D01*
X161097142Y-124776785D01*
X161040000Y-124891071D01*
X161040000Y-125176785D01*
X161097142Y-125291071D01*
X161154285Y-125348214D01*
X161268571Y-125405357D01*
X161554285Y-125405357D01*
X161668571Y-125348214D01*
X161725714Y-125291071D01*
X161782857Y-125176785D01*
X161782857Y-124891071D01*
X161725714Y-124776785D01*
X161668571Y-124719642D01*
X160582857Y-125748214D02*
X161782857Y-126148214D01*
X160582857Y-126548214D01*
X165740000Y-123919642D02*
X165682857Y-123805357D01*
X165682857Y-123633928D01*
X165740000Y-123462500D01*
X165854285Y-123348214D01*
X165968571Y-123291071D01*
X166197142Y-123233928D01*
X166368571Y-123233928D01*
X166597142Y-123291071D01*
X166711428Y-123348214D01*
X166825714Y-123462500D01*
X166882857Y-123633928D01*
X166882857Y-123748214D01*
X166825714Y-123919642D01*
X166768571Y-123976785D01*
X166368571Y-123976785D01*
X166368571Y-123748214D01*
X166882857Y-124491071D02*
X165682857Y-124491071D01*
X166882857Y-125176785D01*
X165682857Y-125176785D01*
X166882857Y-125748214D02*
X165682857Y-125748214D01*
X165682857Y-126033928D01*
X165740000Y-126205357D01*
X165854285Y-126319642D01*
X165968571Y-126376785D01*
X166197142Y-126433928D01*
X166368571Y-126433928D01*
X166597142Y-126376785D01*
X166711428Y-126319642D01*
X166825714Y-126205357D01*
X166882857Y-126033928D01*
X166882857Y-125748214D01*
D11*
X222964285Y-66572857D02*
X222964285Y-65372857D01*
X222678571Y-65372857D01*
X222507142Y-65430000D01*
X222392857Y-65544285D01*
X222335714Y-65658571D01*
X222278571Y-65887142D01*
X222278571Y-66058571D01*
X222335714Y-66287142D01*
X222392857Y-66401428D01*
X222507142Y-66515714D01*
X222678571Y-66572857D01*
X222964285Y-66572857D01*
X221307142Y-66515714D02*
X221421428Y-66572857D01*
X221650000Y-66572857D01*
X221764285Y-66515714D01*
X221821428Y-66401428D01*
X221821428Y-65944285D01*
X221764285Y-65830000D01*
X221650000Y-65772857D01*
X221421428Y-65772857D01*
X221307142Y-65830000D01*
X221250000Y-65944285D01*
X221250000Y-66058571D01*
X221821428Y-66172857D01*
X220792857Y-66515714D02*
X220678571Y-66572857D01*
X220450000Y-66572857D01*
X220335714Y-66515714D01*
X220278571Y-66401428D01*
X220278571Y-66344285D01*
X220335714Y-66230000D01*
X220450000Y-66172857D01*
X220621428Y-66172857D01*
X220735714Y-66115714D01*
X220792857Y-66001428D01*
X220792857Y-65944285D01*
X220735714Y-65830000D01*
X220621428Y-65772857D01*
X220450000Y-65772857D01*
X220335714Y-65830000D01*
X219764285Y-66572857D02*
X219764285Y-65772857D01*
X219764285Y-65372857D02*
X219821428Y-65430000D01*
X219764285Y-65487142D01*
X219707142Y-65430000D01*
X219764285Y-65372857D01*
X219764285Y-65487142D01*
X218678571Y-65772857D02*
X218678571Y-66744285D01*
X218735714Y-66858571D01*
X218792857Y-66915714D01*
X218907142Y-66972857D01*
X219078571Y-66972857D01*
X219192857Y-66915714D01*
X218678571Y-66515714D02*
X218792857Y-66572857D01*
X219021428Y-66572857D01*
X219135714Y-66515714D01*
X219192857Y-66458571D01*
X219250000Y-66344285D01*
X219250000Y-66001428D01*
X219192857Y-65887142D01*
X219135714Y-65830000D01*
X219021428Y-65772857D01*
X218792857Y-65772857D01*
X218678571Y-65830000D01*
X218107142Y-65772857D02*
X218107142Y-66572857D01*
X218107142Y-65887142D02*
X218050000Y-65830000D01*
X217935714Y-65772857D01*
X217764285Y-65772857D01*
X217650000Y-65830000D01*
X217592857Y-65944285D01*
X217592857Y-66572857D01*
X215764285Y-67030000D02*
X215821428Y-66972857D01*
X215935714Y-66801428D01*
X215992857Y-66687142D01*
X216050000Y-66515714D01*
X216107142Y-66230000D01*
X216107142Y-66001428D01*
X216050000Y-65715714D01*
X215992857Y-65544285D01*
X215935714Y-65430000D01*
X215821428Y-65258571D01*
X215764285Y-65201428D01*
X214792857Y-66515714D02*
X214907142Y-66572857D01*
X215135714Y-66572857D01*
X215250000Y-66515714D01*
X215307142Y-66458571D01*
X215364285Y-66344285D01*
X215364285Y-66001428D01*
X215307142Y-65887142D01*
X215250000Y-65830000D01*
X215135714Y-65772857D01*
X214907142Y-65772857D01*
X214792857Y-65830000D01*
X214392857Y-67030000D02*
X214335714Y-66972857D01*
X214221428Y-66801428D01*
X214164285Y-66687142D01*
X214107142Y-66515714D01*
X214050000Y-66230000D01*
X214050000Y-66001428D01*
X214107142Y-65715714D01*
X214164285Y-65544285D01*
X214221428Y-65430000D01*
X214335714Y-65258571D01*
X214392857Y-65201428D01*
X213535714Y-65487142D02*
X213478571Y-65430000D01*
X213364285Y-65372857D01*
X213078571Y-65372857D01*
X212964285Y-65430000D01*
X212907142Y-65487142D01*
X212850000Y-65601428D01*
X212850000Y-65715714D01*
X212907142Y-65887142D01*
X213592857Y-66572857D01*
X212850000Y-66572857D01*
X212107142Y-65372857D02*
X211992857Y-65372857D01*
X211878571Y-65430000D01*
X211821428Y-65487142D01*
X211764285Y-65601428D01*
X211707142Y-65830000D01*
X211707142Y-66115714D01*
X211764285Y-66344285D01*
X211821428Y-66458571D01*
X211878571Y-66515714D01*
X211992857Y-66572857D01*
X212107142Y-66572857D01*
X212221428Y-66515714D01*
X212278571Y-66458571D01*
X212335714Y-66344285D01*
X212392857Y-66115714D01*
X212392857Y-65830000D01*
X212335714Y-65601428D01*
X212278571Y-65487142D01*
X212221428Y-65430000D01*
X212107142Y-65372857D01*
X211250000Y-65487142D02*
X211192857Y-65430000D01*
X211078571Y-65372857D01*
X210792857Y-65372857D01*
X210678571Y-65430000D01*
X210621428Y-65487142D01*
X210564285Y-65601428D01*
X210564285Y-65715714D01*
X210621428Y-65887142D01*
X211307142Y-66572857D01*
X210564285Y-66572857D01*
X209421428Y-66572857D02*
X210107142Y-66572857D01*
X209764285Y-66572857D02*
X209764285Y-65372857D01*
X209878571Y-65544285D01*
X209992857Y-65658571D01*
X210107142Y-65715714D01*
X208050000Y-66515714D02*
X207878571Y-66572857D01*
X207592857Y-66572857D01*
X207478571Y-66515714D01*
X207421428Y-66458571D01*
X207364285Y-66344285D01*
X207364285Y-66230000D01*
X207421428Y-66115714D01*
X207478571Y-66058571D01*
X207592857Y-66001428D01*
X207821428Y-65944285D01*
X207935714Y-65887142D01*
X207992857Y-65830000D01*
X208050000Y-65715714D01*
X208050000Y-65601428D01*
X207992857Y-65487142D01*
X207935714Y-65430000D01*
X207821428Y-65372857D01*
X207535714Y-65372857D01*
X207364285Y-65430000D01*
X207021428Y-65772857D02*
X206564285Y-65772857D01*
X206850000Y-65372857D02*
X206850000Y-66401428D01*
X206792857Y-66515714D01*
X206678571Y-66572857D01*
X206564285Y-66572857D01*
X205650000Y-65772857D02*
X205650000Y-66572857D01*
X206164285Y-65772857D02*
X206164285Y-66401428D01*
X206107142Y-66515714D01*
X205992857Y-66572857D01*
X205821428Y-66572857D01*
X205707142Y-66515714D01*
X205650000Y-66458571D01*
X204564285Y-66572857D02*
X204564285Y-65944285D01*
X204621428Y-65830000D01*
X204735714Y-65772857D01*
X204964285Y-65772857D01*
X205078571Y-65830000D01*
X204564285Y-66515714D02*
X204678571Y-66572857D01*
X204964285Y-66572857D01*
X205078571Y-66515714D01*
X205135714Y-66401428D01*
X205135714Y-66287142D01*
X205078571Y-66172857D01*
X204964285Y-66115714D01*
X204678571Y-66115714D01*
X204564285Y-66058571D01*
X203992857Y-66572857D02*
X203992857Y-65772857D01*
X203992857Y-66001428D02*
X203935714Y-65887142D01*
X203878571Y-65830000D01*
X203764285Y-65772857D01*
X203650000Y-65772857D01*
X203421428Y-65772857D02*
X202964285Y-65772857D01*
X203250000Y-65372857D02*
X203250000Y-66401428D01*
X203192857Y-66515714D01*
X203078571Y-66572857D01*
X202964285Y-66572857D01*
X201650000Y-66572857D02*
X201650000Y-65372857D01*
X201192857Y-65372857D01*
X201078571Y-65430000D01*
X201021428Y-65487142D01*
X200964285Y-65601428D01*
X200964285Y-65772857D01*
X201021428Y-65887142D01*
X201078571Y-65944285D01*
X201192857Y-66001428D01*
X201650000Y-66001428D01*
X200450000Y-66572857D02*
X200450000Y-65772857D01*
X200450000Y-65372857D02*
X200507142Y-65430000D01*
X200450000Y-65487142D01*
X200392857Y-65430000D01*
X200450000Y-65372857D01*
X200450000Y-65487142D01*
X200050000Y-65772857D02*
X199592857Y-65772857D01*
X199878571Y-65372857D02*
X199878571Y-66401428D01*
X199821428Y-66515714D01*
X199707142Y-66572857D01*
X199592857Y-66572857D01*
X199364285Y-65772857D02*
X198907142Y-65772857D01*
X199192857Y-65372857D02*
X199192857Y-66401428D01*
X199135714Y-66515714D01*
X199021428Y-66572857D01*
X198907142Y-66572857D01*
X197992857Y-66572857D02*
X197992857Y-65944285D01*
X198050000Y-65830000D01*
X198164285Y-65772857D01*
X198392857Y-65772857D01*
X198507142Y-65830000D01*
X197992857Y-66515714D02*
X198107142Y-66572857D01*
X198392857Y-66572857D01*
X198507142Y-66515714D01*
X198564285Y-66401428D01*
X198564285Y-66287142D01*
X198507142Y-66172857D01*
X198392857Y-66115714D01*
X198107142Y-66115714D01*
X197992857Y-66058571D01*
X197535714Y-65772857D02*
X197307142Y-66572857D01*
X197078571Y-66001428D01*
X196850000Y-66572857D01*
X196621428Y-65772857D01*
X195650000Y-66572857D02*
X195650000Y-65944285D01*
X195707142Y-65830000D01*
X195821428Y-65772857D01*
X196050000Y-65772857D01*
X196164285Y-65830000D01*
X195650000Y-66515714D02*
X195764285Y-66572857D01*
X196050000Y-66572857D01*
X196164285Y-66515714D01*
X196221428Y-66401428D01*
X196221428Y-66287142D01*
X196164285Y-66172857D01*
X196050000Y-66115714D01*
X195764285Y-66115714D01*
X195650000Y-66058571D01*
X195192857Y-65772857D02*
X194907142Y-66572857D01*
X194621428Y-65772857D02*
X194907142Y-66572857D01*
X195021428Y-66858571D01*
X195078571Y-66915714D01*
X195192857Y-66972857D01*
X222821428Y-67372857D02*
X222135714Y-67372857D01*
X222478571Y-68572857D02*
X222478571Y-67372857D01*
X221735714Y-68572857D02*
X221735714Y-67372857D01*
X221221428Y-68572857D02*
X221221428Y-67944285D01*
X221278571Y-67830000D01*
X221392857Y-67772857D01*
X221564285Y-67772857D01*
X221678571Y-67830000D01*
X221735714Y-67887142D01*
X220650000Y-68572857D02*
X220650000Y-67772857D01*
X220650000Y-67372857D02*
X220707142Y-67430000D01*
X220650000Y-67487142D01*
X220592857Y-67430000D01*
X220650000Y-67372857D01*
X220650000Y-67487142D01*
X220135714Y-68515714D02*
X220021428Y-68572857D01*
X219792857Y-68572857D01*
X219678571Y-68515714D01*
X219621428Y-68401428D01*
X219621428Y-68344285D01*
X219678571Y-68230000D01*
X219792857Y-68172857D01*
X219964285Y-68172857D01*
X220078571Y-68115714D01*
X220135714Y-68001428D01*
X220135714Y-67944285D01*
X220078571Y-67830000D01*
X219964285Y-67772857D01*
X219792857Y-67772857D01*
X219678571Y-67830000D01*
X218307142Y-67772857D02*
X218078571Y-68572857D01*
X217850000Y-68001428D01*
X217621428Y-68572857D01*
X217392857Y-67772857D01*
X216764285Y-68572857D02*
X216878571Y-68515714D01*
X216935714Y-68458571D01*
X216992857Y-68344285D01*
X216992857Y-68001428D01*
X216935714Y-67887142D01*
X216878571Y-67830000D01*
X216764285Y-67772857D01*
X216592857Y-67772857D01*
X216478571Y-67830000D01*
X216421428Y-67887142D01*
X216364285Y-68001428D01*
X216364285Y-68344285D01*
X216421428Y-68458571D01*
X216478571Y-68515714D01*
X216592857Y-68572857D01*
X216764285Y-68572857D01*
X215850000Y-68572857D02*
X215850000Y-67772857D01*
X215850000Y-68001428D02*
X215792857Y-67887142D01*
X215735714Y-67830000D01*
X215621428Y-67772857D01*
X215507142Y-67772857D01*
X215107142Y-68572857D02*
X215107142Y-67372857D01*
X214992857Y-68115714D02*
X214650000Y-68572857D01*
X214650000Y-67772857D02*
X215107142Y-68230000D01*
X213221428Y-68572857D02*
X213221428Y-67772857D01*
X213221428Y-67372857D02*
X213278571Y-67430000D01*
X213221428Y-67487142D01*
X213164285Y-67430000D01*
X213221428Y-67372857D01*
X213221428Y-67487142D01*
X212707142Y-68515714D02*
X212592857Y-68572857D01*
X212364285Y-68572857D01*
X212250000Y-68515714D01*
X212192857Y-68401428D01*
X212192857Y-68344285D01*
X212250000Y-68230000D01*
X212364285Y-68172857D01*
X212535714Y-68172857D01*
X212650000Y-68115714D01*
X212707142Y-68001428D01*
X212707142Y-67944285D01*
X212650000Y-67830000D01*
X212535714Y-67772857D01*
X212364285Y-67772857D01*
X212250000Y-67830000D01*
X210592857Y-68572857D02*
X210707142Y-68515714D01*
X210764285Y-68401428D01*
X210764285Y-67372857D01*
X210135714Y-68572857D02*
X210135714Y-67772857D01*
X210135714Y-67372857D02*
X210192857Y-67430000D01*
X210135714Y-67487142D01*
X210078571Y-67430000D01*
X210135714Y-67372857D01*
X210135714Y-67487142D01*
X209050000Y-68515714D02*
X209164285Y-68572857D01*
X209392857Y-68572857D01*
X209507142Y-68515714D01*
X209564285Y-68458571D01*
X209621428Y-68344285D01*
X209621428Y-68001428D01*
X209564285Y-67887142D01*
X209507142Y-67830000D01*
X209392857Y-67772857D01*
X209164285Y-67772857D01*
X209050000Y-67830000D01*
X208078571Y-68515714D02*
X208192857Y-68572857D01*
X208421428Y-68572857D01*
X208535714Y-68515714D01*
X208592857Y-68401428D01*
X208592857Y-67944285D01*
X208535714Y-67830000D01*
X208421428Y-67772857D01*
X208192857Y-67772857D01*
X208078571Y-67830000D01*
X208021428Y-67944285D01*
X208021428Y-68058571D01*
X208592857Y-68172857D01*
X207507142Y-67772857D02*
X207507142Y-68572857D01*
X207507142Y-67887142D02*
X207450000Y-67830000D01*
X207335714Y-67772857D01*
X207164285Y-67772857D01*
X207050000Y-67830000D01*
X206992857Y-67944285D01*
X206992857Y-68572857D01*
X206478571Y-68515714D02*
X206364285Y-68572857D01*
X206135714Y-68572857D01*
X206021428Y-68515714D01*
X205964285Y-68401428D01*
X205964285Y-68344285D01*
X206021428Y-68230000D01*
X206135714Y-68172857D01*
X206307142Y-68172857D01*
X206421428Y-68115714D01*
X206478571Y-68001428D01*
X206478571Y-67944285D01*
X206421428Y-67830000D01*
X206307142Y-67772857D01*
X206135714Y-67772857D01*
X206021428Y-67830000D01*
X204992857Y-68515714D02*
X205107142Y-68572857D01*
X205335714Y-68572857D01*
X205450000Y-68515714D01*
X205507142Y-68401428D01*
X205507142Y-67944285D01*
X205450000Y-67830000D01*
X205335714Y-67772857D01*
X205107142Y-67772857D01*
X204992857Y-67830000D01*
X204935714Y-67944285D01*
X204935714Y-68058571D01*
X205507142Y-68172857D01*
X203907142Y-68572857D02*
X203907142Y-67372857D01*
X203907142Y-68515714D02*
X204021428Y-68572857D01*
X204250000Y-68572857D01*
X204364285Y-68515714D01*
X204421428Y-68458571D01*
X204478571Y-68344285D01*
X204478571Y-68001428D01*
X204421428Y-67887142D01*
X204364285Y-67830000D01*
X204250000Y-67772857D01*
X204021428Y-67772857D01*
X203907142Y-67830000D01*
X201907142Y-67772857D02*
X201907142Y-68572857D01*
X202421428Y-67772857D02*
X202421428Y-68401428D01*
X202364285Y-68515714D01*
X202250000Y-68572857D01*
X202078571Y-68572857D01*
X201964285Y-68515714D01*
X201907142Y-68458571D01*
X201335714Y-67772857D02*
X201335714Y-68572857D01*
X201335714Y-67887142D02*
X201278571Y-67830000D01*
X201164285Y-67772857D01*
X200992857Y-67772857D01*
X200878571Y-67830000D01*
X200821428Y-67944285D01*
X200821428Y-68572857D01*
X199735714Y-68572857D02*
X199735714Y-67372857D01*
X199735714Y-68515714D02*
X199850000Y-68572857D01*
X200078571Y-68572857D01*
X200192857Y-68515714D01*
X200250000Y-68458571D01*
X200307142Y-68344285D01*
X200307142Y-68001428D01*
X200250000Y-67887142D01*
X200192857Y-67830000D01*
X200078571Y-67772857D01*
X199850000Y-67772857D01*
X199735714Y-67830000D01*
X198707142Y-68515714D02*
X198821428Y-68572857D01*
X199050000Y-68572857D01*
X199164285Y-68515714D01*
X199221428Y-68401428D01*
X199221428Y-67944285D01*
X199164285Y-67830000D01*
X199050000Y-67772857D01*
X198821428Y-67772857D01*
X198707142Y-67830000D01*
X198650000Y-67944285D01*
X198650000Y-68058571D01*
X199221428Y-68172857D01*
X198135714Y-68572857D02*
X198135714Y-67772857D01*
X198135714Y-68001428D02*
X198078571Y-67887142D01*
X198021428Y-67830000D01*
X197907142Y-67772857D01*
X197792857Y-67772857D01*
X195964285Y-68572857D02*
X195964285Y-67944285D01*
X196021428Y-67830000D01*
X196135714Y-67772857D01*
X196364285Y-67772857D01*
X196478571Y-67830000D01*
X195964285Y-68515714D02*
X196078571Y-68572857D01*
X196364285Y-68572857D01*
X196478571Y-68515714D01*
X196535714Y-68401428D01*
X196535714Y-68287142D01*
X196478571Y-68172857D01*
X196364285Y-68115714D01*
X196078571Y-68115714D01*
X195964285Y-68058571D01*
X216735714Y-70458571D02*
X216792857Y-70515714D01*
X216964285Y-70572857D01*
X217078571Y-70572857D01*
X217250000Y-70515714D01*
X217364285Y-70401428D01*
X217421428Y-70287142D01*
X217478571Y-70058571D01*
X217478571Y-69887142D01*
X217421428Y-69658571D01*
X217364285Y-69544285D01*
X217250000Y-69430000D01*
X217078571Y-69372857D01*
X216964285Y-69372857D01*
X216792857Y-69430000D01*
X216735714Y-69487142D01*
X216221428Y-70572857D02*
X216221428Y-69772857D01*
X216221428Y-70001428D02*
X216164285Y-69887142D01*
X216107142Y-69830000D01*
X215992857Y-69772857D01*
X215878571Y-69772857D01*
X215021428Y-70515714D02*
X215135714Y-70572857D01*
X215364285Y-70572857D01*
X215478571Y-70515714D01*
X215535714Y-70401428D01*
X215535714Y-69944285D01*
X215478571Y-69830000D01*
X215364285Y-69772857D01*
X215135714Y-69772857D01*
X215021428Y-69830000D01*
X214964285Y-69944285D01*
X214964285Y-70058571D01*
X215535714Y-70172857D01*
X213935714Y-70572857D02*
X213935714Y-69944285D01*
X213992857Y-69830000D01*
X214107142Y-69772857D01*
X214335714Y-69772857D01*
X214450000Y-69830000D01*
X213935714Y-70515714D02*
X214050000Y-70572857D01*
X214335714Y-70572857D01*
X214450000Y-70515714D01*
X214507142Y-70401428D01*
X214507142Y-70287142D01*
X214450000Y-70172857D01*
X214335714Y-70115714D01*
X214050000Y-70115714D01*
X213935714Y-70058571D01*
X213535714Y-69772857D02*
X213078571Y-69772857D01*
X213364285Y-69372857D02*
X213364285Y-70401428D01*
X213307142Y-70515714D01*
X213192857Y-70572857D01*
X213078571Y-70572857D01*
X212678571Y-70572857D02*
X212678571Y-69772857D01*
X212678571Y-69372857D02*
X212735714Y-69430000D01*
X212678571Y-69487142D01*
X212621428Y-69430000D01*
X212678571Y-69372857D01*
X212678571Y-69487142D01*
X212221428Y-69772857D02*
X211935714Y-70572857D01*
X211650000Y-69772857D01*
X210735714Y-70515714D02*
X210850000Y-70572857D01*
X211078571Y-70572857D01*
X211192857Y-70515714D01*
X211250000Y-70401428D01*
X211250000Y-69944285D01*
X211192857Y-69830000D01*
X211078571Y-69772857D01*
X210850000Y-69772857D01*
X210735714Y-69830000D01*
X210678571Y-69944285D01*
X210678571Y-70058571D01*
X211250000Y-70172857D01*
X208564285Y-70458571D02*
X208621428Y-70515714D01*
X208792857Y-70572857D01*
X208907142Y-70572857D01*
X209078571Y-70515714D01*
X209192857Y-70401428D01*
X209250000Y-70287142D01*
X209307142Y-70058571D01*
X209307142Y-69887142D01*
X209250000Y-69658571D01*
X209192857Y-69544285D01*
X209078571Y-69430000D01*
X208907142Y-69372857D01*
X208792857Y-69372857D01*
X208621428Y-69430000D01*
X208564285Y-69487142D01*
X207878571Y-70572857D02*
X207992857Y-70515714D01*
X208050000Y-70458571D01*
X208107142Y-70344285D01*
X208107142Y-70001428D01*
X208050000Y-69887142D01*
X207992857Y-69830000D01*
X207878571Y-69772857D01*
X207707142Y-69772857D01*
X207592857Y-69830000D01*
X207535714Y-69887142D01*
X207478571Y-70001428D01*
X207478571Y-70344285D01*
X207535714Y-70458571D01*
X207592857Y-70515714D01*
X207707142Y-70572857D01*
X207878571Y-70572857D01*
X206964285Y-70572857D02*
X206964285Y-69772857D01*
X206964285Y-69887142D02*
X206907142Y-69830000D01*
X206792857Y-69772857D01*
X206621428Y-69772857D01*
X206507142Y-69830000D01*
X206450000Y-69944285D01*
X206450000Y-70572857D01*
X206450000Y-69944285D02*
X206392857Y-69830000D01*
X206278571Y-69772857D01*
X206107142Y-69772857D01*
X205992857Y-69830000D01*
X205935714Y-69944285D01*
X205935714Y-70572857D01*
X205364285Y-70572857D02*
X205364285Y-69772857D01*
X205364285Y-69887142D02*
X205307142Y-69830000D01*
X205192857Y-69772857D01*
X205021428Y-69772857D01*
X204907142Y-69830000D01*
X204850000Y-69944285D01*
X204850000Y-70572857D01*
X204850000Y-69944285D02*
X204792857Y-69830000D01*
X204678571Y-69772857D01*
X204507142Y-69772857D01*
X204392857Y-69830000D01*
X204335714Y-69944285D01*
X204335714Y-70572857D01*
X203592857Y-70572857D02*
X203707142Y-70515714D01*
X203764285Y-70458571D01*
X203821428Y-70344285D01*
X203821428Y-70001428D01*
X203764285Y-69887142D01*
X203707142Y-69830000D01*
X203592857Y-69772857D01*
X203421428Y-69772857D01*
X203307142Y-69830000D01*
X203250000Y-69887142D01*
X203192857Y-70001428D01*
X203192857Y-70344285D01*
X203250000Y-70458571D01*
X203307142Y-70515714D01*
X203421428Y-70572857D01*
X203592857Y-70572857D01*
X202678571Y-69772857D02*
X202678571Y-70572857D01*
X202678571Y-69887142D02*
X202621428Y-69830000D01*
X202507142Y-69772857D01*
X202335714Y-69772857D01*
X202221428Y-69830000D01*
X202164285Y-69944285D01*
X202164285Y-70572857D01*
X201650000Y-70515714D02*
X201535714Y-70572857D01*
X201307142Y-70572857D01*
X201192857Y-70515714D01*
X201135714Y-70401428D01*
X201135714Y-70344285D01*
X201192857Y-70230000D01*
X201307142Y-70172857D01*
X201478571Y-70172857D01*
X201592857Y-70115714D01*
X201650000Y-70001428D01*
X201650000Y-69944285D01*
X201592857Y-69830000D01*
X201478571Y-69772857D01*
X201307142Y-69772857D01*
X201192857Y-69830000D01*
X226307142Y-72230000D02*
X225735714Y-72230000D01*
X226421428Y-72572857D02*
X226021428Y-71372857D01*
X225621428Y-72572857D01*
X225392857Y-71772857D02*
X224935714Y-71772857D01*
X225221428Y-71372857D02*
X225221428Y-72401428D01*
X225164285Y-72515714D01*
X225050000Y-72572857D01*
X224935714Y-72572857D01*
X224707142Y-71772857D02*
X224250000Y-71772857D01*
X224535714Y-71372857D02*
X224535714Y-72401428D01*
X224478571Y-72515714D01*
X224364285Y-72572857D01*
X224250000Y-72572857D01*
X223850000Y-72572857D02*
X223850000Y-71772857D01*
X223850000Y-72001428D02*
X223792857Y-71887142D01*
X223735714Y-71830000D01*
X223621428Y-71772857D01*
X223507142Y-71772857D01*
X223107142Y-72572857D02*
X223107142Y-71772857D01*
X223107142Y-71372857D02*
X223164285Y-71430000D01*
X223107142Y-71487142D01*
X223050000Y-71430000D01*
X223107142Y-71372857D01*
X223107142Y-71487142D01*
X222535714Y-72572857D02*
X222535714Y-71372857D01*
X222535714Y-71830000D02*
X222421428Y-71772857D01*
X222192857Y-71772857D01*
X222078571Y-71830000D01*
X222021428Y-71887142D01*
X221964285Y-72001428D01*
X221964285Y-72344285D01*
X222021428Y-72458571D01*
X222078571Y-72515714D01*
X222192857Y-72572857D01*
X222421428Y-72572857D01*
X222535714Y-72515714D01*
X220935714Y-71772857D02*
X220935714Y-72572857D01*
X221450000Y-71772857D02*
X221450000Y-72401428D01*
X221392857Y-72515714D01*
X221278571Y-72572857D01*
X221107142Y-72572857D01*
X220992857Y-72515714D01*
X220935714Y-72458571D01*
X220535714Y-71772857D02*
X220078571Y-71772857D01*
X220364285Y-71372857D02*
X220364285Y-72401428D01*
X220307142Y-72515714D01*
X220192857Y-72572857D01*
X220078571Y-72572857D01*
X219678571Y-72572857D02*
X219678571Y-71772857D01*
X219678571Y-71372857D02*
X219735714Y-71430000D01*
X219678571Y-71487142D01*
X219621428Y-71430000D01*
X219678571Y-71372857D01*
X219678571Y-71487142D01*
X218935714Y-72572857D02*
X219050000Y-72515714D01*
X219107142Y-72458571D01*
X219164285Y-72344285D01*
X219164285Y-72001428D01*
X219107142Y-71887142D01*
X219050000Y-71830000D01*
X218935714Y-71772857D01*
X218764285Y-71772857D01*
X218650000Y-71830000D01*
X218592857Y-71887142D01*
X218535714Y-72001428D01*
X218535714Y-72344285D01*
X218592857Y-72458571D01*
X218650000Y-72515714D01*
X218764285Y-72572857D01*
X218935714Y-72572857D01*
X218021428Y-71772857D02*
X218021428Y-72572857D01*
X218021428Y-71887142D02*
X217964285Y-71830000D01*
X217850000Y-71772857D01*
X217678571Y-71772857D01*
X217564285Y-71830000D01*
X217507142Y-71944285D01*
X217507142Y-72572857D01*
X216021428Y-72572857D02*
X216021428Y-71372857D01*
X215335714Y-72572857D01*
X215335714Y-71372857D01*
X214592857Y-72572857D02*
X214707142Y-72515714D01*
X214764285Y-72458571D01*
X214821428Y-72344285D01*
X214821428Y-72001428D01*
X214764285Y-71887142D01*
X214707142Y-71830000D01*
X214592857Y-71772857D01*
X214421428Y-71772857D01*
X214307142Y-71830000D01*
X214250000Y-71887142D01*
X214192857Y-72001428D01*
X214192857Y-72344285D01*
X214250000Y-72458571D01*
X214307142Y-72515714D01*
X214421428Y-72572857D01*
X214592857Y-72572857D01*
X213678571Y-71772857D02*
X213678571Y-72572857D01*
X213678571Y-71887142D02*
X213621428Y-71830000D01*
X213507142Y-71772857D01*
X213335714Y-71772857D01*
X213221428Y-71830000D01*
X213164285Y-71944285D01*
X213164285Y-72572857D01*
X211907142Y-72458571D02*
X211964285Y-72515714D01*
X212135714Y-72572857D01*
X212250000Y-72572857D01*
X212421428Y-72515714D01*
X212535714Y-72401428D01*
X212592857Y-72287142D01*
X212650000Y-72058571D01*
X212650000Y-71887142D01*
X212592857Y-71658571D01*
X212535714Y-71544285D01*
X212421428Y-71430000D01*
X212250000Y-71372857D01*
X212135714Y-71372857D01*
X211964285Y-71430000D01*
X211907142Y-71487142D01*
X211221428Y-72572857D02*
X211335714Y-72515714D01*
X211392857Y-72458571D01*
X211450000Y-72344285D01*
X211450000Y-72001428D01*
X211392857Y-71887142D01*
X211335714Y-71830000D01*
X211221428Y-71772857D01*
X211050000Y-71772857D01*
X210935714Y-71830000D01*
X210878571Y-71887142D01*
X210821428Y-72001428D01*
X210821428Y-72344285D01*
X210878571Y-72458571D01*
X210935714Y-72515714D01*
X211050000Y-72572857D01*
X211221428Y-72572857D01*
X210307142Y-72572857D02*
X210307142Y-71772857D01*
X210307142Y-71887142D02*
X210250000Y-71830000D01*
X210135714Y-71772857D01*
X209964285Y-71772857D01*
X209850000Y-71830000D01*
X209792857Y-71944285D01*
X209792857Y-72572857D01*
X209792857Y-71944285D02*
X209735714Y-71830000D01*
X209621428Y-71772857D01*
X209450000Y-71772857D01*
X209335714Y-71830000D01*
X209278571Y-71944285D01*
X209278571Y-72572857D01*
X208707142Y-72572857D02*
X208707142Y-71772857D01*
X208707142Y-71887142D02*
X208650000Y-71830000D01*
X208535714Y-71772857D01*
X208364285Y-71772857D01*
X208250000Y-71830000D01*
X208192857Y-71944285D01*
X208192857Y-72572857D01*
X208192857Y-71944285D02*
X208135714Y-71830000D01*
X208021428Y-71772857D01*
X207850000Y-71772857D01*
X207735714Y-71830000D01*
X207678571Y-71944285D01*
X207678571Y-72572857D01*
X206649999Y-72515714D02*
X206764285Y-72572857D01*
X206992857Y-72572857D01*
X207107142Y-72515714D01*
X207164285Y-72401428D01*
X207164285Y-71944285D01*
X207107142Y-71830000D01*
X206992857Y-71772857D01*
X206764285Y-71772857D01*
X206649999Y-71830000D01*
X206592857Y-71944285D01*
X206592857Y-72058571D01*
X207164285Y-72172857D01*
X206078571Y-72572857D02*
X206078571Y-71772857D01*
X206078571Y-72001428D02*
X206021428Y-71887142D01*
X205964285Y-71830000D01*
X205849999Y-71772857D01*
X205735714Y-71772857D01*
X204821428Y-72515714D02*
X204935714Y-72572857D01*
X205164285Y-72572857D01*
X205278571Y-72515714D01*
X205335714Y-72458571D01*
X205392857Y-72344285D01*
X205392857Y-72001428D01*
X205335714Y-71887142D01*
X205278571Y-71830000D01*
X205164285Y-71772857D01*
X204935714Y-71772857D01*
X204821428Y-71830000D01*
X204307142Y-72572857D02*
X204307142Y-71772857D01*
X204307142Y-71372857D02*
X204364285Y-71430000D01*
X204307142Y-71487142D01*
X204249999Y-71430000D01*
X204307142Y-71372857D01*
X204307142Y-71487142D01*
X203221428Y-72572857D02*
X203221428Y-71944285D01*
X203278571Y-71830000D01*
X203392857Y-71772857D01*
X203621428Y-71772857D01*
X203735714Y-71830000D01*
X203221428Y-72515714D02*
X203335714Y-72572857D01*
X203621428Y-72572857D01*
X203735714Y-72515714D01*
X203792857Y-72401428D01*
X203792857Y-72287142D01*
X203735714Y-72172857D01*
X203621428Y-72115714D01*
X203335714Y-72115714D01*
X203221428Y-72058571D01*
X202478571Y-72572857D02*
X202592857Y-72515714D01*
X202649999Y-72401428D01*
X202649999Y-71372857D01*
X201164285Y-72515714D02*
X200992857Y-72572857D01*
X200707142Y-72572857D01*
X200592857Y-72515714D01*
X200535714Y-72458571D01*
X200478571Y-72344285D01*
X200478571Y-72230000D01*
X200535714Y-72115714D01*
X200592857Y-72058571D01*
X200707142Y-72001428D01*
X200935714Y-71944285D01*
X201049999Y-71887142D01*
X201107142Y-71830000D01*
X201164285Y-71715714D01*
X201164285Y-71601428D01*
X201107142Y-71487142D01*
X201049999Y-71430000D01*
X200935714Y-71372857D01*
X200649999Y-71372857D01*
X200478571Y-71430000D01*
X199964285Y-72572857D02*
X199964285Y-71372857D01*
X199449999Y-72572857D02*
X199449999Y-71944285D01*
X199507142Y-71830000D01*
X199621428Y-71772857D01*
X199792857Y-71772857D01*
X199907142Y-71830000D01*
X199964285Y-71887142D01*
X198364285Y-72572857D02*
X198364285Y-71944285D01*
X198421428Y-71830000D01*
X198535714Y-71772857D01*
X198764285Y-71772857D01*
X198878571Y-71830000D01*
X198364285Y-72515714D02*
X198478571Y-72572857D01*
X198764285Y-72572857D01*
X198878571Y-72515714D01*
X198935714Y-72401428D01*
X198935714Y-72287142D01*
X198878571Y-72172857D01*
X198764285Y-72115714D01*
X198478571Y-72115714D01*
X198364285Y-72058571D01*
X197792857Y-72572857D02*
X197792857Y-71772857D01*
X197792857Y-72001428D02*
X197735714Y-71887142D01*
X197678571Y-71830000D01*
X197564285Y-71772857D01*
X197449999Y-71772857D01*
X196592857Y-72515714D02*
X196707142Y-72572857D01*
X196935714Y-72572857D01*
X197049999Y-72515714D01*
X197107142Y-72401428D01*
X197107142Y-71944285D01*
X197049999Y-71830000D01*
X196935714Y-71772857D01*
X196707142Y-71772857D01*
X196592857Y-71830000D01*
X196535714Y-71944285D01*
X196535714Y-72058571D01*
X197107142Y-72172857D01*
X196078571Y-72230000D02*
X195507142Y-72230000D01*
X196192857Y-72572857D02*
X195792857Y-71372857D01*
X195392857Y-72572857D01*
X194821428Y-72572857D02*
X194935714Y-72515714D01*
X194992857Y-72401428D01*
X194992857Y-71372857D01*
X194364285Y-72572857D02*
X194364285Y-71772857D01*
X194364285Y-71372857D02*
X194421428Y-71430000D01*
X194364285Y-71487142D01*
X194307142Y-71430000D01*
X194364285Y-71372857D01*
X194364285Y-71487142D01*
X193792857Y-72572857D02*
X193792857Y-71372857D01*
X193678571Y-72115714D02*
X193335714Y-72572857D01*
X193335714Y-71772857D02*
X193792857Y-72230000D01*
X192364285Y-72515714D02*
X192478571Y-72572857D01*
X192707142Y-72572857D01*
X192821428Y-72515714D01*
X192878571Y-72401428D01*
X192878571Y-71944285D01*
X192821428Y-71830000D01*
X192707142Y-71772857D01*
X192478571Y-71772857D01*
X192364285Y-71830000D01*
X192307142Y-71944285D01*
X192307142Y-72058571D01*
X192878571Y-72172857D01*
X224335714Y-73487142D02*
X224278571Y-73430000D01*
X224164285Y-73372857D01*
X223878571Y-73372857D01*
X223764285Y-73430000D01*
X223707142Y-73487142D01*
X223650000Y-73601428D01*
X223650000Y-73715714D01*
X223707142Y-73887142D01*
X224392857Y-74572857D01*
X223650000Y-74572857D01*
X223135714Y-74458571D02*
X223078571Y-74515714D01*
X223135714Y-74572857D01*
X223192857Y-74515714D01*
X223135714Y-74458571D01*
X223135714Y-74572857D01*
X222335714Y-73372857D02*
X222221428Y-73372857D01*
X222107142Y-73430000D01*
X222050000Y-73487142D01*
X221992857Y-73601428D01*
X221935714Y-73830000D01*
X221935714Y-74115714D01*
X221992857Y-74344285D01*
X222050000Y-74458571D01*
X222107142Y-74515714D01*
X222221428Y-74572857D01*
X222335714Y-74572857D01*
X222450000Y-74515714D01*
X222507142Y-74458571D01*
X222564285Y-74344285D01*
X222621428Y-74115714D01*
X222621428Y-73830000D01*
X222564285Y-73601428D01*
X222507142Y-73487142D01*
X222450000Y-73430000D01*
X222335714Y-73372857D01*
X220507142Y-73372857D02*
X220507142Y-74344285D01*
X220450000Y-74458571D01*
X220392857Y-74515714D01*
X220278571Y-74572857D01*
X220050000Y-74572857D01*
X219935714Y-74515714D01*
X219878571Y-74458571D01*
X219821428Y-74344285D01*
X219821428Y-73372857D01*
X219250000Y-74572857D02*
X219250000Y-73372857D01*
X218564285Y-74572857D02*
X219078571Y-73887142D01*
X218564285Y-73372857D02*
X219250000Y-74058571D01*
X218050000Y-74458571D02*
X217992857Y-74515714D01*
X218050000Y-74572857D01*
X218107142Y-74515714D01*
X218050000Y-74458571D01*
X218050000Y-74572857D01*
X218050000Y-73830000D02*
X217992857Y-73887142D01*
X218050000Y-73944285D01*
X218107142Y-73887142D01*
X218050000Y-73830000D01*
X218050000Y-73944285D01*
X216564285Y-73944285D02*
X216164285Y-73944285D01*
X215992857Y-74572857D02*
X216564285Y-74572857D01*
X216564285Y-73372857D01*
X215992857Y-73372857D01*
X215478571Y-73772857D02*
X215478571Y-74572857D01*
X215478571Y-73887142D02*
X215421428Y-73830000D01*
X215307142Y-73772857D01*
X215135714Y-73772857D01*
X215021428Y-73830000D01*
X214964285Y-73944285D01*
X214964285Y-74572857D01*
X213878571Y-73772857D02*
X213878571Y-74744285D01*
X213935714Y-74858571D01*
X213992857Y-74915714D01*
X214107142Y-74972857D01*
X214278571Y-74972857D01*
X214392857Y-74915714D01*
X213878571Y-74515714D02*
X213992857Y-74572857D01*
X214221428Y-74572857D01*
X214335714Y-74515714D01*
X214392857Y-74458571D01*
X214450000Y-74344285D01*
X214450000Y-74001428D01*
X214392857Y-73887142D01*
X214335714Y-73830000D01*
X214221428Y-73772857D01*
X213992857Y-73772857D01*
X213878571Y-73830000D01*
X213135714Y-74572857D02*
X213250000Y-74515714D01*
X213307142Y-74401428D01*
X213307142Y-73372857D01*
X212164285Y-74572857D02*
X212164285Y-73944285D01*
X212221428Y-73830000D01*
X212335714Y-73772857D01*
X212564285Y-73772857D01*
X212678571Y-73830000D01*
X212164285Y-74515714D02*
X212278571Y-74572857D01*
X212564285Y-74572857D01*
X212678571Y-74515714D01*
X212735714Y-74401428D01*
X212735714Y-74287142D01*
X212678571Y-74172857D01*
X212564285Y-74115714D01*
X212278571Y-74115714D01*
X212164285Y-74058571D01*
X211592857Y-73772857D02*
X211592857Y-74572857D01*
X211592857Y-73887142D02*
X211535714Y-73830000D01*
X211421428Y-73772857D01*
X211250000Y-73772857D01*
X211135714Y-73830000D01*
X211078571Y-73944285D01*
X211078571Y-74572857D01*
X209992857Y-74572857D02*
X209992857Y-73372857D01*
X209992857Y-74515714D02*
X210107142Y-74572857D01*
X210335714Y-74572857D01*
X210450000Y-74515714D01*
X210507142Y-74458571D01*
X210564285Y-74344285D01*
X210564285Y-74001428D01*
X210507142Y-73887142D01*
X210450000Y-73830000D01*
X210335714Y-73772857D01*
X210107142Y-73772857D01*
X209992857Y-73830000D01*
X207535714Y-74572857D02*
X207592857Y-74572857D01*
X207707142Y-74515714D01*
X207878571Y-74344285D01*
X208164285Y-74001428D01*
X208278571Y-73830000D01*
X208335714Y-73658571D01*
X208335714Y-73544285D01*
X208278571Y-73430000D01*
X208164285Y-73372857D01*
X208107142Y-73372857D01*
X207992857Y-73430000D01*
X207935714Y-73544285D01*
X207935714Y-73601428D01*
X207992857Y-73715714D01*
X208049999Y-73772857D01*
X208392857Y-74001428D01*
X208449999Y-74058571D01*
X208507142Y-74172857D01*
X208507142Y-74344285D01*
X208449999Y-74458571D01*
X208392857Y-74515714D01*
X208278571Y-74572857D01*
X208107142Y-74572857D01*
X207992857Y-74515714D01*
X207935714Y-74458571D01*
X207764285Y-74230000D01*
X207707142Y-74058571D01*
X207707142Y-73944285D01*
X206221428Y-73372857D02*
X205935714Y-74572857D01*
X205707142Y-73715714D01*
X205478571Y-74572857D01*
X205192857Y-73372857D01*
X204221428Y-74572857D02*
X204221428Y-73944285D01*
X204278571Y-73830000D01*
X204392857Y-73772857D01*
X204621428Y-73772857D01*
X204735714Y-73830000D01*
X204221428Y-74515714D02*
X204335714Y-74572857D01*
X204621428Y-74572857D01*
X204735714Y-74515714D01*
X204792857Y-74401428D01*
X204792857Y-74287142D01*
X204735714Y-74172857D01*
X204621428Y-74115714D01*
X204335714Y-74115714D01*
X204221428Y-74058571D01*
X203478571Y-74572857D02*
X203592857Y-74515714D01*
X203650000Y-74401428D01*
X203650000Y-73372857D01*
X202564285Y-74515714D02*
X202678571Y-74572857D01*
X202907142Y-74572857D01*
X203021428Y-74515714D01*
X203078571Y-74401428D01*
X203078571Y-73944285D01*
X203021428Y-73830000D01*
X202907142Y-73772857D01*
X202678571Y-73772857D01*
X202564285Y-73830000D01*
X202507142Y-73944285D01*
X202507142Y-74058571D01*
X203078571Y-74172857D01*
X202049999Y-74515714D02*
X201935714Y-74572857D01*
X201707142Y-74572857D01*
X201592857Y-74515714D01*
X201535714Y-74401428D01*
X201535714Y-74344285D01*
X201592857Y-74230000D01*
X201707142Y-74172857D01*
X201878571Y-74172857D01*
X201992857Y-74115714D01*
X202049999Y-74001428D01*
X202049999Y-73944285D01*
X201992857Y-73830000D01*
X201878571Y-73772857D01*
X201707142Y-73772857D01*
X201592857Y-73830000D01*
X199535714Y-74572857D02*
X200107142Y-74572857D01*
X200107142Y-73372857D01*
X199135714Y-74572857D02*
X199135714Y-73772857D01*
X199135714Y-73372857D02*
X199192857Y-73430000D01*
X199135714Y-73487142D01*
X199078571Y-73430000D01*
X199135714Y-73372857D01*
X199135714Y-73487142D01*
X198049999Y-74515714D02*
X198164285Y-74572857D01*
X198392857Y-74572857D01*
X198507142Y-74515714D01*
X198564285Y-74458571D01*
X198621428Y-74344285D01*
X198621428Y-74001428D01*
X198564285Y-73887142D01*
X198507142Y-73830000D01*
X198392857Y-73772857D01*
X198164285Y-73772857D01*
X198049999Y-73830000D01*
X197078571Y-74515714D02*
X197192857Y-74572857D01*
X197421428Y-74572857D01*
X197535714Y-74515714D01*
X197592857Y-74401428D01*
X197592857Y-73944285D01*
X197535714Y-73830000D01*
X197421428Y-73772857D01*
X197192857Y-73772857D01*
X197078571Y-73830000D01*
X197021428Y-73944285D01*
X197021428Y-74058571D01*
X197592857Y-74172857D01*
X196507142Y-73772857D02*
X196507142Y-74572857D01*
X196507142Y-73887142D02*
X196449999Y-73830000D01*
X196335714Y-73772857D01*
X196164285Y-73772857D01*
X196049999Y-73830000D01*
X195992857Y-73944285D01*
X195992857Y-74572857D01*
X195478571Y-74515714D02*
X195364285Y-74572857D01*
X195135714Y-74572857D01*
X195021428Y-74515714D01*
X194964285Y-74401428D01*
X194964285Y-74344285D01*
X195021428Y-74230000D01*
X195135714Y-74172857D01*
X195307142Y-74172857D01*
X195421428Y-74115714D01*
X195478571Y-74001428D01*
X195478571Y-73944285D01*
X195421428Y-73830000D01*
X195307142Y-73772857D01*
X195135714Y-73772857D01*
X195021428Y-73830000D01*
X193992857Y-74515714D02*
X194107142Y-74572857D01*
X194335714Y-74572857D01*
X194449999Y-74515714D01*
X194507142Y-74401428D01*
X194507142Y-73944285D01*
X194449999Y-73830000D01*
X194335714Y-73772857D01*
X194107142Y-73772857D01*
X193992857Y-73830000D01*
X193935714Y-73944285D01*
X193935714Y-74058571D01*
X194507142Y-74172857D01*
X193421428Y-74458571D02*
X193364285Y-74515714D01*
X193421428Y-74572857D01*
X193478571Y-74515714D01*
X193421428Y-74458571D01*
X193421428Y-74572857D01*
X177644285Y-65372857D02*
X176958571Y-65372857D01*
X177301428Y-66572857D02*
X177301428Y-65372857D01*
X176558571Y-66572857D02*
X176558571Y-65372857D01*
X176044285Y-66572857D02*
X176044285Y-65944285D01*
X176101428Y-65830000D01*
X176215714Y-65772857D01*
X176387142Y-65772857D01*
X176501428Y-65830000D01*
X176558571Y-65887142D01*
X175015714Y-66515714D02*
X175130000Y-66572857D01*
X175358571Y-66572857D01*
X175472857Y-66515714D01*
X175530000Y-66401428D01*
X175530000Y-65944285D01*
X175472857Y-65830000D01*
X175358571Y-65772857D01*
X175130000Y-65772857D01*
X175015714Y-65830000D01*
X174958571Y-65944285D01*
X174958571Y-66058571D01*
X175530000Y-66172857D01*
X173530000Y-66572857D02*
X173530000Y-65372857D01*
X172958571Y-66572857D02*
X172958571Y-65372857D01*
X172272857Y-66572857D01*
X172272857Y-65372857D01*
X171758571Y-66230000D02*
X171187142Y-66230000D01*
X171872857Y-66572857D02*
X171472857Y-65372857D01*
X171072857Y-66572857D01*
X170730000Y-65487142D02*
X170672857Y-65430000D01*
X170558571Y-65372857D01*
X170272857Y-65372857D01*
X170158571Y-65430000D01*
X170101428Y-65487142D01*
X170044285Y-65601428D01*
X170044285Y-65715714D01*
X170101428Y-65887142D01*
X170787142Y-66572857D01*
X170044285Y-66572857D01*
X169587142Y-65487142D02*
X169530000Y-65430000D01*
X169415714Y-65372857D01*
X169130000Y-65372857D01*
X169015714Y-65430000D01*
X168958571Y-65487142D01*
X168901428Y-65601428D01*
X168901428Y-65715714D01*
X168958571Y-65887142D01*
X169644285Y-66572857D01*
X168901428Y-66572857D01*
X168215714Y-65887142D02*
X168330000Y-65830000D01*
X168387142Y-65772857D01*
X168444285Y-65658571D01*
X168444285Y-65601428D01*
X168387142Y-65487142D01*
X168330000Y-65430000D01*
X168215714Y-65372857D01*
X167987142Y-65372857D01*
X167872857Y-65430000D01*
X167815714Y-65487142D01*
X167758571Y-65601428D01*
X167758571Y-65658571D01*
X167815714Y-65772857D01*
X167872857Y-65830000D01*
X167987142Y-65887142D01*
X168215714Y-65887142D01*
X168330000Y-65944285D01*
X168387142Y-66001428D01*
X168444285Y-66115714D01*
X168444285Y-66344285D01*
X168387142Y-66458571D01*
X168330000Y-66515714D01*
X168215714Y-66572857D01*
X167987142Y-66572857D01*
X167872857Y-66515714D01*
X167815714Y-66458571D01*
X167758571Y-66344285D01*
X167758571Y-66115714D01*
X167815714Y-66001428D01*
X167872857Y-65944285D01*
X167987142Y-65887142D01*
X167244285Y-66115714D02*
X166330000Y-66115714D01*
X164958571Y-66687142D02*
X165072857Y-66630000D01*
X165187142Y-66515714D01*
X165358571Y-66344285D01*
X165472857Y-66287142D01*
X165587142Y-66287142D01*
X165530000Y-66572857D02*
X165644285Y-66515714D01*
X165758571Y-66401428D01*
X165815714Y-66172857D01*
X165815714Y-65772857D01*
X165758571Y-65544285D01*
X165644285Y-65430000D01*
X165530000Y-65372857D01*
X165301428Y-65372857D01*
X165187142Y-65430000D01*
X165072857Y-65544285D01*
X165015714Y-65772857D01*
X165015714Y-66172857D01*
X165072857Y-66401428D01*
X165187142Y-66515714D01*
X165301428Y-66572857D01*
X165530000Y-66572857D01*
X163872857Y-66572857D02*
X164558571Y-66572857D01*
X164215714Y-66572857D02*
X164215714Y-65372857D01*
X164330000Y-65544285D01*
X164444285Y-65658571D01*
X164558571Y-65715714D01*
X162444285Y-66572857D02*
X162444285Y-65772857D01*
X162444285Y-65372857D02*
X162501428Y-65430000D01*
X162444285Y-65487142D01*
X162387142Y-65430000D01*
X162444285Y-65372857D01*
X162444285Y-65487142D01*
X161930000Y-66515714D02*
X161815714Y-66572857D01*
X161587142Y-66572857D01*
X161472857Y-66515714D01*
X161415714Y-66401428D01*
X161415714Y-66344285D01*
X161472857Y-66230000D01*
X161587142Y-66172857D01*
X161758571Y-66172857D01*
X161872857Y-66115714D01*
X161930000Y-66001428D01*
X161930000Y-65944285D01*
X161872857Y-65830000D01*
X161758571Y-65772857D01*
X161587142Y-65772857D01*
X161472857Y-65830000D01*
X159472857Y-66572857D02*
X159472857Y-65944285D01*
X159530000Y-65830000D01*
X159644285Y-65772857D01*
X159872857Y-65772857D01*
X159987142Y-65830000D01*
X159472857Y-66515714D02*
X159587142Y-66572857D01*
X159872857Y-66572857D01*
X159987142Y-66515714D01*
X160044285Y-66401428D01*
X160044285Y-66287142D01*
X159987142Y-66172857D01*
X159872857Y-66115714D01*
X159587142Y-66115714D01*
X159472857Y-66058571D01*
X158901428Y-65772857D02*
X158901428Y-66572857D01*
X158901428Y-65887142D02*
X158844285Y-65830000D01*
X158730000Y-65772857D01*
X158558571Y-65772857D01*
X158444285Y-65830000D01*
X158387142Y-65944285D01*
X158387142Y-66572857D01*
X156387142Y-65772857D02*
X156387142Y-66572857D01*
X156901428Y-65772857D02*
X156901428Y-66401428D01*
X156844285Y-66515714D01*
X156730000Y-66572857D01*
X156558571Y-66572857D01*
X156444285Y-66515714D01*
X156387142Y-66458571D01*
X155644285Y-66572857D02*
X155758571Y-66515714D01*
X155815714Y-66401428D01*
X155815714Y-65372857D01*
X155358571Y-65772857D02*
X154901428Y-65772857D01*
X155187142Y-65372857D02*
X155187142Y-66401428D01*
X155130000Y-66515714D01*
X155015714Y-66572857D01*
X154901428Y-66572857D01*
X154501428Y-66572857D02*
X154501428Y-65772857D01*
X154501428Y-66001428D02*
X154444285Y-65887142D01*
X154387142Y-65830000D01*
X154272857Y-65772857D01*
X154158571Y-65772857D01*
X153244285Y-66572857D02*
X153244285Y-65944285D01*
X153301428Y-65830000D01*
X153415714Y-65772857D01*
X153644285Y-65772857D01*
X153758571Y-65830000D01*
X153244285Y-66515714D02*
X153358571Y-66572857D01*
X153644285Y-66572857D01*
X153758571Y-66515714D01*
X153815714Y-66401428D01*
X153815714Y-66287142D01*
X153758571Y-66172857D01*
X153644285Y-66115714D01*
X153358571Y-66115714D01*
X153244285Y-66058571D01*
X152672857Y-66115714D02*
X151758571Y-66115714D01*
X151187142Y-65772857D02*
X151187142Y-66972857D01*
X151187142Y-65830000D02*
X151072857Y-65772857D01*
X150844285Y-65772857D01*
X150730000Y-65830000D01*
X150672857Y-65887142D01*
X150615714Y-66001428D01*
X150615714Y-66344285D01*
X150672857Y-66458571D01*
X150730000Y-66515714D01*
X150844285Y-66572857D01*
X151072857Y-66572857D01*
X151187142Y-66515714D01*
X150101428Y-66572857D02*
X150101428Y-65772857D01*
X150101428Y-66001428D02*
X150044285Y-65887142D01*
X149987142Y-65830000D01*
X149872857Y-65772857D01*
X149758571Y-65772857D01*
X148901428Y-66515714D02*
X149015714Y-66572857D01*
X149244285Y-66572857D01*
X149358571Y-66515714D01*
X149415714Y-66401428D01*
X149415714Y-65944285D01*
X149358571Y-65830000D01*
X149244285Y-65772857D01*
X149015714Y-65772857D01*
X148901428Y-65830000D01*
X148844285Y-65944285D01*
X148844285Y-66058571D01*
X149415714Y-66172857D01*
X147815714Y-66515714D02*
X147930000Y-66572857D01*
X148158571Y-66572857D01*
X148272857Y-66515714D01*
X148330000Y-66458571D01*
X148387142Y-66344285D01*
X148387142Y-66001428D01*
X148330000Y-65887142D01*
X148272857Y-65830000D01*
X148158571Y-65772857D01*
X147930000Y-65772857D01*
X147815714Y-65830000D01*
X147301428Y-66572857D02*
X147301428Y-65772857D01*
X147301428Y-65372857D02*
X147358571Y-65430000D01*
X147301428Y-65487142D01*
X147244285Y-65430000D01*
X147301428Y-65372857D01*
X147301428Y-65487142D01*
X146787142Y-66515714D02*
X146672857Y-66572857D01*
X146444285Y-66572857D01*
X146330000Y-66515714D01*
X146272857Y-66401428D01*
X146272857Y-66344285D01*
X146330000Y-66230000D01*
X146444285Y-66172857D01*
X146615714Y-66172857D01*
X146730000Y-66115714D01*
X146787142Y-66001428D01*
X146787142Y-65944285D01*
X146730000Y-65830000D01*
X146615714Y-65772857D01*
X146444285Y-65772857D01*
X146330000Y-65830000D01*
X145301428Y-66515714D02*
X145415714Y-66572857D01*
X145644285Y-66572857D01*
X145758571Y-66515714D01*
X145815714Y-66401428D01*
X145815714Y-65944285D01*
X145758571Y-65830000D01*
X145644285Y-65772857D01*
X145415714Y-65772857D01*
X145301428Y-65830000D01*
X145244285Y-65944285D01*
X145244285Y-66058571D01*
X145815714Y-66172857D01*
X176158571Y-68572857D02*
X176158571Y-67372857D01*
X176158571Y-68515714D02*
X176272857Y-68572857D01*
X176501428Y-68572857D01*
X176615714Y-68515714D01*
X176672857Y-68458571D01*
X176730000Y-68344285D01*
X176730000Y-68001428D01*
X176672857Y-67887142D01*
X176615714Y-67830000D01*
X176501428Y-67772857D01*
X176272857Y-67772857D01*
X176158571Y-67830000D01*
X175587142Y-68572857D02*
X175587142Y-67772857D01*
X175587142Y-67372857D02*
X175644285Y-67430000D01*
X175587142Y-67487142D01*
X175530000Y-67430000D01*
X175587142Y-67372857D01*
X175587142Y-67487142D01*
X174501428Y-67772857D02*
X174501428Y-68744285D01*
X174558571Y-68858571D01*
X174615714Y-68915714D01*
X174730000Y-68972857D01*
X174901428Y-68972857D01*
X175015714Y-68915714D01*
X174501428Y-68515714D02*
X174615714Y-68572857D01*
X174844285Y-68572857D01*
X174958571Y-68515714D01*
X175015714Y-68458571D01*
X175072857Y-68344285D01*
X175072857Y-68001428D01*
X175015714Y-67887142D01*
X174958571Y-67830000D01*
X174844285Y-67772857D01*
X174615714Y-67772857D01*
X174501428Y-67830000D01*
X173930000Y-68572857D02*
X173930000Y-67772857D01*
X173930000Y-67372857D02*
X173987142Y-67430000D01*
X173930000Y-67487142D01*
X173872857Y-67430000D01*
X173930000Y-67372857D01*
X173930000Y-67487142D01*
X173530000Y-67772857D02*
X173072857Y-67772857D01*
X173358571Y-67372857D02*
X173358571Y-68401428D01*
X173301428Y-68515714D01*
X173187142Y-68572857D01*
X173072857Y-68572857D01*
X172158571Y-68572857D02*
X172158571Y-67944285D01*
X172215714Y-67830000D01*
X172330000Y-67772857D01*
X172558571Y-67772857D01*
X172672857Y-67830000D01*
X172158571Y-68515714D02*
X172272857Y-68572857D01*
X172558571Y-68572857D01*
X172672857Y-68515714D01*
X172730000Y-68401428D01*
X172730000Y-68287142D01*
X172672857Y-68172857D01*
X172558571Y-68115714D01*
X172272857Y-68115714D01*
X172158571Y-68058571D01*
X171415714Y-68572857D02*
X171530000Y-68515714D01*
X171587142Y-68401428D01*
X171587142Y-67372857D01*
X170044285Y-67772857D02*
X170044285Y-68972857D01*
X170044285Y-67830000D02*
X169930000Y-67772857D01*
X169701428Y-67772857D01*
X169587142Y-67830000D01*
X169530000Y-67887142D01*
X169472857Y-68001428D01*
X169472857Y-68344285D01*
X169530000Y-68458571D01*
X169587142Y-68515714D01*
X169701428Y-68572857D01*
X169930000Y-68572857D01*
X170044285Y-68515714D01*
X168787142Y-68572857D02*
X168901428Y-68515714D01*
X168958571Y-68458571D01*
X169015714Y-68344285D01*
X169015714Y-68001428D01*
X168958571Y-67887142D01*
X168901428Y-67830000D01*
X168787142Y-67772857D01*
X168615714Y-67772857D01*
X168501428Y-67830000D01*
X168444285Y-67887142D01*
X168387142Y-68001428D01*
X168387142Y-68344285D01*
X168444285Y-68458571D01*
X168501428Y-68515714D01*
X168615714Y-68572857D01*
X168787142Y-68572857D01*
X167987142Y-67772857D02*
X167758571Y-68572857D01*
X167530000Y-68001428D01*
X167301428Y-68572857D01*
X167072857Y-67772857D01*
X166158571Y-68515714D02*
X166272857Y-68572857D01*
X166501428Y-68572857D01*
X166615714Y-68515714D01*
X166672857Y-68401428D01*
X166672857Y-67944285D01*
X166615714Y-67830000D01*
X166501428Y-67772857D01*
X166272857Y-67772857D01*
X166158571Y-67830000D01*
X166101428Y-67944285D01*
X166101428Y-68058571D01*
X166672857Y-68172857D01*
X165587142Y-68572857D02*
X165587142Y-67772857D01*
X165587142Y-68001428D02*
X165530000Y-67887142D01*
X165472857Y-67830000D01*
X165358571Y-67772857D01*
X165244285Y-67772857D01*
X163930000Y-68572857D02*
X163930000Y-67772857D01*
X163930000Y-67887142D02*
X163872857Y-67830000D01*
X163758571Y-67772857D01*
X163587142Y-67772857D01*
X163472857Y-67830000D01*
X163415714Y-67944285D01*
X163415714Y-68572857D01*
X163415714Y-67944285D02*
X163358571Y-67830000D01*
X163244285Y-67772857D01*
X163072857Y-67772857D01*
X162958571Y-67830000D01*
X162901428Y-67944285D01*
X162901428Y-68572857D01*
X162158571Y-68572857D02*
X162272857Y-68515714D01*
X162330000Y-68458571D01*
X162387142Y-68344285D01*
X162387142Y-68001428D01*
X162330000Y-67887142D01*
X162272857Y-67830000D01*
X162158571Y-67772857D01*
X161987142Y-67772857D01*
X161872857Y-67830000D01*
X161815714Y-67887142D01*
X161758571Y-68001428D01*
X161758571Y-68344285D01*
X161815714Y-68458571D01*
X161872857Y-68515714D01*
X161987142Y-68572857D01*
X162158571Y-68572857D01*
X161244285Y-67772857D02*
X161244285Y-68572857D01*
X161244285Y-67887142D02*
X161187142Y-67830000D01*
X161072857Y-67772857D01*
X160901428Y-67772857D01*
X160787142Y-67830000D01*
X160730000Y-67944285D01*
X160730000Y-68572857D01*
X160158571Y-68572857D02*
X160158571Y-67772857D01*
X160158571Y-67372857D02*
X160215714Y-67430000D01*
X160158571Y-67487142D01*
X160101428Y-67430000D01*
X160158571Y-67372857D01*
X160158571Y-67487142D01*
X159758571Y-67772857D02*
X159301428Y-67772857D01*
X159587142Y-67372857D02*
X159587142Y-68401428D01*
X159530000Y-68515714D01*
X159415714Y-68572857D01*
X159301428Y-68572857D01*
X158730000Y-68572857D02*
X158844285Y-68515714D01*
X158901428Y-68458571D01*
X158958571Y-68344285D01*
X158958571Y-68001428D01*
X158901428Y-67887142D01*
X158844285Y-67830000D01*
X158730000Y-67772857D01*
X158558571Y-67772857D01*
X158444285Y-67830000D01*
X158387142Y-67887142D01*
X158330000Y-68001428D01*
X158330000Y-68344285D01*
X158387142Y-68458571D01*
X158444285Y-68515714D01*
X158558571Y-68572857D01*
X158730000Y-68572857D01*
X157815714Y-68572857D02*
X157815714Y-67772857D01*
X157815714Y-68001428D02*
X157758571Y-67887142D01*
X157701428Y-67830000D01*
X157587142Y-67772857D01*
X157472857Y-67772857D01*
X156272857Y-67772857D02*
X156044285Y-68572857D01*
X155815714Y-68001428D01*
X155587142Y-68572857D01*
X155358571Y-67772857D01*
X154901428Y-68572857D02*
X154901428Y-67772857D01*
X154901428Y-67372857D02*
X154958571Y-67430000D01*
X154901428Y-67487142D01*
X154844285Y-67430000D01*
X154901428Y-67372857D01*
X154901428Y-67487142D01*
X154501428Y-67772857D02*
X154044285Y-67772857D01*
X154330000Y-67372857D02*
X154330000Y-68401428D01*
X154272857Y-68515714D01*
X154158571Y-68572857D01*
X154044285Y-68572857D01*
X153644285Y-68572857D02*
X153644285Y-67372857D01*
X153130000Y-68572857D02*
X153130000Y-67944285D01*
X153187142Y-67830000D01*
X153301428Y-67772857D01*
X153472857Y-67772857D01*
X153587142Y-67830000D01*
X153644285Y-67887142D01*
X151701428Y-67487142D02*
X151644285Y-67430000D01*
X151530000Y-67372857D01*
X151244285Y-67372857D01*
X151130000Y-67430000D01*
X151072857Y-67487142D01*
X151015714Y-67601428D01*
X151015714Y-67715714D01*
X151072857Y-67887142D01*
X151758571Y-68572857D01*
X151015714Y-68572857D01*
X150272857Y-67372857D02*
X150158571Y-67372857D01*
X150044285Y-67430000D01*
X149987142Y-67487142D01*
X149930000Y-67601428D01*
X149872857Y-67830000D01*
X149872857Y-68115714D01*
X149930000Y-68344285D01*
X149987142Y-68458571D01*
X150044285Y-68515714D01*
X150158571Y-68572857D01*
X150272857Y-68572857D01*
X150387142Y-68515714D01*
X150444285Y-68458571D01*
X150501428Y-68344285D01*
X150558571Y-68115714D01*
X150558571Y-67830000D01*
X150501428Y-67601428D01*
X150444285Y-67487142D01*
X150387142Y-67430000D01*
X150272857Y-67372857D01*
X149358571Y-68115714D02*
X148444285Y-68115714D01*
X147872857Y-68572857D02*
X147872857Y-67372857D01*
X147872857Y-67830000D02*
X147758571Y-67772857D01*
X147530000Y-67772857D01*
X147415714Y-67830000D01*
X147358571Y-67887142D01*
X147301428Y-68001428D01*
X147301428Y-68344285D01*
X147358571Y-68458571D01*
X147415714Y-68515714D01*
X147530000Y-68572857D01*
X147758571Y-68572857D01*
X147872857Y-68515714D01*
X146787142Y-68572857D02*
X146787142Y-67772857D01*
X146787142Y-67372857D02*
X146844285Y-67430000D01*
X146787142Y-67487142D01*
X146730000Y-67430000D01*
X146787142Y-67372857D01*
X146787142Y-67487142D01*
X146387142Y-67772857D02*
X145930000Y-67772857D01*
X146215714Y-67372857D02*
X146215714Y-68401428D01*
X146158571Y-68515714D01*
X146044285Y-68572857D01*
X145930000Y-68572857D01*
X173530000Y-70572857D02*
X173530000Y-69372857D01*
X173530000Y-70515714D02*
X173644285Y-70572857D01*
X173872857Y-70572857D01*
X173987142Y-70515714D01*
X174044285Y-70458571D01*
X174101428Y-70344285D01*
X174101428Y-70001428D01*
X174044285Y-69887142D01*
X173987142Y-69830000D01*
X173872857Y-69772857D01*
X173644285Y-69772857D01*
X173530000Y-69830000D01*
X172501428Y-70515714D02*
X172615714Y-70572857D01*
X172844285Y-70572857D01*
X172958571Y-70515714D01*
X173015714Y-70401428D01*
X173015714Y-69944285D01*
X172958571Y-69830000D01*
X172844285Y-69772857D01*
X172615714Y-69772857D01*
X172501428Y-69830000D01*
X172444285Y-69944285D01*
X172444285Y-70058571D01*
X173015714Y-70172857D01*
X171758571Y-70572857D02*
X171872857Y-70515714D01*
X171930000Y-70401428D01*
X171930000Y-69372857D01*
X171472857Y-69772857D02*
X171015714Y-69772857D01*
X171301428Y-69372857D02*
X171301428Y-70401428D01*
X171244285Y-70515714D01*
X171130000Y-70572857D01*
X171015714Y-70572857D01*
X170101428Y-70572857D02*
X170101428Y-69944285D01*
X170158571Y-69830000D01*
X170272857Y-69772857D01*
X170501428Y-69772857D01*
X170615714Y-69830000D01*
X170101428Y-70515714D02*
X170215714Y-70572857D01*
X170501428Y-70572857D01*
X170615714Y-70515714D01*
X170672857Y-70401428D01*
X170672857Y-70287142D01*
X170615714Y-70172857D01*
X170501428Y-70115714D01*
X170215714Y-70115714D01*
X170101428Y-70058571D01*
X169530000Y-70115714D02*
X168615714Y-70115714D01*
X168101428Y-70515714D02*
X167987142Y-70572857D01*
X167758571Y-70572857D01*
X167644285Y-70515714D01*
X167587142Y-70401428D01*
X167587142Y-70344285D01*
X167644285Y-70230000D01*
X167758571Y-70172857D01*
X167930000Y-70172857D01*
X168044285Y-70115714D01*
X168101428Y-70001428D01*
X168101428Y-69944285D01*
X168044285Y-69830000D01*
X167930000Y-69772857D01*
X167758571Y-69772857D01*
X167644285Y-69830000D01*
X167072857Y-70572857D02*
X167072857Y-69772857D01*
X167072857Y-69372857D02*
X167130000Y-69430000D01*
X167072857Y-69487142D01*
X167015714Y-69430000D01*
X167072857Y-69372857D01*
X167072857Y-69487142D01*
X165987142Y-69772857D02*
X165987142Y-70744285D01*
X166044285Y-70858571D01*
X166101428Y-70915714D01*
X166215714Y-70972857D01*
X166387142Y-70972857D01*
X166501428Y-70915714D01*
X165987142Y-70515714D02*
X166101428Y-70572857D01*
X166330000Y-70572857D01*
X166444285Y-70515714D01*
X166501428Y-70458571D01*
X166558571Y-70344285D01*
X166558571Y-70001428D01*
X166501428Y-69887142D01*
X166444285Y-69830000D01*
X166330000Y-69772857D01*
X166101428Y-69772857D01*
X165987142Y-69830000D01*
X165415714Y-70572857D02*
X165415714Y-69772857D01*
X165415714Y-69887142D02*
X165358571Y-69830000D01*
X165244285Y-69772857D01*
X165072857Y-69772857D01*
X164958571Y-69830000D01*
X164901428Y-69944285D01*
X164901428Y-70572857D01*
X164901428Y-69944285D02*
X164844285Y-69830000D01*
X164730000Y-69772857D01*
X164558571Y-69772857D01*
X164444285Y-69830000D01*
X164387142Y-69944285D01*
X164387142Y-70572857D01*
X163301428Y-70572857D02*
X163301428Y-69944285D01*
X163358571Y-69830000D01*
X163472857Y-69772857D01*
X163701428Y-69772857D01*
X163815714Y-69830000D01*
X163301428Y-70515714D02*
X163415714Y-70572857D01*
X163701428Y-70572857D01*
X163815714Y-70515714D01*
X163872857Y-70401428D01*
X163872857Y-70287142D01*
X163815714Y-70172857D01*
X163701428Y-70115714D01*
X163415714Y-70115714D01*
X163301428Y-70058571D01*
X161872857Y-70230000D02*
X161301428Y-70230000D01*
X161987142Y-70572857D02*
X161587142Y-69372857D01*
X161187142Y-70572857D01*
X160787142Y-70572857D02*
X160787142Y-69372857D01*
X160501428Y-69372857D01*
X160330000Y-69430000D01*
X160215714Y-69544285D01*
X160158571Y-69658571D01*
X160101428Y-69887142D01*
X160101428Y-70058571D01*
X160158571Y-70287142D01*
X160215714Y-70401428D01*
X160330000Y-70515714D01*
X160501428Y-70572857D01*
X160787142Y-70572857D01*
X158901428Y-70458571D02*
X158958571Y-70515714D01*
X159130000Y-70572857D01*
X159244285Y-70572857D01*
X159415714Y-70515714D01*
X159530000Y-70401428D01*
X159587142Y-70287142D01*
X159644285Y-70058571D01*
X159644285Y-69887142D01*
X159587142Y-69658571D01*
X159530000Y-69544285D01*
X159415714Y-69430000D01*
X159244285Y-69372857D01*
X159130000Y-69372857D01*
X158958571Y-69430000D01*
X158901428Y-69487142D01*
X157530000Y-70515714D02*
X157415714Y-70572857D01*
X157187142Y-70572857D01*
X157072857Y-70515714D01*
X157015714Y-70401428D01*
X157015714Y-70344285D01*
X157072857Y-70230000D01*
X157187142Y-70172857D01*
X157358571Y-70172857D01*
X157472857Y-70115714D01*
X157530000Y-70001428D01*
X157530000Y-69944285D01*
X157472857Y-69830000D01*
X157358571Y-69772857D01*
X157187142Y-69772857D01*
X157072857Y-69830000D01*
X156501428Y-69772857D02*
X156501428Y-70972857D01*
X156501428Y-69830000D02*
X156387142Y-69772857D01*
X156158571Y-69772857D01*
X156044285Y-69830000D01*
X155987142Y-69887142D01*
X155930000Y-70001428D01*
X155930000Y-70344285D01*
X155987142Y-70458571D01*
X156044285Y-70515714D01*
X156158571Y-70572857D01*
X156387142Y-70572857D01*
X156501428Y-70515714D01*
X154958571Y-70515714D02*
X155072857Y-70572857D01*
X155301428Y-70572857D01*
X155415714Y-70515714D01*
X155472857Y-70401428D01*
X155472857Y-69944285D01*
X155415714Y-69830000D01*
X155301428Y-69772857D01*
X155072857Y-69772857D01*
X154958571Y-69830000D01*
X154901428Y-69944285D01*
X154901428Y-70058571D01*
X155472857Y-70172857D01*
X153872857Y-70515714D02*
X153987142Y-70572857D01*
X154215714Y-70572857D01*
X154330000Y-70515714D01*
X154387142Y-70458571D01*
X154444285Y-70344285D01*
X154444285Y-70001428D01*
X154387142Y-69887142D01*
X154330000Y-69830000D01*
X154215714Y-69772857D01*
X153987142Y-69772857D01*
X153872857Y-69830000D01*
X153358571Y-70572857D02*
X153358571Y-69772857D01*
X153358571Y-69372857D02*
X153415714Y-69430000D01*
X153358571Y-69487142D01*
X153301428Y-69430000D01*
X153358571Y-69372857D01*
X153358571Y-69487142D01*
X152958571Y-69772857D02*
X152501428Y-69772857D01*
X152787142Y-70572857D02*
X152787142Y-69544285D01*
X152730000Y-69430000D01*
X152615714Y-69372857D01*
X152501428Y-69372857D01*
X152101428Y-70572857D02*
X152101428Y-69772857D01*
X152101428Y-69372857D02*
X152158571Y-69430000D01*
X152101428Y-69487142D01*
X152044285Y-69430000D01*
X152101428Y-69372857D01*
X152101428Y-69487142D01*
X151015714Y-70515714D02*
X151130000Y-70572857D01*
X151358571Y-70572857D01*
X151472857Y-70515714D01*
X151530000Y-70458571D01*
X151587142Y-70344285D01*
X151587142Y-70001428D01*
X151530000Y-69887142D01*
X151472857Y-69830000D01*
X151358571Y-69772857D01*
X151130000Y-69772857D01*
X151015714Y-69830000D01*
X149987142Y-70572857D02*
X149987142Y-69944285D01*
X150044285Y-69830000D01*
X150158571Y-69772857D01*
X150387142Y-69772857D01*
X150501428Y-69830000D01*
X149987142Y-70515714D02*
X150101428Y-70572857D01*
X150387142Y-70572857D01*
X150501428Y-70515714D01*
X150558571Y-70401428D01*
X150558571Y-70287142D01*
X150501428Y-70172857D01*
X150387142Y-70115714D01*
X150101428Y-70115714D01*
X149987142Y-70058571D01*
X149244285Y-70572857D02*
X149358571Y-70515714D01*
X149415714Y-70401428D01*
X149415714Y-69372857D01*
X148615714Y-70572857D02*
X148730000Y-70515714D01*
X148787142Y-70401428D01*
X148787142Y-69372857D01*
X148272857Y-69772857D02*
X147987142Y-70572857D01*
X147701428Y-69772857D02*
X147987142Y-70572857D01*
X148101428Y-70858571D01*
X148158571Y-70915714D01*
X148272857Y-70972857D01*
X174072857Y-72572857D02*
X174072857Y-71372857D01*
X174072857Y-72515714D02*
X174187142Y-72572857D01*
X174415714Y-72572857D01*
X174530000Y-72515714D01*
X174587142Y-72458571D01*
X174644285Y-72344285D01*
X174644285Y-72001428D01*
X174587142Y-71887142D01*
X174530000Y-71830000D01*
X174415714Y-71772857D01*
X174187142Y-71772857D01*
X174072857Y-71830000D01*
X173044285Y-72515714D02*
X173158571Y-72572857D01*
X173387142Y-72572857D01*
X173501428Y-72515714D01*
X173558571Y-72401428D01*
X173558571Y-71944285D01*
X173501428Y-71830000D01*
X173387142Y-71772857D01*
X173158571Y-71772857D01*
X173044285Y-71830000D01*
X172987142Y-71944285D01*
X172987142Y-72058571D01*
X173558571Y-72172857D01*
X172530000Y-72515714D02*
X172415714Y-72572857D01*
X172187142Y-72572857D01*
X172072857Y-72515714D01*
X172015714Y-72401428D01*
X172015714Y-72344285D01*
X172072857Y-72230000D01*
X172187142Y-72172857D01*
X172358571Y-72172857D01*
X172472857Y-72115714D01*
X172530000Y-72001428D01*
X172530000Y-71944285D01*
X172472857Y-71830000D01*
X172358571Y-71772857D01*
X172187142Y-71772857D01*
X172072857Y-71830000D01*
X171501428Y-72572857D02*
X171501428Y-71772857D01*
X171501428Y-71372857D02*
X171558571Y-71430000D01*
X171501428Y-71487142D01*
X171444285Y-71430000D01*
X171501428Y-71372857D01*
X171501428Y-71487142D01*
X170415714Y-71772857D02*
X170415714Y-72744285D01*
X170472857Y-72858571D01*
X170530000Y-72915714D01*
X170644285Y-72972857D01*
X170815714Y-72972857D01*
X170930000Y-72915714D01*
X170415714Y-72515714D02*
X170530000Y-72572857D01*
X170758571Y-72572857D01*
X170872857Y-72515714D01*
X170930000Y-72458571D01*
X170987142Y-72344285D01*
X170987142Y-72001428D01*
X170930000Y-71887142D01*
X170872857Y-71830000D01*
X170758571Y-71772857D01*
X170530000Y-71772857D01*
X170415714Y-71830000D01*
X169844285Y-71772857D02*
X169844285Y-72572857D01*
X169844285Y-71887142D02*
X169787142Y-71830000D01*
X169672857Y-71772857D01*
X169501428Y-71772857D01*
X169387142Y-71830000D01*
X169330000Y-71944285D01*
X169330000Y-72572857D01*
X168301428Y-72515714D02*
X168415714Y-72572857D01*
X168644285Y-72572857D01*
X168758571Y-72515714D01*
X168815714Y-72401428D01*
X168815714Y-71944285D01*
X168758571Y-71830000D01*
X168644285Y-71772857D01*
X168415714Y-71772857D01*
X168301428Y-71830000D01*
X168244285Y-71944285D01*
X168244285Y-72058571D01*
X168815714Y-72172857D01*
X167215714Y-72572857D02*
X167215714Y-71372857D01*
X167215714Y-72515714D02*
X167330000Y-72572857D01*
X167558571Y-72572857D01*
X167672857Y-72515714D01*
X167730000Y-72458571D01*
X167787142Y-72344285D01*
X167787142Y-72001428D01*
X167730000Y-71887142D01*
X167672857Y-71830000D01*
X167558571Y-71772857D01*
X167330000Y-71772857D01*
X167215714Y-71830000D01*
X165901428Y-71772857D02*
X165444285Y-71772857D01*
X165730000Y-72572857D02*
X165730000Y-71544285D01*
X165672857Y-71430000D01*
X165558571Y-71372857D01*
X165444285Y-71372857D01*
X164872857Y-72572857D02*
X164987142Y-72515714D01*
X165044285Y-72458571D01*
X165101428Y-72344285D01*
X165101428Y-72001428D01*
X165044285Y-71887142D01*
X164987142Y-71830000D01*
X164872857Y-71772857D01*
X164701428Y-71772857D01*
X164587142Y-71830000D01*
X164530000Y-71887142D01*
X164472857Y-72001428D01*
X164472857Y-72344285D01*
X164530000Y-72458571D01*
X164587142Y-72515714D01*
X164701428Y-72572857D01*
X164872857Y-72572857D01*
X163958571Y-72572857D02*
X163958571Y-71772857D01*
X163958571Y-72001428D02*
X163901428Y-71887142D01*
X163844285Y-71830000D01*
X163730000Y-71772857D01*
X163615714Y-71772857D01*
X161787142Y-72515714D02*
X161901428Y-72572857D01*
X162130000Y-72572857D01*
X162244285Y-72515714D01*
X162301428Y-72458571D01*
X162358571Y-72344285D01*
X162358571Y-72001428D01*
X162301428Y-71887142D01*
X162244285Y-71830000D01*
X162130000Y-71772857D01*
X161901428Y-71772857D01*
X161787142Y-71830000D01*
X160758571Y-71772857D02*
X160758571Y-72572857D01*
X161272857Y-71772857D02*
X161272857Y-72401428D01*
X161215714Y-72515714D01*
X161101428Y-72572857D01*
X160930000Y-72572857D01*
X160815714Y-72515714D01*
X160758571Y-72458571D01*
X160187142Y-72572857D02*
X160187142Y-71772857D01*
X160187142Y-72001428D02*
X160130000Y-71887142D01*
X160072857Y-71830000D01*
X159958571Y-71772857D01*
X159844285Y-71772857D01*
X159444285Y-72572857D02*
X159444285Y-71772857D01*
X159444285Y-72001428D02*
X159387142Y-71887142D01*
X159330000Y-71830000D01*
X159215714Y-71772857D01*
X159101428Y-71772857D01*
X158244285Y-72515714D02*
X158358571Y-72572857D01*
X158587142Y-72572857D01*
X158701428Y-72515714D01*
X158758571Y-72401428D01*
X158758571Y-71944285D01*
X158701428Y-71830000D01*
X158587142Y-71772857D01*
X158358571Y-71772857D01*
X158244285Y-71830000D01*
X158187142Y-71944285D01*
X158187142Y-72058571D01*
X158758571Y-72172857D01*
X157672857Y-71772857D02*
X157672857Y-72572857D01*
X157672857Y-71887142D02*
X157615714Y-71830000D01*
X157501428Y-71772857D01*
X157330000Y-71772857D01*
X157215714Y-71830000D01*
X157158571Y-71944285D01*
X157158571Y-72572857D01*
X156758571Y-71772857D02*
X156301428Y-71772857D01*
X156587142Y-71372857D02*
X156587142Y-72401428D01*
X156530000Y-72515714D01*
X156415714Y-72572857D01*
X156301428Y-72572857D01*
X155901428Y-72115714D02*
X154987142Y-72115714D01*
X154472857Y-72515714D02*
X154358571Y-72572857D01*
X154130000Y-72572857D01*
X154015714Y-72515714D01*
X153958571Y-72401428D01*
X153958571Y-72344285D01*
X154015714Y-72230000D01*
X154130000Y-72172857D01*
X154301428Y-72172857D01*
X154415714Y-72115714D01*
X154472857Y-72001428D01*
X154472857Y-71944285D01*
X154415714Y-71830000D01*
X154301428Y-71772857D01*
X154130000Y-71772857D01*
X154015714Y-71830000D01*
X152987142Y-72515714D02*
X153101428Y-72572857D01*
X153330000Y-72572857D01*
X153444285Y-72515714D01*
X153501428Y-72401428D01*
X153501428Y-71944285D01*
X153444285Y-71830000D01*
X153330000Y-71772857D01*
X153101428Y-71772857D01*
X152987142Y-71830000D01*
X152930000Y-71944285D01*
X152930000Y-72058571D01*
X153501428Y-72172857D01*
X152415714Y-71772857D02*
X152415714Y-72572857D01*
X152415714Y-71887142D02*
X152358571Y-71830000D01*
X152244285Y-71772857D01*
X152072857Y-71772857D01*
X151958571Y-71830000D01*
X151901428Y-71944285D01*
X151901428Y-72572857D01*
X151387142Y-72515714D02*
X151272857Y-72572857D01*
X151044285Y-72572857D01*
X150930000Y-72515714D01*
X150872857Y-72401428D01*
X150872857Y-72344285D01*
X150930000Y-72230000D01*
X151044285Y-72172857D01*
X151215714Y-72172857D01*
X151330000Y-72115714D01*
X151387142Y-72001428D01*
X151387142Y-71944285D01*
X151330000Y-71830000D01*
X151215714Y-71772857D01*
X151044285Y-71772857D01*
X150930000Y-71830000D01*
X150358571Y-72572857D02*
X150358571Y-71772857D01*
X150358571Y-71372857D02*
X150415714Y-71430000D01*
X150358571Y-71487142D01*
X150301428Y-71430000D01*
X150358571Y-71372857D01*
X150358571Y-71487142D01*
X149787142Y-71772857D02*
X149787142Y-72572857D01*
X149787142Y-71887142D02*
X149730000Y-71830000D01*
X149615714Y-71772857D01*
X149444285Y-71772857D01*
X149330000Y-71830000D01*
X149272857Y-71944285D01*
X149272857Y-72572857D01*
X148187142Y-71772857D02*
X148187142Y-72744285D01*
X148244285Y-72858571D01*
X148301428Y-72915714D01*
X148415714Y-72972857D01*
X148587142Y-72972857D01*
X148701428Y-72915714D01*
X148187142Y-72515714D02*
X148301428Y-72572857D01*
X148530000Y-72572857D01*
X148644285Y-72515714D01*
X148701428Y-72458571D01*
X148758571Y-72344285D01*
X148758571Y-72001428D01*
X148701428Y-71887142D01*
X148644285Y-71830000D01*
X148530000Y-71772857D01*
X148301428Y-71772857D01*
X148187142Y-71830000D01*
X173672857Y-74572857D02*
X173672857Y-73944285D01*
X173730000Y-73830000D01*
X173844285Y-73772857D01*
X174072857Y-73772857D01*
X174187142Y-73830000D01*
X173672857Y-74515714D02*
X173787142Y-74572857D01*
X174072857Y-74572857D01*
X174187142Y-74515714D01*
X174244285Y-74401428D01*
X174244285Y-74287142D01*
X174187142Y-74172857D01*
X174072857Y-74115714D01*
X173787142Y-74115714D01*
X173672857Y-74058571D01*
X173101428Y-73772857D02*
X173101428Y-74972857D01*
X173101428Y-73830000D02*
X172987142Y-73772857D01*
X172758571Y-73772857D01*
X172644285Y-73830000D01*
X172587142Y-73887142D01*
X172530000Y-74001428D01*
X172530000Y-74344285D01*
X172587142Y-74458571D01*
X172644285Y-74515714D01*
X172758571Y-74572857D01*
X172987142Y-74572857D01*
X173101428Y-74515714D01*
X172015714Y-73772857D02*
X172015714Y-74972857D01*
X172015714Y-73830000D02*
X171901428Y-73772857D01*
X171672857Y-73772857D01*
X171558571Y-73830000D01*
X171501428Y-73887142D01*
X171444285Y-74001428D01*
X171444285Y-74344285D01*
X171501428Y-74458571D01*
X171558571Y-74515714D01*
X171672857Y-74572857D01*
X171901428Y-74572857D01*
X172015714Y-74515714D01*
X170758571Y-74572857D02*
X170872857Y-74515714D01*
X170930000Y-74401428D01*
X170930000Y-73372857D01*
X170301428Y-74572857D02*
X170301428Y-73772857D01*
X170301428Y-73372857D02*
X170358571Y-73430000D01*
X170301428Y-73487142D01*
X170244285Y-73430000D01*
X170301428Y-73372857D01*
X170301428Y-73487142D01*
X169215714Y-74515714D02*
X169330000Y-74572857D01*
X169558571Y-74572857D01*
X169672857Y-74515714D01*
X169730000Y-74458571D01*
X169787142Y-74344285D01*
X169787142Y-74001428D01*
X169730000Y-73887142D01*
X169672857Y-73830000D01*
X169558571Y-73772857D01*
X169330000Y-73772857D01*
X169215714Y-73830000D01*
X168187142Y-74572857D02*
X168187142Y-73944285D01*
X168244285Y-73830000D01*
X168358571Y-73772857D01*
X168587142Y-73772857D01*
X168701428Y-73830000D01*
X168187142Y-74515714D02*
X168301428Y-74572857D01*
X168587142Y-74572857D01*
X168701428Y-74515714D01*
X168758571Y-74401428D01*
X168758571Y-74287142D01*
X168701428Y-74172857D01*
X168587142Y-74115714D01*
X168301428Y-74115714D01*
X168187142Y-74058571D01*
X167787142Y-73772857D02*
X167330000Y-73772857D01*
X167615714Y-73372857D02*
X167615714Y-74401428D01*
X167558571Y-74515714D01*
X167444285Y-74572857D01*
X167330000Y-74572857D01*
X166930000Y-74572857D02*
X166930000Y-73772857D01*
X166930000Y-73372857D02*
X166987142Y-73430000D01*
X166930000Y-73487142D01*
X166872857Y-73430000D01*
X166930000Y-73372857D01*
X166930000Y-73487142D01*
X166187142Y-74572857D02*
X166301428Y-74515714D01*
X166358571Y-74458571D01*
X166415714Y-74344285D01*
X166415714Y-74001428D01*
X166358571Y-73887142D01*
X166301428Y-73830000D01*
X166187142Y-73772857D01*
X166015714Y-73772857D01*
X165901428Y-73830000D01*
X165844285Y-73887142D01*
X165787142Y-74001428D01*
X165787142Y-74344285D01*
X165844285Y-74458571D01*
X165901428Y-74515714D01*
X166015714Y-74572857D01*
X166187142Y-74572857D01*
X165272857Y-73772857D02*
X165272857Y-74572857D01*
X165272857Y-73887142D02*
X165215714Y-73830000D01*
X165101428Y-73772857D01*
X164930000Y-73772857D01*
X164815714Y-73830000D01*
X164758571Y-73944285D01*
X164758571Y-74572857D01*
X164244285Y-74515714D02*
X164130000Y-74572857D01*
X163901428Y-74572857D01*
X163787142Y-74515714D01*
X163730000Y-74401428D01*
X163730000Y-74344285D01*
X163787142Y-74230000D01*
X163901428Y-74172857D01*
X164072857Y-74172857D01*
X164187142Y-74115714D01*
X164244285Y-74001428D01*
X164244285Y-73944285D01*
X164187142Y-73830000D01*
X164072857Y-73772857D01*
X163901428Y-73772857D01*
X163787142Y-73830000D01*
X163215714Y-74458571D02*
X163158571Y-74515714D01*
X163215714Y-74572857D01*
X163272857Y-74515714D01*
X163215714Y-74458571D01*
X163215714Y-74572857D01*
X161901428Y-73372857D02*
X161215714Y-73372857D01*
X161558571Y-74572857D02*
X161558571Y-73372857D01*
X160815714Y-74572857D02*
X160815714Y-73372857D01*
X160301428Y-74572857D02*
X160301428Y-73944285D01*
X160358571Y-73830000D01*
X160472857Y-73772857D01*
X160644285Y-73772857D01*
X160758571Y-73830000D01*
X160815714Y-73887142D01*
X159272857Y-74515714D02*
X159387142Y-74572857D01*
X159615714Y-74572857D01*
X159730000Y-74515714D01*
X159787142Y-74401428D01*
X159787142Y-73944285D01*
X159730000Y-73830000D01*
X159615714Y-73772857D01*
X159387142Y-73772857D01*
X159272857Y-73830000D01*
X159215714Y-73944285D01*
X159215714Y-74058571D01*
X159787142Y-74172857D01*
X157272857Y-74572857D02*
X157272857Y-73372857D01*
X157272857Y-74515714D02*
X157387142Y-74572857D01*
X157615714Y-74572857D01*
X157730000Y-74515714D01*
X157787142Y-74458571D01*
X157844285Y-74344285D01*
X157844285Y-74001428D01*
X157787142Y-73887142D01*
X157730000Y-73830000D01*
X157615714Y-73772857D01*
X157387142Y-73772857D01*
X157272857Y-73830000D01*
X156244285Y-74515714D02*
X156358571Y-74572857D01*
X156587142Y-74572857D01*
X156701428Y-74515714D01*
X156758571Y-74401428D01*
X156758571Y-73944285D01*
X156701428Y-73830000D01*
X156587142Y-73772857D01*
X156358571Y-73772857D01*
X156244285Y-73830000D01*
X156187142Y-73944285D01*
X156187142Y-74058571D01*
X156758571Y-74172857D01*
X155787142Y-73772857D02*
X155501428Y-74572857D01*
X155215714Y-73772857D01*
X154758571Y-74572857D02*
X154758571Y-73772857D01*
X154758571Y-73372857D02*
X154815714Y-73430000D01*
X154758571Y-73487142D01*
X154701428Y-73430000D01*
X154758571Y-73372857D01*
X154758571Y-73487142D01*
X153672857Y-74515714D02*
X153787142Y-74572857D01*
X154015714Y-74572857D01*
X154130000Y-74515714D01*
X154187142Y-74458571D01*
X154244285Y-74344285D01*
X154244285Y-74001428D01*
X154187142Y-73887142D01*
X154130000Y-73830000D01*
X154015714Y-73772857D01*
X153787142Y-73772857D01*
X153672857Y-73830000D01*
X152701428Y-74515714D02*
X152815714Y-74572857D01*
X153044285Y-74572857D01*
X153158571Y-74515714D01*
X153215714Y-74401428D01*
X153215714Y-73944285D01*
X153158571Y-73830000D01*
X153044285Y-73772857D01*
X152815714Y-73772857D01*
X152701428Y-73830000D01*
X152644285Y-73944285D01*
X152644285Y-74058571D01*
X153215714Y-74172857D01*
X150701428Y-74515714D02*
X150815714Y-74572857D01*
X151044285Y-74572857D01*
X151158571Y-74515714D01*
X151215714Y-74458571D01*
X151272857Y-74344285D01*
X151272857Y-74001428D01*
X151215714Y-73887142D01*
X151158571Y-73830000D01*
X151044285Y-73772857D01*
X150815714Y-73772857D01*
X150701428Y-73830000D01*
X149672857Y-74572857D02*
X149672857Y-73944285D01*
X149730000Y-73830000D01*
X149844285Y-73772857D01*
X150072857Y-73772857D01*
X150187142Y-73830000D01*
X149672857Y-74515714D02*
X149787142Y-74572857D01*
X150072857Y-74572857D01*
X150187142Y-74515714D01*
X150244285Y-74401428D01*
X150244285Y-74287142D01*
X150187142Y-74172857D01*
X150072857Y-74115714D01*
X149787142Y-74115714D01*
X149672857Y-74058571D01*
X149101428Y-73772857D02*
X149101428Y-74572857D01*
X149101428Y-73887142D02*
X149044285Y-73830000D01*
X148930000Y-73772857D01*
X148758571Y-73772857D01*
X148644285Y-73830000D01*
X148587142Y-73944285D01*
X148587142Y-74572857D01*
X176358571Y-76572857D02*
X176358571Y-75772857D01*
X176358571Y-75887142D02*
X176301428Y-75830000D01*
X176187142Y-75772857D01*
X176015714Y-75772857D01*
X175901428Y-75830000D01*
X175844285Y-75944285D01*
X175844285Y-76572857D01*
X175844285Y-75944285D02*
X175787142Y-75830000D01*
X175672857Y-75772857D01*
X175501428Y-75772857D01*
X175387142Y-75830000D01*
X175330000Y-75944285D01*
X175330000Y-76572857D01*
X174301428Y-76515714D02*
X174415714Y-76572857D01*
X174644285Y-76572857D01*
X174758571Y-76515714D01*
X174815714Y-76401428D01*
X174815714Y-75944285D01*
X174758571Y-75830000D01*
X174644285Y-75772857D01*
X174415714Y-75772857D01*
X174301428Y-75830000D01*
X174244285Y-75944285D01*
X174244285Y-76058571D01*
X174815714Y-76172857D01*
X173215714Y-76572857D02*
X173215714Y-75944285D01*
X173272857Y-75830000D01*
X173387142Y-75772857D01*
X173615714Y-75772857D01*
X173730000Y-75830000D01*
X173215714Y-76515714D02*
X173330000Y-76572857D01*
X173615714Y-76572857D01*
X173730000Y-76515714D01*
X173787142Y-76401428D01*
X173787142Y-76287142D01*
X173730000Y-76172857D01*
X173615714Y-76115714D01*
X173330000Y-76115714D01*
X173215714Y-76058571D01*
X172701428Y-76515714D02*
X172587142Y-76572857D01*
X172358571Y-76572857D01*
X172244285Y-76515714D01*
X172187142Y-76401428D01*
X172187142Y-76344285D01*
X172244285Y-76230000D01*
X172358571Y-76172857D01*
X172530000Y-76172857D01*
X172644285Y-76115714D01*
X172701428Y-76001428D01*
X172701428Y-75944285D01*
X172644285Y-75830000D01*
X172530000Y-75772857D01*
X172358571Y-75772857D01*
X172244285Y-75830000D01*
X171158571Y-75772857D02*
X171158571Y-76572857D01*
X171672857Y-75772857D02*
X171672857Y-76401428D01*
X171615714Y-76515714D01*
X171501428Y-76572857D01*
X171330000Y-76572857D01*
X171215714Y-76515714D01*
X171158571Y-76458571D01*
X170587142Y-76572857D02*
X170587142Y-75772857D01*
X170587142Y-76001428D02*
X170530000Y-75887142D01*
X170472857Y-75830000D01*
X170358571Y-75772857D01*
X170244285Y-75772857D01*
X169387142Y-76515714D02*
X169501428Y-76572857D01*
X169730000Y-76572857D01*
X169844285Y-76515714D01*
X169901428Y-76401428D01*
X169901428Y-75944285D01*
X169844285Y-75830000D01*
X169730000Y-75772857D01*
X169501428Y-75772857D01*
X169387142Y-75830000D01*
X169330000Y-75944285D01*
X169330000Y-76058571D01*
X169901428Y-76172857D01*
X167387142Y-76572857D02*
X167387142Y-75944285D01*
X167444285Y-75830000D01*
X167558571Y-75772857D01*
X167787142Y-75772857D01*
X167901428Y-75830000D01*
X167387142Y-76515714D02*
X167501428Y-76572857D01*
X167787142Y-76572857D01*
X167901428Y-76515714D01*
X167958571Y-76401428D01*
X167958571Y-76287142D01*
X167901428Y-76172857D01*
X167787142Y-76115714D01*
X167501428Y-76115714D01*
X167387142Y-76058571D01*
X166072857Y-75772857D02*
X165615714Y-75772857D01*
X165901428Y-76572857D02*
X165901428Y-75544285D01*
X165844285Y-75430000D01*
X165730000Y-75372857D01*
X165615714Y-75372857D01*
X164701428Y-75772857D02*
X164701428Y-76572857D01*
X165215714Y-75772857D02*
X165215714Y-76401428D01*
X165158571Y-76515714D01*
X165044285Y-76572857D01*
X164872857Y-76572857D01*
X164758571Y-76515714D01*
X164701428Y-76458571D01*
X163958571Y-76572857D02*
X164072857Y-76515714D01*
X164129999Y-76401428D01*
X164129999Y-75372857D01*
X163329999Y-76572857D02*
X163444285Y-76515714D01*
X163501428Y-76401428D01*
X163501428Y-75372857D01*
X162872857Y-76115714D02*
X161958571Y-76115714D01*
X161444285Y-76515714D02*
X161329999Y-76572857D01*
X161101428Y-76572857D01*
X160987142Y-76515714D01*
X160929999Y-76401428D01*
X160929999Y-76344285D01*
X160987142Y-76230000D01*
X161101428Y-76172857D01*
X161272857Y-76172857D01*
X161387142Y-76115714D01*
X161444285Y-76001428D01*
X161444285Y-75944285D01*
X161387142Y-75830000D01*
X161272857Y-75772857D01*
X161101428Y-75772857D01*
X160987142Y-75830000D01*
X159901428Y-76515714D02*
X160015714Y-76572857D01*
X160244285Y-76572857D01*
X160358571Y-76515714D01*
X160415714Y-76458571D01*
X160472857Y-76344285D01*
X160472857Y-76001428D01*
X160415714Y-75887142D01*
X160358571Y-75830000D01*
X160244285Y-75772857D01*
X160015714Y-75772857D01*
X159901428Y-75830000D01*
X158872857Y-76572857D02*
X158872857Y-75944285D01*
X158929999Y-75830000D01*
X159044285Y-75772857D01*
X159272857Y-75772857D01*
X159387142Y-75830000D01*
X158872857Y-76515714D02*
X158987142Y-76572857D01*
X159272857Y-76572857D01*
X159387142Y-76515714D01*
X159444285Y-76401428D01*
X159444285Y-76287142D01*
X159387142Y-76172857D01*
X159272857Y-76115714D01*
X158987142Y-76115714D01*
X158872857Y-76058571D01*
X158129999Y-76572857D02*
X158244285Y-76515714D01*
X158301428Y-76401428D01*
X158301428Y-75372857D01*
X157215714Y-76515714D02*
X157329999Y-76572857D01*
X157558571Y-76572857D01*
X157672857Y-76515714D01*
X157729999Y-76401428D01*
X157729999Y-75944285D01*
X157672857Y-75830000D01*
X157558571Y-75772857D01*
X157329999Y-75772857D01*
X157215714Y-75830000D01*
X157158571Y-75944285D01*
X157158571Y-76058571D01*
X157729999Y-76172857D01*
X155215714Y-76572857D02*
X155215714Y-75372857D01*
X155215714Y-76515714D02*
X155329999Y-76572857D01*
X155558571Y-76572857D01*
X155672857Y-76515714D01*
X155729999Y-76458571D01*
X155787142Y-76344285D01*
X155787142Y-76001428D01*
X155729999Y-75887142D01*
X155672857Y-75830000D01*
X155558571Y-75772857D01*
X155329999Y-75772857D01*
X155215714Y-75830000D01*
X154644285Y-76572857D02*
X154644285Y-75772857D01*
X154644285Y-75372857D02*
X154701428Y-75430000D01*
X154644285Y-75487142D01*
X154587142Y-75430000D01*
X154644285Y-75372857D01*
X154644285Y-75487142D01*
X154244285Y-75772857D02*
X153787142Y-75772857D01*
X154072857Y-76572857D02*
X154072857Y-75544285D01*
X154015714Y-75430000D01*
X153901428Y-75372857D01*
X153787142Y-75372857D01*
X153558571Y-75772857D02*
X153101428Y-75772857D01*
X153387142Y-76572857D02*
X153387142Y-75544285D01*
X153329999Y-75430000D01*
X153215714Y-75372857D01*
X153101428Y-75372857D01*
X152244285Y-76515714D02*
X152358571Y-76572857D01*
X152587142Y-76572857D01*
X152701428Y-76515714D01*
X152758571Y-76401428D01*
X152758571Y-75944285D01*
X152701428Y-75830000D01*
X152587142Y-75772857D01*
X152358571Y-75772857D01*
X152244285Y-75830000D01*
X152187142Y-75944285D01*
X152187142Y-76058571D01*
X152758571Y-76172857D01*
X151672857Y-76572857D02*
X151672857Y-75772857D01*
X151672857Y-76001428D02*
X151615714Y-75887142D01*
X151558571Y-75830000D01*
X151444285Y-75772857D01*
X151329999Y-75772857D01*
X150472857Y-76515714D02*
X150587142Y-76572857D01*
X150815714Y-76572857D01*
X150929999Y-76515714D01*
X150987142Y-76401428D01*
X150987142Y-75944285D01*
X150929999Y-75830000D01*
X150815714Y-75772857D01*
X150587142Y-75772857D01*
X150472857Y-75830000D01*
X150415714Y-75944285D01*
X150415714Y-76058571D01*
X150987142Y-76172857D01*
X149901428Y-75772857D02*
X149901428Y-76572857D01*
X149901428Y-75887142D02*
X149844285Y-75830000D01*
X149729999Y-75772857D01*
X149558571Y-75772857D01*
X149444285Y-75830000D01*
X149387142Y-75944285D01*
X149387142Y-76572857D01*
X148987142Y-75772857D02*
X148529999Y-75772857D01*
X148815714Y-75372857D02*
X148815714Y-76401428D01*
X148758571Y-76515714D01*
X148644285Y-76572857D01*
X148529999Y-76572857D01*
X148129999Y-76572857D02*
X148129999Y-75772857D01*
X148129999Y-75372857D02*
X148187142Y-75430000D01*
X148129999Y-75487142D01*
X148072857Y-75430000D01*
X148129999Y-75372857D01*
X148129999Y-75487142D01*
X147044285Y-76572857D02*
X147044285Y-75944285D01*
X147101428Y-75830000D01*
X147215714Y-75772857D01*
X147444285Y-75772857D01*
X147558571Y-75830000D01*
X147044285Y-76515714D02*
X147158571Y-76572857D01*
X147444285Y-76572857D01*
X147558571Y-76515714D01*
X147615714Y-76401428D01*
X147615714Y-76287142D01*
X147558571Y-76172857D01*
X147444285Y-76115714D01*
X147158571Y-76115714D01*
X147044285Y-76058571D01*
X146301428Y-76572857D02*
X146415714Y-76515714D01*
X146472857Y-76401428D01*
X146472857Y-75372857D01*
X177730000Y-78572857D02*
X177730000Y-77772857D01*
X177730000Y-77372857D02*
X177787142Y-77430000D01*
X177730000Y-77487142D01*
X177672857Y-77430000D01*
X177730000Y-77372857D01*
X177730000Y-77487142D01*
X177158571Y-77772857D02*
X177158571Y-78572857D01*
X177158571Y-77887142D02*
X177101428Y-77830000D01*
X176987142Y-77772857D01*
X176815714Y-77772857D01*
X176701428Y-77830000D01*
X176644285Y-77944285D01*
X176644285Y-78572857D01*
X176072857Y-77772857D02*
X176072857Y-78972857D01*
X176072857Y-77830000D02*
X175958571Y-77772857D01*
X175730000Y-77772857D01*
X175615714Y-77830000D01*
X175558571Y-77887142D01*
X175501428Y-78001428D01*
X175501428Y-78344285D01*
X175558571Y-78458571D01*
X175615714Y-78515714D01*
X175730000Y-78572857D01*
X175958571Y-78572857D01*
X176072857Y-78515714D01*
X174472857Y-77772857D02*
X174472857Y-78572857D01*
X174987142Y-77772857D02*
X174987142Y-78401428D01*
X174930000Y-78515714D01*
X174815714Y-78572857D01*
X174644285Y-78572857D01*
X174530000Y-78515714D01*
X174472857Y-78458571D01*
X174072857Y-77772857D02*
X173615714Y-77772857D01*
X173901428Y-77372857D02*
X173901428Y-78401428D01*
X173844285Y-78515714D01*
X173729999Y-78572857D01*
X173615714Y-78572857D01*
X172129999Y-78572857D02*
X172244285Y-78515714D01*
X172301428Y-78458571D01*
X172358571Y-78344285D01*
X172358571Y-78001428D01*
X172301428Y-77887142D01*
X172244285Y-77830000D01*
X172129999Y-77772857D01*
X171958571Y-77772857D01*
X171844285Y-77830000D01*
X171787142Y-77887142D01*
X171729999Y-78001428D01*
X171729999Y-78344285D01*
X171787142Y-78458571D01*
X171844285Y-78515714D01*
X171958571Y-78572857D01*
X172129999Y-78572857D01*
X171387142Y-77772857D02*
X170929999Y-77772857D01*
X171215714Y-78572857D02*
X171215714Y-77544285D01*
X171158571Y-77430000D01*
X171044285Y-77372857D01*
X170929999Y-77372857D01*
X169615714Y-77887142D02*
X168701428Y-77887142D01*
X169158571Y-78344285D02*
X169158571Y-77430000D01*
X168701428Y-78572857D02*
X169615714Y-78572857D01*
X167501428Y-78572857D02*
X168187142Y-78572857D01*
X167844285Y-78572857D02*
X167844285Y-77372857D01*
X167958571Y-77544285D01*
X168072857Y-77658571D01*
X168187142Y-77715714D01*
X166472857Y-77372857D02*
X166701428Y-77372857D01*
X166815714Y-77430000D01*
X166872857Y-77487142D01*
X166987142Y-77658571D01*
X167044285Y-77887142D01*
X167044285Y-78344285D01*
X166987142Y-78458571D01*
X166929999Y-78515714D01*
X166815714Y-78572857D01*
X166587142Y-78572857D01*
X166472857Y-78515714D01*
X166415714Y-78458571D01*
X166358571Y-78344285D01*
X166358571Y-78058571D01*
X166415714Y-77944285D01*
X166472857Y-77887142D01*
X166587142Y-77830000D01*
X166815714Y-77830000D01*
X166929999Y-77887142D01*
X166987142Y-77944285D01*
X167044285Y-78058571D01*
X165958571Y-77372857D02*
X165215714Y-77372857D01*
X165615714Y-77830000D01*
X165444285Y-77830000D01*
X165329999Y-77887142D01*
X165272857Y-77944285D01*
X165215714Y-78058571D01*
X165215714Y-78344285D01*
X165272857Y-78458571D01*
X165329999Y-78515714D01*
X165444285Y-78572857D01*
X165787142Y-78572857D01*
X165901428Y-78515714D01*
X165958571Y-78458571D01*
X164701428Y-78458571D02*
X164644285Y-78515714D01*
X164701428Y-78572857D01*
X164758571Y-78515714D01*
X164701428Y-78458571D01*
X164701428Y-78572857D01*
X163958571Y-77887142D02*
X164072857Y-77830000D01*
X164129999Y-77772857D01*
X164187142Y-77658571D01*
X164187142Y-77601428D01*
X164129999Y-77487142D01*
X164072857Y-77430000D01*
X163958571Y-77372857D01*
X163729999Y-77372857D01*
X163615714Y-77430000D01*
X163558571Y-77487142D01*
X163501428Y-77601428D01*
X163501428Y-77658571D01*
X163558571Y-77772857D01*
X163615714Y-77830000D01*
X163729999Y-77887142D01*
X163958571Y-77887142D01*
X164072857Y-77944285D01*
X164129999Y-78001428D01*
X164187142Y-78115714D01*
X164187142Y-78344285D01*
X164129999Y-78458571D01*
X164072857Y-78515714D01*
X163958571Y-78572857D01*
X163729999Y-78572857D01*
X163615714Y-78515714D01*
X163558571Y-78458571D01*
X163501428Y-78344285D01*
X163501428Y-78115714D01*
X163558571Y-78001428D01*
X163615714Y-77944285D01*
X163729999Y-77887142D01*
X162472857Y-77772857D02*
X162472857Y-78572857D01*
X162758571Y-77315714D02*
X163044285Y-78172857D01*
X162301428Y-78172857D01*
X160930000Y-78572857D02*
X160930000Y-77772857D01*
X160930000Y-77887142D02*
X160872857Y-77830000D01*
X160758571Y-77772857D01*
X160587142Y-77772857D01*
X160472857Y-77830000D01*
X160415714Y-77944285D01*
X160415714Y-78572857D01*
X160415714Y-77944285D02*
X160358571Y-77830000D01*
X160244285Y-77772857D01*
X160072857Y-77772857D01*
X159958571Y-77830000D01*
X159901428Y-77944285D01*
X159901428Y-78572857D01*
X159501428Y-77372857D02*
X159101428Y-78572857D01*
X158701428Y-77372857D01*
X157215714Y-78572857D02*
X157330000Y-78515714D01*
X157387142Y-78458571D01*
X157444285Y-78344285D01*
X157444285Y-78001428D01*
X157387142Y-77887142D01*
X157330000Y-77830000D01*
X157215714Y-77772857D01*
X157044285Y-77772857D01*
X156930000Y-77830000D01*
X156872857Y-77887142D01*
X156815714Y-78001428D01*
X156815714Y-78344285D01*
X156872857Y-78458571D01*
X156930000Y-78515714D01*
X157044285Y-78572857D01*
X157215714Y-78572857D01*
X156301428Y-78572857D02*
X156301428Y-77772857D01*
X156301428Y-78001428D02*
X156244285Y-77887142D01*
X156187142Y-77830000D01*
X156072857Y-77772857D01*
X155958571Y-77772857D01*
X154644285Y-77887142D02*
X153730000Y-77887142D01*
X154187142Y-78344285D02*
X154187142Y-77430000D01*
X153730000Y-78572857D02*
X154644285Y-78572857D01*
X152644285Y-77772857D02*
X152644285Y-78572857D01*
X152930000Y-77315714D02*
X153215714Y-78172857D01*
X152472857Y-78172857D01*
X151787142Y-77372857D02*
X151672857Y-77372857D01*
X151558571Y-77430000D01*
X151501428Y-77487142D01*
X151444285Y-77601428D01*
X151387142Y-77830000D01*
X151387142Y-78115714D01*
X151444285Y-78344285D01*
X151501428Y-78458571D01*
X151558571Y-78515714D01*
X151672857Y-78572857D01*
X151787142Y-78572857D01*
X151901428Y-78515714D01*
X151958571Y-78458571D01*
X152015714Y-78344285D01*
X152072857Y-78115714D01*
X152072857Y-77830000D01*
X152015714Y-77601428D01*
X151958571Y-77487142D01*
X151901428Y-77430000D01*
X151787142Y-77372857D01*
X150872857Y-78458571D02*
X150815714Y-78515714D01*
X150872857Y-78572857D01*
X150930000Y-78515714D01*
X150872857Y-78458571D01*
X150872857Y-78572857D01*
X150244285Y-78572857D02*
X150015714Y-78572857D01*
X149901428Y-78515714D01*
X149844285Y-78458571D01*
X149729999Y-78287142D01*
X149672857Y-78058571D01*
X149672857Y-77601428D01*
X149729999Y-77487142D01*
X149787142Y-77430000D01*
X149901428Y-77372857D01*
X150129999Y-77372857D01*
X150244285Y-77430000D01*
X150301428Y-77487142D01*
X150358571Y-77601428D01*
X150358571Y-77887142D01*
X150301428Y-78001428D01*
X150244285Y-78058571D01*
X150129999Y-78115714D01*
X149901428Y-78115714D01*
X149787142Y-78058571D01*
X149729999Y-78001428D01*
X149672857Y-77887142D01*
X148644285Y-77372857D02*
X148872857Y-77372857D01*
X148987142Y-77430000D01*
X149044285Y-77487142D01*
X149158571Y-77658571D01*
X149215714Y-77887142D01*
X149215714Y-78344285D01*
X149158571Y-78458571D01*
X149101428Y-78515714D01*
X148987142Y-78572857D01*
X148758571Y-78572857D01*
X148644285Y-78515714D01*
X148587142Y-78458571D01*
X148529999Y-78344285D01*
X148529999Y-78058571D01*
X148587142Y-77944285D01*
X148644285Y-77887142D01*
X148758571Y-77830000D01*
X148987142Y-77830000D01*
X149101428Y-77887142D01*
X149158571Y-77944285D01*
X149215714Y-78058571D01*
X147101428Y-78572857D02*
X147101428Y-77772857D01*
X147101428Y-77887142D02*
X147044285Y-77830000D01*
X146929999Y-77772857D01*
X146758571Y-77772857D01*
X146644285Y-77830000D01*
X146587142Y-77944285D01*
X146587142Y-78572857D01*
X146587142Y-77944285D02*
X146530000Y-77830000D01*
X146415714Y-77772857D01*
X146244285Y-77772857D01*
X146130000Y-77830000D01*
X146072857Y-77944285D01*
X146072857Y-78572857D01*
X145672857Y-77372857D02*
X145272857Y-78572857D01*
X144872857Y-77372857D01*
X174187142Y-80572857D02*
X174187142Y-79944285D01*
X174244285Y-79830000D01*
X174358571Y-79772857D01*
X174587142Y-79772857D01*
X174701428Y-79830000D01*
X174187142Y-80515714D02*
X174301428Y-80572857D01*
X174587142Y-80572857D01*
X174701428Y-80515714D01*
X174758571Y-80401428D01*
X174758571Y-80287142D01*
X174701428Y-80172857D01*
X174587142Y-80115714D01*
X174301428Y-80115714D01*
X174187142Y-80058571D01*
X173101428Y-80515714D02*
X173215714Y-80572857D01*
X173444285Y-80572857D01*
X173558571Y-80515714D01*
X173615714Y-80458571D01*
X173672857Y-80344285D01*
X173672857Y-80001428D01*
X173615714Y-79887142D01*
X173558571Y-79830000D01*
X173444285Y-79772857D01*
X173215714Y-79772857D01*
X173101428Y-79830000D01*
X172587142Y-80572857D02*
X172587142Y-79772857D01*
X172587142Y-80001428D02*
X172530000Y-79887142D01*
X172472857Y-79830000D01*
X172358571Y-79772857D01*
X172244285Y-79772857D01*
X171672857Y-80572857D02*
X171787142Y-80515714D01*
X171844285Y-80458571D01*
X171901428Y-80344285D01*
X171901428Y-80001428D01*
X171844285Y-79887142D01*
X171787142Y-79830000D01*
X171672857Y-79772857D01*
X171501428Y-79772857D01*
X171387142Y-79830000D01*
X171330000Y-79887142D01*
X171272857Y-80001428D01*
X171272857Y-80344285D01*
X171330000Y-80458571D01*
X171387142Y-80515714D01*
X171501428Y-80572857D01*
X171672857Y-80572857D01*
X170815714Y-80515714D02*
X170701428Y-80572857D01*
X170472857Y-80572857D01*
X170358571Y-80515714D01*
X170301428Y-80401428D01*
X170301428Y-80344285D01*
X170358571Y-80230000D01*
X170472857Y-80172857D01*
X170644285Y-80172857D01*
X170758571Y-80115714D01*
X170815714Y-80001428D01*
X170815714Y-79944285D01*
X170758571Y-79830000D01*
X170644285Y-79772857D01*
X170472857Y-79772857D01*
X170358571Y-79830000D01*
X169844285Y-80515714D02*
X169730000Y-80572857D01*
X169501428Y-80572857D01*
X169387142Y-80515714D01*
X169330000Y-80401428D01*
X169330000Y-80344285D01*
X169387142Y-80230000D01*
X169501428Y-80172857D01*
X169672857Y-80172857D01*
X169787142Y-80115714D01*
X169844285Y-80001428D01*
X169844285Y-79944285D01*
X169787142Y-79830000D01*
X169672857Y-79772857D01*
X169501428Y-79772857D01*
X169387142Y-79830000D01*
X167387142Y-80572857D02*
X167387142Y-79944285D01*
X167444285Y-79830000D01*
X167558571Y-79772857D01*
X167787142Y-79772857D01*
X167901428Y-79830000D01*
X167387142Y-80515714D02*
X167501428Y-80572857D01*
X167787142Y-80572857D01*
X167901428Y-80515714D01*
X167958571Y-80401428D01*
X167958571Y-80287142D01*
X167901428Y-80172857D01*
X167787142Y-80115714D01*
X167501428Y-80115714D01*
X167387142Y-80058571D01*
X165901428Y-80572857D02*
X165901428Y-79772857D01*
X165901428Y-80001428D02*
X165844285Y-79887142D01*
X165787142Y-79830000D01*
X165672857Y-79772857D01*
X165558571Y-79772857D01*
X164701428Y-80515714D02*
X164815714Y-80572857D01*
X165044285Y-80572857D01*
X165158571Y-80515714D01*
X165215714Y-80401428D01*
X165215714Y-79944285D01*
X165158571Y-79830000D01*
X165044285Y-79772857D01*
X164815714Y-79772857D01*
X164701428Y-79830000D01*
X164644285Y-79944285D01*
X164644285Y-80058571D01*
X165215714Y-80172857D01*
X164187142Y-80515714D02*
X164072857Y-80572857D01*
X163844285Y-80572857D01*
X163730000Y-80515714D01*
X163672857Y-80401428D01*
X163672857Y-80344285D01*
X163730000Y-80230000D01*
X163844285Y-80172857D01*
X164015714Y-80172857D01*
X164130000Y-80115714D01*
X164187142Y-80001428D01*
X164187142Y-79944285D01*
X164130000Y-79830000D01*
X164015714Y-79772857D01*
X163844285Y-79772857D01*
X163730000Y-79830000D01*
X163158571Y-80572857D02*
X163158571Y-79772857D01*
X163158571Y-79372857D02*
X163215714Y-79430000D01*
X163158571Y-79487142D01*
X163101428Y-79430000D01*
X163158571Y-79372857D01*
X163158571Y-79487142D01*
X162644285Y-80515714D02*
X162530000Y-80572857D01*
X162301428Y-80572857D01*
X162187142Y-80515714D01*
X162130000Y-80401428D01*
X162130000Y-80344285D01*
X162187142Y-80230000D01*
X162301428Y-80172857D01*
X162472857Y-80172857D01*
X162587142Y-80115714D01*
X162644285Y-80001428D01*
X162644285Y-79944285D01*
X162587142Y-79830000D01*
X162472857Y-79772857D01*
X162301428Y-79772857D01*
X162187142Y-79830000D01*
X161787142Y-79772857D02*
X161330000Y-79772857D01*
X161615714Y-79372857D02*
X161615714Y-80401428D01*
X161558571Y-80515714D01*
X161444285Y-80572857D01*
X161330000Y-80572857D01*
X160930000Y-80572857D02*
X160930000Y-79772857D01*
X160930000Y-79372857D02*
X160987142Y-79430000D01*
X160930000Y-79487142D01*
X160872857Y-79430000D01*
X160930000Y-79372857D01*
X160930000Y-79487142D01*
X160472857Y-79772857D02*
X160187142Y-80572857D01*
X159901428Y-79772857D01*
X158987142Y-80515714D02*
X159101428Y-80572857D01*
X159330000Y-80572857D01*
X159444285Y-80515714D01*
X159501428Y-80401428D01*
X159501428Y-79944285D01*
X159444285Y-79830000D01*
X159330000Y-79772857D01*
X159101428Y-79772857D01*
X158987142Y-79830000D01*
X158930000Y-79944285D01*
X158930000Y-80058571D01*
X159501428Y-80172857D01*
X157558571Y-80515714D02*
X157444285Y-80572857D01*
X157215714Y-80572857D01*
X157101428Y-80515714D01*
X157044285Y-80401428D01*
X157044285Y-80344285D01*
X157101428Y-80230000D01*
X157215714Y-80172857D01*
X157387142Y-80172857D01*
X157501428Y-80115714D01*
X157558571Y-80001428D01*
X157558571Y-79944285D01*
X157501428Y-79830000D01*
X157387142Y-79772857D01*
X157215714Y-79772857D01*
X157101428Y-79830000D01*
X156530000Y-80572857D02*
X156530000Y-79372857D01*
X156015714Y-80572857D02*
X156015714Y-79944285D01*
X156072857Y-79830000D01*
X156187142Y-79772857D01*
X156358571Y-79772857D01*
X156472857Y-79830000D01*
X156530000Y-79887142D01*
X154930000Y-79772857D02*
X154930000Y-80572857D01*
X155444285Y-79772857D02*
X155444285Y-80401428D01*
X155387142Y-80515714D01*
X155272857Y-80572857D01*
X155101428Y-80572857D01*
X154987142Y-80515714D01*
X154930000Y-80458571D01*
X154358571Y-79772857D02*
X154358571Y-80572857D01*
X154358571Y-79887142D02*
X154301428Y-79830000D01*
X154187142Y-79772857D01*
X154015714Y-79772857D01*
X153901428Y-79830000D01*
X153844285Y-79944285D01*
X153844285Y-80572857D01*
X153444285Y-79772857D02*
X152987142Y-79772857D01*
X153272857Y-79372857D02*
X153272857Y-80401428D01*
X153215714Y-80515714D01*
X153101428Y-80572857D01*
X152987142Y-80572857D01*
X151730000Y-80515714D02*
X151615714Y-80572857D01*
X151387142Y-80572857D01*
X151272857Y-80515714D01*
X151215714Y-80401428D01*
X151215714Y-80344285D01*
X151272857Y-80230000D01*
X151387142Y-80172857D01*
X151558571Y-80172857D01*
X151672857Y-80115714D01*
X151730000Y-80001428D01*
X151730000Y-79944285D01*
X151672857Y-79830000D01*
X151558571Y-79772857D01*
X151387142Y-79772857D01*
X151272857Y-79830000D01*
X150244285Y-80515714D02*
X150358571Y-80572857D01*
X150587142Y-80572857D01*
X150701428Y-80515714D01*
X150758571Y-80401428D01*
X150758571Y-79944285D01*
X150701428Y-79830000D01*
X150587142Y-79772857D01*
X150358571Y-79772857D01*
X150244285Y-79830000D01*
X150187142Y-79944285D01*
X150187142Y-80058571D01*
X150758571Y-80172857D01*
X149672857Y-79772857D02*
X149672857Y-80572857D01*
X149672857Y-79887142D02*
X149615714Y-79830000D01*
X149501428Y-79772857D01*
X149330000Y-79772857D01*
X149215714Y-79830000D01*
X149158571Y-79944285D01*
X149158571Y-80572857D01*
X148644285Y-80515714D02*
X148530000Y-80572857D01*
X148301428Y-80572857D01*
X148187142Y-80515714D01*
X148130000Y-80401428D01*
X148130000Y-80344285D01*
X148187142Y-80230000D01*
X148301428Y-80172857D01*
X148472857Y-80172857D01*
X148587142Y-80115714D01*
X148644285Y-80001428D01*
X148644285Y-79944285D01*
X148587142Y-79830000D01*
X148472857Y-79772857D01*
X148301428Y-79772857D01*
X148187142Y-79830000D01*
X147158571Y-80515714D02*
X147272857Y-80572857D01*
X147501428Y-80572857D01*
X147615714Y-80515714D01*
X147672857Y-80401428D01*
X147672857Y-79944285D01*
X147615714Y-79830000D01*
X147501428Y-79772857D01*
X147272857Y-79772857D01*
X147158571Y-79830000D01*
X147101428Y-79944285D01*
X147101428Y-80058571D01*
X147672857Y-80172857D01*
X173787142Y-82515714D02*
X173901428Y-82572857D01*
X174130000Y-82572857D01*
X174244285Y-82515714D01*
X174301428Y-82401428D01*
X174301428Y-81944285D01*
X174244285Y-81830000D01*
X174130000Y-81772857D01*
X173901428Y-81772857D01*
X173787142Y-81830000D01*
X173730000Y-81944285D01*
X173730000Y-82058571D01*
X174301428Y-82172857D01*
X173044285Y-82572857D02*
X173158571Y-82515714D01*
X173215714Y-82401428D01*
X173215714Y-81372857D01*
X172130000Y-82515714D02*
X172244285Y-82572857D01*
X172472857Y-82572857D01*
X172587142Y-82515714D01*
X172644285Y-82401428D01*
X172644285Y-81944285D01*
X172587142Y-81830000D01*
X172472857Y-81772857D01*
X172244285Y-81772857D01*
X172130000Y-81830000D01*
X172072857Y-81944285D01*
X172072857Y-82058571D01*
X172644285Y-82172857D01*
X171558571Y-82572857D02*
X171558571Y-81772857D01*
X171558571Y-81887142D02*
X171501428Y-81830000D01*
X171387142Y-81772857D01*
X171215714Y-81772857D01*
X171101428Y-81830000D01*
X171044285Y-81944285D01*
X171044285Y-82572857D01*
X171044285Y-81944285D02*
X170987142Y-81830000D01*
X170872857Y-81772857D01*
X170701428Y-81772857D01*
X170587142Y-81830000D01*
X170530000Y-81944285D01*
X170530000Y-82572857D01*
X169501428Y-82515714D02*
X169615714Y-82572857D01*
X169844285Y-82572857D01*
X169958571Y-82515714D01*
X170015714Y-82401428D01*
X170015714Y-81944285D01*
X169958571Y-81830000D01*
X169844285Y-81772857D01*
X169615714Y-81772857D01*
X169501428Y-81830000D01*
X169444285Y-81944285D01*
X169444285Y-82058571D01*
X170015714Y-82172857D01*
X168930000Y-81772857D02*
X168930000Y-82572857D01*
X168930000Y-81887142D02*
X168872857Y-81830000D01*
X168758571Y-81772857D01*
X168587142Y-81772857D01*
X168472857Y-81830000D01*
X168415714Y-81944285D01*
X168415714Y-82572857D01*
X168015714Y-81772857D02*
X167558571Y-81772857D01*
X167844285Y-81372857D02*
X167844285Y-82401428D01*
X167787142Y-82515714D01*
X167672857Y-82572857D01*
X167558571Y-82572857D01*
X166358571Y-81772857D02*
X166130000Y-82572857D01*
X165901428Y-82001428D01*
X165672857Y-82572857D01*
X165444285Y-81772857D01*
X164987142Y-82572857D02*
X164987142Y-81772857D01*
X164987142Y-81372857D02*
X165044285Y-81430000D01*
X164987142Y-81487142D01*
X164930000Y-81430000D01*
X164987142Y-81372857D01*
X164987142Y-81487142D01*
X164587142Y-81772857D02*
X164130000Y-81772857D01*
X164415714Y-81372857D02*
X164415714Y-82401428D01*
X164358571Y-82515714D01*
X164244285Y-82572857D01*
X164130000Y-82572857D01*
X163730000Y-82572857D02*
X163730000Y-81372857D01*
X163215714Y-82572857D02*
X163215714Y-81944285D01*
X163272857Y-81830000D01*
X163387142Y-81772857D01*
X163558571Y-81772857D01*
X163672857Y-81830000D01*
X163730000Y-81887142D01*
X161215714Y-82515714D02*
X161330000Y-82572857D01*
X161558571Y-82572857D01*
X161672857Y-82515714D01*
X161730000Y-82458571D01*
X161787142Y-82344285D01*
X161787142Y-82001428D01*
X161730000Y-81887142D01*
X161672857Y-81830000D01*
X161558571Y-81772857D01*
X161330000Y-81772857D01*
X161215714Y-81830000D01*
X160530000Y-82572857D02*
X160644285Y-82515714D01*
X160701428Y-82458571D01*
X160758571Y-82344285D01*
X160758571Y-82001428D01*
X160701428Y-81887142D01*
X160644285Y-81830000D01*
X160530000Y-81772857D01*
X160358571Y-81772857D01*
X160244285Y-81830000D01*
X160187142Y-81887142D01*
X160130000Y-82001428D01*
X160130000Y-82344285D01*
X160187142Y-82458571D01*
X160244285Y-82515714D01*
X160358571Y-82572857D01*
X160530000Y-82572857D01*
X159615714Y-82572857D02*
X159615714Y-81772857D01*
X159615714Y-81887142D02*
X159558571Y-81830000D01*
X159444285Y-81772857D01*
X159272857Y-81772857D01*
X159158571Y-81830000D01*
X159101428Y-81944285D01*
X159101428Y-82572857D01*
X159101428Y-81944285D02*
X159044285Y-81830000D01*
X158930000Y-81772857D01*
X158758571Y-81772857D01*
X158644285Y-81830000D01*
X158587142Y-81944285D01*
X158587142Y-82572857D01*
X158015714Y-82572857D02*
X158015714Y-81772857D01*
X158015714Y-81887142D02*
X157958571Y-81830000D01*
X157844285Y-81772857D01*
X157672857Y-81772857D01*
X157558571Y-81830000D01*
X157501428Y-81944285D01*
X157501428Y-82572857D01*
X157501428Y-81944285D02*
X157444285Y-81830000D01*
X157330000Y-81772857D01*
X157158571Y-81772857D01*
X157044285Y-81830000D01*
X156987142Y-81944285D01*
X156987142Y-82572857D01*
X156244285Y-82572857D02*
X156358571Y-82515714D01*
X156415714Y-82458571D01*
X156472857Y-82344285D01*
X156472857Y-82001428D01*
X156415714Y-81887142D01*
X156358571Y-81830000D01*
X156244285Y-81772857D01*
X156072857Y-81772857D01*
X155958571Y-81830000D01*
X155901428Y-81887142D01*
X155844285Y-82001428D01*
X155844285Y-82344285D01*
X155901428Y-82458571D01*
X155958571Y-82515714D01*
X156072857Y-82572857D01*
X156244285Y-82572857D01*
X155330000Y-81772857D02*
X155330000Y-82572857D01*
X155330000Y-81887142D02*
X155272857Y-81830000D01*
X155158571Y-81772857D01*
X154987142Y-81772857D01*
X154872857Y-81830000D01*
X154815714Y-81944285D01*
X154815714Y-82572857D01*
X154244285Y-82115714D02*
X153330000Y-82115714D01*
X152758571Y-82572857D02*
X152758571Y-81772857D01*
X152758571Y-81887142D02*
X152701428Y-81830000D01*
X152587142Y-81772857D01*
X152415714Y-81772857D01*
X152301428Y-81830000D01*
X152244285Y-81944285D01*
X152244285Y-82572857D01*
X152244285Y-81944285D02*
X152187142Y-81830000D01*
X152072857Y-81772857D01*
X151901428Y-81772857D01*
X151787142Y-81830000D01*
X151730000Y-81944285D01*
X151730000Y-82572857D01*
X150987142Y-82572857D02*
X151101428Y-82515714D01*
X151158571Y-82458571D01*
X151215714Y-82344285D01*
X151215714Y-82001428D01*
X151158571Y-81887142D01*
X151101428Y-81830000D01*
X150987142Y-81772857D01*
X150815714Y-81772857D01*
X150701428Y-81830000D01*
X150644285Y-81887142D01*
X150587142Y-82001428D01*
X150587142Y-82344285D01*
X150644285Y-82458571D01*
X150701428Y-82515714D01*
X150815714Y-82572857D01*
X150987142Y-82572857D01*
X149558571Y-82572857D02*
X149558571Y-81372857D01*
X149558571Y-82515714D02*
X149672857Y-82572857D01*
X149901428Y-82572857D01*
X150015714Y-82515714D01*
X150072857Y-82458571D01*
X150130000Y-82344285D01*
X150130000Y-82001428D01*
X150072857Y-81887142D01*
X150015714Y-81830000D01*
X149901428Y-81772857D01*
X149672857Y-81772857D01*
X149558571Y-81830000D01*
X148530000Y-82515714D02*
X148644285Y-82572857D01*
X148872857Y-82572857D01*
X148987142Y-82515714D01*
X149044285Y-82401428D01*
X149044285Y-81944285D01*
X148987142Y-81830000D01*
X148872857Y-81772857D01*
X148644285Y-81772857D01*
X148530000Y-81830000D01*
X148472857Y-81944285D01*
X148472857Y-82058571D01*
X149044285Y-82172857D01*
X178501428Y-83772857D02*
X178215714Y-84572857D01*
X177930000Y-83772857D01*
X177301428Y-84572857D02*
X177415714Y-84515714D01*
X177472857Y-84458571D01*
X177530000Y-84344285D01*
X177530000Y-84001428D01*
X177472857Y-83887142D01*
X177415714Y-83830000D01*
X177301428Y-83772857D01*
X177130000Y-83772857D01*
X177015714Y-83830000D01*
X176958571Y-83887142D01*
X176901428Y-84001428D01*
X176901428Y-84344285D01*
X176958571Y-84458571D01*
X177015714Y-84515714D01*
X177130000Y-84572857D01*
X177301428Y-84572857D01*
X176215714Y-84572857D02*
X176330000Y-84515714D01*
X176387142Y-84401428D01*
X176387142Y-83372857D01*
X175930000Y-83772857D02*
X175472857Y-83772857D01*
X175758571Y-83372857D02*
X175758571Y-84401428D01*
X175701428Y-84515714D01*
X175587142Y-84572857D01*
X175472857Y-84572857D01*
X174558571Y-84572857D02*
X174558571Y-83944285D01*
X174615714Y-83830000D01*
X174730000Y-83772857D01*
X174958571Y-83772857D01*
X175072857Y-83830000D01*
X174558571Y-84515714D02*
X174672857Y-84572857D01*
X174958571Y-84572857D01*
X175072857Y-84515714D01*
X175130000Y-84401428D01*
X175130000Y-84287142D01*
X175072857Y-84172857D01*
X174958571Y-84115714D01*
X174672857Y-84115714D01*
X174558571Y-84058571D01*
X173472857Y-83772857D02*
X173472857Y-84744285D01*
X173530000Y-84858571D01*
X173587142Y-84915714D01*
X173701428Y-84972857D01*
X173872857Y-84972857D01*
X173987142Y-84915714D01*
X173472857Y-84515714D02*
X173587142Y-84572857D01*
X173815714Y-84572857D01*
X173930000Y-84515714D01*
X173987142Y-84458571D01*
X174044285Y-84344285D01*
X174044285Y-84001428D01*
X173987142Y-83887142D01*
X173930000Y-83830000D01*
X173815714Y-83772857D01*
X173587142Y-83772857D01*
X173472857Y-83830000D01*
X172444285Y-84515714D02*
X172558571Y-84572857D01*
X172787142Y-84572857D01*
X172901428Y-84515714D01*
X172958571Y-84401428D01*
X172958571Y-83944285D01*
X172901428Y-83830000D01*
X172787142Y-83772857D01*
X172558571Y-83772857D01*
X172444285Y-83830000D01*
X172387142Y-83944285D01*
X172387142Y-84058571D01*
X172958571Y-84172857D01*
X171015714Y-84515714D02*
X170901428Y-84572857D01*
X170672857Y-84572857D01*
X170558571Y-84515714D01*
X170501428Y-84401428D01*
X170501428Y-84344285D01*
X170558571Y-84230000D01*
X170672857Y-84172857D01*
X170844285Y-84172857D01*
X170958571Y-84115714D01*
X171015714Y-84001428D01*
X171015714Y-83944285D01*
X170958571Y-83830000D01*
X170844285Y-83772857D01*
X170672857Y-83772857D01*
X170558571Y-83830000D01*
X169472857Y-83772857D02*
X169472857Y-84572857D01*
X169987142Y-83772857D02*
X169987142Y-84401428D01*
X169930000Y-84515714D01*
X169815714Y-84572857D01*
X169644285Y-84572857D01*
X169530000Y-84515714D01*
X169472857Y-84458571D01*
X168901428Y-83772857D02*
X168901428Y-84972857D01*
X168901428Y-83830000D02*
X168787142Y-83772857D01*
X168558571Y-83772857D01*
X168444285Y-83830000D01*
X168387142Y-83887142D01*
X168330000Y-84001428D01*
X168330000Y-84344285D01*
X168387142Y-84458571D01*
X168444285Y-84515714D01*
X168558571Y-84572857D01*
X168787142Y-84572857D01*
X168901428Y-84515714D01*
X167815714Y-83772857D02*
X167815714Y-84972857D01*
X167815714Y-83830000D02*
X167701428Y-83772857D01*
X167472857Y-83772857D01*
X167358571Y-83830000D01*
X167301428Y-83887142D01*
X167244285Y-84001428D01*
X167244285Y-84344285D01*
X167301428Y-84458571D01*
X167358571Y-84515714D01*
X167472857Y-84572857D01*
X167701428Y-84572857D01*
X167815714Y-84515714D01*
X166558571Y-84572857D02*
X166672857Y-84515714D01*
X166730000Y-84458571D01*
X166787142Y-84344285D01*
X166787142Y-84001428D01*
X166730000Y-83887142D01*
X166672857Y-83830000D01*
X166558571Y-83772857D01*
X166387142Y-83772857D01*
X166272857Y-83830000D01*
X166215714Y-83887142D01*
X166158571Y-84001428D01*
X166158571Y-84344285D01*
X166215714Y-84458571D01*
X166272857Y-84515714D01*
X166387142Y-84572857D01*
X166558571Y-84572857D01*
X165644285Y-84572857D02*
X165644285Y-83772857D01*
X165644285Y-84001428D02*
X165587142Y-83887142D01*
X165530000Y-83830000D01*
X165415714Y-83772857D01*
X165301428Y-83772857D01*
X165072857Y-83772857D02*
X164615714Y-83772857D01*
X164901428Y-83372857D02*
X164901428Y-84401428D01*
X164844285Y-84515714D01*
X164730000Y-84572857D01*
X164615714Y-84572857D01*
X163472857Y-83772857D02*
X163015714Y-83772857D01*
X163301428Y-84572857D02*
X163301428Y-83544285D01*
X163244285Y-83430000D01*
X163130000Y-83372857D01*
X163015714Y-83372857D01*
X162615714Y-84572857D02*
X162615714Y-83772857D01*
X162615714Y-84001428D02*
X162558571Y-83887142D01*
X162501428Y-83830000D01*
X162387142Y-83772857D01*
X162272857Y-83772857D01*
X161701428Y-84572857D02*
X161815714Y-84515714D01*
X161872857Y-84458571D01*
X161930000Y-84344285D01*
X161930000Y-84001428D01*
X161872857Y-83887142D01*
X161815714Y-83830000D01*
X161701428Y-83772857D01*
X161530000Y-83772857D01*
X161415714Y-83830000D01*
X161358571Y-83887142D01*
X161301428Y-84001428D01*
X161301428Y-84344285D01*
X161358571Y-84458571D01*
X161415714Y-84515714D01*
X161530000Y-84572857D01*
X161701428Y-84572857D01*
X160787142Y-84572857D02*
X160787142Y-83772857D01*
X160787142Y-83887142D02*
X160730000Y-83830000D01*
X160615714Y-83772857D01*
X160444285Y-83772857D01*
X160330000Y-83830000D01*
X160272857Y-83944285D01*
X160272857Y-84572857D01*
X160272857Y-83944285D02*
X160215714Y-83830000D01*
X160101428Y-83772857D01*
X159930000Y-83772857D01*
X159815714Y-83830000D01*
X159758571Y-83944285D01*
X159758571Y-84572857D01*
X157987142Y-84172857D02*
X158444285Y-84172857D01*
X157358571Y-83372857D02*
X157244285Y-83372857D01*
X157130000Y-83430000D01*
X157072857Y-83487142D01*
X157015714Y-83601428D01*
X156958571Y-83830000D01*
X156958571Y-84115714D01*
X157015714Y-84344285D01*
X157072857Y-84458571D01*
X157130000Y-84515714D01*
X157244285Y-84572857D01*
X157358571Y-84572857D01*
X157472857Y-84515714D01*
X157530000Y-84458571D01*
X157587142Y-84344285D01*
X157644285Y-84115714D01*
X157644285Y-83830000D01*
X157587142Y-83601428D01*
X157530000Y-83487142D01*
X157472857Y-83430000D01*
X157358571Y-83372857D01*
X156444285Y-84458571D02*
X156387142Y-84515714D01*
X156444285Y-84572857D01*
X156501428Y-84515714D01*
X156444285Y-84458571D01*
X156444285Y-84572857D01*
X155987142Y-83372857D02*
X155244285Y-83372857D01*
X155644285Y-83830000D01*
X155472857Y-83830000D01*
X155358571Y-83887142D01*
X155301428Y-83944285D01*
X155244285Y-84058571D01*
X155244285Y-84344285D01*
X155301428Y-84458571D01*
X155358571Y-84515714D01*
X155472857Y-84572857D01*
X155815714Y-84572857D01*
X155930000Y-84515714D01*
X155987142Y-84458571D01*
X153987142Y-83372857D02*
X153587142Y-84572857D01*
X153187142Y-83372857D01*
X152044285Y-83772857D02*
X151587142Y-83772857D01*
X151872857Y-83372857D02*
X151872857Y-84401428D01*
X151815714Y-84515714D01*
X151701428Y-84572857D01*
X151587142Y-84572857D01*
X151015714Y-84572857D02*
X151130000Y-84515714D01*
X151187142Y-84458571D01*
X151244285Y-84344285D01*
X151244285Y-84001428D01*
X151187142Y-83887142D01*
X151130000Y-83830000D01*
X151015714Y-83772857D01*
X150844285Y-83772857D01*
X150730000Y-83830000D01*
X150672857Y-83887142D01*
X150615714Y-84001428D01*
X150615714Y-84344285D01*
X150672857Y-84458571D01*
X150730000Y-84515714D01*
X150844285Y-84572857D01*
X151015714Y-84572857D01*
X149187142Y-84115714D02*
X148272857Y-84115714D01*
X148730000Y-84572857D02*
X148730000Y-83658571D01*
X147530000Y-83887142D02*
X147644285Y-83830000D01*
X147701428Y-83772857D01*
X147758571Y-83658571D01*
X147758571Y-83601428D01*
X147701428Y-83487142D01*
X147644285Y-83430000D01*
X147530000Y-83372857D01*
X147301428Y-83372857D01*
X147187142Y-83430000D01*
X147130000Y-83487142D01*
X147072857Y-83601428D01*
X147072857Y-83658571D01*
X147130000Y-83772857D01*
X147187142Y-83830000D01*
X147301428Y-83887142D01*
X147530000Y-83887142D01*
X147644285Y-83944285D01*
X147701428Y-84001428D01*
X147758571Y-84115714D01*
X147758571Y-84344285D01*
X147701428Y-84458571D01*
X147644285Y-84515714D01*
X147530000Y-84572857D01*
X147301428Y-84572857D01*
X147187142Y-84515714D01*
X147130000Y-84458571D01*
X147072857Y-84344285D01*
X147072857Y-84115714D01*
X147130000Y-84001428D01*
X147187142Y-83944285D01*
X147301428Y-83887142D01*
X145987142Y-83372857D02*
X146558571Y-83372857D01*
X146615714Y-83944285D01*
X146558571Y-83887142D01*
X146444285Y-83830000D01*
X146158571Y-83830000D01*
X146044285Y-83887142D01*
X145987142Y-83944285D01*
X145930000Y-84058571D01*
X145930000Y-84344285D01*
X145987142Y-84458571D01*
X146044285Y-84515714D01*
X146158571Y-84572857D01*
X146444285Y-84572857D01*
X146558571Y-84515714D01*
X146615714Y-84458571D01*
X144672857Y-83372857D02*
X144272857Y-84572857D01*
X143872857Y-83372857D01*
X143472857Y-84458571D02*
X143415714Y-84515714D01*
X143472857Y-84572857D01*
X143530000Y-84515714D01*
X143472857Y-84458571D01*
X143472857Y-84572857D01*
D10*
X198850476Y-119532380D02*
X198279047Y-119532380D01*
X198564761Y-120532380D02*
X198564761Y-119532380D01*
X197469523Y-120532380D02*
X197945714Y-120532380D01*
X197945714Y-119532380D01*
X197136190Y-120532380D02*
X197136190Y-119532380D01*
X196755238Y-119532380D01*
X196660000Y-119580000D01*
X196612380Y-119627619D01*
X196564761Y-119722857D01*
X196564761Y-119865714D01*
X196612380Y-119960952D01*
X196660000Y-120008571D01*
X196755238Y-120056190D01*
X197136190Y-120056190D01*
X195612380Y-120532380D02*
X196183809Y-120532380D01*
X195898095Y-120532380D02*
X195898095Y-119532380D01*
X195993333Y-119675238D01*
X196088571Y-119770476D01*
X196183809Y-119818095D01*
X195279047Y-119532380D02*
X194612380Y-119532380D01*
X195040952Y-120532380D01*
X194279047Y-119627619D02*
X194231428Y-119580000D01*
X194136190Y-119532380D01*
X193898095Y-119532380D01*
X193802857Y-119580000D01*
X193755238Y-119627619D01*
X193707619Y-119722857D01*
X193707619Y-119818095D01*
X193755238Y-119960952D01*
X194326666Y-120532380D01*
X193707619Y-120532380D01*
X192755238Y-119580000D02*
X192850476Y-119532380D01*
X192993333Y-119532380D01*
X193136190Y-119580000D01*
X193231428Y-119675238D01*
X193279047Y-119770476D01*
X193326666Y-119960952D01*
X193326666Y-120103809D01*
X193279047Y-120294285D01*
X193231428Y-120389523D01*
X193136190Y-120484761D01*
X192993333Y-120532380D01*
X192898095Y-120532380D01*
X192755238Y-120484761D01*
X192707619Y-120437142D01*
X192707619Y-120103809D01*
X192898095Y-120103809D01*
X192279047Y-120532380D02*
X192279047Y-119532380D01*
X191945714Y-120246666D01*
X191612380Y-119532380D01*
X191612380Y-120532380D01*
X191134285Y-125952380D02*
X191705714Y-125952380D01*
X191420000Y-125952380D02*
X191420000Y-124952380D01*
X191515238Y-125095238D01*
X191610476Y-125190476D01*
X191705714Y-125238095D01*
X212245238Y-104982380D02*
X212721428Y-104982380D01*
X212721428Y-103982380D01*
X211911904Y-104982380D02*
X211911904Y-103982380D01*
X211578571Y-104696666D01*
X211245238Y-103982380D01*
X211245238Y-104982380D01*
X210292857Y-103982380D02*
X210769047Y-103982380D01*
X210816666Y-104458571D01*
X210769047Y-104410952D01*
X210673809Y-104363333D01*
X210435714Y-104363333D01*
X210340476Y-104410952D01*
X210292857Y-104458571D01*
X210245238Y-104553809D01*
X210245238Y-104791904D01*
X210292857Y-104887142D01*
X210340476Y-104934761D01*
X210435714Y-104982380D01*
X210673809Y-104982380D01*
X210769047Y-104934761D01*
X210816666Y-104887142D01*
X209626190Y-103982380D02*
X209530952Y-103982380D01*
X209435714Y-104030000D01*
X209388095Y-104077619D01*
X209340476Y-104172857D01*
X209292857Y-104363333D01*
X209292857Y-104601428D01*
X209340476Y-104791904D01*
X209388095Y-104887142D01*
X209435714Y-104934761D01*
X209530952Y-104982380D01*
X209626190Y-104982380D01*
X209721428Y-104934761D01*
X209769047Y-104887142D01*
X209816666Y-104791904D01*
X209864285Y-104601428D01*
X209864285Y-104363333D01*
X209816666Y-104172857D01*
X209769047Y-104077619D01*
X209721428Y-104030000D01*
X209626190Y-103982380D01*
X208673809Y-103982380D02*
X208578571Y-103982380D01*
X208483333Y-104030000D01*
X208435714Y-104077619D01*
X208388095Y-104172857D01*
X208340476Y-104363333D01*
X208340476Y-104601428D01*
X208388095Y-104791904D01*
X208435714Y-104887142D01*
X208483333Y-104934761D01*
X208578571Y-104982380D01*
X208673809Y-104982380D01*
X208769047Y-104934761D01*
X208816666Y-104887142D01*
X208864285Y-104791904D01*
X208911904Y-104601428D01*
X208911904Y-104363333D01*
X208864285Y-104172857D01*
X208816666Y-104077619D01*
X208769047Y-104030000D01*
X208673809Y-103982380D01*
X207864285Y-104982380D02*
X207673809Y-104982380D01*
X207578571Y-104934761D01*
X207530952Y-104887142D01*
X207435714Y-104744285D01*
X207388095Y-104553809D01*
X207388095Y-104172857D01*
X207435714Y-104077619D01*
X207483333Y-104030000D01*
X207578571Y-103982380D01*
X207769047Y-103982380D01*
X207864285Y-104030000D01*
X207911904Y-104077619D01*
X207959523Y-104172857D01*
X207959523Y-104410952D01*
X207911904Y-104506190D01*
X207864285Y-104553809D01*
X207769047Y-104601428D01*
X207578571Y-104601428D01*
X207483333Y-104553809D01*
X207435714Y-104506190D01*
X207388095Y-104410952D01*
X207007142Y-104696666D02*
X206530952Y-104696666D01*
X207102380Y-104982380D02*
X206769047Y-103982380D01*
X206435714Y-104982380D01*
X175780952Y-118666666D02*
X175304761Y-118666666D01*
X175876190Y-118952380D02*
X175542857Y-117952380D01*
X175209523Y-118952380D01*
X175019047Y-117952380D02*
X174447619Y-117952380D01*
X174733333Y-118952380D02*
X174733333Y-117952380D01*
X174257142Y-118285714D02*
X173876190Y-118285714D01*
X174114285Y-117952380D02*
X174114285Y-118809523D01*
X174066666Y-118904761D01*
X173971428Y-118952380D01*
X173876190Y-118952380D01*
X173542857Y-118952380D02*
X173542857Y-118285714D01*
X173542857Y-117952380D02*
X173590476Y-118000000D01*
X173542857Y-118047619D01*
X173495238Y-118000000D01*
X173542857Y-117952380D01*
X173542857Y-118047619D01*
X173066666Y-118285714D02*
X173066666Y-118952380D01*
X173066666Y-118380952D02*
X173019047Y-118333333D01*
X172923809Y-118285714D01*
X172780952Y-118285714D01*
X172685714Y-118333333D01*
X172638095Y-118428571D01*
X172638095Y-118952380D01*
X172257142Y-118285714D02*
X172019047Y-118952380D01*
X171780952Y-118285714D02*
X172019047Y-118952380D01*
X172114285Y-119190476D01*
X172161904Y-119238095D01*
X172257142Y-119285714D01*
X170876190Y-118952380D02*
X171447619Y-118952380D01*
X171161904Y-118952380D02*
X171161904Y-117952380D01*
X171257142Y-118095238D01*
X171352380Y-118190476D01*
X171447619Y-118238095D01*
X170019047Y-117952380D02*
X170209523Y-117952380D01*
X170304761Y-118000000D01*
X170352380Y-118047619D01*
X170447619Y-118190476D01*
X170495238Y-118380952D01*
X170495238Y-118761904D01*
X170447619Y-118857142D01*
X170400000Y-118904761D01*
X170304761Y-118952380D01*
X170114285Y-118952380D01*
X170019047Y-118904761D01*
X169971428Y-118857142D01*
X169923809Y-118761904D01*
X169923809Y-118523809D01*
X169971428Y-118428571D01*
X170019047Y-118380952D01*
X170114285Y-118333333D01*
X170304761Y-118333333D01*
X170400000Y-118380952D01*
X170447619Y-118428571D01*
X170495238Y-118523809D01*
X168971428Y-118952380D02*
X169542857Y-118952380D01*
X169257142Y-118952380D02*
X169257142Y-117952380D01*
X169352380Y-118095238D01*
X169447619Y-118190476D01*
X169542857Y-118238095D01*
X168114285Y-118285714D02*
X168114285Y-118952380D01*
X168352380Y-117904761D02*
X168590476Y-118619047D01*
X167971428Y-118619047D01*
X156190476Y-125916666D02*
X155714285Y-125916666D01*
X156285714Y-126202380D02*
X155952380Y-125202380D01*
X155619047Y-126202380D01*
X155285714Y-126202380D02*
X155285714Y-125202380D01*
X155047619Y-125202380D01*
X154904761Y-125250000D01*
X154809523Y-125345238D01*
X154761904Y-125440476D01*
X154714285Y-125630952D01*
X154714285Y-125773809D01*
X154761904Y-125964285D01*
X154809523Y-126059523D01*
X154904761Y-126154761D01*
X155047619Y-126202380D01*
X155285714Y-126202380D01*
X154285714Y-126202380D02*
X154285714Y-125202380D01*
X153952380Y-125916666D01*
X153619047Y-125202380D01*
X153619047Y-126202380D01*
X153190476Y-125297619D02*
X153142857Y-125250000D01*
X153047619Y-125202380D01*
X152809523Y-125202380D01*
X152714285Y-125250000D01*
X152666666Y-125297619D01*
X152619047Y-125392857D01*
X152619047Y-125488095D01*
X152666666Y-125630952D01*
X153238095Y-126202380D01*
X152619047Y-126202380D01*
X151761904Y-125535714D02*
X151761904Y-126202380D01*
X152000000Y-125154761D02*
X152238095Y-125869047D01*
X151619047Y-125869047D01*
X151095238Y-125630952D02*
X151190476Y-125583333D01*
X151238095Y-125535714D01*
X151285714Y-125440476D01*
X151285714Y-125392857D01*
X151238095Y-125297619D01*
X151190476Y-125250000D01*
X151095238Y-125202380D01*
X150904761Y-125202380D01*
X150809523Y-125250000D01*
X150761904Y-125297619D01*
X150714285Y-125392857D01*
X150714285Y-125440476D01*
X150761904Y-125535714D01*
X150809523Y-125583333D01*
X150904761Y-125630952D01*
X151095238Y-125630952D01*
X151190476Y-125678571D01*
X151238095Y-125726190D01*
X151285714Y-125821428D01*
X151285714Y-126011904D01*
X151238095Y-126107142D01*
X151190476Y-126154761D01*
X151095238Y-126202380D01*
X150904761Y-126202380D01*
X150809523Y-126154761D01*
X150761904Y-126107142D01*
X150714285Y-126011904D01*
X150714285Y-125821428D01*
X150761904Y-125726190D01*
X150809523Y-125678571D01*
X150904761Y-125630952D01*
X150380952Y-125202380D02*
X149761904Y-125202380D01*
X150095238Y-125583333D01*
X149952380Y-125583333D01*
X149857142Y-125630952D01*
X149809523Y-125678571D01*
X149761904Y-125773809D01*
X149761904Y-126011904D01*
X149809523Y-126107142D01*
X149857142Y-126154761D01*
X149952380Y-126202380D01*
X150238095Y-126202380D01*
X150333333Y-126154761D01*
X150380952Y-126107142D01*
X149428571Y-126202380D02*
X148904761Y-125535714D01*
X149428571Y-125535714D02*
X148904761Y-126202380D01*
X147952380Y-126202380D02*
X148285714Y-125726190D01*
X148523809Y-126202380D02*
X148523809Y-125202380D01*
X148142857Y-125202380D01*
X148047619Y-125250000D01*
X148000000Y-125297619D01*
X147952380Y-125392857D01*
X147952380Y-125535714D01*
X148000000Y-125630952D01*
X148047619Y-125678571D01*
X148142857Y-125726190D01*
X148523809Y-125726190D01*
X147619047Y-125202380D02*
X147380952Y-126202380D01*
X147190476Y-125488095D01*
X147000000Y-126202380D01*
X146761904Y-125202380D01*
X185850952Y-104342380D02*
X185850952Y-103342380D01*
X185374761Y-104342380D02*
X185374761Y-103342380D01*
X184803333Y-104342380D01*
X184803333Y-103342380D01*
X184374761Y-104056666D02*
X183898571Y-104056666D01*
X184470000Y-104342380D02*
X184136666Y-103342380D01*
X183803333Y-104342380D01*
X183517619Y-103437619D02*
X183470000Y-103390000D01*
X183374761Y-103342380D01*
X183136666Y-103342380D01*
X183041428Y-103390000D01*
X182993809Y-103437619D01*
X182946190Y-103532857D01*
X182946190Y-103628095D01*
X182993809Y-103770952D01*
X183565238Y-104342380D01*
X182946190Y-104342380D01*
X182565238Y-103437619D02*
X182517619Y-103390000D01*
X182422380Y-103342380D01*
X182184285Y-103342380D01*
X182089047Y-103390000D01*
X182041428Y-103437619D01*
X181993809Y-103532857D01*
X181993809Y-103628095D01*
X182041428Y-103770952D01*
X182612857Y-104342380D01*
X181993809Y-104342380D01*
X181422380Y-103770952D02*
X181517619Y-103723333D01*
X181565238Y-103675714D01*
X181612857Y-103580476D01*
X181612857Y-103532857D01*
X181565238Y-103437619D01*
X181517619Y-103390000D01*
X181422380Y-103342380D01*
X181231904Y-103342380D01*
X181136666Y-103390000D01*
X181089047Y-103437619D01*
X181041428Y-103532857D01*
X181041428Y-103580476D01*
X181089047Y-103675714D01*
X181136666Y-103723333D01*
X181231904Y-103770952D01*
X181422380Y-103770952D01*
X181517619Y-103818571D01*
X181565238Y-103866190D01*
X181612857Y-103961428D01*
X181612857Y-104151904D01*
X181565238Y-104247142D01*
X181517619Y-104294761D01*
X181422380Y-104342380D01*
X181231904Y-104342380D01*
X181136666Y-104294761D01*
X181089047Y-104247142D01*
X181041428Y-104151904D01*
X181041428Y-103961428D01*
X181089047Y-103866190D01*
X181136666Y-103818571D01*
X181231904Y-103770952D01*
X184834285Y-112242380D02*
X185405714Y-112242380D01*
X185120000Y-112242380D02*
X185120000Y-111242380D01*
X185215238Y-111385238D01*
X185310476Y-111480476D01*
X185405714Y-111528095D01*
X206814285Y-109952380D02*
X207385714Y-109952380D01*
X207100000Y-109952380D02*
X207100000Y-108952380D01*
X207195238Y-109095238D01*
X207290476Y-109190476D01*
X207385714Y-109238095D01*
X157014285Y-124012380D02*
X157585714Y-124012380D01*
X157300000Y-124012380D02*
X157300000Y-123012380D01*
X157395238Y-123155238D01*
X157490476Y-123250476D01*
X157585714Y-123298095D01*
X167814285Y-110052380D02*
X168385714Y-110052380D01*
X168100000Y-110052380D02*
X168100000Y-109052380D01*
X168195238Y-109195238D01*
X168290476Y-109290476D01*
X168385714Y-109338095D01*
D12*
X188681252Y-105625000D02*
X188158748Y-105625000D01*
X188681252Y-104155000D02*
X188158748Y-104155000D01*
X163842936Y-117635000D02*
X164297064Y-117635000D01*
X163842936Y-119105000D02*
X164297064Y-119105000D01*
X198940000Y-124780000D02*
X198940000Y-124630000D01*
X194140000Y-124780000D02*
X198940000Y-124780000D01*
X194140000Y-124630000D02*
X194140000Y-124780000D01*
X194140000Y-120780000D02*
X194140000Y-120930000D01*
X198940000Y-120780000D02*
X194140000Y-120780000D01*
X198940000Y-120930000D02*
X198940000Y-120780000D01*
X194140000Y-124630000D02*
X192440000Y-124630000D01*
X209700000Y-108640000D02*
X206775000Y-108640000D01*
X209700000Y-108640000D02*
X211200000Y-108640000D01*
X209700000Y-105420000D02*
X208200000Y-105420000D01*
X209700000Y-105420000D02*
X211200000Y-105420000D01*
X156505000Y-122010000D02*
X156505000Y-123825000D01*
X156760000Y-122010000D02*
X156505000Y-122010000D01*
X156760000Y-118150000D02*
X156760000Y-122010000D01*
X156760000Y-114290000D02*
X156505000Y-114290000D01*
X156760000Y-118150000D02*
X156760000Y-114290000D01*
X146240000Y-122010000D02*
X146495000Y-122010000D01*
X146240000Y-118150000D02*
X146240000Y-122010000D01*
X146240000Y-114290000D02*
X146495000Y-114290000D01*
X146240000Y-118150000D02*
X146240000Y-114290000D01*
X185660000Y-107900000D02*
X185660000Y-110825000D01*
X185660000Y-107900000D02*
X185660000Y-106400000D01*
X182440000Y-107900000D02*
X182440000Y-109400000D01*
X182440000Y-107900000D02*
X182440000Y-106400000D01*
X167565000Y-114050000D02*
X167565000Y-110600000D01*
X167565000Y-114050000D02*
X167565000Y-116000000D01*
X176435000Y-114050000D02*
X176435000Y-112100000D01*
X176435000Y-114050000D02*
X176435000Y-116000000D01*
X164272936Y-108515000D02*
X164727064Y-108515000D01*
X164272936Y-109985000D02*
X164727064Y-109985000D01*
X164272936Y-105265000D02*
X164727064Y-105265000D01*
X164272936Y-106735000D02*
X164727064Y-106735000D01*
X144015000Y-118377064D02*
X144015000Y-117922936D01*
X145485000Y-118377064D02*
X145485000Y-117922936D01*
X160772936Y-108515000D02*
X161227064Y-108515000D01*
X160772936Y-109985000D02*
X161227064Y-109985000D01*
X180322936Y-115985000D02*
X180777064Y-115985000D01*
X180322936Y-117455000D02*
X180777064Y-117455000D01*
X181185000Y-107922936D02*
X181185000Y-108377064D01*
X179715000Y-107922936D02*
X179715000Y-108377064D01*
X179185000Y-107922936D02*
X179185000Y-108377064D01*
X177715000Y-107922936D02*
X177715000Y-108377064D01*
X191725000Y-122202936D02*
X191725000Y-122657064D01*
X190255000Y-122202936D02*
X190255000Y-122657064D01*
X202777064Y-111045000D02*
X202322936Y-111045000D01*
X202777064Y-109575000D02*
X202322936Y-109575000D01*
X202352936Y-107425000D02*
X202807064Y-107425000D01*
X202352936Y-108895000D02*
X202807064Y-108895000D01*
X205242936Y-112445000D02*
X205697064Y-112445000D01*
X205242936Y-113915000D02*
X205697064Y-113915000D01*
X207372936Y-101445000D02*
X207827064Y-101445000D01*
X207372936Y-102915000D02*
X207827064Y-102915000D01*
X215792936Y-103445000D02*
X216247064Y-103445000D01*
X215792936Y-104915000D02*
X216247064Y-104915000D01*
X176277064Y-105585000D02*
X175822936Y-105585000D01*
X176277064Y-104115000D02*
X175822936Y-104115000D01*
X191822936Y-104125000D02*
X192277064Y-104125000D01*
X191822936Y-105595000D02*
X192277064Y-105595000D01*
X210600000Y-117750000D02*
X210600000Y-123150000D01*
X213900000Y-117750000D02*
X213900000Y-123150000D01*
X210600000Y-117750000D02*
X213900000Y-117750000D01*
X157515000Y-114411252D02*
X157515000Y-113888748D01*
X158985000Y-114411252D02*
X158985000Y-113888748D01*
X145485000Y-121888748D02*
X145485000Y-122411252D01*
X144015000Y-121888748D02*
X144015000Y-122411252D01*
X203911252Y-106760000D02*
X202488748Y-106760000D01*
X203911252Y-104040000D02*
X202488748Y-104040000D01*
X208898748Y-112405000D02*
X209421252Y-112405000D01*
X208898748Y-113875000D02*
X209421252Y-113875000D01*
X208898748Y-114535000D02*
X209421252Y-114535000D01*
X208898748Y-116005000D02*
X209421252Y-116005000D01*
X203328748Y-114535000D02*
X203851252Y-114535000D01*
X203328748Y-116005000D02*
X203851252Y-116005000D01*
X215778748Y-107095000D02*
X216301252Y-107095000D01*
X215778748Y-108565000D02*
X216301252Y-108565000D01*
X224838748Y-102595000D02*
X225361252Y-102595000D01*
X224838748Y-104065000D02*
X225361252Y-104065000D01*
X220138748Y-102470000D02*
X221561252Y-102470000D01*
X220138748Y-104290000D02*
X221561252Y-104290000D01*
X163828748Y-113515000D02*
X164351252Y-113515000D01*
X163828748Y-114985000D02*
X164351252Y-114985000D01*
X189138748Y-108815000D02*
X189661252Y-108815000D01*
X189138748Y-110285000D02*
X189661252Y-110285000D01*
X163828748Y-115615000D02*
X164351252Y-115615000D01*
X163828748Y-117085000D02*
X164351252Y-117085000D01*
X189138748Y-111115000D02*
X189661252Y-111115000D01*
X189138748Y-112585000D02*
X189661252Y-112585000D01*
D10*
X189062857Y-103567142D02*
X189110476Y-103614761D01*
X189253333Y-103662380D01*
X189348571Y-103662380D01*
X189491428Y-103614761D01*
X189586666Y-103519523D01*
X189634285Y-103424285D01*
X189681904Y-103233809D01*
X189681904Y-103090952D01*
X189634285Y-102900476D01*
X189586666Y-102805238D01*
X189491428Y-102710000D01*
X189348571Y-102662380D01*
X189253333Y-102662380D01*
X189110476Y-102710000D01*
X189062857Y-102757619D01*
X188110476Y-103662380D02*
X188681904Y-103662380D01*
X188396190Y-103662380D02*
X188396190Y-102662380D01*
X188491428Y-102805238D01*
X188586666Y-102900476D01*
X188681904Y-102948095D01*
X187253333Y-102995714D02*
X187253333Y-103662380D01*
X187491428Y-102614761D02*
X187729523Y-103329047D01*
X187110476Y-103329047D01*
X161612857Y-118832380D02*
X161946190Y-118356190D01*
X162184285Y-118832380D02*
X162184285Y-117832380D01*
X161803333Y-117832380D01*
X161708095Y-117880000D01*
X161660476Y-117927619D01*
X161612857Y-118022857D01*
X161612857Y-118165714D01*
X161660476Y-118260952D01*
X161708095Y-118308571D01*
X161803333Y-118356190D01*
X162184285Y-118356190D01*
X160660476Y-118832380D02*
X161231904Y-118832380D01*
X160946190Y-118832380D02*
X160946190Y-117832380D01*
X161041428Y-117975238D01*
X161136666Y-118070476D01*
X161231904Y-118118095D01*
X159803333Y-117832380D02*
X159993809Y-117832380D01*
X160089047Y-117880000D01*
X160136666Y-117927619D01*
X160231904Y-118070476D01*
X160279523Y-118260952D01*
X160279523Y-118641904D01*
X160231904Y-118737142D01*
X160184285Y-118784761D01*
X160089047Y-118832380D01*
X159898571Y-118832380D01*
X159803333Y-118784761D01*
X159755714Y-118737142D01*
X159708095Y-118641904D01*
X159708095Y-118403809D01*
X159755714Y-118308571D01*
X159803333Y-118260952D01*
X159898571Y-118213333D01*
X160089047Y-118213333D01*
X160184285Y-118260952D01*
X160231904Y-118308571D01*
X160279523Y-118403809D01*
X197171904Y-125122380D02*
X197171904Y-125931904D01*
X197124285Y-126027142D01*
X197076666Y-126074761D01*
X196981428Y-126122380D01*
X196790952Y-126122380D01*
X196695714Y-126074761D01*
X196648095Y-126027142D01*
X196600476Y-125931904D01*
X196600476Y-125122380D01*
X195600476Y-126122380D02*
X196171904Y-126122380D01*
X195886190Y-126122380D02*
X195886190Y-125122380D01*
X195981428Y-125265238D01*
X196076666Y-125360476D01*
X196171904Y-125408095D01*
X212831904Y-108982380D02*
X212831904Y-109791904D01*
X212784285Y-109887142D01*
X212736666Y-109934761D01*
X212641428Y-109982380D01*
X212450952Y-109982380D01*
X212355714Y-109934761D01*
X212308095Y-109887142D01*
X212260476Y-109791904D01*
X212260476Y-108982380D01*
X211308095Y-108982380D02*
X211784285Y-108982380D01*
X211831904Y-109458571D01*
X211784285Y-109410952D01*
X211689047Y-109363333D01*
X211450952Y-109363333D01*
X211355714Y-109410952D01*
X211308095Y-109458571D01*
X211260476Y-109553809D01*
X211260476Y-109791904D01*
X211308095Y-109887142D01*
X211355714Y-109934761D01*
X211450952Y-109982380D01*
X211689047Y-109982380D01*
X211784285Y-109934761D01*
X211831904Y-109887142D01*
X157052380Y-117388095D02*
X157861904Y-117388095D01*
X157957142Y-117435714D01*
X158004761Y-117483333D01*
X158052380Y-117578571D01*
X158052380Y-117769047D01*
X158004761Y-117864285D01*
X157957142Y-117911904D01*
X157861904Y-117959523D01*
X157052380Y-117959523D01*
X157385714Y-118864285D02*
X158052380Y-118864285D01*
X157004761Y-118626190D02*
X157719047Y-118388095D01*
X157719047Y-119007142D01*
X185952380Y-107138095D02*
X186761904Y-107138095D01*
X186857142Y-107185714D01*
X186904761Y-107233333D01*
X186952380Y-107328571D01*
X186952380Y-107519047D01*
X186904761Y-107614285D01*
X186857142Y-107661904D01*
X186761904Y-107709523D01*
X185952380Y-107709523D01*
X185952380Y-108090476D02*
X185952380Y-108709523D01*
X186333333Y-108376190D01*
X186333333Y-108519047D01*
X186380952Y-108614285D01*
X186428571Y-108661904D01*
X186523809Y-108709523D01*
X186761904Y-108709523D01*
X186857142Y-108661904D01*
X186904761Y-108614285D01*
X186952380Y-108519047D01*
X186952380Y-108233333D01*
X186904761Y-108138095D01*
X186857142Y-108090476D01*
X176852380Y-113588095D02*
X177661904Y-113588095D01*
X177757142Y-113635714D01*
X177804761Y-113683333D01*
X177852380Y-113778571D01*
X177852380Y-113969047D01*
X177804761Y-114064285D01*
X177757142Y-114111904D01*
X177661904Y-114159523D01*
X176852380Y-114159523D01*
X176947619Y-114588095D02*
X176900000Y-114635714D01*
X176852380Y-114730952D01*
X176852380Y-114969047D01*
X176900000Y-115064285D01*
X176947619Y-115111904D01*
X177042857Y-115159523D01*
X177138095Y-115159523D01*
X177280952Y-115111904D01*
X177852380Y-114540476D01*
X177852380Y-115159523D01*
X165142857Y-111352380D02*
X165476190Y-110876190D01*
X165714285Y-111352380D02*
X165714285Y-110352380D01*
X165333333Y-110352380D01*
X165238095Y-110400000D01*
X165190476Y-110447619D01*
X165142857Y-110542857D01*
X165142857Y-110685714D01*
X165190476Y-110780952D01*
X165238095Y-110828571D01*
X165333333Y-110876190D01*
X165714285Y-110876190D01*
X164190476Y-111352380D02*
X164761904Y-111352380D01*
X164476190Y-111352380D02*
X164476190Y-110352380D01*
X164571428Y-110495238D01*
X164666666Y-110590476D01*
X164761904Y-110638095D01*
X163285714Y-110352380D02*
X163761904Y-110352380D01*
X163809523Y-110828571D01*
X163761904Y-110780952D01*
X163666666Y-110733333D01*
X163428571Y-110733333D01*
X163333333Y-110780952D01*
X163285714Y-110828571D01*
X163238095Y-110923809D01*
X163238095Y-111161904D01*
X163285714Y-111257142D01*
X163333333Y-111304761D01*
X163428571Y-111352380D01*
X163666666Y-111352380D01*
X163761904Y-111304761D01*
X163809523Y-111257142D01*
X165142857Y-108102380D02*
X165476190Y-107626190D01*
X165714285Y-108102380D02*
X165714285Y-107102380D01*
X165333333Y-107102380D01*
X165238095Y-107150000D01*
X165190476Y-107197619D01*
X165142857Y-107292857D01*
X165142857Y-107435714D01*
X165190476Y-107530952D01*
X165238095Y-107578571D01*
X165333333Y-107626190D01*
X165714285Y-107626190D01*
X164190476Y-108102380D02*
X164761904Y-108102380D01*
X164476190Y-108102380D02*
X164476190Y-107102380D01*
X164571428Y-107245238D01*
X164666666Y-107340476D01*
X164761904Y-107388095D01*
X163333333Y-107435714D02*
X163333333Y-108102380D01*
X163571428Y-107054761D02*
X163809523Y-107769047D01*
X163190476Y-107769047D01*
X143482380Y-117437142D02*
X143006190Y-117103809D01*
X143482380Y-116865714D02*
X142482380Y-116865714D01*
X142482380Y-117246666D01*
X142530000Y-117341904D01*
X142577619Y-117389523D01*
X142672857Y-117437142D01*
X142815714Y-117437142D01*
X142910952Y-117389523D01*
X142958571Y-117341904D01*
X143006190Y-117246666D01*
X143006190Y-116865714D01*
X143482380Y-118389523D02*
X143482380Y-117818095D01*
X143482380Y-118103809D02*
X142482380Y-118103809D01*
X142625238Y-118008571D01*
X142720476Y-117913333D01*
X142768095Y-117818095D01*
X142482380Y-118722857D02*
X142482380Y-119341904D01*
X142863333Y-119008571D01*
X142863333Y-119151428D01*
X142910952Y-119246666D01*
X142958571Y-119294285D01*
X143053809Y-119341904D01*
X143291904Y-119341904D01*
X143387142Y-119294285D01*
X143434761Y-119246666D01*
X143482380Y-119151428D01*
X143482380Y-118865714D01*
X143434761Y-118770476D01*
X143387142Y-118722857D01*
X161642857Y-111352380D02*
X161976190Y-110876190D01*
X162214285Y-111352380D02*
X162214285Y-110352380D01*
X161833333Y-110352380D01*
X161738095Y-110400000D01*
X161690476Y-110447619D01*
X161642857Y-110542857D01*
X161642857Y-110685714D01*
X161690476Y-110780952D01*
X161738095Y-110828571D01*
X161833333Y-110876190D01*
X162214285Y-110876190D01*
X160690476Y-111352380D02*
X161261904Y-111352380D01*
X160976190Y-111352380D02*
X160976190Y-110352380D01*
X161071428Y-110495238D01*
X161166666Y-110590476D01*
X161261904Y-110638095D01*
X160309523Y-110447619D02*
X160261904Y-110400000D01*
X160166666Y-110352380D01*
X159928571Y-110352380D01*
X159833333Y-110400000D01*
X159785714Y-110447619D01*
X159738095Y-110542857D01*
X159738095Y-110638095D01*
X159785714Y-110780952D01*
X160357142Y-111352380D01*
X159738095Y-111352380D01*
X181192857Y-118822380D02*
X181526190Y-118346190D01*
X181764285Y-118822380D02*
X181764285Y-117822380D01*
X181383333Y-117822380D01*
X181288095Y-117870000D01*
X181240476Y-117917619D01*
X181192857Y-118012857D01*
X181192857Y-118155714D01*
X181240476Y-118250952D01*
X181288095Y-118298571D01*
X181383333Y-118346190D01*
X181764285Y-118346190D01*
X180240476Y-118822380D02*
X180811904Y-118822380D01*
X180526190Y-118822380D02*
X180526190Y-117822380D01*
X180621428Y-117965238D01*
X180716666Y-118060476D01*
X180811904Y-118108095D01*
X179288095Y-118822380D02*
X179859523Y-118822380D01*
X179573809Y-118822380D02*
X179573809Y-117822380D01*
X179669047Y-117965238D01*
X179764285Y-118060476D01*
X179859523Y-118108095D01*
X180922380Y-110623332D02*
X180446190Y-110289999D01*
X180922380Y-110051904D02*
X179922380Y-110051904D01*
X179922380Y-110432856D01*
X179970000Y-110528094D01*
X180017619Y-110575713D01*
X180112857Y-110623332D01*
X180255714Y-110623332D01*
X180350952Y-110575713D01*
X180398571Y-110528094D01*
X180446190Y-110432856D01*
X180446190Y-110051904D01*
X180922380Y-111575713D02*
X180922380Y-111004285D01*
X180922380Y-111289999D02*
X179922380Y-111289999D01*
X180065238Y-111194761D01*
X180160476Y-111099523D01*
X180208095Y-111004285D01*
X179922380Y-112194761D02*
X179922380Y-112289999D01*
X179970000Y-112385237D01*
X180017619Y-112432856D01*
X180112857Y-112480475D01*
X180303333Y-112528094D01*
X180541428Y-112528094D01*
X180731904Y-112480475D01*
X180827142Y-112432856D01*
X180874761Y-112385237D01*
X180922380Y-112289999D01*
X180922380Y-112194761D01*
X180874761Y-112099523D01*
X180827142Y-112051904D01*
X180731904Y-112004285D01*
X180541428Y-111956666D01*
X180303333Y-111956666D01*
X180112857Y-112004285D01*
X180017619Y-112051904D01*
X179970000Y-112099523D01*
X179922380Y-112194761D01*
X179022380Y-110623333D02*
X178546190Y-110290000D01*
X179022380Y-110051904D02*
X178022380Y-110051904D01*
X178022380Y-110432857D01*
X178070000Y-110528095D01*
X178117619Y-110575714D01*
X178212857Y-110623333D01*
X178355714Y-110623333D01*
X178450952Y-110575714D01*
X178498571Y-110528095D01*
X178546190Y-110432857D01*
X178546190Y-110051904D01*
X179022380Y-111099523D02*
X179022380Y-111290000D01*
X178974761Y-111385238D01*
X178927142Y-111432857D01*
X178784285Y-111528095D01*
X178593809Y-111575714D01*
X178212857Y-111575714D01*
X178117619Y-111528095D01*
X178070000Y-111480476D01*
X178022380Y-111385238D01*
X178022380Y-111194761D01*
X178070000Y-111099523D01*
X178117619Y-111051904D01*
X178212857Y-111004285D01*
X178450952Y-111004285D01*
X178546190Y-111051904D01*
X178593809Y-111099523D01*
X178641428Y-111194761D01*
X178641428Y-111385238D01*
X178593809Y-111480476D01*
X178546190Y-111528095D01*
X178450952Y-111575714D01*
X189792380Y-122263333D02*
X189316190Y-121930000D01*
X189792380Y-121691904D02*
X188792380Y-121691904D01*
X188792380Y-122072857D01*
X188840000Y-122168095D01*
X188887619Y-122215714D01*
X188982857Y-122263333D01*
X189125714Y-122263333D01*
X189220952Y-122215714D01*
X189268571Y-122168095D01*
X189316190Y-122072857D01*
X189316190Y-121691904D01*
X189220952Y-122834761D02*
X189173333Y-122739523D01*
X189125714Y-122691904D01*
X189030476Y-122644285D01*
X188982857Y-122644285D01*
X188887619Y-122691904D01*
X188840000Y-122739523D01*
X188792380Y-122834761D01*
X188792380Y-123025238D01*
X188840000Y-123120476D01*
X188887619Y-123168095D01*
X188982857Y-123215714D01*
X189030476Y-123215714D01*
X189125714Y-123168095D01*
X189173333Y-123120476D01*
X189220952Y-123025238D01*
X189220952Y-122834761D01*
X189268571Y-122739523D01*
X189316190Y-122691904D01*
X189411428Y-122644285D01*
X189601904Y-122644285D01*
X189697142Y-122691904D01*
X189744761Y-122739523D01*
X189792380Y-122834761D01*
X189792380Y-123025238D01*
X189744761Y-123120476D01*
X189697142Y-123168095D01*
X189601904Y-123215714D01*
X189411428Y-123215714D01*
X189316190Y-123168095D01*
X189268571Y-123120476D01*
X189220952Y-123025238D01*
X200102856Y-110862380D02*
X200436190Y-110386190D01*
X200674285Y-110862380D02*
X200674285Y-109862380D01*
X200293332Y-109862380D01*
X200198094Y-109910000D01*
X200150475Y-109957619D01*
X200102856Y-110052857D01*
X200102856Y-110195714D01*
X200150475Y-110290952D01*
X200198094Y-110338571D01*
X200293332Y-110386190D01*
X200674285Y-110386190D01*
X199769523Y-109862380D02*
X199102856Y-109862380D01*
X199531428Y-110862380D01*
X200102856Y-108712380D02*
X200436190Y-108236190D01*
X200674285Y-108712380D02*
X200674285Y-107712380D01*
X200293332Y-107712380D01*
X200198094Y-107760000D01*
X200150475Y-107807619D01*
X200102856Y-107902857D01*
X200102856Y-108045714D01*
X200150475Y-108140952D01*
X200198094Y-108188571D01*
X200293332Y-108236190D01*
X200674285Y-108236190D01*
X199245713Y-107712380D02*
X199436190Y-107712380D01*
X199531428Y-107760000D01*
X199579047Y-107807619D01*
X199674285Y-107950476D01*
X199721904Y-108140952D01*
X199721904Y-108521904D01*
X199674285Y-108617142D01*
X199626666Y-108664761D01*
X199531428Y-108712380D01*
X199340951Y-108712380D01*
X199245713Y-108664761D01*
X199198094Y-108617142D01*
X199150475Y-108521904D01*
X199150475Y-108283809D01*
X199198094Y-108188571D01*
X199245713Y-108140952D01*
X199340951Y-108093333D01*
X199531428Y-108093333D01*
X199626666Y-108140952D01*
X199674285Y-108188571D01*
X199721904Y-108283809D01*
X202856666Y-113652380D02*
X203190000Y-113176190D01*
X203428095Y-113652380D02*
X203428095Y-112652380D01*
X203047142Y-112652380D01*
X202951904Y-112700000D01*
X202904285Y-112747619D01*
X202856666Y-112842857D01*
X202856666Y-112985714D01*
X202904285Y-113080952D01*
X202951904Y-113128571D01*
X203047142Y-113176190D01*
X203428095Y-113176190D01*
X201951904Y-112652380D02*
X202428095Y-112652380D01*
X202475714Y-113128571D01*
X202428095Y-113080952D01*
X202332857Y-113033333D01*
X202094761Y-113033333D01*
X201999523Y-113080952D01*
X201951904Y-113128571D01*
X201904285Y-113223809D01*
X201904285Y-113461904D01*
X201951904Y-113557142D01*
X201999523Y-113604761D01*
X202094761Y-113652380D01*
X202332857Y-113652380D01*
X202428095Y-113604761D01*
X202475714Y-113557142D01*
X210466666Y-102832380D02*
X210800000Y-102356190D01*
X211038095Y-102832380D02*
X211038095Y-101832380D01*
X210657142Y-101832380D01*
X210561904Y-101880000D01*
X210514285Y-101927619D01*
X210466666Y-102022857D01*
X210466666Y-102165714D01*
X210514285Y-102260952D01*
X210561904Y-102308571D01*
X210657142Y-102356190D01*
X211038095Y-102356190D01*
X209609523Y-102165714D02*
X209609523Y-102832380D01*
X209847619Y-101784761D02*
X210085714Y-102499047D01*
X209466666Y-102499047D01*
X216186666Y-106282380D02*
X216520000Y-105806190D01*
X216758095Y-106282380D02*
X216758095Y-105282380D01*
X216377142Y-105282380D01*
X216281904Y-105330000D01*
X216234285Y-105377619D01*
X216186666Y-105472857D01*
X216186666Y-105615714D01*
X216234285Y-105710952D01*
X216281904Y-105758571D01*
X216377142Y-105806190D01*
X216758095Y-105806190D01*
X215853333Y-105282380D02*
X215234285Y-105282380D01*
X215567619Y-105663333D01*
X215424761Y-105663333D01*
X215329523Y-105710952D01*
X215281904Y-105758571D01*
X215234285Y-105853809D01*
X215234285Y-106091904D01*
X215281904Y-106187142D01*
X215329523Y-106234761D01*
X215424761Y-106282380D01*
X215710476Y-106282380D01*
X215805714Y-106234761D01*
X215853333Y-106187142D01*
X176066666Y-107052380D02*
X176400000Y-106576190D01*
X176638095Y-107052380D02*
X176638095Y-106052380D01*
X176257142Y-106052380D01*
X176161904Y-106100000D01*
X176114285Y-106147619D01*
X176066666Y-106242857D01*
X176066666Y-106385714D01*
X176114285Y-106480952D01*
X176161904Y-106528571D01*
X176257142Y-106576190D01*
X176638095Y-106576190D01*
X175685714Y-106147619D02*
X175638095Y-106100000D01*
X175542857Y-106052380D01*
X175304761Y-106052380D01*
X175209523Y-106100000D01*
X175161904Y-106147619D01*
X175114285Y-106242857D01*
X175114285Y-106338095D01*
X175161904Y-106480952D01*
X175733333Y-107052380D01*
X175114285Y-107052380D01*
X192076666Y-103662380D02*
X192410000Y-103186190D01*
X192648095Y-103662380D02*
X192648095Y-102662380D01*
X192267142Y-102662380D01*
X192171904Y-102710000D01*
X192124285Y-102757619D01*
X192076666Y-102852857D01*
X192076666Y-102995714D01*
X192124285Y-103090952D01*
X192171904Y-103138571D01*
X192267142Y-103186190D01*
X192648095Y-103186190D01*
X191124285Y-103662380D02*
X191695714Y-103662380D01*
X191410000Y-103662380D02*
X191410000Y-102662380D01*
X191505238Y-102805238D01*
X191600476Y-102900476D01*
X191695714Y-102948095D01*
X210268095Y-124522380D02*
X210268095Y-123522380D01*
X210030000Y-123522380D01*
X209887142Y-123570000D01*
X209791904Y-123665238D01*
X209744285Y-123760476D01*
X209696666Y-123950952D01*
X209696666Y-124093809D01*
X209744285Y-124284285D01*
X209791904Y-124379523D01*
X209887142Y-124474761D01*
X210030000Y-124522380D01*
X210268095Y-124522380D01*
X208744285Y-124522380D02*
X209315714Y-124522380D01*
X209030000Y-124522380D02*
X209030000Y-123522380D01*
X209125238Y-123665238D01*
X209220476Y-123760476D01*
X209315714Y-123808095D01*
X160287142Y-113507142D02*
X160334761Y-113459523D01*
X160382380Y-113316666D01*
X160382380Y-113221428D01*
X160334761Y-113078571D01*
X160239523Y-112983333D01*
X160144285Y-112935714D01*
X159953809Y-112888095D01*
X159810952Y-112888095D01*
X159620476Y-112935714D01*
X159525238Y-112983333D01*
X159430000Y-113078571D01*
X159382380Y-113221428D01*
X159382380Y-113316666D01*
X159430000Y-113459523D01*
X159477619Y-113507142D01*
X160382380Y-114459523D02*
X160382380Y-113888095D01*
X160382380Y-114173809D02*
X159382380Y-114173809D01*
X159525238Y-114078571D01*
X159620476Y-113983333D01*
X159668095Y-113888095D01*
X159382380Y-114792857D02*
X159382380Y-115411904D01*
X159763333Y-115078571D01*
X159763333Y-115221428D01*
X159810952Y-115316666D01*
X159858571Y-115364285D01*
X159953809Y-115411904D01*
X160191904Y-115411904D01*
X160287142Y-115364285D01*
X160334761Y-115316666D01*
X160382380Y-115221428D01*
X160382380Y-114935714D01*
X160334761Y-114840476D01*
X160287142Y-114792857D01*
X143427142Y-121507142D02*
X143474761Y-121459523D01*
X143522380Y-121316666D01*
X143522380Y-121221428D01*
X143474761Y-121078571D01*
X143379523Y-120983333D01*
X143284285Y-120935714D01*
X143093809Y-120888095D01*
X142950952Y-120888095D01*
X142760476Y-120935714D01*
X142665238Y-120983333D01*
X142570000Y-121078571D01*
X142522380Y-121221428D01*
X142522380Y-121316666D01*
X142570000Y-121459523D01*
X142617619Y-121507142D01*
X143522380Y-122459523D02*
X143522380Y-121888095D01*
X143522380Y-122173809D02*
X142522380Y-122173809D01*
X142665238Y-122078571D01*
X142760476Y-121983333D01*
X142808095Y-121888095D01*
X142617619Y-122840476D02*
X142570000Y-122888095D01*
X142522380Y-122983333D01*
X142522380Y-123221428D01*
X142570000Y-123316666D01*
X142617619Y-123364285D01*
X142712857Y-123411904D01*
X142808095Y-123411904D01*
X142950952Y-123364285D01*
X143522380Y-122792857D01*
X143522380Y-123411904D01*
X200102857Y-104217142D02*
X200150476Y-104264761D01*
X200293333Y-104312380D01*
X200388571Y-104312380D01*
X200531428Y-104264761D01*
X200626666Y-104169523D01*
X200674285Y-104074285D01*
X200721904Y-103883809D01*
X200721904Y-103740952D01*
X200674285Y-103550476D01*
X200626666Y-103455238D01*
X200531428Y-103360000D01*
X200388571Y-103312380D01*
X200293333Y-103312380D01*
X200150476Y-103360000D01*
X200102857Y-103407619D01*
X199150476Y-104312380D02*
X199721904Y-104312380D01*
X199436190Y-104312380D02*
X199436190Y-103312380D01*
X199531428Y-103455238D01*
X199626666Y-103550476D01*
X199721904Y-103598095D01*
X198198095Y-104312380D02*
X198769523Y-104312380D01*
X198483809Y-104312380D02*
X198483809Y-103312380D01*
X198579047Y-103455238D01*
X198674285Y-103550476D01*
X198769523Y-103598095D01*
X210842857Y-111657142D02*
X210890476Y-111704761D01*
X211033333Y-111752380D01*
X211128571Y-111752380D01*
X211271428Y-111704761D01*
X211366666Y-111609523D01*
X211414285Y-111514285D01*
X211461904Y-111323809D01*
X211461904Y-111180952D01*
X211414285Y-110990476D01*
X211366666Y-110895238D01*
X211271428Y-110800000D01*
X211128571Y-110752380D01*
X211033333Y-110752380D01*
X210890476Y-110800000D01*
X210842857Y-110847619D01*
X209890476Y-111752380D02*
X210461904Y-111752380D01*
X210176190Y-111752380D02*
X210176190Y-110752380D01*
X210271428Y-110895238D01*
X210366666Y-110990476D01*
X210461904Y-111038095D01*
X209271428Y-110752380D02*
X209176190Y-110752380D01*
X209080952Y-110800000D01*
X209033333Y-110847619D01*
X208985714Y-110942857D01*
X208938095Y-111133333D01*
X208938095Y-111371428D01*
X208985714Y-111561904D01*
X209033333Y-111657142D01*
X209080952Y-111704761D01*
X209176190Y-111752380D01*
X209271428Y-111752380D01*
X209366666Y-111704761D01*
X209414285Y-111657142D01*
X209461904Y-111561904D01*
X209509523Y-111371428D01*
X209509523Y-111133333D01*
X209461904Y-110942857D01*
X209414285Y-110847619D01*
X209366666Y-110800000D01*
X209271428Y-110752380D01*
X209026666Y-117307142D02*
X209074285Y-117354761D01*
X209217142Y-117402380D01*
X209312380Y-117402380D01*
X209455238Y-117354761D01*
X209550476Y-117259523D01*
X209598095Y-117164285D01*
X209645714Y-116973809D01*
X209645714Y-116830952D01*
X209598095Y-116640476D01*
X209550476Y-116545238D01*
X209455238Y-116450000D01*
X209312380Y-116402380D01*
X209217142Y-116402380D01*
X209074285Y-116450000D01*
X209026666Y-116497619D01*
X208550476Y-117402380D02*
X208360000Y-117402380D01*
X208264761Y-117354761D01*
X208217142Y-117307142D01*
X208121904Y-117164285D01*
X208074285Y-116973809D01*
X208074285Y-116592857D01*
X208121904Y-116497619D01*
X208169523Y-116450000D01*
X208264761Y-116402380D01*
X208455238Y-116402380D01*
X208550476Y-116450000D01*
X208598095Y-116497619D01*
X208645714Y-116592857D01*
X208645714Y-116830952D01*
X208598095Y-116926190D01*
X208550476Y-116973809D01*
X208455238Y-117021428D01*
X208264761Y-117021428D01*
X208169523Y-116973809D01*
X208121904Y-116926190D01*
X208074285Y-116830952D01*
X203756666Y-117307142D02*
X203804285Y-117354761D01*
X203947142Y-117402380D01*
X204042380Y-117402380D01*
X204185238Y-117354761D01*
X204280476Y-117259523D01*
X204328095Y-117164285D01*
X204375714Y-116973809D01*
X204375714Y-116830952D01*
X204328095Y-116640476D01*
X204280476Y-116545238D01*
X204185238Y-116450000D01*
X204042380Y-116402380D01*
X203947142Y-116402380D01*
X203804285Y-116450000D01*
X203756666Y-116497619D01*
X203185238Y-116830952D02*
X203280476Y-116783333D01*
X203328095Y-116735714D01*
X203375714Y-116640476D01*
X203375714Y-116592857D01*
X203328095Y-116497619D01*
X203280476Y-116450000D01*
X203185238Y-116402380D01*
X202994761Y-116402380D01*
X202899523Y-116450000D01*
X202851904Y-116497619D01*
X202804285Y-116592857D01*
X202804285Y-116640476D01*
X202851904Y-116735714D01*
X202899523Y-116783333D01*
X202994761Y-116830952D01*
X203185238Y-116830952D01*
X203280476Y-116878571D01*
X203328095Y-116926190D01*
X203375714Y-117021428D01*
X203375714Y-117211904D01*
X203328095Y-117307142D01*
X203280476Y-117354761D01*
X203185238Y-117402380D01*
X202994761Y-117402380D01*
X202899523Y-117354761D01*
X202851904Y-117307142D01*
X202804285Y-117211904D01*
X202804285Y-117021428D01*
X202851904Y-116926190D01*
X202899523Y-116878571D01*
X202994761Y-116830952D01*
X216186666Y-109867142D02*
X216234285Y-109914761D01*
X216377142Y-109962380D01*
X216472380Y-109962380D01*
X216615238Y-109914761D01*
X216710476Y-109819523D01*
X216758095Y-109724285D01*
X216805714Y-109533809D01*
X216805714Y-109390952D01*
X216758095Y-109200476D01*
X216710476Y-109105238D01*
X216615238Y-109010000D01*
X216472380Y-108962380D01*
X216377142Y-108962380D01*
X216234285Y-109010000D01*
X216186666Y-109057619D01*
X215853333Y-108962380D02*
X215186666Y-108962380D01*
X215615238Y-109962380D01*
X225266666Y-105717142D02*
X225314285Y-105764761D01*
X225457142Y-105812380D01*
X225552380Y-105812380D01*
X225695238Y-105764761D01*
X225790476Y-105669523D01*
X225838095Y-105574285D01*
X225885714Y-105383809D01*
X225885714Y-105240952D01*
X225838095Y-105050476D01*
X225790476Y-104955238D01*
X225695238Y-104860000D01*
X225552380Y-104812380D01*
X225457142Y-104812380D01*
X225314285Y-104860000D01*
X225266666Y-104907619D01*
X224409523Y-104812380D02*
X224600000Y-104812380D01*
X224695238Y-104860000D01*
X224742857Y-104907619D01*
X224838095Y-105050476D01*
X224885714Y-105240952D01*
X224885714Y-105621904D01*
X224838095Y-105717142D01*
X224790476Y-105764761D01*
X224695238Y-105812380D01*
X224504761Y-105812380D01*
X224409523Y-105764761D01*
X224361904Y-105717142D01*
X224314285Y-105621904D01*
X224314285Y-105383809D01*
X224361904Y-105288571D01*
X224409523Y-105240952D01*
X224504761Y-105193333D01*
X224695238Y-105193333D01*
X224790476Y-105240952D01*
X224838095Y-105288571D01*
X224885714Y-105383809D01*
X222296666Y-105717142D02*
X222344285Y-105764761D01*
X222487142Y-105812380D01*
X222582380Y-105812380D01*
X222725238Y-105764761D01*
X222820476Y-105669523D01*
X222868095Y-105574285D01*
X222915714Y-105383809D01*
X222915714Y-105240952D01*
X222868095Y-105050476D01*
X222820476Y-104955238D01*
X222725238Y-104860000D01*
X222582380Y-104812380D01*
X222487142Y-104812380D01*
X222344285Y-104860000D01*
X222296666Y-104907619D01*
X221391904Y-104812380D02*
X221868095Y-104812380D01*
X221915714Y-105288571D01*
X221868095Y-105240952D01*
X221772857Y-105193333D01*
X221534761Y-105193333D01*
X221439523Y-105240952D01*
X221391904Y-105288571D01*
X221344285Y-105383809D01*
X221344285Y-105621904D01*
X221391904Y-105717142D01*
X221439523Y-105764761D01*
X221534761Y-105812380D01*
X221772857Y-105812380D01*
X221868095Y-105764761D01*
X221915714Y-105717142D01*
X161612856Y-114647142D02*
X161660475Y-114694761D01*
X161803332Y-114742380D01*
X161898570Y-114742380D01*
X162041428Y-114694761D01*
X162136666Y-114599523D01*
X162184285Y-114504285D01*
X162231904Y-114313809D01*
X162231904Y-114170952D01*
X162184285Y-113980476D01*
X162136666Y-113885238D01*
X162041428Y-113790000D01*
X161898570Y-113742380D01*
X161803332Y-113742380D01*
X161660475Y-113790000D01*
X161612856Y-113837619D01*
X160755713Y-114075714D02*
X160755713Y-114742380D01*
X160993809Y-113694761D02*
X161231904Y-114409047D01*
X160612856Y-114409047D01*
X189566666Y-108217142D02*
X189614285Y-108264761D01*
X189757142Y-108312380D01*
X189852380Y-108312380D01*
X189995238Y-108264761D01*
X190090476Y-108169523D01*
X190138095Y-108074285D01*
X190185714Y-107883809D01*
X190185714Y-107740952D01*
X190138095Y-107550476D01*
X190090476Y-107455238D01*
X189995238Y-107360000D01*
X189852380Y-107312380D01*
X189757142Y-107312380D01*
X189614285Y-107360000D01*
X189566666Y-107407619D01*
X189233333Y-107312380D02*
X188614285Y-107312380D01*
X188947619Y-107693333D01*
X188804761Y-107693333D01*
X188709523Y-107740952D01*
X188661904Y-107788571D01*
X188614285Y-107883809D01*
X188614285Y-108121904D01*
X188661904Y-108217142D01*
X188709523Y-108264761D01*
X188804761Y-108312380D01*
X189090476Y-108312380D01*
X189185714Y-108264761D01*
X189233333Y-108217142D01*
X161612856Y-116697142D02*
X161660475Y-116744761D01*
X161803332Y-116792380D01*
X161898570Y-116792380D01*
X162041428Y-116744761D01*
X162136666Y-116649523D01*
X162184285Y-116554285D01*
X162231904Y-116363809D01*
X162231904Y-116220952D01*
X162184285Y-116030476D01*
X162136666Y-115935238D01*
X162041428Y-115840000D01*
X161898570Y-115792380D01*
X161803332Y-115792380D01*
X161660475Y-115840000D01*
X161612856Y-115887619D01*
X161231904Y-115887619D02*
X161184285Y-115840000D01*
X161089047Y-115792380D01*
X160850951Y-115792380D01*
X160755713Y-115840000D01*
X160708094Y-115887619D01*
X160660475Y-115982857D01*
X160660475Y-116078095D01*
X160708094Y-116220952D01*
X161279523Y-116792380D01*
X160660475Y-116792380D01*
X189566666Y-113887142D02*
X189614285Y-113934761D01*
X189757142Y-113982380D01*
X189852380Y-113982380D01*
X189995238Y-113934761D01*
X190090476Y-113839523D01*
X190138095Y-113744285D01*
X190185714Y-113553809D01*
X190185714Y-113410952D01*
X190138095Y-113220476D01*
X190090476Y-113125238D01*
X189995238Y-113030000D01*
X189852380Y-112982380D01*
X189757142Y-112982380D01*
X189614285Y-113030000D01*
X189566666Y-113077619D01*
X188614285Y-113982380D02*
X189185714Y-113982380D01*
X188900000Y-113982380D02*
X188900000Y-112982380D01*
X188995238Y-113125238D01*
X189090476Y-113220476D01*
X189185714Y-113268095D01*
M02*
