G04 #@! TF.GenerationSoftware,KiCad,Pcbnew,5.1.9+dfsg1-1~bpo10+1*
G04 #@! TF.CreationDate,2021-07-06T10:32:39+00:00*
G04 #@! TF.ProjectId,CurrentShuntCircuit,43757272-656e-4745-9368-756e74436972,1*
G04 #@! TF.SameCoordinates,Original*
G04 #@! TF.FileFunction,Legend,Top*
G04 #@! TF.FilePolarity,Positive*
%FSLAX46Y46*%
G04 Gerber Fmt 4.6, Leading zero omitted, Abs format (unit mm)*
G04 Created by KiCad (PCBNEW 5.1.9+dfsg1-1~bpo10+1) date 2021-07-06 10:32:39*
%MOMM*%
%LPD*%
G01*
G04 APERTURE LIST*
%ADD10C,0.150000*%
%ADD11C,0.120000*%
%ADD12C,0.200000*%
%ADD13C,0.100000*%
G04 APERTURE END LIST*
D10*
X151716761Y-89973666D02*
X152192952Y-89973666D01*
X151621523Y-90259380D02*
X151954857Y-89259380D01*
X152288190Y-90259380D01*
X152764380Y-90259380D02*
X152669142Y-90211761D01*
X152621523Y-90116523D01*
X152621523Y-89259380D01*
X153288190Y-90259380D02*
X153192952Y-90211761D01*
X153145333Y-90116523D01*
X153145333Y-89259380D01*
X154383428Y-90211761D02*
X154478666Y-90259380D01*
X154669142Y-90259380D01*
X154764380Y-90211761D01*
X154812000Y-90116523D01*
X154812000Y-90068904D01*
X154764380Y-89973666D01*
X154669142Y-89926047D01*
X154526285Y-89926047D01*
X154431047Y-89878428D01*
X154383428Y-89783190D01*
X154383428Y-89735571D01*
X154431047Y-89640333D01*
X154526285Y-89592714D01*
X154669142Y-89592714D01*
X154764380Y-89640333D01*
X155240571Y-90259380D02*
X155240571Y-89259380D01*
X155669142Y-90259380D02*
X155669142Y-89735571D01*
X155621523Y-89640333D01*
X155526285Y-89592714D01*
X155383428Y-89592714D01*
X155288190Y-89640333D01*
X155240571Y-89687952D01*
X156573904Y-89592714D02*
X156573904Y-90259380D01*
X156145333Y-89592714D02*
X156145333Y-90116523D01*
X156192952Y-90211761D01*
X156288190Y-90259380D01*
X156431047Y-90259380D01*
X156526285Y-90211761D01*
X156573904Y-90164142D01*
X157050095Y-89592714D02*
X157050095Y-90259380D01*
X157050095Y-89687952D02*
X157097714Y-89640333D01*
X157192952Y-89592714D01*
X157335809Y-89592714D01*
X157431047Y-89640333D01*
X157478666Y-89735571D01*
X157478666Y-90259380D01*
X157812000Y-89592714D02*
X158192952Y-89592714D01*
X157954857Y-89259380D02*
X157954857Y-90116523D01*
X158002476Y-90211761D01*
X158097714Y-90259380D01*
X158192952Y-90259380D01*
X158478666Y-90211761D02*
X158573904Y-90259380D01*
X158764380Y-90259380D01*
X158859619Y-90211761D01*
X158907238Y-90116523D01*
X158907238Y-90068904D01*
X158859619Y-89973666D01*
X158764380Y-89926047D01*
X158621523Y-89926047D01*
X158526285Y-89878428D01*
X158478666Y-89783190D01*
X158478666Y-89735571D01*
X158526285Y-89640333D01*
X158621523Y-89592714D01*
X158764380Y-89592714D01*
X158859619Y-89640333D01*
X160050095Y-90211761D02*
X160145333Y-90259380D01*
X160335809Y-90259380D01*
X160431047Y-90211761D01*
X160478666Y-90116523D01*
X160478666Y-90068904D01*
X160431047Y-89973666D01*
X160335809Y-89926047D01*
X160192952Y-89926047D01*
X160097714Y-89878428D01*
X160050095Y-89783190D01*
X160050095Y-89735571D01*
X160097714Y-89640333D01*
X160192952Y-89592714D01*
X160335809Y-89592714D01*
X160431047Y-89640333D01*
X160907238Y-90259380D02*
X160907238Y-89259380D01*
X161335809Y-90259380D02*
X161335809Y-89735571D01*
X161288190Y-89640333D01*
X161192952Y-89592714D01*
X161050095Y-89592714D01*
X160954857Y-89640333D01*
X160907238Y-89687952D01*
X161954857Y-90259380D02*
X161859619Y-90211761D01*
X161812000Y-90164142D01*
X161764380Y-90068904D01*
X161764380Y-89783190D01*
X161812000Y-89687952D01*
X161859619Y-89640333D01*
X161954857Y-89592714D01*
X162097714Y-89592714D01*
X162192952Y-89640333D01*
X162240571Y-89687952D01*
X162288190Y-89783190D01*
X162288190Y-90068904D01*
X162240571Y-90164142D01*
X162192952Y-90211761D01*
X162097714Y-90259380D01*
X161954857Y-90259380D01*
X163145333Y-89592714D02*
X163145333Y-90259380D01*
X162716761Y-89592714D02*
X162716761Y-90116523D01*
X162764380Y-90211761D01*
X162859619Y-90259380D01*
X163002476Y-90259380D01*
X163097714Y-90211761D01*
X163145333Y-90164142D01*
X163764380Y-90259380D02*
X163669142Y-90211761D01*
X163621523Y-90116523D01*
X163621523Y-89259380D01*
X164573904Y-90259380D02*
X164573904Y-89259380D01*
X164573904Y-90211761D02*
X164478666Y-90259380D01*
X164288190Y-90259380D01*
X164192952Y-90211761D01*
X164145333Y-90164142D01*
X164097714Y-90068904D01*
X164097714Y-89783190D01*
X164145333Y-89687952D01*
X164192952Y-89640333D01*
X164288190Y-89592714D01*
X164478666Y-89592714D01*
X164573904Y-89640333D01*
X165812000Y-90259380D02*
X165812000Y-89259380D01*
X165812000Y-89640333D02*
X165907238Y-89592714D01*
X166097714Y-89592714D01*
X166192952Y-89640333D01*
X166240571Y-89687952D01*
X166288190Y-89783190D01*
X166288190Y-90068904D01*
X166240571Y-90164142D01*
X166192952Y-90211761D01*
X166097714Y-90259380D01*
X165907238Y-90259380D01*
X165812000Y-90211761D01*
X167097714Y-90211761D02*
X167002476Y-90259380D01*
X166812000Y-90259380D01*
X166716761Y-90211761D01*
X166669142Y-90116523D01*
X166669142Y-89735571D01*
X166716761Y-89640333D01*
X166812000Y-89592714D01*
X167002476Y-89592714D01*
X167097714Y-89640333D01*
X167145333Y-89735571D01*
X167145333Y-89830809D01*
X166669142Y-89926047D01*
X152502476Y-91909380D02*
X152502476Y-91242714D01*
X152502476Y-91337952D02*
X152550095Y-91290333D01*
X152645333Y-91242714D01*
X152788190Y-91242714D01*
X152883428Y-91290333D01*
X152931047Y-91385571D01*
X152931047Y-91909380D01*
X152931047Y-91385571D02*
X152978666Y-91290333D01*
X153073904Y-91242714D01*
X153216761Y-91242714D01*
X153312000Y-91290333D01*
X153359619Y-91385571D01*
X153359619Y-91909380D01*
X153978666Y-91909380D02*
X153883428Y-91861761D01*
X153835809Y-91814142D01*
X153788190Y-91718904D01*
X153788190Y-91433190D01*
X153835809Y-91337952D01*
X153883428Y-91290333D01*
X153978666Y-91242714D01*
X154121523Y-91242714D01*
X154216761Y-91290333D01*
X154264380Y-91337952D01*
X154312000Y-91433190D01*
X154312000Y-91718904D01*
X154264380Y-91814142D01*
X154216761Y-91861761D01*
X154121523Y-91909380D01*
X153978666Y-91909380D01*
X155169142Y-91242714D02*
X155169142Y-91909380D01*
X154740571Y-91242714D02*
X154740571Y-91766523D01*
X154788190Y-91861761D01*
X154883428Y-91909380D01*
X155026285Y-91909380D01*
X155121523Y-91861761D01*
X155169142Y-91814142D01*
X155645333Y-91242714D02*
X155645333Y-91909380D01*
X155645333Y-91337952D02*
X155692952Y-91290333D01*
X155788190Y-91242714D01*
X155931047Y-91242714D01*
X156026285Y-91290333D01*
X156073904Y-91385571D01*
X156073904Y-91909380D01*
X156407238Y-91242714D02*
X156788190Y-91242714D01*
X156550095Y-90909380D02*
X156550095Y-91766523D01*
X156597714Y-91861761D01*
X156692952Y-91909380D01*
X156788190Y-91909380D01*
X157502476Y-91861761D02*
X157407238Y-91909380D01*
X157216761Y-91909380D01*
X157121523Y-91861761D01*
X157073904Y-91766523D01*
X157073904Y-91385571D01*
X157121523Y-91290333D01*
X157216761Y-91242714D01*
X157407238Y-91242714D01*
X157502476Y-91290333D01*
X157550095Y-91385571D01*
X157550095Y-91480809D01*
X157073904Y-91576047D01*
X158407238Y-91909380D02*
X158407238Y-90909380D01*
X158407238Y-91861761D02*
X158312000Y-91909380D01*
X158121523Y-91909380D01*
X158026285Y-91861761D01*
X157978666Y-91814142D01*
X157931047Y-91718904D01*
X157931047Y-91433190D01*
X157978666Y-91337952D01*
X158026285Y-91290333D01*
X158121523Y-91242714D01*
X158312000Y-91242714D01*
X158407238Y-91290333D01*
X159550095Y-91242714D02*
X159740571Y-91909380D01*
X159931047Y-91433190D01*
X160121523Y-91909380D01*
X160312000Y-91242714D01*
X160692952Y-91909380D02*
X160692952Y-91242714D01*
X160692952Y-90909380D02*
X160645333Y-90957000D01*
X160692952Y-91004619D01*
X160740571Y-90957000D01*
X160692952Y-90909380D01*
X160692952Y-91004619D01*
X161026285Y-91242714D02*
X161407238Y-91242714D01*
X161169142Y-90909380D02*
X161169142Y-91766523D01*
X161216761Y-91861761D01*
X161312000Y-91909380D01*
X161407238Y-91909380D01*
X161740571Y-91909380D02*
X161740571Y-90909380D01*
X162169142Y-91909380D02*
X162169142Y-91385571D01*
X162121523Y-91290333D01*
X162026285Y-91242714D01*
X161883428Y-91242714D01*
X161788190Y-91290333D01*
X161740571Y-91337952D01*
X163264380Y-91242714D02*
X163645333Y-91242714D01*
X163407238Y-90909380D02*
X163407238Y-91766523D01*
X163454857Y-91861761D01*
X163550095Y-91909380D01*
X163645333Y-91909380D01*
X163978666Y-91909380D02*
X163978666Y-90909380D01*
X164407238Y-91909380D02*
X164407238Y-91385571D01*
X164359619Y-91290333D01*
X164264380Y-91242714D01*
X164121523Y-91242714D01*
X164026285Y-91290333D01*
X163978666Y-91337952D01*
X165264380Y-91861761D02*
X165169142Y-91909380D01*
X164978666Y-91909380D01*
X164883428Y-91861761D01*
X164835809Y-91766523D01*
X164835809Y-91385571D01*
X164883428Y-91290333D01*
X164978666Y-91242714D01*
X165169142Y-91242714D01*
X165264380Y-91290333D01*
X165312000Y-91385571D01*
X165312000Y-91480809D01*
X164835809Y-91576047D01*
X165740571Y-91909380D02*
X165740571Y-91242714D01*
X165740571Y-90909380D02*
X165692952Y-90957000D01*
X165740571Y-91004619D01*
X165788190Y-90957000D01*
X165740571Y-90909380D01*
X165740571Y-91004619D01*
X166216761Y-91909380D02*
X166216761Y-91242714D01*
X166216761Y-91433190D02*
X166264380Y-91337952D01*
X166312000Y-91290333D01*
X166407238Y-91242714D01*
X166502476Y-91242714D01*
X151097714Y-93559380D02*
X151097714Y-92892714D01*
X151097714Y-93083190D02*
X151145333Y-92987952D01*
X151192952Y-92940333D01*
X151288190Y-92892714D01*
X151383428Y-92892714D01*
X152097714Y-93511761D02*
X152002476Y-93559380D01*
X151812000Y-93559380D01*
X151716761Y-93511761D01*
X151669142Y-93416523D01*
X151669142Y-93035571D01*
X151716761Y-92940333D01*
X151812000Y-92892714D01*
X152002476Y-92892714D01*
X152097714Y-92940333D01*
X152145333Y-93035571D01*
X152145333Y-93130809D01*
X151669142Y-93226047D01*
X152526285Y-93511761D02*
X152621523Y-93559380D01*
X152812000Y-93559380D01*
X152907238Y-93511761D01*
X152954857Y-93416523D01*
X152954857Y-93368904D01*
X152907238Y-93273666D01*
X152812000Y-93226047D01*
X152669142Y-93226047D01*
X152573904Y-93178428D01*
X152526285Y-93083190D01*
X152526285Y-93035571D01*
X152573904Y-92940333D01*
X152669142Y-92892714D01*
X152812000Y-92892714D01*
X152907238Y-92940333D01*
X153383428Y-93559380D02*
X153383428Y-92892714D01*
X153383428Y-92559380D02*
X153335809Y-92607000D01*
X153383428Y-92654619D01*
X153431047Y-92607000D01*
X153383428Y-92559380D01*
X153383428Y-92654619D01*
X153812000Y-93511761D02*
X153907238Y-93559380D01*
X154097714Y-93559380D01*
X154192952Y-93511761D01*
X154240571Y-93416523D01*
X154240571Y-93368904D01*
X154192952Y-93273666D01*
X154097714Y-93226047D01*
X153954857Y-93226047D01*
X153859619Y-93178428D01*
X153812000Y-93083190D01*
X153812000Y-93035571D01*
X153859619Y-92940333D01*
X153954857Y-92892714D01*
X154097714Y-92892714D01*
X154192952Y-92940333D01*
X154526285Y-92892714D02*
X154907238Y-92892714D01*
X154669142Y-92559380D02*
X154669142Y-93416523D01*
X154716761Y-93511761D01*
X154812000Y-93559380D01*
X154907238Y-93559380D01*
X155669142Y-93559380D02*
X155669142Y-93035571D01*
X155621523Y-92940333D01*
X155526285Y-92892714D01*
X155335809Y-92892714D01*
X155240571Y-92940333D01*
X155669142Y-93511761D02*
X155573904Y-93559380D01*
X155335809Y-93559380D01*
X155240571Y-93511761D01*
X155192952Y-93416523D01*
X155192952Y-93321285D01*
X155240571Y-93226047D01*
X155335809Y-93178428D01*
X155573904Y-93178428D01*
X155669142Y-93130809D01*
X156145333Y-92892714D02*
X156145333Y-93559380D01*
X156145333Y-92987952D02*
X156192952Y-92940333D01*
X156288190Y-92892714D01*
X156431047Y-92892714D01*
X156526285Y-92940333D01*
X156573904Y-93035571D01*
X156573904Y-93559380D01*
X157478666Y-93511761D02*
X157383428Y-93559380D01*
X157192952Y-93559380D01*
X157097714Y-93511761D01*
X157050095Y-93464142D01*
X157002476Y-93368904D01*
X157002476Y-93083190D01*
X157050095Y-92987952D01*
X157097714Y-92940333D01*
X157192952Y-92892714D01*
X157383428Y-92892714D01*
X157478666Y-92940333D01*
X158288190Y-93511761D02*
X158192952Y-93559380D01*
X158002476Y-93559380D01*
X157907238Y-93511761D01*
X157859619Y-93416523D01*
X157859619Y-93035571D01*
X157907238Y-92940333D01*
X158002476Y-92892714D01*
X158192952Y-92892714D01*
X158288190Y-92940333D01*
X158335809Y-93035571D01*
X158335809Y-93130809D01*
X157859619Y-93226047D01*
X159526285Y-93559380D02*
X159526285Y-92559380D01*
X159526285Y-92940333D02*
X159621523Y-92892714D01*
X159812000Y-92892714D01*
X159907238Y-92940333D01*
X159954857Y-92987952D01*
X160002476Y-93083190D01*
X160002476Y-93368904D01*
X159954857Y-93464142D01*
X159907238Y-93511761D01*
X159812000Y-93559380D01*
X159621523Y-93559380D01*
X159526285Y-93511761D01*
X160573904Y-93559380D02*
X160478666Y-93511761D01*
X160431047Y-93416523D01*
X160431047Y-92559380D01*
X161383428Y-93559380D02*
X161383428Y-93035571D01*
X161335809Y-92940333D01*
X161240571Y-92892714D01*
X161050095Y-92892714D01*
X160954857Y-92940333D01*
X161383428Y-93511761D02*
X161288190Y-93559380D01*
X161050095Y-93559380D01*
X160954857Y-93511761D01*
X160907238Y-93416523D01*
X160907238Y-93321285D01*
X160954857Y-93226047D01*
X161050095Y-93178428D01*
X161288190Y-93178428D01*
X161383428Y-93130809D01*
X162288190Y-93559380D02*
X162288190Y-92559380D01*
X162288190Y-93511761D02*
X162192952Y-93559380D01*
X162002476Y-93559380D01*
X161907238Y-93511761D01*
X161859619Y-93464142D01*
X161812000Y-93368904D01*
X161812000Y-93083190D01*
X161859619Y-92987952D01*
X161907238Y-92940333D01*
X162002476Y-92892714D01*
X162192952Y-92892714D01*
X162288190Y-92940333D01*
X163145333Y-93511761D02*
X163050095Y-93559380D01*
X162859619Y-93559380D01*
X162764380Y-93511761D01*
X162716761Y-93416523D01*
X162716761Y-93035571D01*
X162764380Y-92940333D01*
X162859619Y-92892714D01*
X163050095Y-92892714D01*
X163145333Y-92940333D01*
X163192952Y-93035571D01*
X163192952Y-93130809D01*
X162716761Y-93226047D01*
X163573904Y-93511761D02*
X163669142Y-93559380D01*
X163859619Y-93559380D01*
X163954857Y-93511761D01*
X164002476Y-93416523D01*
X164002476Y-93368904D01*
X163954857Y-93273666D01*
X163859619Y-93226047D01*
X163716761Y-93226047D01*
X163621523Y-93178428D01*
X163573904Y-93083190D01*
X163573904Y-93035571D01*
X163621523Y-92940333D01*
X163716761Y-92892714D01*
X163859619Y-92892714D01*
X163954857Y-92940333D01*
X165192952Y-93559380D02*
X165192952Y-92892714D01*
X165192952Y-92559380D02*
X165145333Y-92607000D01*
X165192952Y-92654619D01*
X165240571Y-92607000D01*
X165192952Y-92559380D01*
X165192952Y-92654619D01*
X165669142Y-92892714D02*
X165669142Y-93559380D01*
X165669142Y-92987952D02*
X165716761Y-92940333D01*
X165812000Y-92892714D01*
X165954857Y-92892714D01*
X166050095Y-92940333D01*
X166097714Y-93035571D01*
X166097714Y-93559380D01*
X167764380Y-93559380D02*
X167764380Y-93035571D01*
X167716761Y-92940333D01*
X167621523Y-92892714D01*
X167431047Y-92892714D01*
X167335809Y-92940333D01*
X167764380Y-93511761D02*
X167669142Y-93559380D01*
X167431047Y-93559380D01*
X167335809Y-93511761D01*
X167288190Y-93416523D01*
X167288190Y-93321285D01*
X167335809Y-93226047D01*
X167431047Y-93178428D01*
X167669142Y-93178428D01*
X167764380Y-93130809D01*
X153431047Y-94542714D02*
X153669142Y-95209380D01*
X153907238Y-94542714D01*
X154669142Y-95161761D02*
X154573904Y-95209380D01*
X154383428Y-95209380D01*
X154288190Y-95161761D01*
X154240571Y-95066523D01*
X154240571Y-94685571D01*
X154288190Y-94590333D01*
X154383428Y-94542714D01*
X154573904Y-94542714D01*
X154669142Y-94590333D01*
X154716761Y-94685571D01*
X154716761Y-94780809D01*
X154240571Y-94876047D01*
X155145333Y-95209380D02*
X155145333Y-94542714D01*
X155145333Y-94733190D02*
X155192952Y-94637952D01*
X155240571Y-94590333D01*
X155335809Y-94542714D01*
X155431047Y-94542714D01*
X155621523Y-94542714D02*
X156002476Y-94542714D01*
X155764380Y-94209380D02*
X155764380Y-95066523D01*
X155812000Y-95161761D01*
X155907238Y-95209380D01*
X156002476Y-95209380D01*
X156335809Y-95209380D02*
X156335809Y-94542714D01*
X156335809Y-94209380D02*
X156288190Y-94257000D01*
X156335809Y-94304619D01*
X156383428Y-94257000D01*
X156335809Y-94209380D01*
X156335809Y-94304619D01*
X157240571Y-95161761D02*
X157145333Y-95209380D01*
X156954857Y-95209380D01*
X156859619Y-95161761D01*
X156812000Y-95114142D01*
X156764380Y-95018904D01*
X156764380Y-94733190D01*
X156812000Y-94637952D01*
X156859619Y-94590333D01*
X156954857Y-94542714D01*
X157145333Y-94542714D01*
X157240571Y-94590333D01*
X158097714Y-95209380D02*
X158097714Y-94685571D01*
X158050095Y-94590333D01*
X157954857Y-94542714D01*
X157764380Y-94542714D01*
X157669142Y-94590333D01*
X158097714Y-95161761D02*
X158002476Y-95209380D01*
X157764380Y-95209380D01*
X157669142Y-95161761D01*
X157621523Y-95066523D01*
X157621523Y-94971285D01*
X157669142Y-94876047D01*
X157764380Y-94828428D01*
X158002476Y-94828428D01*
X158097714Y-94780809D01*
X158716761Y-95209380D02*
X158621523Y-95161761D01*
X158573904Y-95066523D01*
X158573904Y-94209380D01*
X159859619Y-94542714D02*
X159859619Y-95542714D01*
X159859619Y-94590333D02*
X159954857Y-94542714D01*
X160145333Y-94542714D01*
X160240571Y-94590333D01*
X160288190Y-94637952D01*
X160335809Y-94733190D01*
X160335809Y-95018904D01*
X160288190Y-95114142D01*
X160240571Y-95161761D01*
X160145333Y-95209380D01*
X159954857Y-95209380D01*
X159859619Y-95161761D01*
X160907238Y-95209380D02*
X160812000Y-95161761D01*
X160764380Y-95114142D01*
X160716761Y-95018904D01*
X160716761Y-94733190D01*
X160764380Y-94637952D01*
X160812000Y-94590333D01*
X160907238Y-94542714D01*
X161050095Y-94542714D01*
X161145333Y-94590333D01*
X161192952Y-94637952D01*
X161240571Y-94733190D01*
X161240571Y-95018904D01*
X161192952Y-95114142D01*
X161145333Y-95161761D01*
X161050095Y-95209380D01*
X160907238Y-95209380D01*
X161621523Y-95161761D02*
X161716761Y-95209380D01*
X161907238Y-95209380D01*
X162002476Y-95161761D01*
X162050095Y-95066523D01*
X162050095Y-95018904D01*
X162002476Y-94923666D01*
X161907238Y-94876047D01*
X161764380Y-94876047D01*
X161669142Y-94828428D01*
X161621523Y-94733190D01*
X161621523Y-94685571D01*
X161669142Y-94590333D01*
X161764380Y-94542714D01*
X161907238Y-94542714D01*
X162002476Y-94590333D01*
X162478666Y-95209380D02*
X162478666Y-94542714D01*
X162478666Y-94209380D02*
X162431047Y-94257000D01*
X162478666Y-94304619D01*
X162526285Y-94257000D01*
X162478666Y-94209380D01*
X162478666Y-94304619D01*
X162812000Y-94542714D02*
X163192952Y-94542714D01*
X162954857Y-94209380D02*
X162954857Y-95066523D01*
X163002476Y-95161761D01*
X163097714Y-95209380D01*
X163192952Y-95209380D01*
X163526285Y-95209380D02*
X163526285Y-94542714D01*
X163526285Y-94209380D02*
X163478666Y-94257000D01*
X163526285Y-94304619D01*
X163573904Y-94257000D01*
X163526285Y-94209380D01*
X163526285Y-94304619D01*
X164145333Y-95209380D02*
X164050095Y-95161761D01*
X164002476Y-95114142D01*
X163954857Y-95018904D01*
X163954857Y-94733190D01*
X164002476Y-94637952D01*
X164050095Y-94590333D01*
X164145333Y-94542714D01*
X164288190Y-94542714D01*
X164383428Y-94590333D01*
X164431047Y-94637952D01*
X164478666Y-94733190D01*
X164478666Y-95018904D01*
X164431047Y-95114142D01*
X164383428Y-95161761D01*
X164288190Y-95209380D01*
X164145333Y-95209380D01*
X164907238Y-94542714D02*
X164907238Y-95209380D01*
X164907238Y-94637952D02*
X164954857Y-94590333D01*
X165050095Y-94542714D01*
X165192952Y-94542714D01*
X165288190Y-94590333D01*
X165335809Y-94685571D01*
X165335809Y-95209380D01*
X151978666Y-96192714D02*
X152359619Y-96192714D01*
X152121523Y-95859380D02*
X152121523Y-96716523D01*
X152169142Y-96811761D01*
X152264380Y-96859380D01*
X152359619Y-96859380D01*
X152835809Y-96859380D02*
X152740571Y-96811761D01*
X152692952Y-96764142D01*
X152645333Y-96668904D01*
X152645333Y-96383190D01*
X152692952Y-96287952D01*
X152740571Y-96240333D01*
X152835809Y-96192714D01*
X152978666Y-96192714D01*
X153073904Y-96240333D01*
X153121523Y-96287952D01*
X153169142Y-96383190D01*
X153169142Y-96668904D01*
X153121523Y-96764142D01*
X153073904Y-96811761D01*
X152978666Y-96859380D01*
X152835809Y-96859380D01*
X154788190Y-96859380D02*
X154788190Y-96335571D01*
X154740571Y-96240333D01*
X154645333Y-96192714D01*
X154454857Y-96192714D01*
X154359619Y-96240333D01*
X154788190Y-96811761D02*
X154692952Y-96859380D01*
X154454857Y-96859380D01*
X154359619Y-96811761D01*
X154312000Y-96716523D01*
X154312000Y-96621285D01*
X154359619Y-96526047D01*
X154454857Y-96478428D01*
X154692952Y-96478428D01*
X154788190Y-96430809D01*
X155407238Y-96859380D02*
X155312000Y-96811761D01*
X155264380Y-96716523D01*
X155264380Y-95859380D01*
X155931047Y-96859380D02*
X155835809Y-96811761D01*
X155788190Y-96716523D01*
X155788190Y-95859380D01*
X156454857Y-96859380D02*
X156359619Y-96811761D01*
X156312000Y-96764142D01*
X156264380Y-96668904D01*
X156264380Y-96383190D01*
X156312000Y-96287952D01*
X156359619Y-96240333D01*
X156454857Y-96192714D01*
X156597714Y-96192714D01*
X156692952Y-96240333D01*
X156740571Y-96287952D01*
X156788190Y-96383190D01*
X156788190Y-96668904D01*
X156740571Y-96764142D01*
X156692952Y-96811761D01*
X156597714Y-96859380D01*
X156454857Y-96859380D01*
X157121523Y-96192714D02*
X157312000Y-96859380D01*
X157502476Y-96383190D01*
X157692952Y-96859380D01*
X157883428Y-96192714D01*
X158883428Y-96192714D02*
X159264380Y-96192714D01*
X159026285Y-96859380D02*
X159026285Y-96002238D01*
X159073904Y-95907000D01*
X159169142Y-95859380D01*
X159264380Y-95859380D01*
X159740571Y-96859380D02*
X159645333Y-96811761D01*
X159597714Y-96764142D01*
X159550095Y-96668904D01*
X159550095Y-96383190D01*
X159597714Y-96287952D01*
X159645333Y-96240333D01*
X159740571Y-96192714D01*
X159883428Y-96192714D01*
X159978666Y-96240333D01*
X160026285Y-96287952D01*
X160073904Y-96383190D01*
X160073904Y-96668904D01*
X160026285Y-96764142D01*
X159978666Y-96811761D01*
X159883428Y-96859380D01*
X159740571Y-96859380D01*
X160502476Y-96859380D02*
X160502476Y-96192714D01*
X160502476Y-96383190D02*
X160550095Y-96287952D01*
X160597714Y-96240333D01*
X160692952Y-96192714D01*
X160788190Y-96192714D01*
X161883428Y-96192714D02*
X161883428Y-96859380D01*
X161883428Y-96287952D02*
X161931047Y-96240333D01*
X162026285Y-96192714D01*
X162169142Y-96192714D01*
X162264380Y-96240333D01*
X162312000Y-96335571D01*
X162312000Y-96859380D01*
X163216761Y-96859380D02*
X163216761Y-96335571D01*
X163169142Y-96240333D01*
X163073904Y-96192714D01*
X162883428Y-96192714D01*
X162788190Y-96240333D01*
X163216761Y-96811761D02*
X163121523Y-96859380D01*
X162883428Y-96859380D01*
X162788190Y-96811761D01*
X162740571Y-96716523D01*
X162740571Y-96621285D01*
X162788190Y-96526047D01*
X162883428Y-96478428D01*
X163121523Y-96478428D01*
X163216761Y-96430809D01*
X163550095Y-96192714D02*
X163931047Y-96192714D01*
X163692952Y-95859380D02*
X163692952Y-96716523D01*
X163740571Y-96811761D01*
X163835809Y-96859380D01*
X163931047Y-96859380D01*
X164692952Y-96192714D02*
X164692952Y-96859380D01*
X164264380Y-96192714D02*
X164264380Y-96716523D01*
X164312000Y-96811761D01*
X164407238Y-96859380D01*
X164550095Y-96859380D01*
X164645333Y-96811761D01*
X164692952Y-96764142D01*
X165169142Y-96859380D02*
X165169142Y-96192714D01*
X165169142Y-96383190D02*
X165216761Y-96287952D01*
X165264380Y-96240333D01*
X165359619Y-96192714D01*
X165454857Y-96192714D01*
X166216761Y-96859380D02*
X166216761Y-96335571D01*
X166169142Y-96240333D01*
X166073904Y-96192714D01*
X165883428Y-96192714D01*
X165788190Y-96240333D01*
X166216761Y-96811761D02*
X166121523Y-96859380D01*
X165883428Y-96859380D01*
X165788190Y-96811761D01*
X165740571Y-96716523D01*
X165740571Y-96621285D01*
X165788190Y-96526047D01*
X165883428Y-96478428D01*
X166121523Y-96478428D01*
X166216761Y-96430809D01*
X166835809Y-96859380D02*
X166740571Y-96811761D01*
X166692952Y-96716523D01*
X166692952Y-95859380D01*
X152978666Y-98461761D02*
X152883428Y-98509380D01*
X152692952Y-98509380D01*
X152597714Y-98461761D01*
X152550095Y-98414142D01*
X152502476Y-98318904D01*
X152502476Y-98033190D01*
X152550095Y-97937952D01*
X152597714Y-97890333D01*
X152692952Y-97842714D01*
X152883428Y-97842714D01*
X152978666Y-97890333D01*
X153550095Y-98509380D02*
X153454857Y-98461761D01*
X153407238Y-98414142D01*
X153359619Y-98318904D01*
X153359619Y-98033190D01*
X153407238Y-97937952D01*
X153454857Y-97890333D01*
X153550095Y-97842714D01*
X153692952Y-97842714D01*
X153788190Y-97890333D01*
X153835809Y-97937952D01*
X153883428Y-98033190D01*
X153883428Y-98318904D01*
X153835809Y-98414142D01*
X153788190Y-98461761D01*
X153692952Y-98509380D01*
X153550095Y-98509380D01*
X154312000Y-97842714D02*
X154312000Y-98509380D01*
X154312000Y-97937952D02*
X154359619Y-97890333D01*
X154454857Y-97842714D01*
X154597714Y-97842714D01*
X154692952Y-97890333D01*
X154740571Y-97985571D01*
X154740571Y-98509380D01*
X155121523Y-97842714D02*
X155359619Y-98509380D01*
X155597714Y-97842714D01*
X156359619Y-98461761D02*
X156264380Y-98509380D01*
X156073904Y-98509380D01*
X155978666Y-98461761D01*
X155931047Y-98366523D01*
X155931047Y-97985571D01*
X155978666Y-97890333D01*
X156073904Y-97842714D01*
X156264380Y-97842714D01*
X156359619Y-97890333D01*
X156407238Y-97985571D01*
X156407238Y-98080809D01*
X155931047Y-98176047D01*
X157264380Y-98461761D02*
X157169142Y-98509380D01*
X156978666Y-98509380D01*
X156883428Y-98461761D01*
X156835809Y-98414142D01*
X156788190Y-98318904D01*
X156788190Y-98033190D01*
X156835809Y-97937952D01*
X156883428Y-97890333D01*
X156978666Y-97842714D01*
X157169142Y-97842714D01*
X157264380Y-97890333D01*
X157550095Y-97842714D02*
X157931047Y-97842714D01*
X157692952Y-97509380D02*
X157692952Y-98366523D01*
X157740571Y-98461761D01*
X157835809Y-98509380D01*
X157931047Y-98509380D01*
X158264380Y-98509380D02*
X158264380Y-97842714D01*
X158264380Y-97509380D02*
X158216761Y-97557000D01*
X158264380Y-97604619D01*
X158312000Y-97557000D01*
X158264380Y-97509380D01*
X158264380Y-97604619D01*
X158883428Y-98509380D02*
X158788190Y-98461761D01*
X158740571Y-98414142D01*
X158692952Y-98318904D01*
X158692952Y-98033190D01*
X158740571Y-97937952D01*
X158788190Y-97890333D01*
X158883428Y-97842714D01*
X159026285Y-97842714D01*
X159121523Y-97890333D01*
X159169142Y-97937952D01*
X159216761Y-98033190D01*
X159216761Y-98318904D01*
X159169142Y-98414142D01*
X159121523Y-98461761D01*
X159026285Y-98509380D01*
X158883428Y-98509380D01*
X159645333Y-97842714D02*
X159645333Y-98509380D01*
X159645333Y-97937952D02*
X159692952Y-97890333D01*
X159788190Y-97842714D01*
X159931047Y-97842714D01*
X160026285Y-97890333D01*
X160073904Y-97985571D01*
X160073904Y-98509380D01*
X161740571Y-98461761D02*
X161645333Y-98509380D01*
X161454857Y-98509380D01*
X161359619Y-98461761D01*
X161312000Y-98414142D01*
X161264380Y-98318904D01*
X161264380Y-98033190D01*
X161312000Y-97937952D01*
X161359619Y-97890333D01*
X161454857Y-97842714D01*
X161645333Y-97842714D01*
X161740571Y-97890333D01*
X162312000Y-98509380D02*
X162216761Y-98461761D01*
X162169142Y-98414142D01*
X162121523Y-98318904D01*
X162121523Y-98033190D01*
X162169142Y-97937952D01*
X162216761Y-97890333D01*
X162312000Y-97842714D01*
X162454857Y-97842714D01*
X162550095Y-97890333D01*
X162597714Y-97937952D01*
X162645333Y-98033190D01*
X162645333Y-98318904D01*
X162597714Y-98414142D01*
X162550095Y-98461761D01*
X162454857Y-98509380D01*
X162312000Y-98509380D01*
X163216761Y-98509380D02*
X163121523Y-98461761D01*
X163073904Y-98414142D01*
X163026285Y-98318904D01*
X163026285Y-98033190D01*
X163073904Y-97937952D01*
X163121523Y-97890333D01*
X163216761Y-97842714D01*
X163359619Y-97842714D01*
X163454857Y-97890333D01*
X163502476Y-97937952D01*
X163550095Y-98033190D01*
X163550095Y-98318904D01*
X163502476Y-98414142D01*
X163454857Y-98461761D01*
X163359619Y-98509380D01*
X163216761Y-98509380D01*
X164121523Y-98509380D02*
X164026285Y-98461761D01*
X163978666Y-98366523D01*
X163978666Y-97509380D01*
X164502476Y-98509380D02*
X164502476Y-97842714D01*
X164502476Y-97509380D02*
X164454857Y-97557000D01*
X164502476Y-97604619D01*
X164550095Y-97557000D01*
X164502476Y-97509380D01*
X164502476Y-97604619D01*
X164978666Y-97842714D02*
X164978666Y-98509380D01*
X164978666Y-97937952D02*
X165026285Y-97890333D01*
X165121523Y-97842714D01*
X165264380Y-97842714D01*
X165359619Y-97890333D01*
X165407238Y-97985571D01*
X165407238Y-98509380D01*
X166312000Y-97842714D02*
X166312000Y-98652238D01*
X166264380Y-98747476D01*
X166216761Y-98795095D01*
X166121523Y-98842714D01*
X165978666Y-98842714D01*
X165883428Y-98795095D01*
X166312000Y-98461761D02*
X166216761Y-98509380D01*
X166026285Y-98509380D01*
X165931047Y-98461761D01*
X165883428Y-98414142D01*
X165835809Y-98318904D01*
X165835809Y-98033190D01*
X165883428Y-97937952D01*
X165931047Y-97890333D01*
X166026285Y-97842714D01*
X166216761Y-97842714D01*
X166312000Y-97890333D01*
D11*
X143800000Y-129400000D02*
X143800000Y-105500000D01*
X159200000Y-129400000D02*
X143800000Y-129400000D01*
X159200000Y-105500000D02*
X159200000Y-129400000D01*
X143800000Y-105500000D02*
X159200000Y-105500000D01*
D12*
X153314285Y-128467142D02*
X153371428Y-128295714D01*
X153428571Y-128238571D01*
X153542857Y-128181428D01*
X153714285Y-128181428D01*
X153828571Y-128238571D01*
X153885714Y-128295714D01*
X153942857Y-128409999D01*
X153942857Y-128867142D01*
X152742857Y-128867142D01*
X152742857Y-128467142D01*
X152800000Y-128352857D01*
X152857142Y-128295714D01*
X152971428Y-128238571D01*
X153085714Y-128238571D01*
X153200000Y-128295714D01*
X153257142Y-128352857D01*
X153314285Y-128467142D01*
X153314285Y-128867142D01*
X156500000Y-128268571D02*
X156442857Y-128382857D01*
X156442857Y-128554286D01*
X156500000Y-128725714D01*
X156614285Y-128840000D01*
X156728571Y-128897143D01*
X156957142Y-128954286D01*
X157128571Y-128954286D01*
X157357142Y-128897143D01*
X157471428Y-128840000D01*
X157585714Y-128725714D01*
X157642857Y-128554286D01*
X157642857Y-128440000D01*
X157585714Y-128268571D01*
X157528571Y-128211428D01*
X157128571Y-128211428D01*
X157128571Y-128440000D01*
X157642857Y-127697143D02*
X156442857Y-127697143D01*
X157642857Y-127011428D01*
X156442857Y-127011428D01*
X157642857Y-126440000D02*
X156442857Y-126440000D01*
X156442857Y-126154286D01*
X156500000Y-125982857D01*
X156614285Y-125868571D01*
X156728571Y-125811428D01*
X156957142Y-125754286D01*
X157128571Y-125754286D01*
X157357142Y-125811428D01*
X157471428Y-125868571D01*
X157585714Y-125982857D01*
X157642857Y-126154286D01*
X157642857Y-126440000D01*
X145905714Y-128897143D02*
X145905714Y-127982857D01*
X146362857Y-128440000D02*
X145448571Y-128440000D01*
X145162857Y-126840000D02*
X145162857Y-127411428D01*
X145734285Y-127468571D01*
X145677142Y-127411428D01*
X145620000Y-127297143D01*
X145620000Y-127011428D01*
X145677142Y-126897143D01*
X145734285Y-126840000D01*
X145848571Y-126782857D01*
X146134285Y-126782857D01*
X146248571Y-126840000D01*
X146305714Y-126897143D01*
X146362857Y-127011428D01*
X146362857Y-127297143D01*
X146305714Y-127411428D01*
X146248571Y-127468571D01*
X145162857Y-126440000D02*
X146362857Y-126040000D01*
X145162857Y-125640000D01*
X149720000Y-128924285D02*
X149720000Y-128352857D01*
X150062857Y-129038571D02*
X148862857Y-128638571D01*
X150062857Y-128238571D01*
D10*
X165659404Y-128397619D02*
X165659404Y-127297619D01*
X165659404Y-127716666D02*
X165764166Y-127664285D01*
X165973690Y-127664285D01*
X166078452Y-127716666D01*
X166130833Y-127769047D01*
X166183214Y-127873809D01*
X166183214Y-128188095D01*
X166130833Y-128292857D01*
X166078452Y-128345238D01*
X165973690Y-128397619D01*
X165764166Y-128397619D01*
X165659404Y-128345238D01*
X166864166Y-127297619D02*
X166968928Y-127297619D01*
X167073690Y-127350000D01*
X167126071Y-127402380D01*
X167178452Y-127507142D01*
X167230833Y-127716666D01*
X167230833Y-127978571D01*
X167178452Y-128188095D01*
X167126071Y-128292857D01*
X167073690Y-128345238D01*
X166968928Y-128397619D01*
X166864166Y-128397619D01*
X166759404Y-128345238D01*
X166707023Y-128292857D01*
X166654642Y-128188095D01*
X166602261Y-127978571D01*
X166602261Y-127716666D01*
X166654642Y-127507142D01*
X166707023Y-127402380D01*
X166759404Y-127350000D01*
X166864166Y-127297619D01*
X168278452Y-128397619D02*
X167649880Y-128397619D01*
X167964166Y-128397619D02*
X167964166Y-127297619D01*
X167859404Y-127454761D01*
X167754642Y-127559523D01*
X167649880Y-127611904D01*
X168959404Y-127297619D02*
X169064166Y-127297619D01*
X169168928Y-127350000D01*
X169221309Y-127402380D01*
X169273690Y-127507142D01*
X169326071Y-127716666D01*
X169326071Y-127978571D01*
X169273690Y-128188095D01*
X169221309Y-128292857D01*
X169168928Y-128345238D01*
X169064166Y-128397619D01*
X168959404Y-128397619D01*
X168854642Y-128345238D01*
X168802261Y-128292857D01*
X168749880Y-128188095D01*
X168697500Y-127978571D01*
X168697500Y-127716666D01*
X168749880Y-127507142D01*
X168802261Y-127402380D01*
X168854642Y-127350000D01*
X168959404Y-127297619D01*
X170268928Y-128345238D02*
X170164166Y-128397619D01*
X169954642Y-128397619D01*
X169849880Y-128345238D01*
X169797500Y-128292857D01*
X169745119Y-128188095D01*
X169745119Y-127873809D01*
X169797500Y-127769047D01*
X169849880Y-127716666D01*
X169954642Y-127664285D01*
X170164166Y-127664285D01*
X170268928Y-127716666D01*
X171159404Y-128345238D02*
X171054642Y-128397619D01*
X170845119Y-128397619D01*
X170740357Y-128345238D01*
X170687976Y-128240476D01*
X170687976Y-127821428D01*
X170740357Y-127716666D01*
X170845119Y-127664285D01*
X171054642Y-127664285D01*
X171159404Y-127716666D01*
X171211785Y-127821428D01*
X171211785Y-127926190D01*
X170687976Y-128030952D01*
X172154642Y-128345238D02*
X172049880Y-128397619D01*
X171840357Y-128397619D01*
X171735595Y-128345238D01*
X171683214Y-128292857D01*
X171630833Y-128188095D01*
X171630833Y-127873809D01*
X171683214Y-127769047D01*
X171735595Y-127716666D01*
X171840357Y-127664285D01*
X172049880Y-127664285D01*
X172154642Y-127716666D01*
X187300000Y-129411904D02*
X187300000Y-128888095D01*
X187642857Y-129516666D02*
X186442857Y-129150000D01*
X187642857Y-128783333D01*
X187642857Y-128416666D02*
X186442857Y-128416666D01*
X186442857Y-128154761D01*
X186500000Y-127997619D01*
X186614285Y-127892857D01*
X186728571Y-127840476D01*
X186957142Y-127788095D01*
X187128571Y-127788095D01*
X187357142Y-127840476D01*
X187471428Y-127892857D01*
X187585714Y-127997619D01*
X187642857Y-128154761D01*
X187642857Y-128416666D01*
X187642857Y-127316666D02*
X186442857Y-127316666D01*
X186442857Y-127054761D01*
X186500000Y-126897619D01*
X186614285Y-126792857D01*
X186728571Y-126740476D01*
X186957142Y-126688095D01*
X187128571Y-126688095D01*
X187357142Y-126740476D01*
X187471428Y-126792857D01*
X187585714Y-126897619D01*
X187642857Y-127054761D01*
X187642857Y-127316666D01*
X187642857Y-125588095D02*
X187071428Y-125954761D01*
X187642857Y-126216666D02*
X186442857Y-126216666D01*
X186442857Y-125797619D01*
X186500000Y-125692857D01*
X186557142Y-125640476D01*
X186671428Y-125588095D01*
X186842857Y-125588095D01*
X186957142Y-125640476D01*
X187014285Y-125692857D01*
X187071428Y-125797619D01*
X187071428Y-126216666D01*
D11*
X159970000Y-125610000D02*
X180320000Y-125610000D01*
D13*
X228572380Y-77039047D02*
X229286666Y-77039047D01*
X229429523Y-77086666D01*
X229524761Y-77181904D01*
X229572380Y-77324761D01*
X229572380Y-77420000D01*
X229572380Y-76086666D02*
X229572380Y-76562857D01*
X228572380Y-76562857D01*
X229477142Y-75181904D02*
X229524761Y-75229523D01*
X229572380Y-75372380D01*
X229572380Y-75467619D01*
X229524761Y-75610476D01*
X229429523Y-75705714D01*
X229334285Y-75753333D01*
X229143809Y-75800952D01*
X229000952Y-75800952D01*
X228810476Y-75753333D01*
X228715238Y-75705714D01*
X228620000Y-75610476D01*
X228572380Y-75467619D01*
X228572380Y-75372380D01*
X228620000Y-75229523D01*
X228667619Y-75181904D01*
X228572380Y-74467619D02*
X229286666Y-74467619D01*
X229429523Y-74515238D01*
X229524761Y-74610476D01*
X229572380Y-74753333D01*
X229572380Y-74848571D01*
X229572380Y-73515238D02*
X229572380Y-73991428D01*
X228572380Y-73991428D01*
X229477142Y-72610476D02*
X229524761Y-72658095D01*
X229572380Y-72800952D01*
X229572380Y-72896190D01*
X229524761Y-73039047D01*
X229429523Y-73134285D01*
X229334285Y-73181904D01*
X229143809Y-73229523D01*
X229000952Y-73229523D01*
X228810476Y-73181904D01*
X228715238Y-73134285D01*
X228620000Y-73039047D01*
X228572380Y-72896190D01*
X228572380Y-72800952D01*
X228620000Y-72658095D01*
X228667619Y-72610476D01*
X228572380Y-71896190D02*
X229286666Y-71896190D01*
X229429523Y-71943809D01*
X229524761Y-72039047D01*
X229572380Y-72181904D01*
X229572380Y-72277142D01*
X229572380Y-70943809D02*
X229572380Y-71420000D01*
X228572380Y-71420000D01*
X229477142Y-70039047D02*
X229524761Y-70086666D01*
X229572380Y-70229523D01*
X229572380Y-70324761D01*
X229524761Y-70467619D01*
X229429523Y-70562857D01*
X229334285Y-70610476D01*
X229143809Y-70658095D01*
X229000952Y-70658095D01*
X228810476Y-70610476D01*
X228715238Y-70562857D01*
X228620000Y-70467619D01*
X228572380Y-70324761D01*
X228572380Y-70229523D01*
X228620000Y-70086666D01*
X228667619Y-70039047D01*
X228572380Y-69324761D02*
X229286666Y-69324761D01*
X229429523Y-69372380D01*
X229524761Y-69467619D01*
X229572380Y-69610476D01*
X229572380Y-69705714D01*
X229572380Y-68372380D02*
X229572380Y-68848571D01*
X228572380Y-68848571D01*
X229477142Y-67467619D02*
X229524761Y-67515238D01*
X229572380Y-67658095D01*
X229572380Y-67753333D01*
X229524761Y-67896190D01*
X229429523Y-67991428D01*
X229334285Y-68039047D01*
X229143809Y-68086666D01*
X229000952Y-68086666D01*
X228810476Y-68039047D01*
X228715238Y-67991428D01*
X228620000Y-67896190D01*
X228572380Y-67753333D01*
X228572380Y-67658095D01*
X228620000Y-67515238D01*
X228667619Y-67467619D01*
D12*
X216720000Y-128138571D02*
X216662857Y-128252857D01*
X216662857Y-128424285D01*
X216720000Y-128595714D01*
X216834285Y-128709999D01*
X216948571Y-128767142D01*
X217177142Y-128824285D01*
X217348571Y-128824285D01*
X217577142Y-128767142D01*
X217691428Y-128709999D01*
X217805714Y-128595714D01*
X217862857Y-128424285D01*
X217862857Y-128309999D01*
X217805714Y-128138571D01*
X217748571Y-128081428D01*
X217348571Y-128081428D01*
X217348571Y-128309999D01*
X217862857Y-127567142D02*
X216662857Y-127567142D01*
X217862857Y-126881428D01*
X216662857Y-126881428D01*
X217862857Y-126309999D02*
X216662857Y-126309999D01*
X216662857Y-126024285D01*
X216720000Y-125852857D01*
X216834285Y-125738571D01*
X216948571Y-125681428D01*
X217177142Y-125624285D01*
X217348571Y-125624285D01*
X217577142Y-125681428D01*
X217691428Y-125738571D01*
X217805714Y-125852857D01*
X217862857Y-126024285D01*
X217862857Y-126309999D01*
X221705714Y-128767142D02*
X221705714Y-127852857D01*
X222162857Y-128309999D02*
X221248571Y-128309999D01*
X220962857Y-127452857D02*
X222162857Y-127052857D01*
X220962857Y-126652857D01*
X222105714Y-125395714D02*
X222162857Y-125224285D01*
X222162857Y-124938571D01*
X222105714Y-124824285D01*
X222048571Y-124767142D01*
X221934285Y-124709999D01*
X221820000Y-124709999D01*
X221705714Y-124767142D01*
X221648571Y-124824285D01*
X221591428Y-124938571D01*
X221534285Y-125167142D01*
X221477142Y-125281428D01*
X221420000Y-125338571D01*
X221305714Y-125395714D01*
X221191428Y-125395714D01*
X221077142Y-125338571D01*
X221020000Y-125281428D01*
X220962857Y-125167142D01*
X220962857Y-124881428D01*
X221020000Y-124709999D01*
X221534285Y-124195714D02*
X221534285Y-123795714D01*
X222162857Y-123624285D02*
X222162857Y-124195714D01*
X220962857Y-124195714D01*
X220962857Y-123624285D01*
X222162857Y-123109999D02*
X220962857Y-123109999D01*
X222162857Y-122424285D01*
X220962857Y-122424285D01*
X222105714Y-121909999D02*
X222162857Y-121738571D01*
X222162857Y-121452857D01*
X222105714Y-121338571D01*
X222048571Y-121281428D01*
X221934285Y-121224285D01*
X221820000Y-121224285D01*
X221705714Y-121281428D01*
X221648571Y-121338571D01*
X221591428Y-121452857D01*
X221534285Y-121681428D01*
X221477142Y-121795714D01*
X221420000Y-121852857D01*
X221305714Y-121909999D01*
X221191428Y-121909999D01*
X221077142Y-121852857D01*
X221020000Y-121795714D01*
X220962857Y-121681428D01*
X220962857Y-121395714D01*
X221020000Y-121224285D01*
X221534285Y-120709999D02*
X221534285Y-120309999D01*
X222162857Y-120138571D02*
X222162857Y-120709999D01*
X220962857Y-120709999D01*
X220962857Y-120138571D01*
D10*
X179541428Y-124902857D02*
X179141428Y-124331428D01*
X178855714Y-124902857D02*
X178855714Y-123702857D01*
X179312857Y-123702857D01*
X179427142Y-123760000D01*
X179484285Y-123817142D01*
X179541428Y-123931428D01*
X179541428Y-124102857D01*
X179484285Y-124217142D01*
X179427142Y-124274285D01*
X179312857Y-124331428D01*
X178855714Y-124331428D01*
D12*
X224085714Y-128942857D02*
X224085714Y-128028571D01*
X224542857Y-128485714D02*
X223628571Y-128485714D01*
X224085714Y-127457142D02*
X224085714Y-126542857D01*
X224542857Y-127000000D02*
X223628571Y-127000000D01*
X224085714Y-125971428D02*
X224085714Y-125057142D01*
X224542857Y-125514285D02*
X223628571Y-125514285D01*
X213020000Y-128168571D02*
X212962857Y-128282857D01*
X212962857Y-128454286D01*
X213020000Y-128625714D01*
X213134285Y-128740000D01*
X213248571Y-128797143D01*
X213477142Y-128854286D01*
X213648571Y-128854286D01*
X213877142Y-128797143D01*
X213991428Y-128740000D01*
X214105714Y-128625714D01*
X214162857Y-128454286D01*
X214162857Y-128340000D01*
X214105714Y-128168571D01*
X214048571Y-128111428D01*
X213648571Y-128111428D01*
X213648571Y-128340000D01*
X214162857Y-127597143D02*
X212962857Y-127597143D01*
X214162857Y-126911428D01*
X212962857Y-126911428D01*
X214162857Y-126340000D02*
X212962857Y-126340000D01*
X212962857Y-126054286D01*
X213020000Y-125882857D01*
X213134285Y-125768571D01*
X213248571Y-125711428D01*
X213477142Y-125654286D01*
X213648571Y-125654286D01*
X213877142Y-125711428D01*
X213991428Y-125768571D01*
X214105714Y-125882857D01*
X214162857Y-126054286D01*
X214162857Y-126340000D01*
X194504285Y-124122857D02*
X194104285Y-123551428D01*
X193818571Y-124122857D02*
X193818571Y-122922857D01*
X194275714Y-122922857D01*
X194390000Y-122980000D01*
X194447142Y-123037142D01*
X194504285Y-123151428D01*
X194504285Y-123322857D01*
X194447142Y-123437142D01*
X194390000Y-123494285D01*
X194275714Y-123551428D01*
X193818571Y-123551428D01*
X195018571Y-123494285D02*
X195418571Y-123494285D01*
X195590000Y-124122857D02*
X195018571Y-124122857D01*
X195018571Y-122922857D01*
X195590000Y-122922857D01*
X196675714Y-124122857D02*
X196104285Y-124122857D01*
X196104285Y-122922857D01*
X197018571Y-123780000D02*
X197590000Y-123780000D01*
X196904285Y-124122857D02*
X197304285Y-122922857D01*
X197704285Y-124122857D01*
X198332857Y-123551428D02*
X198332857Y-124122857D01*
X197932857Y-122922857D02*
X198332857Y-123551428D01*
X198732857Y-122922857D01*
X201881428Y-126187142D02*
X201767142Y-126130000D01*
X201710000Y-126072857D01*
X201652857Y-125958571D01*
X201652857Y-125901428D01*
X201710000Y-125787142D01*
X201767142Y-125730000D01*
X201881428Y-125672857D01*
X202110000Y-125672857D01*
X202224285Y-125730000D01*
X202281428Y-125787142D01*
X202338571Y-125901428D01*
X202338571Y-125958571D01*
X202281428Y-126072857D01*
X202224285Y-126130000D01*
X202110000Y-126187142D01*
X201881428Y-126187142D01*
X201767142Y-126244285D01*
X201710000Y-126301428D01*
X201652857Y-126415714D01*
X201652857Y-126644285D01*
X201710000Y-126758571D01*
X201767142Y-126815714D01*
X201881428Y-126872857D01*
X202110000Y-126872857D01*
X202224285Y-126815714D01*
X202281428Y-126758571D01*
X202338571Y-126644285D01*
X202338571Y-126415714D01*
X202281428Y-126301428D01*
X202224285Y-126244285D01*
X202110000Y-126187142D01*
X203424285Y-125672857D02*
X202852857Y-125672857D01*
X202795714Y-126244285D01*
X202852857Y-126187142D01*
X202967142Y-126130000D01*
X203252857Y-126130000D01*
X203367142Y-126187142D01*
X203424285Y-126244285D01*
X203481428Y-126358571D01*
X203481428Y-126644285D01*
X203424285Y-126758571D01*
X203367142Y-126815714D01*
X203252857Y-126872857D01*
X202967142Y-126872857D01*
X202852857Y-126815714D01*
X202795714Y-126758571D01*
X203824285Y-125672857D02*
X204224285Y-126872857D01*
X204624285Y-125672857D01*
X205938571Y-126872857D02*
X205938571Y-125672857D01*
X206338571Y-126530000D01*
X206738571Y-125672857D01*
X206738571Y-126872857D01*
X207252857Y-126530000D02*
X207824285Y-126530000D01*
X207138571Y-126872857D02*
X207538571Y-125672857D01*
X207938571Y-126872857D01*
X208224285Y-125672857D02*
X209024285Y-126872857D01*
X209024285Y-125672857D02*
X208224285Y-126872857D01*
D10*
X178398095Y-111922380D02*
X178398095Y-110922380D01*
X178969523Y-111922380D02*
X178540952Y-111350952D01*
X178969523Y-110922380D02*
X178398095Y-111493809D01*
X186528095Y-111922380D02*
X186528095Y-110922380D01*
X187099523Y-111922380D02*
X186670952Y-111350952D01*
X187099523Y-110922380D02*
X186528095Y-111493809D01*
X179528571Y-108452380D02*
X179195238Y-107976190D01*
X178957142Y-108452380D02*
X178957142Y-107452380D01*
X179338095Y-107452380D01*
X179433333Y-107500000D01*
X179480952Y-107547619D01*
X179528571Y-107642857D01*
X179528571Y-107785714D01*
X179480952Y-107880952D01*
X179433333Y-107928571D01*
X179338095Y-107976190D01*
X178957142Y-107976190D01*
X180338095Y-108404761D02*
X180242857Y-108452380D01*
X180052380Y-108452380D01*
X179957142Y-108404761D01*
X179909523Y-108309523D01*
X179909523Y-107928571D01*
X179957142Y-107833333D01*
X180052380Y-107785714D01*
X180242857Y-107785714D01*
X180338095Y-107833333D01*
X180385714Y-107928571D01*
X180385714Y-108023809D01*
X179909523Y-108119047D01*
X181242857Y-108452380D02*
X181242857Y-107452380D01*
X181242857Y-108404761D02*
X181147619Y-108452380D01*
X180957142Y-108452380D01*
X180861904Y-108404761D01*
X180814285Y-108357142D01*
X180766666Y-108261904D01*
X180766666Y-107976190D01*
X180814285Y-107880952D01*
X180861904Y-107833333D01*
X180957142Y-107785714D01*
X181147619Y-107785714D01*
X181242857Y-107833333D01*
X186642857Y-107500000D02*
X186547619Y-107452380D01*
X186404761Y-107452380D01*
X186261904Y-107500000D01*
X186166666Y-107595238D01*
X186119047Y-107690476D01*
X186071428Y-107880952D01*
X186071428Y-108023809D01*
X186119047Y-108214285D01*
X186166666Y-108309523D01*
X186261904Y-108404761D01*
X186404761Y-108452380D01*
X186500000Y-108452380D01*
X186642857Y-108404761D01*
X186690476Y-108357142D01*
X186690476Y-108023809D01*
X186500000Y-108023809D01*
X187119047Y-108452380D02*
X187119047Y-107785714D01*
X187119047Y-107976190D02*
X187166666Y-107880952D01*
X187214285Y-107833333D01*
X187309523Y-107785714D01*
X187404761Y-107785714D01*
X188119047Y-108404761D02*
X188023809Y-108452380D01*
X187833333Y-108452380D01*
X187738095Y-108404761D01*
X187690476Y-108309523D01*
X187690476Y-107928571D01*
X187738095Y-107833333D01*
X187833333Y-107785714D01*
X188023809Y-107785714D01*
X188119047Y-107833333D01*
X188166666Y-107928571D01*
X188166666Y-108023809D01*
X187690476Y-108119047D01*
X188976190Y-108404761D02*
X188880952Y-108452380D01*
X188690476Y-108452380D01*
X188595238Y-108404761D01*
X188547619Y-108309523D01*
X188547619Y-107928571D01*
X188595238Y-107833333D01*
X188690476Y-107785714D01*
X188880952Y-107785714D01*
X188976190Y-107833333D01*
X189023809Y-107928571D01*
X189023809Y-108023809D01*
X188547619Y-108119047D01*
X189452380Y-107785714D02*
X189452380Y-108452380D01*
X189452380Y-107880952D02*
X189500000Y-107833333D01*
X189595238Y-107785714D01*
X189738095Y-107785714D01*
X189833333Y-107833333D01*
X189880952Y-107928571D01*
X189880952Y-108452380D01*
X165730000Y-118848214D02*
X165672857Y-118962500D01*
X165672857Y-119133928D01*
X165730000Y-119305357D01*
X165844285Y-119419642D01*
X165958571Y-119476785D01*
X166187142Y-119533928D01*
X166358571Y-119533928D01*
X166587142Y-119476785D01*
X166701428Y-119419642D01*
X166815714Y-119305357D01*
X166872857Y-119133928D01*
X166872857Y-119019642D01*
X166815714Y-118848214D01*
X166758571Y-118791071D01*
X166358571Y-118791071D01*
X166358571Y-119019642D01*
X166872857Y-118276785D02*
X165672857Y-118276785D01*
X166872857Y-117591071D01*
X165672857Y-117591071D01*
X166872857Y-117019642D02*
X165672857Y-117019642D01*
X165672857Y-116733928D01*
X165730000Y-116562500D01*
X165844285Y-116448214D01*
X165958571Y-116391071D01*
X166187142Y-116333928D01*
X166358571Y-116333928D01*
X166587142Y-116391071D01*
X166701428Y-116448214D01*
X166815714Y-116562500D01*
X166872857Y-116733928D01*
X166872857Y-117019642D01*
X164172857Y-118791071D02*
X163601428Y-119191071D01*
X164172857Y-119476785D02*
X162972857Y-119476785D01*
X162972857Y-119019642D01*
X163030000Y-118905357D01*
X163087142Y-118848214D01*
X163201428Y-118791071D01*
X163372857Y-118791071D01*
X163487142Y-118848214D01*
X163544285Y-118905357D01*
X163601428Y-119019642D01*
X163601428Y-119476785D01*
X163544285Y-118276785D02*
X163544285Y-117876785D01*
X164172857Y-117705357D02*
X164172857Y-118276785D01*
X162972857Y-118276785D01*
X162972857Y-117705357D01*
X164115714Y-117248214D02*
X164172857Y-117076785D01*
X164172857Y-116791071D01*
X164115714Y-116676785D01*
X164058571Y-116619642D01*
X163944285Y-116562500D01*
X163830000Y-116562500D01*
X163715714Y-116619642D01*
X163658571Y-116676785D01*
X163601428Y-116791071D01*
X163544285Y-117019642D01*
X163487142Y-117133928D01*
X163430000Y-117191071D01*
X163315714Y-117248214D01*
X163201428Y-117248214D01*
X163087142Y-117191071D01*
X163030000Y-117133928D01*
X162972857Y-117019642D01*
X162972857Y-116733928D01*
X163030000Y-116562500D01*
X163544285Y-116048214D02*
X163544285Y-115648214D01*
X164172857Y-115476785D02*
X164172857Y-116048214D01*
X162972857Y-116048214D01*
X162972857Y-115476785D01*
X162972857Y-115133928D02*
X162972857Y-114448214D01*
X164172857Y-114791071D02*
X162972857Y-114791071D01*
X161315714Y-119476785D02*
X161315714Y-118562500D01*
X161772857Y-119019642D02*
X160858571Y-119019642D01*
X160572857Y-117419642D02*
X160572857Y-117991071D01*
X161144285Y-118048214D01*
X161087142Y-117991071D01*
X161030000Y-117876785D01*
X161030000Y-117591071D01*
X161087142Y-117476785D01*
X161144285Y-117419642D01*
X161258571Y-117362500D01*
X161544285Y-117362500D01*
X161658571Y-117419642D01*
X161715714Y-117476785D01*
X161772857Y-117591071D01*
X161772857Y-117876785D01*
X161715714Y-117991071D01*
X161658571Y-118048214D01*
X160572857Y-117019642D02*
X161772857Y-116619642D01*
X160572857Y-116219642D01*
X173084285Y-123702857D02*
X173770000Y-123702857D01*
X173427142Y-124902857D02*
X173427142Y-123702857D01*
X174055714Y-123702857D02*
X174855714Y-124902857D01*
X174855714Y-123702857D02*
X174055714Y-124902857D01*
X175998571Y-124902857D02*
X175598571Y-124331428D01*
X175312857Y-124902857D02*
X175312857Y-123702857D01*
X175770000Y-123702857D01*
X175884285Y-123760000D01*
X175941428Y-123817142D01*
X175998571Y-123931428D01*
X175998571Y-124102857D01*
X175941428Y-124217142D01*
X175884285Y-124274285D01*
X175770000Y-124331428D01*
X175312857Y-124331428D01*
X176398571Y-123702857D02*
X177198571Y-124902857D01*
X177198571Y-123702857D02*
X176398571Y-124902857D01*
X168998571Y-124902857D02*
X168998571Y-123702857D01*
X169512857Y-123817142D02*
X169570000Y-123760000D01*
X169684285Y-123702857D01*
X169970000Y-123702857D01*
X170084285Y-123760000D01*
X170141428Y-123817142D01*
X170198571Y-123931428D01*
X170198571Y-124045714D01*
X170141428Y-124217142D01*
X169455714Y-124902857D01*
X170198571Y-124902857D01*
X171398571Y-124788571D02*
X171341428Y-124845714D01*
X171170000Y-124902857D01*
X171055714Y-124902857D01*
X170884285Y-124845714D01*
X170770000Y-124731428D01*
X170712857Y-124617142D01*
X170655714Y-124388571D01*
X170655714Y-124217142D01*
X170712857Y-123988571D01*
X170770000Y-123874285D01*
X170884285Y-123760000D01*
X171055714Y-123702857D01*
X171170000Y-123702857D01*
X171341428Y-123760000D01*
X171398571Y-123817142D01*
D11*
X177770000Y-123060000D02*
X177770000Y-125610000D01*
X172670000Y-123060000D02*
X172670000Y-125610000D01*
X167670000Y-123060000D02*
X167670000Y-125610000D01*
X159970000Y-122960000D02*
X159970000Y-125610000D01*
D10*
X161941428Y-123702857D02*
X161941428Y-124674285D01*
X161998571Y-124788571D01*
X162055714Y-124845714D01*
X162170000Y-124902857D01*
X162398571Y-124902857D01*
X162512857Y-124845714D01*
X162570000Y-124788571D01*
X162627142Y-124674285D01*
X162627142Y-123702857D01*
X163198571Y-124902857D02*
X163198571Y-123702857D01*
X163655714Y-123702857D01*
X163770000Y-123760000D01*
X163827142Y-123817142D01*
X163884285Y-123931428D01*
X163884285Y-124102857D01*
X163827142Y-124217142D01*
X163770000Y-124274285D01*
X163655714Y-124331428D01*
X163198571Y-124331428D01*
X164398571Y-124902857D02*
X164398571Y-123702857D01*
X164684285Y-123702857D01*
X164855714Y-123760000D01*
X164970000Y-123874285D01*
X165027142Y-123988571D01*
X165084285Y-124217142D01*
X165084285Y-124388571D01*
X165027142Y-124617142D01*
X164970000Y-124731428D01*
X164855714Y-124845714D01*
X164684285Y-124902857D01*
X164398571Y-124902857D01*
X165598571Y-124902857D02*
X165598571Y-123702857D01*
D11*
X180320000Y-123110000D02*
X180320000Y-125610000D01*
D10*
X184414285Y-129019047D02*
X184471428Y-128861904D01*
X184528571Y-128809523D01*
X184642857Y-128757142D01*
X184814285Y-128757142D01*
X184928571Y-128809523D01*
X184985714Y-128861904D01*
X185042857Y-128966666D01*
X185042857Y-129385714D01*
X183842857Y-129385714D01*
X183842857Y-129019047D01*
X183900000Y-128914285D01*
X183957142Y-128861904D01*
X184071428Y-128809523D01*
X184185714Y-128809523D01*
X184300000Y-128861904D01*
X184357142Y-128914285D01*
X184414285Y-129019047D01*
X184414285Y-129385714D01*
X184700000Y-128338095D02*
X184700000Y-127814285D01*
X185042857Y-128442857D02*
X183842857Y-128076190D01*
X185042857Y-127709523D01*
X183842857Y-127342857D02*
X184814285Y-127342857D01*
X184928571Y-127290476D01*
X184985714Y-127238095D01*
X185042857Y-127133333D01*
X185042857Y-126923809D01*
X184985714Y-126819047D01*
X184928571Y-126766666D01*
X184814285Y-126714285D01*
X183842857Y-126714285D01*
X185042857Y-126190476D02*
X183842857Y-126190476D01*
X183842857Y-125928571D01*
X183900000Y-125771428D01*
X184014285Y-125666666D01*
X184128571Y-125614285D01*
X184357142Y-125561904D01*
X184528571Y-125561904D01*
X184757142Y-125614285D01*
X184871428Y-125666666D01*
X184985714Y-125771428D01*
X185042857Y-125928571D01*
X185042857Y-126190476D01*
D13*
G36*
X148784590Y-58682965D02*
G01*
X149137015Y-59365140D01*
X149261687Y-59307990D01*
X149386782Y-59273700D01*
X149512300Y-59262270D01*
X149602549Y-59269176D01*
X149694228Y-59289892D01*
X149834245Y-59346090D01*
X149879965Y-59372760D01*
X149933305Y-59407050D01*
X154651990Y-59668035D01*
X154771899Y-59684227D01*
X154877627Y-59732805D01*
X154969173Y-59813767D01*
X155039552Y-59918013D01*
X155228253Y-59970930D01*
X155200630Y-59860440D01*
X155210155Y-59747092D01*
X155236825Y-59696610D01*
X155313025Y-59671845D01*
X155375890Y-59679465D01*
X155375890Y-59483250D01*
X155378748Y-59418480D01*
X155396845Y-59372760D01*
X155445899Y-59337041D01*
X155543530Y-59325135D01*
X155646876Y-59342756D01*
X155697835Y-59395620D01*
X155707360Y-59492775D01*
X155707360Y-59679465D01*
X155834043Y-59671845D01*
X155898813Y-59674702D01*
X155949295Y-59692800D01*
X155986443Y-59741854D01*
X155998825Y-59839485D01*
X155985966Y-59936164D01*
X155947390Y-59986170D01*
X155896908Y-60002362D01*
X155831185Y-60005220D01*
X155707360Y-59997600D01*
X155707360Y-60260490D01*
X155723553Y-60334785D01*
X155784513Y-60357645D01*
X155853093Y-60360503D01*
X155903575Y-60378600D01*
X155947390Y-60506235D01*
X155934055Y-60602914D01*
X156774583Y-60641913D01*
X156679386Y-60585293D01*
X156611388Y-60506023D01*
X156570590Y-60404106D01*
X156556990Y-60279540D01*
X156570682Y-60175718D01*
X156611759Y-60075705D01*
X156680220Y-59979502D01*
X156776065Y-59887110D01*
X156733732Y-59777678D01*
X156708332Y-59675443D01*
X156699865Y-59580405D01*
X156712565Y-59464412D01*
X156750665Y-59370432D01*
X156814165Y-59298465D01*
X156899043Y-59247665D01*
X157001278Y-59217185D01*
X157120870Y-59207025D01*
X157238768Y-59217185D01*
X157335923Y-59247665D01*
X157412335Y-59298465D01*
X157486630Y-59406574D01*
X157511395Y-59548020D01*
X158473420Y-59509920D01*
X158444845Y-59418480D01*
X158472944Y-59354662D01*
X158557240Y-59296560D01*
X158653443Y-59264175D01*
X158703925Y-59271795D01*
X158736310Y-59298465D01*
X158767743Y-59348947D01*
X158793222Y-59402287D01*
X158841085Y-59507062D01*
X158902283Y-59641603D01*
X158967768Y-59784240D01*
X159033490Y-59926877D01*
X159095403Y-60061417D01*
X159142313Y-60163097D01*
X159163030Y-60207150D01*
X159544030Y-59372760D01*
X159570700Y-59315610D01*
X159654520Y-59264175D01*
X159766915Y-59296560D01*
X159851211Y-59354662D01*
X159879310Y-59418480D01*
X159850735Y-59509920D01*
X160115530Y-59793765D01*
X160227290Y-59711215D01*
X160349210Y-59661685D01*
X160481290Y-59645175D01*
X160613158Y-59661579D01*
X160734443Y-59710792D01*
X160845145Y-59792812D01*
X160932987Y-59900233D01*
X160985692Y-60025646D01*
X161003260Y-60169050D01*
X160982781Y-60318354D01*
X160921345Y-60450038D01*
X160830619Y-60556718D01*
X160722273Y-60631013D01*
X160602972Y-60674589D01*
X160479385Y-60689115D01*
X160355560Y-60673637D01*
X160235545Y-60627203D01*
X160126722Y-60550526D01*
X160036473Y-60444323D01*
X159975751Y-60315497D01*
X159955510Y-60170955D01*
X159973290Y-60027445D01*
X160026630Y-59901715D01*
X160115530Y-59793765D01*
X159850735Y-59509920D01*
X159324955Y-60576720D01*
X159261138Y-60644348D01*
X159172555Y-60670065D01*
X159153505Y-60670065D01*
X159063018Y-60644348D01*
X158999200Y-60576720D01*
X158473420Y-59509920D01*
X157511395Y-59548020D01*
X157484249Y-59674702D01*
X157402810Y-59788050D01*
X157306608Y-59872346D01*
X157178020Y-59965215D01*
X157255067Y-60059195D01*
X157336347Y-60143015D01*
X157421860Y-60216675D01*
X157467104Y-60133808D01*
X157496155Y-60049035D01*
X157548543Y-59986170D01*
X157667605Y-59965215D01*
X157765713Y-59982360D01*
X157803813Y-60017602D01*
X157806670Y-60064275D01*
X157790160Y-60160583D01*
X157750790Y-60256468D01*
X157688560Y-60351930D01*
X157741900Y-60357645D01*
X157853343Y-60395269D01*
X157890490Y-60508140D01*
X157856200Y-60643395D01*
X157739995Y-60673875D01*
X157629928Y-60664350D01*
X157520708Y-60635775D01*
X157412335Y-60588150D01*
X157291262Y-60643183D01*
X157169342Y-60676203D01*
X157046575Y-60687210D01*
X156896980Y-60675886D01*
X156774583Y-60641913D01*
X155934055Y-60602914D01*
X155894050Y-60652920D01*
X155843568Y-60669113D01*
X155779750Y-60671970D01*
X155658253Y-60662022D01*
X155557923Y-60632177D01*
X155478760Y-60582435D01*
X155421610Y-60508987D01*
X155387320Y-60408022D01*
X155375890Y-60279540D01*
X155375890Y-59997600D01*
X155297785Y-60003315D01*
X155228253Y-59970930D01*
X155039552Y-59918013D01*
X155081779Y-60036441D01*
X155095855Y-60169050D01*
X155095855Y-60504330D01*
X155092998Y-60570053D01*
X155076805Y-60618630D01*
X155026323Y-60657206D01*
X154928215Y-60670065D01*
X154821535Y-60652444D01*
X154772005Y-60599580D01*
X154760575Y-60502425D01*
X154760575Y-60167145D01*
X154715808Y-60045225D01*
X154595793Y-60001410D01*
X154473873Y-60047130D01*
X154427200Y-60167145D01*
X154427200Y-60504330D01*
X154424343Y-60570053D01*
X154406245Y-60618630D01*
X154357191Y-60657206D01*
X154259560Y-60670065D01*
X154162881Y-60657206D01*
X154112875Y-60618630D01*
X154096683Y-60568148D01*
X154093825Y-60502425D01*
X154093825Y-59828055D01*
X154096683Y-59764237D01*
X154114780Y-59715660D01*
X154164786Y-59679941D01*
X154261465Y-59668035D01*
X154355286Y-59678989D01*
X154404340Y-59711850D01*
X154423390Y-59789955D01*
X154457680Y-59751855D01*
X154509115Y-59711850D01*
X154651990Y-59668035D01*
X149933305Y-59407050D01*
X149982835Y-59497537D01*
X149942830Y-59603265D01*
X149872345Y-59680417D01*
X149809480Y-59706135D01*
X149712325Y-59664225D01*
X149618980Y-59615647D01*
X149498965Y-59599455D01*
X149376093Y-59620886D01*
X150120736Y-60299754D01*
X150106660Y-60167145D01*
X150106660Y-59833770D01*
X150109518Y-59767095D01*
X150125710Y-59717565D01*
X150176193Y-59678989D01*
X150274300Y-59666130D01*
X150380028Y-59684227D01*
X150430510Y-59738520D01*
X150441940Y-59835675D01*
X150441940Y-60169050D01*
X150486708Y-60290970D01*
X150606723Y-60334785D01*
X150728643Y-60289065D01*
X150775315Y-60169050D01*
X150775315Y-59831865D01*
X150778173Y-59766142D01*
X150796270Y-59715660D01*
X150845324Y-59678512D01*
X150942955Y-59666130D01*
X151039634Y-59678989D01*
X151089640Y-59717565D01*
X151105833Y-59768047D01*
X151108690Y-59833770D01*
X151261090Y-60502425D01*
X151261090Y-59833770D01*
X151263948Y-59768047D01*
X151280140Y-59719470D01*
X151330623Y-59680894D01*
X151428730Y-59668035D01*
X151521599Y-59678989D01*
X151571605Y-59711850D01*
X151592560Y-59774715D01*
X151620183Y-59742330D01*
X151697335Y-59690895D01*
X151801158Y-59658510D01*
X151876405Y-59663272D01*
X151943080Y-59679465D01*
X152003088Y-59718517D01*
X152026900Y-59807100D01*
X152131675Y-60502425D01*
X152131675Y-59833770D01*
X152134533Y-59768047D01*
X152150725Y-59719470D01*
X152201208Y-59680894D01*
X152299315Y-59668035D01*
X152392184Y-59678989D01*
X152442190Y-59711850D01*
X152463145Y-59774715D01*
X152490768Y-59742330D01*
X152567920Y-59690895D01*
X152671743Y-59658510D01*
X152746990Y-59663272D01*
X152813665Y-59679465D01*
X152873673Y-59718517D01*
X152897485Y-59807100D01*
X152861290Y-59940450D01*
X152756515Y-60012840D01*
X152690793Y-59997600D01*
X152607925Y-59982360D01*
X152511723Y-60018555D01*
X152466955Y-60106185D01*
X152973685Y-60174765D01*
X152990936Y-60025434D01*
X153042688Y-59897482D01*
X153128943Y-59790907D01*
X153241020Y-59711003D01*
X153370243Y-59663061D01*
X153516610Y-59647080D01*
X153640197Y-59658748D01*
X153746163Y-59693752D01*
X153834507Y-59752093D01*
X153905230Y-59833770D01*
X153953808Y-59937354D01*
X153970000Y-60049987D01*
X153955474Y-60151905D01*
X153911898Y-60223343D01*
X153783310Y-60279540D01*
X153331825Y-60279540D01*
X153394690Y-60369075D01*
X153520420Y-60405270D01*
X153619004Y-60399555D01*
X153693775Y-60382410D01*
X153714730Y-60374790D01*
X153790930Y-60353835D01*
X153895705Y-60439560D01*
X153920470Y-60527190D01*
X153895110Y-60601366D01*
X153819029Y-60654349D01*
X153692227Y-60686138D01*
X153514705Y-60696735D01*
X153381593Y-60684591D01*
X153264198Y-60648158D01*
X153166804Y-60591722D01*
X153093700Y-60519570D01*
X153027025Y-60412678D01*
X152987020Y-60297743D01*
X152973685Y-60174765D01*
X152466955Y-60106185D01*
X152466955Y-60506235D01*
X152464098Y-60571958D01*
X152446000Y-60622440D01*
X152394565Y-60659588D01*
X152297410Y-60671970D01*
X152165965Y-60639585D01*
X152131675Y-60557670D01*
X152131675Y-60502425D01*
X152026900Y-59807100D01*
X151990705Y-59940450D01*
X151885930Y-60012840D01*
X151820208Y-59997600D01*
X151737340Y-59982360D01*
X151641138Y-60018555D01*
X151596370Y-60106185D01*
X151596370Y-60506235D01*
X151593513Y-60571958D01*
X151575415Y-60622440D01*
X151523980Y-60659588D01*
X151426825Y-60671970D01*
X151295380Y-60639585D01*
X151261090Y-60557670D01*
X151261090Y-60502425D01*
X151108690Y-59833770D01*
X151108690Y-60508140D01*
X151105833Y-60571958D01*
X151087735Y-60620535D01*
X151036776Y-60657683D01*
X150941050Y-60670065D01*
X150847229Y-60658635D01*
X150798175Y-60624345D01*
X150779125Y-60546240D01*
X150744835Y-60584340D01*
X150693400Y-60626250D01*
X150552430Y-60668160D01*
X150431463Y-60651968D01*
X150325100Y-60603390D01*
X150233343Y-60522428D01*
X150162963Y-60418182D01*
X150120736Y-60299754D01*
X149376093Y-59620886D01*
X149255125Y-59685180D01*
X149159875Y-59803290D01*
X149131300Y-59884491D01*
X149121775Y-59975692D01*
X149131300Y-60066894D01*
X149159875Y-60148095D01*
X149257030Y-60268110D01*
X149375616Y-60330975D01*
X149498965Y-60351930D01*
X149610408Y-60336690D01*
X149685655Y-60306210D01*
X149719945Y-60281445D01*
X149811385Y-60243345D01*
X149872821Y-60270015D01*
X149939020Y-60350025D01*
X149980930Y-60456705D01*
X149955213Y-60523380D01*
X149895205Y-60571005D01*
X149829483Y-60611010D01*
X149700895Y-60660540D01*
X149605407Y-60683400D01*
X149513253Y-60691020D01*
X149422289Y-60685067D01*
X149330373Y-60667208D01*
X149236551Y-60635299D01*
X149139873Y-60587198D01*
X149046766Y-60524809D01*
X148963660Y-60450038D01*
X148892461Y-60357645D01*
X148835073Y-60242393D01*
X148797211Y-60110233D01*
X148784590Y-59967120D01*
X148796973Y-59825436D01*
X148834120Y-59697562D01*
X148890556Y-59587072D01*
X148960803Y-59497537D01*
X149043432Y-59424909D01*
X149137015Y-59365140D01*
X148784590Y-58682965D01*
X148271960Y-58682965D01*
X148128165Y-58690029D01*
X147985756Y-58711154D01*
X147846103Y-58746136D01*
X147710551Y-58794637D01*
X147580405Y-58856191D01*
X147456920Y-58930206D01*
X147341284Y-59015968D01*
X147234611Y-59112651D01*
X147137928Y-59219324D01*
X147052167Y-59334960D01*
X146978153Y-59458445D01*
X146916599Y-59588591D01*
X146868098Y-59724143D01*
X146833116Y-59863796D01*
X146811992Y-60006206D01*
X146804928Y-60150000D01*
X146811992Y-60293794D01*
X146833116Y-60436204D01*
X146868098Y-60575857D01*
X146916599Y-60711409D01*
X146978153Y-60841555D01*
X147052167Y-60965040D01*
X147137928Y-61080676D01*
X147234611Y-61187349D01*
X147341284Y-61284032D01*
X147456920Y-61369794D01*
X147580405Y-61443809D01*
X147710551Y-61505363D01*
X147846103Y-61553864D01*
X147985756Y-61588846D01*
X148128165Y-61609971D01*
X148271960Y-61617035D01*
X148784590Y-61617035D01*
X173633410Y-61617035D01*
X170716855Y-60506235D01*
X170713998Y-60571958D01*
X170695900Y-60622440D01*
X170646846Y-60659588D01*
X170549215Y-60671970D01*
X170452536Y-60659111D01*
X170402530Y-60620535D01*
X170386338Y-60571005D01*
X170383480Y-60504330D01*
X170383480Y-59835675D01*
X170386338Y-59769952D01*
X170402530Y-59719470D01*
X170453013Y-59682322D01*
X170551120Y-59669940D01*
X170680660Y-59702325D01*
X170714950Y-59784240D01*
X170716855Y-59839485D01*
X170849253Y-59970930D01*
X170821630Y-59860440D01*
X170831155Y-59747092D01*
X170857825Y-59696610D01*
X170934025Y-59671845D01*
X170996890Y-59679465D01*
X170996890Y-59483250D01*
X170999748Y-59418480D01*
X171017845Y-59372760D01*
X171066899Y-59337041D01*
X171164530Y-59325135D01*
X171267876Y-59342756D01*
X171318835Y-59395620D01*
X171328360Y-59492775D01*
X171328360Y-59679465D01*
X171455043Y-59671845D01*
X171519813Y-59674702D01*
X171570295Y-59692800D01*
X171607443Y-59741854D01*
X171619825Y-59839485D01*
X171606966Y-59936164D01*
X171713805Y-60027445D01*
X171767145Y-59901715D01*
X171856045Y-59793765D01*
X171967805Y-59711215D01*
X172089725Y-59661685D01*
X172221805Y-59645175D01*
X172353673Y-59661579D01*
X172474958Y-59710792D01*
X172585660Y-59792812D01*
X172673502Y-59900233D01*
X172726207Y-60025646D01*
X172743775Y-60169050D01*
X172723296Y-60318354D01*
X172661860Y-60450038D01*
X172571134Y-60556718D01*
X172462788Y-60631013D01*
X172343487Y-60674589D01*
X172219900Y-60689115D01*
X172096075Y-60673637D01*
X171976060Y-60627203D01*
X171867237Y-60550526D01*
X171776988Y-60444323D01*
X171716266Y-60315497D01*
X171696025Y-60170955D01*
X171713805Y-60027445D01*
X171606966Y-59936164D01*
X171568390Y-59986170D01*
X171517908Y-60002362D01*
X171452185Y-60005220D01*
X171328360Y-59997600D01*
X171328360Y-60260490D01*
X171344553Y-60334785D01*
X171405513Y-60357645D01*
X171474093Y-60360503D01*
X171524575Y-60378600D01*
X171568390Y-60506235D01*
X171555055Y-60602914D01*
X171515050Y-60652920D01*
X171464568Y-60669113D01*
X171400750Y-60671970D01*
X171279253Y-60662022D01*
X171178923Y-60632177D01*
X171099760Y-60582435D01*
X171042610Y-60508987D01*
X171008320Y-60408022D01*
X170996890Y-60279540D01*
X170996890Y-59997600D01*
X170918785Y-60003315D01*
X170849253Y-59970930D01*
X170716855Y-59839485D01*
X170716855Y-60506235D01*
X173633410Y-61617035D01*
X174146040Y-61617035D01*
X173492440Y-60012840D01*
X173426718Y-59997600D01*
X173343850Y-59982360D01*
X173247648Y-60018555D01*
X173202880Y-60106185D01*
X173202880Y-60506235D01*
X173200023Y-60571958D01*
X173181925Y-60622440D01*
X173130490Y-60659588D01*
X173033335Y-60671970D01*
X172901890Y-60639585D01*
X172867600Y-60557670D01*
X172867600Y-60502425D01*
X172867600Y-59833770D01*
X172870458Y-59768047D01*
X172886650Y-59719470D01*
X172937133Y-59680894D01*
X173035240Y-59668035D01*
X173128109Y-59678989D01*
X173178115Y-59711850D01*
X173199070Y-59774715D01*
X173226693Y-59742330D01*
X173303845Y-59690895D01*
X173407668Y-59658510D01*
X173482915Y-59663272D01*
X173549590Y-59679465D01*
X173609598Y-59718517D01*
X173633410Y-59807100D01*
X173597215Y-59940450D01*
X173492440Y-60012840D01*
X174146040Y-61617035D01*
X174289835Y-61609971D01*
X174432244Y-61588846D01*
X174571897Y-61553864D01*
X174707449Y-61505363D01*
X174837595Y-61443809D01*
X174961080Y-61369794D01*
X175076716Y-61284032D01*
X175183389Y-61187349D01*
X175280072Y-61080676D01*
X175365833Y-60965040D01*
X175439847Y-60841555D01*
X175501401Y-60711409D01*
X175549902Y-60575857D01*
X175584884Y-60436204D01*
X175606008Y-60293794D01*
X175613072Y-60150000D01*
X175606008Y-60006206D01*
X175584884Y-59863796D01*
X170695900Y-59250840D01*
X170713998Y-59301322D01*
X170716855Y-59367045D01*
X170713998Y-59432767D01*
X170696853Y-59482297D01*
X170646370Y-59521350D01*
X170550168Y-59532780D01*
X170453965Y-59521350D01*
X170403483Y-59481345D01*
X170386338Y-59430862D01*
X170383480Y-59365140D01*
X170386338Y-59299417D01*
X170402530Y-59250840D01*
X170453013Y-59212264D01*
X170551120Y-59199405D01*
X170647323Y-59212264D01*
X170695900Y-59250840D01*
X175584884Y-59863796D01*
X175549902Y-59724143D01*
X175501401Y-59588591D01*
X175439847Y-59458445D01*
X175365833Y-59334960D01*
X175280072Y-59219324D01*
X175183389Y-59112651D01*
X161457603Y-59298465D01*
X161460460Y-59365140D01*
X161877655Y-59679465D01*
X161877655Y-59483250D01*
X161880513Y-59418480D01*
X161898610Y-59372760D01*
X161947664Y-59337041D01*
X162045295Y-59325135D01*
X162148641Y-59342756D01*
X162199600Y-59395620D01*
X162209125Y-59492775D01*
X162209125Y-59679465D01*
X162335808Y-59671845D01*
X162400578Y-59674702D01*
X162451060Y-59692800D01*
X162488208Y-59741854D01*
X162500590Y-59839485D01*
X162487731Y-59936164D01*
X162639867Y-59924681D01*
X162718713Y-59819482D01*
X162816397Y-59736403D01*
X162920219Y-59686556D01*
X163030180Y-59669940D01*
X163148290Y-59692800D01*
X163222585Y-59735662D01*
X163256875Y-59774715D01*
X163300214Y-59694705D01*
X163407370Y-59668035D01*
X163517860Y-59679465D01*
X163568343Y-59719470D01*
X163585488Y-59769952D01*
X163588345Y-59835675D01*
X163588345Y-60502425D01*
X163944580Y-60576720D01*
X163850283Y-60495758D01*
X163773553Y-60393205D01*
X163727516Y-60279857D01*
X163712170Y-60155715D01*
X163727622Y-60031467D01*
X163773977Y-59917802D01*
X163851235Y-59814720D01*
X163946908Y-59733228D01*
X164048508Y-59684333D01*
X164156035Y-59668035D01*
X164274145Y-59691847D01*
X164347488Y-59735662D01*
X164378920Y-59772810D01*
X164417973Y-59691847D01*
X164525605Y-59664225D01*
X164634190Y-59675655D01*
X164682768Y-59714707D01*
X164699913Y-59763285D01*
X164702770Y-59828055D01*
X164843846Y-60025434D01*
X164895598Y-59897482D01*
X164981853Y-59790907D01*
X165093930Y-59711003D01*
X165223153Y-59663061D01*
X165369520Y-59647080D01*
X165493107Y-59658748D01*
X165599073Y-59693752D01*
X165687417Y-59752093D01*
X165758140Y-59833770D01*
X165806718Y-59937354D01*
X165822910Y-60049987D01*
X165808384Y-60151905D01*
X165764808Y-60223343D01*
X166428700Y-60500520D01*
X166428700Y-59443245D01*
X166431558Y-59377522D01*
X166449655Y-59327040D01*
X166501090Y-59289892D01*
X166598245Y-59277510D01*
X166686828Y-59289892D01*
X166735405Y-59315610D01*
X166746835Y-59327040D01*
X167179270Y-59894730D01*
X167300199Y-59734939D01*
X167403908Y-59598464D01*
X167490395Y-59485307D01*
X167559660Y-59395468D01*
X167611705Y-59328945D01*
X167666236Y-59290369D01*
X167765058Y-59277510D01*
X167862451Y-59290369D01*
X167912695Y-59328945D01*
X169787215Y-59668035D01*
X169907124Y-59684227D01*
X170012852Y-59732805D01*
X170104398Y-59813767D01*
X170174777Y-59918013D01*
X170217004Y-60036441D01*
X170231080Y-60169050D01*
X170231080Y-60504330D01*
X170228223Y-60570053D01*
X170212030Y-60618630D01*
X170161548Y-60657206D01*
X170063440Y-60670065D01*
X169956760Y-60652444D01*
X169907230Y-60599580D01*
X169895800Y-60502425D01*
X169895800Y-60167145D01*
X169851033Y-60045225D01*
X169731018Y-60001410D01*
X169609098Y-60047130D01*
X169562425Y-60167145D01*
X169562425Y-60504330D01*
X169559568Y-60570053D01*
X169541470Y-60618630D01*
X169492416Y-60657206D01*
X169394785Y-60670065D01*
X169298106Y-60657206D01*
X169248100Y-60618630D01*
X169231908Y-60568148D01*
X169229050Y-60502425D01*
X169229050Y-59828055D01*
X169231908Y-59764237D01*
X169250005Y-59715660D01*
X169300011Y-59679941D01*
X169396690Y-59668035D01*
X169490511Y-59678989D01*
X169539565Y-59711850D01*
X169558615Y-59789955D01*
X169592905Y-59751855D01*
X169644340Y-59711850D01*
X169787215Y-59668035D01*
X167912695Y-59328945D01*
X167930793Y-59380380D01*
X167933650Y-59447055D01*
X168329255Y-59711215D01*
X168451175Y-59661685D01*
X168583255Y-59645175D01*
X168715123Y-59661579D01*
X168836408Y-59710792D01*
X168947110Y-59792812D01*
X169034952Y-59900233D01*
X169087657Y-60025646D01*
X169105225Y-60169050D01*
X169084746Y-60318354D01*
X169023310Y-60450038D01*
X168932584Y-60556718D01*
X168824238Y-60631013D01*
X168704937Y-60674589D01*
X168581350Y-60689115D01*
X168457525Y-60673637D01*
X168337510Y-60627203D01*
X168228687Y-60550526D01*
X168138438Y-60444323D01*
X168077716Y-60315497D01*
X168057475Y-60170955D01*
X168075255Y-60027445D01*
X168128595Y-59901715D01*
X168217495Y-59793765D01*
X168329255Y-59711215D01*
X167933650Y-59447055D01*
X167933650Y-60504330D01*
X167915553Y-60608629D01*
X167861260Y-60658635D01*
X167769820Y-60670065D01*
X167682190Y-60660540D01*
X167632660Y-60637680D01*
X167605990Y-60599580D01*
X167596465Y-60500520D01*
X167596465Y-59862345D01*
X167537886Y-59938783D01*
X167457400Y-60049987D01*
X167382629Y-60154524D01*
X167341195Y-60210960D01*
X167306905Y-60255728D01*
X167260233Y-60290018D01*
X167180223Y-60311925D01*
X167102118Y-60291923D01*
X167051635Y-60252870D01*
X167036395Y-60231915D01*
X166979721Y-60157382D01*
X166885900Y-60029032D01*
X166799223Y-59909732D01*
X166763980Y-59862345D01*
X166763980Y-60504330D01*
X166761123Y-60570053D01*
X166743025Y-60618630D01*
X166691590Y-60657206D01*
X166594435Y-60670065D01*
X166500138Y-60657206D01*
X166449655Y-60618630D01*
X166431558Y-60569100D01*
X166428700Y-60500520D01*
X165764808Y-60223343D01*
X165636220Y-60279540D01*
X165184735Y-60279540D01*
X165247600Y-60369075D01*
X165373330Y-60405270D01*
X165471914Y-60399555D01*
X165546685Y-60382410D01*
X165567640Y-60374790D01*
X165643840Y-60353835D01*
X165748615Y-60439560D01*
X165773380Y-60527190D01*
X165748020Y-60601366D01*
X165671939Y-60654349D01*
X165545137Y-60686138D01*
X165367615Y-60696735D01*
X165234503Y-60684591D01*
X165117108Y-60648158D01*
X165019714Y-60591722D01*
X164946610Y-60519570D01*
X164879935Y-60412678D01*
X164839930Y-60297743D01*
X164826595Y-60174765D01*
X164843846Y-60025434D01*
X164702770Y-59828055D01*
X164702770Y-60616725D01*
X164685837Y-60753356D01*
X164635037Y-60871148D01*
X164550370Y-60970103D01*
X164444537Y-61044715D01*
X164330237Y-61089483D01*
X164207470Y-61104405D01*
X164066024Y-61086784D01*
X163931245Y-61033920D01*
X163832661Y-60966769D01*
X163799800Y-60906285D01*
X163856950Y-60774840D01*
X163913148Y-60719595D01*
X163959820Y-60704355D01*
X164015065Y-60727215D01*
X164110315Y-60780079D01*
X164213185Y-60797700D01*
X164331295Y-60740550D01*
X164377015Y-60603390D01*
X164377015Y-60546240D01*
X164283194Y-60617678D01*
X164146510Y-60641490D01*
X164043323Y-60625298D01*
X163944580Y-60576720D01*
X163588345Y-60502425D01*
X163585488Y-60568148D01*
X163569295Y-60618630D01*
X163523337Y-60655778D01*
X163438803Y-60668160D01*
X163299738Y-60642443D01*
X163258780Y-60567195D01*
X163164721Y-60642919D01*
X163023513Y-60668160D01*
X162916303Y-60651438D01*
X162814386Y-60601273D01*
X162717760Y-60517665D01*
X162639443Y-60411938D01*
X162592453Y-60295415D01*
X162576790Y-60168098D01*
X162592559Y-60040886D01*
X162639867Y-59924681D01*
X162487731Y-59936164D01*
X162449155Y-59986170D01*
X162398673Y-60002362D01*
X162332950Y-60005220D01*
X162209125Y-59997600D01*
X162209125Y-60260490D01*
X162225318Y-60334785D01*
X162286278Y-60357645D01*
X162354858Y-60360503D01*
X162405340Y-60378600D01*
X162449155Y-60506235D01*
X162435820Y-60602914D01*
X162395815Y-60652920D01*
X162345333Y-60669113D01*
X162281515Y-60671970D01*
X162160018Y-60662022D01*
X162059688Y-60632177D01*
X161980525Y-60582435D01*
X161923375Y-60508987D01*
X161889085Y-60408022D01*
X161877655Y-60279540D01*
X161877655Y-59997600D01*
X161799550Y-60003315D01*
X161730018Y-59970930D01*
X161702395Y-59860440D01*
X161711920Y-59747092D01*
X161738590Y-59696610D01*
X161814790Y-59671845D01*
X161877655Y-59679465D01*
X161460460Y-59365140D01*
X161460460Y-60247155D01*
X161471890Y-60333833D01*
X161522373Y-60351930D01*
X161574760Y-60354788D01*
X161607145Y-60370980D01*
X161645245Y-60506235D01*
X161635720Y-60602914D01*
X161607145Y-60652920D01*
X161523325Y-60672922D01*
X161370925Y-60664350D01*
X161249958Y-60630536D01*
X161180425Y-60567195D01*
X161140420Y-60446228D01*
X161127085Y-60270015D01*
X161127085Y-59363235D01*
X161129943Y-59297512D01*
X161146135Y-59247030D01*
X161196618Y-59208454D01*
X161294725Y-59195595D01*
X161389023Y-59208454D01*
X161439505Y-59247030D01*
X161457603Y-59298465D01*
X175183389Y-59112651D01*
X175076716Y-59015968D01*
X174961080Y-58930206D01*
X174837595Y-58856191D01*
X174707449Y-58794637D01*
X174571897Y-58746136D01*
X174432244Y-58711154D01*
X174289835Y-58690029D01*
X174146040Y-58682965D01*
X173633410Y-58682965D01*
X148784590Y-58682965D01*
G37*
G36*
X168455620Y-60307163D02*
G01*
X168579445Y-60353835D01*
X168705175Y-60306210D01*
X168752324Y-60247155D01*
X168768040Y-60165240D01*
X168753276Y-60083801D01*
X168708985Y-60026175D01*
X168581350Y-59980455D01*
X168453715Y-60028080D01*
X168409424Y-60086897D01*
X168394660Y-60168098D01*
X168409900Y-60249060D01*
X168455620Y-60307163D01*
G37*
G36*
X160353655Y-60307163D02*
G01*
X160477480Y-60353835D01*
X160603210Y-60306210D01*
X160650359Y-60247155D01*
X160666075Y-60165240D01*
X160651311Y-60083801D01*
X160607020Y-60026175D01*
X160479385Y-59980455D01*
X160351750Y-60028080D01*
X160307459Y-60086897D01*
X160292695Y-60168098D01*
X160307935Y-60249060D01*
X160353655Y-60307163D01*
G37*
G36*
X172094170Y-60307163D02*
G01*
X172217995Y-60353835D01*
X172343725Y-60306210D01*
X172390874Y-60247155D01*
X172406590Y-60165240D01*
X172391826Y-60083801D01*
X172347535Y-60026175D01*
X172219900Y-59980455D01*
X172092265Y-60028080D01*
X172047974Y-60086897D01*
X172033210Y-60168098D01*
X172048450Y-60249060D01*
X172094170Y-60307163D01*
G37*
G36*
X162910165Y-60170955D02*
G01*
X162959695Y-60284303D01*
X163079710Y-60334785D01*
X163196868Y-60283350D01*
X163243540Y-60170003D01*
X163198773Y-60054750D01*
X163078758Y-60001410D01*
X162956838Y-60054750D01*
X162910165Y-60170955D01*
G37*
G36*
X164037925Y-60156668D02*
G01*
X164086503Y-60268110D01*
X164204613Y-60317640D01*
X164319865Y-60267158D01*
X164365585Y-60156668D01*
X164321770Y-60044272D01*
X164203660Y-59991885D01*
X164083645Y-60043320D01*
X164037925Y-60156668D01*
G37*
G36*
X157059910Y-60405270D02*
G01*
X157145635Y-60397650D01*
X157073245Y-60327377D01*
X157003395Y-60248637D01*
X156936085Y-60161430D01*
X156892270Y-60275730D01*
X156934180Y-60372885D01*
X157059910Y-60405270D01*
G37*
G36*
X165420955Y-60106185D02*
G01*
X165493345Y-60045225D01*
X165460008Y-59974740D01*
X165364758Y-59948070D01*
X165241885Y-59998552D01*
X165180925Y-60106185D01*
X165420955Y-60106185D01*
G37*
G36*
X153568045Y-60106185D02*
G01*
X153640435Y-60045225D01*
X153607098Y-59974740D01*
X153511848Y-59948070D01*
X153388975Y-59998552D01*
X153328015Y-60106185D01*
X153568045Y-60106185D01*
G37*
G36*
X157000855Y-59557545D02*
G01*
X157008951Y-59630411D01*
X157033240Y-59711850D01*
X157111583Y-59659462D01*
X157167543Y-59616600D01*
X157212310Y-59544210D01*
X157188974Y-59481345D01*
X157118965Y-59460390D01*
X157030383Y-59484679D01*
X157000855Y-59557545D01*
G37*
G36*
X203403162Y-104390582D02*
G01*
X204557275Y-104987350D01*
X204641412Y-104922262D01*
X204801750Y-104903212D01*
X204962087Y-104922262D01*
X205046225Y-104988937D01*
X205365312Y-104988937D01*
X205449450Y-104924644D01*
X205612962Y-104903212D01*
X205773300Y-104924644D01*
X205854262Y-104988937D01*
X205884425Y-105073075D01*
X205889187Y-105182612D01*
X207698937Y-105703312D01*
X207839431Y-105794594D01*
X207886262Y-105903337D01*
X207860862Y-106011287D01*
X208060887Y-107068563D01*
X208060887Y-105306437D01*
X208065650Y-105195312D01*
X208095812Y-105112762D01*
X208179950Y-105048469D01*
X208343462Y-105027037D01*
X209143563Y-105027037D01*
X209327713Y-105049615D01*
X210146863Y-105115937D01*
X210232588Y-105054025D01*
X210394513Y-105033387D01*
X210542150Y-105054025D01*
X210623113Y-105096887D01*
X210642163Y-105115937D01*
X211362888Y-106062087D01*
X211564437Y-105795768D01*
X211737284Y-105568311D01*
X211881429Y-105379716D01*
X211996872Y-105229983D01*
X212083613Y-105119112D01*
X212174497Y-105054819D01*
X212339200Y-105033387D01*
X212501522Y-105054819D01*
X212585263Y-105119112D01*
X212615425Y-105204837D01*
X212620188Y-105315962D01*
X212860694Y-106753841D01*
X212963088Y-106633588D01*
X213131363Y-106557388D01*
X213237725Y-106597075D01*
X213379013Y-106716138D01*
X213506013Y-106819325D01*
X213658413Y-106868538D01*
X213822454Y-106841726D01*
X213920879Y-106761293D01*
X213953688Y-106627238D01*
X213872725Y-106505000D01*
X213671113Y-106433562D01*
X213545700Y-106404591D01*
X213410763Y-106362125D01*
X213275825Y-106308547D01*
X213150413Y-106246237D01*
X213039684Y-106160116D01*
X212948800Y-106035100D01*
X212888078Y-105875953D01*
X212867838Y-105687437D01*
X212890944Y-105509108D01*
X212960265Y-105346654D01*
X213075800Y-105200075D01*
X213231199Y-105084540D01*
X213420111Y-105015219D01*
X213642538Y-104992112D01*
X213824703Y-105004416D01*
X213990200Y-105041325D01*
X214207688Y-105141337D01*
X214287063Y-105201662D01*
X214385488Y-105357237D01*
X214309288Y-105531862D01*
X214199750Y-105650925D01*
X214087038Y-105690612D01*
X213921938Y-105627112D01*
X213885425Y-105595362D01*
X213836213Y-105554087D01*
X213666350Y-105512812D01*
X213494900Y-105562025D01*
X213426638Y-105698550D01*
X213507600Y-105839837D01*
X213709213Y-105912862D01*
X213835419Y-105937072D01*
X213972738Y-105971600D01*
X214110056Y-106015653D01*
X214236263Y-106068437D01*
X214346991Y-106146622D01*
X214437875Y-106266875D01*
X214498597Y-106424434D01*
X214518838Y-106614538D01*
X214498200Y-106808609D01*
X214436288Y-106978075D01*
X214341038Y-107117378D01*
X214220388Y-107220963D01*
X214045057Y-107314449D01*
X213861965Y-107370540D01*
X213671113Y-107389238D01*
X213525856Y-107380109D01*
X213388538Y-107352725D01*
X213172638Y-107262238D01*
X213029763Y-107162225D01*
X212937688Y-107065388D01*
X212909113Y-107030463D01*
X212826563Y-106847900D01*
X212860694Y-106753841D01*
X212620188Y-105315962D01*
X212620188Y-107078088D01*
X212590025Y-107251919D01*
X212499538Y-107335263D01*
X212347138Y-107354313D01*
X212201088Y-107338438D01*
X212118538Y-107300338D01*
X212074088Y-107236838D01*
X212058213Y-107071738D01*
X212058213Y-106008112D01*
X211960581Y-106135509D01*
X211826438Y-106320850D01*
X211701819Y-106495078D01*
X211632763Y-106589138D01*
X211575613Y-106663750D01*
X211497825Y-106720900D01*
X211364475Y-106757412D01*
X211234300Y-106724075D01*
X211150163Y-106658988D01*
X211124763Y-106624063D01*
X211030306Y-106499841D01*
X210873938Y-106285925D01*
X210729475Y-106087091D01*
X210670738Y-106008112D01*
X210670738Y-107078088D01*
X210665975Y-107187625D01*
X210635813Y-107268588D01*
X210550088Y-107332881D01*
X210388163Y-107354313D01*
X210231000Y-107332881D01*
X210146863Y-107268588D01*
X210116700Y-107186038D01*
X210111938Y-107071738D01*
X210111938Y-105309612D01*
X210116700Y-105200075D01*
X210146863Y-105115937D01*
X209327713Y-105049615D01*
X209490696Y-105117349D01*
X209632513Y-105230237D01*
X209747165Y-105376993D01*
X209815957Y-105542093D01*
X209838888Y-105725537D01*
X209808725Y-105926356D01*
X209718238Y-106109712D01*
X209822307Y-106263876D01*
X209884749Y-106430035D01*
X209905563Y-106608188D01*
X209878575Y-106808389D01*
X209806079Y-106985660D01*
X209688075Y-107140000D01*
X209537263Y-107259063D01*
X209366342Y-107330500D01*
X209175313Y-107354313D01*
X208340287Y-107354313D01*
X208164075Y-107324150D01*
X208079937Y-107233663D01*
X208060887Y-107068563D01*
X207860862Y-106011287D01*
X207835462Y-106065262D01*
X207003612Y-107925813D01*
X206960750Y-108017888D01*
X206905187Y-108078213D01*
X206809937Y-108106788D01*
X206641662Y-108059163D01*
X206501169Y-107968675D01*
X206454337Y-107862313D01*
X206473387Y-107788295D01*
X206530537Y-107642444D01*
X206625787Y-107424758D01*
X206759137Y-107135238D01*
X206127312Y-106071612D01*
X206063812Y-105916037D01*
X206106675Y-105814437D01*
X206235262Y-105712837D01*
X206403537Y-105649337D01*
X206501962Y-105674737D01*
X206557525Y-105727125D01*
X206609912Y-105814437D01*
X206732150Y-106022400D01*
X206835337Y-106197201D01*
X206935350Y-106363889D01*
X207032187Y-106522463D01*
X207082987Y-106399034D01*
X207203637Y-106130350D01*
X207323097Y-105868809D01*
X207370325Y-105766812D01*
X207406837Y-105712837D01*
X207522725Y-105658862D01*
X207698937Y-105703312D01*
X205889187Y-105182612D01*
X205884425Y-105292150D01*
X205855850Y-105374700D01*
X205771712Y-105439787D01*
X205611375Y-105458837D01*
X205451037Y-105439787D01*
X205366900Y-105373112D01*
X205338325Y-105288975D01*
X205333562Y-105179437D01*
X205338325Y-105069900D01*
X205365312Y-104988937D01*
X205046225Y-104988937D01*
X205074800Y-105073075D01*
X205079562Y-105182612D01*
X205333562Y-105963662D01*
X205338325Y-105854125D01*
X205365312Y-105769987D01*
X205449450Y-105708075D01*
X205612962Y-105687437D01*
X205828862Y-105741412D01*
X205886012Y-105877937D01*
X205889187Y-105970012D01*
X205889187Y-107081263D01*
X205884425Y-107190800D01*
X205854262Y-107274938D01*
X205772506Y-107336850D01*
X205609787Y-107357488D01*
X205448656Y-107336056D01*
X205365312Y-107271763D01*
X205338325Y-107189213D01*
X205333562Y-107078088D01*
X205333562Y-105963662D01*
X205079562Y-105182612D01*
X205079562Y-107078088D01*
X205074800Y-107187625D01*
X205044637Y-107268588D01*
X204953753Y-107332881D01*
X204776350Y-107354313D01*
X204604503Y-107315419D01*
X204530287Y-107198738D01*
X204370744Y-107313038D01*
X204158812Y-107351138D01*
X203973957Y-107323444D01*
X203800390Y-107240365D01*
X203638112Y-107101900D01*
X203507585Y-106926569D01*
X203429268Y-106732894D01*
X203403162Y-106520875D01*
X203429444Y-106308679D01*
X203508290Y-106114475D01*
X203639700Y-105938262D01*
X203802507Y-105798915D01*
X203975544Y-105715307D01*
X204158812Y-105687437D01*
X204367569Y-105727125D01*
X204523937Y-105846187D01*
X204523937Y-105179437D01*
X204528700Y-105069900D01*
X204557275Y-104987350D01*
X203403162Y-104390582D01*
X202890532Y-104390582D01*
X202683283Y-104400764D01*
X202478030Y-104431210D01*
X202276749Y-104481628D01*
X202081380Y-104551533D01*
X201893803Y-104640250D01*
X201715825Y-104746926D01*
X201549160Y-104870533D01*
X201395413Y-105009881D01*
X201256065Y-105163628D01*
X201132458Y-105330292D01*
X201025782Y-105508270D01*
X200937065Y-105695847D01*
X200867161Y-105891217D01*
X200816743Y-106092498D01*
X200786296Y-106297751D01*
X200776115Y-106505000D01*
X200786296Y-106712249D01*
X200816743Y-106917502D01*
X200867161Y-107118783D01*
X200937065Y-107314153D01*
X201025782Y-107501730D01*
X201132458Y-107679708D01*
X201256065Y-107846372D01*
X201395413Y-108000119D01*
X201549160Y-108139467D01*
X201715825Y-108263074D01*
X201893803Y-108369750D01*
X202081380Y-108458467D01*
X202276749Y-108528372D01*
X202478030Y-108578790D01*
X202683283Y-108609236D01*
X202890532Y-108619418D01*
X203403162Y-108619418D01*
X214518838Y-108619418D01*
X215031468Y-108619418D01*
X215238717Y-108609236D01*
X215443970Y-108578790D01*
X215645251Y-108528372D01*
X215840620Y-108458467D01*
X216028197Y-108369750D01*
X216206175Y-108263074D01*
X216372840Y-108139467D01*
X216526587Y-108000119D01*
X216665935Y-107846372D01*
X216789542Y-107679708D01*
X216896218Y-107501730D01*
X216984935Y-107314153D01*
X217054839Y-107118783D01*
X217105257Y-106917502D01*
X217135704Y-106712249D01*
X217145885Y-106505000D01*
X217135704Y-106297751D01*
X217105257Y-106092498D01*
X217054839Y-105891217D01*
X216984935Y-105695847D01*
X216896218Y-105508270D01*
X216789542Y-105330292D01*
X216665935Y-105163628D01*
X216526587Y-105009881D01*
X216372840Y-104870533D01*
X216206175Y-104746926D01*
X216028197Y-104640250D01*
X215840620Y-104551533D01*
X215645251Y-104481628D01*
X215443970Y-104431210D01*
X215238717Y-104400764D01*
X215031468Y-104390582D01*
X214518838Y-104390582D01*
X203403162Y-104390582D01*
G37*
G36*
X209343588Y-106576438D02*
G01*
X209326125Y-106455787D01*
X209267388Y-106392287D01*
X209089588Y-106366887D01*
X208918137Y-106322437D01*
X208860987Y-106139875D01*
X208919725Y-105957312D01*
X209114988Y-105912862D01*
X209267388Y-105846187D01*
X209276913Y-105731887D01*
X209224525Y-105620762D01*
X209067363Y-105589012D01*
X208622862Y-105589012D01*
X208622862Y-106792338D01*
X209143563Y-106792338D01*
X209293581Y-106738363D01*
X209343588Y-106576438D01*
G37*
G36*
X204041337Y-106712963D02*
G01*
X204241362Y-106798688D01*
X204436625Y-106712963D01*
X204514412Y-106524050D01*
X204439800Y-106331962D01*
X204238187Y-106243062D01*
X204034987Y-106330375D01*
X203958787Y-106522463D01*
X204041337Y-106712963D01*
G37*
G36*
X150647173Y-122905508D02*
G01*
X150615267Y-122835127D01*
X150520486Y-122802282D01*
X150427582Y-122834188D01*
X150397552Y-122904570D01*
X150430397Y-122976829D01*
X150524240Y-123010612D01*
X150616205Y-122976829D01*
X150647173Y-122905508D01*
G37*
G36*
X151508196Y-120665745D02*
G01*
X151382466Y-120926730D01*
X151635831Y-120926730D01*
X151508196Y-120665745D01*
G37*
G36*
X150397552Y-123551144D02*
G01*
X150523301Y-123596188D01*
X150647173Y-123551144D01*
X150688464Y-123454486D01*
X150646235Y-123357829D01*
X150522363Y-123312784D01*
X150397552Y-123356890D01*
X150354385Y-123453548D01*
X150397552Y-123551144D01*
G37*
G36*
X146992951Y-123175774D02*
G01*
X147233188Y-123175774D01*
X147342045Y-123134484D01*
X147396474Y-123010612D01*
X147342045Y-122885802D01*
X147229434Y-122843572D01*
X146992951Y-122843572D01*
X146992951Y-123175774D01*
G37*
G36*
X155442021Y-120446670D02*
G01*
X155259141Y-120446670D01*
X155259141Y-121166760D01*
X155443926Y-121166760D01*
X155574418Y-121141280D01*
X155691576Y-121064842D01*
X155774443Y-120949828D01*
X155802066Y-120808620D01*
X155775157Y-120666935D01*
X155694433Y-120550492D01*
X155577514Y-120472625D01*
X155442021Y-120446670D01*
G37*
G36*
X148570686Y-120810525D02*
G01*
X148582856Y-120916464D01*
X148619369Y-121008221D01*
X148680223Y-121085797D01*
X148796190Y-121165093D01*
X148925016Y-121191525D01*
X149053603Y-121165807D01*
X149168856Y-121088655D01*
X149229181Y-121012243D01*
X149265376Y-120920168D01*
X149277441Y-120812430D01*
X149265270Y-120704480D01*
X149228757Y-120611770D01*
X149167903Y-120534300D01*
X149051936Y-120455718D01*
X148923111Y-120429525D01*
X148794523Y-120455956D01*
X148679271Y-120535252D01*
X148618946Y-120612828D01*
X148582751Y-120704585D01*
X148570686Y-120810525D01*
G37*
G36*
X146660749Y-119573994D02*
G01*
X146661876Y-120277125D01*
X146664733Y-120211402D01*
X146682831Y-120160920D01*
X146733313Y-120122343D01*
X146831421Y-120109485D01*
X146937624Y-120127106D01*
X146989536Y-120179970D01*
X146999061Y-120279030D01*
X147143364Y-121143661D01*
X147204801Y-121071510D01*
X147305766Y-121025790D01*
X147369583Y-121049602D01*
X147454356Y-121121040D01*
X147530556Y-121182952D01*
X147621996Y-121212480D01*
X147720421Y-121196393D01*
X147779476Y-121148133D01*
X147799161Y-121067700D01*
X147750583Y-120994357D01*
X147629616Y-120951495D01*
X147554368Y-120934111D01*
X147473406Y-120908632D01*
X147392443Y-120876485D01*
X147317196Y-120839100D01*
X147250759Y-120787426D01*
X147196228Y-120712417D01*
X147159795Y-120616929D01*
X147147651Y-120503820D01*
X147161515Y-120396822D01*
X147203107Y-120299350D01*
X147272428Y-120211402D01*
X147365667Y-120142081D01*
X147479015Y-120100489D01*
X147612471Y-120086625D01*
X147721770Y-120094006D01*
X147821068Y-120116152D01*
X147951561Y-120176160D01*
X147999186Y-120212355D01*
X148058241Y-120305700D01*
X148012521Y-120410475D01*
X147946798Y-120481912D01*
X147879171Y-120505725D01*
X147780111Y-120467625D01*
X147758203Y-120448575D01*
X147728676Y-120423810D01*
X147626758Y-120399045D01*
X147523888Y-120428572D01*
X147482931Y-120510487D01*
X147531508Y-120595260D01*
X147652476Y-120639075D01*
X147728199Y-120653600D01*
X147810591Y-120674317D01*
X147892982Y-120700749D01*
X148290651Y-120523822D01*
X148357326Y-120396901D01*
X148443051Y-120292365D01*
X148545444Y-120209021D01*
X148662126Y-120145680D01*
X148787856Y-120105675D01*
X148917396Y-120092340D01*
X149053722Y-120105079D01*
X149180762Y-120143298D01*
X149298515Y-120206997D01*
X149406981Y-120296175D01*
X149497825Y-120404224D01*
X149562714Y-120524536D01*
X149601648Y-120657113D01*
X149614626Y-120801952D01*
X149602243Y-120947327D01*
X149565096Y-121081511D01*
X149503183Y-121204502D01*
X149738451Y-121336305D01*
X149738451Y-120277125D01*
X149741308Y-120211402D01*
X149759406Y-120160920D01*
X149809888Y-120122343D01*
X149907996Y-120109485D01*
X150014199Y-120127106D01*
X150066111Y-120179970D01*
X150075636Y-120279030D01*
X150075636Y-121223910D01*
X150593796Y-121223910D01*
X150685236Y-121238197D01*
X150723336Y-121282965D01*
X150732861Y-121363927D01*
X150723336Y-121444890D01*
X150690951Y-121486800D01*
X150591891Y-121505850D01*
X149906091Y-121505850D01*
X149800363Y-121487752D01*
X149749881Y-121433460D01*
X149738451Y-121336305D01*
X149503183Y-121204502D01*
X149416506Y-121316302D01*
X149311731Y-121409230D01*
X149195526Y-121475608D01*
X149067891Y-121515434D01*
X148928826Y-121528710D01*
X148789463Y-121515613D01*
X148660935Y-121476322D01*
X148543242Y-121410838D01*
X148436383Y-121319160D01*
X148347622Y-121209384D01*
X148284221Y-121089607D01*
X148246181Y-120959829D01*
X148233501Y-120820050D01*
X148247788Y-120666935D01*
X148290651Y-120523822D01*
X147892982Y-120700749D01*
X147968706Y-120732420D01*
X148035142Y-120779330D01*
X148089673Y-120851482D01*
X148126106Y-120946018D01*
X148138251Y-121060080D01*
X148125868Y-121176523D01*
X148088721Y-121278202D01*
X148031571Y-121361784D01*
X147959181Y-121423935D01*
X147853982Y-121480026D01*
X147744127Y-121513681D01*
X147629616Y-121524900D01*
X147542462Y-121519423D01*
X147460071Y-121502992D01*
X147330531Y-121448700D01*
X147244806Y-121388692D01*
X147189561Y-121330590D01*
X147172416Y-121309635D01*
X147122886Y-121200097D01*
X147143364Y-121143661D01*
X146999061Y-120279030D01*
X146999061Y-121338210D01*
X149586754Y-122556415D01*
X149638368Y-122519816D01*
X149734087Y-122509494D01*
X149828868Y-122521693D01*
X149879543Y-122561107D01*
X149897373Y-122610843D01*
X149900188Y-122676533D01*
X150063474Y-122907385D01*
X150078905Y-122791855D01*
X150125201Y-122690505D01*
X150202360Y-122603336D01*
X150299956Y-122536604D01*
X150407562Y-122496564D01*
X150525178Y-122483218D01*
X150642377Y-122496773D01*
X150748731Y-122537438D01*
X150844242Y-122605213D01*
X150919316Y-122694050D01*
X150964360Y-122797903D01*
X150979375Y-122916770D01*
X150952161Y-123031257D01*
X150896794Y-123119469D01*
X150868641Y-123149499D01*
X150910870Y-123187974D01*
X150978437Y-123290262D01*
X151010108Y-123367682D01*
X151020666Y-123446040D01*
X151003670Y-123577107D01*
X150952682Y-123690031D01*
X150867703Y-123784811D01*
X150761244Y-123856236D01*
X150645818Y-123899091D01*
X150521424Y-123913375D01*
X150397031Y-123899195D01*
X150281605Y-123856653D01*
X150175146Y-123785750D01*
X150090167Y-123691282D01*
X150039179Y-123578045D01*
X150022183Y-123446040D01*
X150031802Y-123368386D01*
X150060658Y-123293077D01*
X150136671Y-123185159D01*
X150176084Y-123149499D01*
X150144178Y-123119469D01*
X150094442Y-123037826D01*
X150063474Y-122907385D01*
X149900188Y-122676533D01*
X149900188Y-123720060D01*
X149882358Y-123827979D01*
X149827929Y-123873962D01*
X149736902Y-123885223D01*
X149650567Y-123875838D01*
X149601769Y-123853316D01*
X149577370Y-123815779D01*
X149566109Y-123718183D01*
X149566109Y-123489208D01*
X149057483Y-123489208D01*
X148952849Y-123471378D01*
X148901705Y-123417888D01*
X148892321Y-123337183D01*
X148897951Y-123262109D01*
X149053730Y-122633366D01*
X149073437Y-122567676D01*
X149107220Y-122524508D01*
X149171971Y-122503863D01*
X149258306Y-122517001D01*
X149356841Y-122564861D01*
X149389685Y-122637119D01*
X149376547Y-122715947D01*
X149374671Y-122721577D01*
X149260183Y-123179528D01*
X149566109Y-123179528D01*
X149566109Y-122667149D01*
X149568924Y-122603336D01*
X149586754Y-122556415D01*
X146999061Y-121338210D01*
X146996203Y-121404885D01*
X146978106Y-121454415D01*
X146927623Y-121492991D01*
X147233188Y-122511371D01*
X147342254Y-122524717D01*
X147449234Y-122564756D01*
X147554129Y-122631489D01*
X147622634Y-122699994D01*
X147678001Y-122789144D01*
X147714599Y-122894247D01*
X147726799Y-123010612D01*
X147711158Y-123143660D01*
X147816887Y-123585866D01*
X147837063Y-123530264D01*
X147897592Y-123459178D01*
X147997065Y-123414134D01*
X148059939Y-123437595D01*
X148143459Y-123507976D01*
X148218533Y-123568974D01*
X148308621Y-123598065D01*
X148439531Y-123562405D01*
X148483168Y-123455425D01*
X148435309Y-123383166D01*
X148316129Y-123340937D01*
X148241993Y-123323811D01*
X148162227Y-123298708D01*
X148082461Y-123267036D01*
X148008326Y-123230203D01*
X147942871Y-123179294D01*
X147889146Y-123105393D01*
X147853251Y-123011316D01*
X147841286Y-122899878D01*
X147854946Y-122794462D01*
X147895924Y-122698430D01*
X147964220Y-122611782D01*
X148056081Y-122543485D01*
X148167754Y-122502508D01*
X148299237Y-122488848D01*
X148406921Y-122496121D01*
X148504752Y-122517939D01*
X148633316Y-122577060D01*
X148680237Y-122612720D01*
X148738419Y-122704686D01*
X148693375Y-122807912D01*
X148628624Y-122878294D01*
X148561996Y-122901755D01*
X148464400Y-122864218D01*
X148442816Y-122845449D01*
X148413725Y-122821050D01*
X148313313Y-122796651D01*
X148211964Y-122825742D01*
X148171612Y-122906447D01*
X148219471Y-122989967D01*
X148338651Y-123033134D01*
X148413256Y-123047445D01*
X148494429Y-123067856D01*
X148575603Y-123093897D01*
X148650208Y-123125100D01*
X148715663Y-123171317D01*
X148769387Y-123242403D01*
X148805282Y-123335541D01*
X148817247Y-123447917D01*
X148805047Y-123562640D01*
X148768449Y-123662816D01*
X148712144Y-123745163D01*
X148640823Y-123806395D01*
X148537180Y-123861658D01*
X148428948Y-123894815D01*
X148316129Y-123905868D01*
X148230263Y-123900472D01*
X148149089Y-123884284D01*
X148021464Y-123830794D01*
X147937006Y-123771673D01*
X147882577Y-123714430D01*
X147865685Y-123693784D01*
X147816887Y-123585866D01*
X147711158Y-123143660D01*
X147664237Y-123260024D01*
X147586035Y-123359705D01*
X147618567Y-123436656D01*
X147661109Y-123534878D01*
X147713661Y-123654371D01*
X147741813Y-123751967D01*
X147712722Y-123817656D01*
X147625449Y-123872085D01*
X147528791Y-123898361D01*
X147468732Y-123880531D01*
X147434011Y-123843932D01*
X147409403Y-123790338D01*
X147360605Y-123677101D01*
X147287616Y-123504223D01*
X147229434Y-123507976D01*
X146992951Y-123507976D01*
X146992951Y-123720060D01*
X146990136Y-123784811D01*
X146972306Y-123834548D01*
X146922570Y-123872554D01*
X146825912Y-123885223D01*
X146721747Y-123867862D01*
X146672011Y-123815779D01*
X146660749Y-123718183D01*
X146660749Y-122676533D01*
X146663565Y-122611782D01*
X146681395Y-122562045D01*
X146731131Y-122524039D01*
X146827789Y-122511371D01*
X147233188Y-122511371D01*
X146927623Y-121492991D01*
X146829516Y-121505850D01*
X146723788Y-121487752D01*
X146673306Y-121433460D01*
X146661876Y-121336305D01*
X146661876Y-120277125D01*
X146660749Y-119573994D01*
X146148119Y-119573994D01*
X146029081Y-119576917D01*
X145910330Y-119585677D01*
X145792151Y-119600253D01*
X145674830Y-119620610D01*
X145558649Y-119646700D01*
X145443888Y-119678459D01*
X145330824Y-119715810D01*
X145219729Y-119758665D01*
X145110870Y-119806919D01*
X145004511Y-119860456D01*
X144900906Y-119919148D01*
X144800306Y-119982852D01*
X144702953Y-120051416D01*
X144609081Y-120124674D01*
X144518917Y-120202451D01*
X144432678Y-120284557D01*
X144350572Y-120370796D01*
X144272796Y-120460960D01*
X144199538Y-120554832D01*
X144130974Y-120652185D01*
X144067270Y-120752786D01*
X144008579Y-120856391D01*
X143955042Y-120962751D01*
X143906788Y-121071609D01*
X143863934Y-121182705D01*
X143826582Y-121295769D01*
X143794824Y-121410530D01*
X143768735Y-121526711D01*
X143748378Y-121644032D01*
X143733802Y-121762210D01*
X143725042Y-121880962D01*
X143722120Y-122000000D01*
X143725042Y-122119038D01*
X143733802Y-122237790D01*
X143748378Y-122355968D01*
X143768735Y-122473289D01*
X143794824Y-122589470D01*
X143826582Y-122704231D01*
X143863934Y-122817295D01*
X143906788Y-122928391D01*
X143955042Y-123037249D01*
X144008579Y-123143609D01*
X144067270Y-123247214D01*
X144130974Y-123347815D01*
X144199538Y-123445168D01*
X144272796Y-123539040D01*
X144350572Y-123629204D01*
X144432678Y-123715443D01*
X144518917Y-123797549D01*
X144609081Y-123875326D01*
X144702953Y-123948584D01*
X144800306Y-124017148D01*
X144900906Y-124080852D01*
X145004511Y-124139544D01*
X145110870Y-124193081D01*
X145219729Y-124241335D01*
X145330824Y-124284190D01*
X145443888Y-124321541D01*
X145558649Y-124353300D01*
X145674830Y-124379390D01*
X145792151Y-124399747D01*
X145910330Y-124414323D01*
X146029081Y-124423083D01*
X146148119Y-124426006D01*
X146660749Y-124426006D01*
X156139251Y-124426006D01*
X151987242Y-122680287D01*
X151975512Y-122770845D01*
X151940321Y-122817297D01*
X151894338Y-122835127D01*
X151833341Y-122837942D01*
X151504892Y-122837942D01*
X151486124Y-122980582D01*
X151551813Y-122976829D01*
X151666718Y-122991739D01*
X151773699Y-123036471D01*
X151872754Y-123111023D01*
X151951999Y-123207160D01*
X151999546Y-123316642D01*
X152015395Y-123439471D01*
X152000380Y-123562926D01*
X151955336Y-123674286D01*
X151880262Y-123773550D01*
X151782874Y-123851231D01*
X151670889Y-123897839D01*
X151544306Y-123913375D01*
X151431695Y-123903574D01*
X151326592Y-123874170D01*
X151228996Y-123825164D01*
X151182075Y-123789504D01*
X151167060Y-123776366D01*
X151095740Y-123663755D01*
X151165183Y-123541760D01*
X151274040Y-123479824D01*
X151399789Y-123539883D01*
X151517092Y-123579297D01*
X151640964Y-123543637D01*
X151681316Y-123445102D01*
X151637210Y-123345629D01*
X151536799Y-123309031D01*
X151446710Y-123342814D01*
X151344422Y-123385981D01*
X151226180Y-123350321D01*
X151138907Y-123293077D01*
X151118262Y-123247095D01*
X151127646Y-123159352D01*
X151155799Y-122944922D01*
X151184421Y-122733777D01*
X151195213Y-122655888D01*
X151208350Y-122616474D01*
X151235565Y-122565799D01*
X151284363Y-122525447D01*
X151360375Y-122507617D01*
X151645656Y-122509494D01*
X151822079Y-122509494D01*
X151887769Y-122512309D01*
X151936567Y-122530139D01*
X151974573Y-122580814D01*
X151987242Y-122680287D01*
X156139251Y-124426006D01*
X156651881Y-124426006D01*
X153098871Y-121342020D01*
X153096013Y-121406790D01*
X153078868Y-121455367D01*
X153028386Y-121494420D01*
X152933136Y-121505850D01*
X152838838Y-121494420D01*
X152789308Y-121455367D01*
X152772163Y-121405837D01*
X152769306Y-121340115D01*
X152769306Y-120383805D01*
X152403546Y-120383805D01*
X152314011Y-120369517D01*
X152275911Y-120324750D01*
X152266386Y-120244740D01*
X152275911Y-120165682D01*
X152308296Y-120124725D01*
X152405451Y-120107580D01*
X153464631Y-120107580D01*
X153554166Y-120121867D01*
X153592266Y-120166635D01*
X153601791Y-120246645D01*
X153592266Y-120325702D01*
X153559881Y-120366660D01*
X153462726Y-120383805D01*
X153098871Y-120383805D01*
X153098871Y-121342020D01*
X156651881Y-124426006D01*
X156770919Y-124423083D01*
X154628586Y-121505850D01*
X153874206Y-121505850D01*
X153768478Y-121487752D01*
X153717996Y-121433460D01*
X153706566Y-121336305D01*
X153706566Y-120277125D01*
X153742761Y-120144727D01*
X153879921Y-120109485D01*
X154630491Y-120109485D01*
X154696213Y-120112342D01*
X154746696Y-120130440D01*
X154785272Y-120180922D01*
X154798131Y-120279030D01*
X154780509Y-120384757D01*
X154727646Y-120435240D01*
X154628586Y-120446670D01*
X154043751Y-120446670D01*
X154043751Y-120639075D01*
X154420941Y-120639075D01*
X154486663Y-120641932D01*
X154537146Y-120660030D01*
X154575722Y-120710512D01*
X154588581Y-120808620D01*
X154570483Y-120914347D01*
X154516191Y-120964830D01*
X154417131Y-120976260D01*
X154043751Y-120976260D01*
X154043751Y-121168665D01*
X154630491Y-121168665D01*
X154696213Y-121171522D01*
X154746696Y-121189620D01*
X154785272Y-121240102D01*
X154798131Y-121338210D01*
X154780509Y-121443937D01*
X154727646Y-121494420D01*
X154628586Y-121505850D01*
X156770919Y-124423083D01*
X156889670Y-124414323D01*
X155708006Y-121452033D01*
X155578526Y-121490967D01*
X155438211Y-121503945D01*
X155089596Y-121503945D01*
X154995298Y-121492038D01*
X154944816Y-121456320D01*
X154921956Y-121334400D01*
X154921956Y-120275220D01*
X154924813Y-120208545D01*
X154942911Y-120159015D01*
X154993393Y-120120438D01*
X155091501Y-120107580D01*
X155443926Y-120109485D01*
X155577871Y-120121927D01*
X155703482Y-120159253D01*
X155820758Y-120221463D01*
X155929701Y-120308557D01*
X156021379Y-120413808D01*
X156086863Y-120530490D01*
X156126154Y-120658601D01*
X156139251Y-120798142D01*
X156126451Y-120938219D01*
X156088054Y-121067938D01*
X156024058Y-121187298D01*
X155934463Y-121296300D01*
X155826652Y-121387144D01*
X155708006Y-121452033D01*
X156889670Y-124414323D01*
X157007849Y-124399747D01*
X157125170Y-124379390D01*
X157241351Y-124353300D01*
X157356112Y-124321541D01*
X157469176Y-124284190D01*
X157580271Y-124241335D01*
X157689130Y-124193081D01*
X157795489Y-124139544D01*
X157899094Y-124080852D01*
X157999694Y-124017148D01*
X158097047Y-123948584D01*
X158190919Y-123875326D01*
X158281083Y-123797549D01*
X158367322Y-123715443D01*
X158449428Y-123629204D01*
X158527204Y-123539040D01*
X158600462Y-123445168D01*
X158669026Y-123347815D01*
X158732730Y-123247214D01*
X158791421Y-123143609D01*
X158844958Y-123037249D01*
X158893212Y-122928391D01*
X158936066Y-122817295D01*
X158973418Y-122704231D01*
X159005176Y-122589470D01*
X159031265Y-122473289D01*
X159051622Y-122355968D01*
X159066198Y-122237790D01*
X159074958Y-122119038D01*
X159077880Y-122000000D01*
X159074958Y-121880962D01*
X159066198Y-121762210D01*
X159051622Y-121644032D01*
X159031265Y-121526711D01*
X159005176Y-121410530D01*
X158973418Y-121295769D01*
X158936066Y-121182705D01*
X158893212Y-121071609D01*
X158844958Y-120962751D01*
X158791421Y-120856391D01*
X158732730Y-120752786D01*
X158669026Y-120652185D01*
X158600462Y-120554832D01*
X158527204Y-120460960D01*
X158449428Y-120370796D01*
X158367322Y-120284557D01*
X158281083Y-120202451D01*
X158190919Y-120124674D01*
X158097047Y-120051416D01*
X157999694Y-119982852D01*
X157899094Y-119919148D01*
X157795489Y-119860456D01*
X157689130Y-119806919D01*
X157580271Y-119758665D01*
X157469176Y-119715810D01*
X157356112Y-119678459D01*
X157241351Y-119646700D01*
X157125170Y-119620610D01*
X157007849Y-119600253D01*
X156889670Y-119585677D01*
X156770919Y-119576917D01*
X156651881Y-119573994D01*
X156139251Y-119573994D01*
X151662501Y-120208545D01*
X152176851Y-121271535D01*
X152209236Y-121368690D01*
X152181613Y-121433936D01*
X152098746Y-121492515D01*
X151996828Y-121524900D01*
X151935868Y-121507755D01*
X151901578Y-121471560D01*
X151872051Y-121414410D01*
X151772991Y-121208670D01*
X151245306Y-121208670D01*
X151146246Y-121414410D01*
X151116718Y-121469655D01*
X151082428Y-121504897D01*
X151021468Y-121522995D01*
X150919551Y-121490610D01*
X150836683Y-121433460D01*
X150809061Y-121368690D01*
X150841446Y-121271535D01*
X151355796Y-120206640D01*
X151419613Y-120136155D01*
X151510101Y-120109485D01*
X151599636Y-120134250D01*
X151662501Y-120208545D01*
X156139251Y-119573994D01*
X146660749Y-119573994D01*
G37*
G36*
X145852350Y-70070250D02*
G01*
X146287325Y-70279800D01*
X146287325Y-69857525D01*
X145852350Y-70070250D01*
G37*
G36*
X145852350Y-86792975D02*
G01*
X146287325Y-87002525D01*
X146287325Y-86580250D01*
X145852350Y-86792975D01*
G37*
G36*
X146049200Y-84887975D02*
G01*
X146049200Y-84481575D01*
X145979350Y-84297425D01*
X145769800Y-84205350D01*
X145558662Y-84297425D01*
X145487225Y-84487925D01*
X145487225Y-84887975D01*
X146049200Y-84887975D01*
G37*
G36*
X146049200Y-78591950D02*
G01*
X146049200Y-78185550D01*
X145979350Y-78001400D01*
X145769800Y-77909325D01*
X145558662Y-78001400D01*
X145487225Y-78191900D01*
X145487225Y-78591950D01*
X146049200Y-78591950D01*
G37*
G36*
X145487225Y-67860450D02*
G01*
X145487225Y-68165250D01*
X146687375Y-68165250D01*
X146687375Y-67857275D01*
X146644909Y-67639787D01*
X146517513Y-67444525D01*
X146325822Y-67306412D01*
X146090475Y-67260375D01*
X145854334Y-67305222D01*
X145660262Y-67439762D01*
X145530484Y-67634628D01*
X145487225Y-67860450D01*
G37*
G36*
X146093650Y-73102375D02*
G01*
X146270215Y-73082090D01*
X146423144Y-73021236D01*
X146552438Y-72919812D01*
X146684597Y-72726534D01*
X146728650Y-72511825D01*
X146685788Y-72297512D01*
X146557200Y-72105425D01*
X146429847Y-72004883D01*
X146276389Y-71944558D01*
X146096825Y-71924450D01*
X145916908Y-71944735D01*
X145762392Y-72005589D01*
X145633275Y-72107012D01*
X145502306Y-72300291D01*
X145458650Y-72515000D01*
X145502703Y-72729312D01*
X145634862Y-72921400D01*
X145764156Y-73021942D01*
X145917085Y-73082267D01*
X146093650Y-73102375D01*
G37*
G36*
X144257045Y-92301600D02*
G01*
X145174091Y-91870197D01*
X145074475Y-91714225D01*
X144979225Y-91506439D01*
X144922075Y-91297947D01*
X144903025Y-91088750D01*
X144914534Y-90938334D01*
X144949062Y-90785538D01*
X145042725Y-90552175D01*
X145087175Y-90475975D01*
X145144325Y-90387075D01*
X145295137Y-90304525D01*
X145471350Y-90371200D01*
X146966775Y-90098150D01*
X145204650Y-90098150D01*
X145095113Y-90093388D01*
X145010975Y-90063225D01*
X144946681Y-89979088D01*
X144925250Y-89815575D01*
X144954619Y-89638569D01*
X145042725Y-89552050D01*
X145207825Y-89536175D01*
X145855525Y-89536175D01*
X145855525Y-88694800D01*
X145204650Y-88694800D01*
X145095113Y-88690038D01*
X145010975Y-88659875D01*
X144944300Y-88574150D01*
X144925250Y-88421750D01*
X144941125Y-88275700D01*
X144979225Y-88193150D01*
X145042725Y-88148700D01*
X145087175Y-87046975D01*
X144969700Y-86940613D01*
X144925250Y-86789800D01*
X144966525Y-86640575D01*
X145090350Y-86535800D01*
X146862000Y-85678550D01*
X147023925Y-85624575D01*
X147131875Y-85430900D01*
X146966775Y-85449950D01*
X145204650Y-85449950D01*
X145095113Y-85445188D01*
X145010975Y-85415025D01*
X144946681Y-85330888D01*
X144925250Y-85167375D01*
X144925250Y-84481575D01*
X144947828Y-84297072D01*
X145015561Y-84116097D01*
X145128450Y-83938650D01*
X145244337Y-83822763D01*
X145395150Y-83729100D01*
X145572950Y-83667188D01*
X145769800Y-83646550D01*
X145994872Y-83673008D01*
X146191722Y-83752383D01*
X146360350Y-83884675D01*
X146308260Y-83472322D01*
X146065075Y-83494150D01*
X145823080Y-83471925D01*
X145601922Y-83405250D01*
X145401599Y-83294125D01*
X145222112Y-83138550D01*
X145074177Y-82952813D01*
X144968509Y-82751200D01*
X144905109Y-82533713D01*
X144883975Y-82300350D01*
X144911492Y-82055169D01*
X144994042Y-81819161D01*
X145131625Y-81592325D01*
X145272912Y-81506600D01*
X145452300Y-81579625D01*
X145578506Y-81697894D01*
X145620575Y-81805050D01*
X145533262Y-81998725D01*
X145467778Y-82144775D01*
X145445950Y-82316225D01*
X145488416Y-82544031D01*
X145615812Y-82744850D01*
X145811869Y-82885344D01*
X146060312Y-82932175D01*
X146234232Y-82911008D01*
X146389807Y-82847508D01*
X146527038Y-82741675D01*
X146671103Y-82538475D01*
X146719125Y-82309875D01*
X146704838Y-82143981D01*
X146661975Y-81995550D01*
X146315900Y-81995550D01*
X146315900Y-82246375D01*
X146290500Y-82386075D01*
X146215888Y-82440050D01*
X146082537Y-82452750D01*
X145947600Y-82438463D01*
X145877750Y-82386075D01*
X145849175Y-82233675D01*
X145849175Y-81674875D01*
X145938075Y-81465325D01*
X146115875Y-81433575D01*
X146969950Y-81179575D01*
X145204650Y-81179575D01*
X144983987Y-81119250D01*
X144925250Y-80890650D01*
X144925250Y-79639700D01*
X144930012Y-79530163D01*
X144960175Y-79446025D01*
X145044312Y-79381731D01*
X145207825Y-79360300D01*
X145384037Y-79389669D01*
X145468175Y-79477775D01*
X145487225Y-79642875D01*
X145487225Y-80617600D01*
X145807900Y-80617600D01*
X145807900Y-79988950D01*
X145812662Y-79879413D01*
X145842825Y-79795275D01*
X145926962Y-79730981D01*
X146090475Y-79709550D01*
X146266688Y-79739713D01*
X146350825Y-79830200D01*
X146369875Y-79995300D01*
X146369875Y-80617600D01*
X146690550Y-80617600D01*
X146690550Y-79639700D01*
X146695313Y-79530163D01*
X146725475Y-79446025D01*
X146809613Y-79381731D01*
X146973125Y-79360300D01*
X146966775Y-79153925D01*
X145204650Y-79153925D01*
X145095113Y-79149162D01*
X145010975Y-79119000D01*
X144946681Y-79034862D01*
X144925250Y-78871350D01*
X144925250Y-78185550D01*
X144947828Y-78001047D01*
X145015561Y-77820072D01*
X145128450Y-77642625D01*
X145244337Y-77526737D01*
X145395150Y-77433075D01*
X145572950Y-77371162D01*
X145769800Y-77350525D01*
X145994872Y-77376983D01*
X146191722Y-77456358D01*
X146360350Y-77588650D01*
X146490525Y-77533617D01*
X146656683Y-77461650D01*
X146858825Y-77372750D01*
X147023925Y-77325125D01*
X147135050Y-77374337D01*
X147227125Y-77521975D01*
X147271575Y-77685487D01*
X147241413Y-77787087D01*
X147179500Y-77845825D01*
X147088836Y-77887453D01*
X146897278Y-77970003D01*
X146604825Y-78093475D01*
X146611175Y-78191900D01*
X146611175Y-78591950D01*
X146969950Y-78591950D01*
X147079488Y-78596712D01*
X147163625Y-78626875D01*
X147227919Y-78711012D01*
X147249350Y-78874525D01*
X147219981Y-79050737D01*
X147131875Y-79134875D01*
X146966775Y-79153925D01*
X146973125Y-79360300D01*
X147149338Y-79389669D01*
X147233475Y-79477775D01*
X147252525Y-79642875D01*
X147252525Y-80900175D01*
X147222363Y-81076388D01*
X147131875Y-81160525D01*
X146969950Y-81179575D01*
X146115875Y-81433575D01*
X146814375Y-81433575D01*
X147008050Y-81522475D01*
X147128898Y-81672494D01*
X147215219Y-81855850D01*
X147267011Y-82072544D01*
X147284275Y-82322575D01*
X147261951Y-82551373D01*
X147194978Y-82764694D01*
X147083357Y-82962536D01*
X146927088Y-83144900D01*
X146739266Y-83297697D01*
X146532991Y-83406838D01*
X146308260Y-83472322D01*
X146360350Y-83884675D01*
X146490525Y-83829642D01*
X146656683Y-83757675D01*
X146858825Y-83668775D01*
X147023925Y-83621150D01*
X147135050Y-83670363D01*
X147227125Y-83818000D01*
X147271575Y-83981513D01*
X147241413Y-84083113D01*
X147179500Y-84141850D01*
X147088836Y-84183478D01*
X146897278Y-84266028D01*
X146604825Y-84389500D01*
X146611175Y-84487925D01*
X146611175Y-84887975D01*
X146969950Y-84887975D01*
X147079488Y-84892738D01*
X147163625Y-84922900D01*
X147227919Y-85007038D01*
X147249350Y-85170550D01*
X147219981Y-85346763D01*
X147131875Y-85430900D01*
X147023925Y-85624575D01*
X147132669Y-85670613D01*
X147230300Y-85808725D01*
X147284275Y-85978588D01*
X147255700Y-86080188D01*
X147195375Y-86137338D01*
X147100125Y-86186550D01*
X146757225Y-86351650D01*
X146757225Y-87231125D01*
X147100125Y-87396225D01*
X147192200Y-87445438D01*
X147250938Y-87502588D01*
X147281100Y-87604188D01*
X147227125Y-87774050D01*
X147131875Y-87912163D01*
X147023925Y-87958200D01*
X146862000Y-87904225D01*
X145087175Y-87046975D01*
X145042725Y-88148700D01*
X145207825Y-88132825D01*
X146969950Y-88132825D01*
X147079488Y-88137588D01*
X147163625Y-88167750D01*
X147227919Y-88251888D01*
X147249350Y-88415400D01*
X147219981Y-88591613D01*
X147131875Y-88675750D01*
X146966775Y-88694800D01*
X146322250Y-88694800D01*
X146322250Y-89536175D01*
X146969950Y-89536175D01*
X147079488Y-89540938D01*
X147163625Y-89571100D01*
X147227919Y-89655238D01*
X147249350Y-89818750D01*
X147219981Y-89994963D01*
X147131875Y-90079100D01*
X146966775Y-90098150D01*
X145471350Y-90371200D01*
X145599938Y-90488675D01*
X145642800Y-90593450D01*
X145572950Y-90755375D01*
X145491987Y-90910950D01*
X145465000Y-91110975D01*
X145500719Y-91315763D01*
X145607875Y-91517375D01*
X145804725Y-91676125D01*
X145940059Y-91723750D01*
X146092062Y-91739625D01*
X146244066Y-91723750D01*
X146379400Y-91676125D01*
X146579425Y-91514200D01*
X146684200Y-91316556D01*
X146719125Y-91110975D01*
X146693725Y-90925238D01*
X146642925Y-90799825D01*
X146601650Y-90742675D01*
X146538150Y-90590275D01*
X146582600Y-90487881D01*
X146715950Y-90377550D01*
X146893750Y-90307700D01*
X147004875Y-90350563D01*
X147084250Y-90450575D01*
X147150925Y-90560113D01*
X147233475Y-90774425D01*
X147271575Y-90933572D01*
X147284275Y-91087163D01*
X147274353Y-91238769D01*
X147244588Y-91391963D01*
X147191406Y-91548331D01*
X147111238Y-91709463D01*
X147007256Y-91864641D01*
X146882638Y-92003150D01*
X146728650Y-92121816D01*
X146536563Y-92217463D01*
X146316297Y-92280566D01*
X146077775Y-92301600D01*
X145841634Y-92280963D01*
X145628512Y-92219050D01*
X145444362Y-92124991D01*
X145295137Y-92007913D01*
X145174091Y-91870197D01*
X144257045Y-92301600D01*
X144257045Y-92814230D01*
X146100000Y-94042867D01*
X147942955Y-92814230D01*
X147298563Y-77193362D01*
X147217600Y-77229875D01*
X147058850Y-77191775D01*
X144922075Y-76169425D01*
X144782375Y-76061475D01*
X144769675Y-75986862D01*
X144820475Y-75826525D01*
X144906994Y-75697937D01*
X145001450Y-75655075D01*
X145160200Y-75699525D01*
X146969950Y-75480450D01*
X145204650Y-75480450D01*
X145095113Y-75475688D01*
X145010975Y-75445525D01*
X144946681Y-75361387D01*
X144925250Y-75197875D01*
X144954619Y-75020869D01*
X145042725Y-74934350D01*
X145207825Y-74918475D01*
X146782625Y-74918475D01*
X146782625Y-74054875D01*
X146806438Y-73902475D01*
X146881050Y-73838975D01*
X147015988Y-73823100D01*
X147150925Y-73838975D01*
X147220775Y-73892950D01*
X147252525Y-74058050D01*
X147252525Y-75201050D01*
X147222363Y-75377262D01*
X147131875Y-75461400D01*
X146969950Y-75480450D01*
X145160200Y-75699525D01*
X147277925Y-76718700D01*
X147357300Y-76758387D01*
X147406513Y-76806012D01*
X147430325Y-76893325D01*
X147382700Y-77052075D01*
X147298563Y-77193362D01*
X147942955Y-92814230D01*
X147942955Y-92301600D01*
X147942955Y-66698400D01*
X146903275Y-67039712D01*
X147054683Y-67219398D01*
X147162831Y-67417141D01*
X147227720Y-67632941D01*
X147249350Y-67866800D01*
X147249350Y-68447825D01*
X147229506Y-68604987D01*
X147169975Y-68689125D01*
X146966775Y-68727225D01*
X145201475Y-68727225D01*
X145090350Y-68722462D01*
X145007800Y-68692300D01*
X144943506Y-68608162D01*
X144922075Y-68444650D01*
X144925250Y-67857275D01*
X144945987Y-67634033D01*
X145008197Y-67424681D01*
X145111880Y-67229220D01*
X145257037Y-67047650D01*
X145432456Y-66894853D01*
X145626925Y-66785712D01*
X145840444Y-66720228D01*
X146073012Y-66698400D01*
X146306474Y-66719732D01*
X146522672Y-66783728D01*
X146721605Y-66890388D01*
X146903275Y-67039712D01*
X147942955Y-66698400D01*
X147942955Y-66185770D01*
X146100000Y-64957133D01*
X144257045Y-66185770D01*
X144896675Y-72524525D01*
X144917908Y-72297314D01*
X144981606Y-72085581D01*
X145087175Y-70324250D01*
X144969700Y-70217887D01*
X144925250Y-70067075D01*
X144966525Y-69917850D01*
X145090350Y-69813075D01*
X146862000Y-68955825D01*
X147023925Y-68901850D01*
X147132669Y-68947887D01*
X147230300Y-69086000D01*
X147284275Y-69255862D01*
X147255700Y-69357462D01*
X147195375Y-69414612D01*
X147100125Y-69463825D01*
X146757225Y-69628925D01*
X146757225Y-70508400D01*
X147100125Y-70673500D01*
X147192200Y-70722712D01*
X147250938Y-70779862D01*
X147281100Y-70881462D01*
X147227125Y-71051325D01*
X147131875Y-71189437D01*
X147023925Y-71235475D01*
X146862000Y-71181500D01*
X145087175Y-70324250D01*
X144981606Y-72085581D01*
X145087770Y-71889327D01*
X145236400Y-71708550D01*
X145416482Y-71557142D01*
X145617003Y-71448994D01*
X145837963Y-71384105D01*
X146079362Y-71362475D01*
X146321655Y-71383112D01*
X146545294Y-71445025D01*
X146750280Y-71548212D01*
X146936613Y-71692675D01*
X147091493Y-71867300D01*
X147202122Y-72060975D01*
X147268499Y-72273700D01*
X147290625Y-72505475D01*
X147268797Y-72737746D01*
X147203313Y-72951959D01*
X147094172Y-73148115D01*
X146941375Y-73326212D01*
X146758416Y-73474148D01*
X146558788Y-73579816D01*
X146342491Y-73643216D01*
X146109525Y-73664350D01*
X145854334Y-73640537D01*
X145615812Y-73569100D01*
X145404278Y-73457975D01*
X145230050Y-73315100D01*
X145091144Y-73144444D01*
X144985575Y-72949975D01*
X144918900Y-72740425D01*
X144896675Y-72524525D01*
X144257045Y-66185770D01*
X144257045Y-66698400D01*
X144257045Y-92301600D01*
G37*
G36*
X224565050Y-85260975D02*
G01*
X225000025Y-85470525D01*
X225000025Y-85048250D01*
X224565050Y-85260975D01*
G37*
G36*
X224761900Y-76688475D02*
G01*
X224761900Y-76282075D01*
X224692050Y-76097925D01*
X224482500Y-76005850D01*
X224271362Y-76097925D01*
X224199925Y-76288425D01*
X224199925Y-76688475D01*
X224761900Y-76688475D01*
G37*
G36*
X225184175Y-87115175D02*
G01*
X225063525Y-87132638D01*
X225000025Y-87191375D01*
X224974625Y-87369175D01*
X224930175Y-87540625D01*
X224747612Y-87597775D01*
X224565050Y-87539038D01*
X224520600Y-87343775D01*
X224453925Y-87191375D01*
X224339625Y-87181850D01*
X224228500Y-87234238D01*
X224196750Y-87391400D01*
X224196750Y-87835900D01*
X225400075Y-87835900D01*
X225400075Y-87315200D01*
X225346100Y-87165181D01*
X225184175Y-87115175D01*
G37*
G36*
X223090395Y-88397875D02*
G01*
X223634775Y-88115300D01*
X223634775Y-87315200D01*
X223657353Y-87131050D01*
X223725086Y-86968067D01*
X223837975Y-86826250D01*
X223984731Y-86711597D01*
X224149831Y-86642806D01*
X224333275Y-86619875D01*
X224534094Y-86650038D01*
X224717450Y-86740525D01*
X224871614Y-86636456D01*
X225037772Y-86574014D01*
X225574700Y-86372225D01*
X223799875Y-85514975D01*
X223682400Y-85408613D01*
X223637950Y-85257800D01*
X223679225Y-85108575D01*
X223803050Y-85003800D01*
X223634775Y-83765550D01*
X223634775Y-82000250D01*
X223658587Y-81851025D01*
X223733200Y-81787525D01*
X223866550Y-81771650D01*
X223998312Y-81787525D01*
X224066575Y-81841500D01*
X224095150Y-82003425D01*
X224095150Y-82609850D01*
X225692175Y-82609850D01*
X225800125Y-82614613D01*
X225881088Y-82643188D01*
X225946175Y-82727325D01*
X225965225Y-82886075D01*
X225946175Y-83043238D01*
X225881088Y-83125788D01*
X225798538Y-83154363D01*
X225689000Y-83159125D01*
X224095150Y-83159125D01*
X224095150Y-83768725D01*
X224071337Y-83917950D01*
X223996725Y-83981450D01*
X223863375Y-83997325D01*
X223731612Y-83981450D01*
X223663350Y-83927475D01*
X223634775Y-83765550D01*
X223803050Y-85003800D01*
X225574700Y-84146550D01*
X225736625Y-84092575D01*
X225845369Y-84138613D01*
X225943000Y-84276725D01*
X225996975Y-84446588D01*
X225968400Y-84548188D01*
X225908075Y-84605338D01*
X225812825Y-84654550D01*
X225469925Y-84819650D01*
X225469925Y-85699125D01*
X225812825Y-85864225D01*
X225904900Y-85913438D01*
X225963638Y-85970588D01*
X225993800Y-86072188D01*
X225939825Y-86242050D01*
X225844575Y-86380163D01*
X225736625Y-86426200D01*
X225574700Y-86372225D01*
X225037772Y-86574014D01*
X225215925Y-86553200D01*
X225416126Y-86580188D01*
X225593397Y-86652683D01*
X225747738Y-86770688D01*
X225866800Y-86921500D01*
X225938238Y-87092421D01*
X225962050Y-87283450D01*
X225962050Y-88118475D01*
X225931888Y-88294688D01*
X225841400Y-88378825D01*
X225676300Y-88397875D01*
X223914175Y-88397875D01*
X223803050Y-88393113D01*
X223720500Y-88362950D01*
X223656206Y-88278813D01*
X223634775Y-88115300D01*
X223090395Y-88397875D01*
X223090395Y-88910505D01*
X224800000Y-90050242D01*
X226509605Y-88910505D01*
X226509605Y-88397875D01*
X226509605Y-71602125D01*
X225346100Y-71833900D01*
X225346100Y-72106950D01*
X225603275Y-72106950D01*
X225765200Y-72133937D01*
X225833463Y-72214900D01*
X225850925Y-72359362D01*
X225833463Y-72503825D01*
X225774725Y-72580025D01*
X225600100Y-72608600D01*
X225346100Y-72608600D01*
X225346100Y-72884825D01*
X225320700Y-73037225D01*
X225239738Y-73100725D01*
X225095275Y-73116600D01*
X224950813Y-73099137D01*
X224873025Y-73037225D01*
X224844450Y-72862600D01*
X224844450Y-72608600D01*
X224587275Y-72608600D01*
X224425350Y-72583200D01*
X224357087Y-72502237D01*
X224339625Y-72357775D01*
X224357087Y-72213312D01*
X224415825Y-72135525D01*
X224590450Y-72106950D01*
X224844450Y-72106950D01*
X224844450Y-71849775D01*
X224871438Y-71687850D01*
X224952400Y-71619587D01*
X225096863Y-71602125D01*
X225241325Y-71618000D01*
X225317525Y-71671975D01*
X225346100Y-71833900D01*
X226509605Y-71602125D01*
X226509605Y-71089495D01*
X224800000Y-69949758D01*
X223682400Y-73399175D01*
X223788762Y-73282494D01*
X223891950Y-73243600D01*
X224060225Y-73316625D01*
X225085750Y-74002425D01*
X225692175Y-74002425D01*
X225801713Y-74007187D01*
X225885850Y-74037350D01*
X225952525Y-74123075D01*
X225971575Y-74285000D01*
X225952525Y-74446925D01*
X225884263Y-74532650D01*
X225798538Y-74562812D01*
X225685825Y-74567575D01*
X225085750Y-74567575D01*
X224060225Y-75253375D01*
X223891950Y-75326400D01*
X223792334Y-75291475D01*
X223696687Y-75186700D01*
X223603025Y-74986675D01*
X223628425Y-74891425D01*
X223758600Y-74777125D01*
X224546000Y-74285000D01*
X223758600Y-73792875D01*
X223633187Y-73688100D01*
X223603025Y-73584912D01*
X223682400Y-73399175D01*
X224800000Y-69949758D01*
X223090395Y-71089495D01*
X223634775Y-81444625D01*
X223634775Y-79679325D01*
X223658587Y-79530100D01*
X223733200Y-79466600D01*
X223866550Y-79450725D01*
X223998312Y-79466600D01*
X224066575Y-79520575D01*
X224095150Y-79682500D01*
X224095150Y-80288925D01*
X225682650Y-79276100D01*
X223917350Y-79276100D01*
X223696687Y-79215775D01*
X223637950Y-78987175D01*
X223637950Y-77736225D01*
X223642712Y-77626687D01*
X223672875Y-77542550D01*
X223757012Y-77478256D01*
X223920525Y-77456825D01*
X224096737Y-77486194D01*
X224180875Y-77574300D01*
X224199925Y-77739400D01*
X224199925Y-78714125D01*
X224520600Y-78714125D01*
X224520600Y-78085475D01*
X224525362Y-77975938D01*
X224555525Y-77891800D01*
X224639662Y-77827506D01*
X224803175Y-77806075D01*
X224979388Y-77836237D01*
X225063525Y-77926725D01*
X225082575Y-78091825D01*
X225082575Y-78714125D01*
X225403250Y-78714125D01*
X225403250Y-77736225D01*
X225408013Y-77626687D01*
X225438175Y-77542550D01*
X225522313Y-77478256D01*
X225685825Y-77456825D01*
X225679475Y-77250450D01*
X223917350Y-77250450D01*
X223807812Y-77245687D01*
X223723675Y-77215525D01*
X223659381Y-77131387D01*
X223637950Y-76967875D01*
X223637950Y-76282075D01*
X223660528Y-76097572D01*
X223728261Y-75916597D01*
X223841150Y-75739150D01*
X223957037Y-75623262D01*
X224107850Y-75529600D01*
X224285650Y-75467687D01*
X224482500Y-75447050D01*
X224707572Y-75473508D01*
X224904422Y-75552883D01*
X225073050Y-75685175D01*
X225203225Y-75630142D01*
X225369383Y-75558175D01*
X225571525Y-75469275D01*
X225736625Y-75421650D01*
X225847750Y-75470862D01*
X225939825Y-75618500D01*
X225984275Y-75782012D01*
X225954113Y-75883612D01*
X225892200Y-75942350D01*
X225801536Y-75983978D01*
X225609978Y-76066528D01*
X225317525Y-76190000D01*
X225323875Y-76288425D01*
X225323875Y-76688475D01*
X225682650Y-76688475D01*
X225792188Y-76693237D01*
X225876325Y-76723400D01*
X225940619Y-76807537D01*
X225962050Y-76971050D01*
X225932681Y-77147262D01*
X225844575Y-77231400D01*
X225679475Y-77250450D01*
X225685825Y-77456825D01*
X225862038Y-77486194D01*
X225946175Y-77574300D01*
X225965225Y-77739400D01*
X225965225Y-78996700D01*
X225935063Y-79172912D01*
X225844575Y-79257050D01*
X225682650Y-79276100D01*
X224095150Y-80288925D01*
X225692175Y-80288925D01*
X225800125Y-80293688D01*
X225881088Y-80322263D01*
X225946175Y-80406400D01*
X225965225Y-80565150D01*
X225946175Y-80722313D01*
X225881088Y-80804863D01*
X225798538Y-80833438D01*
X225689000Y-80838200D01*
X224095150Y-80838200D01*
X224095150Y-81447800D01*
X224071337Y-81597025D01*
X223996725Y-81660525D01*
X223863375Y-81676400D01*
X223731612Y-81660525D01*
X223663350Y-81606550D01*
X223634775Y-81444625D01*
X223090395Y-71089495D01*
X223090395Y-71602125D01*
X223090395Y-88397875D01*
G37*
G36*
X184945300Y-85183287D02*
G01*
X184958794Y-85304731D01*
X184999275Y-85440462D01*
X185129847Y-85353150D01*
X185223113Y-85281712D01*
X185297725Y-85161062D01*
X185258831Y-85056287D01*
X185142150Y-85021362D01*
X184994513Y-85061844D01*
X184945300Y-85183287D01*
G37*
G36*
X198978800Y-86097687D02*
G01*
X199099450Y-85996087D01*
X199043888Y-85878612D01*
X198885138Y-85834162D01*
X198680350Y-85918300D01*
X198578750Y-86097687D01*
X198978800Y-86097687D01*
G37*
G36*
X179223950Y-86097687D02*
G01*
X179344600Y-85996087D01*
X179289037Y-85878612D01*
X179130287Y-85834162D01*
X178925500Y-85918300D01*
X178823900Y-86097687D01*
X179223950Y-86097687D01*
G37*
G36*
X185043725Y-86596163D02*
G01*
X185186600Y-86583463D01*
X185065950Y-86466340D01*
X184949533Y-86335107D01*
X184837350Y-86189763D01*
X184764325Y-86380263D01*
X184834175Y-86542188D01*
X185043725Y-86596163D01*
G37*
G36*
X196673750Y-86181825D02*
G01*
X196754713Y-86367563D01*
X196951563Y-86450113D01*
X197143650Y-86365975D01*
X197219850Y-86181825D01*
X197146825Y-85994500D01*
X196949975Y-85907187D01*
X196749950Y-85992912D01*
X196673750Y-86181825D01*
G37*
G36*
X194794150Y-86205638D02*
G01*
X194876700Y-86394550D01*
X195076725Y-86478688D01*
X195271988Y-86392963D01*
X195349775Y-86204050D01*
X195275163Y-86011962D01*
X195075138Y-85923062D01*
X194871938Y-86011962D01*
X194794150Y-86205638D01*
G37*
G36*
X157633950Y-86396138D02*
G01*
X157833975Y-86481863D01*
X158029237Y-86396138D01*
X158107025Y-86207225D01*
X158032412Y-86015137D01*
X157830800Y-85926237D01*
X157627600Y-86013550D01*
X157551400Y-86205638D01*
X157633950Y-86396138D01*
G37*
G36*
X210100825Y-86432650D02*
G01*
X210307200Y-86510438D01*
X210516750Y-86431063D01*
X210595331Y-86332638D01*
X210621525Y-86196113D01*
X210596919Y-86060381D01*
X210523100Y-85964337D01*
X210310375Y-85888137D01*
X210097650Y-85967512D01*
X210023831Y-86065541D01*
X209999225Y-86200875D01*
X210024625Y-86335813D01*
X210100825Y-86432650D01*
G37*
G36*
X190533300Y-86432650D02*
G01*
X190739675Y-86510438D01*
X190949225Y-86431063D01*
X191027806Y-86332638D01*
X191054000Y-86196113D01*
X191029394Y-86060381D01*
X190955575Y-85964337D01*
X190742850Y-85888137D01*
X190530125Y-85967512D01*
X190456306Y-86065541D01*
X190431700Y-86200875D01*
X190457100Y-86335813D01*
X190533300Y-86432650D01*
G37*
G36*
X204036575Y-86432650D02*
G01*
X204242950Y-86510438D01*
X204452500Y-86431063D01*
X204531081Y-86332638D01*
X204557275Y-86196113D01*
X204532669Y-86060381D01*
X204458850Y-85964337D01*
X204246125Y-85888137D01*
X204033400Y-85967512D01*
X203959581Y-86065541D01*
X203934975Y-86200875D01*
X203960375Y-86335813D01*
X204036575Y-86432650D01*
G37*
G36*
X162936200Y-86259613D02*
G01*
X162918737Y-86138962D01*
X162860000Y-86075462D01*
X162682200Y-86050062D01*
X162510750Y-86005612D01*
X162453600Y-85823050D01*
X162512337Y-85640487D01*
X162707600Y-85596037D01*
X162860000Y-85529362D01*
X162869525Y-85415062D01*
X162817137Y-85303937D01*
X162659975Y-85272187D01*
X162215475Y-85272187D01*
X162215475Y-86475513D01*
X162736175Y-86475513D01*
X162886194Y-86421538D01*
X162936200Y-86259613D01*
G37*
G36*
X156995775Y-84067407D02*
G01*
X158149887Y-84670525D01*
X158234025Y-84605437D01*
X158394362Y-84586387D01*
X158554700Y-84605437D01*
X158638837Y-84672112D01*
X158957925Y-84672112D01*
X159042062Y-84607819D01*
X159205575Y-84586387D01*
X159365912Y-84607819D01*
X159446875Y-84672112D01*
X159477037Y-84756250D01*
X159481800Y-84865787D01*
X161291550Y-85386487D01*
X161432044Y-85477769D01*
X161478875Y-85586512D01*
X161453475Y-85694462D01*
X161653500Y-86751738D01*
X161653500Y-84989612D01*
X161658262Y-84878487D01*
X161688425Y-84795937D01*
X161772562Y-84731644D01*
X161936075Y-84710212D01*
X162736175Y-84710212D01*
X162920325Y-84732790D01*
X163739475Y-84799112D01*
X163825200Y-84737200D01*
X163987125Y-84716562D01*
X164134762Y-84737200D01*
X164215725Y-84780062D01*
X164234775Y-84799112D01*
X164955500Y-85745262D01*
X165157049Y-85478943D01*
X165329896Y-85251486D01*
X165474041Y-85062891D01*
X165589484Y-84913158D01*
X165676225Y-84802287D01*
X165767109Y-84737994D01*
X165931812Y-84716562D01*
X166094134Y-84737994D01*
X166177875Y-84802287D01*
X166208037Y-84888012D01*
X166212800Y-84999137D01*
X166453306Y-86437016D01*
X166555700Y-86316763D01*
X166723975Y-86240563D01*
X166830337Y-86280250D01*
X166971625Y-86399313D01*
X167098625Y-86502500D01*
X167251025Y-86551713D01*
X167415067Y-86524901D01*
X167513492Y-86444468D01*
X167546300Y-86310413D01*
X167465337Y-86188175D01*
X167263725Y-86116737D01*
X167138312Y-86087766D01*
X167003375Y-86045300D01*
X166868437Y-85991722D01*
X166743025Y-85929412D01*
X166632297Y-85843291D01*
X166541412Y-85718275D01*
X166480691Y-85559128D01*
X166460450Y-85370612D01*
X166483557Y-85192283D01*
X166552878Y-85029829D01*
X166668412Y-84883250D01*
X166823811Y-84767715D01*
X167012724Y-84698394D01*
X167235150Y-84675287D01*
X167417316Y-84687591D01*
X167582812Y-84724500D01*
X167800300Y-84824512D01*
X167879675Y-84884837D01*
X167978100Y-85040412D01*
X167901900Y-85215037D01*
X167792362Y-85334100D01*
X167679650Y-85373787D01*
X167514550Y-85310287D01*
X167478037Y-85278537D01*
X167428825Y-85237262D01*
X167258962Y-85195987D01*
X167087512Y-85245200D01*
X167019250Y-85381725D01*
X167100212Y-85523012D01*
X167301825Y-85596037D01*
X167428031Y-85620247D01*
X167565350Y-85654775D01*
X167702669Y-85698828D01*
X167828875Y-85751612D01*
X167939603Y-85829797D01*
X168030487Y-85950050D01*
X168091209Y-86107609D01*
X168111450Y-86297713D01*
X168090812Y-86491784D01*
X168028900Y-86661250D01*
X167933650Y-86800553D01*
X170057725Y-86599338D01*
X169302075Y-86599338D01*
X169159994Y-86572350D01*
X169089350Y-86491388D01*
X169073475Y-86345338D01*
X169092525Y-86202463D01*
X169152850Y-86126262D01*
X169305250Y-86097687D01*
X170060900Y-86097687D01*
X170202187Y-86123881D01*
X170270450Y-86202463D01*
X170289500Y-86348513D01*
X170272037Y-86492975D01*
X170216475Y-86570763D01*
X170057725Y-86599338D01*
X167933650Y-86800553D01*
X167813000Y-86904138D01*
X171549975Y-86670775D01*
X171431309Y-86516788D01*
X171335662Y-86324700D01*
X171272559Y-86104434D01*
X171251525Y-85865912D01*
X171272162Y-85629772D01*
X171334075Y-85416650D01*
X171428134Y-85232500D01*
X171545212Y-85083275D01*
X171682928Y-84962228D01*
X171838900Y-84862612D01*
X172046686Y-84767362D01*
X172255178Y-84710212D01*
X172464375Y-84691162D01*
X172614791Y-84702672D01*
X172767587Y-84737200D01*
X173000950Y-84830862D01*
X173077150Y-84875312D01*
X173166050Y-84932462D01*
X173248600Y-85083275D01*
X181030525Y-85367437D01*
X181230374Y-85394425D01*
X181406586Y-85475387D01*
X181559162Y-85610325D01*
X181676461Y-85784068D01*
X181990962Y-85872262D01*
X181944925Y-85688112D01*
X181960800Y-85499200D01*
X182005250Y-85415062D01*
X182132250Y-85373787D01*
X182237025Y-85386487D01*
X182237025Y-85059462D01*
X182241787Y-84951512D01*
X182271950Y-84875312D01*
X182353706Y-84815781D01*
X182516425Y-84795937D01*
X182688669Y-84825306D01*
X182773600Y-84913412D01*
X182789475Y-85075337D01*
X182789475Y-85386487D01*
X183000612Y-85373787D01*
X183108562Y-85378550D01*
X183192700Y-85408712D01*
X183254612Y-85490469D01*
X183275250Y-85653187D01*
X183253819Y-85814319D01*
X183189525Y-85897662D01*
X183105387Y-85924650D01*
X182995850Y-85929412D01*
X182789475Y-85916712D01*
X182789475Y-86354863D01*
X182816463Y-86478688D01*
X182918062Y-86516788D01*
X183032362Y-86521550D01*
X183116500Y-86551713D01*
X183189525Y-86764438D01*
X183167300Y-86925569D01*
X183100625Y-87008913D01*
X183016487Y-87035900D01*
X182910125Y-87040663D01*
X182707631Y-87024082D01*
X182540414Y-86974340D01*
X182408475Y-86891438D01*
X182313225Y-86769024D01*
X182256075Y-86600749D01*
X182237025Y-86386613D01*
X182237025Y-85916712D01*
X182106850Y-85926237D01*
X181990962Y-85872262D01*
X181676461Y-85784068D01*
X181746840Y-85981447D01*
X181770300Y-86202463D01*
X181770300Y-86761263D01*
X181765537Y-86870800D01*
X181738550Y-86951763D01*
X181654412Y-87016056D01*
X181490900Y-87037488D01*
X181313100Y-87008119D01*
X181230550Y-86920013D01*
X181211500Y-86758088D01*
X181211500Y-86199288D01*
X181136887Y-85996087D01*
X180936862Y-85923062D01*
X180733662Y-85999262D01*
X180655875Y-86199288D01*
X180655875Y-86761263D01*
X180651112Y-86870800D01*
X180620950Y-86951763D01*
X180539194Y-87016056D01*
X180376475Y-87037488D01*
X180215344Y-87016056D01*
X180132000Y-86951763D01*
X180105012Y-86867625D01*
X180100250Y-86758088D01*
X180100250Y-85634137D01*
X180105012Y-85527775D01*
X180135175Y-85446812D01*
X180218519Y-85387281D01*
X180379650Y-85367437D01*
X180536019Y-85385694D01*
X180617775Y-85440462D01*
X180649525Y-85570637D01*
X180706675Y-85507137D01*
X180792400Y-85440462D01*
X181030525Y-85367437D01*
X173248600Y-85083275D01*
X173181925Y-85259487D01*
X173064450Y-85388075D01*
X172959675Y-85430937D01*
X172797750Y-85361087D01*
X172642175Y-85280125D01*
X172442150Y-85253137D01*
X172237362Y-85288856D01*
X172035750Y-85396012D01*
X171877000Y-85592862D01*
X171829375Y-85728197D01*
X171813500Y-85880200D01*
X171829375Y-86032203D01*
X171877000Y-86167537D01*
X172038925Y-86367563D01*
X172236569Y-86472338D01*
X172442150Y-86507263D01*
X172627887Y-86481863D01*
X172753300Y-86431063D01*
X172810450Y-86389788D01*
X172962850Y-86326288D01*
X173065244Y-86370738D01*
X173175575Y-86504088D01*
X173245425Y-86681888D01*
X173202562Y-86793013D01*
X173102550Y-86872388D01*
X172993012Y-86939063D01*
X172778700Y-87021613D01*
X172619553Y-87059713D01*
X172465962Y-87072413D01*
X172314356Y-87062491D01*
X172161162Y-87032725D01*
X172004794Y-86979544D01*
X171843662Y-86899375D01*
X171688484Y-86795394D01*
X171549975Y-86670775D01*
X167813000Y-86904138D01*
X167637669Y-86997624D01*
X167454578Y-87053715D01*
X167263725Y-87072413D01*
X167118469Y-87063284D01*
X166981150Y-87035900D01*
X166765250Y-86945413D01*
X166622375Y-86845400D01*
X166530300Y-86748563D01*
X166501725Y-86713638D01*
X166419175Y-86531075D01*
X166453306Y-86437016D01*
X166212800Y-84999137D01*
X166212800Y-86761263D01*
X166182637Y-86935094D01*
X166092150Y-87018438D01*
X165939750Y-87037488D01*
X165793700Y-87021613D01*
X165711150Y-86983513D01*
X165666700Y-86920013D01*
X165650825Y-86754913D01*
X165650825Y-85691287D01*
X165553194Y-85818684D01*
X165419050Y-86004025D01*
X165294431Y-86178253D01*
X165225375Y-86272313D01*
X165168225Y-86346925D01*
X165090437Y-86404075D01*
X164957087Y-86440588D01*
X164826912Y-86407250D01*
X164742775Y-86342163D01*
X164717375Y-86307238D01*
X164622919Y-86183016D01*
X164466550Y-85969100D01*
X164322087Y-85770266D01*
X164263350Y-85691287D01*
X164263350Y-86761263D01*
X164258587Y-86870800D01*
X164228425Y-86951763D01*
X164142700Y-87016056D01*
X163980775Y-87037488D01*
X163823612Y-87016056D01*
X163739475Y-86951763D01*
X163709312Y-86869213D01*
X163704550Y-86754913D01*
X163704550Y-84992787D01*
X163709312Y-84883250D01*
X163739475Y-84799112D01*
X162920325Y-84732790D01*
X163083308Y-84800524D01*
X163225125Y-84913412D01*
X163339778Y-85060168D01*
X163408569Y-85225268D01*
X163431500Y-85408712D01*
X163401337Y-85609531D01*
X163310850Y-85792887D01*
X163414919Y-85947051D01*
X163477361Y-86113210D01*
X163498175Y-86291363D01*
X163471187Y-86491564D01*
X163398692Y-86668835D01*
X163280687Y-86823175D01*
X163129875Y-86942238D01*
X162958954Y-87013675D01*
X162767925Y-87037488D01*
X161932900Y-87037488D01*
X161756687Y-87007325D01*
X161672550Y-86916838D01*
X161653500Y-86751738D01*
X161453475Y-85694462D01*
X161428075Y-85748437D01*
X160596225Y-87608988D01*
X174197925Y-87034313D01*
X173996312Y-87007325D01*
X173819042Y-86926363D01*
X173666112Y-86791425D01*
X173548814Y-86617682D01*
X173478435Y-86420303D01*
X173454975Y-86199288D01*
X173454975Y-85643662D01*
X173459737Y-85532537D01*
X173486725Y-85449987D01*
X173570862Y-85385694D01*
X173734375Y-85364262D01*
X173910587Y-85394425D01*
X173994725Y-85484912D01*
X174013775Y-85646837D01*
X174013775Y-86202463D01*
X174088387Y-86405663D01*
X174288412Y-86478688D01*
X174491612Y-86402488D01*
X174569400Y-86202463D01*
X174569400Y-85640487D01*
X174574162Y-85530950D01*
X174604325Y-85446812D01*
X174686081Y-85384900D01*
X174848800Y-85364262D01*
X175009931Y-85385694D01*
X175093275Y-85449987D01*
X175120262Y-85534125D01*
X175125025Y-85643662D01*
X175379025Y-86758088D01*
X175379025Y-85643662D01*
X175383787Y-85534125D01*
X175410775Y-85453162D01*
X175494912Y-85388869D01*
X175658425Y-85367437D01*
X175813206Y-85385694D01*
X175896550Y-85440462D01*
X175931475Y-85545237D01*
X175977512Y-85491262D01*
X176106100Y-85405537D01*
X176279137Y-85351562D01*
X176404550Y-85359500D01*
X176515675Y-85386487D01*
X176615687Y-85451575D01*
X176655375Y-85599212D01*
X176830000Y-86758088D01*
X176830000Y-85643662D01*
X176834762Y-85534125D01*
X176861750Y-85453162D01*
X176945887Y-85388869D01*
X177109400Y-85367437D01*
X177264181Y-85385694D01*
X177347525Y-85440462D01*
X177382450Y-85545237D01*
X177428487Y-85491262D01*
X177557075Y-85405537D01*
X177730112Y-85351562D01*
X177855525Y-85359500D01*
X177966650Y-85386487D01*
X178066662Y-85451575D01*
X178106350Y-85599212D01*
X178046025Y-85821462D01*
X177871400Y-85942112D01*
X177761862Y-85916712D01*
X177623750Y-85891312D01*
X177463412Y-85951637D01*
X177388800Y-86097687D01*
X178233350Y-86211988D01*
X178262101Y-85963103D01*
X178348356Y-85749849D01*
X178492112Y-85572225D01*
X178678908Y-85439051D01*
X178894279Y-85359147D01*
X179138225Y-85332512D01*
X179344203Y-85351959D01*
X179520812Y-85410300D01*
X179668053Y-85507534D01*
X179785925Y-85643662D01*
X179866887Y-85816303D01*
X179893875Y-86004025D01*
X179869666Y-86173887D01*
X179797037Y-86292950D01*
X179582725Y-86386613D01*
X178830250Y-86386613D01*
X178935025Y-86535838D01*
X179144575Y-86596163D01*
X179308881Y-86586638D01*
X179433500Y-86558063D01*
X179468425Y-86545363D01*
X179595425Y-86510438D01*
X179770050Y-86653313D01*
X179811325Y-86799363D01*
X179769058Y-86922989D01*
X179642256Y-87011294D01*
X179430920Y-87064277D01*
X179135050Y-87081938D01*
X178913197Y-87061697D01*
X178717537Y-87000975D01*
X178555216Y-86906916D01*
X178433375Y-86786663D01*
X178322250Y-86608510D01*
X178255575Y-86416951D01*
X178233350Y-86211988D01*
X177388800Y-86097687D01*
X177388800Y-86764438D01*
X177384037Y-86873975D01*
X177353875Y-86958113D01*
X177268150Y-87020025D01*
X177106225Y-87040663D01*
X176887150Y-86986688D01*
X176830000Y-86850163D01*
X176830000Y-86758088D01*
X176655375Y-85599212D01*
X176595050Y-85821462D01*
X176420425Y-85942112D01*
X176310887Y-85916712D01*
X176172775Y-85891312D01*
X176012437Y-85951637D01*
X175937825Y-86097687D01*
X175937825Y-86764438D01*
X175933062Y-86873975D01*
X175902900Y-86958113D01*
X175817175Y-87020025D01*
X175655250Y-87040663D01*
X175436175Y-86986688D01*
X175379025Y-86850163D01*
X175379025Y-86758088D01*
X175125025Y-85643662D01*
X175125025Y-86767613D01*
X175120262Y-86873975D01*
X175090100Y-86954938D01*
X175005169Y-87016850D01*
X174845625Y-87037488D01*
X174689256Y-87018438D01*
X174607500Y-86961288D01*
X174575750Y-86831113D01*
X174518600Y-86894613D01*
X174432875Y-86964463D01*
X174197925Y-87034313D01*
X160596225Y-87608988D01*
X160553362Y-87701063D01*
X160497800Y-87761388D01*
X160402550Y-87789963D01*
X160234275Y-87742338D01*
X160093781Y-87651850D01*
X160046950Y-87545488D01*
X160066000Y-87471470D01*
X160123150Y-87325619D01*
X160218400Y-87107933D01*
X160351750Y-86818413D01*
X159719925Y-85754787D01*
X159656425Y-85599212D01*
X159699287Y-85497612D01*
X159827875Y-85396012D01*
X159996150Y-85332512D01*
X160094575Y-85357912D01*
X160150137Y-85410300D01*
X160202525Y-85497612D01*
X160324762Y-85705575D01*
X160427950Y-85880376D01*
X160527962Y-86047064D01*
X160624800Y-86205638D01*
X160675600Y-86082209D01*
X160796250Y-85813525D01*
X160915709Y-85551984D01*
X160962937Y-85449987D01*
X160999450Y-85396012D01*
X161115337Y-85342037D01*
X161291550Y-85386487D01*
X159481800Y-84865787D01*
X159477037Y-84975325D01*
X159448462Y-85057875D01*
X159364325Y-85122962D01*
X159203987Y-85142012D01*
X159043650Y-85122962D01*
X158959512Y-85056287D01*
X158930937Y-84972150D01*
X158926175Y-84862612D01*
X158930937Y-84753075D01*
X158957925Y-84672112D01*
X158638837Y-84672112D01*
X158667412Y-84756250D01*
X158672175Y-84865787D01*
X158926175Y-85646837D01*
X158930937Y-85537300D01*
X158957925Y-85453162D01*
X159042062Y-85391250D01*
X159205575Y-85370612D01*
X159421475Y-85424587D01*
X159478625Y-85561112D01*
X159481800Y-85653187D01*
X159481800Y-86764438D01*
X159477037Y-86873975D01*
X159446875Y-86958113D01*
X159365119Y-87020025D01*
X159202400Y-87040663D01*
X159041269Y-87019231D01*
X158957925Y-86954938D01*
X158930937Y-86872388D01*
X158926175Y-86761263D01*
X158926175Y-85646837D01*
X158672175Y-84865787D01*
X158672175Y-86761263D01*
X158667412Y-86870800D01*
X158637250Y-86951763D01*
X158546366Y-87016056D01*
X158368962Y-87037488D01*
X158197116Y-86998594D01*
X158122900Y-86881913D01*
X157963356Y-86996213D01*
X157751425Y-87034313D01*
X157566569Y-87006619D01*
X157393003Y-86923540D01*
X157230725Y-86785075D01*
X157100197Y-86609744D01*
X157021881Y-86416069D01*
X156995775Y-86204050D01*
X157022057Y-85991854D01*
X157100903Y-85797650D01*
X157232312Y-85621437D01*
X157395119Y-85482090D01*
X157568157Y-85398482D01*
X157751425Y-85370612D01*
X157960181Y-85410300D01*
X158116550Y-85529362D01*
X158116550Y-84862612D01*
X158121312Y-84753075D01*
X158149887Y-84670525D01*
X156995775Y-84067407D01*
X156483145Y-84067407D01*
X156275584Y-84077604D01*
X156070023Y-84108096D01*
X155868440Y-84158590D01*
X155672777Y-84228599D01*
X155484918Y-84317450D01*
X155306673Y-84424286D01*
X155139758Y-84548079D01*
X154985781Y-84687636D01*
X154846223Y-84841613D01*
X154722431Y-85008529D01*
X154615595Y-85186774D01*
X154526744Y-85374632D01*
X154456735Y-85570295D01*
X154406241Y-85771878D01*
X154375749Y-85977440D01*
X154365552Y-86185000D01*
X154375749Y-86392560D01*
X154406241Y-86598122D01*
X154456735Y-86799705D01*
X154526744Y-86995368D01*
X154615595Y-87183226D01*
X154722431Y-87361471D01*
X154846223Y-87528387D01*
X154985781Y-87682364D01*
X155139758Y-87821921D01*
X155306673Y-87945714D01*
X186177200Y-87043838D01*
X185993756Y-87027963D01*
X185811722Y-86980338D01*
X185631100Y-86900963D01*
X185429311Y-86992685D01*
X185226111Y-87047718D01*
X185021500Y-87066063D01*
X184772174Y-87047189D01*
X184568181Y-86990568D01*
X184409519Y-86896200D01*
X184296189Y-86764085D01*
X184228191Y-86594222D01*
X184205525Y-86386613D01*
X184228345Y-86213575D01*
X184296806Y-86046887D01*
X184410908Y-85886550D01*
X184570650Y-85732562D01*
X184500094Y-85550176D01*
X184457761Y-85379785D01*
X184443650Y-85221387D01*
X184464817Y-85028065D01*
X184528317Y-84871432D01*
X184634150Y-84751487D01*
X184775614Y-84666821D01*
X184946006Y-84616021D01*
X185145325Y-84599087D01*
X185341822Y-84616021D01*
X185503747Y-84666821D01*
X187539275Y-84748312D01*
X187699613Y-84694337D01*
X187783750Y-84707037D01*
X187837725Y-84751487D01*
X187890113Y-84835625D01*
X187932578Y-84924525D01*
X188012350Y-85099150D01*
X188114347Y-85323384D01*
X188223488Y-85561112D01*
X188333025Y-85798841D01*
X188436213Y-86023075D01*
X188514397Y-86192541D01*
X188548925Y-86265963D01*
X189183925Y-84875312D01*
X189228375Y-84780062D01*
X189368075Y-84694337D01*
X189555400Y-84748312D01*
X189695894Y-84845150D01*
X189742725Y-84951512D01*
X189695100Y-85103912D01*
X190136425Y-85576987D01*
X190322692Y-85439404D01*
X190525892Y-85356854D01*
X190746025Y-85329337D01*
X190965806Y-85356678D01*
X191167947Y-85438699D01*
X191352450Y-85575400D01*
X191498853Y-85754435D01*
X191586694Y-85963456D01*
X191615975Y-86202463D01*
X191581844Y-86451303D01*
X191479450Y-86670775D01*
X191328241Y-86848575D01*
X191147663Y-86972400D01*
X190948828Y-87045028D01*
X190742850Y-87069238D01*
X190536475Y-87043441D01*
X190336450Y-86966050D01*
X190155078Y-86838256D01*
X190004663Y-86661250D01*
X189903459Y-86446541D01*
X189869725Y-86205638D01*
X189899358Y-85966454D01*
X189988258Y-85756904D01*
X190136425Y-85576987D01*
X189695100Y-85103912D01*
X188818800Y-86881913D01*
X188712438Y-86994625D01*
X188564800Y-87037488D01*
X188533050Y-87037488D01*
X188382238Y-86994625D01*
X188275875Y-86881913D01*
X187399575Y-85103912D01*
X187351950Y-84951512D01*
X187398781Y-84845150D01*
X187539275Y-84748312D01*
X185503747Y-84666821D01*
X185631100Y-84751487D01*
X185754925Y-84931669D01*
X185796200Y-85167412D01*
X185750956Y-85378550D01*
X185615225Y-85567462D01*
X185454888Y-85707956D01*
X185240575Y-85862737D01*
X185368986Y-86019371D01*
X185504453Y-86159071D01*
X185646975Y-86281838D01*
X185722381Y-86143725D01*
X185770800Y-86002437D01*
X185858113Y-85897662D01*
X186056550Y-85862737D01*
X186220063Y-85891312D01*
X186283563Y-85950050D01*
X186288325Y-86027837D01*
X186260808Y-86188351D01*
X186195192Y-86348160D01*
X186091475Y-86507263D01*
X186180375Y-86516788D01*
X186366113Y-86579494D01*
X186428025Y-86767613D01*
X186370875Y-86993038D01*
X186177200Y-87043838D01*
X155306673Y-87945714D01*
X155484918Y-88052550D01*
X155672777Y-88141401D01*
X155868440Y-88211410D01*
X156070023Y-88261904D01*
X156275584Y-88292396D01*
X156483145Y-88302593D01*
X156995775Y-88302593D01*
X212666225Y-88302593D01*
X207805300Y-86764438D01*
X207800538Y-86873975D01*
X207770375Y-86958113D01*
X207688619Y-87020025D01*
X207525900Y-87040663D01*
X207364769Y-87019231D01*
X207281425Y-86954938D01*
X207254438Y-86872388D01*
X207249675Y-86761263D01*
X207249675Y-85646837D01*
X207254438Y-85537300D01*
X207281425Y-85453162D01*
X207365563Y-85391250D01*
X207529075Y-85370612D01*
X207744975Y-85424587D01*
X207802125Y-85561112D01*
X207805300Y-85653187D01*
X208025963Y-85872262D01*
X207979925Y-85688112D01*
X207995800Y-85499200D01*
X208040250Y-85415062D01*
X208167250Y-85373787D01*
X208272025Y-85386487D01*
X208272025Y-85059462D01*
X208276788Y-84951512D01*
X208306950Y-84875312D01*
X208388706Y-84815781D01*
X208551425Y-84795937D01*
X208723669Y-84825306D01*
X208808600Y-84913412D01*
X208824475Y-85075337D01*
X208824475Y-85386487D01*
X209035613Y-85373787D01*
X209143563Y-85378550D01*
X209227700Y-85408712D01*
X209289613Y-85490469D01*
X209310250Y-85653187D01*
X209288819Y-85814319D01*
X209466883Y-85966454D01*
X209555783Y-85756904D01*
X209703950Y-85576987D01*
X209890217Y-85439404D01*
X210093417Y-85356854D01*
X210313550Y-85329337D01*
X210533331Y-85356678D01*
X210735472Y-85438699D01*
X210919975Y-85575400D01*
X211066378Y-85754435D01*
X211154219Y-85963456D01*
X211183500Y-86202463D01*
X211149369Y-86451303D01*
X211046975Y-86670775D01*
X210895766Y-86848575D01*
X210715188Y-86972400D01*
X210516353Y-87045028D01*
X210310375Y-87069238D01*
X210104000Y-87043441D01*
X209903975Y-86966050D01*
X209722603Y-86838256D01*
X209572188Y-86661250D01*
X209470984Y-86446541D01*
X209437250Y-86205638D01*
X209466883Y-85966454D01*
X209288819Y-85814319D01*
X209224525Y-85897662D01*
X209140388Y-85924650D01*
X209030850Y-85929412D01*
X208824475Y-85916712D01*
X208824475Y-86354863D01*
X208851463Y-86478688D01*
X208953063Y-86516788D01*
X209067363Y-86521550D01*
X209151500Y-86551713D01*
X209224525Y-86764438D01*
X209202300Y-86925569D01*
X209135625Y-87008913D01*
X209051488Y-87035900D01*
X208945125Y-87040663D01*
X208742631Y-87024082D01*
X208575414Y-86974340D01*
X208443475Y-86891438D01*
X208348225Y-86769024D01*
X208291075Y-86600749D01*
X208272025Y-86386613D01*
X208272025Y-85916712D01*
X208141850Y-85926237D01*
X208025963Y-85872262D01*
X207805300Y-85653187D01*
X207805300Y-86764438D01*
X212666225Y-88302593D01*
X213178855Y-88302593D01*
X212431275Y-85942112D01*
X212321738Y-85916712D01*
X212183625Y-85891312D01*
X212023288Y-85951637D01*
X211948675Y-86097687D01*
X211948675Y-86764438D01*
X211943913Y-86873975D01*
X211913750Y-86958113D01*
X211828025Y-87020025D01*
X211666100Y-87040663D01*
X211447025Y-86986688D01*
X211389875Y-86850163D01*
X211389875Y-86758088D01*
X211389875Y-85643662D01*
X211394638Y-85534125D01*
X211421625Y-85453162D01*
X211505763Y-85388869D01*
X211669275Y-85367437D01*
X211824056Y-85385694D01*
X211907400Y-85440462D01*
X211942325Y-85545237D01*
X211988363Y-85491262D01*
X212116950Y-85405537D01*
X212289988Y-85351562D01*
X212415400Y-85359500D01*
X212526525Y-85386487D01*
X212626538Y-85451575D01*
X212666225Y-85599212D01*
X212605900Y-85821462D01*
X212431275Y-85942112D01*
X213178855Y-88302593D01*
X213386416Y-88292396D01*
X213591977Y-88261904D01*
X213793560Y-88211410D01*
X213989223Y-88141401D01*
X214177082Y-88052550D01*
X214355327Y-87945714D01*
X214522242Y-87821921D01*
X214676219Y-87682364D01*
X214815777Y-87528387D01*
X214939569Y-87361471D01*
X215046405Y-87183226D01*
X215135256Y-86995368D01*
X215205265Y-86799705D01*
X215255759Y-86598122D01*
X215286251Y-86392560D01*
X215296448Y-86185000D01*
X215286251Y-85977440D01*
X215255759Y-85771878D01*
X207770375Y-84672112D01*
X207800538Y-84756250D01*
X207805300Y-84865787D01*
X207800538Y-84975325D01*
X207771963Y-85057875D01*
X207687825Y-85122962D01*
X207527488Y-85142012D01*
X207367150Y-85122962D01*
X207283013Y-85056287D01*
X207254438Y-84972150D01*
X207249675Y-84862612D01*
X207254438Y-84753075D01*
X207281425Y-84672112D01*
X207365563Y-84607819D01*
X207529075Y-84586387D01*
X207689413Y-84607819D01*
X207770375Y-84672112D01*
X215255759Y-85771878D01*
X215205265Y-85570295D01*
X215135256Y-85374632D01*
X215046405Y-85186774D01*
X214939569Y-85008529D01*
X214815777Y-84841613D01*
X214676219Y-84687636D01*
X214522242Y-84548079D01*
X214355327Y-84424286D01*
X192373213Y-84751487D01*
X192377975Y-84862612D01*
X193073300Y-85386487D01*
X193073300Y-85059462D01*
X193078063Y-84951512D01*
X193108225Y-84875312D01*
X193189981Y-84815781D01*
X193352700Y-84795937D01*
X193524944Y-84825306D01*
X193609875Y-84913412D01*
X193625750Y-85075337D01*
X193625750Y-85386487D01*
X193836888Y-85373787D01*
X193944838Y-85378550D01*
X194028975Y-85408712D01*
X194090888Y-85490469D01*
X194111525Y-85653187D01*
X194090094Y-85814319D01*
X194343653Y-85795181D01*
X194475063Y-85619850D01*
X194637869Y-85481385D01*
X194810907Y-85398306D01*
X194994175Y-85370612D01*
X195191025Y-85408712D01*
X195314850Y-85480150D01*
X195372000Y-85545237D01*
X195444231Y-85411887D01*
X195622825Y-85367437D01*
X195806975Y-85386487D01*
X195891113Y-85453162D01*
X195919688Y-85537300D01*
X195924450Y-85646837D01*
X195924450Y-86758088D01*
X196518175Y-86881913D01*
X196361013Y-86746975D01*
X196233131Y-86576054D01*
X196156401Y-86387142D01*
X196130825Y-86180237D01*
X196156578Y-85973157D01*
X196233836Y-85783715D01*
X196362600Y-85611912D01*
X196522056Y-85476093D01*
X196691389Y-85394601D01*
X196870600Y-85367437D01*
X197067450Y-85407125D01*
X197189688Y-85480150D01*
X197242075Y-85542062D01*
X197307163Y-85407125D01*
X197486550Y-85361087D01*
X197667525Y-85380137D01*
X197748488Y-85445225D01*
X197777063Y-85526187D01*
X197781825Y-85634137D01*
X198016951Y-85963103D01*
X198103206Y-85749849D01*
X198246963Y-85572225D01*
X198433758Y-85439051D01*
X198649129Y-85359147D01*
X198893075Y-85332512D01*
X199099053Y-85351959D01*
X199275663Y-85410300D01*
X199422903Y-85507534D01*
X199540775Y-85643662D01*
X199621738Y-85816303D01*
X199648725Y-86004025D01*
X199624516Y-86173887D01*
X199551888Y-86292950D01*
X200658375Y-86754913D01*
X200658375Y-84992787D01*
X200663138Y-84883250D01*
X200693300Y-84799112D01*
X200779025Y-84737200D01*
X200940950Y-84716562D01*
X201088588Y-84737200D01*
X201169550Y-84780062D01*
X201188600Y-84799112D01*
X201909325Y-85745262D01*
X202110874Y-85478943D01*
X202283721Y-85251486D01*
X202427866Y-85062891D01*
X202543309Y-84913158D01*
X202630050Y-84802287D01*
X202720934Y-84737994D01*
X202885638Y-84716562D01*
X203047959Y-84737994D01*
X203131700Y-84802287D01*
X206255900Y-85367437D01*
X206455749Y-85394425D01*
X206631961Y-85475387D01*
X206784538Y-85610325D01*
X206901836Y-85784068D01*
X206972215Y-85981447D01*
X206995675Y-86202463D01*
X206995675Y-86761263D01*
X206990913Y-86870800D01*
X206963925Y-86951763D01*
X206879788Y-87016056D01*
X206716275Y-87037488D01*
X206538475Y-87008119D01*
X206455925Y-86920013D01*
X206436875Y-86758088D01*
X206436875Y-86199288D01*
X206362263Y-85996087D01*
X206162238Y-85923062D01*
X205959038Y-85999262D01*
X205881250Y-86199288D01*
X205881250Y-86761263D01*
X205876488Y-86870800D01*
X205846325Y-86951763D01*
X205764569Y-87016056D01*
X205601850Y-87037488D01*
X205440719Y-87016056D01*
X205357375Y-86951763D01*
X205330388Y-86867625D01*
X205325625Y-86758088D01*
X205325625Y-85634137D01*
X205330388Y-85527775D01*
X205360550Y-85446812D01*
X205443894Y-85387281D01*
X205605025Y-85367437D01*
X205761394Y-85385694D01*
X205843150Y-85440462D01*
X205874900Y-85570637D01*
X205932050Y-85507137D01*
X206017775Y-85440462D01*
X206255900Y-85367437D01*
X203131700Y-84802287D01*
X203161863Y-84888012D01*
X203166625Y-84999137D01*
X203825967Y-85439404D01*
X204029167Y-85356854D01*
X204249300Y-85329337D01*
X204469081Y-85356678D01*
X204671222Y-85438699D01*
X204855725Y-85575400D01*
X205002128Y-85754435D01*
X205089969Y-85963456D01*
X205119250Y-86202463D01*
X205085119Y-86451303D01*
X204982725Y-86670775D01*
X204831516Y-86848575D01*
X204650938Y-86972400D01*
X204452103Y-87045028D01*
X204246125Y-87069238D01*
X204039750Y-87043441D01*
X203839725Y-86966050D01*
X203658353Y-86838256D01*
X203507938Y-86661250D01*
X203406734Y-86446541D01*
X203373000Y-86205638D01*
X203402633Y-85966454D01*
X203491533Y-85756904D01*
X203639700Y-85576987D01*
X203825967Y-85439404D01*
X203166625Y-84999137D01*
X203166625Y-86761263D01*
X203136463Y-86935094D01*
X203045975Y-87018438D01*
X202893575Y-87037488D01*
X202747525Y-87021613D01*
X202664975Y-86983513D01*
X202620525Y-86920013D01*
X202604650Y-86754913D01*
X202604650Y-85691287D01*
X202507019Y-85818684D01*
X202372875Y-86004025D01*
X202248256Y-86178253D01*
X202179200Y-86272313D01*
X202122050Y-86346925D01*
X202044263Y-86404075D01*
X201910913Y-86440588D01*
X201780738Y-86407250D01*
X201696600Y-86342163D01*
X201671200Y-86307238D01*
X201576744Y-86183016D01*
X201420375Y-85969100D01*
X201275913Y-85770266D01*
X201217175Y-85691287D01*
X201217175Y-86761263D01*
X201212413Y-86870800D01*
X201182250Y-86951763D01*
X201096525Y-87016056D01*
X200934600Y-87037488D01*
X200777438Y-87016056D01*
X200693300Y-86951763D01*
X200663138Y-86869213D01*
X200658375Y-86754913D01*
X199551888Y-86292950D01*
X199337575Y-86386613D01*
X198585100Y-86386613D01*
X198689875Y-86535838D01*
X198899425Y-86596163D01*
X199063731Y-86586638D01*
X199188350Y-86558063D01*
X199223275Y-86545363D01*
X199350275Y-86510438D01*
X199524900Y-86653313D01*
X199566175Y-86799363D01*
X199523908Y-86922989D01*
X199397106Y-87011294D01*
X199185770Y-87064277D01*
X198889900Y-87081938D01*
X198668047Y-87061697D01*
X198472388Y-87000975D01*
X198310066Y-86906916D01*
X198188225Y-86786663D01*
X198077100Y-86608510D01*
X198010425Y-86416951D01*
X197988200Y-86211988D01*
X198016951Y-85963103D01*
X197781825Y-85634137D01*
X197781825Y-86948588D01*
X197753603Y-87176306D01*
X197668936Y-87372626D01*
X197527825Y-87537550D01*
X197351436Y-87661904D01*
X197160936Y-87736517D01*
X196956325Y-87761388D01*
X196720581Y-87732019D01*
X196495950Y-87643913D01*
X196331644Y-87531994D01*
X196276875Y-87431188D01*
X196372125Y-87212113D01*
X196465788Y-87120038D01*
X196543575Y-87094638D01*
X196635650Y-87132738D01*
X196794400Y-87220844D01*
X196965850Y-87250213D01*
X197162700Y-87154963D01*
X197238900Y-86926363D01*
X197238900Y-86831113D01*
X197082531Y-86950175D01*
X196854725Y-86989863D01*
X196682746Y-86962875D01*
X196518175Y-86881913D01*
X195924450Y-86758088D01*
X195919688Y-86867625D01*
X195892700Y-86951763D01*
X195816103Y-87013675D01*
X195675213Y-87034313D01*
X195443438Y-86991450D01*
X195375175Y-86866038D01*
X195218409Y-86992244D01*
X194983063Y-87034313D01*
X194804381Y-87006443D01*
X194634518Y-86922835D01*
X194473475Y-86783488D01*
X194342947Y-86607275D01*
X194264631Y-86413071D01*
X194238525Y-86200875D01*
X194264807Y-85988856D01*
X194343653Y-85795181D01*
X194090094Y-85814319D01*
X194025800Y-85897662D01*
X193941663Y-85924650D01*
X193832125Y-85929412D01*
X193625750Y-85916712D01*
X193625750Y-86354863D01*
X193652738Y-86478688D01*
X193754338Y-86516788D01*
X193868638Y-86521550D01*
X193952775Y-86551713D01*
X194025800Y-86764438D01*
X194003575Y-86925569D01*
X193936900Y-87008913D01*
X193852763Y-87035900D01*
X193746400Y-87040663D01*
X193543906Y-87024082D01*
X193376689Y-86974340D01*
X193244750Y-86891438D01*
X193149500Y-86769024D01*
X193092350Y-86600749D01*
X193073300Y-86386613D01*
X193073300Y-85916712D01*
X192943125Y-85926237D01*
X192827238Y-85872262D01*
X192781200Y-85688112D01*
X192797075Y-85499200D01*
X192841525Y-85415062D01*
X192968525Y-85373787D01*
X193073300Y-85386487D01*
X192377975Y-84862612D01*
X192377975Y-86332638D01*
X192397025Y-86477100D01*
X192481163Y-86507263D01*
X192568475Y-86512025D01*
X192622450Y-86539013D01*
X192685950Y-86764438D01*
X192670075Y-86925569D01*
X192622450Y-87008913D01*
X192482750Y-87042250D01*
X192228750Y-87027963D01*
X192027138Y-86971606D01*
X191911250Y-86866038D01*
X191844575Y-86664425D01*
X191822350Y-86370738D01*
X191822350Y-84859437D01*
X191827113Y-84749900D01*
X191854100Y-84665762D01*
X191938238Y-84601469D01*
X192101750Y-84580037D01*
X192258913Y-84601469D01*
X192343050Y-84665762D01*
X192373213Y-84751487D01*
X214355327Y-84424286D01*
X214177082Y-84317450D01*
X213989223Y-84228599D01*
X213793560Y-84158590D01*
X213591977Y-84108096D01*
X213386416Y-84077604D01*
X213178855Y-84067407D01*
X212666225Y-84067407D01*
X156995775Y-84067407D01*
G37*
D11*
X186315000Y-121093333D02*
X187585000Y-121093333D01*
X187515000Y-122300000D02*
X187515000Y-121093333D01*
X187395000Y-122300000D02*
X187395000Y-121093333D01*
X187275000Y-122300000D02*
X187275000Y-121093333D01*
X187155000Y-122300000D02*
X187155000Y-121093333D01*
X187035000Y-122300000D02*
X187035000Y-121093333D01*
X186915000Y-122300000D02*
X186915000Y-121093333D01*
X186795000Y-122300000D02*
X186795000Y-121093333D01*
X186675000Y-122300000D02*
X186675000Y-121093333D01*
X186555000Y-122300000D02*
X186555000Y-121093333D01*
X186435000Y-122300000D02*
X186435000Y-121093333D01*
X186315000Y-118680000D02*
X186315000Y-122300000D01*
X187585000Y-118680000D02*
X186315000Y-118680000D01*
X187585000Y-122300000D02*
X187585000Y-118680000D01*
X186315000Y-122300000D02*
X187585000Y-122300000D01*
X183775000Y-121093333D02*
X185045000Y-121093333D01*
X184975000Y-122300000D02*
X184975000Y-121093333D01*
X184855000Y-122300000D02*
X184855000Y-121093333D01*
X184735000Y-122300000D02*
X184735000Y-121093333D01*
X184615000Y-122300000D02*
X184615000Y-121093333D01*
X184495000Y-122300000D02*
X184495000Y-121093333D01*
X184375000Y-122300000D02*
X184375000Y-121093333D01*
X184255000Y-122300000D02*
X184255000Y-121093333D01*
X184135000Y-122300000D02*
X184135000Y-121093333D01*
X184015000Y-122300000D02*
X184015000Y-121093333D01*
X183895000Y-122300000D02*
X183895000Y-121093333D01*
X183775000Y-118680000D02*
X183775000Y-122300000D01*
X185045000Y-118680000D02*
X183775000Y-118680000D01*
X185045000Y-122300000D02*
X185045000Y-118680000D01*
X183775000Y-122300000D02*
X185045000Y-122300000D01*
X182060000Y-124140000D02*
X183370000Y-124140000D01*
X182060000Y-124140000D02*
X182060000Y-122757000D01*
X185400000Y-117079000D02*
X185961000Y-117079000D01*
X182300000Y-117079000D02*
X183420000Y-117079000D01*
X187940000Y-117079000D02*
X189060000Y-117079000D01*
X187940000Y-123900000D02*
X189060000Y-123900000D01*
X185450000Y-123900000D02*
X185961000Y-123900000D01*
X182300000Y-123900000D02*
X183370000Y-123900000D01*
X189060000Y-123900000D02*
X189060000Y-117079000D01*
X182300000Y-123900000D02*
X182300000Y-117079000D01*
X159910000Y-122790000D02*
X159910000Y-121460000D01*
X161240000Y-122790000D02*
X159910000Y-122790000D01*
X162510000Y-122790000D02*
X162510000Y-120130000D01*
X162510000Y-120130000D02*
X180350000Y-120130000D01*
X162510000Y-122790000D02*
X180350000Y-122790000D01*
X180350000Y-122790000D02*
X180350000Y-120130000D01*
X159600000Y-105750000D02*
X162400000Y-105750000D01*
X162400000Y-105750000D02*
X162400000Y-107750000D01*
X162400000Y-107750000D02*
X159600000Y-107750000D01*
X159600000Y-107750000D02*
X159600000Y-105750000D01*
X209680000Y-119590000D02*
X209680000Y-117320000D01*
X209680000Y-124560000D02*
X209680000Y-122290000D01*
X209680000Y-117320000D02*
X202440000Y-117320000D01*
X202440000Y-119590000D02*
X202440000Y-117320000D01*
X202440000Y-124560000D02*
X202440000Y-122290000D01*
X209680000Y-124560000D02*
X202440000Y-124560000D01*
X210060000Y-124940000D02*
X207726667Y-124940000D01*
X210060000Y-122606667D02*
X210060000Y-124940000D01*
X193980000Y-110350000D02*
X199980000Y-110350000D01*
X199980000Y-110350000D02*
X199980000Y-118350000D01*
X199980000Y-118350000D02*
X191980000Y-118350000D01*
X191980000Y-118350000D02*
X191980000Y-110350000D01*
X191980000Y-110350000D02*
X193980000Y-110350000D01*
X191980000Y-117350000D02*
X199980000Y-117350000D01*
X169850000Y-108550000D02*
X169850000Y-105650000D01*
X172750000Y-108550000D02*
X169850000Y-108550000D01*
X172750000Y-105650000D02*
X172750000Y-108550000D01*
X169850000Y-105650000D02*
X172750000Y-105650000D01*
X195300000Y-108550000D02*
X195300000Y-105650000D01*
X198200000Y-108550000D02*
X195300000Y-108550000D01*
X198200000Y-105650000D02*
X198200000Y-108550000D01*
X195300000Y-105650000D02*
X198200000Y-105650000D01*
X218100000Y-104780000D02*
X226700000Y-104780000D01*
X218100000Y-104780000D02*
X218100000Y-108880000D01*
X226700000Y-104780000D02*
X226700000Y-108880000D01*
X218100000Y-108880000D02*
X226700000Y-108880000D01*
X178315000Y-110760000D02*
X181000000Y-110760000D01*
X178315000Y-108840000D02*
X178315000Y-110760000D01*
X181000000Y-108840000D02*
X178315000Y-108840000D01*
X186315000Y-110760000D02*
X189000000Y-110760000D01*
X186315000Y-108840000D02*
X186315000Y-110760000D01*
X189000000Y-108840000D02*
X186315000Y-108840000D01*
D10*
X175416380Y-97994047D02*
X174416380Y-97994047D01*
X175130666Y-97660714D01*
X174416380Y-97327380D01*
X175416380Y-97327380D01*
X174749714Y-96422619D02*
X175416380Y-96422619D01*
X174749714Y-96851190D02*
X175273523Y-96851190D01*
X175368761Y-96803571D01*
X175416380Y-96708333D01*
X175416380Y-96565476D01*
X175368761Y-96470238D01*
X175321142Y-96422619D01*
X175416380Y-95946428D02*
X174749714Y-95946428D01*
X174940190Y-95946428D02*
X174844952Y-95898809D01*
X174797333Y-95851190D01*
X174749714Y-95755952D01*
X174749714Y-95660714D01*
X175416380Y-94898809D02*
X174892571Y-94898809D01*
X174797333Y-94946428D01*
X174749714Y-95041666D01*
X174749714Y-95232142D01*
X174797333Y-95327380D01*
X175368761Y-94898809D02*
X175416380Y-94994047D01*
X175416380Y-95232142D01*
X175368761Y-95327380D01*
X175273523Y-95375000D01*
X175178285Y-95375000D01*
X175083047Y-95327380D01*
X175035428Y-95232142D01*
X175035428Y-94994047D01*
X174987809Y-94898809D01*
X174749714Y-94565476D02*
X174749714Y-94184523D01*
X174416380Y-94422619D02*
X175273523Y-94422619D01*
X175368761Y-94375000D01*
X175416380Y-94279761D01*
X175416380Y-94184523D01*
X175416380Y-93422619D02*
X174892571Y-93422619D01*
X174797333Y-93470238D01*
X174749714Y-93565476D01*
X174749714Y-93755952D01*
X174797333Y-93851190D01*
X175368761Y-93422619D02*
X175416380Y-93517857D01*
X175416380Y-93755952D01*
X175368761Y-93851190D01*
X175273523Y-93898809D01*
X175178285Y-93898809D01*
X175083047Y-93851190D01*
X175035428Y-93755952D01*
X175035428Y-93517857D01*
X174987809Y-93422619D01*
X175368761Y-92232142D02*
X175416380Y-92089285D01*
X175416380Y-91851190D01*
X175368761Y-91755952D01*
X175321142Y-91708333D01*
X175225904Y-91660714D01*
X175130666Y-91660714D01*
X175035428Y-91708333D01*
X174987809Y-91755952D01*
X174940190Y-91851190D01*
X174892571Y-92041666D01*
X174844952Y-92136904D01*
X174797333Y-92184523D01*
X174702095Y-92232142D01*
X174606857Y-92232142D01*
X174511619Y-92184523D01*
X174464000Y-92136904D01*
X174416380Y-92041666D01*
X174416380Y-91803571D01*
X174464000Y-91660714D01*
X174749714Y-91375000D02*
X174749714Y-90994047D01*
X174416380Y-91232142D02*
X175273523Y-91232142D01*
X175368761Y-91184523D01*
X175416380Y-91089285D01*
X175416380Y-90994047D01*
X174749714Y-90755952D02*
X175416380Y-90517857D01*
X174749714Y-90279761D02*
X175416380Y-90517857D01*
X175654476Y-90613095D01*
X175702095Y-90660714D01*
X175749714Y-90755952D01*
X175416380Y-89755952D02*
X175368761Y-89851190D01*
X175273523Y-89898809D01*
X174416380Y-89898809D01*
X175368761Y-88994047D02*
X175416380Y-89089285D01*
X175416380Y-89279761D01*
X175368761Y-89375000D01*
X175273523Y-89422619D01*
X174892571Y-89422619D01*
X174797333Y-89375000D01*
X174749714Y-89279761D01*
X174749714Y-89089285D01*
X174797333Y-88994047D01*
X174892571Y-88946428D01*
X174987809Y-88946428D01*
X175083047Y-89422619D01*
X175368761Y-87803571D02*
X175416380Y-87660714D01*
X175416380Y-87422619D01*
X175368761Y-87327380D01*
X175321142Y-87279761D01*
X175225904Y-87232142D01*
X175130666Y-87232142D01*
X175035428Y-87279761D01*
X174987809Y-87327380D01*
X174940190Y-87422619D01*
X174892571Y-87613095D01*
X174844952Y-87708333D01*
X174797333Y-87755952D01*
X174702095Y-87803571D01*
X174606857Y-87803571D01*
X174511619Y-87755952D01*
X174464000Y-87708333D01*
X174416380Y-87613095D01*
X174416380Y-87375000D01*
X174464000Y-87232142D01*
X175416380Y-86803571D02*
X174416380Y-86803571D01*
X175416380Y-86375000D02*
X174892571Y-86375000D01*
X174797333Y-86422619D01*
X174749714Y-86517857D01*
X174749714Y-86660714D01*
X174797333Y-86755952D01*
X174844952Y-86803571D01*
X174749714Y-85470238D02*
X175416380Y-85470238D01*
X174749714Y-85898809D02*
X175273523Y-85898809D01*
X175368761Y-85851190D01*
X175416380Y-85755952D01*
X175416380Y-85613095D01*
X175368761Y-85517857D01*
X175321142Y-85470238D01*
X174749714Y-84994047D02*
X175416380Y-84994047D01*
X174844952Y-84994047D02*
X174797333Y-84946428D01*
X174749714Y-84851190D01*
X174749714Y-84708333D01*
X174797333Y-84613095D01*
X174892571Y-84565476D01*
X175416380Y-84565476D01*
X174749714Y-84232142D02*
X174749714Y-83851190D01*
X174416380Y-84089285D02*
X175273523Y-84089285D01*
X175368761Y-84041666D01*
X175416380Y-83946428D01*
X175416380Y-83851190D01*
X174416380Y-82851190D02*
X174416380Y-82232142D01*
X174797333Y-82565476D01*
X174797333Y-82422619D01*
X174844952Y-82327380D01*
X174892571Y-82279761D01*
X174987809Y-82232142D01*
X175225904Y-82232142D01*
X175321142Y-82279761D01*
X175368761Y-82327380D01*
X175416380Y-82422619D01*
X175416380Y-82708333D01*
X175368761Y-82803571D01*
X175321142Y-82851190D01*
X174416380Y-81613095D02*
X174416380Y-81517857D01*
X174464000Y-81422619D01*
X174511619Y-81375000D01*
X174606857Y-81327380D01*
X174797333Y-81279761D01*
X175035428Y-81279761D01*
X175225904Y-81327380D01*
X175321142Y-81375000D01*
X175368761Y-81422619D01*
X175416380Y-81517857D01*
X175416380Y-81613095D01*
X175368761Y-81708333D01*
X175321142Y-81755952D01*
X175225904Y-81803571D01*
X175035428Y-81851190D01*
X174797333Y-81851190D01*
X174606857Y-81803571D01*
X174511619Y-81755952D01*
X174464000Y-81708333D01*
X174416380Y-81613095D01*
X174511619Y-80898809D02*
X174464000Y-80851190D01*
X174416380Y-80755952D01*
X174416380Y-80517857D01*
X174464000Y-80422619D01*
X174511619Y-80375000D01*
X174606857Y-80327380D01*
X174702095Y-80327380D01*
X174844952Y-80375000D01*
X175416380Y-80946428D01*
X175416380Y-80327380D01*
X174416380Y-79708333D02*
X174416380Y-79613095D01*
X174464000Y-79517857D01*
X174511619Y-79470238D01*
X174606857Y-79422619D01*
X174797333Y-79375000D01*
X175035428Y-79375000D01*
X175225904Y-79422619D01*
X175321142Y-79470238D01*
X175368761Y-79517857D01*
X175416380Y-79613095D01*
X175416380Y-79708333D01*
X175368761Y-79803571D01*
X175321142Y-79851190D01*
X175225904Y-79898809D01*
X175035428Y-79946428D01*
X174797333Y-79946428D01*
X174606857Y-79898809D01*
X174511619Y-79851190D01*
X174464000Y-79803571D01*
X174416380Y-79708333D01*
X175035428Y-78946428D02*
X175035428Y-78184523D01*
X174416380Y-77517857D02*
X174416380Y-77422619D01*
X174464000Y-77327380D01*
X174511619Y-77279761D01*
X174606857Y-77232142D01*
X174797333Y-77184523D01*
X175035428Y-77184523D01*
X175225904Y-77232142D01*
X175321142Y-77279761D01*
X175368761Y-77327380D01*
X175416380Y-77422619D01*
X175416380Y-77517857D01*
X175368761Y-77613095D01*
X175321142Y-77660714D01*
X175225904Y-77708333D01*
X175035428Y-77755952D01*
X174797333Y-77755952D01*
X174606857Y-77708333D01*
X174511619Y-77660714D01*
X174464000Y-77613095D01*
X174416380Y-77517857D01*
X175416380Y-76232142D02*
X175416380Y-76803571D01*
X175416380Y-76517857D02*
X174416380Y-76517857D01*
X174559238Y-76613095D01*
X174654476Y-76708333D01*
X174702095Y-76803571D01*
X175416380Y-75279761D02*
X175416380Y-75851190D01*
X175416380Y-75565476D02*
X174416380Y-75565476D01*
X174559238Y-75660714D01*
X174654476Y-75755952D01*
X174702095Y-75851190D01*
X174416380Y-74660714D02*
X174416380Y-74565476D01*
X174464000Y-74470238D01*
X174511619Y-74422619D01*
X174606857Y-74375000D01*
X174797333Y-74327380D01*
X175035428Y-74327380D01*
X175225904Y-74375000D01*
X175321142Y-74422619D01*
X175368761Y-74470238D01*
X175416380Y-74565476D01*
X175416380Y-74660714D01*
X175368761Y-74755952D01*
X175321142Y-74803571D01*
X175225904Y-74851190D01*
X175035428Y-74898809D01*
X174797333Y-74898809D01*
X174606857Y-74851190D01*
X174511619Y-74803571D01*
X174464000Y-74755952D01*
X174416380Y-74660714D01*
X174416380Y-73708333D02*
X174416380Y-73613095D01*
X174464000Y-73517857D01*
X174511619Y-73470238D01*
X174606857Y-73422619D01*
X174797333Y-73375000D01*
X175035428Y-73375000D01*
X175225904Y-73422619D01*
X175321142Y-73470238D01*
X175368761Y-73517857D01*
X175416380Y-73613095D01*
X175416380Y-73708333D01*
X175368761Y-73803571D01*
X175321142Y-73851190D01*
X175225904Y-73898809D01*
X175035428Y-73946428D01*
X174797333Y-73946428D01*
X174606857Y-73898809D01*
X174511619Y-73851190D01*
X174464000Y-73803571D01*
X174416380Y-73708333D01*
X175035428Y-72946428D02*
X175035428Y-72184523D01*
X174416380Y-71517857D02*
X174416380Y-71422619D01*
X174464000Y-71327380D01*
X174511619Y-71279761D01*
X174606857Y-71232142D01*
X174797333Y-71184523D01*
X175035428Y-71184523D01*
X175225904Y-71232142D01*
X175321142Y-71279761D01*
X175368761Y-71327380D01*
X175416380Y-71422619D01*
X175416380Y-71517857D01*
X175368761Y-71613095D01*
X175321142Y-71660714D01*
X175225904Y-71708333D01*
X175035428Y-71755952D01*
X174797333Y-71755952D01*
X174606857Y-71708333D01*
X174511619Y-71660714D01*
X174464000Y-71613095D01*
X174416380Y-71517857D01*
X175416380Y-69470238D02*
X175416380Y-70041666D01*
X175416380Y-69755952D02*
X174416380Y-69755952D01*
X174559238Y-69851190D01*
X174654476Y-69946428D01*
X174702095Y-70041666D01*
X174416380Y-68565476D02*
X174416380Y-69041666D01*
X174892571Y-69089285D01*
X174844952Y-69041666D01*
X174797333Y-68946428D01*
X174797333Y-68708333D01*
X174844952Y-68613095D01*
X174892571Y-68565476D01*
X174987809Y-68517857D01*
X175225904Y-68517857D01*
X175321142Y-68565476D01*
X175368761Y-68613095D01*
X175416380Y-68708333D01*
X175416380Y-68946428D01*
X175368761Y-69041666D01*
X175321142Y-69089285D01*
X174416380Y-67898809D02*
X174416380Y-67803571D01*
X174464000Y-67708333D01*
X174511619Y-67660714D01*
X174606857Y-67613095D01*
X174797333Y-67565476D01*
X175035428Y-67565476D01*
X175225904Y-67613095D01*
X175321142Y-67660714D01*
X175368761Y-67708333D01*
X175416380Y-67803571D01*
X175416380Y-67898809D01*
X175368761Y-67994047D01*
X175321142Y-68041666D01*
X175225904Y-68089285D01*
X175035428Y-68136904D01*
X174797333Y-68136904D01*
X174606857Y-68089285D01*
X174511619Y-68041666D01*
X174464000Y-67994047D01*
X174416380Y-67898809D01*
X175130666Y-67184523D02*
X175130666Y-66708333D01*
X175416380Y-67279761D02*
X174416380Y-66946428D01*
X175416380Y-66613095D01*
X188754761Y-121333333D02*
X188802380Y-121190476D01*
X188802380Y-120952380D01*
X188754761Y-120857142D01*
X188707142Y-120809523D01*
X188611904Y-120761904D01*
X188516666Y-120761904D01*
X188421428Y-120809523D01*
X188373809Y-120857142D01*
X188326190Y-120952380D01*
X188278571Y-121142857D01*
X188230952Y-121238095D01*
X188183333Y-121285714D01*
X188088095Y-121333333D01*
X187992857Y-121333333D01*
X187897619Y-121285714D01*
X187850000Y-121238095D01*
X187802380Y-121142857D01*
X187802380Y-120904761D01*
X187850000Y-120761904D01*
X187802380Y-120428571D02*
X188802380Y-120190476D01*
X188088095Y-120000000D01*
X188802380Y-119809523D01*
X187802380Y-119571428D01*
X188802380Y-118666666D02*
X188802380Y-119238095D01*
X188802380Y-118952380D02*
X187802380Y-118952380D01*
X187945238Y-119047619D01*
X188040476Y-119142857D01*
X188088095Y-119238095D01*
X177466666Y-118452380D02*
X177466666Y-119166666D01*
X177419047Y-119309523D01*
X177323809Y-119404761D01*
X177180952Y-119452380D01*
X177085714Y-119452380D01*
X177847619Y-118452380D02*
X178466666Y-118452380D01*
X178133333Y-118833333D01*
X178276190Y-118833333D01*
X178371428Y-118880952D01*
X178419047Y-118928571D01*
X178466666Y-119023809D01*
X178466666Y-119261904D01*
X178419047Y-119357142D01*
X178371428Y-119404761D01*
X178276190Y-119452380D01*
X177990476Y-119452380D01*
X177895238Y-119404761D01*
X177847619Y-119357142D01*
X213866666Y-109862380D02*
X213866666Y-110576666D01*
X213819047Y-110719523D01*
X213723809Y-110814761D01*
X213580952Y-110862380D01*
X213485714Y-110862380D01*
X214771428Y-110195714D02*
X214771428Y-110862380D01*
X214533333Y-109814761D02*
X214295238Y-110529047D01*
X214914285Y-110529047D01*
X160216666Y-104102380D02*
X160216666Y-104816666D01*
X160169047Y-104959523D01*
X160073809Y-105054761D01*
X159930952Y-105102380D01*
X159835714Y-105102380D01*
X160692857Y-105102380D02*
X160692857Y-104102380D01*
X161073809Y-104102380D01*
X161169047Y-104150000D01*
X161216666Y-104197619D01*
X161264285Y-104292857D01*
X161264285Y-104435714D01*
X161216666Y-104530952D01*
X161169047Y-104578571D01*
X161073809Y-104626190D01*
X160692857Y-104626190D01*
X162216666Y-105102380D02*
X161645238Y-105102380D01*
X161930952Y-105102380D02*
X161930952Y-104102380D01*
X161835714Y-104245238D01*
X161740476Y-104340476D01*
X161645238Y-104388095D01*
X205893333Y-121392380D02*
X205417142Y-121392380D01*
X205417142Y-120392380D01*
X206750476Y-121392380D02*
X206179047Y-121392380D01*
X206464761Y-121392380D02*
X206464761Y-120392380D01*
X206369523Y-120535238D01*
X206274285Y-120630476D01*
X206179047Y-120678095D01*
X195746666Y-110637380D02*
X195746666Y-111351666D01*
X195699047Y-111494523D01*
X195603809Y-111589761D01*
X195460952Y-111637380D01*
X195365714Y-111637380D01*
X196651428Y-110637380D02*
X196460952Y-110637380D01*
X196365714Y-110685000D01*
X196318095Y-110732619D01*
X196222857Y-110875476D01*
X196175238Y-111065952D01*
X196175238Y-111446904D01*
X196222857Y-111542142D01*
X196270476Y-111589761D01*
X196365714Y-111637380D01*
X196556190Y-111637380D01*
X196651428Y-111589761D01*
X196699047Y-111542142D01*
X196746666Y-111446904D01*
X196746666Y-111208809D01*
X196699047Y-111113571D01*
X196651428Y-111065952D01*
X196556190Y-111018333D01*
X196365714Y-111018333D01*
X196270476Y-111065952D01*
X196222857Y-111113571D01*
X196175238Y-111208809D01*
X145966666Y-106352380D02*
X145966666Y-107066666D01*
X145919047Y-107209523D01*
X145823809Y-107304761D01*
X145680952Y-107352380D01*
X145585714Y-107352380D01*
X146919047Y-106352380D02*
X146442857Y-106352380D01*
X146395238Y-106828571D01*
X146442857Y-106780952D01*
X146538095Y-106733333D01*
X146776190Y-106733333D01*
X146871428Y-106780952D01*
X146919047Y-106828571D01*
X146966666Y-106923809D01*
X146966666Y-107161904D01*
X146919047Y-107257142D01*
X146871428Y-107304761D01*
X146776190Y-107352380D01*
X146538095Y-107352380D01*
X146442857Y-107304761D01*
X146395238Y-107257142D01*
X167616666Y-105252380D02*
X167616666Y-105966666D01*
X167569047Y-106109523D01*
X167473809Y-106204761D01*
X167330952Y-106252380D01*
X167235714Y-106252380D01*
X168045238Y-105347619D02*
X168092857Y-105300000D01*
X168188095Y-105252380D01*
X168426190Y-105252380D01*
X168521428Y-105300000D01*
X168569047Y-105347619D01*
X168616666Y-105442857D01*
X168616666Y-105538095D01*
X168569047Y-105680952D01*
X167997619Y-106252380D01*
X168616666Y-106252380D01*
X193456666Y-107772380D02*
X193456666Y-108486666D01*
X193409047Y-108629523D01*
X193313809Y-108724761D01*
X193170952Y-108772380D01*
X193075714Y-108772380D01*
X194456666Y-108772380D02*
X193885238Y-108772380D01*
X194170952Y-108772380D02*
X194170952Y-107772380D01*
X194075714Y-107915238D01*
X193980476Y-108010476D01*
X193885238Y-108058095D01*
X222056666Y-103418571D02*
X221723333Y-103418571D01*
X221723333Y-103942380D02*
X221723333Y-102942380D01*
X222199523Y-102942380D01*
X223104285Y-103942380D02*
X222532857Y-103942380D01*
X222818571Y-103942380D02*
X222818571Y-102942380D01*
X222723333Y-103085238D01*
X222628095Y-103180476D01*
X222532857Y-103228095D01*
X176261904Y-110602380D02*
X176261904Y-109602380D01*
X176500000Y-109602380D01*
X176642857Y-109650000D01*
X176738095Y-109745238D01*
X176785714Y-109840476D01*
X176833333Y-110030952D01*
X176833333Y-110173809D01*
X176785714Y-110364285D01*
X176738095Y-110459523D01*
X176642857Y-110554761D01*
X176500000Y-110602380D01*
X176261904Y-110602380D01*
X177166666Y-109602380D02*
X177785714Y-109602380D01*
X177452380Y-109983333D01*
X177595238Y-109983333D01*
X177690476Y-110030952D01*
X177738095Y-110078571D01*
X177785714Y-110173809D01*
X177785714Y-110411904D01*
X177738095Y-110507142D01*
X177690476Y-110554761D01*
X177595238Y-110602380D01*
X177309523Y-110602380D01*
X177214285Y-110554761D01*
X177166666Y-110507142D01*
X184261904Y-110602380D02*
X184261904Y-109602380D01*
X184500000Y-109602380D01*
X184642857Y-109650000D01*
X184738095Y-109745238D01*
X184785714Y-109840476D01*
X184833333Y-110030952D01*
X184833333Y-110173809D01*
X184785714Y-110364285D01*
X184738095Y-110459523D01*
X184642857Y-110554761D01*
X184500000Y-110602380D01*
X184261904Y-110602380D01*
X185214285Y-109697619D02*
X185261904Y-109650000D01*
X185357142Y-109602380D01*
X185595238Y-109602380D01*
X185690476Y-109650000D01*
X185738095Y-109697619D01*
X185785714Y-109792857D01*
X185785714Y-109888095D01*
X185738095Y-110030952D01*
X185166666Y-110602380D01*
X185785714Y-110602380D01*
M02*
