G04 #@! TF.GenerationSoftware,KiCad,Pcbnew,5.1.9+dfsg1-1~bpo10+1*
G04 #@! TF.CreationDate,2021-05-10T17:54:19+00:00*
G04 #@! TF.ProjectId,CurrentShuntCircuit,43757272-656e-4745-9368-756e74436972,1*
G04 #@! TF.SameCoordinates,Original*
G04 #@! TF.FileFunction,Legend,Top*
G04 #@! TF.FilePolarity,Positive*
%FSLAX46Y46*%
G04 Gerber Fmt 4.6, Leading zero omitted, Abs format (unit mm)*
G04 Created by KiCad (PCBNEW 5.1.9+dfsg1-1~bpo10+1) date 2021-05-10 17:54:19*
%MOMM*%
%LPD*%
G01*
G04 APERTURE LIST*
%ADD10C,0.150000*%
%ADD11C,0.120000*%
%ADD12C,0.100000*%
%ADD13C,0.200000*%
%ADD14C,0.300000*%
G04 APERTURE END LIST*
D10*
X146968928Y-127797619D02*
X147073690Y-127797619D01*
X147178452Y-127850000D01*
X147230833Y-127902380D01*
X147283214Y-128007142D01*
X147335595Y-128216666D01*
X147335595Y-128478571D01*
X147283214Y-128688095D01*
X147230833Y-128792857D01*
X147178452Y-128845238D01*
X147073690Y-128897619D01*
X146968928Y-128897619D01*
X146864166Y-128845238D01*
X146811785Y-128792857D01*
X146759404Y-128688095D01*
X146707023Y-128478571D01*
X146707023Y-128216666D01*
X146759404Y-128007142D01*
X146811785Y-127902380D01*
X146864166Y-127850000D01*
X146968928Y-127797619D01*
X147702261Y-127797619D02*
X148435595Y-127797619D01*
X147964166Y-128897619D01*
X149326071Y-128164285D02*
X149326071Y-128897619D01*
X149064166Y-127745238D02*
X148802261Y-128530952D01*
X149483214Y-128530952D01*
X150059404Y-128269047D02*
X149954642Y-128216666D01*
X149902261Y-128164285D01*
X149849880Y-128059523D01*
X149849880Y-128007142D01*
X149902261Y-127902380D01*
X149954642Y-127850000D01*
X150059404Y-127797619D01*
X150268928Y-127797619D01*
X150373690Y-127850000D01*
X150426071Y-127902380D01*
X150478452Y-128007142D01*
X150478452Y-128059523D01*
X150426071Y-128164285D01*
X150373690Y-128216666D01*
X150268928Y-128269047D01*
X150059404Y-128269047D01*
X149954642Y-128321428D01*
X149902261Y-128373809D01*
X149849880Y-128478571D01*
X149849880Y-128688095D01*
X149902261Y-128792857D01*
X149954642Y-128845238D01*
X150059404Y-128897619D01*
X150268928Y-128897619D01*
X150373690Y-128845238D01*
X150426071Y-128792857D01*
X150478452Y-128688095D01*
X150478452Y-128478571D01*
X150426071Y-128373809D01*
X150373690Y-128321428D01*
X150268928Y-128269047D01*
X151107023Y-128269047D02*
X151002261Y-128216666D01*
X150949880Y-128164285D01*
X150897500Y-128059523D01*
X150897500Y-128007142D01*
X150949880Y-127902380D01*
X151002261Y-127850000D01*
X151107023Y-127797619D01*
X151316547Y-127797619D01*
X151421309Y-127850000D01*
X151473690Y-127902380D01*
X151526071Y-128007142D01*
X151526071Y-128059523D01*
X151473690Y-128164285D01*
X151421309Y-128216666D01*
X151316547Y-128269047D01*
X151107023Y-128269047D01*
X151002261Y-128321428D01*
X150949880Y-128373809D01*
X150897500Y-128478571D01*
X150897500Y-128688095D01*
X150949880Y-128792857D01*
X151002261Y-128845238D01*
X151107023Y-128897619D01*
X151316547Y-128897619D01*
X151421309Y-128845238D01*
X151473690Y-128792857D01*
X151526071Y-128688095D01*
X151526071Y-128478571D01*
X151473690Y-128373809D01*
X151421309Y-128321428D01*
X151316547Y-128269047D01*
X152468928Y-128897619D02*
X152468928Y-127797619D01*
X152468928Y-128845238D02*
X152364166Y-128897619D01*
X152154642Y-128897619D01*
X152049880Y-128845238D01*
X151997500Y-128792857D01*
X151945119Y-128688095D01*
X151945119Y-128373809D01*
X151997500Y-128269047D01*
X152049880Y-128216666D01*
X152154642Y-128164285D01*
X152364166Y-128164285D01*
X152468928Y-128216666D01*
X153464166Y-127797619D02*
X153254642Y-127797619D01*
X153149880Y-127850000D01*
X153097500Y-127902380D01*
X152992738Y-128059523D01*
X152940357Y-128269047D01*
X152940357Y-128688095D01*
X152992738Y-128792857D01*
X153045119Y-128845238D01*
X153149880Y-128897619D01*
X153359404Y-128897619D01*
X153464166Y-128845238D01*
X153516547Y-128792857D01*
X153568928Y-128688095D01*
X153568928Y-128426190D01*
X153516547Y-128321428D01*
X153464166Y-128269047D01*
X153359404Y-128216666D01*
X153149880Y-128216666D01*
X153045119Y-128269047D01*
X152992738Y-128321428D01*
X152940357Y-128426190D01*
X190310000Y-124515714D02*
X190310000Y-123944285D01*
X190652857Y-124630000D02*
X189452857Y-124230000D01*
X190652857Y-123830000D01*
X190652857Y-123430000D02*
X189452857Y-123430000D01*
X189452857Y-123144285D01*
X189510000Y-122972857D01*
X189624285Y-122858571D01*
X189738571Y-122801428D01*
X189967142Y-122744285D01*
X190138571Y-122744285D01*
X190367142Y-122801428D01*
X190481428Y-122858571D01*
X190595714Y-122972857D01*
X190652857Y-123144285D01*
X190652857Y-123430000D01*
X190652857Y-122230000D02*
X189452857Y-122230000D01*
X189452857Y-121944285D01*
X189510000Y-121772857D01*
X189624285Y-121658571D01*
X189738571Y-121601428D01*
X189967142Y-121544285D01*
X190138571Y-121544285D01*
X190367142Y-121601428D01*
X190481428Y-121658571D01*
X190595714Y-121772857D01*
X190652857Y-121944285D01*
X190652857Y-122230000D01*
X190652857Y-120344285D02*
X190081428Y-120744285D01*
X190652857Y-121030000D02*
X189452857Y-121030000D01*
X189452857Y-120572857D01*
X189510000Y-120458571D01*
X189567142Y-120401428D01*
X189681428Y-120344285D01*
X189852857Y-120344285D01*
X189967142Y-120401428D01*
X190024285Y-120458571D01*
X190081428Y-120572857D01*
X190081428Y-121030000D01*
D11*
X159970000Y-125610000D02*
X180320000Y-125610000D01*
D12*
X228572380Y-77039047D02*
X229286666Y-77039047D01*
X229429523Y-77086666D01*
X229524761Y-77181904D01*
X229572380Y-77324761D01*
X229572380Y-77420000D01*
X229572380Y-76086666D02*
X229572380Y-76562857D01*
X228572380Y-76562857D01*
X229477142Y-75181904D02*
X229524761Y-75229523D01*
X229572380Y-75372380D01*
X229572380Y-75467619D01*
X229524761Y-75610476D01*
X229429523Y-75705714D01*
X229334285Y-75753333D01*
X229143809Y-75800952D01*
X229000952Y-75800952D01*
X228810476Y-75753333D01*
X228715238Y-75705714D01*
X228620000Y-75610476D01*
X228572380Y-75467619D01*
X228572380Y-75372380D01*
X228620000Y-75229523D01*
X228667619Y-75181904D01*
X228572380Y-74467619D02*
X229286666Y-74467619D01*
X229429523Y-74515238D01*
X229524761Y-74610476D01*
X229572380Y-74753333D01*
X229572380Y-74848571D01*
X229572380Y-73515238D02*
X229572380Y-73991428D01*
X228572380Y-73991428D01*
X229477142Y-72610476D02*
X229524761Y-72658095D01*
X229572380Y-72800952D01*
X229572380Y-72896190D01*
X229524761Y-73039047D01*
X229429523Y-73134285D01*
X229334285Y-73181904D01*
X229143809Y-73229523D01*
X229000952Y-73229523D01*
X228810476Y-73181904D01*
X228715238Y-73134285D01*
X228620000Y-73039047D01*
X228572380Y-72896190D01*
X228572380Y-72800952D01*
X228620000Y-72658095D01*
X228667619Y-72610476D01*
X228572380Y-71896190D02*
X229286666Y-71896190D01*
X229429523Y-71943809D01*
X229524761Y-72039047D01*
X229572380Y-72181904D01*
X229572380Y-72277142D01*
X229572380Y-70943809D02*
X229572380Y-71420000D01*
X228572380Y-71420000D01*
X229477142Y-70039047D02*
X229524761Y-70086666D01*
X229572380Y-70229523D01*
X229572380Y-70324761D01*
X229524761Y-70467619D01*
X229429523Y-70562857D01*
X229334285Y-70610476D01*
X229143809Y-70658095D01*
X229000952Y-70658095D01*
X228810476Y-70610476D01*
X228715238Y-70562857D01*
X228620000Y-70467619D01*
X228572380Y-70324761D01*
X228572380Y-70229523D01*
X228620000Y-70086666D01*
X228667619Y-70039047D01*
X228572380Y-69324761D02*
X229286666Y-69324761D01*
X229429523Y-69372380D01*
X229524761Y-69467619D01*
X229572380Y-69610476D01*
X229572380Y-69705714D01*
X229572380Y-68372380D02*
X229572380Y-68848571D01*
X228572380Y-68848571D01*
X229477142Y-67467619D02*
X229524761Y-67515238D01*
X229572380Y-67658095D01*
X229572380Y-67753333D01*
X229524761Y-67896190D01*
X229429523Y-67991428D01*
X229334285Y-68039047D01*
X229143809Y-68086666D01*
X229000952Y-68086666D01*
X228810476Y-68039047D01*
X228715238Y-67991428D01*
X228620000Y-67896190D01*
X228572380Y-67753333D01*
X228572380Y-67658095D01*
X228620000Y-67515238D01*
X228667619Y-67467619D01*
D13*
X216720000Y-128138571D02*
X216662857Y-128252857D01*
X216662857Y-128424285D01*
X216720000Y-128595714D01*
X216834285Y-128709999D01*
X216948571Y-128767142D01*
X217177142Y-128824285D01*
X217348571Y-128824285D01*
X217577142Y-128767142D01*
X217691428Y-128709999D01*
X217805714Y-128595714D01*
X217862857Y-128424285D01*
X217862857Y-128309999D01*
X217805714Y-128138571D01*
X217748571Y-128081428D01*
X217348571Y-128081428D01*
X217348571Y-128309999D01*
X217862857Y-127567142D02*
X216662857Y-127567142D01*
X217862857Y-126881428D01*
X216662857Y-126881428D01*
X217862857Y-126309999D02*
X216662857Y-126309999D01*
X216662857Y-126024285D01*
X216720000Y-125852857D01*
X216834285Y-125738571D01*
X216948571Y-125681428D01*
X217177142Y-125624285D01*
X217348571Y-125624285D01*
X217577142Y-125681428D01*
X217691428Y-125738571D01*
X217805714Y-125852857D01*
X217862857Y-126024285D01*
X217862857Y-126309999D01*
X221705714Y-128767142D02*
X221705714Y-127852857D01*
X222162857Y-128309999D02*
X221248571Y-128309999D01*
X221534285Y-126881428D02*
X221591428Y-126709999D01*
X221648571Y-126652857D01*
X221762857Y-126595714D01*
X221934285Y-126595714D01*
X222048571Y-126652857D01*
X222105714Y-126709999D01*
X222162857Y-126824285D01*
X222162857Y-127281428D01*
X220962857Y-127281428D01*
X220962857Y-126881428D01*
X221020000Y-126767142D01*
X221077142Y-126709999D01*
X221191428Y-126652857D01*
X221305714Y-126652857D01*
X221420000Y-126709999D01*
X221477142Y-126767142D01*
X221534285Y-126881428D01*
X221534285Y-127281428D01*
X220962857Y-126081428D02*
X221934285Y-126081428D01*
X222048571Y-126024285D01*
X222105714Y-125967142D01*
X222162857Y-125852857D01*
X222162857Y-125624285D01*
X222105714Y-125509999D01*
X222048571Y-125452857D01*
X221934285Y-125395714D01*
X220962857Y-125395714D01*
X222105714Y-124881428D02*
X222162857Y-124709999D01*
X222162857Y-124424285D01*
X222105714Y-124309999D01*
X222048571Y-124252857D01*
X221934285Y-124195714D01*
X221820000Y-124195714D01*
X221705714Y-124252857D01*
X221648571Y-124309999D01*
X221591428Y-124424285D01*
X221534285Y-124652857D01*
X221477142Y-124767142D01*
X221420000Y-124824285D01*
X221305714Y-124881428D01*
X221191428Y-124881428D01*
X221077142Y-124824285D01*
X221020000Y-124767142D01*
X220962857Y-124652857D01*
X220962857Y-124367142D01*
X221020000Y-124195714D01*
X220962857Y-122938571D02*
X222162857Y-122538571D01*
X220962857Y-122138571D01*
X220962857Y-121509999D02*
X220962857Y-121281428D01*
X221020000Y-121167142D01*
X221134285Y-121052857D01*
X221362857Y-120995714D01*
X221762857Y-120995714D01*
X221991428Y-121052857D01*
X222105714Y-121167142D01*
X222162857Y-121281428D01*
X222162857Y-121509999D01*
X222105714Y-121624285D01*
X221991428Y-121738571D01*
X221762857Y-121795714D01*
X221362857Y-121795714D01*
X221134285Y-121738571D01*
X221020000Y-121624285D01*
X220962857Y-121509999D01*
X222162857Y-119909999D02*
X222162857Y-120481428D01*
X220962857Y-120481428D01*
X220962857Y-119681428D02*
X220962857Y-118995714D01*
X222162857Y-119338571D02*
X220962857Y-119338571D01*
D10*
X179541428Y-124902857D02*
X179141428Y-124331428D01*
X178855714Y-124902857D02*
X178855714Y-123702857D01*
X179312857Y-123702857D01*
X179427142Y-123760000D01*
X179484285Y-123817142D01*
X179541428Y-123931428D01*
X179541428Y-124102857D01*
X179484285Y-124217142D01*
X179427142Y-124274285D01*
X179312857Y-124331428D01*
X178855714Y-124331428D01*
D13*
X149721428Y-95528571D02*
X149864285Y-95671428D01*
X150007142Y-96100000D01*
X150007142Y-96385714D01*
X149864285Y-96814285D01*
X149578571Y-97100000D01*
X149292857Y-97242857D01*
X148721428Y-97385714D01*
X148292857Y-97385714D01*
X147721428Y-97242857D01*
X147435714Y-97100000D01*
X147150000Y-96814285D01*
X147007142Y-96385714D01*
X147007142Y-96100000D01*
X147150000Y-95671428D01*
X147292857Y-95528571D01*
X150007142Y-94242857D02*
X147007142Y-94242857D01*
X148435714Y-94242857D02*
X148435714Y-92528571D01*
X150007142Y-92528571D02*
X147007142Y-92528571D01*
X149150000Y-91242857D02*
X149150000Y-89814285D01*
X150007142Y-91528571D02*
X147007142Y-90528571D01*
X150007142Y-89528571D01*
X150007142Y-86814285D02*
X148578571Y-87814285D01*
X150007142Y-88528571D02*
X147007142Y-88528571D01*
X147007142Y-87385714D01*
X147150000Y-87100000D01*
X147292857Y-86957142D01*
X147578571Y-86814285D01*
X148007142Y-86814285D01*
X148292857Y-86957142D01*
X148435714Y-87100000D01*
X148578571Y-87385714D01*
X148578571Y-88528571D01*
X147150000Y-83957142D02*
X147007142Y-84242857D01*
X147007142Y-84671428D01*
X147150000Y-85100000D01*
X147435714Y-85385714D01*
X147721428Y-85528571D01*
X148292857Y-85671428D01*
X148721428Y-85671428D01*
X149292857Y-85528571D01*
X149578571Y-85385714D01*
X149864285Y-85100000D01*
X150007142Y-84671428D01*
X150007142Y-84385714D01*
X149864285Y-83957142D01*
X149721428Y-83814285D01*
X148721428Y-83814285D01*
X148721428Y-84385714D01*
X148435714Y-82528571D02*
X148435714Y-81528571D01*
X150007142Y-81100000D02*
X150007142Y-82528571D01*
X147007142Y-82528571D01*
X147007142Y-81100000D01*
X150007142Y-78100000D02*
X148578571Y-79100000D01*
X150007142Y-79814285D02*
X147007142Y-79814285D01*
X147007142Y-78671428D01*
X147150000Y-78385714D01*
X147292857Y-78242857D01*
X147578571Y-78100000D01*
X148007142Y-78100000D01*
X148292857Y-78242857D01*
X148435714Y-78385714D01*
X148578571Y-78671428D01*
X148578571Y-79814285D01*
X146864285Y-74671428D02*
X150721428Y-77242857D01*
X150007142Y-72242857D02*
X150007142Y-73671428D01*
X147007142Y-73671428D01*
X147007142Y-70671428D02*
X147007142Y-70100000D01*
X147150000Y-69814285D01*
X147435714Y-69528571D01*
X148007142Y-69385714D01*
X149007142Y-69385714D01*
X149578571Y-69528571D01*
X149864285Y-69814285D01*
X150007142Y-70100000D01*
X150007142Y-70671428D01*
X149864285Y-70957142D01*
X149578571Y-71242857D01*
X149007142Y-71385714D01*
X148007142Y-71385714D01*
X147435714Y-71242857D01*
X147150000Y-70957142D01*
X147007142Y-70671428D01*
X149150000Y-68242857D02*
X149150000Y-66814285D01*
X150007142Y-68528571D02*
X147007142Y-67528571D01*
X150007142Y-66528571D01*
X150007142Y-65528571D02*
X147007142Y-65528571D01*
X147007142Y-64814285D01*
X147150000Y-64385714D01*
X147435714Y-64100000D01*
X147721428Y-63957142D01*
X148292857Y-63814285D01*
X148721428Y-63814285D01*
X149292857Y-63957142D01*
X149578571Y-64100000D01*
X149864285Y-64385714D01*
X150007142Y-64814285D01*
X150007142Y-65528571D01*
X223185714Y-83671428D02*
X223328571Y-83242857D01*
X223471428Y-83100000D01*
X223757142Y-82957143D01*
X224185714Y-82957143D01*
X224471428Y-83100000D01*
X224614285Y-83242857D01*
X224757142Y-83528571D01*
X224757142Y-84671428D01*
X221757142Y-84671428D01*
X221757142Y-83671428D01*
X221900000Y-83385714D01*
X222042857Y-83242857D01*
X222328571Y-83100000D01*
X222614285Y-83100000D01*
X222900000Y-83242857D01*
X223042857Y-83385714D01*
X223185714Y-83671428D01*
X223185714Y-84671428D01*
X223900000Y-81814286D02*
X223900000Y-80385714D01*
X224757142Y-82100000D02*
X221757142Y-81100000D01*
X224757142Y-80100000D01*
X221757142Y-79528571D02*
X221757142Y-77814286D01*
X224757142Y-78671428D02*
X221757142Y-78671428D01*
X221757142Y-77242857D02*
X221757142Y-75528571D01*
X224757142Y-76385714D02*
X221757142Y-76385714D01*
X223185714Y-74528571D02*
X223185714Y-73528571D01*
X224757142Y-73100000D02*
X224757142Y-74528571D01*
X221757142Y-74528571D01*
X221757142Y-73100000D01*
X224757142Y-70100000D02*
X223328571Y-71100000D01*
X224757142Y-71814286D02*
X221757142Y-71814286D01*
X221757142Y-70671428D01*
X221900000Y-70385714D01*
X222042857Y-70242857D01*
X222328571Y-70100000D01*
X222757142Y-70100000D01*
X223042857Y-70242857D01*
X223185714Y-70385714D01*
X223328571Y-70671428D01*
X223328571Y-71814286D01*
X223328571Y-68242857D02*
X224757142Y-68242857D01*
X221757142Y-69242857D02*
X223328571Y-68242857D01*
X221757142Y-67242857D01*
X223614285Y-66242857D02*
X223614285Y-63957143D01*
X224757142Y-65100000D02*
X222471428Y-65100000D01*
X224985714Y-128797143D02*
X224985714Y-127882857D01*
X225442857Y-128340000D02*
X224528571Y-128340000D01*
X224985714Y-127311428D02*
X224985714Y-126397143D01*
X225442857Y-126854286D02*
X224528571Y-126854286D01*
X224985714Y-125825714D02*
X224985714Y-124911428D01*
X225442857Y-125368571D02*
X224528571Y-125368571D01*
X213020000Y-128168571D02*
X212962857Y-128282857D01*
X212962857Y-128454286D01*
X213020000Y-128625714D01*
X213134285Y-128740000D01*
X213248571Y-128797143D01*
X213477142Y-128854286D01*
X213648571Y-128854286D01*
X213877142Y-128797143D01*
X213991428Y-128740000D01*
X214105714Y-128625714D01*
X214162857Y-128454286D01*
X214162857Y-128340000D01*
X214105714Y-128168571D01*
X214048571Y-128111428D01*
X213648571Y-128111428D01*
X213648571Y-128340000D01*
X214162857Y-127597143D02*
X212962857Y-127597143D01*
X214162857Y-126911428D01*
X212962857Y-126911428D01*
X214162857Y-126340000D02*
X212962857Y-126340000D01*
X212962857Y-126054286D01*
X213020000Y-125882857D01*
X213134285Y-125768571D01*
X213248571Y-125711428D01*
X213477142Y-125654286D01*
X213648571Y-125654286D01*
X213877142Y-125711428D01*
X213991428Y-125768571D01*
X214105714Y-125882857D01*
X214162857Y-126054286D01*
X214162857Y-126340000D01*
X194504285Y-124122857D02*
X194104285Y-123551428D01*
X193818571Y-124122857D02*
X193818571Y-122922857D01*
X194275714Y-122922857D01*
X194390000Y-122980000D01*
X194447142Y-123037142D01*
X194504285Y-123151428D01*
X194504285Y-123322857D01*
X194447142Y-123437142D01*
X194390000Y-123494285D01*
X194275714Y-123551428D01*
X193818571Y-123551428D01*
X195018571Y-123494285D02*
X195418571Y-123494285D01*
X195590000Y-124122857D02*
X195018571Y-124122857D01*
X195018571Y-122922857D01*
X195590000Y-122922857D01*
X196675714Y-124122857D02*
X196104285Y-124122857D01*
X196104285Y-122922857D01*
X197018571Y-123780000D02*
X197590000Y-123780000D01*
X196904285Y-124122857D02*
X197304285Y-122922857D01*
X197704285Y-124122857D01*
X198332857Y-123551428D02*
X198332857Y-124122857D01*
X197932857Y-122922857D02*
X198332857Y-123551428D01*
X198732857Y-122922857D01*
X201881428Y-126187142D02*
X201767142Y-126130000D01*
X201710000Y-126072857D01*
X201652857Y-125958571D01*
X201652857Y-125901428D01*
X201710000Y-125787142D01*
X201767142Y-125730000D01*
X201881428Y-125672857D01*
X202110000Y-125672857D01*
X202224285Y-125730000D01*
X202281428Y-125787142D01*
X202338571Y-125901428D01*
X202338571Y-125958571D01*
X202281428Y-126072857D01*
X202224285Y-126130000D01*
X202110000Y-126187142D01*
X201881428Y-126187142D01*
X201767142Y-126244285D01*
X201710000Y-126301428D01*
X201652857Y-126415714D01*
X201652857Y-126644285D01*
X201710000Y-126758571D01*
X201767142Y-126815714D01*
X201881428Y-126872857D01*
X202110000Y-126872857D01*
X202224285Y-126815714D01*
X202281428Y-126758571D01*
X202338571Y-126644285D01*
X202338571Y-126415714D01*
X202281428Y-126301428D01*
X202224285Y-126244285D01*
X202110000Y-126187142D01*
X203424285Y-125672857D02*
X202852857Y-125672857D01*
X202795714Y-126244285D01*
X202852857Y-126187142D01*
X202967142Y-126130000D01*
X203252857Y-126130000D01*
X203367142Y-126187142D01*
X203424285Y-126244285D01*
X203481428Y-126358571D01*
X203481428Y-126644285D01*
X203424285Y-126758571D01*
X203367142Y-126815714D01*
X203252857Y-126872857D01*
X202967142Y-126872857D01*
X202852857Y-126815714D01*
X202795714Y-126758571D01*
X203824285Y-125672857D02*
X204224285Y-126872857D01*
X204624285Y-125672857D01*
X205938571Y-126872857D02*
X205938571Y-125672857D01*
X206338571Y-126530000D01*
X206738571Y-125672857D01*
X206738571Y-126872857D01*
X207252857Y-126530000D02*
X207824285Y-126530000D01*
X207138571Y-126872857D02*
X207538571Y-125672857D01*
X207938571Y-126872857D01*
X208224285Y-125672857D02*
X209024285Y-126872857D01*
X209024285Y-125672857D02*
X208224285Y-126872857D01*
D14*
X158985714Y-62904761D02*
X158985714Y-60904761D01*
X158985714Y-62809523D02*
X158795238Y-62904761D01*
X158414285Y-62904761D01*
X158223809Y-62809523D01*
X158128571Y-62714285D01*
X158033333Y-62523809D01*
X158033333Y-61952380D01*
X158128571Y-61761904D01*
X158223809Y-61666666D01*
X158414285Y-61571428D01*
X158795238Y-61571428D01*
X158985714Y-61666666D01*
X159938095Y-62904761D02*
X159938095Y-61571428D01*
X159938095Y-60904761D02*
X159842857Y-61000000D01*
X159938095Y-61095238D01*
X160033333Y-61000000D01*
X159938095Y-60904761D01*
X159938095Y-61095238D01*
X160700000Y-61571428D02*
X161176190Y-62904761D01*
X161652380Y-61571428D02*
X161176190Y-62904761D01*
X160985714Y-63380952D01*
X160890476Y-63476190D01*
X160700000Y-63571428D01*
X163080952Y-61857142D02*
X163366666Y-61952380D01*
X163461904Y-62047619D01*
X163557142Y-62238095D01*
X163557142Y-62523809D01*
X163461904Y-62714285D01*
X163366666Y-62809523D01*
X163176190Y-62904761D01*
X162414285Y-62904761D01*
X162414285Y-60904761D01*
X163080952Y-60904761D01*
X163271428Y-61000000D01*
X163366666Y-61095238D01*
X163461904Y-61285714D01*
X163461904Y-61476190D01*
X163366666Y-61666666D01*
X163271428Y-61761904D01*
X163080952Y-61857142D01*
X162414285Y-61857142D01*
X164414285Y-62904761D02*
X164414285Y-60904761D01*
X165080952Y-62333333D01*
X165747619Y-60904761D01*
X165747619Y-62904761D01*
X166604761Y-62809523D02*
X166890476Y-62904761D01*
X167366666Y-62904761D01*
X167557142Y-62809523D01*
X167652380Y-62714285D01*
X167747619Y-62523809D01*
X167747619Y-62333333D01*
X167652380Y-62142857D01*
X167557142Y-62047619D01*
X167366666Y-61952380D01*
X166985714Y-61857142D01*
X166795238Y-61761904D01*
X166700000Y-61666666D01*
X166604761Y-61476190D01*
X166604761Y-61285714D01*
X166700000Y-61095238D01*
X166795238Y-61000000D01*
X166985714Y-60904761D01*
X167461904Y-60904761D01*
X167747619Y-61000000D01*
X170128571Y-62142857D02*
X171652380Y-62142857D01*
X175271428Y-62714285D02*
X175176190Y-62809523D01*
X174890476Y-62904761D01*
X174700000Y-62904761D01*
X174414285Y-62809523D01*
X174223809Y-62619047D01*
X174128571Y-62428571D01*
X174033333Y-62047619D01*
X174033333Y-61761904D01*
X174128571Y-61380952D01*
X174223809Y-61190476D01*
X174414285Y-61000000D01*
X174700000Y-60904761D01*
X174890476Y-60904761D01*
X175176190Y-61000000D01*
X175271428Y-61095238D01*
X176985714Y-61571428D02*
X176985714Y-62904761D01*
X176128571Y-61571428D02*
X176128571Y-62619047D01*
X176223809Y-62809523D01*
X176414285Y-62904761D01*
X176700000Y-62904761D01*
X176890476Y-62809523D01*
X176985714Y-62714285D01*
X177938095Y-62904761D02*
X177938095Y-61571428D01*
X177938095Y-61952380D02*
X178033333Y-61761904D01*
X178128571Y-61666666D01*
X178319047Y-61571428D01*
X178509523Y-61571428D01*
X179176190Y-62904761D02*
X179176190Y-61571428D01*
X179176190Y-61952380D02*
X179271428Y-61761904D01*
X179366666Y-61666666D01*
X179557142Y-61571428D01*
X179747619Y-61571428D01*
X181176190Y-62809523D02*
X180985714Y-62904761D01*
X180604761Y-62904761D01*
X180414285Y-62809523D01*
X180319047Y-62619047D01*
X180319047Y-61857142D01*
X180414285Y-61666666D01*
X180604761Y-61571428D01*
X180985714Y-61571428D01*
X181176190Y-61666666D01*
X181271428Y-61857142D01*
X181271428Y-62047619D01*
X180319047Y-62238095D01*
X182128571Y-61571428D02*
X182128571Y-62904761D01*
X182128571Y-61761904D02*
X182223809Y-61666666D01*
X182414285Y-61571428D01*
X182700000Y-61571428D01*
X182890476Y-61666666D01*
X182985714Y-61857142D01*
X182985714Y-62904761D01*
X183652380Y-61571428D02*
X184414285Y-61571428D01*
X183938095Y-60904761D02*
X183938095Y-62619047D01*
X184033333Y-62809523D01*
X184223809Y-62904761D01*
X184414285Y-62904761D01*
X188223809Y-62904761D02*
X188128571Y-62904761D01*
X187938095Y-62809523D01*
X187652380Y-62523809D01*
X187176190Y-61952380D01*
X186985714Y-61666666D01*
X186890476Y-61380952D01*
X186890476Y-61190476D01*
X186985714Y-61000000D01*
X187176190Y-60904761D01*
X187271428Y-60904761D01*
X187461904Y-61000000D01*
X187557142Y-61190476D01*
X187557142Y-61285714D01*
X187461904Y-61476190D01*
X187366666Y-61571428D01*
X186795238Y-61952380D01*
X186700000Y-62047619D01*
X186604761Y-62238095D01*
X186604761Y-62523809D01*
X186700000Y-62714285D01*
X186795238Y-62809523D01*
X186985714Y-62904761D01*
X187271428Y-62904761D01*
X187461904Y-62809523D01*
X187557142Y-62714285D01*
X187842857Y-62333333D01*
X187938095Y-62047619D01*
X187938095Y-61857142D01*
X190319047Y-60904761D02*
X190985714Y-62904761D01*
X191652380Y-60904761D01*
X192604761Y-62904761D02*
X192414285Y-62809523D01*
X192319047Y-62714285D01*
X192223809Y-62523809D01*
X192223809Y-61952380D01*
X192319047Y-61761904D01*
X192414285Y-61666666D01*
X192604761Y-61571428D01*
X192890476Y-61571428D01*
X193080952Y-61666666D01*
X193176190Y-61761904D01*
X193271428Y-61952380D01*
X193271428Y-62523809D01*
X193176190Y-62714285D01*
X193080952Y-62809523D01*
X192890476Y-62904761D01*
X192604761Y-62904761D01*
X194414285Y-62904761D02*
X194223809Y-62809523D01*
X194128571Y-62619047D01*
X194128571Y-60904761D01*
X194890476Y-61571428D02*
X195652380Y-61571428D01*
X195176190Y-60904761D02*
X195176190Y-62619047D01*
X195271428Y-62809523D01*
X195461904Y-62904761D01*
X195652380Y-62904761D01*
X197176190Y-62904761D02*
X197176190Y-61857142D01*
X197080952Y-61666666D01*
X196890476Y-61571428D01*
X196509523Y-61571428D01*
X196319047Y-61666666D01*
X197176190Y-62809523D02*
X196985714Y-62904761D01*
X196509523Y-62904761D01*
X196319047Y-62809523D01*
X196223809Y-62619047D01*
X196223809Y-62428571D01*
X196319047Y-62238095D01*
X196509523Y-62142857D01*
X196985714Y-62142857D01*
X197176190Y-62047619D01*
X198985714Y-61571428D02*
X198985714Y-63190476D01*
X198890476Y-63380952D01*
X198795238Y-63476190D01*
X198604761Y-63571428D01*
X198319047Y-63571428D01*
X198128571Y-63476190D01*
X198985714Y-62809523D02*
X198795238Y-62904761D01*
X198414285Y-62904761D01*
X198223809Y-62809523D01*
X198128571Y-62714285D01*
X198033333Y-62523809D01*
X198033333Y-61952380D01*
X198128571Y-61761904D01*
X198223809Y-61666666D01*
X198414285Y-61571428D01*
X198795238Y-61571428D01*
X198985714Y-61666666D01*
X200700000Y-62809523D02*
X200509523Y-62904761D01*
X200128571Y-62904761D01*
X199938095Y-62809523D01*
X199842857Y-62619047D01*
X199842857Y-61857142D01*
X199938095Y-61666666D01*
X200128571Y-61571428D01*
X200509523Y-61571428D01*
X200700000Y-61666666D01*
X200795238Y-61857142D01*
X200795238Y-62047619D01*
X199842857Y-62238095D01*
X203176190Y-62904761D02*
X203176190Y-60904761D01*
X203842857Y-62333333D01*
X204509523Y-60904761D01*
X204509523Y-62904761D01*
X205747619Y-62904761D02*
X205557142Y-62809523D01*
X205461904Y-62714285D01*
X205366666Y-62523809D01*
X205366666Y-61952380D01*
X205461904Y-61761904D01*
X205557142Y-61666666D01*
X205747619Y-61571428D01*
X206033333Y-61571428D01*
X206223809Y-61666666D01*
X206319047Y-61761904D01*
X206414285Y-61952380D01*
X206414285Y-62523809D01*
X206319047Y-62714285D01*
X206223809Y-62809523D01*
X206033333Y-62904761D01*
X205747619Y-62904761D01*
X207271428Y-61571428D02*
X207271428Y-62904761D01*
X207271428Y-61761904D02*
X207366666Y-61666666D01*
X207557142Y-61571428D01*
X207842857Y-61571428D01*
X208033333Y-61666666D01*
X208128571Y-61857142D01*
X208128571Y-62904761D01*
X209080952Y-62904761D02*
X209080952Y-61571428D01*
X209080952Y-60904761D02*
X208985714Y-61000000D01*
X209080952Y-61095238D01*
X209176190Y-61000000D01*
X209080952Y-60904761D01*
X209080952Y-61095238D01*
X209747619Y-61571428D02*
X210509523Y-61571428D01*
X210033333Y-60904761D02*
X210033333Y-62619047D01*
X210128571Y-62809523D01*
X210319047Y-62904761D01*
X210509523Y-62904761D01*
X211461904Y-62904761D02*
X211271428Y-62809523D01*
X211176190Y-62714285D01*
X211080952Y-62523809D01*
X211080952Y-61952380D01*
X211176190Y-61761904D01*
X211271428Y-61666666D01*
X211461904Y-61571428D01*
X211747619Y-61571428D01*
X211938095Y-61666666D01*
X212033333Y-61761904D01*
X212128571Y-61952380D01*
X212128571Y-62523809D01*
X212033333Y-62714285D01*
X211938095Y-62809523D01*
X211747619Y-62904761D01*
X211461904Y-62904761D01*
X212985714Y-62904761D02*
X212985714Y-61571428D01*
X212985714Y-61952380D02*
X213080952Y-61761904D01*
X213176190Y-61666666D01*
X213366666Y-61571428D01*
X213557142Y-61571428D01*
D10*
X178398095Y-111922380D02*
X178398095Y-110922380D01*
X178969523Y-111922380D02*
X178540952Y-111350952D01*
X178969523Y-110922380D02*
X178398095Y-111493809D01*
X186528095Y-111922380D02*
X186528095Y-110922380D01*
X187099523Y-111922380D02*
X186670952Y-111350952D01*
X187099523Y-110922380D02*
X186528095Y-111493809D01*
X211348095Y-118942380D02*
X211348095Y-117942380D01*
X211919523Y-118942380D02*
X211490952Y-118370952D01*
X211919523Y-117942380D02*
X211348095Y-118513809D01*
X179528571Y-108452380D02*
X179195238Y-107976190D01*
X178957142Y-108452380D02*
X178957142Y-107452380D01*
X179338095Y-107452380D01*
X179433333Y-107500000D01*
X179480952Y-107547619D01*
X179528571Y-107642857D01*
X179528571Y-107785714D01*
X179480952Y-107880952D01*
X179433333Y-107928571D01*
X179338095Y-107976190D01*
X178957142Y-107976190D01*
X180338095Y-108404761D02*
X180242857Y-108452380D01*
X180052380Y-108452380D01*
X179957142Y-108404761D01*
X179909523Y-108309523D01*
X179909523Y-107928571D01*
X179957142Y-107833333D01*
X180052380Y-107785714D01*
X180242857Y-107785714D01*
X180338095Y-107833333D01*
X180385714Y-107928571D01*
X180385714Y-108023809D01*
X179909523Y-108119047D01*
X181242857Y-108452380D02*
X181242857Y-107452380D01*
X181242857Y-108404761D02*
X181147619Y-108452380D01*
X180957142Y-108452380D01*
X180861904Y-108404761D01*
X180814285Y-108357142D01*
X180766666Y-108261904D01*
X180766666Y-107976190D01*
X180814285Y-107880952D01*
X180861904Y-107833333D01*
X180957142Y-107785714D01*
X181147619Y-107785714D01*
X181242857Y-107833333D01*
X186642857Y-107500000D02*
X186547619Y-107452380D01*
X186404761Y-107452380D01*
X186261904Y-107500000D01*
X186166666Y-107595238D01*
X186119047Y-107690476D01*
X186071428Y-107880952D01*
X186071428Y-108023809D01*
X186119047Y-108214285D01*
X186166666Y-108309523D01*
X186261904Y-108404761D01*
X186404761Y-108452380D01*
X186500000Y-108452380D01*
X186642857Y-108404761D01*
X186690476Y-108357142D01*
X186690476Y-108023809D01*
X186500000Y-108023809D01*
X187119047Y-108452380D02*
X187119047Y-107785714D01*
X187119047Y-107976190D02*
X187166666Y-107880952D01*
X187214285Y-107833333D01*
X187309523Y-107785714D01*
X187404761Y-107785714D01*
X188119047Y-108404761D02*
X188023809Y-108452380D01*
X187833333Y-108452380D01*
X187738095Y-108404761D01*
X187690476Y-108309523D01*
X187690476Y-107928571D01*
X187738095Y-107833333D01*
X187833333Y-107785714D01*
X188023809Y-107785714D01*
X188119047Y-107833333D01*
X188166666Y-107928571D01*
X188166666Y-108023809D01*
X187690476Y-108119047D01*
X188976190Y-108404761D02*
X188880952Y-108452380D01*
X188690476Y-108452380D01*
X188595238Y-108404761D01*
X188547619Y-108309523D01*
X188547619Y-107928571D01*
X188595238Y-107833333D01*
X188690476Y-107785714D01*
X188880952Y-107785714D01*
X188976190Y-107833333D01*
X189023809Y-107928571D01*
X189023809Y-108023809D01*
X188547619Y-108119047D01*
X189452380Y-107785714D02*
X189452380Y-108452380D01*
X189452380Y-107880952D02*
X189500000Y-107833333D01*
X189595238Y-107785714D01*
X189738095Y-107785714D01*
X189833333Y-107833333D01*
X189880952Y-107928571D01*
X189880952Y-108452380D01*
X147800000Y-120867857D02*
X147800000Y-119667857D01*
X148314285Y-120810714D02*
X148485714Y-120867857D01*
X148771428Y-120867857D01*
X148885714Y-120810714D01*
X148942857Y-120753571D01*
X149000000Y-120639285D01*
X149000000Y-120525000D01*
X148942857Y-120410714D01*
X148885714Y-120353571D01*
X148771428Y-120296428D01*
X148542857Y-120239285D01*
X148428571Y-120182142D01*
X148371428Y-120125000D01*
X148314285Y-120010714D01*
X148314285Y-119896428D01*
X148371428Y-119782142D01*
X148428571Y-119725000D01*
X148542857Y-119667857D01*
X148828571Y-119667857D01*
X149000000Y-119725000D01*
X149742857Y-119667857D02*
X149971428Y-119667857D01*
X150085714Y-119725000D01*
X150200000Y-119839285D01*
X150257142Y-120067857D01*
X150257142Y-120467857D01*
X150200000Y-120696428D01*
X150085714Y-120810714D01*
X149971428Y-120867857D01*
X149742857Y-120867857D01*
X149628571Y-120810714D01*
X149514285Y-120696428D01*
X149457142Y-120467857D01*
X149457142Y-120067857D01*
X149514285Y-119839285D01*
X149628571Y-119725000D01*
X149742857Y-119667857D01*
X151342857Y-120867857D02*
X150771428Y-120867857D01*
X150771428Y-119667857D01*
X151685714Y-120525000D02*
X152257142Y-120525000D01*
X151571428Y-120867857D02*
X151971428Y-119667857D01*
X152371428Y-120867857D01*
X152600000Y-119667857D02*
X153285714Y-119667857D01*
X152942857Y-120867857D02*
X152942857Y-119667857D01*
X153685714Y-120239285D02*
X154085714Y-120239285D01*
X154257142Y-120867857D02*
X153685714Y-120867857D01*
X153685714Y-119667857D01*
X154257142Y-119667857D01*
X154771428Y-120867857D02*
X154771428Y-119667857D01*
X155057142Y-119667857D01*
X155228571Y-119725000D01*
X155342857Y-119839285D01*
X155400000Y-119953571D01*
X155457142Y-120182142D01*
X155457142Y-120353571D01*
X155400000Y-120582142D01*
X155342857Y-120696428D01*
X155228571Y-120810714D01*
X155057142Y-120867857D01*
X154771428Y-120867857D01*
X149685714Y-122817857D02*
X149285714Y-122246428D01*
X149000000Y-122817857D02*
X149000000Y-121617857D01*
X149457142Y-121617857D01*
X149571428Y-121675000D01*
X149628571Y-121732142D01*
X149685714Y-121846428D01*
X149685714Y-122017857D01*
X149628571Y-122132142D01*
X149571428Y-122189285D01*
X149457142Y-122246428D01*
X149000000Y-122246428D01*
X150142857Y-122760714D02*
X150314285Y-122817857D01*
X150600000Y-122817857D01*
X150714285Y-122760714D01*
X150771428Y-122703571D01*
X150828571Y-122589285D01*
X150828571Y-122475000D01*
X150771428Y-122360714D01*
X150714285Y-122303571D01*
X150600000Y-122246428D01*
X150371428Y-122189285D01*
X150257142Y-122132142D01*
X150200000Y-122075000D01*
X150142857Y-121960714D01*
X150142857Y-121846428D01*
X150200000Y-121732142D01*
X150257142Y-121675000D01*
X150371428Y-121617857D01*
X150657142Y-121617857D01*
X150828571Y-121675000D01*
X151857142Y-122017857D02*
X151857142Y-122817857D01*
X151571428Y-121560714D02*
X151285714Y-122417857D01*
X152028571Y-122417857D01*
X152657142Y-122132142D02*
X152542857Y-122075000D01*
X152485714Y-122017857D01*
X152428571Y-121903571D01*
X152428571Y-121846428D01*
X152485714Y-121732142D01*
X152542857Y-121675000D01*
X152657142Y-121617857D01*
X152885714Y-121617857D01*
X153000000Y-121675000D01*
X153057142Y-121732142D01*
X153114285Y-121846428D01*
X153114285Y-121903571D01*
X153057142Y-122017857D01*
X153000000Y-122075000D01*
X152885714Y-122132142D01*
X152657142Y-122132142D01*
X152542857Y-122189285D01*
X152485714Y-122246428D01*
X152428571Y-122360714D01*
X152428571Y-122589285D01*
X152485714Y-122703571D01*
X152542857Y-122760714D01*
X152657142Y-122817857D01*
X152885714Y-122817857D01*
X153000000Y-122760714D01*
X153057142Y-122703571D01*
X153114285Y-122589285D01*
X153114285Y-122360714D01*
X153057142Y-122246428D01*
X153000000Y-122189285D01*
X152885714Y-122132142D01*
X154200000Y-121617857D02*
X153628571Y-121617857D01*
X153571428Y-122189285D01*
X153628571Y-122132142D01*
X153742857Y-122075000D01*
X154028571Y-122075000D01*
X154142857Y-122132142D01*
X154200000Y-122189285D01*
X154257142Y-122303571D01*
X154257142Y-122589285D01*
X154200000Y-122703571D01*
X154142857Y-122760714D01*
X154028571Y-122817857D01*
X153742857Y-122817857D01*
X153628571Y-122760714D01*
X153571428Y-122703571D01*
X165730000Y-118848214D02*
X165672857Y-118962500D01*
X165672857Y-119133928D01*
X165730000Y-119305357D01*
X165844285Y-119419642D01*
X165958571Y-119476785D01*
X166187142Y-119533928D01*
X166358571Y-119533928D01*
X166587142Y-119476785D01*
X166701428Y-119419642D01*
X166815714Y-119305357D01*
X166872857Y-119133928D01*
X166872857Y-119019642D01*
X166815714Y-118848214D01*
X166758571Y-118791071D01*
X166358571Y-118791071D01*
X166358571Y-119019642D01*
X166872857Y-118276785D02*
X165672857Y-118276785D01*
X166872857Y-117591071D01*
X165672857Y-117591071D01*
X166872857Y-117019642D02*
X165672857Y-117019642D01*
X165672857Y-116733928D01*
X165730000Y-116562500D01*
X165844285Y-116448214D01*
X165958571Y-116391071D01*
X166187142Y-116333928D01*
X166358571Y-116333928D01*
X166587142Y-116391071D01*
X166701428Y-116448214D01*
X166815714Y-116562500D01*
X166872857Y-116733928D01*
X166872857Y-117019642D01*
X164172857Y-118791071D02*
X163601428Y-119191071D01*
X164172857Y-119476785D02*
X162972857Y-119476785D01*
X162972857Y-119019642D01*
X163030000Y-118905357D01*
X163087142Y-118848214D01*
X163201428Y-118791071D01*
X163372857Y-118791071D01*
X163487142Y-118848214D01*
X163544285Y-118905357D01*
X163601428Y-119019642D01*
X163601428Y-119476785D01*
X163544285Y-118276785D02*
X163544285Y-117876785D01*
X164172857Y-117705357D02*
X164172857Y-118276785D01*
X162972857Y-118276785D01*
X162972857Y-117705357D01*
X164115714Y-117248214D02*
X164172857Y-117076785D01*
X164172857Y-116791071D01*
X164115714Y-116676785D01*
X164058571Y-116619642D01*
X163944285Y-116562500D01*
X163830000Y-116562500D01*
X163715714Y-116619642D01*
X163658571Y-116676785D01*
X163601428Y-116791071D01*
X163544285Y-117019642D01*
X163487142Y-117133928D01*
X163430000Y-117191071D01*
X163315714Y-117248214D01*
X163201428Y-117248214D01*
X163087142Y-117191071D01*
X163030000Y-117133928D01*
X162972857Y-117019642D01*
X162972857Y-116733928D01*
X163030000Y-116562500D01*
X163544285Y-116048214D02*
X163544285Y-115648214D01*
X164172857Y-115476785D02*
X164172857Y-116048214D01*
X162972857Y-116048214D01*
X162972857Y-115476785D01*
X162972857Y-115133928D02*
X162972857Y-114448214D01*
X164172857Y-114791071D02*
X162972857Y-114791071D01*
X161315714Y-119476785D02*
X161315714Y-118562500D01*
X161772857Y-119019642D02*
X160858571Y-119019642D01*
X160572857Y-117419642D02*
X160572857Y-117991071D01*
X161144285Y-118048214D01*
X161087142Y-117991071D01*
X161030000Y-117876785D01*
X161030000Y-117591071D01*
X161087142Y-117476785D01*
X161144285Y-117419642D01*
X161258571Y-117362500D01*
X161544285Y-117362500D01*
X161658571Y-117419642D01*
X161715714Y-117476785D01*
X161772857Y-117591071D01*
X161772857Y-117876785D01*
X161715714Y-117991071D01*
X161658571Y-118048214D01*
X160572857Y-117019642D02*
X161772857Y-116619642D01*
X160572857Y-116219642D01*
X173084285Y-123702857D02*
X173770000Y-123702857D01*
X173427142Y-124902857D02*
X173427142Y-123702857D01*
X174055714Y-123702857D02*
X174855714Y-124902857D01*
X174855714Y-123702857D02*
X174055714Y-124902857D01*
X175998571Y-124902857D02*
X175598571Y-124331428D01*
X175312857Y-124902857D02*
X175312857Y-123702857D01*
X175770000Y-123702857D01*
X175884285Y-123760000D01*
X175941428Y-123817142D01*
X175998571Y-123931428D01*
X175998571Y-124102857D01*
X175941428Y-124217142D01*
X175884285Y-124274285D01*
X175770000Y-124331428D01*
X175312857Y-124331428D01*
X176398571Y-123702857D02*
X177198571Y-124902857D01*
X177198571Y-123702857D02*
X176398571Y-124902857D01*
X168998571Y-124902857D02*
X168998571Y-123702857D01*
X169512857Y-123817142D02*
X169570000Y-123760000D01*
X169684285Y-123702857D01*
X169970000Y-123702857D01*
X170084285Y-123760000D01*
X170141428Y-123817142D01*
X170198571Y-123931428D01*
X170198571Y-124045714D01*
X170141428Y-124217142D01*
X169455714Y-124902857D01*
X170198571Y-124902857D01*
X171398571Y-124788571D02*
X171341428Y-124845714D01*
X171170000Y-124902857D01*
X171055714Y-124902857D01*
X170884285Y-124845714D01*
X170770000Y-124731428D01*
X170712857Y-124617142D01*
X170655714Y-124388571D01*
X170655714Y-124217142D01*
X170712857Y-123988571D01*
X170770000Y-123874285D01*
X170884285Y-123760000D01*
X171055714Y-123702857D01*
X171170000Y-123702857D01*
X171341428Y-123760000D01*
X171398571Y-123817142D01*
D11*
X177770000Y-123060000D02*
X177770000Y-125610000D01*
X172670000Y-123060000D02*
X172670000Y-125610000D01*
X167670000Y-123060000D02*
X167670000Y-125610000D01*
X159970000Y-122960000D02*
X159970000Y-125610000D01*
D10*
X161941428Y-123702857D02*
X161941428Y-124674285D01*
X161998571Y-124788571D01*
X162055714Y-124845714D01*
X162170000Y-124902857D01*
X162398571Y-124902857D01*
X162512857Y-124845714D01*
X162570000Y-124788571D01*
X162627142Y-124674285D01*
X162627142Y-123702857D01*
X163198571Y-124902857D02*
X163198571Y-123702857D01*
X163655714Y-123702857D01*
X163770000Y-123760000D01*
X163827142Y-123817142D01*
X163884285Y-123931428D01*
X163884285Y-124102857D01*
X163827142Y-124217142D01*
X163770000Y-124274285D01*
X163655714Y-124331428D01*
X163198571Y-124331428D01*
X164398571Y-124902857D02*
X164398571Y-123702857D01*
X164684285Y-123702857D01*
X164855714Y-123760000D01*
X164970000Y-123874285D01*
X165027142Y-123988571D01*
X165084285Y-124217142D01*
X165084285Y-124388571D01*
X165027142Y-124617142D01*
X164970000Y-124731428D01*
X164855714Y-124845714D01*
X164684285Y-124902857D01*
X164398571Y-124902857D01*
X165598571Y-124902857D02*
X165598571Y-123702857D01*
D11*
X180320000Y-123110000D02*
X180320000Y-125610000D01*
D10*
X181194285Y-124187142D02*
X181251428Y-124015714D01*
X181308571Y-123958571D01*
X181422857Y-123901428D01*
X181594285Y-123901428D01*
X181708571Y-123958571D01*
X181765714Y-124015714D01*
X181822857Y-124130000D01*
X181822857Y-124587142D01*
X180622857Y-124587142D01*
X180622857Y-124187142D01*
X180680000Y-124072857D01*
X180737142Y-124015714D01*
X180851428Y-123958571D01*
X180965714Y-123958571D01*
X181080000Y-124015714D01*
X181137142Y-124072857D01*
X181194285Y-124187142D01*
X181194285Y-124587142D01*
X181480000Y-123444285D02*
X181480000Y-122872857D01*
X181822857Y-123558571D02*
X180622857Y-123158571D01*
X181822857Y-122758571D01*
X180622857Y-122358571D02*
X181594285Y-122358571D01*
X181708571Y-122301428D01*
X181765714Y-122244285D01*
X181822857Y-122130000D01*
X181822857Y-121901428D01*
X181765714Y-121787142D01*
X181708571Y-121730000D01*
X181594285Y-121672857D01*
X180622857Y-121672857D01*
X181822857Y-121101428D02*
X180622857Y-121101428D01*
X180622857Y-120815714D01*
X180680000Y-120644285D01*
X180794285Y-120530000D01*
X180908571Y-120472857D01*
X181137142Y-120415714D01*
X181308571Y-120415714D01*
X181537142Y-120472857D01*
X181651428Y-120530000D01*
X181765714Y-120644285D01*
X181822857Y-120815714D01*
X181822857Y-121101428D01*
X180952380Y-54935160D02*
X181142857Y-54935160D01*
X181238095Y-54887541D01*
X181285714Y-54839922D01*
X181380952Y-54697065D01*
X181428571Y-54506589D01*
X181428571Y-54125637D01*
X181380952Y-54030399D01*
X181333333Y-53982780D01*
X181238095Y-53935160D01*
X181047619Y-53935160D01*
X180952380Y-53982780D01*
X180904761Y-54030399D01*
X180857142Y-54125637D01*
X180857142Y-54363732D01*
X180904761Y-54458970D01*
X180952380Y-54506589D01*
X181047619Y-54554208D01*
X181238095Y-54554208D01*
X181333333Y-54506589D01*
X181380952Y-54458970D01*
X181428571Y-54363732D01*
X182047619Y-53935160D02*
X182142857Y-53935160D01*
X182238095Y-53982780D01*
X182285714Y-54030399D01*
X182333333Y-54125637D01*
X182380952Y-54316113D01*
X182380952Y-54554208D01*
X182333333Y-54744684D01*
X182285714Y-54839922D01*
X182238095Y-54887541D01*
X182142857Y-54935160D01*
X182047619Y-54935160D01*
X181952380Y-54887541D01*
X181904761Y-54839922D01*
X181857142Y-54744684D01*
X181809523Y-54554208D01*
X181809523Y-54316113D01*
X181857142Y-54125637D01*
X181904761Y-54030399D01*
X181952380Y-53982780D01*
X182047619Y-53935160D01*
X182809523Y-54839922D02*
X182857142Y-54887541D01*
X182809523Y-54935160D01*
X182761904Y-54887541D01*
X182809523Y-54839922D01*
X182809523Y-54935160D01*
X183476190Y-53935160D02*
X183571428Y-53935160D01*
X183666666Y-53982780D01*
X183714285Y-54030399D01*
X183761904Y-54125637D01*
X183809523Y-54316113D01*
X183809523Y-54554208D01*
X183761904Y-54744684D01*
X183714285Y-54839922D01*
X183666666Y-54887541D01*
X183571428Y-54935160D01*
X183476190Y-54935160D01*
X183380952Y-54887541D01*
X183333333Y-54839922D01*
X183285714Y-54744684D01*
X183238095Y-54554208D01*
X183238095Y-54316113D01*
X183285714Y-54125637D01*
X183333333Y-54030399D01*
X183380952Y-53982780D01*
X183476190Y-53935160D01*
X184428571Y-53935160D02*
X184523809Y-53935160D01*
X184619047Y-53982780D01*
X184666666Y-54030399D01*
X184714285Y-54125637D01*
X184761904Y-54316113D01*
X184761904Y-54554208D01*
X184714285Y-54744684D01*
X184666666Y-54839922D01*
X184619047Y-54887541D01*
X184523809Y-54935160D01*
X184428571Y-54935160D01*
X184333333Y-54887541D01*
X184285714Y-54839922D01*
X184238095Y-54744684D01*
X184190476Y-54554208D01*
X184190476Y-54316113D01*
X184238095Y-54125637D01*
X184285714Y-54030399D01*
X184333333Y-53982780D01*
X184428571Y-53935160D01*
X185380952Y-53935160D02*
X185476190Y-53935160D01*
X185571428Y-53982780D01*
X185619047Y-54030399D01*
X185666666Y-54125637D01*
X185714285Y-54316113D01*
X185714285Y-54554208D01*
X185666666Y-54744684D01*
X185619047Y-54839922D01*
X185571428Y-54887541D01*
X185476190Y-54935160D01*
X185380952Y-54935160D01*
X185285714Y-54887541D01*
X185238095Y-54839922D01*
X185190476Y-54744684D01*
X185142857Y-54554208D01*
X185142857Y-54316113D01*
X185190476Y-54125637D01*
X185238095Y-54030399D01*
X185285714Y-53982780D01*
X185380952Y-53935160D01*
X186904761Y-54935160D02*
X186904761Y-54268494D01*
X186904761Y-54363732D02*
X186952380Y-54316113D01*
X187047619Y-54268494D01*
X187190476Y-54268494D01*
X187285714Y-54316113D01*
X187333333Y-54411351D01*
X187333333Y-54935160D01*
X187333333Y-54411351D02*
X187380952Y-54316113D01*
X187476190Y-54268494D01*
X187619047Y-54268494D01*
X187714285Y-54316113D01*
X187761904Y-54411351D01*
X187761904Y-54935160D01*
X188238095Y-54935160D02*
X188238095Y-54268494D01*
X188238095Y-54363732D02*
X188285714Y-54316113D01*
X188380952Y-54268494D01*
X188523809Y-54268494D01*
X188619047Y-54316113D01*
X188666666Y-54411351D01*
X188666666Y-54935160D01*
X188666666Y-54411351D02*
X188714285Y-54316113D01*
X188809523Y-54268494D01*
X188952380Y-54268494D01*
X189047619Y-54316113D01*
X189095238Y-54411351D01*
X189095238Y-54935160D01*
D11*
X230000000Y-55752780D02*
X140000000Y-55752780D01*
X230000000Y-58000000D02*
X230000000Y-55166359D01*
X140000000Y-58000000D02*
X140000000Y-55166359D01*
X140000000Y-55752780D02*
X141126504Y-55166359D01*
X140000000Y-55752780D02*
X141126504Y-56339201D01*
X230000000Y-55752780D02*
X228873496Y-55166359D01*
X230000000Y-55752780D02*
X228873496Y-56339201D01*
D10*
X234722380Y-98190476D02*
X234722380Y-97523809D01*
X235722380Y-97952380D01*
X234817619Y-97190476D02*
X234770000Y-97142857D01*
X234722380Y-97047619D01*
X234722380Y-96809523D01*
X234770000Y-96714285D01*
X234817619Y-96666666D01*
X234912857Y-96619047D01*
X235008095Y-96619047D01*
X235150952Y-96666666D01*
X235722380Y-97238095D01*
X235722380Y-96619047D01*
X235627142Y-96190476D02*
X235674761Y-96142857D01*
X235722380Y-96190476D01*
X235674761Y-96238095D01*
X235627142Y-96190476D01*
X235722380Y-96190476D01*
X234722380Y-95523809D02*
X234722380Y-95428571D01*
X234770000Y-95333333D01*
X234817619Y-95285714D01*
X234912857Y-95238095D01*
X235103333Y-95190476D01*
X235341428Y-95190476D01*
X235531904Y-95238095D01*
X235627142Y-95285714D01*
X235674761Y-95333333D01*
X235722380Y-95428571D01*
X235722380Y-95523809D01*
X235674761Y-95619047D01*
X235627142Y-95666666D01*
X235531904Y-95714285D01*
X235341428Y-95761904D01*
X235103333Y-95761904D01*
X234912857Y-95714285D01*
X234817619Y-95666666D01*
X234770000Y-95619047D01*
X234722380Y-95523809D01*
X234722380Y-94571428D02*
X234722380Y-94476190D01*
X234770000Y-94380952D01*
X234817619Y-94333333D01*
X234912857Y-94285714D01*
X235103333Y-94238095D01*
X235341428Y-94238095D01*
X235531904Y-94285714D01*
X235627142Y-94333333D01*
X235674761Y-94380952D01*
X235722380Y-94476190D01*
X235722380Y-94571428D01*
X235674761Y-94666666D01*
X235627142Y-94714285D01*
X235531904Y-94761904D01*
X235341428Y-94809523D01*
X235103333Y-94809523D01*
X234912857Y-94761904D01*
X234817619Y-94714285D01*
X234770000Y-94666666D01*
X234722380Y-94571428D01*
X234722380Y-93619047D02*
X234722380Y-93523809D01*
X234770000Y-93428571D01*
X234817619Y-93380952D01*
X234912857Y-93333333D01*
X235103333Y-93285714D01*
X235341428Y-93285714D01*
X235531904Y-93333333D01*
X235627142Y-93380952D01*
X235674761Y-93428571D01*
X235722380Y-93523809D01*
X235722380Y-93619047D01*
X235674761Y-93714285D01*
X235627142Y-93761904D01*
X235531904Y-93809523D01*
X235341428Y-93857142D01*
X235103333Y-93857142D01*
X234912857Y-93809523D01*
X234817619Y-93761904D01*
X234770000Y-93714285D01*
X234722380Y-93619047D01*
X235722380Y-92095238D02*
X235055714Y-92095238D01*
X235150952Y-92095238D02*
X235103333Y-92047619D01*
X235055714Y-91952380D01*
X235055714Y-91809523D01*
X235103333Y-91714285D01*
X235198571Y-91666666D01*
X235722380Y-91666666D01*
X235198571Y-91666666D02*
X235103333Y-91619047D01*
X235055714Y-91523809D01*
X235055714Y-91380952D01*
X235103333Y-91285714D01*
X235198571Y-91238095D01*
X235722380Y-91238095D01*
X235722380Y-90761904D02*
X235055714Y-90761904D01*
X235150952Y-90761904D02*
X235103333Y-90714285D01*
X235055714Y-90619047D01*
X235055714Y-90476190D01*
X235103333Y-90380952D01*
X235198571Y-90333333D01*
X235722380Y-90333333D01*
X235198571Y-90333333D02*
X235103333Y-90285714D01*
X235055714Y-90190476D01*
X235055714Y-90047619D01*
X235103333Y-89952380D01*
X235198571Y-89904761D01*
X235722380Y-89904761D01*
D11*
X234000000Y-130000000D02*
X234000000Y-58000000D01*
X231900000Y-130000000D02*
X234586421Y-130000000D01*
X231900000Y-58000000D02*
X234586421Y-58000000D01*
X234000000Y-58000000D02*
X234586421Y-59126504D01*
X234000000Y-58000000D02*
X233413579Y-59126504D01*
X234000000Y-130000000D02*
X234586421Y-128873496D01*
X234000000Y-130000000D02*
X233413579Y-128873496D01*
X182300000Y-123900000D02*
X182300000Y-117079000D01*
X189060000Y-123900000D02*
X189060000Y-117079000D01*
X182300000Y-123900000D02*
X183370000Y-123900000D01*
X185450000Y-123900000D02*
X185961000Y-123900000D01*
X187940000Y-123900000D02*
X189060000Y-123900000D01*
X187940000Y-117079000D02*
X189060000Y-117079000D01*
X182300000Y-117079000D02*
X183420000Y-117079000D01*
X185400000Y-117079000D02*
X185961000Y-117079000D01*
X182060000Y-124140000D02*
X182060000Y-122757000D01*
X182060000Y-124140000D02*
X183370000Y-124140000D01*
X183775000Y-122300000D02*
X185045000Y-122300000D01*
X185045000Y-122300000D02*
X185045000Y-118680000D01*
X185045000Y-118680000D02*
X183775000Y-118680000D01*
X183775000Y-118680000D02*
X183775000Y-122300000D01*
X183895000Y-122300000D02*
X183895000Y-121093333D01*
X184015000Y-122300000D02*
X184015000Y-121093333D01*
X184135000Y-122300000D02*
X184135000Y-121093333D01*
X184255000Y-122300000D02*
X184255000Y-121093333D01*
X184375000Y-122300000D02*
X184375000Y-121093333D01*
X184495000Y-122300000D02*
X184495000Y-121093333D01*
X184615000Y-122300000D02*
X184615000Y-121093333D01*
X184735000Y-122300000D02*
X184735000Y-121093333D01*
X184855000Y-122300000D02*
X184855000Y-121093333D01*
X184975000Y-122300000D02*
X184975000Y-121093333D01*
X183775000Y-121093333D02*
X185045000Y-121093333D01*
X186315000Y-122300000D02*
X187585000Y-122300000D01*
X187585000Y-122300000D02*
X187585000Y-118680000D01*
X187585000Y-118680000D02*
X186315000Y-118680000D01*
X186315000Y-118680000D02*
X186315000Y-122300000D01*
X186435000Y-122300000D02*
X186435000Y-121093333D01*
X186555000Y-122300000D02*
X186555000Y-121093333D01*
X186675000Y-122300000D02*
X186675000Y-121093333D01*
X186795000Y-122300000D02*
X186795000Y-121093333D01*
X186915000Y-122300000D02*
X186915000Y-121093333D01*
X187035000Y-122300000D02*
X187035000Y-121093333D01*
X187155000Y-122300000D02*
X187155000Y-121093333D01*
X187275000Y-122300000D02*
X187275000Y-121093333D01*
X187395000Y-122300000D02*
X187395000Y-121093333D01*
X187515000Y-122300000D02*
X187515000Y-121093333D01*
X186315000Y-121093333D02*
X187585000Y-121093333D01*
X180350000Y-122790000D02*
X180350000Y-120130000D01*
X162510000Y-122790000D02*
X180350000Y-122790000D01*
X162510000Y-120130000D02*
X180350000Y-120130000D01*
X162510000Y-122790000D02*
X162510000Y-120130000D01*
X161240000Y-122790000D02*
X159910000Y-122790000D01*
X159910000Y-122790000D02*
X159910000Y-121460000D01*
X159600000Y-107750000D02*
X159600000Y-105750000D01*
X162400000Y-107750000D02*
X159600000Y-107750000D01*
X162400000Y-105750000D02*
X162400000Y-107750000D01*
X159600000Y-105750000D02*
X162400000Y-105750000D01*
X210060000Y-122606667D02*
X210060000Y-124940000D01*
X210060000Y-124940000D02*
X207726667Y-124940000D01*
X209680000Y-124560000D02*
X202440000Y-124560000D01*
X202440000Y-124560000D02*
X202440000Y-122290000D01*
X202440000Y-119590000D02*
X202440000Y-117320000D01*
X209680000Y-117320000D02*
X202440000Y-117320000D01*
X209680000Y-124560000D02*
X209680000Y-122290000D01*
X209680000Y-119590000D02*
X209680000Y-117320000D01*
X191980000Y-117350000D02*
X199980000Y-117350000D01*
X191980000Y-110350000D02*
X193980000Y-110350000D01*
X191980000Y-118350000D02*
X191980000Y-110350000D01*
X199980000Y-118350000D02*
X191980000Y-118350000D01*
X199980000Y-110350000D02*
X199980000Y-118350000D01*
X193980000Y-110350000D02*
X199980000Y-110350000D01*
X169850000Y-105650000D02*
X172750000Y-105650000D01*
X172750000Y-105650000D02*
X172750000Y-108550000D01*
X172750000Y-108550000D02*
X169850000Y-108550000D01*
X169850000Y-108550000D02*
X169850000Y-105650000D01*
X195300000Y-105650000D02*
X198200000Y-105650000D01*
X198200000Y-105650000D02*
X198200000Y-108550000D01*
X198200000Y-108550000D02*
X195300000Y-108550000D01*
X195300000Y-108550000D02*
X195300000Y-105650000D01*
X218100000Y-108880000D02*
X226700000Y-108880000D01*
X226700000Y-104780000D02*
X226700000Y-108880000D01*
X218100000Y-104780000D02*
X218100000Y-108880000D01*
X218100000Y-104780000D02*
X226700000Y-104780000D01*
X181000000Y-108840000D02*
X178315000Y-108840000D01*
X178315000Y-108840000D02*
X178315000Y-110760000D01*
X178315000Y-110760000D02*
X181000000Y-110760000D01*
X189000000Y-108840000D02*
X186315000Y-108840000D01*
X186315000Y-108840000D02*
X186315000Y-110760000D01*
X186315000Y-110760000D02*
X189000000Y-110760000D01*
D10*
X188754761Y-121333333D02*
X188802380Y-121190476D01*
X188802380Y-120952380D01*
X188754761Y-120857142D01*
X188707142Y-120809523D01*
X188611904Y-120761904D01*
X188516666Y-120761904D01*
X188421428Y-120809523D01*
X188373809Y-120857142D01*
X188326190Y-120952380D01*
X188278571Y-121142857D01*
X188230952Y-121238095D01*
X188183333Y-121285714D01*
X188088095Y-121333333D01*
X187992857Y-121333333D01*
X187897619Y-121285714D01*
X187850000Y-121238095D01*
X187802380Y-121142857D01*
X187802380Y-120904761D01*
X187850000Y-120761904D01*
X187802380Y-120428571D02*
X188802380Y-120190476D01*
X188088095Y-120000000D01*
X188802380Y-119809523D01*
X187802380Y-119571428D01*
X188802380Y-118666666D02*
X188802380Y-119238095D01*
X188802380Y-118952380D02*
X187802380Y-118952380D01*
X187945238Y-119047619D01*
X188040476Y-119142857D01*
X188088095Y-119238095D01*
X158362380Y-121793333D02*
X159076666Y-121793333D01*
X159219523Y-121840952D01*
X159314761Y-121936190D01*
X159362380Y-122079047D01*
X159362380Y-122174285D01*
X158362380Y-121412380D02*
X158362380Y-120793333D01*
X158743333Y-121126666D01*
X158743333Y-120983809D01*
X158790952Y-120888571D01*
X158838571Y-120840952D01*
X158933809Y-120793333D01*
X159171904Y-120793333D01*
X159267142Y-120840952D01*
X159314761Y-120888571D01*
X159362380Y-120983809D01*
X159362380Y-121269523D01*
X159314761Y-121364761D01*
X159267142Y-121412380D01*
X213866666Y-109862380D02*
X213866666Y-110576666D01*
X213819047Y-110719523D01*
X213723809Y-110814761D01*
X213580952Y-110862380D01*
X213485714Y-110862380D01*
X214771428Y-110195714D02*
X214771428Y-110862380D01*
X214533333Y-109814761D02*
X214295238Y-110529047D01*
X214914285Y-110529047D01*
X171480952Y-82852380D02*
X171480952Y-81852380D01*
X171814285Y-82566666D01*
X172147619Y-81852380D01*
X172147619Y-82852380D01*
X173052380Y-82185714D02*
X173052380Y-82852380D01*
X172623809Y-82185714D02*
X172623809Y-82709523D01*
X172671428Y-82804761D01*
X172766666Y-82852380D01*
X172909523Y-82852380D01*
X173004761Y-82804761D01*
X173052380Y-82757142D01*
X173528571Y-82852380D02*
X173528571Y-82185714D01*
X173528571Y-82376190D02*
X173576190Y-82280952D01*
X173623809Y-82233333D01*
X173719047Y-82185714D01*
X173814285Y-82185714D01*
X174576190Y-82852380D02*
X174576190Y-82328571D01*
X174528571Y-82233333D01*
X174433333Y-82185714D01*
X174242857Y-82185714D01*
X174147619Y-82233333D01*
X174576190Y-82804761D02*
X174480952Y-82852380D01*
X174242857Y-82852380D01*
X174147619Y-82804761D01*
X174100000Y-82709523D01*
X174100000Y-82614285D01*
X174147619Y-82519047D01*
X174242857Y-82471428D01*
X174480952Y-82471428D01*
X174576190Y-82423809D01*
X174909523Y-82185714D02*
X175290476Y-82185714D01*
X175052380Y-81852380D02*
X175052380Y-82709523D01*
X175100000Y-82804761D01*
X175195238Y-82852380D01*
X175290476Y-82852380D01*
X176052380Y-82852380D02*
X176052380Y-82328571D01*
X176004761Y-82233333D01*
X175909523Y-82185714D01*
X175719047Y-82185714D01*
X175623809Y-82233333D01*
X176052380Y-82804761D02*
X175957142Y-82852380D01*
X175719047Y-82852380D01*
X175623809Y-82804761D01*
X175576190Y-82709523D01*
X175576190Y-82614285D01*
X175623809Y-82519047D01*
X175719047Y-82471428D01*
X175957142Y-82471428D01*
X176052380Y-82423809D01*
X177242857Y-82804761D02*
X177385714Y-82852380D01*
X177623809Y-82852380D01*
X177719047Y-82804761D01*
X177766666Y-82757142D01*
X177814285Y-82661904D01*
X177814285Y-82566666D01*
X177766666Y-82471428D01*
X177719047Y-82423809D01*
X177623809Y-82376190D01*
X177433333Y-82328571D01*
X177338095Y-82280952D01*
X177290476Y-82233333D01*
X177242857Y-82138095D01*
X177242857Y-82042857D01*
X177290476Y-81947619D01*
X177338095Y-81900000D01*
X177433333Y-81852380D01*
X177671428Y-81852380D01*
X177814285Y-81900000D01*
X178100000Y-82185714D02*
X178480952Y-82185714D01*
X178242857Y-81852380D02*
X178242857Y-82709523D01*
X178290476Y-82804761D01*
X178385714Y-82852380D01*
X178480952Y-82852380D01*
X178719047Y-82185714D02*
X178957142Y-82852380D01*
X179195238Y-82185714D02*
X178957142Y-82852380D01*
X178861904Y-83090476D01*
X178814285Y-83138095D01*
X178719047Y-83185714D01*
X179719047Y-82852380D02*
X179623809Y-82804761D01*
X179576190Y-82709523D01*
X179576190Y-81852380D01*
X180480952Y-82804761D02*
X180385714Y-82852380D01*
X180195238Y-82852380D01*
X180100000Y-82804761D01*
X180052380Y-82709523D01*
X180052380Y-82328571D01*
X180100000Y-82233333D01*
X180195238Y-82185714D01*
X180385714Y-82185714D01*
X180480952Y-82233333D01*
X180528571Y-82328571D01*
X180528571Y-82423809D01*
X180052380Y-82519047D01*
X181671428Y-82804761D02*
X181814285Y-82852380D01*
X182052380Y-82852380D01*
X182147619Y-82804761D01*
X182195238Y-82757142D01*
X182242857Y-82661904D01*
X182242857Y-82566666D01*
X182195238Y-82471428D01*
X182147619Y-82423809D01*
X182052380Y-82376190D01*
X181861904Y-82328571D01*
X181766666Y-82280952D01*
X181719047Y-82233333D01*
X181671428Y-82138095D01*
X181671428Y-82042857D01*
X181719047Y-81947619D01*
X181766666Y-81900000D01*
X181861904Y-81852380D01*
X182100000Y-81852380D01*
X182242857Y-81900000D01*
X182671428Y-82852380D02*
X182671428Y-81852380D01*
X183100000Y-82852380D02*
X183100000Y-82328571D01*
X183052380Y-82233333D01*
X182957142Y-82185714D01*
X182814285Y-82185714D01*
X182719047Y-82233333D01*
X182671428Y-82280952D01*
X184004761Y-82185714D02*
X184004761Y-82852380D01*
X183576190Y-82185714D02*
X183576190Y-82709523D01*
X183623809Y-82804761D01*
X183719047Y-82852380D01*
X183861904Y-82852380D01*
X183957142Y-82804761D01*
X184004761Y-82757142D01*
X184480952Y-82185714D02*
X184480952Y-82852380D01*
X184480952Y-82280952D02*
X184528571Y-82233333D01*
X184623809Y-82185714D01*
X184766666Y-82185714D01*
X184861904Y-82233333D01*
X184909523Y-82328571D01*
X184909523Y-82852380D01*
X185242857Y-82185714D02*
X185623809Y-82185714D01*
X185385714Y-81852380D02*
X185385714Y-82709523D01*
X185433333Y-82804761D01*
X185528571Y-82852380D01*
X185623809Y-82852380D01*
X186623809Y-81852380D02*
X187242857Y-81852380D01*
X186909523Y-82233333D01*
X187052380Y-82233333D01*
X187147619Y-82280952D01*
X187195238Y-82328571D01*
X187242857Y-82423809D01*
X187242857Y-82661904D01*
X187195238Y-82757142D01*
X187147619Y-82804761D01*
X187052380Y-82852380D01*
X186766666Y-82852380D01*
X186671428Y-82804761D01*
X186623809Y-82757142D01*
X187861904Y-81852380D02*
X187957142Y-81852380D01*
X188052380Y-81900000D01*
X188100000Y-81947619D01*
X188147619Y-82042857D01*
X188195238Y-82233333D01*
X188195238Y-82471428D01*
X188147619Y-82661904D01*
X188100000Y-82757142D01*
X188052380Y-82804761D01*
X187957142Y-82852380D01*
X187861904Y-82852380D01*
X187766666Y-82804761D01*
X187719047Y-82757142D01*
X187671428Y-82661904D01*
X187623809Y-82471428D01*
X187623809Y-82233333D01*
X187671428Y-82042857D01*
X187719047Y-81947619D01*
X187766666Y-81900000D01*
X187861904Y-81852380D01*
X188576190Y-81947619D02*
X188623809Y-81900000D01*
X188719047Y-81852380D01*
X188957142Y-81852380D01*
X189052380Y-81900000D01*
X189100000Y-81947619D01*
X189147619Y-82042857D01*
X189147619Y-82138095D01*
X189100000Y-82280952D01*
X188528571Y-82852380D01*
X189147619Y-82852380D01*
X189766666Y-81852380D02*
X189861904Y-81852380D01*
X189957142Y-81900000D01*
X190004761Y-81947619D01*
X190052380Y-82042857D01*
X190100000Y-82233333D01*
X190100000Y-82471428D01*
X190052380Y-82661904D01*
X190004761Y-82757142D01*
X189957142Y-82804761D01*
X189861904Y-82852380D01*
X189766666Y-82852380D01*
X189671428Y-82804761D01*
X189623809Y-82757142D01*
X189576190Y-82661904D01*
X189528571Y-82471428D01*
X189528571Y-82233333D01*
X189576190Y-82042857D01*
X189623809Y-81947619D01*
X189671428Y-81900000D01*
X189766666Y-81852380D01*
X190528571Y-82471428D02*
X191290476Y-82471428D01*
X191957142Y-81852380D02*
X192052380Y-81852380D01*
X192147619Y-81900000D01*
X192195238Y-81947619D01*
X192242857Y-82042857D01*
X192290476Y-82233333D01*
X192290476Y-82471428D01*
X192242857Y-82661904D01*
X192195238Y-82757142D01*
X192147619Y-82804761D01*
X192052380Y-82852380D01*
X191957142Y-82852380D01*
X191861904Y-82804761D01*
X191814285Y-82757142D01*
X191766666Y-82661904D01*
X191719047Y-82471428D01*
X191719047Y-82233333D01*
X191766666Y-82042857D01*
X191814285Y-81947619D01*
X191861904Y-81900000D01*
X191957142Y-81852380D01*
X193242857Y-82852380D02*
X192671428Y-82852380D01*
X192957142Y-82852380D02*
X192957142Y-81852380D01*
X192861904Y-81995238D01*
X192766666Y-82090476D01*
X192671428Y-82138095D01*
X194195238Y-82852380D02*
X193623809Y-82852380D01*
X193909523Y-82852380D02*
X193909523Y-81852380D01*
X193814285Y-81995238D01*
X193719047Y-82090476D01*
X193623809Y-82138095D01*
X194814285Y-81852380D02*
X194909523Y-81852380D01*
X195004761Y-81900000D01*
X195052380Y-81947619D01*
X195099999Y-82042857D01*
X195147619Y-82233333D01*
X195147619Y-82471428D01*
X195099999Y-82661904D01*
X195052380Y-82757142D01*
X195004761Y-82804761D01*
X194909523Y-82852380D01*
X194814285Y-82852380D01*
X194719047Y-82804761D01*
X194671428Y-82757142D01*
X194623809Y-82661904D01*
X194576190Y-82471428D01*
X194576190Y-82233333D01*
X194623809Y-82042857D01*
X194671428Y-81947619D01*
X194719047Y-81900000D01*
X194814285Y-81852380D01*
X195766666Y-81852380D02*
X195861904Y-81852380D01*
X195957142Y-81900000D01*
X196004761Y-81947619D01*
X196052380Y-82042857D01*
X196099999Y-82233333D01*
X196099999Y-82471428D01*
X196052380Y-82661904D01*
X196004761Y-82757142D01*
X195957142Y-82804761D01*
X195861904Y-82852380D01*
X195766666Y-82852380D01*
X195671428Y-82804761D01*
X195623809Y-82757142D01*
X195576190Y-82661904D01*
X195528571Y-82471428D01*
X195528571Y-82233333D01*
X195576190Y-82042857D01*
X195623809Y-81947619D01*
X195671428Y-81900000D01*
X195766666Y-81852380D01*
X196528571Y-82471428D02*
X197290476Y-82471428D01*
X197957142Y-81852380D02*
X198052380Y-81852380D01*
X198147619Y-81900000D01*
X198195238Y-81947619D01*
X198242857Y-82042857D01*
X198290476Y-82233333D01*
X198290476Y-82471428D01*
X198242857Y-82661904D01*
X198195238Y-82757142D01*
X198147619Y-82804761D01*
X198052380Y-82852380D01*
X197957142Y-82852380D01*
X197861904Y-82804761D01*
X197814285Y-82757142D01*
X197766666Y-82661904D01*
X197719047Y-82471428D01*
X197719047Y-82233333D01*
X197766666Y-82042857D01*
X197814285Y-81947619D01*
X197861904Y-81900000D01*
X197957142Y-81852380D01*
X200004761Y-82852380D02*
X199433333Y-82852380D01*
X199719047Y-82852380D02*
X199719047Y-81852380D01*
X199623809Y-81995238D01*
X199528571Y-82090476D01*
X199433333Y-82138095D01*
X200909523Y-81852380D02*
X200433333Y-81852380D01*
X200385714Y-82328571D01*
X200433333Y-82280952D01*
X200528571Y-82233333D01*
X200766666Y-82233333D01*
X200861904Y-82280952D01*
X200909523Y-82328571D01*
X200957142Y-82423809D01*
X200957142Y-82661904D01*
X200909523Y-82757142D01*
X200861904Y-82804761D01*
X200766666Y-82852380D01*
X200528571Y-82852380D01*
X200433333Y-82804761D01*
X200385714Y-82757142D01*
X201576190Y-81852380D02*
X201671428Y-81852380D01*
X201766666Y-81900000D01*
X201814285Y-81947619D01*
X201861904Y-82042857D01*
X201909523Y-82233333D01*
X201909523Y-82471428D01*
X201861904Y-82661904D01*
X201814285Y-82757142D01*
X201766666Y-82804761D01*
X201671428Y-82852380D01*
X201576190Y-82852380D01*
X201480952Y-82804761D01*
X201433333Y-82757142D01*
X201385714Y-82661904D01*
X201338095Y-82471428D01*
X201338095Y-82233333D01*
X201385714Y-82042857D01*
X201433333Y-81947619D01*
X201480952Y-81900000D01*
X201576190Y-81852380D01*
X202290476Y-82566666D02*
X202766666Y-82566666D01*
X202195238Y-82852380D02*
X202528571Y-81852380D01*
X202861904Y-82852380D01*
X155307142Y-68442857D02*
X155307142Y-67242857D01*
X155307142Y-67700000D02*
X155421428Y-67642857D01*
X155650000Y-67642857D01*
X155764285Y-67700000D01*
X155821428Y-67757142D01*
X155878571Y-67871428D01*
X155878571Y-68214285D01*
X155821428Y-68328571D01*
X155764285Y-68385714D01*
X155650000Y-68442857D01*
X155421428Y-68442857D01*
X155307142Y-68385714D01*
X156564285Y-68442857D02*
X156450000Y-68385714D01*
X156392857Y-68271428D01*
X156392857Y-67242857D01*
X157535714Y-68442857D02*
X157535714Y-67814285D01*
X157478571Y-67700000D01*
X157364285Y-67642857D01*
X157135714Y-67642857D01*
X157021428Y-67700000D01*
X157535714Y-68385714D02*
X157421428Y-68442857D01*
X157135714Y-68442857D01*
X157021428Y-68385714D01*
X156964285Y-68271428D01*
X156964285Y-68157142D01*
X157021428Y-68042857D01*
X157135714Y-67985714D01*
X157421428Y-67985714D01*
X157535714Y-67928571D01*
X158621428Y-68442857D02*
X158621428Y-67242857D01*
X158621428Y-68385714D02*
X158507142Y-68442857D01*
X158278571Y-68442857D01*
X158164285Y-68385714D01*
X158107142Y-68328571D01*
X158050000Y-68214285D01*
X158050000Y-67871428D01*
X158107142Y-67757142D01*
X158164285Y-67700000D01*
X158278571Y-67642857D01*
X158507142Y-67642857D01*
X158621428Y-67700000D01*
X159650000Y-68385714D02*
X159535714Y-68442857D01*
X159307142Y-68442857D01*
X159192857Y-68385714D01*
X159135714Y-68271428D01*
X159135714Y-67814285D01*
X159192857Y-67700000D01*
X159307142Y-67642857D01*
X159535714Y-67642857D01*
X159650000Y-67700000D01*
X159707142Y-67814285D01*
X159707142Y-67928571D01*
X159135714Y-68042857D01*
X160164285Y-68385714D02*
X160278571Y-68442857D01*
X160507142Y-68442857D01*
X160621428Y-68385714D01*
X160678571Y-68271428D01*
X160678571Y-68214285D01*
X160621428Y-68100000D01*
X160507142Y-68042857D01*
X160335714Y-68042857D01*
X160221428Y-67985714D01*
X160164285Y-67871428D01*
X160164285Y-67814285D01*
X160221428Y-67700000D01*
X160335714Y-67642857D01*
X160507142Y-67642857D01*
X160621428Y-67700000D01*
X162107142Y-68442857D02*
X162107142Y-67642857D01*
X162107142Y-67242857D02*
X162050000Y-67300000D01*
X162107142Y-67357142D01*
X162164285Y-67300000D01*
X162107142Y-67242857D01*
X162107142Y-67357142D01*
X162678571Y-67642857D02*
X162678571Y-68442857D01*
X162678571Y-67757142D02*
X162735714Y-67700000D01*
X162850000Y-67642857D01*
X163021428Y-67642857D01*
X163135714Y-67700000D01*
X163192857Y-67814285D01*
X163192857Y-68442857D01*
X165192857Y-68442857D02*
X165192857Y-67814285D01*
X165135714Y-67700000D01*
X165021428Y-67642857D01*
X164792857Y-67642857D01*
X164678571Y-67700000D01*
X165192857Y-68385714D02*
X165078571Y-68442857D01*
X164792857Y-68442857D01*
X164678571Y-68385714D01*
X164621428Y-68271428D01*
X164621428Y-68157142D01*
X164678571Y-68042857D01*
X164792857Y-67985714D01*
X165078571Y-67985714D01*
X165192857Y-67928571D01*
X166564285Y-67642857D02*
X166850000Y-68442857D01*
X167135714Y-67642857D01*
X168050000Y-68385714D02*
X167935714Y-68442857D01*
X167707142Y-68442857D01*
X167592857Y-68385714D01*
X167535714Y-68271428D01*
X167535714Y-67814285D01*
X167592857Y-67700000D01*
X167707142Y-67642857D01*
X167935714Y-67642857D01*
X168050000Y-67700000D01*
X168107142Y-67814285D01*
X168107142Y-67928571D01*
X167535714Y-68042857D01*
X168621428Y-68442857D02*
X168621428Y-67642857D01*
X168621428Y-67871428D02*
X168678571Y-67757142D01*
X168735714Y-67700000D01*
X168850000Y-67642857D01*
X168964285Y-67642857D01*
X169192857Y-67642857D02*
X169650000Y-67642857D01*
X169364285Y-67242857D02*
X169364285Y-68271428D01*
X169421428Y-68385714D01*
X169535714Y-68442857D01*
X169650000Y-68442857D01*
X170050000Y-68442857D02*
X170050000Y-67642857D01*
X170050000Y-67242857D02*
X169992857Y-67300000D01*
X170050000Y-67357142D01*
X170107142Y-67300000D01*
X170050000Y-67242857D01*
X170050000Y-67357142D01*
X171135714Y-68385714D02*
X171021428Y-68442857D01*
X170792857Y-68442857D01*
X170678571Y-68385714D01*
X170621428Y-68328571D01*
X170564285Y-68214285D01*
X170564285Y-67871428D01*
X170621428Y-67757142D01*
X170678571Y-67700000D01*
X170792857Y-67642857D01*
X171021428Y-67642857D01*
X171135714Y-67700000D01*
X172164285Y-68442857D02*
X172164285Y-67814285D01*
X172107142Y-67700000D01*
X171992857Y-67642857D01*
X171764285Y-67642857D01*
X171650000Y-67700000D01*
X172164285Y-68385714D02*
X172050000Y-68442857D01*
X171764285Y-68442857D01*
X171650000Y-68385714D01*
X171592857Y-68271428D01*
X171592857Y-68157142D01*
X171650000Y-68042857D01*
X171764285Y-67985714D01*
X172050000Y-67985714D01*
X172164285Y-67928571D01*
X172907142Y-68442857D02*
X172792857Y-68385714D01*
X172735714Y-68271428D01*
X172735714Y-67242857D01*
X174278571Y-67642857D02*
X174278571Y-68842857D01*
X174278571Y-67700000D02*
X174392857Y-67642857D01*
X174621428Y-67642857D01*
X174735714Y-67700000D01*
X174792857Y-67757142D01*
X174850000Y-67871428D01*
X174850000Y-68214285D01*
X174792857Y-68328571D01*
X174735714Y-68385714D01*
X174621428Y-68442857D01*
X174392857Y-68442857D01*
X174278571Y-68385714D01*
X175535714Y-68442857D02*
X175421428Y-68385714D01*
X175364285Y-68328571D01*
X175307142Y-68214285D01*
X175307142Y-67871428D01*
X175364285Y-67757142D01*
X175421428Y-67700000D01*
X175535714Y-67642857D01*
X175707142Y-67642857D01*
X175821428Y-67700000D01*
X175878571Y-67757142D01*
X175935714Y-67871428D01*
X175935714Y-68214285D01*
X175878571Y-68328571D01*
X175821428Y-68385714D01*
X175707142Y-68442857D01*
X175535714Y-68442857D01*
X176392857Y-68385714D02*
X176507142Y-68442857D01*
X176735714Y-68442857D01*
X176850000Y-68385714D01*
X176907142Y-68271428D01*
X176907142Y-68214285D01*
X176850000Y-68100000D01*
X176735714Y-68042857D01*
X176564285Y-68042857D01*
X176450000Y-67985714D01*
X176392857Y-67871428D01*
X176392857Y-67814285D01*
X176450000Y-67700000D01*
X176564285Y-67642857D01*
X176735714Y-67642857D01*
X176850000Y-67700000D01*
X177421428Y-68442857D02*
X177421428Y-67642857D01*
X177421428Y-67242857D02*
X177364285Y-67300000D01*
X177421428Y-67357142D01*
X177478571Y-67300000D01*
X177421428Y-67242857D01*
X177421428Y-67357142D01*
X177821428Y-67642857D02*
X178278571Y-67642857D01*
X177992857Y-67242857D02*
X177992857Y-68271428D01*
X178050000Y-68385714D01*
X178164285Y-68442857D01*
X178278571Y-68442857D01*
X178678571Y-68442857D02*
X178678571Y-67642857D01*
X178678571Y-67242857D02*
X178621428Y-67300000D01*
X178678571Y-67357142D01*
X178735714Y-67300000D01*
X178678571Y-67242857D01*
X178678571Y-67357142D01*
X179421428Y-68442857D02*
X179307142Y-68385714D01*
X179250000Y-68328571D01*
X179192857Y-68214285D01*
X179192857Y-67871428D01*
X179250000Y-67757142D01*
X179307142Y-67700000D01*
X179421428Y-67642857D01*
X179592857Y-67642857D01*
X179707142Y-67700000D01*
X179764285Y-67757142D01*
X179821428Y-67871428D01*
X179821428Y-68214285D01*
X179764285Y-68328571D01*
X179707142Y-68385714D01*
X179592857Y-68442857D01*
X179421428Y-68442857D01*
X180335714Y-67642857D02*
X180335714Y-68442857D01*
X180335714Y-67757142D02*
X180392857Y-67700000D01*
X180507142Y-67642857D01*
X180678571Y-67642857D01*
X180792857Y-67700000D01*
X180850000Y-67814285D01*
X180850000Y-68442857D01*
X182164285Y-67642857D02*
X182621428Y-67642857D01*
X182335714Y-67242857D02*
X182335714Y-68271428D01*
X182392857Y-68385714D01*
X182507142Y-68442857D01*
X182621428Y-68442857D01*
X183192857Y-68442857D02*
X183078571Y-68385714D01*
X183021428Y-68328571D01*
X182964285Y-68214285D01*
X182964285Y-67871428D01*
X183021428Y-67757142D01*
X183078571Y-67700000D01*
X183192857Y-67642857D01*
X183364285Y-67642857D01*
X183478571Y-67700000D01*
X183535714Y-67757142D01*
X183592857Y-67871428D01*
X183592857Y-68214285D01*
X183535714Y-68328571D01*
X183478571Y-68385714D01*
X183364285Y-68442857D01*
X183192857Y-68442857D01*
X185535714Y-68442857D02*
X185535714Y-67814285D01*
X185478571Y-67700000D01*
X185364285Y-67642857D01*
X185135714Y-67642857D01*
X185021428Y-67700000D01*
X185535714Y-68385714D02*
X185421428Y-68442857D01*
X185135714Y-68442857D01*
X185021428Y-68385714D01*
X184964285Y-68271428D01*
X184964285Y-68157142D01*
X185021428Y-68042857D01*
X185135714Y-67985714D01*
X185421428Y-67985714D01*
X185535714Y-67928571D01*
X186278571Y-68442857D02*
X186164285Y-68385714D01*
X186107142Y-68271428D01*
X186107142Y-67242857D01*
X186907142Y-68442857D02*
X186792857Y-68385714D01*
X186735714Y-68271428D01*
X186735714Y-67242857D01*
X187535714Y-68442857D02*
X187421428Y-68385714D01*
X187364285Y-68328571D01*
X187307142Y-68214285D01*
X187307142Y-67871428D01*
X187364285Y-67757142D01*
X187421428Y-67700000D01*
X187535714Y-67642857D01*
X187707142Y-67642857D01*
X187821428Y-67700000D01*
X187878571Y-67757142D01*
X187935714Y-67871428D01*
X187935714Y-68214285D01*
X187878571Y-68328571D01*
X187821428Y-68385714D01*
X187707142Y-68442857D01*
X187535714Y-68442857D01*
X188335714Y-67642857D02*
X188564285Y-68442857D01*
X188792857Y-67871428D01*
X189021428Y-68442857D01*
X189250000Y-67642857D01*
X190450000Y-67642857D02*
X190907142Y-67642857D01*
X190621428Y-68442857D02*
X190621428Y-67414285D01*
X190678571Y-67300000D01*
X190792857Y-67242857D01*
X190907142Y-67242857D01*
X191478571Y-68442857D02*
X191364285Y-68385714D01*
X191307142Y-68328571D01*
X191250000Y-68214285D01*
X191250000Y-67871428D01*
X191307142Y-67757142D01*
X191364285Y-67700000D01*
X191478571Y-67642857D01*
X191650000Y-67642857D01*
X191764285Y-67700000D01*
X191821428Y-67757142D01*
X191878571Y-67871428D01*
X191878571Y-68214285D01*
X191821428Y-68328571D01*
X191764285Y-68385714D01*
X191650000Y-68442857D01*
X191478571Y-68442857D01*
X192392857Y-68442857D02*
X192392857Y-67642857D01*
X192392857Y-67871428D02*
X192450000Y-67757142D01*
X192507142Y-67700000D01*
X192621428Y-67642857D01*
X192735714Y-67642857D01*
X194050000Y-67642857D02*
X194050000Y-68442857D01*
X194050000Y-67757142D02*
X194107142Y-67700000D01*
X194221428Y-67642857D01*
X194392857Y-67642857D01*
X194507142Y-67700000D01*
X194564285Y-67814285D01*
X194564285Y-68442857D01*
X195650000Y-68442857D02*
X195650000Y-67814285D01*
X195592857Y-67700000D01*
X195478571Y-67642857D01*
X195250000Y-67642857D01*
X195135714Y-67700000D01*
X195650000Y-68385714D02*
X195535714Y-68442857D01*
X195250000Y-68442857D01*
X195135714Y-68385714D01*
X195078571Y-68271428D01*
X195078571Y-68157142D01*
X195135714Y-68042857D01*
X195250000Y-67985714D01*
X195535714Y-67985714D01*
X195650000Y-67928571D01*
X196050000Y-67642857D02*
X196507142Y-67642857D01*
X196221428Y-67242857D02*
X196221428Y-68271428D01*
X196278571Y-68385714D01*
X196392857Y-68442857D01*
X196507142Y-68442857D01*
X197421428Y-67642857D02*
X197421428Y-68442857D01*
X196907142Y-67642857D02*
X196907142Y-68271428D01*
X196964285Y-68385714D01*
X197078571Y-68442857D01*
X197250000Y-68442857D01*
X197364285Y-68385714D01*
X197421428Y-68328571D01*
X197992857Y-68442857D02*
X197992857Y-67642857D01*
X197992857Y-67871428D02*
X198050000Y-67757142D01*
X198107142Y-67700000D01*
X198221428Y-67642857D01*
X198335714Y-67642857D01*
X199250000Y-68442857D02*
X199250000Y-67814285D01*
X199192857Y-67700000D01*
X199078571Y-67642857D01*
X198850000Y-67642857D01*
X198735714Y-67700000D01*
X199250000Y-68385714D02*
X199135714Y-68442857D01*
X198850000Y-68442857D01*
X198735714Y-68385714D01*
X198678571Y-68271428D01*
X198678571Y-68157142D01*
X198735714Y-68042857D01*
X198850000Y-67985714D01*
X199135714Y-67985714D01*
X199250000Y-67928571D01*
X199992857Y-68442857D02*
X199878571Y-68385714D01*
X199821428Y-68271428D01*
X199821428Y-67242857D01*
X201878571Y-68385714D02*
X201764285Y-68442857D01*
X201535714Y-68442857D01*
X201421428Y-68385714D01*
X201364285Y-68328571D01*
X201307142Y-68214285D01*
X201307142Y-67871428D01*
X201364285Y-67757142D01*
X201421428Y-67700000D01*
X201535714Y-67642857D01*
X201764285Y-67642857D01*
X201878571Y-67700000D01*
X202564285Y-68442857D02*
X202450000Y-68385714D01*
X202392857Y-68328571D01*
X202335714Y-68214285D01*
X202335714Y-67871428D01*
X202392857Y-67757142D01*
X202450000Y-67700000D01*
X202564285Y-67642857D01*
X202735714Y-67642857D01*
X202850000Y-67700000D01*
X202907142Y-67757142D01*
X202964285Y-67871428D01*
X202964285Y-68214285D01*
X202907142Y-68328571D01*
X202850000Y-68385714D01*
X202735714Y-68442857D01*
X202564285Y-68442857D01*
X203478571Y-67642857D02*
X203478571Y-68442857D01*
X203478571Y-67757142D02*
X203535714Y-67700000D01*
X203650000Y-67642857D01*
X203821428Y-67642857D01*
X203935714Y-67700000D01*
X203992857Y-67814285D01*
X203992857Y-68442857D01*
X204450000Y-67642857D02*
X204735714Y-68442857D01*
X205021428Y-67642857D01*
X205935714Y-68385714D02*
X205821428Y-68442857D01*
X205592857Y-68442857D01*
X205478571Y-68385714D01*
X205421428Y-68271428D01*
X205421428Y-67814285D01*
X205478571Y-67700000D01*
X205592857Y-67642857D01*
X205821428Y-67642857D01*
X205935714Y-67700000D01*
X205992857Y-67814285D01*
X205992857Y-67928571D01*
X205421428Y-68042857D01*
X207021428Y-68385714D02*
X206907142Y-68442857D01*
X206678571Y-68442857D01*
X206564285Y-68385714D01*
X206507142Y-68328571D01*
X206449999Y-68214285D01*
X206449999Y-67871428D01*
X206507142Y-67757142D01*
X206564285Y-67700000D01*
X206678571Y-67642857D01*
X206907142Y-67642857D01*
X207021428Y-67700000D01*
X207364285Y-67642857D02*
X207821428Y-67642857D01*
X207535714Y-67242857D02*
X207535714Y-68271428D01*
X207592857Y-68385714D01*
X207707142Y-68442857D01*
X207821428Y-68442857D01*
X208221428Y-68442857D02*
X208221428Y-67642857D01*
X208221428Y-67242857D02*
X208164285Y-67300000D01*
X208221428Y-67357142D01*
X208278571Y-67300000D01*
X208221428Y-67242857D01*
X208221428Y-67357142D01*
X208964285Y-68442857D02*
X208849999Y-68385714D01*
X208792857Y-68328571D01*
X208735714Y-68214285D01*
X208735714Y-67871428D01*
X208792857Y-67757142D01*
X208849999Y-67700000D01*
X208964285Y-67642857D01*
X209135714Y-67642857D01*
X209249999Y-67700000D01*
X209307142Y-67757142D01*
X209364285Y-67871428D01*
X209364285Y-68214285D01*
X209307142Y-68328571D01*
X209249999Y-68385714D01*
X209135714Y-68442857D01*
X208964285Y-68442857D01*
X209878571Y-67642857D02*
X209878571Y-68442857D01*
X209878571Y-67757142D02*
X209935714Y-67700000D01*
X210049999Y-67642857D01*
X210221428Y-67642857D01*
X210335714Y-67700000D01*
X210392857Y-67814285D01*
X210392857Y-68442857D01*
X212392857Y-68385714D02*
X212278571Y-68442857D01*
X212049999Y-68442857D01*
X211935714Y-68385714D01*
X211878571Y-68328571D01*
X211821428Y-68214285D01*
X211821428Y-67871428D01*
X211878571Y-67757142D01*
X211935714Y-67700000D01*
X212049999Y-67642857D01*
X212278571Y-67642857D01*
X212392857Y-67700000D01*
X213078571Y-68442857D02*
X212964285Y-68385714D01*
X212907142Y-68328571D01*
X212849999Y-68214285D01*
X212849999Y-67871428D01*
X212907142Y-67757142D01*
X212964285Y-67700000D01*
X213078571Y-67642857D01*
X213249999Y-67642857D01*
X213364285Y-67700000D01*
X213421428Y-67757142D01*
X213478571Y-67871428D01*
X213478571Y-68214285D01*
X213421428Y-68328571D01*
X213364285Y-68385714D01*
X213249999Y-68442857D01*
X213078571Y-68442857D01*
X214164285Y-68442857D02*
X214049999Y-68385714D01*
X213992857Y-68328571D01*
X213935714Y-68214285D01*
X213935714Y-67871428D01*
X213992857Y-67757142D01*
X214049999Y-67700000D01*
X214164285Y-67642857D01*
X214335714Y-67642857D01*
X214449999Y-67700000D01*
X214507142Y-67757142D01*
X214564285Y-67871428D01*
X214564285Y-68214285D01*
X214507142Y-68328571D01*
X214449999Y-68385714D01*
X214335714Y-68442857D01*
X214164285Y-68442857D01*
X215249999Y-68442857D02*
X215135714Y-68385714D01*
X215078571Y-68271428D01*
X215078571Y-67242857D01*
X215707142Y-68442857D02*
X215707142Y-67642857D01*
X215707142Y-67242857D02*
X215649999Y-67300000D01*
X215707142Y-67357142D01*
X215764285Y-67300000D01*
X215707142Y-67242857D01*
X215707142Y-67357142D01*
X216278571Y-67642857D02*
X216278571Y-68442857D01*
X216278571Y-67757142D02*
X216335714Y-67700000D01*
X216449999Y-67642857D01*
X216621428Y-67642857D01*
X216735714Y-67700000D01*
X216792857Y-67814285D01*
X216792857Y-68442857D01*
X217878571Y-67642857D02*
X217878571Y-68614285D01*
X217821428Y-68728571D01*
X217764285Y-68785714D01*
X217649999Y-68842857D01*
X217478571Y-68842857D01*
X217364285Y-68785714D01*
X217878571Y-68385714D02*
X217764285Y-68442857D01*
X217535714Y-68442857D01*
X217421428Y-68385714D01*
X217364285Y-68328571D01*
X217307142Y-68214285D01*
X217307142Y-67871428D01*
X217364285Y-67757142D01*
X217421428Y-67700000D01*
X217535714Y-67642857D01*
X217764285Y-67642857D01*
X217878571Y-67700000D01*
X164078571Y-66200000D02*
X164650000Y-66200000D01*
X163964285Y-66542857D02*
X164364285Y-65342857D01*
X164764285Y-66542857D01*
X165335714Y-66542857D02*
X165221428Y-66485714D01*
X165164285Y-66371428D01*
X165164285Y-65342857D01*
X165964285Y-66542857D02*
X165850000Y-66485714D01*
X165792857Y-66371428D01*
X165792857Y-65342857D01*
X167278571Y-66485714D02*
X167392857Y-66542857D01*
X167621428Y-66542857D01*
X167735714Y-66485714D01*
X167792857Y-66371428D01*
X167792857Y-66314285D01*
X167735714Y-66200000D01*
X167621428Y-66142857D01*
X167450000Y-66142857D01*
X167335714Y-66085714D01*
X167278571Y-65971428D01*
X167278571Y-65914285D01*
X167335714Y-65800000D01*
X167450000Y-65742857D01*
X167621428Y-65742857D01*
X167735714Y-65800000D01*
X168307142Y-66542857D02*
X168307142Y-65342857D01*
X168821428Y-66542857D02*
X168821428Y-65914285D01*
X168764285Y-65800000D01*
X168650000Y-65742857D01*
X168478571Y-65742857D01*
X168364285Y-65800000D01*
X168307142Y-65857142D01*
X169907142Y-65742857D02*
X169907142Y-66542857D01*
X169392857Y-65742857D02*
X169392857Y-66371428D01*
X169450000Y-66485714D01*
X169564285Y-66542857D01*
X169735714Y-66542857D01*
X169850000Y-66485714D01*
X169907142Y-66428571D01*
X170478571Y-65742857D02*
X170478571Y-66542857D01*
X170478571Y-65857142D02*
X170535714Y-65800000D01*
X170650000Y-65742857D01*
X170821428Y-65742857D01*
X170935714Y-65800000D01*
X170992857Y-65914285D01*
X170992857Y-66542857D01*
X171392857Y-65742857D02*
X171850000Y-65742857D01*
X171564285Y-65342857D02*
X171564285Y-66371428D01*
X171621428Y-66485714D01*
X171735714Y-66542857D01*
X171850000Y-66542857D01*
X172192857Y-66485714D02*
X172307142Y-66542857D01*
X172535714Y-66542857D01*
X172650000Y-66485714D01*
X172707142Y-66371428D01*
X172707142Y-66314285D01*
X172650000Y-66200000D01*
X172535714Y-66142857D01*
X172364285Y-66142857D01*
X172250000Y-66085714D01*
X172192857Y-65971428D01*
X172192857Y-65914285D01*
X172250000Y-65800000D01*
X172364285Y-65742857D01*
X172535714Y-65742857D01*
X172650000Y-65800000D01*
X174078571Y-66485714D02*
X174192857Y-66542857D01*
X174421428Y-66542857D01*
X174535714Y-66485714D01*
X174592857Y-66371428D01*
X174592857Y-66314285D01*
X174535714Y-66200000D01*
X174421428Y-66142857D01*
X174250000Y-66142857D01*
X174135714Y-66085714D01*
X174078571Y-65971428D01*
X174078571Y-65914285D01*
X174135714Y-65800000D01*
X174250000Y-65742857D01*
X174421428Y-65742857D01*
X174535714Y-65800000D01*
X175107142Y-66542857D02*
X175107142Y-65342857D01*
X175621428Y-66542857D02*
X175621428Y-65914285D01*
X175564285Y-65800000D01*
X175450000Y-65742857D01*
X175278571Y-65742857D01*
X175164285Y-65800000D01*
X175107142Y-65857142D01*
X176364285Y-66542857D02*
X176250000Y-66485714D01*
X176192857Y-66428571D01*
X176135714Y-66314285D01*
X176135714Y-65971428D01*
X176192857Y-65857142D01*
X176250000Y-65800000D01*
X176364285Y-65742857D01*
X176535714Y-65742857D01*
X176650000Y-65800000D01*
X176707142Y-65857142D01*
X176764285Y-65971428D01*
X176764285Y-66314285D01*
X176707142Y-66428571D01*
X176650000Y-66485714D01*
X176535714Y-66542857D01*
X176364285Y-66542857D01*
X177792857Y-65742857D02*
X177792857Y-66542857D01*
X177278571Y-65742857D02*
X177278571Y-66371428D01*
X177335714Y-66485714D01*
X177450000Y-66542857D01*
X177621428Y-66542857D01*
X177735714Y-66485714D01*
X177792857Y-66428571D01*
X178535714Y-66542857D02*
X178421428Y-66485714D01*
X178364285Y-66371428D01*
X178364285Y-65342857D01*
X179507142Y-66542857D02*
X179507142Y-65342857D01*
X179507142Y-66485714D02*
X179392857Y-66542857D01*
X179164285Y-66542857D01*
X179050000Y-66485714D01*
X178992857Y-66428571D01*
X178935714Y-66314285D01*
X178935714Y-65971428D01*
X178992857Y-65857142D01*
X179050000Y-65800000D01*
X179164285Y-65742857D01*
X179392857Y-65742857D01*
X179507142Y-65800000D01*
X180992857Y-66542857D02*
X180992857Y-65342857D01*
X180992857Y-65800000D02*
X181107142Y-65742857D01*
X181335714Y-65742857D01*
X181450000Y-65800000D01*
X181507142Y-65857142D01*
X181564285Y-65971428D01*
X181564285Y-66314285D01*
X181507142Y-66428571D01*
X181450000Y-66485714D01*
X181335714Y-66542857D01*
X181107142Y-66542857D01*
X180992857Y-66485714D01*
X182535714Y-66485714D02*
X182421428Y-66542857D01*
X182192857Y-66542857D01*
X182078571Y-66485714D01*
X182021428Y-66371428D01*
X182021428Y-65914285D01*
X182078571Y-65800000D01*
X182192857Y-65742857D01*
X182421428Y-65742857D01*
X182535714Y-65800000D01*
X182592857Y-65914285D01*
X182592857Y-66028571D01*
X182021428Y-66142857D01*
X184021428Y-66542857D02*
X184021428Y-65742857D01*
X184021428Y-65857142D02*
X184078571Y-65800000D01*
X184192857Y-65742857D01*
X184364285Y-65742857D01*
X184478571Y-65800000D01*
X184535714Y-65914285D01*
X184535714Y-66542857D01*
X184535714Y-65914285D02*
X184592857Y-65800000D01*
X184707142Y-65742857D01*
X184878571Y-65742857D01*
X184992857Y-65800000D01*
X185050000Y-65914285D01*
X185050000Y-66542857D01*
X185792857Y-66542857D02*
X185678571Y-66485714D01*
X185621428Y-66428571D01*
X185564285Y-66314285D01*
X185564285Y-65971428D01*
X185621428Y-65857142D01*
X185678571Y-65800000D01*
X185792857Y-65742857D01*
X185964285Y-65742857D01*
X186078571Y-65800000D01*
X186135714Y-65857142D01*
X186192857Y-65971428D01*
X186192857Y-66314285D01*
X186135714Y-66428571D01*
X186078571Y-66485714D01*
X185964285Y-66542857D01*
X185792857Y-66542857D01*
X187221428Y-65742857D02*
X187221428Y-66542857D01*
X186707142Y-65742857D02*
X186707142Y-66371428D01*
X186764285Y-66485714D01*
X186878571Y-66542857D01*
X187050000Y-66542857D01*
X187164285Y-66485714D01*
X187221428Y-66428571D01*
X187792857Y-65742857D02*
X187792857Y-66542857D01*
X187792857Y-65857142D02*
X187850000Y-65800000D01*
X187964285Y-65742857D01*
X188135714Y-65742857D01*
X188250000Y-65800000D01*
X188307142Y-65914285D01*
X188307142Y-66542857D01*
X188707142Y-65742857D02*
X189164285Y-65742857D01*
X188878571Y-65342857D02*
X188878571Y-66371428D01*
X188935714Y-66485714D01*
X189050000Y-66542857D01*
X189164285Y-66542857D01*
X190021428Y-66485714D02*
X189907142Y-66542857D01*
X189678571Y-66542857D01*
X189564285Y-66485714D01*
X189507142Y-66371428D01*
X189507142Y-65914285D01*
X189564285Y-65800000D01*
X189678571Y-65742857D01*
X189907142Y-65742857D01*
X190021428Y-65800000D01*
X190078571Y-65914285D01*
X190078571Y-66028571D01*
X189507142Y-66142857D01*
X191107142Y-66542857D02*
X191107142Y-65342857D01*
X191107142Y-66485714D02*
X190992857Y-66542857D01*
X190764285Y-66542857D01*
X190650000Y-66485714D01*
X190592857Y-66428571D01*
X190535714Y-66314285D01*
X190535714Y-65971428D01*
X190592857Y-65857142D01*
X190650000Y-65800000D01*
X190764285Y-65742857D01*
X190992857Y-65742857D01*
X191107142Y-65800000D01*
X192478571Y-65742857D02*
X192707142Y-66542857D01*
X192935714Y-65971428D01*
X193164285Y-66542857D01*
X193392857Y-65742857D01*
X193850000Y-66542857D02*
X193850000Y-65742857D01*
X193850000Y-65342857D02*
X193792857Y-65400000D01*
X193850000Y-65457142D01*
X193907142Y-65400000D01*
X193850000Y-65342857D01*
X193850000Y-65457142D01*
X194250000Y-65742857D02*
X194707142Y-65742857D01*
X194421428Y-65342857D02*
X194421428Y-66371428D01*
X194478571Y-66485714D01*
X194592857Y-66542857D01*
X194707142Y-66542857D01*
X195107142Y-66542857D02*
X195107142Y-65342857D01*
X195621428Y-66542857D02*
X195621428Y-65914285D01*
X195564285Y-65800000D01*
X195450000Y-65742857D01*
X195278571Y-65742857D01*
X195164285Y-65800000D01*
X195107142Y-65857142D01*
X196935714Y-65742857D02*
X197392857Y-65742857D01*
X197107142Y-65342857D02*
X197107142Y-66371428D01*
X197164285Y-66485714D01*
X197278571Y-66542857D01*
X197392857Y-66542857D01*
X197792857Y-66542857D02*
X197792857Y-65342857D01*
X198307142Y-66542857D02*
X198307142Y-65914285D01*
X198250000Y-65800000D01*
X198135714Y-65742857D01*
X197964285Y-65742857D01*
X197850000Y-65800000D01*
X197792857Y-65857142D01*
X199335714Y-66485714D02*
X199221428Y-66542857D01*
X198992857Y-66542857D01*
X198878571Y-66485714D01*
X198821428Y-66371428D01*
X198821428Y-65914285D01*
X198878571Y-65800000D01*
X198992857Y-65742857D01*
X199221428Y-65742857D01*
X199335714Y-65800000D01*
X199392857Y-65914285D01*
X199392857Y-66028571D01*
X198821428Y-66142857D01*
X199907142Y-66542857D02*
X199907142Y-65742857D01*
X199907142Y-65342857D02*
X199850000Y-65400000D01*
X199907142Y-65457142D01*
X199964285Y-65400000D01*
X199907142Y-65342857D01*
X199907142Y-65457142D01*
X200478571Y-66542857D02*
X200478571Y-65742857D01*
X200478571Y-65971428D02*
X200535714Y-65857142D01*
X200592857Y-65800000D01*
X200707142Y-65742857D01*
X200821428Y-65742857D01*
X202135714Y-66542857D02*
X202135714Y-65742857D01*
X202135714Y-65971428D02*
X202192857Y-65857142D01*
X202250000Y-65800000D01*
X202364285Y-65742857D01*
X202478571Y-65742857D01*
X203335714Y-66485714D02*
X203221428Y-66542857D01*
X202992857Y-66542857D01*
X202878571Y-66485714D01*
X202821428Y-66371428D01*
X202821428Y-65914285D01*
X202878571Y-65800000D01*
X202992857Y-65742857D01*
X203221428Y-65742857D01*
X203335714Y-65800000D01*
X203392857Y-65914285D01*
X203392857Y-66028571D01*
X202821428Y-66142857D01*
X203850000Y-66485714D02*
X203964285Y-66542857D01*
X204192857Y-66542857D01*
X204307142Y-66485714D01*
X204364285Y-66371428D01*
X204364285Y-66314285D01*
X204307142Y-66200000D01*
X204192857Y-66142857D01*
X204021428Y-66142857D01*
X203907142Y-66085714D01*
X203850000Y-65971428D01*
X203850000Y-65914285D01*
X203907142Y-65800000D01*
X204021428Y-65742857D01*
X204192857Y-65742857D01*
X204307142Y-65800000D01*
X204878571Y-66542857D02*
X204878571Y-65742857D01*
X204878571Y-65342857D02*
X204821428Y-65400000D01*
X204878571Y-65457142D01*
X204935714Y-65400000D01*
X204878571Y-65342857D01*
X204878571Y-65457142D01*
X205392857Y-66485714D02*
X205507142Y-66542857D01*
X205735714Y-66542857D01*
X205850000Y-66485714D01*
X205907142Y-66371428D01*
X205907142Y-66314285D01*
X205850000Y-66200000D01*
X205735714Y-66142857D01*
X205564285Y-66142857D01*
X205450000Y-66085714D01*
X205392857Y-65971428D01*
X205392857Y-65914285D01*
X205450000Y-65800000D01*
X205564285Y-65742857D01*
X205735714Y-65742857D01*
X205850000Y-65800000D01*
X206250000Y-65742857D02*
X206707142Y-65742857D01*
X206421428Y-65342857D02*
X206421428Y-66371428D01*
X206478571Y-66485714D01*
X206592857Y-66542857D01*
X206707142Y-66542857D01*
X207621428Y-66542857D02*
X207621428Y-65914285D01*
X207564285Y-65800000D01*
X207450000Y-65742857D01*
X207221428Y-65742857D01*
X207107142Y-65800000D01*
X207621428Y-66485714D02*
X207507142Y-66542857D01*
X207221428Y-66542857D01*
X207107142Y-66485714D01*
X207050000Y-66371428D01*
X207050000Y-66257142D01*
X207107142Y-66142857D01*
X207221428Y-66085714D01*
X207507142Y-66085714D01*
X207621428Y-66028571D01*
X208192857Y-65742857D02*
X208192857Y-66542857D01*
X208192857Y-65857142D02*
X208250000Y-65800000D01*
X208364285Y-65742857D01*
X208535714Y-65742857D01*
X208650000Y-65800000D01*
X208707142Y-65914285D01*
X208707142Y-66542857D01*
X209792857Y-66485714D02*
X209678571Y-66542857D01*
X209450000Y-66542857D01*
X209335714Y-66485714D01*
X209278571Y-66428571D01*
X209221428Y-66314285D01*
X209221428Y-65971428D01*
X209278571Y-65857142D01*
X209335714Y-65800000D01*
X209450000Y-65742857D01*
X209678571Y-65742857D01*
X209792857Y-65800000D01*
X210764285Y-66485714D02*
X210650000Y-66542857D01*
X210421428Y-66542857D01*
X210307142Y-66485714D01*
X210250000Y-66371428D01*
X210250000Y-65914285D01*
X210307142Y-65800000D01*
X210421428Y-65742857D01*
X210650000Y-65742857D01*
X210764285Y-65800000D01*
X210821428Y-65914285D01*
X210821428Y-66028571D01*
X210250000Y-66142857D01*
X166369047Y-94652380D02*
X166369047Y-93652380D01*
X166702380Y-94366666D01*
X167035714Y-93652380D01*
X167035714Y-94652380D01*
X167940476Y-93985714D02*
X167940476Y-94652380D01*
X167511904Y-93985714D02*
X167511904Y-94509523D01*
X167559523Y-94604761D01*
X167654761Y-94652380D01*
X167797619Y-94652380D01*
X167892857Y-94604761D01*
X167940476Y-94557142D01*
X168416666Y-94652380D02*
X168416666Y-93985714D01*
X168416666Y-94176190D02*
X168464285Y-94080952D01*
X168511904Y-94033333D01*
X168607142Y-93985714D01*
X168702380Y-93985714D01*
X169464285Y-94652380D02*
X169464285Y-94128571D01*
X169416666Y-94033333D01*
X169321428Y-93985714D01*
X169130952Y-93985714D01*
X169035714Y-94033333D01*
X169464285Y-94604761D02*
X169369047Y-94652380D01*
X169130952Y-94652380D01*
X169035714Y-94604761D01*
X168988095Y-94509523D01*
X168988095Y-94414285D01*
X169035714Y-94319047D01*
X169130952Y-94271428D01*
X169369047Y-94271428D01*
X169464285Y-94223809D01*
X169797619Y-93985714D02*
X170178571Y-93985714D01*
X169940476Y-93652380D02*
X169940476Y-94509523D01*
X169988095Y-94604761D01*
X170083333Y-94652380D01*
X170178571Y-94652380D01*
X170940476Y-94652380D02*
X170940476Y-94128571D01*
X170892857Y-94033333D01*
X170797619Y-93985714D01*
X170607142Y-93985714D01*
X170511904Y-94033333D01*
X170940476Y-94604761D02*
X170845238Y-94652380D01*
X170607142Y-94652380D01*
X170511904Y-94604761D01*
X170464285Y-94509523D01*
X170464285Y-94414285D01*
X170511904Y-94319047D01*
X170607142Y-94271428D01*
X170845238Y-94271428D01*
X170940476Y-94223809D01*
X172130952Y-94604761D02*
X172273809Y-94652380D01*
X172511904Y-94652380D01*
X172607142Y-94604761D01*
X172654761Y-94557142D01*
X172702380Y-94461904D01*
X172702380Y-94366666D01*
X172654761Y-94271428D01*
X172607142Y-94223809D01*
X172511904Y-94176190D01*
X172321428Y-94128571D01*
X172226190Y-94080952D01*
X172178571Y-94033333D01*
X172130952Y-93938095D01*
X172130952Y-93842857D01*
X172178571Y-93747619D01*
X172226190Y-93700000D01*
X172321428Y-93652380D01*
X172559523Y-93652380D01*
X172702380Y-93700000D01*
X172988095Y-93985714D02*
X173369047Y-93985714D01*
X173130952Y-93652380D02*
X173130952Y-94509523D01*
X173178571Y-94604761D01*
X173273809Y-94652380D01*
X173369047Y-94652380D01*
X173607142Y-93985714D02*
X173845238Y-94652380D01*
X174083333Y-93985714D02*
X173845238Y-94652380D01*
X173750000Y-94890476D01*
X173702380Y-94938095D01*
X173607142Y-94985714D01*
X174607142Y-94652380D02*
X174511904Y-94604761D01*
X174464285Y-94509523D01*
X174464285Y-93652380D01*
X175369047Y-94604761D02*
X175273809Y-94652380D01*
X175083333Y-94652380D01*
X174988095Y-94604761D01*
X174940476Y-94509523D01*
X174940476Y-94128571D01*
X174988095Y-94033333D01*
X175083333Y-93985714D01*
X175273809Y-93985714D01*
X175369047Y-94033333D01*
X175416666Y-94128571D01*
X175416666Y-94223809D01*
X174940476Y-94319047D01*
X176559523Y-94604761D02*
X176702380Y-94652380D01*
X176940476Y-94652380D01*
X177035714Y-94604761D01*
X177083333Y-94557142D01*
X177130952Y-94461904D01*
X177130952Y-94366666D01*
X177083333Y-94271428D01*
X177035714Y-94223809D01*
X176940476Y-94176190D01*
X176750000Y-94128571D01*
X176654761Y-94080952D01*
X176607142Y-94033333D01*
X176559523Y-93938095D01*
X176559523Y-93842857D01*
X176607142Y-93747619D01*
X176654761Y-93700000D01*
X176750000Y-93652380D01*
X176988095Y-93652380D01*
X177130952Y-93700000D01*
X177559523Y-94652380D02*
X177559523Y-93652380D01*
X177988095Y-94652380D02*
X177988095Y-94128571D01*
X177940476Y-94033333D01*
X177845238Y-93985714D01*
X177702380Y-93985714D01*
X177607142Y-94033333D01*
X177559523Y-94080952D01*
X178892857Y-93985714D02*
X178892857Y-94652380D01*
X178464285Y-93985714D02*
X178464285Y-94509523D01*
X178511904Y-94604761D01*
X178607142Y-94652380D01*
X178750000Y-94652380D01*
X178845238Y-94604761D01*
X178892857Y-94557142D01*
X179369047Y-93985714D02*
X179369047Y-94652380D01*
X179369047Y-94080952D02*
X179416666Y-94033333D01*
X179511904Y-93985714D01*
X179654761Y-93985714D01*
X179750000Y-94033333D01*
X179797619Y-94128571D01*
X179797619Y-94652380D01*
X180130952Y-93985714D02*
X180511904Y-93985714D01*
X180273809Y-93652380D02*
X180273809Y-94509523D01*
X180321428Y-94604761D01*
X180416666Y-94652380D01*
X180511904Y-94652380D01*
X181511904Y-93652380D02*
X182130952Y-93652380D01*
X181797619Y-94033333D01*
X181940476Y-94033333D01*
X182035714Y-94080952D01*
X182083333Y-94128571D01*
X182130952Y-94223809D01*
X182130952Y-94461904D01*
X182083333Y-94557142D01*
X182035714Y-94604761D01*
X181940476Y-94652380D01*
X181654761Y-94652380D01*
X181559523Y-94604761D01*
X181511904Y-94557142D01*
X182750000Y-93652380D02*
X182845238Y-93652380D01*
X182940476Y-93700000D01*
X182988095Y-93747619D01*
X183035714Y-93842857D01*
X183083333Y-94033333D01*
X183083333Y-94271428D01*
X183035714Y-94461904D01*
X182988095Y-94557142D01*
X182940476Y-94604761D01*
X182845238Y-94652380D01*
X182750000Y-94652380D01*
X182654761Y-94604761D01*
X182607142Y-94557142D01*
X182559523Y-94461904D01*
X182511904Y-94271428D01*
X182511904Y-94033333D01*
X182559523Y-93842857D01*
X182607142Y-93747619D01*
X182654761Y-93700000D01*
X182750000Y-93652380D01*
X183464285Y-93747619D02*
X183511904Y-93700000D01*
X183607142Y-93652380D01*
X183845238Y-93652380D01*
X183940476Y-93700000D01*
X183988095Y-93747619D01*
X184035714Y-93842857D01*
X184035714Y-93938095D01*
X183988095Y-94080952D01*
X183416666Y-94652380D01*
X184035714Y-94652380D01*
X184654761Y-93652380D02*
X184750000Y-93652380D01*
X184845238Y-93700000D01*
X184892857Y-93747619D01*
X184940476Y-93842857D01*
X184988095Y-94033333D01*
X184988095Y-94271428D01*
X184940476Y-94461904D01*
X184892857Y-94557142D01*
X184845238Y-94604761D01*
X184750000Y-94652380D01*
X184654761Y-94652380D01*
X184559523Y-94604761D01*
X184511904Y-94557142D01*
X184464285Y-94461904D01*
X184416666Y-94271428D01*
X184416666Y-94033333D01*
X184464285Y-93842857D01*
X184511904Y-93747619D01*
X184559523Y-93700000D01*
X184654761Y-93652380D01*
X185416666Y-94271428D02*
X186178571Y-94271428D01*
X186845238Y-93652380D02*
X186940476Y-93652380D01*
X187035714Y-93700000D01*
X187083333Y-93747619D01*
X187130952Y-93842857D01*
X187178571Y-94033333D01*
X187178571Y-94271428D01*
X187130952Y-94461904D01*
X187083333Y-94557142D01*
X187035714Y-94604761D01*
X186940476Y-94652380D01*
X186845238Y-94652380D01*
X186750000Y-94604761D01*
X186702380Y-94557142D01*
X186654761Y-94461904D01*
X186607142Y-94271428D01*
X186607142Y-94033333D01*
X186654761Y-93842857D01*
X186702380Y-93747619D01*
X186750000Y-93700000D01*
X186845238Y-93652380D01*
X188130952Y-94652380D02*
X187559523Y-94652380D01*
X187845238Y-94652380D02*
X187845238Y-93652380D01*
X187750000Y-93795238D01*
X187654761Y-93890476D01*
X187559523Y-93938095D01*
X189083333Y-94652380D02*
X188511904Y-94652380D01*
X188797619Y-94652380D02*
X188797619Y-93652380D01*
X188702380Y-93795238D01*
X188607142Y-93890476D01*
X188511904Y-93938095D01*
X189702380Y-93652380D02*
X189797619Y-93652380D01*
X189892857Y-93700000D01*
X189940476Y-93747619D01*
X189988095Y-93842857D01*
X190035714Y-94033333D01*
X190035714Y-94271428D01*
X189988095Y-94461904D01*
X189940476Y-94557142D01*
X189892857Y-94604761D01*
X189797619Y-94652380D01*
X189702380Y-94652380D01*
X189607142Y-94604761D01*
X189559523Y-94557142D01*
X189511904Y-94461904D01*
X189464285Y-94271428D01*
X189464285Y-94033333D01*
X189511904Y-93842857D01*
X189559523Y-93747619D01*
X189607142Y-93700000D01*
X189702380Y-93652380D01*
X190369047Y-93652380D02*
X191035714Y-94652380D01*
X191035714Y-93652380D02*
X190369047Y-94652380D01*
X191416666Y-94271428D02*
X192178571Y-94271428D01*
X192845238Y-93652380D02*
X192940476Y-93652380D01*
X193035714Y-93700000D01*
X193083333Y-93747619D01*
X193130952Y-93842857D01*
X193178571Y-94033333D01*
X193178571Y-94271428D01*
X193130952Y-94461904D01*
X193083333Y-94557142D01*
X193035714Y-94604761D01*
X192940476Y-94652380D01*
X192845238Y-94652380D01*
X192750000Y-94604761D01*
X192702380Y-94557142D01*
X192654761Y-94461904D01*
X192607142Y-94271428D01*
X192607142Y-94033333D01*
X192654761Y-93842857D01*
X192702380Y-93747619D01*
X192750000Y-93700000D01*
X192845238Y-93652380D01*
X194321428Y-93747619D02*
X194369047Y-93700000D01*
X194464285Y-93652380D01*
X194702380Y-93652380D01*
X194797619Y-93700000D01*
X194845238Y-93747619D01*
X194892857Y-93842857D01*
X194892857Y-93938095D01*
X194845238Y-94080952D01*
X194273809Y-94652380D01*
X194892857Y-94652380D01*
X195511904Y-93652380D02*
X195607142Y-93652380D01*
X195702380Y-93700000D01*
X195750000Y-93747619D01*
X195797619Y-93842857D01*
X195845238Y-94033333D01*
X195845238Y-94271428D01*
X195797619Y-94461904D01*
X195750000Y-94557142D01*
X195702380Y-94604761D01*
X195607142Y-94652380D01*
X195511904Y-94652380D01*
X195416666Y-94604761D01*
X195369047Y-94557142D01*
X195321428Y-94461904D01*
X195273809Y-94271428D01*
X195273809Y-94033333D01*
X195321428Y-93842857D01*
X195369047Y-93747619D01*
X195416666Y-93700000D01*
X195511904Y-93652380D01*
X196464285Y-93652380D02*
X196559523Y-93652380D01*
X196654761Y-93700000D01*
X196702380Y-93747619D01*
X196750000Y-93842857D01*
X196797619Y-94033333D01*
X196797619Y-94271428D01*
X196750000Y-94461904D01*
X196702380Y-94557142D01*
X196654761Y-94604761D01*
X196559523Y-94652380D01*
X196464285Y-94652380D01*
X196369047Y-94604761D01*
X196321428Y-94557142D01*
X196273809Y-94461904D01*
X196226190Y-94271428D01*
X196226190Y-94033333D01*
X196273809Y-93842857D01*
X196321428Y-93747619D01*
X196369047Y-93700000D01*
X196464285Y-93652380D01*
X197178571Y-94366666D02*
X197654761Y-94366666D01*
X197083333Y-94652380D02*
X197416666Y-93652380D01*
X197750000Y-94652380D01*
X198797619Y-93604761D02*
X197940476Y-94890476D01*
X199035714Y-93652380D02*
X199654761Y-93652380D01*
X199321428Y-94033333D01*
X199464285Y-94033333D01*
X199559523Y-94080952D01*
X199607142Y-94128571D01*
X199654761Y-94223809D01*
X199654761Y-94461904D01*
X199607142Y-94557142D01*
X199559523Y-94604761D01*
X199464285Y-94652380D01*
X199178571Y-94652380D01*
X199083333Y-94604761D01*
X199035714Y-94557142D01*
X200273809Y-93652380D02*
X200369047Y-93652380D01*
X200464285Y-93700000D01*
X200511904Y-93747619D01*
X200559523Y-93842857D01*
X200607142Y-94033333D01*
X200607142Y-94271428D01*
X200559523Y-94461904D01*
X200511904Y-94557142D01*
X200464285Y-94604761D01*
X200369047Y-94652380D01*
X200273809Y-94652380D01*
X200178571Y-94604761D01*
X200130952Y-94557142D01*
X200083333Y-94461904D01*
X200035714Y-94271428D01*
X200035714Y-94033333D01*
X200083333Y-93842857D01*
X200130952Y-93747619D01*
X200178571Y-93700000D01*
X200273809Y-93652380D01*
X201226190Y-93652380D02*
X201321428Y-93652380D01*
X201416666Y-93700000D01*
X201464285Y-93747619D01*
X201511904Y-93842857D01*
X201559523Y-94033333D01*
X201559523Y-94271428D01*
X201511904Y-94461904D01*
X201464285Y-94557142D01*
X201416666Y-94604761D01*
X201321428Y-94652380D01*
X201226190Y-94652380D01*
X201130952Y-94604761D01*
X201083333Y-94557142D01*
X201035714Y-94461904D01*
X200988095Y-94271428D01*
X200988095Y-94033333D01*
X201035714Y-93842857D01*
X201083333Y-93747619D01*
X201130952Y-93700000D01*
X201226190Y-93652380D01*
X201940476Y-94366666D02*
X202416666Y-94366666D01*
X201845238Y-94652380D02*
X202178571Y-93652380D01*
X202511904Y-94652380D01*
X203559523Y-93604761D02*
X202702380Y-94890476D01*
X204369047Y-93652380D02*
X203892857Y-93652380D01*
X203845238Y-94128571D01*
X203892857Y-94080952D01*
X203988095Y-94033333D01*
X204226190Y-94033333D01*
X204321428Y-94080952D01*
X204369047Y-94128571D01*
X204416666Y-94223809D01*
X204416666Y-94461904D01*
X204369047Y-94557142D01*
X204321428Y-94604761D01*
X204226190Y-94652380D01*
X203988095Y-94652380D01*
X203892857Y-94604761D01*
X203845238Y-94557142D01*
X205035714Y-93652380D02*
X205130952Y-93652380D01*
X205226190Y-93700000D01*
X205273809Y-93747619D01*
X205321428Y-93842857D01*
X205369047Y-94033333D01*
X205369047Y-94271428D01*
X205321428Y-94461904D01*
X205273809Y-94557142D01*
X205226190Y-94604761D01*
X205130952Y-94652380D01*
X205035714Y-94652380D01*
X204940476Y-94604761D01*
X204892857Y-94557142D01*
X204845238Y-94461904D01*
X204797619Y-94271428D01*
X204797619Y-94033333D01*
X204845238Y-93842857D01*
X204892857Y-93747619D01*
X204940476Y-93700000D01*
X205035714Y-93652380D01*
X205988095Y-93652380D02*
X206083333Y-93652380D01*
X206178571Y-93700000D01*
X206226190Y-93747619D01*
X206273809Y-93842857D01*
X206321428Y-94033333D01*
X206321428Y-94271428D01*
X206273809Y-94461904D01*
X206226190Y-94557142D01*
X206178571Y-94604761D01*
X206083333Y-94652380D01*
X205988095Y-94652380D01*
X205892857Y-94604761D01*
X205845238Y-94557142D01*
X205797619Y-94461904D01*
X205750000Y-94271428D01*
X205750000Y-94033333D01*
X205797619Y-93842857D01*
X205845238Y-93747619D01*
X205892857Y-93700000D01*
X205988095Y-93652380D01*
X206702380Y-94366666D02*
X207178571Y-94366666D01*
X206607142Y-94652380D02*
X206940476Y-93652380D01*
X207273809Y-94652380D01*
X160216666Y-104102380D02*
X160216666Y-104816666D01*
X160169047Y-104959523D01*
X160073809Y-105054761D01*
X159930952Y-105102380D01*
X159835714Y-105102380D01*
X160692857Y-105102380D02*
X160692857Y-104102380D01*
X161073809Y-104102380D01*
X161169047Y-104150000D01*
X161216666Y-104197619D01*
X161264285Y-104292857D01*
X161264285Y-104435714D01*
X161216666Y-104530952D01*
X161169047Y-104578571D01*
X161073809Y-104626190D01*
X160692857Y-104626190D01*
X162216666Y-105102380D02*
X161645238Y-105102380D01*
X161930952Y-105102380D02*
X161930952Y-104102380D01*
X161835714Y-104245238D01*
X161740476Y-104340476D01*
X161645238Y-104388095D01*
X205893333Y-121392380D02*
X205417142Y-121392380D01*
X205417142Y-120392380D01*
X206750476Y-121392380D02*
X206179047Y-121392380D01*
X206464761Y-121392380D02*
X206464761Y-120392380D01*
X206369523Y-120535238D01*
X206274285Y-120630476D01*
X206179047Y-120678095D01*
X195746666Y-110637380D02*
X195746666Y-111351666D01*
X195699047Y-111494523D01*
X195603809Y-111589761D01*
X195460952Y-111637380D01*
X195365714Y-111637380D01*
X196651428Y-110637380D02*
X196460952Y-110637380D01*
X196365714Y-110685000D01*
X196318095Y-110732619D01*
X196222857Y-110875476D01*
X196175238Y-111065952D01*
X196175238Y-111446904D01*
X196222857Y-111542142D01*
X196270476Y-111589761D01*
X196365714Y-111637380D01*
X196556190Y-111637380D01*
X196651428Y-111589761D01*
X196699047Y-111542142D01*
X196746666Y-111446904D01*
X196746666Y-111208809D01*
X196699047Y-111113571D01*
X196651428Y-111065952D01*
X196556190Y-111018333D01*
X196365714Y-111018333D01*
X196270476Y-111065952D01*
X196222857Y-111113571D01*
X196175238Y-111208809D01*
X145966666Y-106352380D02*
X145966666Y-107066666D01*
X145919047Y-107209523D01*
X145823809Y-107304761D01*
X145680952Y-107352380D01*
X145585714Y-107352380D01*
X146919047Y-106352380D02*
X146442857Y-106352380D01*
X146395238Y-106828571D01*
X146442857Y-106780952D01*
X146538095Y-106733333D01*
X146776190Y-106733333D01*
X146871428Y-106780952D01*
X146919047Y-106828571D01*
X146966666Y-106923809D01*
X146966666Y-107161904D01*
X146919047Y-107257142D01*
X146871428Y-107304761D01*
X146776190Y-107352380D01*
X146538095Y-107352380D01*
X146442857Y-107304761D01*
X146395238Y-107257142D01*
X167616666Y-105252380D02*
X167616666Y-105966666D01*
X167569047Y-106109523D01*
X167473809Y-106204761D01*
X167330952Y-106252380D01*
X167235714Y-106252380D01*
X168045238Y-105347619D02*
X168092857Y-105300000D01*
X168188095Y-105252380D01*
X168426190Y-105252380D01*
X168521428Y-105300000D01*
X168569047Y-105347619D01*
X168616666Y-105442857D01*
X168616666Y-105538095D01*
X168569047Y-105680952D01*
X167997619Y-106252380D01*
X168616666Y-106252380D01*
X193456666Y-107772380D02*
X193456666Y-108486666D01*
X193409047Y-108629523D01*
X193313809Y-108724761D01*
X193170952Y-108772380D01*
X193075714Y-108772380D01*
X194456666Y-108772380D02*
X193885238Y-108772380D01*
X194170952Y-108772380D02*
X194170952Y-107772380D01*
X194075714Y-107915238D01*
X193980476Y-108010476D01*
X193885238Y-108058095D01*
X222056666Y-103418571D02*
X221723333Y-103418571D01*
X221723333Y-103942380D02*
X221723333Y-102942380D01*
X222199523Y-102942380D01*
X223104285Y-103942380D02*
X222532857Y-103942380D01*
X222818571Y-103942380D02*
X222818571Y-102942380D01*
X222723333Y-103085238D01*
X222628095Y-103180476D01*
X222532857Y-103228095D01*
X176261904Y-110602380D02*
X176261904Y-109602380D01*
X176500000Y-109602380D01*
X176642857Y-109650000D01*
X176738095Y-109745238D01*
X176785714Y-109840476D01*
X176833333Y-110030952D01*
X176833333Y-110173809D01*
X176785714Y-110364285D01*
X176738095Y-110459523D01*
X176642857Y-110554761D01*
X176500000Y-110602380D01*
X176261904Y-110602380D01*
X177166666Y-109602380D02*
X177785714Y-109602380D01*
X177452380Y-109983333D01*
X177595238Y-109983333D01*
X177690476Y-110030952D01*
X177738095Y-110078571D01*
X177785714Y-110173809D01*
X177785714Y-110411904D01*
X177738095Y-110507142D01*
X177690476Y-110554761D01*
X177595238Y-110602380D01*
X177309523Y-110602380D01*
X177214285Y-110554761D01*
X177166666Y-110507142D01*
X184261904Y-110602380D02*
X184261904Y-109602380D01*
X184500000Y-109602380D01*
X184642857Y-109650000D01*
X184738095Y-109745238D01*
X184785714Y-109840476D01*
X184833333Y-110030952D01*
X184833333Y-110173809D01*
X184785714Y-110364285D01*
X184738095Y-110459523D01*
X184642857Y-110554761D01*
X184500000Y-110602380D01*
X184261904Y-110602380D01*
X185214285Y-109697619D02*
X185261904Y-109650000D01*
X185357142Y-109602380D01*
X185595238Y-109602380D01*
X185690476Y-109650000D01*
X185738095Y-109697619D01*
X185785714Y-109792857D01*
X185785714Y-109888095D01*
X185738095Y-110030952D01*
X185166666Y-110602380D01*
X185785714Y-110602380D01*
M02*
