G04 #@! TF.GenerationSoftware,KiCad,Pcbnew,5.1.9+dfsg1-1~bpo10+1*
G04 #@! TF.CreationDate,2022-02-04T11:52:18+00:00*
G04 #@! TF.ProjectId,CurrentShuntCircuit,43757272-656e-4745-9368-756e74436972,1*
G04 #@! TF.SameCoordinates,Original*
G04 #@! TF.FileFunction,Legend,Bot*
G04 #@! TF.FilePolarity,Positive*
%FSLAX46Y46*%
G04 Gerber Fmt 4.6, Leading zero omitted, Abs format (unit mm)*
G04 Created by KiCad (PCBNEW 5.1.9+dfsg1-1~bpo10+1) date 2022-02-04 11:52:18*
%MOMM*%
%LPD*%
G01*
G04 APERTURE LIST*
%ADD10C,0.150000*%
%ADD11C,0.200000*%
%ADD12C,0.120000*%
G04 APERTURE END LIST*
D10*
X189509523Y-103502380D02*
X190080952Y-103502380D01*
X189795238Y-103502380D02*
X189795238Y-102502380D01*
X189890476Y-102645238D01*
X189985714Y-102740476D01*
X190080952Y-102788095D01*
X188890476Y-102502380D02*
X188795238Y-102502380D01*
X188700000Y-102550000D01*
X188652380Y-102597619D01*
X188604761Y-102692857D01*
X188557142Y-102883333D01*
X188557142Y-103121428D01*
X188604761Y-103311904D01*
X188652380Y-103407142D01*
X188700000Y-103454761D01*
X188795238Y-103502380D01*
X188890476Y-103502380D01*
X188985714Y-103454761D01*
X189033333Y-103407142D01*
X189080952Y-103311904D01*
X189128571Y-103121428D01*
X189128571Y-102883333D01*
X189080952Y-102692857D01*
X189033333Y-102597619D01*
X188985714Y-102550000D01*
X188890476Y-102502380D01*
X187938095Y-102502380D02*
X187842857Y-102502380D01*
X187747619Y-102550000D01*
X187700000Y-102597619D01*
X187652380Y-102692857D01*
X187604761Y-102883333D01*
X187604761Y-103121428D01*
X187652380Y-103311904D01*
X187700000Y-103407142D01*
X187747619Y-103454761D01*
X187842857Y-103502380D01*
X187938095Y-103502380D01*
X188033333Y-103454761D01*
X188080952Y-103407142D01*
X188128571Y-103311904D01*
X188176190Y-103121428D01*
X188176190Y-102883333D01*
X188128571Y-102692857D01*
X188080952Y-102597619D01*
X188033333Y-102550000D01*
X187938095Y-102502380D01*
X187319047Y-102502380D02*
X186985714Y-103502380D01*
X186652380Y-102502380D01*
X185128571Y-103454761D02*
X185223809Y-103502380D01*
X185414285Y-103502380D01*
X185509523Y-103454761D01*
X185557142Y-103407142D01*
X185604761Y-103311904D01*
X185604761Y-103026190D01*
X185557142Y-102930952D01*
X185509523Y-102883333D01*
X185414285Y-102835714D01*
X185223809Y-102835714D01*
X185128571Y-102883333D01*
X184271428Y-103502380D02*
X184271428Y-102978571D01*
X184319047Y-102883333D01*
X184414285Y-102835714D01*
X184604761Y-102835714D01*
X184700000Y-102883333D01*
X184271428Y-103454761D02*
X184366666Y-103502380D01*
X184604761Y-103502380D01*
X184700000Y-103454761D01*
X184747619Y-103359523D01*
X184747619Y-103264285D01*
X184700000Y-103169047D01*
X184604761Y-103121428D01*
X184366666Y-103121428D01*
X184271428Y-103073809D01*
X183795238Y-102835714D02*
X183795238Y-103835714D01*
X183795238Y-102883333D02*
X183700000Y-102835714D01*
X183509523Y-102835714D01*
X183414285Y-102883333D01*
X183366666Y-102930952D01*
X183319047Y-103026190D01*
X183319047Y-103311904D01*
X183366666Y-103407142D01*
X183414285Y-103454761D01*
X183509523Y-103502380D01*
X183700000Y-103502380D01*
X183795238Y-103454761D01*
X225674285Y-101772380D02*
X226245714Y-101772380D01*
X225960000Y-101772380D02*
X225960000Y-100772380D01*
X226055238Y-100915238D01*
X226150476Y-101010476D01*
X226245714Y-101058095D01*
X225055238Y-100772380D02*
X224960000Y-100772380D01*
X224864761Y-100820000D01*
X224817142Y-100867619D01*
X224769523Y-100962857D01*
X224721904Y-101153333D01*
X224721904Y-101391428D01*
X224769523Y-101581904D01*
X224817142Y-101677142D01*
X224864761Y-101724761D01*
X224960000Y-101772380D01*
X225055238Y-101772380D01*
X225150476Y-101724761D01*
X225198095Y-101677142D01*
X225245714Y-101581904D01*
X225293333Y-101391428D01*
X225293333Y-101153333D01*
X225245714Y-100962857D01*
X225198095Y-100867619D01*
X225150476Y-100820000D01*
X225055238Y-100772380D01*
X224102857Y-100772380D02*
X224007619Y-100772380D01*
X223912380Y-100820000D01*
X223864761Y-100867619D01*
X223817142Y-100962857D01*
X223769523Y-101153333D01*
X223769523Y-101391428D01*
X223817142Y-101581904D01*
X223864761Y-101677142D01*
X223912380Y-101724761D01*
X224007619Y-101772380D01*
X224102857Y-101772380D01*
X224198095Y-101724761D01*
X224245714Y-101677142D01*
X224293333Y-101581904D01*
X224340952Y-101391428D01*
X224340952Y-101153333D01*
X224293333Y-100962857D01*
X224245714Y-100867619D01*
X224198095Y-100820000D01*
X224102857Y-100772380D01*
X223483809Y-100772380D02*
X223150476Y-101772380D01*
X222817142Y-100772380D01*
X221293333Y-101724761D02*
X221388571Y-101772380D01*
X221579047Y-101772380D01*
X221674285Y-101724761D01*
X221721904Y-101677142D01*
X221769523Y-101581904D01*
X221769523Y-101296190D01*
X221721904Y-101200952D01*
X221674285Y-101153333D01*
X221579047Y-101105714D01*
X221388571Y-101105714D01*
X221293333Y-101153333D01*
X220436190Y-101772380D02*
X220436190Y-101248571D01*
X220483809Y-101153333D01*
X220579047Y-101105714D01*
X220769523Y-101105714D01*
X220864761Y-101153333D01*
X220436190Y-101724761D02*
X220531428Y-101772380D01*
X220769523Y-101772380D01*
X220864761Y-101724761D01*
X220912380Y-101629523D01*
X220912380Y-101534285D01*
X220864761Y-101439047D01*
X220769523Y-101391428D01*
X220531428Y-101391428D01*
X220436190Y-101343809D01*
X219960000Y-101105714D02*
X219960000Y-102105714D01*
X219960000Y-101153333D02*
X219864761Y-101105714D01*
X219674285Y-101105714D01*
X219579047Y-101153333D01*
X219531428Y-101200952D01*
X219483809Y-101296190D01*
X219483809Y-101581904D01*
X219531428Y-101677142D01*
X219579047Y-101724761D01*
X219674285Y-101772380D01*
X219864761Y-101772380D01*
X219960000Y-101724761D01*
X219102857Y-101724761D02*
X219007619Y-101772380D01*
X218817142Y-101772380D01*
X218721904Y-101724761D01*
X218674285Y-101629523D01*
X218674285Y-101581904D01*
X218721904Y-101486666D01*
X218817142Y-101439047D01*
X218960000Y-101439047D01*
X219055238Y-101391428D01*
X219102857Y-101296190D01*
X219102857Y-101248571D01*
X219055238Y-101153333D01*
X218960000Y-101105714D01*
X218817142Y-101105714D01*
X218721904Y-101153333D01*
X179652857Y-123859642D02*
X179081428Y-123459642D01*
X179652857Y-123173928D02*
X178452857Y-123173928D01*
X178452857Y-123631071D01*
X178510000Y-123745357D01*
X178567142Y-123802500D01*
X178681428Y-123859642D01*
X178852857Y-123859642D01*
X178967142Y-123802500D01*
X179024285Y-123745357D01*
X179081428Y-123631071D01*
X179081428Y-123173928D01*
X179024285Y-124373928D02*
X179024285Y-124773928D01*
X179652857Y-124945357D02*
X179652857Y-124373928D01*
X178452857Y-124373928D01*
X178452857Y-124945357D01*
X179652857Y-126031071D02*
X179652857Y-125459642D01*
X178452857Y-125459642D01*
X179310000Y-126373928D02*
X179310000Y-126945357D01*
X179652857Y-126259642D02*
X178452857Y-126659642D01*
X179652857Y-127059642D01*
X179081428Y-127688214D02*
X179652857Y-127688214D01*
X178452857Y-127288214D02*
X179081428Y-127688214D01*
X178452857Y-128088214D01*
X177212857Y-123976785D02*
X176641428Y-123576785D01*
X177212857Y-123291071D02*
X176012857Y-123291071D01*
X176012857Y-123748214D01*
X176070000Y-123862499D01*
X176127142Y-123919642D01*
X176241428Y-123976785D01*
X176412857Y-123976785D01*
X176527142Y-123919642D01*
X176584285Y-123862499D01*
X176641428Y-123748214D01*
X176641428Y-123291071D01*
X176012857Y-124376785D02*
X177212857Y-125176785D01*
X176012857Y-125176785D02*
X177212857Y-124376785D01*
X177212857Y-125633928D02*
X176012857Y-125633928D01*
X176012857Y-125919642D01*
X176070000Y-126091071D01*
X176184285Y-126205356D01*
X176298571Y-126262499D01*
X176527142Y-126319642D01*
X176698571Y-126319642D01*
X176927142Y-126262499D01*
X177041428Y-126205356D01*
X177155714Y-126091071D01*
X177212857Y-125919642D01*
X177212857Y-125633928D01*
X173412857Y-123119642D02*
X173412857Y-123805357D01*
X174612857Y-123462500D02*
X173412857Y-123462500D01*
X173412857Y-124091071D02*
X174612857Y-124891071D01*
X173412857Y-124891071D02*
X174612857Y-124091071D01*
X174612857Y-125348214D02*
X173412857Y-125348214D01*
X173412857Y-125633928D01*
X173470000Y-125805357D01*
X173584285Y-125919642D01*
X173698571Y-125976785D01*
X173927142Y-126033928D01*
X174098571Y-126033928D01*
X174327142Y-125976785D01*
X174441428Y-125919642D01*
X174555714Y-125805357D01*
X174612857Y-125633928D01*
X174612857Y-125348214D01*
X171875714Y-123233928D02*
X171932857Y-123405357D01*
X171932857Y-123691071D01*
X171875714Y-123805357D01*
X171818571Y-123862500D01*
X171704285Y-123919643D01*
X171590000Y-123919643D01*
X171475714Y-123862500D01*
X171418571Y-123805357D01*
X171361428Y-123691071D01*
X171304285Y-123462500D01*
X171247142Y-123348214D01*
X171190000Y-123291071D01*
X171075714Y-123233928D01*
X170961428Y-123233928D01*
X170847142Y-123291071D01*
X170790000Y-123348214D01*
X170732857Y-123462500D01*
X170732857Y-123748214D01*
X170790000Y-123919643D01*
X171932857Y-124433928D02*
X170732857Y-124433928D01*
X170732857Y-124719643D01*
X170790000Y-124891071D01*
X170904285Y-125005357D01*
X171018571Y-125062500D01*
X171247142Y-125119643D01*
X171418571Y-125119643D01*
X171647142Y-125062500D01*
X171761428Y-125005357D01*
X171875714Y-124891071D01*
X171932857Y-124719643D01*
X171932857Y-124433928D01*
X171590000Y-125576786D02*
X171590000Y-126148214D01*
X171932857Y-125462500D02*
X170732857Y-125862500D01*
X171932857Y-126262500D01*
X169275714Y-123233928D02*
X169332857Y-123405357D01*
X169332857Y-123691071D01*
X169275714Y-123805357D01*
X169218571Y-123862500D01*
X169104285Y-123919643D01*
X168990000Y-123919643D01*
X168875714Y-123862500D01*
X168818571Y-123805357D01*
X168761428Y-123691071D01*
X168704285Y-123462500D01*
X168647142Y-123348214D01*
X168590000Y-123291071D01*
X168475714Y-123233928D01*
X168361428Y-123233928D01*
X168247142Y-123291071D01*
X168190000Y-123348214D01*
X168132857Y-123462500D01*
X168132857Y-123748214D01*
X168190000Y-123919643D01*
X169218571Y-125119643D02*
X169275714Y-125062500D01*
X169332857Y-124891071D01*
X169332857Y-124776785D01*
X169275714Y-124605357D01*
X169161428Y-124491071D01*
X169047142Y-124433928D01*
X168818571Y-124376785D01*
X168647142Y-124376785D01*
X168418571Y-124433928D01*
X168304285Y-124491071D01*
X168190000Y-124605357D01*
X168132857Y-124776785D01*
X168132857Y-124891071D01*
X168190000Y-125062500D01*
X168247142Y-125119643D01*
X169332857Y-126205357D02*
X169332857Y-125633928D01*
X168132857Y-125633928D01*
X161325714Y-123291071D02*
X161325714Y-124205357D01*
X161782857Y-123748214D02*
X160868571Y-123748214D01*
X160582857Y-125348214D02*
X160582857Y-124776785D01*
X161154285Y-124719642D01*
X161097142Y-124776785D01*
X161040000Y-124891071D01*
X161040000Y-125176785D01*
X161097142Y-125291071D01*
X161154285Y-125348214D01*
X161268571Y-125405357D01*
X161554285Y-125405357D01*
X161668571Y-125348214D01*
X161725714Y-125291071D01*
X161782857Y-125176785D01*
X161782857Y-124891071D01*
X161725714Y-124776785D01*
X161668571Y-124719642D01*
X160582857Y-125748214D02*
X161782857Y-126148214D01*
X160582857Y-126548214D01*
X165740000Y-123919642D02*
X165682857Y-123805357D01*
X165682857Y-123633928D01*
X165740000Y-123462500D01*
X165854285Y-123348214D01*
X165968571Y-123291071D01*
X166197142Y-123233928D01*
X166368571Y-123233928D01*
X166597142Y-123291071D01*
X166711428Y-123348214D01*
X166825714Y-123462500D01*
X166882857Y-123633928D01*
X166882857Y-123748214D01*
X166825714Y-123919642D01*
X166768571Y-123976785D01*
X166368571Y-123976785D01*
X166368571Y-123748214D01*
X166882857Y-124491071D02*
X165682857Y-124491071D01*
X166882857Y-125176785D01*
X165682857Y-125176785D01*
X166882857Y-125748214D02*
X165682857Y-125748214D01*
X165682857Y-126033928D01*
X165740000Y-126205357D01*
X165854285Y-126319642D01*
X165968571Y-126376785D01*
X166197142Y-126433928D01*
X166368571Y-126433928D01*
X166597142Y-126376785D01*
X166711428Y-126319642D01*
X166825714Y-126205357D01*
X166882857Y-126033928D01*
X166882857Y-125748214D01*
D11*
X222964285Y-66572857D02*
X222964285Y-65372857D01*
X222678571Y-65372857D01*
X222507142Y-65430000D01*
X222392857Y-65544285D01*
X222335714Y-65658571D01*
X222278571Y-65887142D01*
X222278571Y-66058571D01*
X222335714Y-66287142D01*
X222392857Y-66401428D01*
X222507142Y-66515714D01*
X222678571Y-66572857D01*
X222964285Y-66572857D01*
X221307142Y-66515714D02*
X221421428Y-66572857D01*
X221650000Y-66572857D01*
X221764285Y-66515714D01*
X221821428Y-66401428D01*
X221821428Y-65944285D01*
X221764285Y-65830000D01*
X221650000Y-65772857D01*
X221421428Y-65772857D01*
X221307142Y-65830000D01*
X221250000Y-65944285D01*
X221250000Y-66058571D01*
X221821428Y-66172857D01*
X220792857Y-66515714D02*
X220678571Y-66572857D01*
X220450000Y-66572857D01*
X220335714Y-66515714D01*
X220278571Y-66401428D01*
X220278571Y-66344285D01*
X220335714Y-66230000D01*
X220450000Y-66172857D01*
X220621428Y-66172857D01*
X220735714Y-66115714D01*
X220792857Y-66001428D01*
X220792857Y-65944285D01*
X220735714Y-65830000D01*
X220621428Y-65772857D01*
X220450000Y-65772857D01*
X220335714Y-65830000D01*
X219764285Y-66572857D02*
X219764285Y-65772857D01*
X219764285Y-65372857D02*
X219821428Y-65430000D01*
X219764285Y-65487142D01*
X219707142Y-65430000D01*
X219764285Y-65372857D01*
X219764285Y-65487142D01*
X218678571Y-65772857D02*
X218678571Y-66744285D01*
X218735714Y-66858571D01*
X218792857Y-66915714D01*
X218907142Y-66972857D01*
X219078571Y-66972857D01*
X219192857Y-66915714D01*
X218678571Y-66515714D02*
X218792857Y-66572857D01*
X219021428Y-66572857D01*
X219135714Y-66515714D01*
X219192857Y-66458571D01*
X219250000Y-66344285D01*
X219250000Y-66001428D01*
X219192857Y-65887142D01*
X219135714Y-65830000D01*
X219021428Y-65772857D01*
X218792857Y-65772857D01*
X218678571Y-65830000D01*
X218107142Y-65772857D02*
X218107142Y-66572857D01*
X218107142Y-65887142D02*
X218050000Y-65830000D01*
X217935714Y-65772857D01*
X217764285Y-65772857D01*
X217650000Y-65830000D01*
X217592857Y-65944285D01*
X217592857Y-66572857D01*
X215764285Y-67030000D02*
X215821428Y-66972857D01*
X215935714Y-66801428D01*
X215992857Y-66687142D01*
X216050000Y-66515714D01*
X216107142Y-66230000D01*
X216107142Y-66001428D01*
X216050000Y-65715714D01*
X215992857Y-65544285D01*
X215935714Y-65430000D01*
X215821428Y-65258571D01*
X215764285Y-65201428D01*
X214792857Y-66515714D02*
X214907142Y-66572857D01*
X215135714Y-66572857D01*
X215250000Y-66515714D01*
X215307142Y-66458571D01*
X215364285Y-66344285D01*
X215364285Y-66001428D01*
X215307142Y-65887142D01*
X215250000Y-65830000D01*
X215135714Y-65772857D01*
X214907142Y-65772857D01*
X214792857Y-65830000D01*
X214392857Y-67030000D02*
X214335714Y-66972857D01*
X214221428Y-66801428D01*
X214164285Y-66687142D01*
X214107142Y-66515714D01*
X214050000Y-66230000D01*
X214050000Y-66001428D01*
X214107142Y-65715714D01*
X214164285Y-65544285D01*
X214221428Y-65430000D01*
X214335714Y-65258571D01*
X214392857Y-65201428D01*
X213535714Y-65487142D02*
X213478571Y-65430000D01*
X213364285Y-65372857D01*
X213078571Y-65372857D01*
X212964285Y-65430000D01*
X212907142Y-65487142D01*
X212850000Y-65601428D01*
X212850000Y-65715714D01*
X212907142Y-65887142D01*
X213592857Y-66572857D01*
X212850000Y-66572857D01*
X212107142Y-65372857D02*
X211992857Y-65372857D01*
X211878571Y-65430000D01*
X211821428Y-65487142D01*
X211764285Y-65601428D01*
X211707142Y-65830000D01*
X211707142Y-66115714D01*
X211764285Y-66344285D01*
X211821428Y-66458571D01*
X211878571Y-66515714D01*
X211992857Y-66572857D01*
X212107142Y-66572857D01*
X212221428Y-66515714D01*
X212278571Y-66458571D01*
X212335714Y-66344285D01*
X212392857Y-66115714D01*
X212392857Y-65830000D01*
X212335714Y-65601428D01*
X212278571Y-65487142D01*
X212221428Y-65430000D01*
X212107142Y-65372857D01*
X211250000Y-65487142D02*
X211192857Y-65430000D01*
X211078571Y-65372857D01*
X210792857Y-65372857D01*
X210678571Y-65430000D01*
X210621428Y-65487142D01*
X210564285Y-65601428D01*
X210564285Y-65715714D01*
X210621428Y-65887142D01*
X211307142Y-66572857D01*
X210564285Y-66572857D01*
X209421428Y-66572857D02*
X210107142Y-66572857D01*
X209764285Y-66572857D02*
X209764285Y-65372857D01*
X209878571Y-65544285D01*
X209992857Y-65658571D01*
X210107142Y-65715714D01*
X208050000Y-66515714D02*
X207878571Y-66572857D01*
X207592857Y-66572857D01*
X207478571Y-66515714D01*
X207421428Y-66458571D01*
X207364285Y-66344285D01*
X207364285Y-66230000D01*
X207421428Y-66115714D01*
X207478571Y-66058571D01*
X207592857Y-66001428D01*
X207821428Y-65944285D01*
X207935714Y-65887142D01*
X207992857Y-65830000D01*
X208050000Y-65715714D01*
X208050000Y-65601428D01*
X207992857Y-65487142D01*
X207935714Y-65430000D01*
X207821428Y-65372857D01*
X207535714Y-65372857D01*
X207364285Y-65430000D01*
X207021428Y-65772857D02*
X206564285Y-65772857D01*
X206850000Y-65372857D02*
X206850000Y-66401428D01*
X206792857Y-66515714D01*
X206678571Y-66572857D01*
X206564285Y-66572857D01*
X205650000Y-65772857D02*
X205650000Y-66572857D01*
X206164285Y-65772857D02*
X206164285Y-66401428D01*
X206107142Y-66515714D01*
X205992857Y-66572857D01*
X205821428Y-66572857D01*
X205707142Y-66515714D01*
X205650000Y-66458571D01*
X204564285Y-66572857D02*
X204564285Y-65944285D01*
X204621428Y-65830000D01*
X204735714Y-65772857D01*
X204964285Y-65772857D01*
X205078571Y-65830000D01*
X204564285Y-66515714D02*
X204678571Y-66572857D01*
X204964285Y-66572857D01*
X205078571Y-66515714D01*
X205135714Y-66401428D01*
X205135714Y-66287142D01*
X205078571Y-66172857D01*
X204964285Y-66115714D01*
X204678571Y-66115714D01*
X204564285Y-66058571D01*
X203992857Y-66572857D02*
X203992857Y-65772857D01*
X203992857Y-66001428D02*
X203935714Y-65887142D01*
X203878571Y-65830000D01*
X203764285Y-65772857D01*
X203650000Y-65772857D01*
X203421428Y-65772857D02*
X202964285Y-65772857D01*
X203250000Y-65372857D02*
X203250000Y-66401428D01*
X203192857Y-66515714D01*
X203078571Y-66572857D01*
X202964285Y-66572857D01*
X201650000Y-66572857D02*
X201650000Y-65372857D01*
X201192857Y-65372857D01*
X201078571Y-65430000D01*
X201021428Y-65487142D01*
X200964285Y-65601428D01*
X200964285Y-65772857D01*
X201021428Y-65887142D01*
X201078571Y-65944285D01*
X201192857Y-66001428D01*
X201650000Y-66001428D01*
X200450000Y-66572857D02*
X200450000Y-65772857D01*
X200450000Y-65372857D02*
X200507142Y-65430000D01*
X200450000Y-65487142D01*
X200392857Y-65430000D01*
X200450000Y-65372857D01*
X200450000Y-65487142D01*
X200050000Y-65772857D02*
X199592857Y-65772857D01*
X199878571Y-65372857D02*
X199878571Y-66401428D01*
X199821428Y-66515714D01*
X199707142Y-66572857D01*
X199592857Y-66572857D01*
X199364285Y-65772857D02*
X198907142Y-65772857D01*
X199192857Y-65372857D02*
X199192857Y-66401428D01*
X199135714Y-66515714D01*
X199021428Y-66572857D01*
X198907142Y-66572857D01*
X197992857Y-66572857D02*
X197992857Y-65944285D01*
X198050000Y-65830000D01*
X198164285Y-65772857D01*
X198392857Y-65772857D01*
X198507142Y-65830000D01*
X197992857Y-66515714D02*
X198107142Y-66572857D01*
X198392857Y-66572857D01*
X198507142Y-66515714D01*
X198564285Y-66401428D01*
X198564285Y-66287142D01*
X198507142Y-66172857D01*
X198392857Y-66115714D01*
X198107142Y-66115714D01*
X197992857Y-66058571D01*
X197535714Y-65772857D02*
X197307142Y-66572857D01*
X197078571Y-66001428D01*
X196850000Y-66572857D01*
X196621428Y-65772857D01*
X195650000Y-66572857D02*
X195650000Y-65944285D01*
X195707142Y-65830000D01*
X195821428Y-65772857D01*
X196050000Y-65772857D01*
X196164285Y-65830000D01*
X195650000Y-66515714D02*
X195764285Y-66572857D01*
X196050000Y-66572857D01*
X196164285Y-66515714D01*
X196221428Y-66401428D01*
X196221428Y-66287142D01*
X196164285Y-66172857D01*
X196050000Y-66115714D01*
X195764285Y-66115714D01*
X195650000Y-66058571D01*
X195192857Y-65772857D02*
X194907142Y-66572857D01*
X194621428Y-65772857D02*
X194907142Y-66572857D01*
X195021428Y-66858571D01*
X195078571Y-66915714D01*
X195192857Y-66972857D01*
X222821428Y-67372857D02*
X222135714Y-67372857D01*
X222478571Y-68572857D02*
X222478571Y-67372857D01*
X221735714Y-68572857D02*
X221735714Y-67372857D01*
X221221428Y-68572857D02*
X221221428Y-67944285D01*
X221278571Y-67830000D01*
X221392857Y-67772857D01*
X221564285Y-67772857D01*
X221678571Y-67830000D01*
X221735714Y-67887142D01*
X220650000Y-68572857D02*
X220650000Y-67772857D01*
X220650000Y-67372857D02*
X220707142Y-67430000D01*
X220650000Y-67487142D01*
X220592857Y-67430000D01*
X220650000Y-67372857D01*
X220650000Y-67487142D01*
X220135714Y-68515714D02*
X220021428Y-68572857D01*
X219792857Y-68572857D01*
X219678571Y-68515714D01*
X219621428Y-68401428D01*
X219621428Y-68344285D01*
X219678571Y-68230000D01*
X219792857Y-68172857D01*
X219964285Y-68172857D01*
X220078571Y-68115714D01*
X220135714Y-68001428D01*
X220135714Y-67944285D01*
X220078571Y-67830000D01*
X219964285Y-67772857D01*
X219792857Y-67772857D01*
X219678571Y-67830000D01*
X218307142Y-67772857D02*
X218078571Y-68572857D01*
X217850000Y-68001428D01*
X217621428Y-68572857D01*
X217392857Y-67772857D01*
X216764285Y-68572857D02*
X216878571Y-68515714D01*
X216935714Y-68458571D01*
X216992857Y-68344285D01*
X216992857Y-68001428D01*
X216935714Y-67887142D01*
X216878571Y-67830000D01*
X216764285Y-67772857D01*
X216592857Y-67772857D01*
X216478571Y-67830000D01*
X216421428Y-67887142D01*
X216364285Y-68001428D01*
X216364285Y-68344285D01*
X216421428Y-68458571D01*
X216478571Y-68515714D01*
X216592857Y-68572857D01*
X216764285Y-68572857D01*
X215850000Y-68572857D02*
X215850000Y-67772857D01*
X215850000Y-68001428D02*
X215792857Y-67887142D01*
X215735714Y-67830000D01*
X215621428Y-67772857D01*
X215507142Y-67772857D01*
X215107142Y-68572857D02*
X215107142Y-67372857D01*
X214992857Y-68115714D02*
X214650000Y-68572857D01*
X214650000Y-67772857D02*
X215107142Y-68230000D01*
X213221428Y-68572857D02*
X213221428Y-67772857D01*
X213221428Y-67372857D02*
X213278571Y-67430000D01*
X213221428Y-67487142D01*
X213164285Y-67430000D01*
X213221428Y-67372857D01*
X213221428Y-67487142D01*
X212707142Y-68515714D02*
X212592857Y-68572857D01*
X212364285Y-68572857D01*
X212250000Y-68515714D01*
X212192857Y-68401428D01*
X212192857Y-68344285D01*
X212250000Y-68230000D01*
X212364285Y-68172857D01*
X212535714Y-68172857D01*
X212650000Y-68115714D01*
X212707142Y-68001428D01*
X212707142Y-67944285D01*
X212650000Y-67830000D01*
X212535714Y-67772857D01*
X212364285Y-67772857D01*
X212250000Y-67830000D01*
X210592857Y-68572857D02*
X210707142Y-68515714D01*
X210764285Y-68401428D01*
X210764285Y-67372857D01*
X210135714Y-68572857D02*
X210135714Y-67772857D01*
X210135714Y-67372857D02*
X210192857Y-67430000D01*
X210135714Y-67487142D01*
X210078571Y-67430000D01*
X210135714Y-67372857D01*
X210135714Y-67487142D01*
X209050000Y-68515714D02*
X209164285Y-68572857D01*
X209392857Y-68572857D01*
X209507142Y-68515714D01*
X209564285Y-68458571D01*
X209621428Y-68344285D01*
X209621428Y-68001428D01*
X209564285Y-67887142D01*
X209507142Y-67830000D01*
X209392857Y-67772857D01*
X209164285Y-67772857D01*
X209050000Y-67830000D01*
X208078571Y-68515714D02*
X208192857Y-68572857D01*
X208421428Y-68572857D01*
X208535714Y-68515714D01*
X208592857Y-68401428D01*
X208592857Y-67944285D01*
X208535714Y-67830000D01*
X208421428Y-67772857D01*
X208192857Y-67772857D01*
X208078571Y-67830000D01*
X208021428Y-67944285D01*
X208021428Y-68058571D01*
X208592857Y-68172857D01*
X207507142Y-67772857D02*
X207507142Y-68572857D01*
X207507142Y-67887142D02*
X207450000Y-67830000D01*
X207335714Y-67772857D01*
X207164285Y-67772857D01*
X207050000Y-67830000D01*
X206992857Y-67944285D01*
X206992857Y-68572857D01*
X206478571Y-68515714D02*
X206364285Y-68572857D01*
X206135714Y-68572857D01*
X206021428Y-68515714D01*
X205964285Y-68401428D01*
X205964285Y-68344285D01*
X206021428Y-68230000D01*
X206135714Y-68172857D01*
X206307142Y-68172857D01*
X206421428Y-68115714D01*
X206478571Y-68001428D01*
X206478571Y-67944285D01*
X206421428Y-67830000D01*
X206307142Y-67772857D01*
X206135714Y-67772857D01*
X206021428Y-67830000D01*
X204992857Y-68515714D02*
X205107142Y-68572857D01*
X205335714Y-68572857D01*
X205450000Y-68515714D01*
X205507142Y-68401428D01*
X205507142Y-67944285D01*
X205450000Y-67830000D01*
X205335714Y-67772857D01*
X205107142Y-67772857D01*
X204992857Y-67830000D01*
X204935714Y-67944285D01*
X204935714Y-68058571D01*
X205507142Y-68172857D01*
X203907142Y-68572857D02*
X203907142Y-67372857D01*
X203907142Y-68515714D02*
X204021428Y-68572857D01*
X204250000Y-68572857D01*
X204364285Y-68515714D01*
X204421428Y-68458571D01*
X204478571Y-68344285D01*
X204478571Y-68001428D01*
X204421428Y-67887142D01*
X204364285Y-67830000D01*
X204250000Y-67772857D01*
X204021428Y-67772857D01*
X203907142Y-67830000D01*
X201907142Y-67772857D02*
X201907142Y-68572857D01*
X202421428Y-67772857D02*
X202421428Y-68401428D01*
X202364285Y-68515714D01*
X202250000Y-68572857D01*
X202078571Y-68572857D01*
X201964285Y-68515714D01*
X201907142Y-68458571D01*
X201335714Y-67772857D02*
X201335714Y-68572857D01*
X201335714Y-67887142D02*
X201278571Y-67830000D01*
X201164285Y-67772857D01*
X200992857Y-67772857D01*
X200878571Y-67830000D01*
X200821428Y-67944285D01*
X200821428Y-68572857D01*
X199735714Y-68572857D02*
X199735714Y-67372857D01*
X199735714Y-68515714D02*
X199850000Y-68572857D01*
X200078571Y-68572857D01*
X200192857Y-68515714D01*
X200250000Y-68458571D01*
X200307142Y-68344285D01*
X200307142Y-68001428D01*
X200250000Y-67887142D01*
X200192857Y-67830000D01*
X200078571Y-67772857D01*
X199850000Y-67772857D01*
X199735714Y-67830000D01*
X198707142Y-68515714D02*
X198821428Y-68572857D01*
X199050000Y-68572857D01*
X199164285Y-68515714D01*
X199221428Y-68401428D01*
X199221428Y-67944285D01*
X199164285Y-67830000D01*
X199050000Y-67772857D01*
X198821428Y-67772857D01*
X198707142Y-67830000D01*
X198650000Y-67944285D01*
X198650000Y-68058571D01*
X199221428Y-68172857D01*
X198135714Y-68572857D02*
X198135714Y-67772857D01*
X198135714Y-68001428D02*
X198078571Y-67887142D01*
X198021428Y-67830000D01*
X197907142Y-67772857D01*
X197792857Y-67772857D01*
X195964285Y-68572857D02*
X195964285Y-67944285D01*
X196021428Y-67830000D01*
X196135714Y-67772857D01*
X196364285Y-67772857D01*
X196478571Y-67830000D01*
X195964285Y-68515714D02*
X196078571Y-68572857D01*
X196364285Y-68572857D01*
X196478571Y-68515714D01*
X196535714Y-68401428D01*
X196535714Y-68287142D01*
X196478571Y-68172857D01*
X196364285Y-68115714D01*
X196078571Y-68115714D01*
X195964285Y-68058571D01*
X216735714Y-70458571D02*
X216792857Y-70515714D01*
X216964285Y-70572857D01*
X217078571Y-70572857D01*
X217250000Y-70515714D01*
X217364285Y-70401428D01*
X217421428Y-70287142D01*
X217478571Y-70058571D01*
X217478571Y-69887142D01*
X217421428Y-69658571D01*
X217364285Y-69544285D01*
X217250000Y-69430000D01*
X217078571Y-69372857D01*
X216964285Y-69372857D01*
X216792857Y-69430000D01*
X216735714Y-69487142D01*
X216221428Y-70572857D02*
X216221428Y-69772857D01*
X216221428Y-70001428D02*
X216164285Y-69887142D01*
X216107142Y-69830000D01*
X215992857Y-69772857D01*
X215878571Y-69772857D01*
X215021428Y-70515714D02*
X215135714Y-70572857D01*
X215364285Y-70572857D01*
X215478571Y-70515714D01*
X215535714Y-70401428D01*
X215535714Y-69944285D01*
X215478571Y-69830000D01*
X215364285Y-69772857D01*
X215135714Y-69772857D01*
X215021428Y-69830000D01*
X214964285Y-69944285D01*
X214964285Y-70058571D01*
X215535714Y-70172857D01*
X213935714Y-70572857D02*
X213935714Y-69944285D01*
X213992857Y-69830000D01*
X214107142Y-69772857D01*
X214335714Y-69772857D01*
X214450000Y-69830000D01*
X213935714Y-70515714D02*
X214050000Y-70572857D01*
X214335714Y-70572857D01*
X214450000Y-70515714D01*
X214507142Y-70401428D01*
X214507142Y-70287142D01*
X214450000Y-70172857D01*
X214335714Y-70115714D01*
X214050000Y-70115714D01*
X213935714Y-70058571D01*
X213535714Y-69772857D02*
X213078571Y-69772857D01*
X213364285Y-69372857D02*
X213364285Y-70401428D01*
X213307142Y-70515714D01*
X213192857Y-70572857D01*
X213078571Y-70572857D01*
X212678571Y-70572857D02*
X212678571Y-69772857D01*
X212678571Y-69372857D02*
X212735714Y-69430000D01*
X212678571Y-69487142D01*
X212621428Y-69430000D01*
X212678571Y-69372857D01*
X212678571Y-69487142D01*
X212221428Y-69772857D02*
X211935714Y-70572857D01*
X211650000Y-69772857D01*
X210735714Y-70515714D02*
X210850000Y-70572857D01*
X211078571Y-70572857D01*
X211192857Y-70515714D01*
X211250000Y-70401428D01*
X211250000Y-69944285D01*
X211192857Y-69830000D01*
X211078571Y-69772857D01*
X210850000Y-69772857D01*
X210735714Y-69830000D01*
X210678571Y-69944285D01*
X210678571Y-70058571D01*
X211250000Y-70172857D01*
X208564285Y-70458571D02*
X208621428Y-70515714D01*
X208792857Y-70572857D01*
X208907142Y-70572857D01*
X209078571Y-70515714D01*
X209192857Y-70401428D01*
X209250000Y-70287142D01*
X209307142Y-70058571D01*
X209307142Y-69887142D01*
X209250000Y-69658571D01*
X209192857Y-69544285D01*
X209078571Y-69430000D01*
X208907142Y-69372857D01*
X208792857Y-69372857D01*
X208621428Y-69430000D01*
X208564285Y-69487142D01*
X207878571Y-70572857D02*
X207992857Y-70515714D01*
X208050000Y-70458571D01*
X208107142Y-70344285D01*
X208107142Y-70001428D01*
X208050000Y-69887142D01*
X207992857Y-69830000D01*
X207878571Y-69772857D01*
X207707142Y-69772857D01*
X207592857Y-69830000D01*
X207535714Y-69887142D01*
X207478571Y-70001428D01*
X207478571Y-70344285D01*
X207535714Y-70458571D01*
X207592857Y-70515714D01*
X207707142Y-70572857D01*
X207878571Y-70572857D01*
X206964285Y-70572857D02*
X206964285Y-69772857D01*
X206964285Y-69887142D02*
X206907142Y-69830000D01*
X206792857Y-69772857D01*
X206621428Y-69772857D01*
X206507142Y-69830000D01*
X206450000Y-69944285D01*
X206450000Y-70572857D01*
X206450000Y-69944285D02*
X206392857Y-69830000D01*
X206278571Y-69772857D01*
X206107142Y-69772857D01*
X205992857Y-69830000D01*
X205935714Y-69944285D01*
X205935714Y-70572857D01*
X205364285Y-70572857D02*
X205364285Y-69772857D01*
X205364285Y-69887142D02*
X205307142Y-69830000D01*
X205192857Y-69772857D01*
X205021428Y-69772857D01*
X204907142Y-69830000D01*
X204850000Y-69944285D01*
X204850000Y-70572857D01*
X204850000Y-69944285D02*
X204792857Y-69830000D01*
X204678571Y-69772857D01*
X204507142Y-69772857D01*
X204392857Y-69830000D01*
X204335714Y-69944285D01*
X204335714Y-70572857D01*
X203592857Y-70572857D02*
X203707142Y-70515714D01*
X203764285Y-70458571D01*
X203821428Y-70344285D01*
X203821428Y-70001428D01*
X203764285Y-69887142D01*
X203707142Y-69830000D01*
X203592857Y-69772857D01*
X203421428Y-69772857D01*
X203307142Y-69830000D01*
X203250000Y-69887142D01*
X203192857Y-70001428D01*
X203192857Y-70344285D01*
X203250000Y-70458571D01*
X203307142Y-70515714D01*
X203421428Y-70572857D01*
X203592857Y-70572857D01*
X202678571Y-69772857D02*
X202678571Y-70572857D01*
X202678571Y-69887142D02*
X202621428Y-69830000D01*
X202507142Y-69772857D01*
X202335714Y-69772857D01*
X202221428Y-69830000D01*
X202164285Y-69944285D01*
X202164285Y-70572857D01*
X201650000Y-70515714D02*
X201535714Y-70572857D01*
X201307142Y-70572857D01*
X201192857Y-70515714D01*
X201135714Y-70401428D01*
X201135714Y-70344285D01*
X201192857Y-70230000D01*
X201307142Y-70172857D01*
X201478571Y-70172857D01*
X201592857Y-70115714D01*
X201650000Y-70001428D01*
X201650000Y-69944285D01*
X201592857Y-69830000D01*
X201478571Y-69772857D01*
X201307142Y-69772857D01*
X201192857Y-69830000D01*
X226307142Y-72230000D02*
X225735714Y-72230000D01*
X226421428Y-72572857D02*
X226021428Y-71372857D01*
X225621428Y-72572857D01*
X225392857Y-71772857D02*
X224935714Y-71772857D01*
X225221428Y-71372857D02*
X225221428Y-72401428D01*
X225164285Y-72515714D01*
X225050000Y-72572857D01*
X224935714Y-72572857D01*
X224707142Y-71772857D02*
X224250000Y-71772857D01*
X224535714Y-71372857D02*
X224535714Y-72401428D01*
X224478571Y-72515714D01*
X224364285Y-72572857D01*
X224250000Y-72572857D01*
X223850000Y-72572857D02*
X223850000Y-71772857D01*
X223850000Y-72001428D02*
X223792857Y-71887142D01*
X223735714Y-71830000D01*
X223621428Y-71772857D01*
X223507142Y-71772857D01*
X223107142Y-72572857D02*
X223107142Y-71772857D01*
X223107142Y-71372857D02*
X223164285Y-71430000D01*
X223107142Y-71487142D01*
X223050000Y-71430000D01*
X223107142Y-71372857D01*
X223107142Y-71487142D01*
X222535714Y-72572857D02*
X222535714Y-71372857D01*
X222535714Y-71830000D02*
X222421428Y-71772857D01*
X222192857Y-71772857D01*
X222078571Y-71830000D01*
X222021428Y-71887142D01*
X221964285Y-72001428D01*
X221964285Y-72344285D01*
X222021428Y-72458571D01*
X222078571Y-72515714D01*
X222192857Y-72572857D01*
X222421428Y-72572857D01*
X222535714Y-72515714D01*
X220935714Y-71772857D02*
X220935714Y-72572857D01*
X221450000Y-71772857D02*
X221450000Y-72401428D01*
X221392857Y-72515714D01*
X221278571Y-72572857D01*
X221107142Y-72572857D01*
X220992857Y-72515714D01*
X220935714Y-72458571D01*
X220535714Y-71772857D02*
X220078571Y-71772857D01*
X220364285Y-71372857D02*
X220364285Y-72401428D01*
X220307142Y-72515714D01*
X220192857Y-72572857D01*
X220078571Y-72572857D01*
X219678571Y-72572857D02*
X219678571Y-71772857D01*
X219678571Y-71372857D02*
X219735714Y-71430000D01*
X219678571Y-71487142D01*
X219621428Y-71430000D01*
X219678571Y-71372857D01*
X219678571Y-71487142D01*
X218935714Y-72572857D02*
X219050000Y-72515714D01*
X219107142Y-72458571D01*
X219164285Y-72344285D01*
X219164285Y-72001428D01*
X219107142Y-71887142D01*
X219050000Y-71830000D01*
X218935714Y-71772857D01*
X218764285Y-71772857D01*
X218650000Y-71830000D01*
X218592857Y-71887142D01*
X218535714Y-72001428D01*
X218535714Y-72344285D01*
X218592857Y-72458571D01*
X218650000Y-72515714D01*
X218764285Y-72572857D01*
X218935714Y-72572857D01*
X218021428Y-71772857D02*
X218021428Y-72572857D01*
X218021428Y-71887142D02*
X217964285Y-71830000D01*
X217850000Y-71772857D01*
X217678571Y-71772857D01*
X217564285Y-71830000D01*
X217507142Y-71944285D01*
X217507142Y-72572857D01*
X216021428Y-72572857D02*
X216021428Y-71372857D01*
X215335714Y-72572857D01*
X215335714Y-71372857D01*
X214592857Y-72572857D02*
X214707142Y-72515714D01*
X214764285Y-72458571D01*
X214821428Y-72344285D01*
X214821428Y-72001428D01*
X214764285Y-71887142D01*
X214707142Y-71830000D01*
X214592857Y-71772857D01*
X214421428Y-71772857D01*
X214307142Y-71830000D01*
X214250000Y-71887142D01*
X214192857Y-72001428D01*
X214192857Y-72344285D01*
X214250000Y-72458571D01*
X214307142Y-72515714D01*
X214421428Y-72572857D01*
X214592857Y-72572857D01*
X213678571Y-71772857D02*
X213678571Y-72572857D01*
X213678571Y-71887142D02*
X213621428Y-71830000D01*
X213507142Y-71772857D01*
X213335714Y-71772857D01*
X213221428Y-71830000D01*
X213164285Y-71944285D01*
X213164285Y-72572857D01*
X211907142Y-72458571D02*
X211964285Y-72515714D01*
X212135714Y-72572857D01*
X212250000Y-72572857D01*
X212421428Y-72515714D01*
X212535714Y-72401428D01*
X212592857Y-72287142D01*
X212650000Y-72058571D01*
X212650000Y-71887142D01*
X212592857Y-71658571D01*
X212535714Y-71544285D01*
X212421428Y-71430000D01*
X212250000Y-71372857D01*
X212135714Y-71372857D01*
X211964285Y-71430000D01*
X211907142Y-71487142D01*
X211221428Y-72572857D02*
X211335714Y-72515714D01*
X211392857Y-72458571D01*
X211450000Y-72344285D01*
X211450000Y-72001428D01*
X211392857Y-71887142D01*
X211335714Y-71830000D01*
X211221428Y-71772857D01*
X211050000Y-71772857D01*
X210935714Y-71830000D01*
X210878571Y-71887142D01*
X210821428Y-72001428D01*
X210821428Y-72344285D01*
X210878571Y-72458571D01*
X210935714Y-72515714D01*
X211050000Y-72572857D01*
X211221428Y-72572857D01*
X210307142Y-72572857D02*
X210307142Y-71772857D01*
X210307142Y-71887142D02*
X210250000Y-71830000D01*
X210135714Y-71772857D01*
X209964285Y-71772857D01*
X209850000Y-71830000D01*
X209792857Y-71944285D01*
X209792857Y-72572857D01*
X209792857Y-71944285D02*
X209735714Y-71830000D01*
X209621428Y-71772857D01*
X209450000Y-71772857D01*
X209335714Y-71830000D01*
X209278571Y-71944285D01*
X209278571Y-72572857D01*
X208707142Y-72572857D02*
X208707142Y-71772857D01*
X208707142Y-71887142D02*
X208650000Y-71830000D01*
X208535714Y-71772857D01*
X208364285Y-71772857D01*
X208250000Y-71830000D01*
X208192857Y-71944285D01*
X208192857Y-72572857D01*
X208192857Y-71944285D02*
X208135714Y-71830000D01*
X208021428Y-71772857D01*
X207850000Y-71772857D01*
X207735714Y-71830000D01*
X207678571Y-71944285D01*
X207678571Y-72572857D01*
X206649999Y-72515714D02*
X206764285Y-72572857D01*
X206992857Y-72572857D01*
X207107142Y-72515714D01*
X207164285Y-72401428D01*
X207164285Y-71944285D01*
X207107142Y-71830000D01*
X206992857Y-71772857D01*
X206764285Y-71772857D01*
X206649999Y-71830000D01*
X206592857Y-71944285D01*
X206592857Y-72058571D01*
X207164285Y-72172857D01*
X206078571Y-72572857D02*
X206078571Y-71772857D01*
X206078571Y-72001428D02*
X206021428Y-71887142D01*
X205964285Y-71830000D01*
X205849999Y-71772857D01*
X205735714Y-71772857D01*
X204821428Y-72515714D02*
X204935714Y-72572857D01*
X205164285Y-72572857D01*
X205278571Y-72515714D01*
X205335714Y-72458571D01*
X205392857Y-72344285D01*
X205392857Y-72001428D01*
X205335714Y-71887142D01*
X205278571Y-71830000D01*
X205164285Y-71772857D01*
X204935714Y-71772857D01*
X204821428Y-71830000D01*
X204307142Y-72572857D02*
X204307142Y-71772857D01*
X204307142Y-71372857D02*
X204364285Y-71430000D01*
X204307142Y-71487142D01*
X204249999Y-71430000D01*
X204307142Y-71372857D01*
X204307142Y-71487142D01*
X203221428Y-72572857D02*
X203221428Y-71944285D01*
X203278571Y-71830000D01*
X203392857Y-71772857D01*
X203621428Y-71772857D01*
X203735714Y-71830000D01*
X203221428Y-72515714D02*
X203335714Y-72572857D01*
X203621428Y-72572857D01*
X203735714Y-72515714D01*
X203792857Y-72401428D01*
X203792857Y-72287142D01*
X203735714Y-72172857D01*
X203621428Y-72115714D01*
X203335714Y-72115714D01*
X203221428Y-72058571D01*
X202478571Y-72572857D02*
X202592857Y-72515714D01*
X202649999Y-72401428D01*
X202649999Y-71372857D01*
X201164285Y-72515714D02*
X200992857Y-72572857D01*
X200707142Y-72572857D01*
X200592857Y-72515714D01*
X200535714Y-72458571D01*
X200478571Y-72344285D01*
X200478571Y-72230000D01*
X200535714Y-72115714D01*
X200592857Y-72058571D01*
X200707142Y-72001428D01*
X200935714Y-71944285D01*
X201049999Y-71887142D01*
X201107142Y-71830000D01*
X201164285Y-71715714D01*
X201164285Y-71601428D01*
X201107142Y-71487142D01*
X201049999Y-71430000D01*
X200935714Y-71372857D01*
X200649999Y-71372857D01*
X200478571Y-71430000D01*
X199964285Y-72572857D02*
X199964285Y-71372857D01*
X199449999Y-72572857D02*
X199449999Y-71944285D01*
X199507142Y-71830000D01*
X199621428Y-71772857D01*
X199792857Y-71772857D01*
X199907142Y-71830000D01*
X199964285Y-71887142D01*
X198364285Y-72572857D02*
X198364285Y-71944285D01*
X198421428Y-71830000D01*
X198535714Y-71772857D01*
X198764285Y-71772857D01*
X198878571Y-71830000D01*
X198364285Y-72515714D02*
X198478571Y-72572857D01*
X198764285Y-72572857D01*
X198878571Y-72515714D01*
X198935714Y-72401428D01*
X198935714Y-72287142D01*
X198878571Y-72172857D01*
X198764285Y-72115714D01*
X198478571Y-72115714D01*
X198364285Y-72058571D01*
X197792857Y-72572857D02*
X197792857Y-71772857D01*
X197792857Y-72001428D02*
X197735714Y-71887142D01*
X197678571Y-71830000D01*
X197564285Y-71772857D01*
X197449999Y-71772857D01*
X196592857Y-72515714D02*
X196707142Y-72572857D01*
X196935714Y-72572857D01*
X197049999Y-72515714D01*
X197107142Y-72401428D01*
X197107142Y-71944285D01*
X197049999Y-71830000D01*
X196935714Y-71772857D01*
X196707142Y-71772857D01*
X196592857Y-71830000D01*
X196535714Y-71944285D01*
X196535714Y-72058571D01*
X197107142Y-72172857D01*
X196078571Y-72230000D02*
X195507142Y-72230000D01*
X196192857Y-72572857D02*
X195792857Y-71372857D01*
X195392857Y-72572857D01*
X194821428Y-72572857D02*
X194935714Y-72515714D01*
X194992857Y-72401428D01*
X194992857Y-71372857D01*
X194364285Y-72572857D02*
X194364285Y-71772857D01*
X194364285Y-71372857D02*
X194421428Y-71430000D01*
X194364285Y-71487142D01*
X194307142Y-71430000D01*
X194364285Y-71372857D01*
X194364285Y-71487142D01*
X193792857Y-72572857D02*
X193792857Y-71372857D01*
X193678571Y-72115714D02*
X193335714Y-72572857D01*
X193335714Y-71772857D02*
X193792857Y-72230000D01*
X192364285Y-72515714D02*
X192478571Y-72572857D01*
X192707142Y-72572857D01*
X192821428Y-72515714D01*
X192878571Y-72401428D01*
X192878571Y-71944285D01*
X192821428Y-71830000D01*
X192707142Y-71772857D01*
X192478571Y-71772857D01*
X192364285Y-71830000D01*
X192307142Y-71944285D01*
X192307142Y-72058571D01*
X192878571Y-72172857D01*
X224335714Y-73487142D02*
X224278571Y-73430000D01*
X224164285Y-73372857D01*
X223878571Y-73372857D01*
X223764285Y-73430000D01*
X223707142Y-73487142D01*
X223650000Y-73601428D01*
X223650000Y-73715714D01*
X223707142Y-73887142D01*
X224392857Y-74572857D01*
X223650000Y-74572857D01*
X223135714Y-74458571D02*
X223078571Y-74515714D01*
X223135714Y-74572857D01*
X223192857Y-74515714D01*
X223135714Y-74458571D01*
X223135714Y-74572857D01*
X222335714Y-73372857D02*
X222221428Y-73372857D01*
X222107142Y-73430000D01*
X222050000Y-73487142D01*
X221992857Y-73601428D01*
X221935714Y-73830000D01*
X221935714Y-74115714D01*
X221992857Y-74344285D01*
X222050000Y-74458571D01*
X222107142Y-74515714D01*
X222221428Y-74572857D01*
X222335714Y-74572857D01*
X222450000Y-74515714D01*
X222507142Y-74458571D01*
X222564285Y-74344285D01*
X222621428Y-74115714D01*
X222621428Y-73830000D01*
X222564285Y-73601428D01*
X222507142Y-73487142D01*
X222450000Y-73430000D01*
X222335714Y-73372857D01*
X220507142Y-73372857D02*
X220507142Y-74344285D01*
X220450000Y-74458571D01*
X220392857Y-74515714D01*
X220278571Y-74572857D01*
X220050000Y-74572857D01*
X219935714Y-74515714D01*
X219878571Y-74458571D01*
X219821428Y-74344285D01*
X219821428Y-73372857D01*
X219250000Y-74572857D02*
X219250000Y-73372857D01*
X218564285Y-74572857D02*
X219078571Y-73887142D01*
X218564285Y-73372857D02*
X219250000Y-74058571D01*
X218050000Y-74458571D02*
X217992857Y-74515714D01*
X218050000Y-74572857D01*
X218107142Y-74515714D01*
X218050000Y-74458571D01*
X218050000Y-74572857D01*
X218050000Y-73830000D02*
X217992857Y-73887142D01*
X218050000Y-73944285D01*
X218107142Y-73887142D01*
X218050000Y-73830000D01*
X218050000Y-73944285D01*
X216564285Y-73944285D02*
X216164285Y-73944285D01*
X215992857Y-74572857D02*
X216564285Y-74572857D01*
X216564285Y-73372857D01*
X215992857Y-73372857D01*
X215478571Y-73772857D02*
X215478571Y-74572857D01*
X215478571Y-73887142D02*
X215421428Y-73830000D01*
X215307142Y-73772857D01*
X215135714Y-73772857D01*
X215021428Y-73830000D01*
X214964285Y-73944285D01*
X214964285Y-74572857D01*
X213878571Y-73772857D02*
X213878571Y-74744285D01*
X213935714Y-74858571D01*
X213992857Y-74915714D01*
X214107142Y-74972857D01*
X214278571Y-74972857D01*
X214392857Y-74915714D01*
X213878571Y-74515714D02*
X213992857Y-74572857D01*
X214221428Y-74572857D01*
X214335714Y-74515714D01*
X214392857Y-74458571D01*
X214450000Y-74344285D01*
X214450000Y-74001428D01*
X214392857Y-73887142D01*
X214335714Y-73830000D01*
X214221428Y-73772857D01*
X213992857Y-73772857D01*
X213878571Y-73830000D01*
X213135714Y-74572857D02*
X213250000Y-74515714D01*
X213307142Y-74401428D01*
X213307142Y-73372857D01*
X212164285Y-74572857D02*
X212164285Y-73944285D01*
X212221428Y-73830000D01*
X212335714Y-73772857D01*
X212564285Y-73772857D01*
X212678571Y-73830000D01*
X212164285Y-74515714D02*
X212278571Y-74572857D01*
X212564285Y-74572857D01*
X212678571Y-74515714D01*
X212735714Y-74401428D01*
X212735714Y-74287142D01*
X212678571Y-74172857D01*
X212564285Y-74115714D01*
X212278571Y-74115714D01*
X212164285Y-74058571D01*
X211592857Y-73772857D02*
X211592857Y-74572857D01*
X211592857Y-73887142D02*
X211535714Y-73830000D01*
X211421428Y-73772857D01*
X211250000Y-73772857D01*
X211135714Y-73830000D01*
X211078571Y-73944285D01*
X211078571Y-74572857D01*
X209992857Y-74572857D02*
X209992857Y-73372857D01*
X209992857Y-74515714D02*
X210107142Y-74572857D01*
X210335714Y-74572857D01*
X210450000Y-74515714D01*
X210507142Y-74458571D01*
X210564285Y-74344285D01*
X210564285Y-74001428D01*
X210507142Y-73887142D01*
X210450000Y-73830000D01*
X210335714Y-73772857D01*
X210107142Y-73772857D01*
X209992857Y-73830000D01*
X207535714Y-74572857D02*
X207592857Y-74572857D01*
X207707142Y-74515714D01*
X207878571Y-74344285D01*
X208164285Y-74001428D01*
X208278571Y-73830000D01*
X208335714Y-73658571D01*
X208335714Y-73544285D01*
X208278571Y-73430000D01*
X208164285Y-73372857D01*
X208107142Y-73372857D01*
X207992857Y-73430000D01*
X207935714Y-73544285D01*
X207935714Y-73601428D01*
X207992857Y-73715714D01*
X208049999Y-73772857D01*
X208392857Y-74001428D01*
X208449999Y-74058571D01*
X208507142Y-74172857D01*
X208507142Y-74344285D01*
X208449999Y-74458571D01*
X208392857Y-74515714D01*
X208278571Y-74572857D01*
X208107142Y-74572857D01*
X207992857Y-74515714D01*
X207935714Y-74458571D01*
X207764285Y-74230000D01*
X207707142Y-74058571D01*
X207707142Y-73944285D01*
X206221428Y-73372857D02*
X205935714Y-74572857D01*
X205707142Y-73715714D01*
X205478571Y-74572857D01*
X205192857Y-73372857D01*
X204221428Y-74572857D02*
X204221428Y-73944285D01*
X204278571Y-73830000D01*
X204392857Y-73772857D01*
X204621428Y-73772857D01*
X204735714Y-73830000D01*
X204221428Y-74515714D02*
X204335714Y-74572857D01*
X204621428Y-74572857D01*
X204735714Y-74515714D01*
X204792857Y-74401428D01*
X204792857Y-74287142D01*
X204735714Y-74172857D01*
X204621428Y-74115714D01*
X204335714Y-74115714D01*
X204221428Y-74058571D01*
X203478571Y-74572857D02*
X203592857Y-74515714D01*
X203650000Y-74401428D01*
X203650000Y-73372857D01*
X202564285Y-74515714D02*
X202678571Y-74572857D01*
X202907142Y-74572857D01*
X203021428Y-74515714D01*
X203078571Y-74401428D01*
X203078571Y-73944285D01*
X203021428Y-73830000D01*
X202907142Y-73772857D01*
X202678571Y-73772857D01*
X202564285Y-73830000D01*
X202507142Y-73944285D01*
X202507142Y-74058571D01*
X203078571Y-74172857D01*
X202049999Y-74515714D02*
X201935714Y-74572857D01*
X201707142Y-74572857D01*
X201592857Y-74515714D01*
X201535714Y-74401428D01*
X201535714Y-74344285D01*
X201592857Y-74230000D01*
X201707142Y-74172857D01*
X201878571Y-74172857D01*
X201992857Y-74115714D01*
X202049999Y-74001428D01*
X202049999Y-73944285D01*
X201992857Y-73830000D01*
X201878571Y-73772857D01*
X201707142Y-73772857D01*
X201592857Y-73830000D01*
X199535714Y-74572857D02*
X200107142Y-74572857D01*
X200107142Y-73372857D01*
X199135714Y-74572857D02*
X199135714Y-73772857D01*
X199135714Y-73372857D02*
X199192857Y-73430000D01*
X199135714Y-73487142D01*
X199078571Y-73430000D01*
X199135714Y-73372857D01*
X199135714Y-73487142D01*
X198049999Y-74515714D02*
X198164285Y-74572857D01*
X198392857Y-74572857D01*
X198507142Y-74515714D01*
X198564285Y-74458571D01*
X198621428Y-74344285D01*
X198621428Y-74001428D01*
X198564285Y-73887142D01*
X198507142Y-73830000D01*
X198392857Y-73772857D01*
X198164285Y-73772857D01*
X198049999Y-73830000D01*
X197078571Y-74515714D02*
X197192857Y-74572857D01*
X197421428Y-74572857D01*
X197535714Y-74515714D01*
X197592857Y-74401428D01*
X197592857Y-73944285D01*
X197535714Y-73830000D01*
X197421428Y-73772857D01*
X197192857Y-73772857D01*
X197078571Y-73830000D01*
X197021428Y-73944285D01*
X197021428Y-74058571D01*
X197592857Y-74172857D01*
X196507142Y-73772857D02*
X196507142Y-74572857D01*
X196507142Y-73887142D02*
X196449999Y-73830000D01*
X196335714Y-73772857D01*
X196164285Y-73772857D01*
X196049999Y-73830000D01*
X195992857Y-73944285D01*
X195992857Y-74572857D01*
X195478571Y-74515714D02*
X195364285Y-74572857D01*
X195135714Y-74572857D01*
X195021428Y-74515714D01*
X194964285Y-74401428D01*
X194964285Y-74344285D01*
X195021428Y-74230000D01*
X195135714Y-74172857D01*
X195307142Y-74172857D01*
X195421428Y-74115714D01*
X195478571Y-74001428D01*
X195478571Y-73944285D01*
X195421428Y-73830000D01*
X195307142Y-73772857D01*
X195135714Y-73772857D01*
X195021428Y-73830000D01*
X193992857Y-74515714D02*
X194107142Y-74572857D01*
X194335714Y-74572857D01*
X194449999Y-74515714D01*
X194507142Y-74401428D01*
X194507142Y-73944285D01*
X194449999Y-73830000D01*
X194335714Y-73772857D01*
X194107142Y-73772857D01*
X193992857Y-73830000D01*
X193935714Y-73944285D01*
X193935714Y-74058571D01*
X194507142Y-74172857D01*
X193421428Y-74458571D02*
X193364285Y-74515714D01*
X193421428Y-74572857D01*
X193478571Y-74515714D01*
X193421428Y-74458571D01*
X193421428Y-74572857D01*
X177644285Y-65372857D02*
X176958571Y-65372857D01*
X177301428Y-66572857D02*
X177301428Y-65372857D01*
X176558571Y-66572857D02*
X176558571Y-65372857D01*
X176044285Y-66572857D02*
X176044285Y-65944285D01*
X176101428Y-65830000D01*
X176215714Y-65772857D01*
X176387142Y-65772857D01*
X176501428Y-65830000D01*
X176558571Y-65887142D01*
X175015714Y-66515714D02*
X175130000Y-66572857D01*
X175358571Y-66572857D01*
X175472857Y-66515714D01*
X175530000Y-66401428D01*
X175530000Y-65944285D01*
X175472857Y-65830000D01*
X175358571Y-65772857D01*
X175130000Y-65772857D01*
X175015714Y-65830000D01*
X174958571Y-65944285D01*
X174958571Y-66058571D01*
X175530000Y-66172857D01*
X173530000Y-66572857D02*
X173530000Y-65372857D01*
X172958571Y-66572857D02*
X172958571Y-65372857D01*
X172272857Y-66572857D01*
X172272857Y-65372857D01*
X171758571Y-66230000D02*
X171187142Y-66230000D01*
X171872857Y-66572857D02*
X171472857Y-65372857D01*
X171072857Y-66572857D01*
X170730000Y-65487142D02*
X170672857Y-65430000D01*
X170558571Y-65372857D01*
X170272857Y-65372857D01*
X170158571Y-65430000D01*
X170101428Y-65487142D01*
X170044285Y-65601428D01*
X170044285Y-65715714D01*
X170101428Y-65887142D01*
X170787142Y-66572857D01*
X170044285Y-66572857D01*
X169587142Y-65487142D02*
X169530000Y-65430000D01*
X169415714Y-65372857D01*
X169130000Y-65372857D01*
X169015714Y-65430000D01*
X168958571Y-65487142D01*
X168901428Y-65601428D01*
X168901428Y-65715714D01*
X168958571Y-65887142D01*
X169644285Y-66572857D01*
X168901428Y-66572857D01*
X168215714Y-65887142D02*
X168330000Y-65830000D01*
X168387142Y-65772857D01*
X168444285Y-65658571D01*
X168444285Y-65601428D01*
X168387142Y-65487142D01*
X168330000Y-65430000D01*
X168215714Y-65372857D01*
X167987142Y-65372857D01*
X167872857Y-65430000D01*
X167815714Y-65487142D01*
X167758571Y-65601428D01*
X167758571Y-65658571D01*
X167815714Y-65772857D01*
X167872857Y-65830000D01*
X167987142Y-65887142D01*
X168215714Y-65887142D01*
X168330000Y-65944285D01*
X168387142Y-66001428D01*
X168444285Y-66115714D01*
X168444285Y-66344285D01*
X168387142Y-66458571D01*
X168330000Y-66515714D01*
X168215714Y-66572857D01*
X167987142Y-66572857D01*
X167872857Y-66515714D01*
X167815714Y-66458571D01*
X167758571Y-66344285D01*
X167758571Y-66115714D01*
X167815714Y-66001428D01*
X167872857Y-65944285D01*
X167987142Y-65887142D01*
X167244285Y-66115714D02*
X166330000Y-66115714D01*
X164958571Y-66687142D02*
X165072857Y-66630000D01*
X165187142Y-66515714D01*
X165358571Y-66344285D01*
X165472857Y-66287142D01*
X165587142Y-66287142D01*
X165530000Y-66572857D02*
X165644285Y-66515714D01*
X165758571Y-66401428D01*
X165815714Y-66172857D01*
X165815714Y-65772857D01*
X165758571Y-65544285D01*
X165644285Y-65430000D01*
X165530000Y-65372857D01*
X165301428Y-65372857D01*
X165187142Y-65430000D01*
X165072857Y-65544285D01*
X165015714Y-65772857D01*
X165015714Y-66172857D01*
X165072857Y-66401428D01*
X165187142Y-66515714D01*
X165301428Y-66572857D01*
X165530000Y-66572857D01*
X163872857Y-66572857D02*
X164558571Y-66572857D01*
X164215714Y-66572857D02*
X164215714Y-65372857D01*
X164330000Y-65544285D01*
X164444285Y-65658571D01*
X164558571Y-65715714D01*
X162444285Y-66572857D02*
X162444285Y-65772857D01*
X162444285Y-65372857D02*
X162501428Y-65430000D01*
X162444285Y-65487142D01*
X162387142Y-65430000D01*
X162444285Y-65372857D01*
X162444285Y-65487142D01*
X161930000Y-66515714D02*
X161815714Y-66572857D01*
X161587142Y-66572857D01*
X161472857Y-66515714D01*
X161415714Y-66401428D01*
X161415714Y-66344285D01*
X161472857Y-66230000D01*
X161587142Y-66172857D01*
X161758571Y-66172857D01*
X161872857Y-66115714D01*
X161930000Y-66001428D01*
X161930000Y-65944285D01*
X161872857Y-65830000D01*
X161758571Y-65772857D01*
X161587142Y-65772857D01*
X161472857Y-65830000D01*
X159472857Y-66572857D02*
X159472857Y-65944285D01*
X159530000Y-65830000D01*
X159644285Y-65772857D01*
X159872857Y-65772857D01*
X159987142Y-65830000D01*
X159472857Y-66515714D02*
X159587142Y-66572857D01*
X159872857Y-66572857D01*
X159987142Y-66515714D01*
X160044285Y-66401428D01*
X160044285Y-66287142D01*
X159987142Y-66172857D01*
X159872857Y-66115714D01*
X159587142Y-66115714D01*
X159472857Y-66058571D01*
X158901428Y-65772857D02*
X158901428Y-66572857D01*
X158901428Y-65887142D02*
X158844285Y-65830000D01*
X158730000Y-65772857D01*
X158558571Y-65772857D01*
X158444285Y-65830000D01*
X158387142Y-65944285D01*
X158387142Y-66572857D01*
X156387142Y-65772857D02*
X156387142Y-66572857D01*
X156901428Y-65772857D02*
X156901428Y-66401428D01*
X156844285Y-66515714D01*
X156730000Y-66572857D01*
X156558571Y-66572857D01*
X156444285Y-66515714D01*
X156387142Y-66458571D01*
X155644285Y-66572857D02*
X155758571Y-66515714D01*
X155815714Y-66401428D01*
X155815714Y-65372857D01*
X155358571Y-65772857D02*
X154901428Y-65772857D01*
X155187142Y-65372857D02*
X155187142Y-66401428D01*
X155130000Y-66515714D01*
X155015714Y-66572857D01*
X154901428Y-66572857D01*
X154501428Y-66572857D02*
X154501428Y-65772857D01*
X154501428Y-66001428D02*
X154444285Y-65887142D01*
X154387142Y-65830000D01*
X154272857Y-65772857D01*
X154158571Y-65772857D01*
X153244285Y-66572857D02*
X153244285Y-65944285D01*
X153301428Y-65830000D01*
X153415714Y-65772857D01*
X153644285Y-65772857D01*
X153758571Y-65830000D01*
X153244285Y-66515714D02*
X153358571Y-66572857D01*
X153644285Y-66572857D01*
X153758571Y-66515714D01*
X153815714Y-66401428D01*
X153815714Y-66287142D01*
X153758571Y-66172857D01*
X153644285Y-66115714D01*
X153358571Y-66115714D01*
X153244285Y-66058571D01*
X152672857Y-66115714D02*
X151758571Y-66115714D01*
X151187142Y-65772857D02*
X151187142Y-66972857D01*
X151187142Y-65830000D02*
X151072857Y-65772857D01*
X150844285Y-65772857D01*
X150730000Y-65830000D01*
X150672857Y-65887142D01*
X150615714Y-66001428D01*
X150615714Y-66344285D01*
X150672857Y-66458571D01*
X150730000Y-66515714D01*
X150844285Y-66572857D01*
X151072857Y-66572857D01*
X151187142Y-66515714D01*
X150101428Y-66572857D02*
X150101428Y-65772857D01*
X150101428Y-66001428D02*
X150044285Y-65887142D01*
X149987142Y-65830000D01*
X149872857Y-65772857D01*
X149758571Y-65772857D01*
X148901428Y-66515714D02*
X149015714Y-66572857D01*
X149244285Y-66572857D01*
X149358571Y-66515714D01*
X149415714Y-66401428D01*
X149415714Y-65944285D01*
X149358571Y-65830000D01*
X149244285Y-65772857D01*
X149015714Y-65772857D01*
X148901428Y-65830000D01*
X148844285Y-65944285D01*
X148844285Y-66058571D01*
X149415714Y-66172857D01*
X147815714Y-66515714D02*
X147930000Y-66572857D01*
X148158571Y-66572857D01*
X148272857Y-66515714D01*
X148330000Y-66458571D01*
X148387142Y-66344285D01*
X148387142Y-66001428D01*
X148330000Y-65887142D01*
X148272857Y-65830000D01*
X148158571Y-65772857D01*
X147930000Y-65772857D01*
X147815714Y-65830000D01*
X147301428Y-66572857D02*
X147301428Y-65772857D01*
X147301428Y-65372857D02*
X147358571Y-65430000D01*
X147301428Y-65487142D01*
X147244285Y-65430000D01*
X147301428Y-65372857D01*
X147301428Y-65487142D01*
X146787142Y-66515714D02*
X146672857Y-66572857D01*
X146444285Y-66572857D01*
X146330000Y-66515714D01*
X146272857Y-66401428D01*
X146272857Y-66344285D01*
X146330000Y-66230000D01*
X146444285Y-66172857D01*
X146615714Y-66172857D01*
X146730000Y-66115714D01*
X146787142Y-66001428D01*
X146787142Y-65944285D01*
X146730000Y-65830000D01*
X146615714Y-65772857D01*
X146444285Y-65772857D01*
X146330000Y-65830000D01*
X145301428Y-66515714D02*
X145415714Y-66572857D01*
X145644285Y-66572857D01*
X145758571Y-66515714D01*
X145815714Y-66401428D01*
X145815714Y-65944285D01*
X145758571Y-65830000D01*
X145644285Y-65772857D01*
X145415714Y-65772857D01*
X145301428Y-65830000D01*
X145244285Y-65944285D01*
X145244285Y-66058571D01*
X145815714Y-66172857D01*
X176158571Y-68572857D02*
X176158571Y-67372857D01*
X176158571Y-68515714D02*
X176272857Y-68572857D01*
X176501428Y-68572857D01*
X176615714Y-68515714D01*
X176672857Y-68458571D01*
X176730000Y-68344285D01*
X176730000Y-68001428D01*
X176672857Y-67887142D01*
X176615714Y-67830000D01*
X176501428Y-67772857D01*
X176272857Y-67772857D01*
X176158571Y-67830000D01*
X175587142Y-68572857D02*
X175587142Y-67772857D01*
X175587142Y-67372857D02*
X175644285Y-67430000D01*
X175587142Y-67487142D01*
X175530000Y-67430000D01*
X175587142Y-67372857D01*
X175587142Y-67487142D01*
X174501428Y-67772857D02*
X174501428Y-68744285D01*
X174558571Y-68858571D01*
X174615714Y-68915714D01*
X174730000Y-68972857D01*
X174901428Y-68972857D01*
X175015714Y-68915714D01*
X174501428Y-68515714D02*
X174615714Y-68572857D01*
X174844285Y-68572857D01*
X174958571Y-68515714D01*
X175015714Y-68458571D01*
X175072857Y-68344285D01*
X175072857Y-68001428D01*
X175015714Y-67887142D01*
X174958571Y-67830000D01*
X174844285Y-67772857D01*
X174615714Y-67772857D01*
X174501428Y-67830000D01*
X173930000Y-68572857D02*
X173930000Y-67772857D01*
X173930000Y-67372857D02*
X173987142Y-67430000D01*
X173930000Y-67487142D01*
X173872857Y-67430000D01*
X173930000Y-67372857D01*
X173930000Y-67487142D01*
X173530000Y-67772857D02*
X173072857Y-67772857D01*
X173358571Y-67372857D02*
X173358571Y-68401428D01*
X173301428Y-68515714D01*
X173187142Y-68572857D01*
X173072857Y-68572857D01*
X172158571Y-68572857D02*
X172158571Y-67944285D01*
X172215714Y-67830000D01*
X172330000Y-67772857D01*
X172558571Y-67772857D01*
X172672857Y-67830000D01*
X172158571Y-68515714D02*
X172272857Y-68572857D01*
X172558571Y-68572857D01*
X172672857Y-68515714D01*
X172730000Y-68401428D01*
X172730000Y-68287142D01*
X172672857Y-68172857D01*
X172558571Y-68115714D01*
X172272857Y-68115714D01*
X172158571Y-68058571D01*
X171415714Y-68572857D02*
X171530000Y-68515714D01*
X171587142Y-68401428D01*
X171587142Y-67372857D01*
X170044285Y-67772857D02*
X170044285Y-68972857D01*
X170044285Y-67830000D02*
X169930000Y-67772857D01*
X169701428Y-67772857D01*
X169587142Y-67830000D01*
X169530000Y-67887142D01*
X169472857Y-68001428D01*
X169472857Y-68344285D01*
X169530000Y-68458571D01*
X169587142Y-68515714D01*
X169701428Y-68572857D01*
X169930000Y-68572857D01*
X170044285Y-68515714D01*
X168787142Y-68572857D02*
X168901428Y-68515714D01*
X168958571Y-68458571D01*
X169015714Y-68344285D01*
X169015714Y-68001428D01*
X168958571Y-67887142D01*
X168901428Y-67830000D01*
X168787142Y-67772857D01*
X168615714Y-67772857D01*
X168501428Y-67830000D01*
X168444285Y-67887142D01*
X168387142Y-68001428D01*
X168387142Y-68344285D01*
X168444285Y-68458571D01*
X168501428Y-68515714D01*
X168615714Y-68572857D01*
X168787142Y-68572857D01*
X167987142Y-67772857D02*
X167758571Y-68572857D01*
X167530000Y-68001428D01*
X167301428Y-68572857D01*
X167072857Y-67772857D01*
X166158571Y-68515714D02*
X166272857Y-68572857D01*
X166501428Y-68572857D01*
X166615714Y-68515714D01*
X166672857Y-68401428D01*
X166672857Y-67944285D01*
X166615714Y-67830000D01*
X166501428Y-67772857D01*
X166272857Y-67772857D01*
X166158571Y-67830000D01*
X166101428Y-67944285D01*
X166101428Y-68058571D01*
X166672857Y-68172857D01*
X165587142Y-68572857D02*
X165587142Y-67772857D01*
X165587142Y-68001428D02*
X165530000Y-67887142D01*
X165472857Y-67830000D01*
X165358571Y-67772857D01*
X165244285Y-67772857D01*
X163930000Y-68572857D02*
X163930000Y-67772857D01*
X163930000Y-67887142D02*
X163872857Y-67830000D01*
X163758571Y-67772857D01*
X163587142Y-67772857D01*
X163472857Y-67830000D01*
X163415714Y-67944285D01*
X163415714Y-68572857D01*
X163415714Y-67944285D02*
X163358571Y-67830000D01*
X163244285Y-67772857D01*
X163072857Y-67772857D01*
X162958571Y-67830000D01*
X162901428Y-67944285D01*
X162901428Y-68572857D01*
X162158571Y-68572857D02*
X162272857Y-68515714D01*
X162330000Y-68458571D01*
X162387142Y-68344285D01*
X162387142Y-68001428D01*
X162330000Y-67887142D01*
X162272857Y-67830000D01*
X162158571Y-67772857D01*
X161987142Y-67772857D01*
X161872857Y-67830000D01*
X161815714Y-67887142D01*
X161758571Y-68001428D01*
X161758571Y-68344285D01*
X161815714Y-68458571D01*
X161872857Y-68515714D01*
X161987142Y-68572857D01*
X162158571Y-68572857D01*
X161244285Y-67772857D02*
X161244285Y-68572857D01*
X161244285Y-67887142D02*
X161187142Y-67830000D01*
X161072857Y-67772857D01*
X160901428Y-67772857D01*
X160787142Y-67830000D01*
X160730000Y-67944285D01*
X160730000Y-68572857D01*
X160158571Y-68572857D02*
X160158571Y-67772857D01*
X160158571Y-67372857D02*
X160215714Y-67430000D01*
X160158571Y-67487142D01*
X160101428Y-67430000D01*
X160158571Y-67372857D01*
X160158571Y-67487142D01*
X159758571Y-67772857D02*
X159301428Y-67772857D01*
X159587142Y-67372857D02*
X159587142Y-68401428D01*
X159530000Y-68515714D01*
X159415714Y-68572857D01*
X159301428Y-68572857D01*
X158730000Y-68572857D02*
X158844285Y-68515714D01*
X158901428Y-68458571D01*
X158958571Y-68344285D01*
X158958571Y-68001428D01*
X158901428Y-67887142D01*
X158844285Y-67830000D01*
X158730000Y-67772857D01*
X158558571Y-67772857D01*
X158444285Y-67830000D01*
X158387142Y-67887142D01*
X158330000Y-68001428D01*
X158330000Y-68344285D01*
X158387142Y-68458571D01*
X158444285Y-68515714D01*
X158558571Y-68572857D01*
X158730000Y-68572857D01*
X157815714Y-68572857D02*
X157815714Y-67772857D01*
X157815714Y-68001428D02*
X157758571Y-67887142D01*
X157701428Y-67830000D01*
X157587142Y-67772857D01*
X157472857Y-67772857D01*
X156272857Y-67772857D02*
X156044285Y-68572857D01*
X155815714Y-68001428D01*
X155587142Y-68572857D01*
X155358571Y-67772857D01*
X154901428Y-68572857D02*
X154901428Y-67772857D01*
X154901428Y-67372857D02*
X154958571Y-67430000D01*
X154901428Y-67487142D01*
X154844285Y-67430000D01*
X154901428Y-67372857D01*
X154901428Y-67487142D01*
X154501428Y-67772857D02*
X154044285Y-67772857D01*
X154330000Y-67372857D02*
X154330000Y-68401428D01*
X154272857Y-68515714D01*
X154158571Y-68572857D01*
X154044285Y-68572857D01*
X153644285Y-68572857D02*
X153644285Y-67372857D01*
X153130000Y-68572857D02*
X153130000Y-67944285D01*
X153187142Y-67830000D01*
X153301428Y-67772857D01*
X153472857Y-67772857D01*
X153587142Y-67830000D01*
X153644285Y-67887142D01*
X151701428Y-67487142D02*
X151644285Y-67430000D01*
X151530000Y-67372857D01*
X151244285Y-67372857D01*
X151130000Y-67430000D01*
X151072857Y-67487142D01*
X151015714Y-67601428D01*
X151015714Y-67715714D01*
X151072857Y-67887142D01*
X151758571Y-68572857D01*
X151015714Y-68572857D01*
X150272857Y-67372857D02*
X150158571Y-67372857D01*
X150044285Y-67430000D01*
X149987142Y-67487142D01*
X149930000Y-67601428D01*
X149872857Y-67830000D01*
X149872857Y-68115714D01*
X149930000Y-68344285D01*
X149987142Y-68458571D01*
X150044285Y-68515714D01*
X150158571Y-68572857D01*
X150272857Y-68572857D01*
X150387142Y-68515714D01*
X150444285Y-68458571D01*
X150501428Y-68344285D01*
X150558571Y-68115714D01*
X150558571Y-67830000D01*
X150501428Y-67601428D01*
X150444285Y-67487142D01*
X150387142Y-67430000D01*
X150272857Y-67372857D01*
X149358571Y-68115714D02*
X148444285Y-68115714D01*
X147872857Y-68572857D02*
X147872857Y-67372857D01*
X147872857Y-67830000D02*
X147758571Y-67772857D01*
X147530000Y-67772857D01*
X147415714Y-67830000D01*
X147358571Y-67887142D01*
X147301428Y-68001428D01*
X147301428Y-68344285D01*
X147358571Y-68458571D01*
X147415714Y-68515714D01*
X147530000Y-68572857D01*
X147758571Y-68572857D01*
X147872857Y-68515714D01*
X146787142Y-68572857D02*
X146787142Y-67772857D01*
X146787142Y-67372857D02*
X146844285Y-67430000D01*
X146787142Y-67487142D01*
X146730000Y-67430000D01*
X146787142Y-67372857D01*
X146787142Y-67487142D01*
X146387142Y-67772857D02*
X145930000Y-67772857D01*
X146215714Y-67372857D02*
X146215714Y-68401428D01*
X146158571Y-68515714D01*
X146044285Y-68572857D01*
X145930000Y-68572857D01*
X173530000Y-70572857D02*
X173530000Y-69372857D01*
X173530000Y-70515714D02*
X173644285Y-70572857D01*
X173872857Y-70572857D01*
X173987142Y-70515714D01*
X174044285Y-70458571D01*
X174101428Y-70344285D01*
X174101428Y-70001428D01*
X174044285Y-69887142D01*
X173987142Y-69830000D01*
X173872857Y-69772857D01*
X173644285Y-69772857D01*
X173530000Y-69830000D01*
X172501428Y-70515714D02*
X172615714Y-70572857D01*
X172844285Y-70572857D01*
X172958571Y-70515714D01*
X173015714Y-70401428D01*
X173015714Y-69944285D01*
X172958571Y-69830000D01*
X172844285Y-69772857D01*
X172615714Y-69772857D01*
X172501428Y-69830000D01*
X172444285Y-69944285D01*
X172444285Y-70058571D01*
X173015714Y-70172857D01*
X171758571Y-70572857D02*
X171872857Y-70515714D01*
X171930000Y-70401428D01*
X171930000Y-69372857D01*
X171472857Y-69772857D02*
X171015714Y-69772857D01*
X171301428Y-69372857D02*
X171301428Y-70401428D01*
X171244285Y-70515714D01*
X171130000Y-70572857D01*
X171015714Y-70572857D01*
X170101428Y-70572857D02*
X170101428Y-69944285D01*
X170158571Y-69830000D01*
X170272857Y-69772857D01*
X170501428Y-69772857D01*
X170615714Y-69830000D01*
X170101428Y-70515714D02*
X170215714Y-70572857D01*
X170501428Y-70572857D01*
X170615714Y-70515714D01*
X170672857Y-70401428D01*
X170672857Y-70287142D01*
X170615714Y-70172857D01*
X170501428Y-70115714D01*
X170215714Y-70115714D01*
X170101428Y-70058571D01*
X169530000Y-70115714D02*
X168615714Y-70115714D01*
X168101428Y-70515714D02*
X167987142Y-70572857D01*
X167758571Y-70572857D01*
X167644285Y-70515714D01*
X167587142Y-70401428D01*
X167587142Y-70344285D01*
X167644285Y-70230000D01*
X167758571Y-70172857D01*
X167930000Y-70172857D01*
X168044285Y-70115714D01*
X168101428Y-70001428D01*
X168101428Y-69944285D01*
X168044285Y-69830000D01*
X167930000Y-69772857D01*
X167758571Y-69772857D01*
X167644285Y-69830000D01*
X167072857Y-70572857D02*
X167072857Y-69772857D01*
X167072857Y-69372857D02*
X167130000Y-69430000D01*
X167072857Y-69487142D01*
X167015714Y-69430000D01*
X167072857Y-69372857D01*
X167072857Y-69487142D01*
X165987142Y-69772857D02*
X165987142Y-70744285D01*
X166044285Y-70858571D01*
X166101428Y-70915714D01*
X166215714Y-70972857D01*
X166387142Y-70972857D01*
X166501428Y-70915714D01*
X165987142Y-70515714D02*
X166101428Y-70572857D01*
X166330000Y-70572857D01*
X166444285Y-70515714D01*
X166501428Y-70458571D01*
X166558571Y-70344285D01*
X166558571Y-70001428D01*
X166501428Y-69887142D01*
X166444285Y-69830000D01*
X166330000Y-69772857D01*
X166101428Y-69772857D01*
X165987142Y-69830000D01*
X165415714Y-70572857D02*
X165415714Y-69772857D01*
X165415714Y-69887142D02*
X165358571Y-69830000D01*
X165244285Y-69772857D01*
X165072857Y-69772857D01*
X164958571Y-69830000D01*
X164901428Y-69944285D01*
X164901428Y-70572857D01*
X164901428Y-69944285D02*
X164844285Y-69830000D01*
X164730000Y-69772857D01*
X164558571Y-69772857D01*
X164444285Y-69830000D01*
X164387142Y-69944285D01*
X164387142Y-70572857D01*
X163301428Y-70572857D02*
X163301428Y-69944285D01*
X163358571Y-69830000D01*
X163472857Y-69772857D01*
X163701428Y-69772857D01*
X163815714Y-69830000D01*
X163301428Y-70515714D02*
X163415714Y-70572857D01*
X163701428Y-70572857D01*
X163815714Y-70515714D01*
X163872857Y-70401428D01*
X163872857Y-70287142D01*
X163815714Y-70172857D01*
X163701428Y-70115714D01*
X163415714Y-70115714D01*
X163301428Y-70058571D01*
X161872857Y-70230000D02*
X161301428Y-70230000D01*
X161987142Y-70572857D02*
X161587142Y-69372857D01*
X161187142Y-70572857D01*
X160787142Y-70572857D02*
X160787142Y-69372857D01*
X160501428Y-69372857D01*
X160330000Y-69430000D01*
X160215714Y-69544285D01*
X160158571Y-69658571D01*
X160101428Y-69887142D01*
X160101428Y-70058571D01*
X160158571Y-70287142D01*
X160215714Y-70401428D01*
X160330000Y-70515714D01*
X160501428Y-70572857D01*
X160787142Y-70572857D01*
X158901428Y-70458571D02*
X158958571Y-70515714D01*
X159130000Y-70572857D01*
X159244285Y-70572857D01*
X159415714Y-70515714D01*
X159530000Y-70401428D01*
X159587142Y-70287142D01*
X159644285Y-70058571D01*
X159644285Y-69887142D01*
X159587142Y-69658571D01*
X159530000Y-69544285D01*
X159415714Y-69430000D01*
X159244285Y-69372857D01*
X159130000Y-69372857D01*
X158958571Y-69430000D01*
X158901428Y-69487142D01*
X157530000Y-70515714D02*
X157415714Y-70572857D01*
X157187142Y-70572857D01*
X157072857Y-70515714D01*
X157015714Y-70401428D01*
X157015714Y-70344285D01*
X157072857Y-70230000D01*
X157187142Y-70172857D01*
X157358571Y-70172857D01*
X157472857Y-70115714D01*
X157530000Y-70001428D01*
X157530000Y-69944285D01*
X157472857Y-69830000D01*
X157358571Y-69772857D01*
X157187142Y-69772857D01*
X157072857Y-69830000D01*
X156501428Y-69772857D02*
X156501428Y-70972857D01*
X156501428Y-69830000D02*
X156387142Y-69772857D01*
X156158571Y-69772857D01*
X156044285Y-69830000D01*
X155987142Y-69887142D01*
X155930000Y-70001428D01*
X155930000Y-70344285D01*
X155987142Y-70458571D01*
X156044285Y-70515714D01*
X156158571Y-70572857D01*
X156387142Y-70572857D01*
X156501428Y-70515714D01*
X154958571Y-70515714D02*
X155072857Y-70572857D01*
X155301428Y-70572857D01*
X155415714Y-70515714D01*
X155472857Y-70401428D01*
X155472857Y-69944285D01*
X155415714Y-69830000D01*
X155301428Y-69772857D01*
X155072857Y-69772857D01*
X154958571Y-69830000D01*
X154901428Y-69944285D01*
X154901428Y-70058571D01*
X155472857Y-70172857D01*
X153872857Y-70515714D02*
X153987142Y-70572857D01*
X154215714Y-70572857D01*
X154330000Y-70515714D01*
X154387142Y-70458571D01*
X154444285Y-70344285D01*
X154444285Y-70001428D01*
X154387142Y-69887142D01*
X154330000Y-69830000D01*
X154215714Y-69772857D01*
X153987142Y-69772857D01*
X153872857Y-69830000D01*
X153358571Y-70572857D02*
X153358571Y-69772857D01*
X153358571Y-69372857D02*
X153415714Y-69430000D01*
X153358571Y-69487142D01*
X153301428Y-69430000D01*
X153358571Y-69372857D01*
X153358571Y-69487142D01*
X152958571Y-69772857D02*
X152501428Y-69772857D01*
X152787142Y-70572857D02*
X152787142Y-69544285D01*
X152730000Y-69430000D01*
X152615714Y-69372857D01*
X152501428Y-69372857D01*
X152101428Y-70572857D02*
X152101428Y-69772857D01*
X152101428Y-69372857D02*
X152158571Y-69430000D01*
X152101428Y-69487142D01*
X152044285Y-69430000D01*
X152101428Y-69372857D01*
X152101428Y-69487142D01*
X151015714Y-70515714D02*
X151130000Y-70572857D01*
X151358571Y-70572857D01*
X151472857Y-70515714D01*
X151530000Y-70458571D01*
X151587142Y-70344285D01*
X151587142Y-70001428D01*
X151530000Y-69887142D01*
X151472857Y-69830000D01*
X151358571Y-69772857D01*
X151130000Y-69772857D01*
X151015714Y-69830000D01*
X149987142Y-70572857D02*
X149987142Y-69944285D01*
X150044285Y-69830000D01*
X150158571Y-69772857D01*
X150387142Y-69772857D01*
X150501428Y-69830000D01*
X149987142Y-70515714D02*
X150101428Y-70572857D01*
X150387142Y-70572857D01*
X150501428Y-70515714D01*
X150558571Y-70401428D01*
X150558571Y-70287142D01*
X150501428Y-70172857D01*
X150387142Y-70115714D01*
X150101428Y-70115714D01*
X149987142Y-70058571D01*
X149244285Y-70572857D02*
X149358571Y-70515714D01*
X149415714Y-70401428D01*
X149415714Y-69372857D01*
X148615714Y-70572857D02*
X148730000Y-70515714D01*
X148787142Y-70401428D01*
X148787142Y-69372857D01*
X148272857Y-69772857D02*
X147987142Y-70572857D01*
X147701428Y-69772857D02*
X147987142Y-70572857D01*
X148101428Y-70858571D01*
X148158571Y-70915714D01*
X148272857Y-70972857D01*
X174072857Y-72572857D02*
X174072857Y-71372857D01*
X174072857Y-72515714D02*
X174187142Y-72572857D01*
X174415714Y-72572857D01*
X174530000Y-72515714D01*
X174587142Y-72458571D01*
X174644285Y-72344285D01*
X174644285Y-72001428D01*
X174587142Y-71887142D01*
X174530000Y-71830000D01*
X174415714Y-71772857D01*
X174187142Y-71772857D01*
X174072857Y-71830000D01*
X173044285Y-72515714D02*
X173158571Y-72572857D01*
X173387142Y-72572857D01*
X173501428Y-72515714D01*
X173558571Y-72401428D01*
X173558571Y-71944285D01*
X173501428Y-71830000D01*
X173387142Y-71772857D01*
X173158571Y-71772857D01*
X173044285Y-71830000D01*
X172987142Y-71944285D01*
X172987142Y-72058571D01*
X173558571Y-72172857D01*
X172530000Y-72515714D02*
X172415714Y-72572857D01*
X172187142Y-72572857D01*
X172072857Y-72515714D01*
X172015714Y-72401428D01*
X172015714Y-72344285D01*
X172072857Y-72230000D01*
X172187142Y-72172857D01*
X172358571Y-72172857D01*
X172472857Y-72115714D01*
X172530000Y-72001428D01*
X172530000Y-71944285D01*
X172472857Y-71830000D01*
X172358571Y-71772857D01*
X172187142Y-71772857D01*
X172072857Y-71830000D01*
X171501428Y-72572857D02*
X171501428Y-71772857D01*
X171501428Y-71372857D02*
X171558571Y-71430000D01*
X171501428Y-71487142D01*
X171444285Y-71430000D01*
X171501428Y-71372857D01*
X171501428Y-71487142D01*
X170415714Y-71772857D02*
X170415714Y-72744285D01*
X170472857Y-72858571D01*
X170530000Y-72915714D01*
X170644285Y-72972857D01*
X170815714Y-72972857D01*
X170930000Y-72915714D01*
X170415714Y-72515714D02*
X170530000Y-72572857D01*
X170758571Y-72572857D01*
X170872857Y-72515714D01*
X170930000Y-72458571D01*
X170987142Y-72344285D01*
X170987142Y-72001428D01*
X170930000Y-71887142D01*
X170872857Y-71830000D01*
X170758571Y-71772857D01*
X170530000Y-71772857D01*
X170415714Y-71830000D01*
X169844285Y-71772857D02*
X169844285Y-72572857D01*
X169844285Y-71887142D02*
X169787142Y-71830000D01*
X169672857Y-71772857D01*
X169501428Y-71772857D01*
X169387142Y-71830000D01*
X169330000Y-71944285D01*
X169330000Y-72572857D01*
X168301428Y-72515714D02*
X168415714Y-72572857D01*
X168644285Y-72572857D01*
X168758571Y-72515714D01*
X168815714Y-72401428D01*
X168815714Y-71944285D01*
X168758571Y-71830000D01*
X168644285Y-71772857D01*
X168415714Y-71772857D01*
X168301428Y-71830000D01*
X168244285Y-71944285D01*
X168244285Y-72058571D01*
X168815714Y-72172857D01*
X167215714Y-72572857D02*
X167215714Y-71372857D01*
X167215714Y-72515714D02*
X167330000Y-72572857D01*
X167558571Y-72572857D01*
X167672857Y-72515714D01*
X167730000Y-72458571D01*
X167787142Y-72344285D01*
X167787142Y-72001428D01*
X167730000Y-71887142D01*
X167672857Y-71830000D01*
X167558571Y-71772857D01*
X167330000Y-71772857D01*
X167215714Y-71830000D01*
X165901428Y-71772857D02*
X165444285Y-71772857D01*
X165730000Y-72572857D02*
X165730000Y-71544285D01*
X165672857Y-71430000D01*
X165558571Y-71372857D01*
X165444285Y-71372857D01*
X164872857Y-72572857D02*
X164987142Y-72515714D01*
X165044285Y-72458571D01*
X165101428Y-72344285D01*
X165101428Y-72001428D01*
X165044285Y-71887142D01*
X164987142Y-71830000D01*
X164872857Y-71772857D01*
X164701428Y-71772857D01*
X164587142Y-71830000D01*
X164530000Y-71887142D01*
X164472857Y-72001428D01*
X164472857Y-72344285D01*
X164530000Y-72458571D01*
X164587142Y-72515714D01*
X164701428Y-72572857D01*
X164872857Y-72572857D01*
X163958571Y-72572857D02*
X163958571Y-71772857D01*
X163958571Y-72001428D02*
X163901428Y-71887142D01*
X163844285Y-71830000D01*
X163730000Y-71772857D01*
X163615714Y-71772857D01*
X161787142Y-72515714D02*
X161901428Y-72572857D01*
X162130000Y-72572857D01*
X162244285Y-72515714D01*
X162301428Y-72458571D01*
X162358571Y-72344285D01*
X162358571Y-72001428D01*
X162301428Y-71887142D01*
X162244285Y-71830000D01*
X162130000Y-71772857D01*
X161901428Y-71772857D01*
X161787142Y-71830000D01*
X160758571Y-71772857D02*
X160758571Y-72572857D01*
X161272857Y-71772857D02*
X161272857Y-72401428D01*
X161215714Y-72515714D01*
X161101428Y-72572857D01*
X160930000Y-72572857D01*
X160815714Y-72515714D01*
X160758571Y-72458571D01*
X160187142Y-72572857D02*
X160187142Y-71772857D01*
X160187142Y-72001428D02*
X160130000Y-71887142D01*
X160072857Y-71830000D01*
X159958571Y-71772857D01*
X159844285Y-71772857D01*
X159444285Y-72572857D02*
X159444285Y-71772857D01*
X159444285Y-72001428D02*
X159387142Y-71887142D01*
X159330000Y-71830000D01*
X159215714Y-71772857D01*
X159101428Y-71772857D01*
X158244285Y-72515714D02*
X158358571Y-72572857D01*
X158587142Y-72572857D01*
X158701428Y-72515714D01*
X158758571Y-72401428D01*
X158758571Y-71944285D01*
X158701428Y-71830000D01*
X158587142Y-71772857D01*
X158358571Y-71772857D01*
X158244285Y-71830000D01*
X158187142Y-71944285D01*
X158187142Y-72058571D01*
X158758571Y-72172857D01*
X157672857Y-71772857D02*
X157672857Y-72572857D01*
X157672857Y-71887142D02*
X157615714Y-71830000D01*
X157501428Y-71772857D01*
X157330000Y-71772857D01*
X157215714Y-71830000D01*
X157158571Y-71944285D01*
X157158571Y-72572857D01*
X156758571Y-71772857D02*
X156301428Y-71772857D01*
X156587142Y-71372857D02*
X156587142Y-72401428D01*
X156530000Y-72515714D01*
X156415714Y-72572857D01*
X156301428Y-72572857D01*
X155901428Y-72115714D02*
X154987142Y-72115714D01*
X154472857Y-72515714D02*
X154358571Y-72572857D01*
X154130000Y-72572857D01*
X154015714Y-72515714D01*
X153958571Y-72401428D01*
X153958571Y-72344285D01*
X154015714Y-72230000D01*
X154130000Y-72172857D01*
X154301428Y-72172857D01*
X154415714Y-72115714D01*
X154472857Y-72001428D01*
X154472857Y-71944285D01*
X154415714Y-71830000D01*
X154301428Y-71772857D01*
X154130000Y-71772857D01*
X154015714Y-71830000D01*
X152987142Y-72515714D02*
X153101428Y-72572857D01*
X153330000Y-72572857D01*
X153444285Y-72515714D01*
X153501428Y-72401428D01*
X153501428Y-71944285D01*
X153444285Y-71830000D01*
X153330000Y-71772857D01*
X153101428Y-71772857D01*
X152987142Y-71830000D01*
X152930000Y-71944285D01*
X152930000Y-72058571D01*
X153501428Y-72172857D01*
X152415714Y-71772857D02*
X152415714Y-72572857D01*
X152415714Y-71887142D02*
X152358571Y-71830000D01*
X152244285Y-71772857D01*
X152072857Y-71772857D01*
X151958571Y-71830000D01*
X151901428Y-71944285D01*
X151901428Y-72572857D01*
X151387142Y-72515714D02*
X151272857Y-72572857D01*
X151044285Y-72572857D01*
X150930000Y-72515714D01*
X150872857Y-72401428D01*
X150872857Y-72344285D01*
X150930000Y-72230000D01*
X151044285Y-72172857D01*
X151215714Y-72172857D01*
X151330000Y-72115714D01*
X151387142Y-72001428D01*
X151387142Y-71944285D01*
X151330000Y-71830000D01*
X151215714Y-71772857D01*
X151044285Y-71772857D01*
X150930000Y-71830000D01*
X150358571Y-72572857D02*
X150358571Y-71772857D01*
X150358571Y-71372857D02*
X150415714Y-71430000D01*
X150358571Y-71487142D01*
X150301428Y-71430000D01*
X150358571Y-71372857D01*
X150358571Y-71487142D01*
X149787142Y-71772857D02*
X149787142Y-72572857D01*
X149787142Y-71887142D02*
X149730000Y-71830000D01*
X149615714Y-71772857D01*
X149444285Y-71772857D01*
X149330000Y-71830000D01*
X149272857Y-71944285D01*
X149272857Y-72572857D01*
X148187142Y-71772857D02*
X148187142Y-72744285D01*
X148244285Y-72858571D01*
X148301428Y-72915714D01*
X148415714Y-72972857D01*
X148587142Y-72972857D01*
X148701428Y-72915714D01*
X148187142Y-72515714D02*
X148301428Y-72572857D01*
X148530000Y-72572857D01*
X148644285Y-72515714D01*
X148701428Y-72458571D01*
X148758571Y-72344285D01*
X148758571Y-72001428D01*
X148701428Y-71887142D01*
X148644285Y-71830000D01*
X148530000Y-71772857D01*
X148301428Y-71772857D01*
X148187142Y-71830000D01*
X173672857Y-74572857D02*
X173672857Y-73944285D01*
X173730000Y-73830000D01*
X173844285Y-73772857D01*
X174072857Y-73772857D01*
X174187142Y-73830000D01*
X173672857Y-74515714D02*
X173787142Y-74572857D01*
X174072857Y-74572857D01*
X174187142Y-74515714D01*
X174244285Y-74401428D01*
X174244285Y-74287142D01*
X174187142Y-74172857D01*
X174072857Y-74115714D01*
X173787142Y-74115714D01*
X173672857Y-74058571D01*
X173101428Y-73772857D02*
X173101428Y-74972857D01*
X173101428Y-73830000D02*
X172987142Y-73772857D01*
X172758571Y-73772857D01*
X172644285Y-73830000D01*
X172587142Y-73887142D01*
X172530000Y-74001428D01*
X172530000Y-74344285D01*
X172587142Y-74458571D01*
X172644285Y-74515714D01*
X172758571Y-74572857D01*
X172987142Y-74572857D01*
X173101428Y-74515714D01*
X172015714Y-73772857D02*
X172015714Y-74972857D01*
X172015714Y-73830000D02*
X171901428Y-73772857D01*
X171672857Y-73772857D01*
X171558571Y-73830000D01*
X171501428Y-73887142D01*
X171444285Y-74001428D01*
X171444285Y-74344285D01*
X171501428Y-74458571D01*
X171558571Y-74515714D01*
X171672857Y-74572857D01*
X171901428Y-74572857D01*
X172015714Y-74515714D01*
X170758571Y-74572857D02*
X170872857Y-74515714D01*
X170930000Y-74401428D01*
X170930000Y-73372857D01*
X170301428Y-74572857D02*
X170301428Y-73772857D01*
X170301428Y-73372857D02*
X170358571Y-73430000D01*
X170301428Y-73487142D01*
X170244285Y-73430000D01*
X170301428Y-73372857D01*
X170301428Y-73487142D01*
X169215714Y-74515714D02*
X169330000Y-74572857D01*
X169558571Y-74572857D01*
X169672857Y-74515714D01*
X169730000Y-74458571D01*
X169787142Y-74344285D01*
X169787142Y-74001428D01*
X169730000Y-73887142D01*
X169672857Y-73830000D01*
X169558571Y-73772857D01*
X169330000Y-73772857D01*
X169215714Y-73830000D01*
X168187142Y-74572857D02*
X168187142Y-73944285D01*
X168244285Y-73830000D01*
X168358571Y-73772857D01*
X168587142Y-73772857D01*
X168701428Y-73830000D01*
X168187142Y-74515714D02*
X168301428Y-74572857D01*
X168587142Y-74572857D01*
X168701428Y-74515714D01*
X168758571Y-74401428D01*
X168758571Y-74287142D01*
X168701428Y-74172857D01*
X168587142Y-74115714D01*
X168301428Y-74115714D01*
X168187142Y-74058571D01*
X167787142Y-73772857D02*
X167330000Y-73772857D01*
X167615714Y-73372857D02*
X167615714Y-74401428D01*
X167558571Y-74515714D01*
X167444285Y-74572857D01*
X167330000Y-74572857D01*
X166930000Y-74572857D02*
X166930000Y-73772857D01*
X166930000Y-73372857D02*
X166987142Y-73430000D01*
X166930000Y-73487142D01*
X166872857Y-73430000D01*
X166930000Y-73372857D01*
X166930000Y-73487142D01*
X166187142Y-74572857D02*
X166301428Y-74515714D01*
X166358571Y-74458571D01*
X166415714Y-74344285D01*
X166415714Y-74001428D01*
X166358571Y-73887142D01*
X166301428Y-73830000D01*
X166187142Y-73772857D01*
X166015714Y-73772857D01*
X165901428Y-73830000D01*
X165844285Y-73887142D01*
X165787142Y-74001428D01*
X165787142Y-74344285D01*
X165844285Y-74458571D01*
X165901428Y-74515714D01*
X166015714Y-74572857D01*
X166187142Y-74572857D01*
X165272857Y-73772857D02*
X165272857Y-74572857D01*
X165272857Y-73887142D02*
X165215714Y-73830000D01*
X165101428Y-73772857D01*
X164930000Y-73772857D01*
X164815714Y-73830000D01*
X164758571Y-73944285D01*
X164758571Y-74572857D01*
X164244285Y-74515714D02*
X164130000Y-74572857D01*
X163901428Y-74572857D01*
X163787142Y-74515714D01*
X163730000Y-74401428D01*
X163730000Y-74344285D01*
X163787142Y-74230000D01*
X163901428Y-74172857D01*
X164072857Y-74172857D01*
X164187142Y-74115714D01*
X164244285Y-74001428D01*
X164244285Y-73944285D01*
X164187142Y-73830000D01*
X164072857Y-73772857D01*
X163901428Y-73772857D01*
X163787142Y-73830000D01*
X163215714Y-74458571D02*
X163158571Y-74515714D01*
X163215714Y-74572857D01*
X163272857Y-74515714D01*
X163215714Y-74458571D01*
X163215714Y-74572857D01*
X161901428Y-73372857D02*
X161215714Y-73372857D01*
X161558571Y-74572857D02*
X161558571Y-73372857D01*
X160815714Y-74572857D02*
X160815714Y-73372857D01*
X160301428Y-74572857D02*
X160301428Y-73944285D01*
X160358571Y-73830000D01*
X160472857Y-73772857D01*
X160644285Y-73772857D01*
X160758571Y-73830000D01*
X160815714Y-73887142D01*
X159272857Y-74515714D02*
X159387142Y-74572857D01*
X159615714Y-74572857D01*
X159730000Y-74515714D01*
X159787142Y-74401428D01*
X159787142Y-73944285D01*
X159730000Y-73830000D01*
X159615714Y-73772857D01*
X159387142Y-73772857D01*
X159272857Y-73830000D01*
X159215714Y-73944285D01*
X159215714Y-74058571D01*
X159787142Y-74172857D01*
X157272857Y-74572857D02*
X157272857Y-73372857D01*
X157272857Y-74515714D02*
X157387142Y-74572857D01*
X157615714Y-74572857D01*
X157730000Y-74515714D01*
X157787142Y-74458571D01*
X157844285Y-74344285D01*
X157844285Y-74001428D01*
X157787142Y-73887142D01*
X157730000Y-73830000D01*
X157615714Y-73772857D01*
X157387142Y-73772857D01*
X157272857Y-73830000D01*
X156244285Y-74515714D02*
X156358571Y-74572857D01*
X156587142Y-74572857D01*
X156701428Y-74515714D01*
X156758571Y-74401428D01*
X156758571Y-73944285D01*
X156701428Y-73830000D01*
X156587142Y-73772857D01*
X156358571Y-73772857D01*
X156244285Y-73830000D01*
X156187142Y-73944285D01*
X156187142Y-74058571D01*
X156758571Y-74172857D01*
X155787142Y-73772857D02*
X155501428Y-74572857D01*
X155215714Y-73772857D01*
X154758571Y-74572857D02*
X154758571Y-73772857D01*
X154758571Y-73372857D02*
X154815714Y-73430000D01*
X154758571Y-73487142D01*
X154701428Y-73430000D01*
X154758571Y-73372857D01*
X154758571Y-73487142D01*
X153672857Y-74515714D02*
X153787142Y-74572857D01*
X154015714Y-74572857D01*
X154130000Y-74515714D01*
X154187142Y-74458571D01*
X154244285Y-74344285D01*
X154244285Y-74001428D01*
X154187142Y-73887142D01*
X154130000Y-73830000D01*
X154015714Y-73772857D01*
X153787142Y-73772857D01*
X153672857Y-73830000D01*
X152701428Y-74515714D02*
X152815714Y-74572857D01*
X153044285Y-74572857D01*
X153158571Y-74515714D01*
X153215714Y-74401428D01*
X153215714Y-73944285D01*
X153158571Y-73830000D01*
X153044285Y-73772857D01*
X152815714Y-73772857D01*
X152701428Y-73830000D01*
X152644285Y-73944285D01*
X152644285Y-74058571D01*
X153215714Y-74172857D01*
X150701428Y-74515714D02*
X150815714Y-74572857D01*
X151044285Y-74572857D01*
X151158571Y-74515714D01*
X151215714Y-74458571D01*
X151272857Y-74344285D01*
X151272857Y-74001428D01*
X151215714Y-73887142D01*
X151158571Y-73830000D01*
X151044285Y-73772857D01*
X150815714Y-73772857D01*
X150701428Y-73830000D01*
X149672857Y-74572857D02*
X149672857Y-73944285D01*
X149730000Y-73830000D01*
X149844285Y-73772857D01*
X150072857Y-73772857D01*
X150187142Y-73830000D01*
X149672857Y-74515714D02*
X149787142Y-74572857D01*
X150072857Y-74572857D01*
X150187142Y-74515714D01*
X150244285Y-74401428D01*
X150244285Y-74287142D01*
X150187142Y-74172857D01*
X150072857Y-74115714D01*
X149787142Y-74115714D01*
X149672857Y-74058571D01*
X149101428Y-73772857D02*
X149101428Y-74572857D01*
X149101428Y-73887142D02*
X149044285Y-73830000D01*
X148930000Y-73772857D01*
X148758571Y-73772857D01*
X148644285Y-73830000D01*
X148587142Y-73944285D01*
X148587142Y-74572857D01*
X176358571Y-76572857D02*
X176358571Y-75772857D01*
X176358571Y-75887142D02*
X176301428Y-75830000D01*
X176187142Y-75772857D01*
X176015714Y-75772857D01*
X175901428Y-75830000D01*
X175844285Y-75944285D01*
X175844285Y-76572857D01*
X175844285Y-75944285D02*
X175787142Y-75830000D01*
X175672857Y-75772857D01*
X175501428Y-75772857D01*
X175387142Y-75830000D01*
X175330000Y-75944285D01*
X175330000Y-76572857D01*
X174301428Y-76515714D02*
X174415714Y-76572857D01*
X174644285Y-76572857D01*
X174758571Y-76515714D01*
X174815714Y-76401428D01*
X174815714Y-75944285D01*
X174758571Y-75830000D01*
X174644285Y-75772857D01*
X174415714Y-75772857D01*
X174301428Y-75830000D01*
X174244285Y-75944285D01*
X174244285Y-76058571D01*
X174815714Y-76172857D01*
X173215714Y-76572857D02*
X173215714Y-75944285D01*
X173272857Y-75830000D01*
X173387142Y-75772857D01*
X173615714Y-75772857D01*
X173730000Y-75830000D01*
X173215714Y-76515714D02*
X173330000Y-76572857D01*
X173615714Y-76572857D01*
X173730000Y-76515714D01*
X173787142Y-76401428D01*
X173787142Y-76287142D01*
X173730000Y-76172857D01*
X173615714Y-76115714D01*
X173330000Y-76115714D01*
X173215714Y-76058571D01*
X172701428Y-76515714D02*
X172587142Y-76572857D01*
X172358571Y-76572857D01*
X172244285Y-76515714D01*
X172187142Y-76401428D01*
X172187142Y-76344285D01*
X172244285Y-76230000D01*
X172358571Y-76172857D01*
X172530000Y-76172857D01*
X172644285Y-76115714D01*
X172701428Y-76001428D01*
X172701428Y-75944285D01*
X172644285Y-75830000D01*
X172530000Y-75772857D01*
X172358571Y-75772857D01*
X172244285Y-75830000D01*
X171158571Y-75772857D02*
X171158571Y-76572857D01*
X171672857Y-75772857D02*
X171672857Y-76401428D01*
X171615714Y-76515714D01*
X171501428Y-76572857D01*
X171330000Y-76572857D01*
X171215714Y-76515714D01*
X171158571Y-76458571D01*
X170587142Y-76572857D02*
X170587142Y-75772857D01*
X170587142Y-76001428D02*
X170530000Y-75887142D01*
X170472857Y-75830000D01*
X170358571Y-75772857D01*
X170244285Y-75772857D01*
X169387142Y-76515714D02*
X169501428Y-76572857D01*
X169730000Y-76572857D01*
X169844285Y-76515714D01*
X169901428Y-76401428D01*
X169901428Y-75944285D01*
X169844285Y-75830000D01*
X169730000Y-75772857D01*
X169501428Y-75772857D01*
X169387142Y-75830000D01*
X169330000Y-75944285D01*
X169330000Y-76058571D01*
X169901428Y-76172857D01*
X167387142Y-76572857D02*
X167387142Y-75944285D01*
X167444285Y-75830000D01*
X167558571Y-75772857D01*
X167787142Y-75772857D01*
X167901428Y-75830000D01*
X167387142Y-76515714D02*
X167501428Y-76572857D01*
X167787142Y-76572857D01*
X167901428Y-76515714D01*
X167958571Y-76401428D01*
X167958571Y-76287142D01*
X167901428Y-76172857D01*
X167787142Y-76115714D01*
X167501428Y-76115714D01*
X167387142Y-76058571D01*
X166072857Y-75772857D02*
X165615714Y-75772857D01*
X165901428Y-76572857D02*
X165901428Y-75544285D01*
X165844285Y-75430000D01*
X165730000Y-75372857D01*
X165615714Y-75372857D01*
X164701428Y-75772857D02*
X164701428Y-76572857D01*
X165215714Y-75772857D02*
X165215714Y-76401428D01*
X165158571Y-76515714D01*
X165044285Y-76572857D01*
X164872857Y-76572857D01*
X164758571Y-76515714D01*
X164701428Y-76458571D01*
X163958571Y-76572857D02*
X164072857Y-76515714D01*
X164129999Y-76401428D01*
X164129999Y-75372857D01*
X163329999Y-76572857D02*
X163444285Y-76515714D01*
X163501428Y-76401428D01*
X163501428Y-75372857D01*
X162872857Y-76115714D02*
X161958571Y-76115714D01*
X161444285Y-76515714D02*
X161329999Y-76572857D01*
X161101428Y-76572857D01*
X160987142Y-76515714D01*
X160929999Y-76401428D01*
X160929999Y-76344285D01*
X160987142Y-76230000D01*
X161101428Y-76172857D01*
X161272857Y-76172857D01*
X161387142Y-76115714D01*
X161444285Y-76001428D01*
X161444285Y-75944285D01*
X161387142Y-75830000D01*
X161272857Y-75772857D01*
X161101428Y-75772857D01*
X160987142Y-75830000D01*
X159901428Y-76515714D02*
X160015714Y-76572857D01*
X160244285Y-76572857D01*
X160358571Y-76515714D01*
X160415714Y-76458571D01*
X160472857Y-76344285D01*
X160472857Y-76001428D01*
X160415714Y-75887142D01*
X160358571Y-75830000D01*
X160244285Y-75772857D01*
X160015714Y-75772857D01*
X159901428Y-75830000D01*
X158872857Y-76572857D02*
X158872857Y-75944285D01*
X158929999Y-75830000D01*
X159044285Y-75772857D01*
X159272857Y-75772857D01*
X159387142Y-75830000D01*
X158872857Y-76515714D02*
X158987142Y-76572857D01*
X159272857Y-76572857D01*
X159387142Y-76515714D01*
X159444285Y-76401428D01*
X159444285Y-76287142D01*
X159387142Y-76172857D01*
X159272857Y-76115714D01*
X158987142Y-76115714D01*
X158872857Y-76058571D01*
X158129999Y-76572857D02*
X158244285Y-76515714D01*
X158301428Y-76401428D01*
X158301428Y-75372857D01*
X157215714Y-76515714D02*
X157329999Y-76572857D01*
X157558571Y-76572857D01*
X157672857Y-76515714D01*
X157729999Y-76401428D01*
X157729999Y-75944285D01*
X157672857Y-75830000D01*
X157558571Y-75772857D01*
X157329999Y-75772857D01*
X157215714Y-75830000D01*
X157158571Y-75944285D01*
X157158571Y-76058571D01*
X157729999Y-76172857D01*
X155215714Y-76572857D02*
X155215714Y-75372857D01*
X155215714Y-76515714D02*
X155329999Y-76572857D01*
X155558571Y-76572857D01*
X155672857Y-76515714D01*
X155729999Y-76458571D01*
X155787142Y-76344285D01*
X155787142Y-76001428D01*
X155729999Y-75887142D01*
X155672857Y-75830000D01*
X155558571Y-75772857D01*
X155329999Y-75772857D01*
X155215714Y-75830000D01*
X154644285Y-76572857D02*
X154644285Y-75772857D01*
X154644285Y-75372857D02*
X154701428Y-75430000D01*
X154644285Y-75487142D01*
X154587142Y-75430000D01*
X154644285Y-75372857D01*
X154644285Y-75487142D01*
X154244285Y-75772857D02*
X153787142Y-75772857D01*
X154072857Y-76572857D02*
X154072857Y-75544285D01*
X154015714Y-75430000D01*
X153901428Y-75372857D01*
X153787142Y-75372857D01*
X153558571Y-75772857D02*
X153101428Y-75772857D01*
X153387142Y-76572857D02*
X153387142Y-75544285D01*
X153329999Y-75430000D01*
X153215714Y-75372857D01*
X153101428Y-75372857D01*
X152244285Y-76515714D02*
X152358571Y-76572857D01*
X152587142Y-76572857D01*
X152701428Y-76515714D01*
X152758571Y-76401428D01*
X152758571Y-75944285D01*
X152701428Y-75830000D01*
X152587142Y-75772857D01*
X152358571Y-75772857D01*
X152244285Y-75830000D01*
X152187142Y-75944285D01*
X152187142Y-76058571D01*
X152758571Y-76172857D01*
X151672857Y-76572857D02*
X151672857Y-75772857D01*
X151672857Y-76001428D02*
X151615714Y-75887142D01*
X151558571Y-75830000D01*
X151444285Y-75772857D01*
X151329999Y-75772857D01*
X150472857Y-76515714D02*
X150587142Y-76572857D01*
X150815714Y-76572857D01*
X150929999Y-76515714D01*
X150987142Y-76401428D01*
X150987142Y-75944285D01*
X150929999Y-75830000D01*
X150815714Y-75772857D01*
X150587142Y-75772857D01*
X150472857Y-75830000D01*
X150415714Y-75944285D01*
X150415714Y-76058571D01*
X150987142Y-76172857D01*
X149901428Y-75772857D02*
X149901428Y-76572857D01*
X149901428Y-75887142D02*
X149844285Y-75830000D01*
X149729999Y-75772857D01*
X149558571Y-75772857D01*
X149444285Y-75830000D01*
X149387142Y-75944285D01*
X149387142Y-76572857D01*
X148987142Y-75772857D02*
X148529999Y-75772857D01*
X148815714Y-75372857D02*
X148815714Y-76401428D01*
X148758571Y-76515714D01*
X148644285Y-76572857D01*
X148529999Y-76572857D01*
X148129999Y-76572857D02*
X148129999Y-75772857D01*
X148129999Y-75372857D02*
X148187142Y-75430000D01*
X148129999Y-75487142D01*
X148072857Y-75430000D01*
X148129999Y-75372857D01*
X148129999Y-75487142D01*
X147044285Y-76572857D02*
X147044285Y-75944285D01*
X147101428Y-75830000D01*
X147215714Y-75772857D01*
X147444285Y-75772857D01*
X147558571Y-75830000D01*
X147044285Y-76515714D02*
X147158571Y-76572857D01*
X147444285Y-76572857D01*
X147558571Y-76515714D01*
X147615714Y-76401428D01*
X147615714Y-76287142D01*
X147558571Y-76172857D01*
X147444285Y-76115714D01*
X147158571Y-76115714D01*
X147044285Y-76058571D01*
X146301428Y-76572857D02*
X146415714Y-76515714D01*
X146472857Y-76401428D01*
X146472857Y-75372857D01*
X177730000Y-78572857D02*
X177730000Y-77772857D01*
X177730000Y-77372857D02*
X177787142Y-77430000D01*
X177730000Y-77487142D01*
X177672857Y-77430000D01*
X177730000Y-77372857D01*
X177730000Y-77487142D01*
X177158571Y-77772857D02*
X177158571Y-78572857D01*
X177158571Y-77887142D02*
X177101428Y-77830000D01*
X176987142Y-77772857D01*
X176815714Y-77772857D01*
X176701428Y-77830000D01*
X176644285Y-77944285D01*
X176644285Y-78572857D01*
X176072857Y-77772857D02*
X176072857Y-78972857D01*
X176072857Y-77830000D02*
X175958571Y-77772857D01*
X175730000Y-77772857D01*
X175615714Y-77830000D01*
X175558571Y-77887142D01*
X175501428Y-78001428D01*
X175501428Y-78344285D01*
X175558571Y-78458571D01*
X175615714Y-78515714D01*
X175730000Y-78572857D01*
X175958571Y-78572857D01*
X176072857Y-78515714D01*
X174472857Y-77772857D02*
X174472857Y-78572857D01*
X174987142Y-77772857D02*
X174987142Y-78401428D01*
X174930000Y-78515714D01*
X174815714Y-78572857D01*
X174644285Y-78572857D01*
X174530000Y-78515714D01*
X174472857Y-78458571D01*
X174072857Y-77772857D02*
X173615714Y-77772857D01*
X173901428Y-77372857D02*
X173901428Y-78401428D01*
X173844285Y-78515714D01*
X173729999Y-78572857D01*
X173615714Y-78572857D01*
X172129999Y-78572857D02*
X172244285Y-78515714D01*
X172301428Y-78458571D01*
X172358571Y-78344285D01*
X172358571Y-78001428D01*
X172301428Y-77887142D01*
X172244285Y-77830000D01*
X172129999Y-77772857D01*
X171958571Y-77772857D01*
X171844285Y-77830000D01*
X171787142Y-77887142D01*
X171729999Y-78001428D01*
X171729999Y-78344285D01*
X171787142Y-78458571D01*
X171844285Y-78515714D01*
X171958571Y-78572857D01*
X172129999Y-78572857D01*
X171387142Y-77772857D02*
X170929999Y-77772857D01*
X171215714Y-78572857D02*
X171215714Y-77544285D01*
X171158571Y-77430000D01*
X171044285Y-77372857D01*
X170929999Y-77372857D01*
X169615714Y-77887142D02*
X168701428Y-77887142D01*
X169158571Y-78344285D02*
X169158571Y-77430000D01*
X168701428Y-78572857D02*
X169615714Y-78572857D01*
X167501428Y-78572857D02*
X168187142Y-78572857D01*
X167844285Y-78572857D02*
X167844285Y-77372857D01*
X167958571Y-77544285D01*
X168072857Y-77658571D01*
X168187142Y-77715714D01*
X166472857Y-77372857D02*
X166701428Y-77372857D01*
X166815714Y-77430000D01*
X166872857Y-77487142D01*
X166987142Y-77658571D01*
X167044285Y-77887142D01*
X167044285Y-78344285D01*
X166987142Y-78458571D01*
X166929999Y-78515714D01*
X166815714Y-78572857D01*
X166587142Y-78572857D01*
X166472857Y-78515714D01*
X166415714Y-78458571D01*
X166358571Y-78344285D01*
X166358571Y-78058571D01*
X166415714Y-77944285D01*
X166472857Y-77887142D01*
X166587142Y-77830000D01*
X166815714Y-77830000D01*
X166929999Y-77887142D01*
X166987142Y-77944285D01*
X167044285Y-78058571D01*
X165958571Y-77372857D02*
X165215714Y-77372857D01*
X165615714Y-77830000D01*
X165444285Y-77830000D01*
X165329999Y-77887142D01*
X165272857Y-77944285D01*
X165215714Y-78058571D01*
X165215714Y-78344285D01*
X165272857Y-78458571D01*
X165329999Y-78515714D01*
X165444285Y-78572857D01*
X165787142Y-78572857D01*
X165901428Y-78515714D01*
X165958571Y-78458571D01*
X164701428Y-78458571D02*
X164644285Y-78515714D01*
X164701428Y-78572857D01*
X164758571Y-78515714D01*
X164701428Y-78458571D01*
X164701428Y-78572857D01*
X163958571Y-77887142D02*
X164072857Y-77830000D01*
X164129999Y-77772857D01*
X164187142Y-77658571D01*
X164187142Y-77601428D01*
X164129999Y-77487142D01*
X164072857Y-77430000D01*
X163958571Y-77372857D01*
X163729999Y-77372857D01*
X163615714Y-77430000D01*
X163558571Y-77487142D01*
X163501428Y-77601428D01*
X163501428Y-77658571D01*
X163558571Y-77772857D01*
X163615714Y-77830000D01*
X163729999Y-77887142D01*
X163958571Y-77887142D01*
X164072857Y-77944285D01*
X164129999Y-78001428D01*
X164187142Y-78115714D01*
X164187142Y-78344285D01*
X164129999Y-78458571D01*
X164072857Y-78515714D01*
X163958571Y-78572857D01*
X163729999Y-78572857D01*
X163615714Y-78515714D01*
X163558571Y-78458571D01*
X163501428Y-78344285D01*
X163501428Y-78115714D01*
X163558571Y-78001428D01*
X163615714Y-77944285D01*
X163729999Y-77887142D01*
X162472857Y-77772857D02*
X162472857Y-78572857D01*
X162758571Y-77315714D02*
X163044285Y-78172857D01*
X162301428Y-78172857D01*
X160930000Y-78572857D02*
X160930000Y-77772857D01*
X160930000Y-77887142D02*
X160872857Y-77830000D01*
X160758571Y-77772857D01*
X160587142Y-77772857D01*
X160472857Y-77830000D01*
X160415714Y-77944285D01*
X160415714Y-78572857D01*
X160415714Y-77944285D02*
X160358571Y-77830000D01*
X160244285Y-77772857D01*
X160072857Y-77772857D01*
X159958571Y-77830000D01*
X159901428Y-77944285D01*
X159901428Y-78572857D01*
X159501428Y-77372857D02*
X159101428Y-78572857D01*
X158701428Y-77372857D01*
X157215714Y-78572857D02*
X157330000Y-78515714D01*
X157387142Y-78458571D01*
X157444285Y-78344285D01*
X157444285Y-78001428D01*
X157387142Y-77887142D01*
X157330000Y-77830000D01*
X157215714Y-77772857D01*
X157044285Y-77772857D01*
X156930000Y-77830000D01*
X156872857Y-77887142D01*
X156815714Y-78001428D01*
X156815714Y-78344285D01*
X156872857Y-78458571D01*
X156930000Y-78515714D01*
X157044285Y-78572857D01*
X157215714Y-78572857D01*
X156301428Y-78572857D02*
X156301428Y-77772857D01*
X156301428Y-78001428D02*
X156244285Y-77887142D01*
X156187142Y-77830000D01*
X156072857Y-77772857D01*
X155958571Y-77772857D01*
X154644285Y-77887142D02*
X153730000Y-77887142D01*
X154187142Y-78344285D02*
X154187142Y-77430000D01*
X153730000Y-78572857D02*
X154644285Y-78572857D01*
X152644285Y-77772857D02*
X152644285Y-78572857D01*
X152930000Y-77315714D02*
X153215714Y-78172857D01*
X152472857Y-78172857D01*
X151787142Y-77372857D02*
X151672857Y-77372857D01*
X151558571Y-77430000D01*
X151501428Y-77487142D01*
X151444285Y-77601428D01*
X151387142Y-77830000D01*
X151387142Y-78115714D01*
X151444285Y-78344285D01*
X151501428Y-78458571D01*
X151558571Y-78515714D01*
X151672857Y-78572857D01*
X151787142Y-78572857D01*
X151901428Y-78515714D01*
X151958571Y-78458571D01*
X152015714Y-78344285D01*
X152072857Y-78115714D01*
X152072857Y-77830000D01*
X152015714Y-77601428D01*
X151958571Y-77487142D01*
X151901428Y-77430000D01*
X151787142Y-77372857D01*
X150872857Y-78458571D02*
X150815714Y-78515714D01*
X150872857Y-78572857D01*
X150930000Y-78515714D01*
X150872857Y-78458571D01*
X150872857Y-78572857D01*
X150244285Y-78572857D02*
X150015714Y-78572857D01*
X149901428Y-78515714D01*
X149844285Y-78458571D01*
X149729999Y-78287142D01*
X149672857Y-78058571D01*
X149672857Y-77601428D01*
X149729999Y-77487142D01*
X149787142Y-77430000D01*
X149901428Y-77372857D01*
X150129999Y-77372857D01*
X150244285Y-77430000D01*
X150301428Y-77487142D01*
X150358571Y-77601428D01*
X150358571Y-77887142D01*
X150301428Y-78001428D01*
X150244285Y-78058571D01*
X150129999Y-78115714D01*
X149901428Y-78115714D01*
X149787142Y-78058571D01*
X149729999Y-78001428D01*
X149672857Y-77887142D01*
X148644285Y-77372857D02*
X148872857Y-77372857D01*
X148987142Y-77430000D01*
X149044285Y-77487142D01*
X149158571Y-77658571D01*
X149215714Y-77887142D01*
X149215714Y-78344285D01*
X149158571Y-78458571D01*
X149101428Y-78515714D01*
X148987142Y-78572857D01*
X148758571Y-78572857D01*
X148644285Y-78515714D01*
X148587142Y-78458571D01*
X148529999Y-78344285D01*
X148529999Y-78058571D01*
X148587142Y-77944285D01*
X148644285Y-77887142D01*
X148758571Y-77830000D01*
X148987142Y-77830000D01*
X149101428Y-77887142D01*
X149158571Y-77944285D01*
X149215714Y-78058571D01*
X147101428Y-78572857D02*
X147101428Y-77772857D01*
X147101428Y-77887142D02*
X147044285Y-77830000D01*
X146929999Y-77772857D01*
X146758571Y-77772857D01*
X146644285Y-77830000D01*
X146587142Y-77944285D01*
X146587142Y-78572857D01*
X146587142Y-77944285D02*
X146530000Y-77830000D01*
X146415714Y-77772857D01*
X146244285Y-77772857D01*
X146130000Y-77830000D01*
X146072857Y-77944285D01*
X146072857Y-78572857D01*
X145672857Y-77372857D02*
X145272857Y-78572857D01*
X144872857Y-77372857D01*
X174187142Y-80572857D02*
X174187142Y-79944285D01*
X174244285Y-79830000D01*
X174358571Y-79772857D01*
X174587142Y-79772857D01*
X174701428Y-79830000D01*
X174187142Y-80515714D02*
X174301428Y-80572857D01*
X174587142Y-80572857D01*
X174701428Y-80515714D01*
X174758571Y-80401428D01*
X174758571Y-80287142D01*
X174701428Y-80172857D01*
X174587142Y-80115714D01*
X174301428Y-80115714D01*
X174187142Y-80058571D01*
X173101428Y-80515714D02*
X173215714Y-80572857D01*
X173444285Y-80572857D01*
X173558571Y-80515714D01*
X173615714Y-80458571D01*
X173672857Y-80344285D01*
X173672857Y-80001428D01*
X173615714Y-79887142D01*
X173558571Y-79830000D01*
X173444285Y-79772857D01*
X173215714Y-79772857D01*
X173101428Y-79830000D01*
X172587142Y-80572857D02*
X172587142Y-79772857D01*
X172587142Y-80001428D02*
X172530000Y-79887142D01*
X172472857Y-79830000D01*
X172358571Y-79772857D01*
X172244285Y-79772857D01*
X171672857Y-80572857D02*
X171787142Y-80515714D01*
X171844285Y-80458571D01*
X171901428Y-80344285D01*
X171901428Y-80001428D01*
X171844285Y-79887142D01*
X171787142Y-79830000D01*
X171672857Y-79772857D01*
X171501428Y-79772857D01*
X171387142Y-79830000D01*
X171330000Y-79887142D01*
X171272857Y-80001428D01*
X171272857Y-80344285D01*
X171330000Y-80458571D01*
X171387142Y-80515714D01*
X171501428Y-80572857D01*
X171672857Y-80572857D01*
X170815714Y-80515714D02*
X170701428Y-80572857D01*
X170472857Y-80572857D01*
X170358571Y-80515714D01*
X170301428Y-80401428D01*
X170301428Y-80344285D01*
X170358571Y-80230000D01*
X170472857Y-80172857D01*
X170644285Y-80172857D01*
X170758571Y-80115714D01*
X170815714Y-80001428D01*
X170815714Y-79944285D01*
X170758571Y-79830000D01*
X170644285Y-79772857D01*
X170472857Y-79772857D01*
X170358571Y-79830000D01*
X169844285Y-80515714D02*
X169730000Y-80572857D01*
X169501428Y-80572857D01*
X169387142Y-80515714D01*
X169330000Y-80401428D01*
X169330000Y-80344285D01*
X169387142Y-80230000D01*
X169501428Y-80172857D01*
X169672857Y-80172857D01*
X169787142Y-80115714D01*
X169844285Y-80001428D01*
X169844285Y-79944285D01*
X169787142Y-79830000D01*
X169672857Y-79772857D01*
X169501428Y-79772857D01*
X169387142Y-79830000D01*
X167387142Y-80572857D02*
X167387142Y-79944285D01*
X167444285Y-79830000D01*
X167558571Y-79772857D01*
X167787142Y-79772857D01*
X167901428Y-79830000D01*
X167387142Y-80515714D02*
X167501428Y-80572857D01*
X167787142Y-80572857D01*
X167901428Y-80515714D01*
X167958571Y-80401428D01*
X167958571Y-80287142D01*
X167901428Y-80172857D01*
X167787142Y-80115714D01*
X167501428Y-80115714D01*
X167387142Y-80058571D01*
X165901428Y-80572857D02*
X165901428Y-79772857D01*
X165901428Y-80001428D02*
X165844285Y-79887142D01*
X165787142Y-79830000D01*
X165672857Y-79772857D01*
X165558571Y-79772857D01*
X164701428Y-80515714D02*
X164815714Y-80572857D01*
X165044285Y-80572857D01*
X165158571Y-80515714D01*
X165215714Y-80401428D01*
X165215714Y-79944285D01*
X165158571Y-79830000D01*
X165044285Y-79772857D01*
X164815714Y-79772857D01*
X164701428Y-79830000D01*
X164644285Y-79944285D01*
X164644285Y-80058571D01*
X165215714Y-80172857D01*
X164187142Y-80515714D02*
X164072857Y-80572857D01*
X163844285Y-80572857D01*
X163730000Y-80515714D01*
X163672857Y-80401428D01*
X163672857Y-80344285D01*
X163730000Y-80230000D01*
X163844285Y-80172857D01*
X164015714Y-80172857D01*
X164130000Y-80115714D01*
X164187142Y-80001428D01*
X164187142Y-79944285D01*
X164130000Y-79830000D01*
X164015714Y-79772857D01*
X163844285Y-79772857D01*
X163730000Y-79830000D01*
X163158571Y-80572857D02*
X163158571Y-79772857D01*
X163158571Y-79372857D02*
X163215714Y-79430000D01*
X163158571Y-79487142D01*
X163101428Y-79430000D01*
X163158571Y-79372857D01*
X163158571Y-79487142D01*
X162644285Y-80515714D02*
X162530000Y-80572857D01*
X162301428Y-80572857D01*
X162187142Y-80515714D01*
X162130000Y-80401428D01*
X162130000Y-80344285D01*
X162187142Y-80230000D01*
X162301428Y-80172857D01*
X162472857Y-80172857D01*
X162587142Y-80115714D01*
X162644285Y-80001428D01*
X162644285Y-79944285D01*
X162587142Y-79830000D01*
X162472857Y-79772857D01*
X162301428Y-79772857D01*
X162187142Y-79830000D01*
X161787142Y-79772857D02*
X161330000Y-79772857D01*
X161615714Y-79372857D02*
X161615714Y-80401428D01*
X161558571Y-80515714D01*
X161444285Y-80572857D01*
X161330000Y-80572857D01*
X160930000Y-80572857D02*
X160930000Y-79772857D01*
X160930000Y-79372857D02*
X160987142Y-79430000D01*
X160930000Y-79487142D01*
X160872857Y-79430000D01*
X160930000Y-79372857D01*
X160930000Y-79487142D01*
X160472857Y-79772857D02*
X160187142Y-80572857D01*
X159901428Y-79772857D01*
X158987142Y-80515714D02*
X159101428Y-80572857D01*
X159330000Y-80572857D01*
X159444285Y-80515714D01*
X159501428Y-80401428D01*
X159501428Y-79944285D01*
X159444285Y-79830000D01*
X159330000Y-79772857D01*
X159101428Y-79772857D01*
X158987142Y-79830000D01*
X158930000Y-79944285D01*
X158930000Y-80058571D01*
X159501428Y-80172857D01*
X157558571Y-80515714D02*
X157444285Y-80572857D01*
X157215714Y-80572857D01*
X157101428Y-80515714D01*
X157044285Y-80401428D01*
X157044285Y-80344285D01*
X157101428Y-80230000D01*
X157215714Y-80172857D01*
X157387142Y-80172857D01*
X157501428Y-80115714D01*
X157558571Y-80001428D01*
X157558571Y-79944285D01*
X157501428Y-79830000D01*
X157387142Y-79772857D01*
X157215714Y-79772857D01*
X157101428Y-79830000D01*
X156530000Y-80572857D02*
X156530000Y-79372857D01*
X156015714Y-80572857D02*
X156015714Y-79944285D01*
X156072857Y-79830000D01*
X156187142Y-79772857D01*
X156358571Y-79772857D01*
X156472857Y-79830000D01*
X156530000Y-79887142D01*
X154930000Y-79772857D02*
X154930000Y-80572857D01*
X155444285Y-79772857D02*
X155444285Y-80401428D01*
X155387142Y-80515714D01*
X155272857Y-80572857D01*
X155101428Y-80572857D01*
X154987142Y-80515714D01*
X154930000Y-80458571D01*
X154358571Y-79772857D02*
X154358571Y-80572857D01*
X154358571Y-79887142D02*
X154301428Y-79830000D01*
X154187142Y-79772857D01*
X154015714Y-79772857D01*
X153901428Y-79830000D01*
X153844285Y-79944285D01*
X153844285Y-80572857D01*
X153444285Y-79772857D02*
X152987142Y-79772857D01*
X153272857Y-79372857D02*
X153272857Y-80401428D01*
X153215714Y-80515714D01*
X153101428Y-80572857D01*
X152987142Y-80572857D01*
X151730000Y-80515714D02*
X151615714Y-80572857D01*
X151387142Y-80572857D01*
X151272857Y-80515714D01*
X151215714Y-80401428D01*
X151215714Y-80344285D01*
X151272857Y-80230000D01*
X151387142Y-80172857D01*
X151558571Y-80172857D01*
X151672857Y-80115714D01*
X151730000Y-80001428D01*
X151730000Y-79944285D01*
X151672857Y-79830000D01*
X151558571Y-79772857D01*
X151387142Y-79772857D01*
X151272857Y-79830000D01*
X150244285Y-80515714D02*
X150358571Y-80572857D01*
X150587142Y-80572857D01*
X150701428Y-80515714D01*
X150758571Y-80401428D01*
X150758571Y-79944285D01*
X150701428Y-79830000D01*
X150587142Y-79772857D01*
X150358571Y-79772857D01*
X150244285Y-79830000D01*
X150187142Y-79944285D01*
X150187142Y-80058571D01*
X150758571Y-80172857D01*
X149672857Y-79772857D02*
X149672857Y-80572857D01*
X149672857Y-79887142D02*
X149615714Y-79830000D01*
X149501428Y-79772857D01*
X149330000Y-79772857D01*
X149215714Y-79830000D01*
X149158571Y-79944285D01*
X149158571Y-80572857D01*
X148644285Y-80515714D02*
X148530000Y-80572857D01*
X148301428Y-80572857D01*
X148187142Y-80515714D01*
X148130000Y-80401428D01*
X148130000Y-80344285D01*
X148187142Y-80230000D01*
X148301428Y-80172857D01*
X148472857Y-80172857D01*
X148587142Y-80115714D01*
X148644285Y-80001428D01*
X148644285Y-79944285D01*
X148587142Y-79830000D01*
X148472857Y-79772857D01*
X148301428Y-79772857D01*
X148187142Y-79830000D01*
X147158571Y-80515714D02*
X147272857Y-80572857D01*
X147501428Y-80572857D01*
X147615714Y-80515714D01*
X147672857Y-80401428D01*
X147672857Y-79944285D01*
X147615714Y-79830000D01*
X147501428Y-79772857D01*
X147272857Y-79772857D01*
X147158571Y-79830000D01*
X147101428Y-79944285D01*
X147101428Y-80058571D01*
X147672857Y-80172857D01*
X173787142Y-82515714D02*
X173901428Y-82572857D01*
X174130000Y-82572857D01*
X174244285Y-82515714D01*
X174301428Y-82401428D01*
X174301428Y-81944285D01*
X174244285Y-81830000D01*
X174130000Y-81772857D01*
X173901428Y-81772857D01*
X173787142Y-81830000D01*
X173730000Y-81944285D01*
X173730000Y-82058571D01*
X174301428Y-82172857D01*
X173044285Y-82572857D02*
X173158571Y-82515714D01*
X173215714Y-82401428D01*
X173215714Y-81372857D01*
X172130000Y-82515714D02*
X172244285Y-82572857D01*
X172472857Y-82572857D01*
X172587142Y-82515714D01*
X172644285Y-82401428D01*
X172644285Y-81944285D01*
X172587142Y-81830000D01*
X172472857Y-81772857D01*
X172244285Y-81772857D01*
X172130000Y-81830000D01*
X172072857Y-81944285D01*
X172072857Y-82058571D01*
X172644285Y-82172857D01*
X171558571Y-82572857D02*
X171558571Y-81772857D01*
X171558571Y-81887142D02*
X171501428Y-81830000D01*
X171387142Y-81772857D01*
X171215714Y-81772857D01*
X171101428Y-81830000D01*
X171044285Y-81944285D01*
X171044285Y-82572857D01*
X171044285Y-81944285D02*
X170987142Y-81830000D01*
X170872857Y-81772857D01*
X170701428Y-81772857D01*
X170587142Y-81830000D01*
X170530000Y-81944285D01*
X170530000Y-82572857D01*
X169501428Y-82515714D02*
X169615714Y-82572857D01*
X169844285Y-82572857D01*
X169958571Y-82515714D01*
X170015714Y-82401428D01*
X170015714Y-81944285D01*
X169958571Y-81830000D01*
X169844285Y-81772857D01*
X169615714Y-81772857D01*
X169501428Y-81830000D01*
X169444285Y-81944285D01*
X169444285Y-82058571D01*
X170015714Y-82172857D01*
X168930000Y-81772857D02*
X168930000Y-82572857D01*
X168930000Y-81887142D02*
X168872857Y-81830000D01*
X168758571Y-81772857D01*
X168587142Y-81772857D01*
X168472857Y-81830000D01*
X168415714Y-81944285D01*
X168415714Y-82572857D01*
X168015714Y-81772857D02*
X167558571Y-81772857D01*
X167844285Y-81372857D02*
X167844285Y-82401428D01*
X167787142Y-82515714D01*
X167672857Y-82572857D01*
X167558571Y-82572857D01*
X166358571Y-81772857D02*
X166130000Y-82572857D01*
X165901428Y-82001428D01*
X165672857Y-82572857D01*
X165444285Y-81772857D01*
X164987142Y-82572857D02*
X164987142Y-81772857D01*
X164987142Y-81372857D02*
X165044285Y-81430000D01*
X164987142Y-81487142D01*
X164930000Y-81430000D01*
X164987142Y-81372857D01*
X164987142Y-81487142D01*
X164587142Y-81772857D02*
X164130000Y-81772857D01*
X164415714Y-81372857D02*
X164415714Y-82401428D01*
X164358571Y-82515714D01*
X164244285Y-82572857D01*
X164130000Y-82572857D01*
X163730000Y-82572857D02*
X163730000Y-81372857D01*
X163215714Y-82572857D02*
X163215714Y-81944285D01*
X163272857Y-81830000D01*
X163387142Y-81772857D01*
X163558571Y-81772857D01*
X163672857Y-81830000D01*
X163730000Y-81887142D01*
X161215714Y-82515714D02*
X161330000Y-82572857D01*
X161558571Y-82572857D01*
X161672857Y-82515714D01*
X161730000Y-82458571D01*
X161787142Y-82344285D01*
X161787142Y-82001428D01*
X161730000Y-81887142D01*
X161672857Y-81830000D01*
X161558571Y-81772857D01*
X161330000Y-81772857D01*
X161215714Y-81830000D01*
X160530000Y-82572857D02*
X160644285Y-82515714D01*
X160701428Y-82458571D01*
X160758571Y-82344285D01*
X160758571Y-82001428D01*
X160701428Y-81887142D01*
X160644285Y-81830000D01*
X160530000Y-81772857D01*
X160358571Y-81772857D01*
X160244285Y-81830000D01*
X160187142Y-81887142D01*
X160130000Y-82001428D01*
X160130000Y-82344285D01*
X160187142Y-82458571D01*
X160244285Y-82515714D01*
X160358571Y-82572857D01*
X160530000Y-82572857D01*
X159615714Y-82572857D02*
X159615714Y-81772857D01*
X159615714Y-81887142D02*
X159558571Y-81830000D01*
X159444285Y-81772857D01*
X159272857Y-81772857D01*
X159158571Y-81830000D01*
X159101428Y-81944285D01*
X159101428Y-82572857D01*
X159101428Y-81944285D02*
X159044285Y-81830000D01*
X158930000Y-81772857D01*
X158758571Y-81772857D01*
X158644285Y-81830000D01*
X158587142Y-81944285D01*
X158587142Y-82572857D01*
X158015714Y-82572857D02*
X158015714Y-81772857D01*
X158015714Y-81887142D02*
X157958571Y-81830000D01*
X157844285Y-81772857D01*
X157672857Y-81772857D01*
X157558571Y-81830000D01*
X157501428Y-81944285D01*
X157501428Y-82572857D01*
X157501428Y-81944285D02*
X157444285Y-81830000D01*
X157330000Y-81772857D01*
X157158571Y-81772857D01*
X157044285Y-81830000D01*
X156987142Y-81944285D01*
X156987142Y-82572857D01*
X156244285Y-82572857D02*
X156358571Y-82515714D01*
X156415714Y-82458571D01*
X156472857Y-82344285D01*
X156472857Y-82001428D01*
X156415714Y-81887142D01*
X156358571Y-81830000D01*
X156244285Y-81772857D01*
X156072857Y-81772857D01*
X155958571Y-81830000D01*
X155901428Y-81887142D01*
X155844285Y-82001428D01*
X155844285Y-82344285D01*
X155901428Y-82458571D01*
X155958571Y-82515714D01*
X156072857Y-82572857D01*
X156244285Y-82572857D01*
X155330000Y-81772857D02*
X155330000Y-82572857D01*
X155330000Y-81887142D02*
X155272857Y-81830000D01*
X155158571Y-81772857D01*
X154987142Y-81772857D01*
X154872857Y-81830000D01*
X154815714Y-81944285D01*
X154815714Y-82572857D01*
X154244285Y-82115714D02*
X153330000Y-82115714D01*
X152758571Y-82572857D02*
X152758571Y-81772857D01*
X152758571Y-81887142D02*
X152701428Y-81830000D01*
X152587142Y-81772857D01*
X152415714Y-81772857D01*
X152301428Y-81830000D01*
X152244285Y-81944285D01*
X152244285Y-82572857D01*
X152244285Y-81944285D02*
X152187142Y-81830000D01*
X152072857Y-81772857D01*
X151901428Y-81772857D01*
X151787142Y-81830000D01*
X151730000Y-81944285D01*
X151730000Y-82572857D01*
X150987142Y-82572857D02*
X151101428Y-82515714D01*
X151158571Y-82458571D01*
X151215714Y-82344285D01*
X151215714Y-82001428D01*
X151158571Y-81887142D01*
X151101428Y-81830000D01*
X150987142Y-81772857D01*
X150815714Y-81772857D01*
X150701428Y-81830000D01*
X150644285Y-81887142D01*
X150587142Y-82001428D01*
X150587142Y-82344285D01*
X150644285Y-82458571D01*
X150701428Y-82515714D01*
X150815714Y-82572857D01*
X150987142Y-82572857D01*
X149558571Y-82572857D02*
X149558571Y-81372857D01*
X149558571Y-82515714D02*
X149672857Y-82572857D01*
X149901428Y-82572857D01*
X150015714Y-82515714D01*
X150072857Y-82458571D01*
X150130000Y-82344285D01*
X150130000Y-82001428D01*
X150072857Y-81887142D01*
X150015714Y-81830000D01*
X149901428Y-81772857D01*
X149672857Y-81772857D01*
X149558571Y-81830000D01*
X148530000Y-82515714D02*
X148644285Y-82572857D01*
X148872857Y-82572857D01*
X148987142Y-82515714D01*
X149044285Y-82401428D01*
X149044285Y-81944285D01*
X148987142Y-81830000D01*
X148872857Y-81772857D01*
X148644285Y-81772857D01*
X148530000Y-81830000D01*
X148472857Y-81944285D01*
X148472857Y-82058571D01*
X149044285Y-82172857D01*
X178501428Y-83772857D02*
X178215714Y-84572857D01*
X177930000Y-83772857D01*
X177301428Y-84572857D02*
X177415714Y-84515714D01*
X177472857Y-84458571D01*
X177530000Y-84344285D01*
X177530000Y-84001428D01*
X177472857Y-83887142D01*
X177415714Y-83830000D01*
X177301428Y-83772857D01*
X177130000Y-83772857D01*
X177015714Y-83830000D01*
X176958571Y-83887142D01*
X176901428Y-84001428D01*
X176901428Y-84344285D01*
X176958571Y-84458571D01*
X177015714Y-84515714D01*
X177130000Y-84572857D01*
X177301428Y-84572857D01*
X176215714Y-84572857D02*
X176330000Y-84515714D01*
X176387142Y-84401428D01*
X176387142Y-83372857D01*
X175930000Y-83772857D02*
X175472857Y-83772857D01*
X175758571Y-83372857D02*
X175758571Y-84401428D01*
X175701428Y-84515714D01*
X175587142Y-84572857D01*
X175472857Y-84572857D01*
X174558571Y-84572857D02*
X174558571Y-83944285D01*
X174615714Y-83830000D01*
X174730000Y-83772857D01*
X174958571Y-83772857D01*
X175072857Y-83830000D01*
X174558571Y-84515714D02*
X174672857Y-84572857D01*
X174958571Y-84572857D01*
X175072857Y-84515714D01*
X175130000Y-84401428D01*
X175130000Y-84287142D01*
X175072857Y-84172857D01*
X174958571Y-84115714D01*
X174672857Y-84115714D01*
X174558571Y-84058571D01*
X173472857Y-83772857D02*
X173472857Y-84744285D01*
X173530000Y-84858571D01*
X173587142Y-84915714D01*
X173701428Y-84972857D01*
X173872857Y-84972857D01*
X173987142Y-84915714D01*
X173472857Y-84515714D02*
X173587142Y-84572857D01*
X173815714Y-84572857D01*
X173930000Y-84515714D01*
X173987142Y-84458571D01*
X174044285Y-84344285D01*
X174044285Y-84001428D01*
X173987142Y-83887142D01*
X173930000Y-83830000D01*
X173815714Y-83772857D01*
X173587142Y-83772857D01*
X173472857Y-83830000D01*
X172444285Y-84515714D02*
X172558571Y-84572857D01*
X172787142Y-84572857D01*
X172901428Y-84515714D01*
X172958571Y-84401428D01*
X172958571Y-83944285D01*
X172901428Y-83830000D01*
X172787142Y-83772857D01*
X172558571Y-83772857D01*
X172444285Y-83830000D01*
X172387142Y-83944285D01*
X172387142Y-84058571D01*
X172958571Y-84172857D01*
X171015714Y-84515714D02*
X170901428Y-84572857D01*
X170672857Y-84572857D01*
X170558571Y-84515714D01*
X170501428Y-84401428D01*
X170501428Y-84344285D01*
X170558571Y-84230000D01*
X170672857Y-84172857D01*
X170844285Y-84172857D01*
X170958571Y-84115714D01*
X171015714Y-84001428D01*
X171015714Y-83944285D01*
X170958571Y-83830000D01*
X170844285Y-83772857D01*
X170672857Y-83772857D01*
X170558571Y-83830000D01*
X169472857Y-83772857D02*
X169472857Y-84572857D01*
X169987142Y-83772857D02*
X169987142Y-84401428D01*
X169930000Y-84515714D01*
X169815714Y-84572857D01*
X169644285Y-84572857D01*
X169530000Y-84515714D01*
X169472857Y-84458571D01*
X168901428Y-83772857D02*
X168901428Y-84972857D01*
X168901428Y-83830000D02*
X168787142Y-83772857D01*
X168558571Y-83772857D01*
X168444285Y-83830000D01*
X168387142Y-83887142D01*
X168330000Y-84001428D01*
X168330000Y-84344285D01*
X168387142Y-84458571D01*
X168444285Y-84515714D01*
X168558571Y-84572857D01*
X168787142Y-84572857D01*
X168901428Y-84515714D01*
X167815714Y-83772857D02*
X167815714Y-84972857D01*
X167815714Y-83830000D02*
X167701428Y-83772857D01*
X167472857Y-83772857D01*
X167358571Y-83830000D01*
X167301428Y-83887142D01*
X167244285Y-84001428D01*
X167244285Y-84344285D01*
X167301428Y-84458571D01*
X167358571Y-84515714D01*
X167472857Y-84572857D01*
X167701428Y-84572857D01*
X167815714Y-84515714D01*
X166558571Y-84572857D02*
X166672857Y-84515714D01*
X166730000Y-84458571D01*
X166787142Y-84344285D01*
X166787142Y-84001428D01*
X166730000Y-83887142D01*
X166672857Y-83830000D01*
X166558571Y-83772857D01*
X166387142Y-83772857D01*
X166272857Y-83830000D01*
X166215714Y-83887142D01*
X166158571Y-84001428D01*
X166158571Y-84344285D01*
X166215714Y-84458571D01*
X166272857Y-84515714D01*
X166387142Y-84572857D01*
X166558571Y-84572857D01*
X165644285Y-84572857D02*
X165644285Y-83772857D01*
X165644285Y-84001428D02*
X165587142Y-83887142D01*
X165530000Y-83830000D01*
X165415714Y-83772857D01*
X165301428Y-83772857D01*
X165072857Y-83772857D02*
X164615714Y-83772857D01*
X164901428Y-83372857D02*
X164901428Y-84401428D01*
X164844285Y-84515714D01*
X164730000Y-84572857D01*
X164615714Y-84572857D01*
X163472857Y-83772857D02*
X163015714Y-83772857D01*
X163301428Y-84572857D02*
X163301428Y-83544285D01*
X163244285Y-83430000D01*
X163130000Y-83372857D01*
X163015714Y-83372857D01*
X162615714Y-84572857D02*
X162615714Y-83772857D01*
X162615714Y-84001428D02*
X162558571Y-83887142D01*
X162501428Y-83830000D01*
X162387142Y-83772857D01*
X162272857Y-83772857D01*
X161701428Y-84572857D02*
X161815714Y-84515714D01*
X161872857Y-84458571D01*
X161930000Y-84344285D01*
X161930000Y-84001428D01*
X161872857Y-83887142D01*
X161815714Y-83830000D01*
X161701428Y-83772857D01*
X161530000Y-83772857D01*
X161415714Y-83830000D01*
X161358571Y-83887142D01*
X161301428Y-84001428D01*
X161301428Y-84344285D01*
X161358571Y-84458571D01*
X161415714Y-84515714D01*
X161530000Y-84572857D01*
X161701428Y-84572857D01*
X160787142Y-84572857D02*
X160787142Y-83772857D01*
X160787142Y-83887142D02*
X160730000Y-83830000D01*
X160615714Y-83772857D01*
X160444285Y-83772857D01*
X160330000Y-83830000D01*
X160272857Y-83944285D01*
X160272857Y-84572857D01*
X160272857Y-83944285D02*
X160215714Y-83830000D01*
X160101428Y-83772857D01*
X159930000Y-83772857D01*
X159815714Y-83830000D01*
X159758571Y-83944285D01*
X159758571Y-84572857D01*
X157987142Y-84172857D02*
X158444285Y-84172857D01*
X157358571Y-83372857D02*
X157244285Y-83372857D01*
X157130000Y-83430000D01*
X157072857Y-83487142D01*
X157015714Y-83601428D01*
X156958571Y-83830000D01*
X156958571Y-84115714D01*
X157015714Y-84344285D01*
X157072857Y-84458571D01*
X157130000Y-84515714D01*
X157244285Y-84572857D01*
X157358571Y-84572857D01*
X157472857Y-84515714D01*
X157530000Y-84458571D01*
X157587142Y-84344285D01*
X157644285Y-84115714D01*
X157644285Y-83830000D01*
X157587142Y-83601428D01*
X157530000Y-83487142D01*
X157472857Y-83430000D01*
X157358571Y-83372857D01*
X156444285Y-84458571D02*
X156387142Y-84515714D01*
X156444285Y-84572857D01*
X156501428Y-84515714D01*
X156444285Y-84458571D01*
X156444285Y-84572857D01*
X155987142Y-83372857D02*
X155244285Y-83372857D01*
X155644285Y-83830000D01*
X155472857Y-83830000D01*
X155358571Y-83887142D01*
X155301428Y-83944285D01*
X155244285Y-84058571D01*
X155244285Y-84344285D01*
X155301428Y-84458571D01*
X155358571Y-84515714D01*
X155472857Y-84572857D01*
X155815714Y-84572857D01*
X155930000Y-84515714D01*
X155987142Y-84458571D01*
X153987142Y-83372857D02*
X153587142Y-84572857D01*
X153187142Y-83372857D01*
X152044285Y-83772857D02*
X151587142Y-83772857D01*
X151872857Y-83372857D02*
X151872857Y-84401428D01*
X151815714Y-84515714D01*
X151701428Y-84572857D01*
X151587142Y-84572857D01*
X151015714Y-84572857D02*
X151130000Y-84515714D01*
X151187142Y-84458571D01*
X151244285Y-84344285D01*
X151244285Y-84001428D01*
X151187142Y-83887142D01*
X151130000Y-83830000D01*
X151015714Y-83772857D01*
X150844285Y-83772857D01*
X150730000Y-83830000D01*
X150672857Y-83887142D01*
X150615714Y-84001428D01*
X150615714Y-84344285D01*
X150672857Y-84458571D01*
X150730000Y-84515714D01*
X150844285Y-84572857D01*
X151015714Y-84572857D01*
X149187142Y-84115714D02*
X148272857Y-84115714D01*
X148730000Y-84572857D02*
X148730000Y-83658571D01*
X147530000Y-83887142D02*
X147644285Y-83830000D01*
X147701428Y-83772857D01*
X147758571Y-83658571D01*
X147758571Y-83601428D01*
X147701428Y-83487142D01*
X147644285Y-83430000D01*
X147530000Y-83372857D01*
X147301428Y-83372857D01*
X147187142Y-83430000D01*
X147130000Y-83487142D01*
X147072857Y-83601428D01*
X147072857Y-83658571D01*
X147130000Y-83772857D01*
X147187142Y-83830000D01*
X147301428Y-83887142D01*
X147530000Y-83887142D01*
X147644285Y-83944285D01*
X147701428Y-84001428D01*
X147758571Y-84115714D01*
X147758571Y-84344285D01*
X147701428Y-84458571D01*
X147644285Y-84515714D01*
X147530000Y-84572857D01*
X147301428Y-84572857D01*
X147187142Y-84515714D01*
X147130000Y-84458571D01*
X147072857Y-84344285D01*
X147072857Y-84115714D01*
X147130000Y-84001428D01*
X147187142Y-83944285D01*
X147301428Y-83887142D01*
X145987142Y-83372857D02*
X146558571Y-83372857D01*
X146615714Y-83944285D01*
X146558571Y-83887142D01*
X146444285Y-83830000D01*
X146158571Y-83830000D01*
X146044285Y-83887142D01*
X145987142Y-83944285D01*
X145930000Y-84058571D01*
X145930000Y-84344285D01*
X145987142Y-84458571D01*
X146044285Y-84515714D01*
X146158571Y-84572857D01*
X146444285Y-84572857D01*
X146558571Y-84515714D01*
X146615714Y-84458571D01*
X144672857Y-83372857D02*
X144272857Y-84572857D01*
X143872857Y-83372857D01*
X143472857Y-84458571D02*
X143415714Y-84515714D01*
X143472857Y-84572857D01*
X143530000Y-84515714D01*
X143472857Y-84458571D01*
X143472857Y-84572857D01*
D10*
X198850476Y-119532380D02*
X198279047Y-119532380D01*
X198564761Y-120532380D02*
X198564761Y-119532380D01*
X197469523Y-120532380D02*
X197945714Y-120532380D01*
X197945714Y-119532380D01*
X197136190Y-120532380D02*
X197136190Y-119532380D01*
X196755238Y-119532380D01*
X196660000Y-119580000D01*
X196612380Y-119627619D01*
X196564761Y-119722857D01*
X196564761Y-119865714D01*
X196612380Y-119960952D01*
X196660000Y-120008571D01*
X196755238Y-120056190D01*
X197136190Y-120056190D01*
X195612380Y-120532380D02*
X196183809Y-120532380D01*
X195898095Y-120532380D02*
X195898095Y-119532380D01*
X195993333Y-119675238D01*
X196088571Y-119770476D01*
X196183809Y-119818095D01*
X195279047Y-119532380D02*
X194612380Y-119532380D01*
X195040952Y-120532380D01*
X194279047Y-119627619D02*
X194231428Y-119580000D01*
X194136190Y-119532380D01*
X193898095Y-119532380D01*
X193802857Y-119580000D01*
X193755238Y-119627619D01*
X193707619Y-119722857D01*
X193707619Y-119818095D01*
X193755238Y-119960952D01*
X194326666Y-120532380D01*
X193707619Y-120532380D01*
X192755238Y-119580000D02*
X192850476Y-119532380D01*
X192993333Y-119532380D01*
X193136190Y-119580000D01*
X193231428Y-119675238D01*
X193279047Y-119770476D01*
X193326666Y-119960952D01*
X193326666Y-120103809D01*
X193279047Y-120294285D01*
X193231428Y-120389523D01*
X193136190Y-120484761D01*
X192993333Y-120532380D01*
X192898095Y-120532380D01*
X192755238Y-120484761D01*
X192707619Y-120437142D01*
X192707619Y-120103809D01*
X192898095Y-120103809D01*
X192279047Y-120532380D02*
X192279047Y-119532380D01*
X191945714Y-120246666D01*
X191612380Y-119532380D01*
X191612380Y-120532380D01*
X191134285Y-125952380D02*
X191705714Y-125952380D01*
X191420000Y-125952380D02*
X191420000Y-124952380D01*
X191515238Y-125095238D01*
X191610476Y-125190476D01*
X191705714Y-125238095D01*
X212245238Y-104982380D02*
X212721428Y-104982380D01*
X212721428Y-103982380D01*
X211911904Y-104982380D02*
X211911904Y-103982380D01*
X211578571Y-104696666D01*
X211245238Y-103982380D01*
X211245238Y-104982380D01*
X210292857Y-103982380D02*
X210769047Y-103982380D01*
X210816666Y-104458571D01*
X210769047Y-104410952D01*
X210673809Y-104363333D01*
X210435714Y-104363333D01*
X210340476Y-104410952D01*
X210292857Y-104458571D01*
X210245238Y-104553809D01*
X210245238Y-104791904D01*
X210292857Y-104887142D01*
X210340476Y-104934761D01*
X210435714Y-104982380D01*
X210673809Y-104982380D01*
X210769047Y-104934761D01*
X210816666Y-104887142D01*
X209626190Y-103982380D02*
X209530952Y-103982380D01*
X209435714Y-104030000D01*
X209388095Y-104077619D01*
X209340476Y-104172857D01*
X209292857Y-104363333D01*
X209292857Y-104601428D01*
X209340476Y-104791904D01*
X209388095Y-104887142D01*
X209435714Y-104934761D01*
X209530952Y-104982380D01*
X209626190Y-104982380D01*
X209721428Y-104934761D01*
X209769047Y-104887142D01*
X209816666Y-104791904D01*
X209864285Y-104601428D01*
X209864285Y-104363333D01*
X209816666Y-104172857D01*
X209769047Y-104077619D01*
X209721428Y-104030000D01*
X209626190Y-103982380D01*
X208673809Y-103982380D02*
X208578571Y-103982380D01*
X208483333Y-104030000D01*
X208435714Y-104077619D01*
X208388095Y-104172857D01*
X208340476Y-104363333D01*
X208340476Y-104601428D01*
X208388095Y-104791904D01*
X208435714Y-104887142D01*
X208483333Y-104934761D01*
X208578571Y-104982380D01*
X208673809Y-104982380D01*
X208769047Y-104934761D01*
X208816666Y-104887142D01*
X208864285Y-104791904D01*
X208911904Y-104601428D01*
X208911904Y-104363333D01*
X208864285Y-104172857D01*
X208816666Y-104077619D01*
X208769047Y-104030000D01*
X208673809Y-103982380D01*
X207864285Y-104982380D02*
X207673809Y-104982380D01*
X207578571Y-104934761D01*
X207530952Y-104887142D01*
X207435714Y-104744285D01*
X207388095Y-104553809D01*
X207388095Y-104172857D01*
X207435714Y-104077619D01*
X207483333Y-104030000D01*
X207578571Y-103982380D01*
X207769047Y-103982380D01*
X207864285Y-104030000D01*
X207911904Y-104077619D01*
X207959523Y-104172857D01*
X207959523Y-104410952D01*
X207911904Y-104506190D01*
X207864285Y-104553809D01*
X207769047Y-104601428D01*
X207578571Y-104601428D01*
X207483333Y-104553809D01*
X207435714Y-104506190D01*
X207388095Y-104410952D01*
X207007142Y-104696666D02*
X206530952Y-104696666D01*
X207102380Y-104982380D02*
X206769047Y-103982380D01*
X206435714Y-104982380D01*
X175780952Y-118666666D02*
X175304761Y-118666666D01*
X175876190Y-118952380D02*
X175542857Y-117952380D01*
X175209523Y-118952380D01*
X175019047Y-117952380D02*
X174447619Y-117952380D01*
X174733333Y-118952380D02*
X174733333Y-117952380D01*
X174257142Y-118285714D02*
X173876190Y-118285714D01*
X174114285Y-117952380D02*
X174114285Y-118809523D01*
X174066666Y-118904761D01*
X173971428Y-118952380D01*
X173876190Y-118952380D01*
X173542857Y-118952380D02*
X173542857Y-118285714D01*
X173542857Y-117952380D02*
X173590476Y-118000000D01*
X173542857Y-118047619D01*
X173495238Y-118000000D01*
X173542857Y-117952380D01*
X173542857Y-118047619D01*
X173066666Y-118285714D02*
X173066666Y-118952380D01*
X173066666Y-118380952D02*
X173019047Y-118333333D01*
X172923809Y-118285714D01*
X172780952Y-118285714D01*
X172685714Y-118333333D01*
X172638095Y-118428571D01*
X172638095Y-118952380D01*
X172257142Y-118285714D02*
X172019047Y-118952380D01*
X171780952Y-118285714D02*
X172019047Y-118952380D01*
X172114285Y-119190476D01*
X172161904Y-119238095D01*
X172257142Y-119285714D01*
X170876190Y-118952380D02*
X171447619Y-118952380D01*
X171161904Y-118952380D02*
X171161904Y-117952380D01*
X171257142Y-118095238D01*
X171352380Y-118190476D01*
X171447619Y-118238095D01*
X170019047Y-117952380D02*
X170209523Y-117952380D01*
X170304761Y-118000000D01*
X170352380Y-118047619D01*
X170447619Y-118190476D01*
X170495238Y-118380952D01*
X170495238Y-118761904D01*
X170447619Y-118857142D01*
X170400000Y-118904761D01*
X170304761Y-118952380D01*
X170114285Y-118952380D01*
X170019047Y-118904761D01*
X169971428Y-118857142D01*
X169923809Y-118761904D01*
X169923809Y-118523809D01*
X169971428Y-118428571D01*
X170019047Y-118380952D01*
X170114285Y-118333333D01*
X170304761Y-118333333D01*
X170400000Y-118380952D01*
X170447619Y-118428571D01*
X170495238Y-118523809D01*
X168971428Y-118952380D02*
X169542857Y-118952380D01*
X169257142Y-118952380D02*
X169257142Y-117952380D01*
X169352380Y-118095238D01*
X169447619Y-118190476D01*
X169542857Y-118238095D01*
X168114285Y-118285714D02*
X168114285Y-118952380D01*
X168352380Y-117904761D02*
X168590476Y-118619047D01*
X167971428Y-118619047D01*
X186380952Y-113602380D02*
X186380952Y-112602380D01*
X185904761Y-113602380D02*
X185904761Y-112602380D01*
X185333333Y-113602380D01*
X185333333Y-112602380D01*
X184904761Y-113316666D02*
X184428571Y-113316666D01*
X185000000Y-113602380D02*
X184666666Y-112602380D01*
X184333333Y-113602380D01*
X184047619Y-112697619D02*
X184000000Y-112650000D01*
X183904761Y-112602380D01*
X183666666Y-112602380D01*
X183571428Y-112650000D01*
X183523809Y-112697619D01*
X183476190Y-112792857D01*
X183476190Y-112888095D01*
X183523809Y-113030952D01*
X184095238Y-113602380D01*
X183476190Y-113602380D01*
X183095238Y-112697619D02*
X183047619Y-112650000D01*
X182952380Y-112602380D01*
X182714285Y-112602380D01*
X182619047Y-112650000D01*
X182571428Y-112697619D01*
X182523809Y-112792857D01*
X182523809Y-112888095D01*
X182571428Y-113030952D01*
X183142857Y-113602380D01*
X182523809Y-113602380D01*
X181952380Y-113030952D02*
X182047619Y-112983333D01*
X182095238Y-112935714D01*
X182142857Y-112840476D01*
X182142857Y-112792857D01*
X182095238Y-112697619D01*
X182047619Y-112650000D01*
X181952380Y-112602380D01*
X181761904Y-112602380D01*
X181666666Y-112650000D01*
X181619047Y-112697619D01*
X181571428Y-112792857D01*
X181571428Y-112840476D01*
X181619047Y-112935714D01*
X181666666Y-112983333D01*
X181761904Y-113030952D01*
X181952380Y-113030952D01*
X182047619Y-113078571D01*
X182095238Y-113126190D01*
X182142857Y-113221428D01*
X182142857Y-113411904D01*
X182095238Y-113507142D01*
X182047619Y-113554761D01*
X181952380Y-113602380D01*
X181761904Y-113602380D01*
X181666666Y-113554761D01*
X181619047Y-113507142D01*
X181571428Y-113411904D01*
X181571428Y-113221428D01*
X181619047Y-113126190D01*
X181666666Y-113078571D01*
X181761904Y-113030952D01*
X184834285Y-112242380D02*
X185405714Y-112242380D01*
X185120000Y-112242380D02*
X185120000Y-111242380D01*
X185215238Y-111385238D01*
X185310476Y-111480476D01*
X185405714Y-111528095D01*
X206814285Y-109952380D02*
X207385714Y-109952380D01*
X207100000Y-109952380D02*
X207100000Y-108952380D01*
X207195238Y-109095238D01*
X207290476Y-109190476D01*
X207385714Y-109238095D01*
X145364285Y-118902380D02*
X145935714Y-118902380D01*
X145650000Y-118902380D02*
X145650000Y-117902380D01*
X145745238Y-118045238D01*
X145840476Y-118140476D01*
X145935714Y-118188095D01*
X167814285Y-110052380D02*
X168385714Y-110052380D01*
X168100000Y-110052380D02*
X168100000Y-109052380D01*
X168195238Y-109195238D01*
X168290476Y-109290476D01*
X168385714Y-109338095D01*
X214810904Y-118942380D02*
X214810904Y-117942380D01*
X214239476Y-118942380D02*
X214668047Y-118370952D01*
X214239476Y-117942380D02*
X214810904Y-118513809D01*
D12*
X148350000Y-89105000D02*
X147550000Y-89905000D01*
X147550000Y-89905000D02*
X147550000Y-100895000D01*
X147550000Y-100895000D02*
X157950000Y-100895000D01*
X157950000Y-100895000D02*
X157950000Y-89105000D01*
X157950000Y-89105000D02*
X148350000Y-89105000D01*
X158950000Y-89105000D02*
X158150000Y-89905000D01*
X158150000Y-89905000D02*
X158150000Y-100895000D01*
X158150000Y-100895000D02*
X168550000Y-100895000D01*
X168550000Y-100895000D02*
X168550000Y-89105000D01*
X168550000Y-89105000D02*
X158950000Y-89105000D01*
X150300000Y-118960000D02*
X146850000Y-118960000D01*
X150300000Y-118960000D02*
X152250000Y-118960000D01*
X150300000Y-113840000D02*
X148350000Y-113840000D01*
X150300000Y-113840000D02*
X152250000Y-113840000D01*
X169550000Y-89105000D02*
X168750000Y-89905000D01*
X168750000Y-89905000D02*
X168750000Y-100895000D01*
X168750000Y-100895000D02*
X179150000Y-100895000D01*
X179150000Y-100895000D02*
X179150000Y-89105000D01*
X179150000Y-89105000D02*
X169550000Y-89105000D01*
X152072936Y-120765000D02*
X152527064Y-120765000D01*
X152072936Y-122235000D02*
X152527064Y-122235000D01*
X155972936Y-102665000D02*
X156427064Y-102665000D01*
X155972936Y-104135000D02*
X156427064Y-104135000D01*
X148122936Y-120765000D02*
X148577064Y-120765000D01*
X148122936Y-122235000D02*
X148577064Y-122235000D01*
X159822936Y-85865000D02*
X160277064Y-85865000D01*
X159822936Y-87335000D02*
X160277064Y-87335000D01*
X170927064Y-87335000D02*
X170472936Y-87335000D01*
X170927064Y-85865000D02*
X170472936Y-85865000D01*
X152577064Y-87335000D02*
X152122936Y-87335000D01*
X152577064Y-85865000D02*
X152122936Y-85865000D01*
X163522936Y-101415000D02*
X163977064Y-101415000D01*
X163522936Y-102885000D02*
X163977064Y-102885000D01*
X149511252Y-102885000D02*
X148988748Y-102885000D01*
X149511252Y-101415000D02*
X148988748Y-101415000D01*
X157038748Y-116165000D02*
X157561252Y-116165000D01*
X157038748Y-117635000D02*
X157561252Y-117635000D01*
X157038748Y-113965000D02*
X157561252Y-113965000D01*
X157038748Y-115435000D02*
X157561252Y-115435000D01*
X170711252Y-102985000D02*
X170188748Y-102985000D01*
X170711252Y-101515000D02*
X170188748Y-101515000D01*
X159988748Y-101415000D02*
X160511252Y-101415000D01*
X159988748Y-102885000D02*
X160511252Y-102885000D01*
X188681252Y-104155000D02*
X188158748Y-104155000D01*
X188681252Y-105625000D02*
X188158748Y-105625000D01*
X163842936Y-119105000D02*
X164297064Y-119105000D01*
X163842936Y-117635000D02*
X164297064Y-117635000D01*
X194140000Y-124630000D02*
X192440000Y-124630000D01*
X198940000Y-120930000D02*
X198940000Y-120780000D01*
X198940000Y-120780000D02*
X194140000Y-120780000D01*
X194140000Y-120780000D02*
X194140000Y-120930000D01*
X194140000Y-124630000D02*
X194140000Y-124780000D01*
X194140000Y-124780000D02*
X198940000Y-124780000D01*
X198940000Y-124780000D02*
X198940000Y-124630000D01*
X209700000Y-105420000D02*
X211200000Y-105420000D01*
X209700000Y-105420000D02*
X208200000Y-105420000D01*
X209700000Y-108640000D02*
X211200000Y-108640000D01*
X209700000Y-108640000D02*
X206775000Y-108640000D01*
X182440000Y-107900000D02*
X182440000Y-106400000D01*
X182440000Y-107900000D02*
X182440000Y-109400000D01*
X185660000Y-107900000D02*
X185660000Y-106400000D01*
X185660000Y-107900000D02*
X185660000Y-110825000D01*
X176435000Y-114050000D02*
X176435000Y-116000000D01*
X176435000Y-114050000D02*
X176435000Y-112100000D01*
X167565000Y-114050000D02*
X167565000Y-116000000D01*
X167565000Y-114050000D02*
X167565000Y-110600000D01*
X164272936Y-109985000D02*
X164727064Y-109985000D01*
X164272936Y-108515000D02*
X164727064Y-108515000D01*
X164272936Y-106735000D02*
X164727064Y-106735000D01*
X164272936Y-105265000D02*
X164727064Y-105265000D01*
X180322936Y-117455000D02*
X180777064Y-117455000D01*
X180322936Y-115985000D02*
X180777064Y-115985000D01*
X179715000Y-107922936D02*
X179715000Y-108377064D01*
X181185000Y-107922936D02*
X181185000Y-108377064D01*
X177715000Y-107922936D02*
X177715000Y-108377064D01*
X179185000Y-107922936D02*
X179185000Y-108377064D01*
X190255000Y-122202936D02*
X190255000Y-122657064D01*
X191725000Y-122202936D02*
X191725000Y-122657064D01*
X202777064Y-109575000D02*
X202322936Y-109575000D01*
X202777064Y-111045000D02*
X202322936Y-111045000D01*
X202352936Y-108895000D02*
X202807064Y-108895000D01*
X202352936Y-107425000D02*
X202807064Y-107425000D01*
X205242936Y-113915000D02*
X205697064Y-113915000D01*
X205242936Y-112445000D02*
X205697064Y-112445000D01*
X207372936Y-102915000D02*
X207827064Y-102915000D01*
X207372936Y-101445000D02*
X207827064Y-101445000D01*
X215792936Y-104915000D02*
X216247064Y-104915000D01*
X215792936Y-103445000D02*
X216247064Y-103445000D01*
X176277064Y-104115000D02*
X175822936Y-104115000D01*
X176277064Y-105585000D02*
X175822936Y-105585000D01*
X191822936Y-105595000D02*
X192277064Y-105595000D01*
X191822936Y-104125000D02*
X192277064Y-104125000D01*
X210060000Y-119273333D02*
X210060000Y-116940000D01*
X210060000Y-116940000D02*
X207726667Y-116940000D01*
X209680000Y-117320000D02*
X202440000Y-117320000D01*
X202440000Y-117320000D02*
X202440000Y-119590000D01*
X202440000Y-122290000D02*
X202440000Y-124560000D01*
X209680000Y-124560000D02*
X202440000Y-124560000D01*
X209680000Y-117320000D02*
X209680000Y-119590000D01*
X209680000Y-122290000D02*
X209680000Y-124560000D01*
X210600000Y-117750000D02*
X213900000Y-117750000D01*
X213900000Y-117750000D02*
X213900000Y-123150000D01*
X210600000Y-117750000D02*
X210600000Y-123150000D01*
X203911252Y-104040000D02*
X202488748Y-104040000D01*
X203911252Y-106760000D02*
X202488748Y-106760000D01*
X208898748Y-113875000D02*
X209421252Y-113875000D01*
X208898748Y-112405000D02*
X209421252Y-112405000D01*
X208898748Y-116005000D02*
X209421252Y-116005000D01*
X208898748Y-114535000D02*
X209421252Y-114535000D01*
X203328748Y-116005000D02*
X203851252Y-116005000D01*
X203328748Y-114535000D02*
X203851252Y-114535000D01*
X215778748Y-108565000D02*
X216301252Y-108565000D01*
X215778748Y-107095000D02*
X216301252Y-107095000D01*
X224838748Y-104065000D02*
X225361252Y-104065000D01*
X224838748Y-102595000D02*
X225361252Y-102595000D01*
X220138748Y-104290000D02*
X221561252Y-104290000D01*
X220138748Y-102470000D02*
X221561252Y-102470000D01*
X163828748Y-114985000D02*
X164351252Y-114985000D01*
X163828748Y-113515000D02*
X164351252Y-113515000D01*
X189138748Y-110285000D02*
X189661252Y-110285000D01*
X189138748Y-108815000D02*
X189661252Y-108815000D01*
X163828748Y-117085000D02*
X164351252Y-117085000D01*
X163828748Y-115615000D02*
X164351252Y-115615000D01*
X189138748Y-112585000D02*
X189661252Y-112585000D01*
X189138748Y-111115000D02*
X189661252Y-111115000D01*
D10*
X153047619Y-95411904D02*
X152238095Y-95411904D01*
X152142857Y-95364285D01*
X152095238Y-95316666D01*
X152047619Y-95221428D01*
X152047619Y-95030952D01*
X152095238Y-94935714D01*
X152142857Y-94888095D01*
X152238095Y-94840476D01*
X153047619Y-94840476D01*
X152619047Y-94221428D02*
X152666666Y-94316666D01*
X152714285Y-94364285D01*
X152809523Y-94411904D01*
X152857142Y-94411904D01*
X152952380Y-94364285D01*
X153000000Y-94316666D01*
X153047619Y-94221428D01*
X153047619Y-94030952D01*
X153000000Y-93935714D01*
X152952380Y-93888095D01*
X152857142Y-93840476D01*
X152809523Y-93840476D01*
X152714285Y-93888095D01*
X152666666Y-93935714D01*
X152619047Y-94030952D01*
X152619047Y-94221428D01*
X152571428Y-94316666D01*
X152523809Y-94364285D01*
X152428571Y-94411904D01*
X152238095Y-94411904D01*
X152142857Y-94364285D01*
X152095238Y-94316666D01*
X152047619Y-94221428D01*
X152047619Y-94030952D01*
X152095238Y-93935714D01*
X152142857Y-93888095D01*
X152238095Y-93840476D01*
X152428571Y-93840476D01*
X152523809Y-93888095D01*
X152571428Y-93935714D01*
X152619047Y-94030952D01*
X148664285Y-92652380D02*
X149235714Y-92652380D01*
X148950000Y-92652380D02*
X148950000Y-91652380D01*
X149045238Y-91795238D01*
X149140476Y-91890476D01*
X149235714Y-91938095D01*
X163747619Y-95411904D02*
X162938095Y-95411904D01*
X162842857Y-95364285D01*
X162795238Y-95316666D01*
X162747619Y-95221428D01*
X162747619Y-95030952D01*
X162795238Y-94935714D01*
X162842857Y-94888095D01*
X162938095Y-94840476D01*
X163747619Y-94840476D01*
X163747619Y-94459523D02*
X163747619Y-93792857D01*
X162747619Y-94221428D01*
X159264285Y-92652380D02*
X159835714Y-92652380D01*
X159550000Y-92652380D02*
X159550000Y-91652380D01*
X159645238Y-91795238D01*
X159740476Y-91890476D01*
X159835714Y-91938095D01*
X151711904Y-115802380D02*
X151711904Y-116611904D01*
X151664285Y-116707142D01*
X151616666Y-116754761D01*
X151521428Y-116802380D01*
X151330952Y-116802380D01*
X151235714Y-116754761D01*
X151188095Y-116707142D01*
X151140476Y-116611904D01*
X151140476Y-115802380D01*
X150235714Y-115802380D02*
X150426190Y-115802380D01*
X150521428Y-115850000D01*
X150569047Y-115897619D01*
X150664285Y-116040476D01*
X150711904Y-116230952D01*
X150711904Y-116611904D01*
X150664285Y-116707142D01*
X150616666Y-116754761D01*
X150521428Y-116802380D01*
X150330952Y-116802380D01*
X150235714Y-116754761D01*
X150188095Y-116707142D01*
X150140476Y-116611904D01*
X150140476Y-116373809D01*
X150188095Y-116278571D01*
X150235714Y-116230952D01*
X150330952Y-116183333D01*
X150521428Y-116183333D01*
X150616666Y-116230952D01*
X150664285Y-116278571D01*
X150711904Y-116373809D01*
X174547619Y-95411904D02*
X173738095Y-95411904D01*
X173642857Y-95364285D01*
X173595238Y-95316666D01*
X173547619Y-95221428D01*
X173547619Y-95030952D01*
X173595238Y-94935714D01*
X173642857Y-94888095D01*
X173738095Y-94840476D01*
X174547619Y-94840476D01*
X174214285Y-93935714D02*
X173547619Y-93935714D01*
X174595238Y-94173809D02*
X173880952Y-94411904D01*
X173880952Y-93792857D01*
X169864285Y-92652380D02*
X170435714Y-92652380D01*
X170150000Y-92652380D02*
X170150000Y-91652380D01*
X170245238Y-91795238D01*
X170340476Y-91890476D01*
X170435714Y-91938095D01*
X152942857Y-123602380D02*
X153276190Y-123126190D01*
X153514285Y-123602380D02*
X153514285Y-122602380D01*
X153133333Y-122602380D01*
X153038095Y-122650000D01*
X152990476Y-122697619D01*
X152942857Y-122792857D01*
X152942857Y-122935714D01*
X152990476Y-123030952D01*
X153038095Y-123078571D01*
X153133333Y-123126190D01*
X153514285Y-123126190D01*
X152561904Y-122697619D02*
X152514285Y-122650000D01*
X152419047Y-122602380D01*
X152180952Y-122602380D01*
X152085714Y-122650000D01*
X152038095Y-122697619D01*
X151990476Y-122792857D01*
X151990476Y-122888095D01*
X152038095Y-123030952D01*
X152609523Y-123602380D01*
X151990476Y-123602380D01*
X151038095Y-123602380D02*
X151609523Y-123602380D01*
X151323809Y-123602380D02*
X151323809Y-122602380D01*
X151419047Y-122745238D01*
X151514285Y-122840476D01*
X151609523Y-122888095D01*
X156842857Y-105502380D02*
X157176190Y-105026190D01*
X157414285Y-105502380D02*
X157414285Y-104502380D01*
X157033333Y-104502380D01*
X156938095Y-104550000D01*
X156890476Y-104597619D01*
X156842857Y-104692857D01*
X156842857Y-104835714D01*
X156890476Y-104930952D01*
X156938095Y-104978571D01*
X157033333Y-105026190D01*
X157414285Y-105026190D01*
X156461904Y-104597619D02*
X156414285Y-104550000D01*
X156319047Y-104502380D01*
X156080952Y-104502380D01*
X155985714Y-104550000D01*
X155938095Y-104597619D01*
X155890476Y-104692857D01*
X155890476Y-104788095D01*
X155938095Y-104930952D01*
X156509523Y-105502380D01*
X155890476Y-105502380D01*
X155271428Y-104502380D02*
X155176190Y-104502380D01*
X155080952Y-104550000D01*
X155033333Y-104597619D01*
X154985714Y-104692857D01*
X154938095Y-104883333D01*
X154938095Y-105121428D01*
X154985714Y-105311904D01*
X155033333Y-105407142D01*
X155080952Y-105454761D01*
X155176190Y-105502380D01*
X155271428Y-105502380D01*
X155366666Y-105454761D01*
X155414285Y-105407142D01*
X155461904Y-105311904D01*
X155509523Y-105121428D01*
X155509523Y-104883333D01*
X155461904Y-104692857D01*
X155414285Y-104597619D01*
X155366666Y-104550000D01*
X155271428Y-104502380D01*
X148992857Y-123602380D02*
X149326190Y-123126190D01*
X149564285Y-123602380D02*
X149564285Y-122602380D01*
X149183333Y-122602380D01*
X149088095Y-122650000D01*
X149040476Y-122697619D01*
X148992857Y-122792857D01*
X148992857Y-122935714D01*
X149040476Y-123030952D01*
X149088095Y-123078571D01*
X149183333Y-123126190D01*
X149564285Y-123126190D01*
X148040476Y-123602380D02*
X148611904Y-123602380D01*
X148326190Y-123602380D02*
X148326190Y-122602380D01*
X148421428Y-122745238D01*
X148516666Y-122840476D01*
X148611904Y-122888095D01*
X147564285Y-123602380D02*
X147373809Y-123602380D01*
X147278571Y-123554761D01*
X147230952Y-123507142D01*
X147135714Y-123364285D01*
X147088095Y-123173809D01*
X147088095Y-122792857D01*
X147135714Y-122697619D01*
X147183333Y-122650000D01*
X147278571Y-122602380D01*
X147469047Y-122602380D01*
X147564285Y-122650000D01*
X147611904Y-122697619D01*
X147659523Y-122792857D01*
X147659523Y-123030952D01*
X147611904Y-123126190D01*
X147564285Y-123173809D01*
X147469047Y-123221428D01*
X147278571Y-123221428D01*
X147183333Y-123173809D01*
X147135714Y-123126190D01*
X147088095Y-123030952D01*
X160692857Y-88702380D02*
X161026190Y-88226190D01*
X161264285Y-88702380D02*
X161264285Y-87702380D01*
X160883333Y-87702380D01*
X160788095Y-87750000D01*
X160740476Y-87797619D01*
X160692857Y-87892857D01*
X160692857Y-88035714D01*
X160740476Y-88130952D01*
X160788095Y-88178571D01*
X160883333Y-88226190D01*
X161264285Y-88226190D01*
X159740476Y-88702380D02*
X160311904Y-88702380D01*
X160026190Y-88702380D02*
X160026190Y-87702380D01*
X160121428Y-87845238D01*
X160216666Y-87940476D01*
X160311904Y-87988095D01*
X159169047Y-88130952D02*
X159264285Y-88083333D01*
X159311904Y-88035714D01*
X159359523Y-87940476D01*
X159359523Y-87892857D01*
X159311904Y-87797619D01*
X159264285Y-87750000D01*
X159169047Y-87702380D01*
X158978571Y-87702380D01*
X158883333Y-87750000D01*
X158835714Y-87797619D01*
X158788095Y-87892857D01*
X158788095Y-87940476D01*
X158835714Y-88035714D01*
X158883333Y-88083333D01*
X158978571Y-88130952D01*
X159169047Y-88130952D01*
X159264285Y-88178571D01*
X159311904Y-88226190D01*
X159359523Y-88321428D01*
X159359523Y-88511904D01*
X159311904Y-88607142D01*
X159264285Y-88654761D01*
X159169047Y-88702380D01*
X158978571Y-88702380D01*
X158883333Y-88654761D01*
X158835714Y-88607142D01*
X158788095Y-88511904D01*
X158788095Y-88321428D01*
X158835714Y-88226190D01*
X158883333Y-88178571D01*
X158978571Y-88130952D01*
X171392857Y-88802380D02*
X171726190Y-88326190D01*
X171964285Y-88802380D02*
X171964285Y-87802380D01*
X171583333Y-87802380D01*
X171488095Y-87850000D01*
X171440476Y-87897619D01*
X171392857Y-87992857D01*
X171392857Y-88135714D01*
X171440476Y-88230952D01*
X171488095Y-88278571D01*
X171583333Y-88326190D01*
X171964285Y-88326190D01*
X170440476Y-88802380D02*
X171011904Y-88802380D01*
X170726190Y-88802380D02*
X170726190Y-87802380D01*
X170821428Y-87945238D01*
X170916666Y-88040476D01*
X171011904Y-88088095D01*
X170107142Y-87802380D02*
X169440476Y-87802380D01*
X169869047Y-88802380D01*
X152992857Y-88752380D02*
X153326190Y-88276190D01*
X153564285Y-88752380D02*
X153564285Y-87752380D01*
X153183333Y-87752380D01*
X153088095Y-87800000D01*
X153040476Y-87847619D01*
X152992857Y-87942857D01*
X152992857Y-88085714D01*
X153040476Y-88180952D01*
X153088095Y-88228571D01*
X153183333Y-88276190D01*
X153564285Y-88276190D01*
X152040476Y-88752380D02*
X152611904Y-88752380D01*
X152326190Y-88752380D02*
X152326190Y-87752380D01*
X152421428Y-87895238D01*
X152516666Y-87990476D01*
X152611904Y-88038095D01*
X151707142Y-87752380D02*
X151088095Y-87752380D01*
X151421428Y-88133333D01*
X151278571Y-88133333D01*
X151183333Y-88180952D01*
X151135714Y-88228571D01*
X151088095Y-88323809D01*
X151088095Y-88561904D01*
X151135714Y-88657142D01*
X151183333Y-88704761D01*
X151278571Y-88752380D01*
X151564285Y-88752380D01*
X151659523Y-88704761D01*
X151707142Y-88657142D01*
X164392857Y-104252380D02*
X164726190Y-103776190D01*
X164964285Y-104252380D02*
X164964285Y-103252380D01*
X164583333Y-103252380D01*
X164488095Y-103300000D01*
X164440476Y-103347619D01*
X164392857Y-103442857D01*
X164392857Y-103585714D01*
X164440476Y-103680952D01*
X164488095Y-103728571D01*
X164583333Y-103776190D01*
X164964285Y-103776190D01*
X163440476Y-104252380D02*
X164011904Y-104252380D01*
X163726190Y-104252380D02*
X163726190Y-103252380D01*
X163821428Y-103395238D01*
X163916666Y-103490476D01*
X164011904Y-103538095D01*
X163059523Y-103347619D02*
X163011904Y-103300000D01*
X162916666Y-103252380D01*
X162678571Y-103252380D01*
X162583333Y-103300000D01*
X162535714Y-103347619D01*
X162488095Y-103442857D01*
X162488095Y-103538095D01*
X162535714Y-103680952D01*
X163107142Y-104252380D01*
X162488095Y-104252380D01*
X149692857Y-104207142D02*
X149740476Y-104254761D01*
X149883333Y-104302380D01*
X149978571Y-104302380D01*
X150121428Y-104254761D01*
X150216666Y-104159523D01*
X150264285Y-104064285D01*
X150311904Y-103873809D01*
X150311904Y-103730952D01*
X150264285Y-103540476D01*
X150216666Y-103445238D01*
X150121428Y-103350000D01*
X149978571Y-103302380D01*
X149883333Y-103302380D01*
X149740476Y-103350000D01*
X149692857Y-103397619D01*
X148740476Y-104302380D02*
X149311904Y-104302380D01*
X149026190Y-104302380D02*
X149026190Y-103302380D01*
X149121428Y-103445238D01*
X149216666Y-103540476D01*
X149311904Y-103588095D01*
X148407142Y-103302380D02*
X147740476Y-103302380D01*
X148169047Y-104302380D01*
X157942857Y-118937142D02*
X157990476Y-118984761D01*
X158133333Y-119032380D01*
X158228571Y-119032380D01*
X158371428Y-118984761D01*
X158466666Y-118889523D01*
X158514285Y-118794285D01*
X158561904Y-118603809D01*
X158561904Y-118460952D01*
X158514285Y-118270476D01*
X158466666Y-118175238D01*
X158371428Y-118080000D01*
X158228571Y-118032380D01*
X158133333Y-118032380D01*
X157990476Y-118080000D01*
X157942857Y-118127619D01*
X156990476Y-119032380D02*
X157561904Y-119032380D01*
X157276190Y-119032380D02*
X157276190Y-118032380D01*
X157371428Y-118175238D01*
X157466666Y-118270476D01*
X157561904Y-118318095D01*
X156133333Y-118032380D02*
X156323809Y-118032380D01*
X156419047Y-118080000D01*
X156466666Y-118127619D01*
X156561904Y-118270476D01*
X156609523Y-118460952D01*
X156609523Y-118841904D01*
X156561904Y-118937142D01*
X156514285Y-118984761D01*
X156419047Y-119032380D01*
X156228571Y-119032380D01*
X156133333Y-118984761D01*
X156085714Y-118937142D01*
X156038095Y-118841904D01*
X156038095Y-118603809D01*
X156085714Y-118508571D01*
X156133333Y-118460952D01*
X156228571Y-118413333D01*
X156419047Y-118413333D01*
X156514285Y-118460952D01*
X156561904Y-118508571D01*
X156609523Y-118603809D01*
X157892857Y-113007142D02*
X157940476Y-113054761D01*
X158083333Y-113102380D01*
X158178571Y-113102380D01*
X158321428Y-113054761D01*
X158416666Y-112959523D01*
X158464285Y-112864285D01*
X158511904Y-112673809D01*
X158511904Y-112530952D01*
X158464285Y-112340476D01*
X158416666Y-112245238D01*
X158321428Y-112150000D01*
X158178571Y-112102380D01*
X158083333Y-112102380D01*
X157940476Y-112150000D01*
X157892857Y-112197619D01*
X156940476Y-113102380D02*
X157511904Y-113102380D01*
X157226190Y-113102380D02*
X157226190Y-112102380D01*
X157321428Y-112245238D01*
X157416666Y-112340476D01*
X157511904Y-112388095D01*
X156035714Y-112102380D02*
X156511904Y-112102380D01*
X156559523Y-112578571D01*
X156511904Y-112530952D01*
X156416666Y-112483333D01*
X156178571Y-112483333D01*
X156083333Y-112530952D01*
X156035714Y-112578571D01*
X155988095Y-112673809D01*
X155988095Y-112911904D01*
X156035714Y-113007142D01*
X156083333Y-113054761D01*
X156178571Y-113102380D01*
X156416666Y-113102380D01*
X156511904Y-113054761D01*
X156559523Y-113007142D01*
X171042857Y-104257142D02*
X171090476Y-104304761D01*
X171233333Y-104352380D01*
X171328571Y-104352380D01*
X171471428Y-104304761D01*
X171566666Y-104209523D01*
X171614285Y-104114285D01*
X171661904Y-103923809D01*
X171661904Y-103780952D01*
X171614285Y-103590476D01*
X171566666Y-103495238D01*
X171471428Y-103400000D01*
X171328571Y-103352380D01*
X171233333Y-103352380D01*
X171090476Y-103400000D01*
X171042857Y-103447619D01*
X170090476Y-104352380D02*
X170661904Y-104352380D01*
X170376190Y-104352380D02*
X170376190Y-103352380D01*
X170471428Y-103495238D01*
X170566666Y-103590476D01*
X170661904Y-103638095D01*
X169757142Y-103352380D02*
X169138095Y-103352380D01*
X169471428Y-103733333D01*
X169328571Y-103733333D01*
X169233333Y-103780952D01*
X169185714Y-103828571D01*
X169138095Y-103923809D01*
X169138095Y-104161904D01*
X169185714Y-104257142D01*
X169233333Y-104304761D01*
X169328571Y-104352380D01*
X169614285Y-104352380D01*
X169709523Y-104304761D01*
X169757142Y-104257142D01*
X160892857Y-104187142D02*
X160940476Y-104234761D01*
X161083333Y-104282380D01*
X161178571Y-104282380D01*
X161321428Y-104234761D01*
X161416666Y-104139523D01*
X161464285Y-104044285D01*
X161511904Y-103853809D01*
X161511904Y-103710952D01*
X161464285Y-103520476D01*
X161416666Y-103425238D01*
X161321428Y-103330000D01*
X161178571Y-103282380D01*
X161083333Y-103282380D01*
X160940476Y-103330000D01*
X160892857Y-103377619D01*
X159940476Y-104282380D02*
X160511904Y-104282380D01*
X160226190Y-104282380D02*
X160226190Y-103282380D01*
X160321428Y-103425238D01*
X160416666Y-103520476D01*
X160511904Y-103568095D01*
X159559523Y-103377619D02*
X159511904Y-103330000D01*
X159416666Y-103282380D01*
X159178571Y-103282380D01*
X159083333Y-103330000D01*
X159035714Y-103377619D01*
X158988095Y-103472857D01*
X158988095Y-103568095D01*
X159035714Y-103710952D01*
X159607142Y-104282380D01*
X158988095Y-104282380D01*
X189442857Y-106957142D02*
X189490476Y-107004761D01*
X189633333Y-107052380D01*
X189728571Y-107052380D01*
X189871428Y-107004761D01*
X189966666Y-106909523D01*
X190014285Y-106814285D01*
X190061904Y-106623809D01*
X190061904Y-106480952D01*
X190014285Y-106290476D01*
X189966666Y-106195238D01*
X189871428Y-106100000D01*
X189728571Y-106052380D01*
X189633333Y-106052380D01*
X189490476Y-106100000D01*
X189442857Y-106147619D01*
X188490476Y-107052380D02*
X189061904Y-107052380D01*
X188776190Y-107052380D02*
X188776190Y-106052380D01*
X188871428Y-106195238D01*
X188966666Y-106290476D01*
X189061904Y-106338095D01*
X187633333Y-106385714D02*
X187633333Y-107052380D01*
X187871428Y-106004761D02*
X188109523Y-106719047D01*
X187490476Y-106719047D01*
X161612857Y-118832380D02*
X161946190Y-118356190D01*
X162184285Y-118832380D02*
X162184285Y-117832380D01*
X161803333Y-117832380D01*
X161708095Y-117880000D01*
X161660476Y-117927619D01*
X161612857Y-118022857D01*
X161612857Y-118165714D01*
X161660476Y-118260952D01*
X161708095Y-118308571D01*
X161803333Y-118356190D01*
X162184285Y-118356190D01*
X160660476Y-118832380D02*
X161231904Y-118832380D01*
X160946190Y-118832380D02*
X160946190Y-117832380D01*
X161041428Y-117975238D01*
X161136666Y-118070476D01*
X161231904Y-118118095D01*
X159803333Y-117832380D02*
X159993809Y-117832380D01*
X160089047Y-117880000D01*
X160136666Y-117927619D01*
X160231904Y-118070476D01*
X160279523Y-118260952D01*
X160279523Y-118641904D01*
X160231904Y-118737142D01*
X160184285Y-118784761D01*
X160089047Y-118832380D01*
X159898571Y-118832380D01*
X159803333Y-118784761D01*
X159755714Y-118737142D01*
X159708095Y-118641904D01*
X159708095Y-118403809D01*
X159755714Y-118308571D01*
X159803333Y-118260952D01*
X159898571Y-118213333D01*
X160089047Y-118213333D01*
X160184285Y-118260952D01*
X160231904Y-118308571D01*
X160279523Y-118403809D01*
X197171904Y-125122380D02*
X197171904Y-125931904D01*
X197124285Y-126027142D01*
X197076666Y-126074761D01*
X196981428Y-126122380D01*
X196790952Y-126122380D01*
X196695714Y-126074761D01*
X196648095Y-126027142D01*
X196600476Y-125931904D01*
X196600476Y-125122380D01*
X195600476Y-126122380D02*
X196171904Y-126122380D01*
X195886190Y-126122380D02*
X195886190Y-125122380D01*
X195981428Y-125265238D01*
X196076666Y-125360476D01*
X196171904Y-125408095D01*
X211011904Y-109002380D02*
X211011904Y-109811904D01*
X210964285Y-109907142D01*
X210916666Y-109954761D01*
X210821428Y-110002380D01*
X210630952Y-110002380D01*
X210535714Y-109954761D01*
X210488095Y-109907142D01*
X210440476Y-109811904D01*
X210440476Y-109002380D01*
X209488095Y-109002380D02*
X209964285Y-109002380D01*
X210011904Y-109478571D01*
X209964285Y-109430952D01*
X209869047Y-109383333D01*
X209630952Y-109383333D01*
X209535714Y-109430952D01*
X209488095Y-109478571D01*
X209440476Y-109573809D01*
X209440476Y-109811904D01*
X209488095Y-109907142D01*
X209535714Y-109954761D01*
X209630952Y-110002380D01*
X209869047Y-110002380D01*
X209964285Y-109954761D01*
X210011904Y-109907142D01*
X185952380Y-107138095D02*
X186761904Y-107138095D01*
X186857142Y-107185714D01*
X186904761Y-107233333D01*
X186952380Y-107328571D01*
X186952380Y-107519047D01*
X186904761Y-107614285D01*
X186857142Y-107661904D01*
X186761904Y-107709523D01*
X185952380Y-107709523D01*
X185952380Y-108090476D02*
X185952380Y-108709523D01*
X186333333Y-108376190D01*
X186333333Y-108519047D01*
X186380952Y-108614285D01*
X186428571Y-108661904D01*
X186523809Y-108709523D01*
X186761904Y-108709523D01*
X186857142Y-108661904D01*
X186904761Y-108614285D01*
X186952380Y-108519047D01*
X186952380Y-108233333D01*
X186904761Y-108138095D01*
X186857142Y-108090476D01*
X176852380Y-113588095D02*
X177661904Y-113588095D01*
X177757142Y-113635714D01*
X177804761Y-113683333D01*
X177852380Y-113778571D01*
X177852380Y-113969047D01*
X177804761Y-114064285D01*
X177757142Y-114111904D01*
X177661904Y-114159523D01*
X176852380Y-114159523D01*
X176947619Y-114588095D02*
X176900000Y-114635714D01*
X176852380Y-114730952D01*
X176852380Y-114969047D01*
X176900000Y-115064285D01*
X176947619Y-115111904D01*
X177042857Y-115159523D01*
X177138095Y-115159523D01*
X177280952Y-115111904D01*
X177852380Y-114540476D01*
X177852380Y-115159523D01*
X165142857Y-111352380D02*
X165476190Y-110876190D01*
X165714285Y-111352380D02*
X165714285Y-110352380D01*
X165333333Y-110352380D01*
X165238095Y-110400000D01*
X165190476Y-110447619D01*
X165142857Y-110542857D01*
X165142857Y-110685714D01*
X165190476Y-110780952D01*
X165238095Y-110828571D01*
X165333333Y-110876190D01*
X165714285Y-110876190D01*
X164190476Y-111352380D02*
X164761904Y-111352380D01*
X164476190Y-111352380D02*
X164476190Y-110352380D01*
X164571428Y-110495238D01*
X164666666Y-110590476D01*
X164761904Y-110638095D01*
X163285714Y-110352380D02*
X163761904Y-110352380D01*
X163809523Y-110828571D01*
X163761904Y-110780952D01*
X163666666Y-110733333D01*
X163428571Y-110733333D01*
X163333333Y-110780952D01*
X163285714Y-110828571D01*
X163238095Y-110923809D01*
X163238095Y-111161904D01*
X163285714Y-111257142D01*
X163333333Y-111304761D01*
X163428571Y-111352380D01*
X163666666Y-111352380D01*
X163761904Y-111304761D01*
X163809523Y-111257142D01*
X165142857Y-108102380D02*
X165476190Y-107626190D01*
X165714285Y-108102380D02*
X165714285Y-107102380D01*
X165333333Y-107102380D01*
X165238095Y-107150000D01*
X165190476Y-107197619D01*
X165142857Y-107292857D01*
X165142857Y-107435714D01*
X165190476Y-107530952D01*
X165238095Y-107578571D01*
X165333333Y-107626190D01*
X165714285Y-107626190D01*
X164190476Y-108102380D02*
X164761904Y-108102380D01*
X164476190Y-108102380D02*
X164476190Y-107102380D01*
X164571428Y-107245238D01*
X164666666Y-107340476D01*
X164761904Y-107388095D01*
X163333333Y-107435714D02*
X163333333Y-108102380D01*
X163571428Y-107054761D02*
X163809523Y-107769047D01*
X163190476Y-107769047D01*
X181192857Y-118822380D02*
X181526190Y-118346190D01*
X181764285Y-118822380D02*
X181764285Y-117822380D01*
X181383333Y-117822380D01*
X181288095Y-117870000D01*
X181240476Y-117917619D01*
X181192857Y-118012857D01*
X181192857Y-118155714D01*
X181240476Y-118250952D01*
X181288095Y-118298571D01*
X181383333Y-118346190D01*
X181764285Y-118346190D01*
X180240476Y-118822380D02*
X180811904Y-118822380D01*
X180526190Y-118822380D02*
X180526190Y-117822380D01*
X180621428Y-117965238D01*
X180716666Y-118060476D01*
X180811904Y-118108095D01*
X179288095Y-118822380D02*
X179859523Y-118822380D01*
X179573809Y-118822380D02*
X179573809Y-117822380D01*
X179669047Y-117965238D01*
X179764285Y-118060476D01*
X179859523Y-118108095D01*
X180922380Y-110623332D02*
X180446190Y-110289999D01*
X180922380Y-110051904D02*
X179922380Y-110051904D01*
X179922380Y-110432856D01*
X179970000Y-110528094D01*
X180017619Y-110575713D01*
X180112857Y-110623332D01*
X180255714Y-110623332D01*
X180350952Y-110575713D01*
X180398571Y-110528094D01*
X180446190Y-110432856D01*
X180446190Y-110051904D01*
X180922380Y-111575713D02*
X180922380Y-111004285D01*
X180922380Y-111289999D02*
X179922380Y-111289999D01*
X180065238Y-111194761D01*
X180160476Y-111099523D01*
X180208095Y-111004285D01*
X179922380Y-112194761D02*
X179922380Y-112289999D01*
X179970000Y-112385237D01*
X180017619Y-112432856D01*
X180112857Y-112480475D01*
X180303333Y-112528094D01*
X180541428Y-112528094D01*
X180731904Y-112480475D01*
X180827142Y-112432856D01*
X180874761Y-112385237D01*
X180922380Y-112289999D01*
X180922380Y-112194761D01*
X180874761Y-112099523D01*
X180827142Y-112051904D01*
X180731904Y-112004285D01*
X180541428Y-111956666D01*
X180303333Y-111956666D01*
X180112857Y-112004285D01*
X180017619Y-112051904D01*
X179970000Y-112099523D01*
X179922380Y-112194761D01*
X179022380Y-110623333D02*
X178546190Y-110290000D01*
X179022380Y-110051904D02*
X178022380Y-110051904D01*
X178022380Y-110432857D01*
X178070000Y-110528095D01*
X178117619Y-110575714D01*
X178212857Y-110623333D01*
X178355714Y-110623333D01*
X178450952Y-110575714D01*
X178498571Y-110528095D01*
X178546190Y-110432857D01*
X178546190Y-110051904D01*
X179022380Y-111099523D02*
X179022380Y-111290000D01*
X178974761Y-111385238D01*
X178927142Y-111432857D01*
X178784285Y-111528095D01*
X178593809Y-111575714D01*
X178212857Y-111575714D01*
X178117619Y-111528095D01*
X178070000Y-111480476D01*
X178022380Y-111385238D01*
X178022380Y-111194761D01*
X178070000Y-111099523D01*
X178117619Y-111051904D01*
X178212857Y-111004285D01*
X178450952Y-111004285D01*
X178546190Y-111051904D01*
X178593809Y-111099523D01*
X178641428Y-111194761D01*
X178641428Y-111385238D01*
X178593809Y-111480476D01*
X178546190Y-111528095D01*
X178450952Y-111575714D01*
X189792380Y-122263333D02*
X189316190Y-121930000D01*
X189792380Y-121691904D02*
X188792380Y-121691904D01*
X188792380Y-122072857D01*
X188840000Y-122168095D01*
X188887619Y-122215714D01*
X188982857Y-122263333D01*
X189125714Y-122263333D01*
X189220952Y-122215714D01*
X189268571Y-122168095D01*
X189316190Y-122072857D01*
X189316190Y-121691904D01*
X189220952Y-122834761D02*
X189173333Y-122739523D01*
X189125714Y-122691904D01*
X189030476Y-122644285D01*
X188982857Y-122644285D01*
X188887619Y-122691904D01*
X188840000Y-122739523D01*
X188792380Y-122834761D01*
X188792380Y-123025238D01*
X188840000Y-123120476D01*
X188887619Y-123168095D01*
X188982857Y-123215714D01*
X189030476Y-123215714D01*
X189125714Y-123168095D01*
X189173333Y-123120476D01*
X189220952Y-123025238D01*
X189220952Y-122834761D01*
X189268571Y-122739523D01*
X189316190Y-122691904D01*
X189411428Y-122644285D01*
X189601904Y-122644285D01*
X189697142Y-122691904D01*
X189744761Y-122739523D01*
X189792380Y-122834761D01*
X189792380Y-123025238D01*
X189744761Y-123120476D01*
X189697142Y-123168095D01*
X189601904Y-123215714D01*
X189411428Y-123215714D01*
X189316190Y-123168095D01*
X189268571Y-123120476D01*
X189220952Y-123025238D01*
X205366666Y-110852380D02*
X205700000Y-110376190D01*
X205938095Y-110852380D02*
X205938095Y-109852380D01*
X205557142Y-109852380D01*
X205461904Y-109900000D01*
X205414285Y-109947619D01*
X205366666Y-110042857D01*
X205366666Y-110185714D01*
X205414285Y-110280952D01*
X205461904Y-110328571D01*
X205557142Y-110376190D01*
X205938095Y-110376190D01*
X205033333Y-109852380D02*
X204366666Y-109852380D01*
X204795238Y-110852380D01*
X200102856Y-108712380D02*
X200436190Y-108236190D01*
X200674285Y-108712380D02*
X200674285Y-107712380D01*
X200293332Y-107712380D01*
X200198094Y-107760000D01*
X200150475Y-107807619D01*
X200102856Y-107902857D01*
X200102856Y-108045714D01*
X200150475Y-108140952D01*
X200198094Y-108188571D01*
X200293332Y-108236190D01*
X200674285Y-108236190D01*
X199245713Y-107712380D02*
X199436190Y-107712380D01*
X199531428Y-107760000D01*
X199579047Y-107807619D01*
X199674285Y-107950476D01*
X199721904Y-108140952D01*
X199721904Y-108521904D01*
X199674285Y-108617142D01*
X199626666Y-108664761D01*
X199531428Y-108712380D01*
X199340951Y-108712380D01*
X199245713Y-108664761D01*
X199198094Y-108617142D01*
X199150475Y-108521904D01*
X199150475Y-108283809D01*
X199198094Y-108188571D01*
X199245713Y-108140952D01*
X199340951Y-108093333D01*
X199531428Y-108093333D01*
X199626666Y-108140952D01*
X199674285Y-108188571D01*
X199721904Y-108283809D01*
X202856666Y-113652380D02*
X203190000Y-113176190D01*
X203428095Y-113652380D02*
X203428095Y-112652380D01*
X203047142Y-112652380D01*
X202951904Y-112700000D01*
X202904285Y-112747619D01*
X202856666Y-112842857D01*
X202856666Y-112985714D01*
X202904285Y-113080952D01*
X202951904Y-113128571D01*
X203047142Y-113176190D01*
X203428095Y-113176190D01*
X201951904Y-112652380D02*
X202428095Y-112652380D01*
X202475714Y-113128571D01*
X202428095Y-113080952D01*
X202332857Y-113033333D01*
X202094761Y-113033333D01*
X201999523Y-113080952D01*
X201951904Y-113128571D01*
X201904285Y-113223809D01*
X201904285Y-113461904D01*
X201951904Y-113557142D01*
X201999523Y-113604761D01*
X202094761Y-113652380D01*
X202332857Y-113652380D01*
X202428095Y-113604761D01*
X202475714Y-113557142D01*
X210466666Y-102832380D02*
X210800000Y-102356190D01*
X211038095Y-102832380D02*
X211038095Y-101832380D01*
X210657142Y-101832380D01*
X210561904Y-101880000D01*
X210514285Y-101927619D01*
X210466666Y-102022857D01*
X210466666Y-102165714D01*
X210514285Y-102260952D01*
X210561904Y-102308571D01*
X210657142Y-102356190D01*
X211038095Y-102356190D01*
X209609523Y-102165714D02*
X209609523Y-102832380D01*
X209847619Y-101784761D02*
X210085714Y-102499047D01*
X209466666Y-102499047D01*
X216266666Y-102952380D02*
X216600000Y-102476190D01*
X216838095Y-102952380D02*
X216838095Y-101952380D01*
X216457142Y-101952380D01*
X216361904Y-102000000D01*
X216314285Y-102047619D01*
X216266666Y-102142857D01*
X216266666Y-102285714D01*
X216314285Y-102380952D01*
X216361904Y-102428571D01*
X216457142Y-102476190D01*
X216838095Y-102476190D01*
X215933333Y-101952380D02*
X215314285Y-101952380D01*
X215647619Y-102333333D01*
X215504761Y-102333333D01*
X215409523Y-102380952D01*
X215361904Y-102428571D01*
X215314285Y-102523809D01*
X215314285Y-102761904D01*
X215361904Y-102857142D01*
X215409523Y-102904761D01*
X215504761Y-102952380D01*
X215790476Y-102952380D01*
X215885714Y-102904761D01*
X215933333Y-102857142D01*
X176066666Y-107052380D02*
X176400000Y-106576190D01*
X176638095Y-107052380D02*
X176638095Y-106052380D01*
X176257142Y-106052380D01*
X176161904Y-106100000D01*
X176114285Y-106147619D01*
X176066666Y-106242857D01*
X176066666Y-106385714D01*
X176114285Y-106480952D01*
X176161904Y-106528571D01*
X176257142Y-106576190D01*
X176638095Y-106576190D01*
X175685714Y-106147619D02*
X175638095Y-106100000D01*
X175542857Y-106052380D01*
X175304761Y-106052380D01*
X175209523Y-106100000D01*
X175161904Y-106147619D01*
X175114285Y-106242857D01*
X175114285Y-106338095D01*
X175161904Y-106480952D01*
X175733333Y-107052380D01*
X175114285Y-107052380D01*
X193116666Y-107002380D02*
X193450000Y-106526190D01*
X193688095Y-107002380D02*
X193688095Y-106002380D01*
X193307142Y-106002380D01*
X193211904Y-106050000D01*
X193164285Y-106097619D01*
X193116666Y-106192857D01*
X193116666Y-106335714D01*
X193164285Y-106430952D01*
X193211904Y-106478571D01*
X193307142Y-106526190D01*
X193688095Y-106526190D01*
X192164285Y-107002380D02*
X192735714Y-107002380D01*
X192450000Y-107002380D02*
X192450000Y-106002380D01*
X192545238Y-106145238D01*
X192640476Y-106240476D01*
X192735714Y-106288095D01*
X206226666Y-121392380D02*
X206702857Y-121392380D01*
X206702857Y-120392380D01*
X205369523Y-121392380D02*
X205940952Y-121392380D01*
X205655238Y-121392380D02*
X205655238Y-120392380D01*
X205750476Y-120535238D01*
X205845714Y-120630476D01*
X205940952Y-120678095D01*
X215795095Y-124356380D02*
X215795095Y-123356380D01*
X215557000Y-123356380D01*
X215414142Y-123404000D01*
X215318904Y-123499238D01*
X215271285Y-123594476D01*
X215223666Y-123784952D01*
X215223666Y-123927809D01*
X215271285Y-124118285D01*
X215318904Y-124213523D01*
X215414142Y-124308761D01*
X215557000Y-124356380D01*
X215795095Y-124356380D01*
X214271285Y-124356380D02*
X214842714Y-124356380D01*
X214557000Y-124356380D02*
X214557000Y-123356380D01*
X214652238Y-123499238D01*
X214747476Y-123594476D01*
X214842714Y-123642095D01*
X200102857Y-104907142D02*
X200150476Y-104954761D01*
X200293333Y-105002380D01*
X200388571Y-105002380D01*
X200531428Y-104954761D01*
X200626666Y-104859523D01*
X200674285Y-104764285D01*
X200721904Y-104573809D01*
X200721904Y-104430952D01*
X200674285Y-104240476D01*
X200626666Y-104145238D01*
X200531428Y-104050000D01*
X200388571Y-104002380D01*
X200293333Y-104002380D01*
X200150476Y-104050000D01*
X200102857Y-104097619D01*
X199150476Y-105002380D02*
X199721904Y-105002380D01*
X199436190Y-105002380D02*
X199436190Y-104002380D01*
X199531428Y-104145238D01*
X199626666Y-104240476D01*
X199721904Y-104288095D01*
X198198095Y-105002380D02*
X198769523Y-105002380D01*
X198483809Y-105002380D02*
X198483809Y-104002380D01*
X198579047Y-104145238D01*
X198674285Y-104240476D01*
X198769523Y-104288095D01*
X210842857Y-111657142D02*
X210890476Y-111704761D01*
X211033333Y-111752380D01*
X211128571Y-111752380D01*
X211271428Y-111704761D01*
X211366666Y-111609523D01*
X211414285Y-111514285D01*
X211461904Y-111323809D01*
X211461904Y-111180952D01*
X211414285Y-110990476D01*
X211366666Y-110895238D01*
X211271428Y-110800000D01*
X211128571Y-110752380D01*
X211033333Y-110752380D01*
X210890476Y-110800000D01*
X210842857Y-110847619D01*
X209890476Y-111752380D02*
X210461904Y-111752380D01*
X210176190Y-111752380D02*
X210176190Y-110752380D01*
X210271428Y-110895238D01*
X210366666Y-110990476D01*
X210461904Y-111038095D01*
X209271428Y-110752380D02*
X209176190Y-110752380D01*
X209080952Y-110800000D01*
X209033333Y-110847619D01*
X208985714Y-110942857D01*
X208938095Y-111133333D01*
X208938095Y-111371428D01*
X208985714Y-111561904D01*
X209033333Y-111657142D01*
X209080952Y-111704761D01*
X209176190Y-111752380D01*
X209271428Y-111752380D01*
X209366666Y-111704761D01*
X209414285Y-111657142D01*
X209461904Y-111561904D01*
X209509523Y-111371428D01*
X209509523Y-111133333D01*
X209461904Y-110942857D01*
X209414285Y-110847619D01*
X209366666Y-110800000D01*
X209271428Y-110752380D01*
X212066666Y-116357142D02*
X212114285Y-116404761D01*
X212257142Y-116452380D01*
X212352380Y-116452380D01*
X212495238Y-116404761D01*
X212590476Y-116309523D01*
X212638095Y-116214285D01*
X212685714Y-116023809D01*
X212685714Y-115880952D01*
X212638095Y-115690476D01*
X212590476Y-115595238D01*
X212495238Y-115500000D01*
X212352380Y-115452380D01*
X212257142Y-115452380D01*
X212114285Y-115500000D01*
X212066666Y-115547619D01*
X211590476Y-116452380D02*
X211400000Y-116452380D01*
X211304761Y-116404761D01*
X211257142Y-116357142D01*
X211161904Y-116214285D01*
X211114285Y-116023809D01*
X211114285Y-115642857D01*
X211161904Y-115547619D01*
X211209523Y-115500000D01*
X211304761Y-115452380D01*
X211495238Y-115452380D01*
X211590476Y-115500000D01*
X211638095Y-115547619D01*
X211685714Y-115642857D01*
X211685714Y-115880952D01*
X211638095Y-115976190D01*
X211590476Y-116023809D01*
X211495238Y-116071428D01*
X211304761Y-116071428D01*
X211209523Y-116023809D01*
X211161904Y-115976190D01*
X211114285Y-115880952D01*
X201066666Y-115757142D02*
X201114285Y-115804761D01*
X201257142Y-115852380D01*
X201352380Y-115852380D01*
X201495238Y-115804761D01*
X201590476Y-115709523D01*
X201638095Y-115614285D01*
X201685714Y-115423809D01*
X201685714Y-115280952D01*
X201638095Y-115090476D01*
X201590476Y-114995238D01*
X201495238Y-114900000D01*
X201352380Y-114852380D01*
X201257142Y-114852380D01*
X201114285Y-114900000D01*
X201066666Y-114947619D01*
X200495238Y-115280952D02*
X200590476Y-115233333D01*
X200638095Y-115185714D01*
X200685714Y-115090476D01*
X200685714Y-115042857D01*
X200638095Y-114947619D01*
X200590476Y-114900000D01*
X200495238Y-114852380D01*
X200304761Y-114852380D01*
X200209523Y-114900000D01*
X200161904Y-114947619D01*
X200114285Y-115042857D01*
X200114285Y-115090476D01*
X200161904Y-115185714D01*
X200209523Y-115233333D01*
X200304761Y-115280952D01*
X200495238Y-115280952D01*
X200590476Y-115328571D01*
X200638095Y-115376190D01*
X200685714Y-115471428D01*
X200685714Y-115661904D01*
X200638095Y-115757142D01*
X200590476Y-115804761D01*
X200495238Y-115852380D01*
X200304761Y-115852380D01*
X200209523Y-115804761D01*
X200161904Y-115757142D01*
X200114285Y-115661904D01*
X200114285Y-115471428D01*
X200161904Y-115376190D01*
X200209523Y-115328571D01*
X200304761Y-115280952D01*
X216316666Y-106557142D02*
X216364285Y-106604761D01*
X216507142Y-106652380D01*
X216602380Y-106652380D01*
X216745238Y-106604761D01*
X216840476Y-106509523D01*
X216888095Y-106414285D01*
X216935714Y-106223809D01*
X216935714Y-106080952D01*
X216888095Y-105890476D01*
X216840476Y-105795238D01*
X216745238Y-105700000D01*
X216602380Y-105652380D01*
X216507142Y-105652380D01*
X216364285Y-105700000D01*
X216316666Y-105747619D01*
X215983333Y-105652380D02*
X215316666Y-105652380D01*
X215745238Y-106652380D01*
X225266666Y-105717142D02*
X225314285Y-105764761D01*
X225457142Y-105812380D01*
X225552380Y-105812380D01*
X225695238Y-105764761D01*
X225790476Y-105669523D01*
X225838095Y-105574285D01*
X225885714Y-105383809D01*
X225885714Y-105240952D01*
X225838095Y-105050476D01*
X225790476Y-104955238D01*
X225695238Y-104860000D01*
X225552380Y-104812380D01*
X225457142Y-104812380D01*
X225314285Y-104860000D01*
X225266666Y-104907619D01*
X224409523Y-104812380D02*
X224600000Y-104812380D01*
X224695238Y-104860000D01*
X224742857Y-104907619D01*
X224838095Y-105050476D01*
X224885714Y-105240952D01*
X224885714Y-105621904D01*
X224838095Y-105717142D01*
X224790476Y-105764761D01*
X224695238Y-105812380D01*
X224504761Y-105812380D01*
X224409523Y-105764761D01*
X224361904Y-105717142D01*
X224314285Y-105621904D01*
X224314285Y-105383809D01*
X224361904Y-105288571D01*
X224409523Y-105240952D01*
X224504761Y-105193333D01*
X224695238Y-105193333D01*
X224790476Y-105240952D01*
X224838095Y-105288571D01*
X224885714Y-105383809D01*
X222296666Y-105717142D02*
X222344285Y-105764761D01*
X222487142Y-105812380D01*
X222582380Y-105812380D01*
X222725238Y-105764761D01*
X222820476Y-105669523D01*
X222868095Y-105574285D01*
X222915714Y-105383809D01*
X222915714Y-105240952D01*
X222868095Y-105050476D01*
X222820476Y-104955238D01*
X222725238Y-104860000D01*
X222582380Y-104812380D01*
X222487142Y-104812380D01*
X222344285Y-104860000D01*
X222296666Y-104907619D01*
X221391904Y-104812380D02*
X221868095Y-104812380D01*
X221915714Y-105288571D01*
X221868095Y-105240952D01*
X221772857Y-105193333D01*
X221534761Y-105193333D01*
X221439523Y-105240952D01*
X221391904Y-105288571D01*
X221344285Y-105383809D01*
X221344285Y-105621904D01*
X221391904Y-105717142D01*
X221439523Y-105764761D01*
X221534761Y-105812380D01*
X221772857Y-105812380D01*
X221868095Y-105764761D01*
X221915714Y-105717142D01*
X161612856Y-114647142D02*
X161660475Y-114694761D01*
X161803332Y-114742380D01*
X161898570Y-114742380D01*
X162041428Y-114694761D01*
X162136666Y-114599523D01*
X162184285Y-114504285D01*
X162231904Y-114313809D01*
X162231904Y-114170952D01*
X162184285Y-113980476D01*
X162136666Y-113885238D01*
X162041428Y-113790000D01*
X161898570Y-113742380D01*
X161803332Y-113742380D01*
X161660475Y-113790000D01*
X161612856Y-113837619D01*
X160755713Y-114075714D02*
X160755713Y-114742380D01*
X160993809Y-113694761D02*
X161231904Y-114409047D01*
X160612856Y-114409047D01*
X192266666Y-109857142D02*
X192314285Y-109904761D01*
X192457142Y-109952380D01*
X192552380Y-109952380D01*
X192695238Y-109904761D01*
X192790476Y-109809523D01*
X192838095Y-109714285D01*
X192885714Y-109523809D01*
X192885714Y-109380952D01*
X192838095Y-109190476D01*
X192790476Y-109095238D01*
X192695238Y-109000000D01*
X192552380Y-108952380D01*
X192457142Y-108952380D01*
X192314285Y-109000000D01*
X192266666Y-109047619D01*
X191933333Y-108952380D02*
X191314285Y-108952380D01*
X191647619Y-109333333D01*
X191504761Y-109333333D01*
X191409523Y-109380952D01*
X191361904Y-109428571D01*
X191314285Y-109523809D01*
X191314285Y-109761904D01*
X191361904Y-109857142D01*
X191409523Y-109904761D01*
X191504761Y-109952380D01*
X191790476Y-109952380D01*
X191885714Y-109904761D01*
X191933333Y-109857142D01*
X161612856Y-116697142D02*
X161660475Y-116744761D01*
X161803332Y-116792380D01*
X161898570Y-116792380D01*
X162041428Y-116744761D01*
X162136666Y-116649523D01*
X162184285Y-116554285D01*
X162231904Y-116363809D01*
X162231904Y-116220952D01*
X162184285Y-116030476D01*
X162136666Y-115935238D01*
X162041428Y-115840000D01*
X161898570Y-115792380D01*
X161803332Y-115792380D01*
X161660475Y-115840000D01*
X161612856Y-115887619D01*
X161231904Y-115887619D02*
X161184285Y-115840000D01*
X161089047Y-115792380D01*
X160850951Y-115792380D01*
X160755713Y-115840000D01*
X160708094Y-115887619D01*
X160660475Y-115982857D01*
X160660475Y-116078095D01*
X160708094Y-116220952D01*
X161279523Y-116792380D01*
X160660475Y-116792380D01*
X189566666Y-113887142D02*
X189614285Y-113934761D01*
X189757142Y-113982380D01*
X189852380Y-113982380D01*
X189995238Y-113934761D01*
X190090476Y-113839523D01*
X190138095Y-113744285D01*
X190185714Y-113553809D01*
X190185714Y-113410952D01*
X190138095Y-113220476D01*
X190090476Y-113125238D01*
X189995238Y-113030000D01*
X189852380Y-112982380D01*
X189757142Y-112982380D01*
X189614285Y-113030000D01*
X189566666Y-113077619D01*
X188614285Y-113982380D02*
X189185714Y-113982380D01*
X188900000Y-113982380D02*
X188900000Y-112982380D01*
X188995238Y-113125238D01*
X189090476Y-113220476D01*
X189185714Y-113268095D01*
M02*
