G04 #@! TF.GenerationSoftware,KiCad,Pcbnew,(5.1.5)-3*
G04 #@! TF.CreationDate,2020-07-27T15:31:10+01:00*
G04 #@! TF.ProjectId,diyBMS-CurrentShunt,64697942-4d53-42d4-9375-7272656e7453,rev?*
G04 #@! TF.SameCoordinates,Original*
G04 #@! TF.FileFunction,Paste,Top*
G04 #@! TF.FilePolarity,Positive*
%FSLAX46Y46*%
G04 Gerber Fmt 4.6, Leading zero omitted, Abs format (unit mm)*
G04 Created by KiCad (PCBNEW (5.1.5)-3) date 2020-07-27 15:31:10*
%MOMM*%
%LPD*%
G04 APERTURE LIST*
%ADD10R,1.200000X1.200000*%
%ADD11R,0.600000X0.500000*%
%ADD12R,0.500000X0.900000*%
%ADD13R,0.800000X0.750000*%
%ADD14R,1.000000X1.250000*%
%ADD15R,1.000000X1.600000*%
%ADD16R,1.100000X1.100000*%
%ADD17R,2.650000X2.030000*%
%ADD18R,1.450000X0.450000*%
%ADD19R,1.500000X0.600000*%
%ADD20R,1.400000X1.200000*%
%ADD21R,1.600000X0.550000*%
%ADD22R,0.550000X1.600000*%
%ADD23R,0.700000X0.250000*%
%ADD24R,0.498000X0.714000*%
%ADD25R,2.900000X5.400000*%
G04 APERTURE END LIST*
D10*
X86550000Y-97415000D03*
X84350000Y-97415000D03*
X93850000Y-97415000D03*
X91650000Y-97415000D03*
D11*
X93650000Y-86000000D03*
X94750000Y-86000000D03*
X109400000Y-87450000D03*
X110500000Y-87450000D03*
X86200000Y-79250000D03*
X87300000Y-79250000D03*
X88000000Y-83300000D03*
X89100000Y-83300000D03*
D12*
X128800000Y-77950000D03*
X130300000Y-77950000D03*
X124750000Y-86450000D03*
X126250000Y-86450000D03*
X127650000Y-84950000D03*
X129150000Y-84950000D03*
X80900000Y-97480000D03*
X82400000Y-97480000D03*
X112850000Y-82950000D03*
X114350000Y-82950000D03*
X111450000Y-89500000D03*
X112950000Y-89500000D03*
X87900000Y-97480000D03*
X89400000Y-97480000D03*
X132200000Y-83740000D03*
X133700000Y-83740000D03*
X134800000Y-81450000D03*
X136300000Y-81450000D03*
X111400000Y-96200000D03*
X112900000Y-96200000D03*
X111400000Y-94450000D03*
X112900000Y-94450000D03*
D11*
X134850000Y-83950000D03*
X135950000Y-83950000D03*
D13*
X134400000Y-85800000D03*
X132900000Y-85800000D03*
D11*
X127900000Y-86500000D03*
X129000000Y-86500000D03*
X130150000Y-86500000D03*
X131250000Y-86500000D03*
X109350000Y-82800000D03*
X110450000Y-82800000D03*
D13*
X95350000Y-88550000D03*
X93850000Y-88550000D03*
X124000000Y-80800000D03*
X122500000Y-80800000D03*
D11*
X132150000Y-81450000D03*
X133250000Y-81450000D03*
D14*
X136250000Y-85750000D03*
X138250000Y-85750000D03*
D13*
X91450000Y-88550000D03*
X89950000Y-88550000D03*
D15*
X136250000Y-78300000D03*
X139250000Y-78300000D03*
D16*
X122800000Y-84150000D03*
X122800000Y-86950000D03*
D17*
X146240000Y-87200000D03*
X142060000Y-87200000D03*
D18*
X125950000Y-81025000D03*
X125950000Y-81675000D03*
X125950000Y-82325000D03*
X125950000Y-82975000D03*
X130350000Y-82975000D03*
X130350000Y-82325000D03*
X130350000Y-81675000D03*
X130350000Y-81025000D03*
D19*
X86250000Y-92195000D03*
X86250000Y-90925000D03*
X86250000Y-89655000D03*
X86250000Y-88385000D03*
X86250000Y-87115000D03*
X86250000Y-85845000D03*
X86250000Y-84575000D03*
X86250000Y-83305000D03*
X76950000Y-83305000D03*
X76950000Y-84575000D03*
X76950000Y-85845000D03*
X76950000Y-87115000D03*
X76950000Y-88385000D03*
X76950000Y-89655000D03*
X76950000Y-90925000D03*
X76950000Y-92195000D03*
D20*
X91900000Y-93200000D03*
X94100000Y-93200000D03*
X94100000Y-91500000D03*
X91900000Y-91500000D03*
D21*
X98050000Y-84400000D03*
X98050000Y-85200000D03*
X98050000Y-86000000D03*
X98050000Y-86800000D03*
X98050000Y-87600000D03*
X98050000Y-88400000D03*
X98050000Y-89200000D03*
X98050000Y-90000000D03*
D22*
X99500000Y-91450000D03*
X100300000Y-91450000D03*
X101100000Y-91450000D03*
X101900000Y-91450000D03*
X102700000Y-91450000D03*
X103500000Y-91450000D03*
X104300000Y-91450000D03*
X105100000Y-91450000D03*
D21*
X106550000Y-90000000D03*
X106550000Y-89200000D03*
X106550000Y-88400000D03*
X106550000Y-87600000D03*
X106550000Y-86800000D03*
X106550000Y-86000000D03*
X106550000Y-85200000D03*
X106550000Y-84400000D03*
D22*
X105100000Y-82950000D03*
X104300000Y-82950000D03*
X103500000Y-82950000D03*
X102700000Y-82950000D03*
X101900000Y-82950000D03*
X101100000Y-82950000D03*
X100300000Y-82950000D03*
X99500000Y-82950000D03*
D12*
X76450000Y-79100000D03*
X77950000Y-79100000D03*
X83200000Y-79100000D03*
X84700000Y-79100000D03*
X79800000Y-79100000D03*
X81300000Y-79100000D03*
D15*
X131650000Y-78290000D03*
X134650000Y-78290000D03*
D23*
X116205000Y-90885000D03*
X116205000Y-91385000D03*
X116205000Y-91885000D03*
X116205000Y-92385000D03*
X119005000Y-92385000D03*
X119005000Y-91885000D03*
X119005000Y-91385000D03*
X119005000Y-90885000D03*
D24*
X118020000Y-92230000D03*
X118020000Y-91040000D03*
X117190000Y-92230000D03*
X117190000Y-91040000D03*
D25*
X126950000Y-94250000D03*
X136850000Y-94250000D03*
M02*
