G04 #@! TF.GenerationSoftware,KiCad,Pcbnew,(5.1.5)-3*
G04 #@! TF.CreationDate,2020-07-27T15:31:10+01:00*
G04 #@! TF.ProjectId,diyBMS-CurrentShunt,64697942-4d53-42d4-9375-7272656e7453,rev?*
G04 #@! TF.SameCoordinates,Original*
G04 #@! TF.FileFunction,Copper,L2,Bot*
G04 #@! TF.FilePolarity,Positive*
%FSLAX46Y46*%
G04 Gerber Fmt 4.6, Leading zero omitted, Abs format (unit mm)*
G04 Created by KiCad (PCBNEW (5.1.5)-3) date 2020-07-27 15:31:10*
%MOMM*%
%LPD*%
G04 APERTURE LIST*
%ADD10O,6.000000X18.000000*%
%ADD11O,6.000000X6.000000*%
%ADD12C,2.200000*%
%ADD13R,2.000000X2.000000*%
%ADD14R,1.700000X1.700000*%
%ADD15O,1.700000X1.700000*%
%ADD16C,1.524000*%
%ADD17R,1.800000X1.800000*%
%ADD18C,0.800000*%
%ADD19C,0.250000*%
%ADD20C,0.254000*%
G04 APERTURE END LIST*
D10*
X108350000Y-43900000D03*
D11*
X108350000Y-70700000D03*
X108300000Y-63100000D03*
D12*
X70900000Y-90870000D03*
X70900000Y-87060000D03*
X70900000Y-83250000D03*
D13*
X70900000Y-79440000D03*
D14*
X91000000Y-78850000D03*
D15*
X93540000Y-78850000D03*
X96080000Y-78850000D03*
X98620000Y-78850000D03*
X101160000Y-78850000D03*
X103700000Y-78850000D03*
X106240000Y-78850000D03*
X108780000Y-78850000D03*
X111320000Y-78850000D03*
X113860000Y-78850000D03*
X116400000Y-78850000D03*
X118940000Y-78850000D03*
D14*
X107600000Y-97100000D03*
D15*
X107600000Y-99640000D03*
X105060000Y-97100000D03*
X105060000Y-99640000D03*
X102520000Y-97100000D03*
X102520000Y-99640000D03*
D16*
X144500000Y-94900000D03*
D17*
X144500000Y-91100000D03*
D16*
X144550000Y-83150000D03*
D17*
X144550000Y-79350000D03*
D18*
X117900000Y-92150000D03*
X117300000Y-91100000D03*
X139600000Y-85750000D03*
X141100000Y-80150000D03*
X141100000Y-79150000D03*
X130300000Y-79400000D03*
X111600000Y-82200000D03*
X100200000Y-88000000D03*
X95100000Y-89850000D03*
X96350000Y-92050000D03*
X91900000Y-89900000D03*
X82450000Y-88100000D03*
X82450000Y-89150000D03*
X90300000Y-97600000D03*
X118250000Y-86300000D03*
X114200000Y-85550000D03*
X123900000Y-92050000D03*
X112450000Y-99150000D03*
X113500000Y-99150000D03*
X111600000Y-86600000D03*
X117800000Y-80900000D03*
X107950000Y-82000000D03*
X116550000Y-83400000D03*
X124550000Y-77900000D03*
X121700000Y-77900000D03*
X123125000Y-77900000D03*
X118250000Y-87450000D03*
X104982687Y-87698177D03*
X101500000Y-89650000D03*
X102950000Y-89650000D03*
X104150000Y-89650000D03*
X91900000Y-82900000D03*
X92950000Y-82900000D03*
X138250000Y-84050000D03*
X120624979Y-92000000D03*
X116950000Y-99150000D03*
X118000000Y-99150000D03*
X123700000Y-82650000D03*
X132100000Y-80450000D03*
X102950000Y-93550000D03*
X109600000Y-94450000D03*
X108300000Y-86750000D03*
X123900000Y-91000000D03*
X120700000Y-83050000D03*
X116799989Y-87464395D03*
X99800000Y-89500000D03*
X98612929Y-91607920D03*
X87250000Y-93150000D03*
X96550000Y-88650000D03*
X113150000Y-97500000D03*
X139300000Y-91650000D03*
X90206232Y-83101433D03*
X90850000Y-85300010D03*
X101974990Y-84700000D03*
X108300001Y-84699999D03*
X127650004Y-83750000D03*
X131250000Y-85650000D03*
X75300000Y-81950000D03*
X79100000Y-79774990D03*
X104500000Y-85950000D03*
X108800000Y-90649996D03*
X103350000Y-86000000D03*
X110227798Y-92563432D03*
X114300000Y-92700000D03*
X114000000Y-96150000D03*
X107400000Y-91700000D03*
X114000000Y-89600000D03*
X119874990Y-94200000D03*
X105049989Y-92737027D03*
X106875010Y-92974990D03*
X100989357Y-84868967D03*
X88100000Y-88650000D03*
X88200000Y-85650000D03*
X87792885Y-87192885D03*
X96500000Y-83100000D03*
X104350000Y-84474990D03*
X106124990Y-83499996D03*
X106200000Y-82350000D03*
X111803562Y-84775010D03*
X109650000Y-84900000D03*
D19*
X99800000Y-89500000D02*
X99800000Y-90420849D01*
X99800000Y-90420849D02*
X98612929Y-91607920D01*
X97887919Y-93700000D02*
X87800000Y-93700000D01*
X87800000Y-93700000D02*
X87250000Y-93150000D01*
X97887919Y-93700000D02*
X97887919Y-90737919D01*
X97887919Y-90737919D02*
X96550000Y-89400000D01*
X96550000Y-89400000D02*
X96550000Y-88650000D01*
X99700000Y-100250000D02*
X99700000Y-95512081D01*
X100800000Y-101350000D02*
X99700000Y-100250000D01*
X99700000Y-95512081D02*
X97887919Y-93700000D01*
X107600000Y-99640000D02*
X105890000Y-101350000D01*
X105890000Y-101350000D02*
X100800000Y-101350000D01*
X118940000Y-80052081D02*
X118940000Y-78850000D01*
X118975001Y-80087082D02*
X118940000Y-80052081D01*
X122300000Y-88950000D02*
X121800000Y-88950000D01*
X121800000Y-88950000D02*
X118975001Y-86125001D01*
X118975001Y-86125001D02*
X118975001Y-80087082D01*
X122300000Y-88950000D02*
X136600000Y-88950000D01*
X136600000Y-88950000D02*
X139300000Y-91650000D01*
X120600000Y-93550000D02*
X122300000Y-91850000D01*
X119300000Y-96800000D02*
X120600000Y-95500000D01*
X113150000Y-97500000D02*
X118550000Y-97500000D01*
X118550000Y-97500000D02*
X119250000Y-96800000D01*
X119250000Y-96800000D02*
X119300000Y-96800000D01*
X122300000Y-91850000D02*
X122300000Y-88950000D01*
X120600000Y-95500000D02*
X120600000Y-93550000D01*
X90850000Y-83745201D02*
X90850000Y-85300010D01*
X90206232Y-83101433D02*
X90850000Y-83745201D01*
X103759619Y-85200000D02*
X107800000Y-85200000D01*
X103259619Y-84700000D02*
X103759619Y-85200000D01*
X107800000Y-85200000D02*
X108300001Y-84699999D01*
X101974990Y-84700000D02*
X103259619Y-84700000D01*
X108700000Y-85099998D02*
X108300001Y-84699999D01*
X109575001Y-85974999D02*
X108700000Y-85099998D01*
X109575001Y-92248001D02*
X109575001Y-85974999D01*
X105920000Y-93700000D02*
X108123002Y-93700000D01*
X102520000Y-97100000D02*
X105920000Y-93700000D01*
X108123002Y-93700000D02*
X109575001Y-92248001D01*
X129350000Y-83750000D02*
X131250000Y-85650000D01*
X127650004Y-83750000D02*
X129350000Y-83750000D01*
X75300000Y-82660000D02*
X75300000Y-81950000D01*
X70900000Y-87060000D02*
X75300000Y-82660000D01*
X78224990Y-80650000D02*
X79100000Y-79774990D01*
X71400000Y-83250000D02*
X74000000Y-80650000D01*
X70900000Y-83250000D02*
X71400000Y-83250000D01*
X74000000Y-80650000D02*
X78224990Y-80650000D01*
X104500000Y-85950000D02*
X108800000Y-90250000D01*
X108800000Y-90250000D02*
X108800000Y-90649996D01*
X114300000Y-92700000D02*
X114300000Y-95850000D01*
X114300000Y-95850000D02*
X114000000Y-96150000D01*
X110364366Y-92700000D02*
X110227798Y-92563432D01*
X114300000Y-92700000D02*
X110364366Y-92700000D01*
X107000001Y-91300001D02*
X107400000Y-91700000D01*
X103350000Y-86000000D02*
X103350000Y-87650000D01*
X103350000Y-87650000D02*
X107000001Y-91300001D01*
X114000000Y-89600000D02*
X118600000Y-94200000D01*
X118600000Y-94200000D02*
X119874990Y-94200000D01*
X105049989Y-92737027D02*
X106637047Y-92737027D01*
X106637047Y-92737027D02*
X106875010Y-92974990D01*
X88499999Y-88250001D02*
X88100000Y-88650000D01*
X89450000Y-87300000D02*
X88499999Y-88250001D01*
X100989357Y-84868967D02*
X98558324Y-87300000D01*
X98558324Y-87300000D02*
X89450000Y-87300000D01*
X92975001Y-80724999D02*
X90475001Y-80724999D01*
X93540000Y-78850000D02*
X93540000Y-80160000D01*
X93540000Y-80160000D02*
X92975001Y-80724999D01*
X90475001Y-80724999D02*
X88200000Y-83000000D01*
X88200000Y-83000000D02*
X88200000Y-85650000D01*
X88192884Y-86792886D02*
X92807114Y-86792886D01*
X92807114Y-86792886D02*
X96100001Y-83499999D01*
X96100001Y-83499999D02*
X96500000Y-83100000D01*
X87792885Y-87192885D02*
X88192884Y-86792886D01*
X98620000Y-78850000D02*
X104244990Y-84474990D01*
X104244990Y-84474990D02*
X104350000Y-84474990D01*
X101160000Y-78850000D02*
X105809996Y-83499996D01*
X105809996Y-83499996D02*
X106124990Y-83499996D01*
X106200000Y-81350000D02*
X106200000Y-82350000D01*
X103700000Y-78850000D02*
X106200000Y-81350000D01*
X113860000Y-82718572D02*
X111803562Y-84775010D01*
X113860000Y-78850000D02*
X113860000Y-82718572D01*
X116400000Y-78850000D02*
X116400000Y-81251574D01*
X112151563Y-85500011D02*
X110250011Y-85500011D01*
X110250011Y-85500011D02*
X109650000Y-84900000D01*
X116400000Y-81251574D02*
X112151563Y-85500011D01*
D20*
G36*
X149390000Y-77475456D02*
G01*
X149390001Y-102417711D01*
X149364232Y-102680523D01*
X149297283Y-102902269D01*
X149265728Y-102961615D01*
X148699359Y-103522774D01*
X148659917Y-103544100D01*
X148438644Y-103612595D01*
X148177902Y-103640000D01*
X69332279Y-103640000D01*
X69069477Y-103614232D01*
X68960439Y-103581311D01*
X68169932Y-102793722D01*
X68137405Y-102688644D01*
X68122363Y-102545528D01*
X68114173Y-100329872D01*
X68965000Y-100329872D01*
X68965000Y-100770128D01*
X69050890Y-101201925D01*
X69219369Y-101608669D01*
X69463962Y-101974729D01*
X69775271Y-102286038D01*
X70141331Y-102530631D01*
X70548075Y-102699110D01*
X70979872Y-102785000D01*
X71420128Y-102785000D01*
X71851925Y-102699110D01*
X72258669Y-102530631D01*
X72624729Y-102286038D01*
X72936038Y-101974729D01*
X73180631Y-101608669D01*
X73349110Y-101201925D01*
X73435000Y-100770128D01*
X73435000Y-100329872D01*
X73349110Y-99898075D01*
X73180631Y-99491331D01*
X72936038Y-99125271D01*
X72624729Y-98813962D01*
X72258669Y-98569369D01*
X71851925Y-98400890D01*
X71420128Y-98315000D01*
X70979872Y-98315000D01*
X70548075Y-98400890D01*
X70141331Y-98569369D01*
X69775271Y-98813962D01*
X69463962Y-99125271D01*
X69219369Y-99491331D01*
X69050890Y-99898075D01*
X68965000Y-100329872D01*
X68114173Y-100329872D01*
X68110000Y-99201342D01*
X68110000Y-95336067D01*
X79814536Y-95212407D01*
X79838888Y-95209788D01*
X79862658Y-95202385D01*
X79884528Y-95190488D01*
X79903656Y-95174552D01*
X79919308Y-95155191D01*
X79930882Y-95133149D01*
X79937933Y-95109272D01*
X79940191Y-95084478D01*
X79843160Y-81917408D01*
X88163813Y-81939538D01*
X88188203Y-81936995D01*
X87689003Y-82436196D01*
X87659999Y-82459999D01*
X87604871Y-82527174D01*
X87565026Y-82575724D01*
X87524310Y-82651898D01*
X87494454Y-82707754D01*
X87450997Y-82851015D01*
X87440000Y-82962668D01*
X87440000Y-82962678D01*
X87436324Y-83000000D01*
X87440000Y-83037323D01*
X87440001Y-84946288D01*
X87396063Y-84990226D01*
X87282795Y-85159744D01*
X87204774Y-85348102D01*
X87165000Y-85548061D01*
X87165000Y-85751939D01*
X87204774Y-85951898D01*
X87282795Y-86140256D01*
X87357966Y-86252758D01*
X87302629Y-86275680D01*
X87133111Y-86388948D01*
X86988948Y-86533111D01*
X86875680Y-86702629D01*
X86797659Y-86890987D01*
X86757885Y-87090946D01*
X86757885Y-87294824D01*
X86797659Y-87494783D01*
X86875680Y-87683141D01*
X86988948Y-87852659D01*
X87133111Y-87996822D01*
X87242720Y-88070060D01*
X87182795Y-88159744D01*
X87104774Y-88348102D01*
X87065000Y-88548061D01*
X87065000Y-88751939D01*
X87104774Y-88951898D01*
X87182795Y-89140256D01*
X87296063Y-89309774D01*
X87440226Y-89453937D01*
X87609744Y-89567205D01*
X87798102Y-89645226D01*
X87998061Y-89685000D01*
X88201939Y-89685000D01*
X88401898Y-89645226D01*
X88590256Y-89567205D01*
X88759774Y-89453937D01*
X88903937Y-89309774D01*
X89017205Y-89140256D01*
X89095226Y-88951898D01*
X89135000Y-88751939D01*
X89135000Y-88689801D01*
X89764802Y-88060000D01*
X95699442Y-88060000D01*
X95632795Y-88159744D01*
X95554774Y-88348102D01*
X95515000Y-88548061D01*
X95515000Y-88751939D01*
X95554774Y-88951898D01*
X95632795Y-89140256D01*
X95746063Y-89309774D01*
X95790000Y-89353711D01*
X95790000Y-89362678D01*
X95786324Y-89400000D01*
X95790000Y-89437322D01*
X95790000Y-89437332D01*
X95800997Y-89548985D01*
X95833815Y-89657173D01*
X95844454Y-89692246D01*
X95915026Y-89824276D01*
X95941923Y-89857050D01*
X96009999Y-89940001D01*
X96039003Y-89963804D01*
X97127920Y-91052722D01*
X97127919Y-92940000D01*
X88263506Y-92940000D01*
X88245226Y-92848102D01*
X88167205Y-92659744D01*
X88053937Y-92490226D01*
X87909774Y-92346063D01*
X87740256Y-92232795D01*
X87551898Y-92154774D01*
X87351939Y-92115000D01*
X87148061Y-92115000D01*
X86948102Y-92154774D01*
X86759744Y-92232795D01*
X86590226Y-92346063D01*
X86446063Y-92490226D01*
X86332795Y-92659744D01*
X86254774Y-92848102D01*
X86215000Y-93048061D01*
X86215000Y-93251939D01*
X86254774Y-93451898D01*
X86332795Y-93640256D01*
X86446063Y-93809774D01*
X86590226Y-93953937D01*
X86759744Y-94067205D01*
X86948102Y-94145226D01*
X87148061Y-94185000D01*
X87210197Y-94185000D01*
X87236205Y-94211007D01*
X87259999Y-94240001D01*
X87288992Y-94263795D01*
X87288996Y-94263799D01*
X87349772Y-94313676D01*
X87375724Y-94334974D01*
X87507753Y-94405546D01*
X87651014Y-94449003D01*
X87762667Y-94460000D01*
X87762676Y-94460000D01*
X87799999Y-94463676D01*
X87837322Y-94460000D01*
X97573118Y-94460000D01*
X98940001Y-95826884D01*
X98940000Y-100212677D01*
X98936324Y-100250000D01*
X98940000Y-100287322D01*
X98940000Y-100287332D01*
X98950997Y-100398985D01*
X98988117Y-100521355D01*
X98994454Y-100542246D01*
X99065026Y-100674276D01*
X99098469Y-100715026D01*
X99159999Y-100790001D01*
X99189002Y-100813804D01*
X100236201Y-101861003D01*
X100259999Y-101890001D01*
X100288997Y-101913799D01*
X100375723Y-101984974D01*
X100507753Y-102055546D01*
X100651014Y-102099003D01*
X100762667Y-102110000D01*
X100762677Y-102110000D01*
X100800000Y-102113676D01*
X100837323Y-102110000D01*
X105852678Y-102110000D01*
X105890000Y-102113676D01*
X105927322Y-102110000D01*
X105927333Y-102110000D01*
X106038986Y-102099003D01*
X106182247Y-102055546D01*
X106314276Y-101984974D01*
X106430001Y-101890001D01*
X106453804Y-101860997D01*
X107233592Y-101081209D01*
X107453740Y-101125000D01*
X107746260Y-101125000D01*
X108033158Y-101067932D01*
X108303411Y-100955990D01*
X108546632Y-100793475D01*
X108753475Y-100586632D01*
X108915990Y-100343411D01*
X109027932Y-100073158D01*
X109085000Y-99786260D01*
X109085000Y-99493740D01*
X109027932Y-99206842D01*
X108915990Y-98936589D01*
X108753475Y-98693368D01*
X108621620Y-98561513D01*
X108694180Y-98539502D01*
X108804494Y-98480537D01*
X108901185Y-98401185D01*
X108980537Y-98304494D01*
X109039502Y-98194180D01*
X109075812Y-98074482D01*
X109088072Y-97950000D01*
X109088072Y-96250000D01*
X109075812Y-96125518D01*
X109039502Y-96005820D01*
X108980537Y-95895506D01*
X108901185Y-95798815D01*
X108804494Y-95719463D01*
X108694180Y-95660498D01*
X108574482Y-95624188D01*
X108450000Y-95611928D01*
X106750000Y-95611928D01*
X106625518Y-95624188D01*
X106505820Y-95660498D01*
X106395506Y-95719463D01*
X106298815Y-95798815D01*
X106219463Y-95895506D01*
X106160498Y-96005820D01*
X106138487Y-96078380D01*
X106006632Y-95946525D01*
X105763411Y-95784010D01*
X105493158Y-95672068D01*
X105206260Y-95615000D01*
X105079802Y-95615000D01*
X106234802Y-94460000D01*
X108085680Y-94460000D01*
X108123002Y-94463676D01*
X108160324Y-94460000D01*
X108160335Y-94460000D01*
X108271988Y-94449003D01*
X108415249Y-94405546D01*
X108547278Y-94334974D01*
X108663003Y-94240001D01*
X108686806Y-94210997D01*
X109549229Y-93348574D01*
X109568024Y-93367369D01*
X109737542Y-93480637D01*
X109925900Y-93558658D01*
X110125859Y-93598432D01*
X110329737Y-93598432D01*
X110529696Y-93558658D01*
X110718054Y-93480637D01*
X110748940Y-93460000D01*
X113540000Y-93460000D01*
X113540001Y-95220262D01*
X113509744Y-95232795D01*
X113340226Y-95346063D01*
X113196063Y-95490226D01*
X113082795Y-95659744D01*
X113004774Y-95848102D01*
X112965000Y-96048061D01*
X112965000Y-96251939D01*
X113004774Y-96451898D01*
X113013083Y-96471958D01*
X112848102Y-96504774D01*
X112659744Y-96582795D01*
X112490226Y-96696063D01*
X112346063Y-96840226D01*
X112232795Y-97009744D01*
X112154774Y-97198102D01*
X112115000Y-97398061D01*
X112115000Y-97601939D01*
X112154774Y-97801898D01*
X112232795Y-97990256D01*
X112346063Y-98159774D01*
X112490226Y-98303937D01*
X112659744Y-98417205D01*
X112848102Y-98495226D01*
X113048061Y-98535000D01*
X113251939Y-98535000D01*
X113451898Y-98495226D01*
X113640256Y-98417205D01*
X113809774Y-98303937D01*
X113853711Y-98260000D01*
X118512678Y-98260000D01*
X118550000Y-98263676D01*
X118587322Y-98260000D01*
X118587333Y-98260000D01*
X118698986Y-98249003D01*
X118842247Y-98205546D01*
X118974276Y-98134974D01*
X119090001Y-98040001D01*
X119113803Y-98010998D01*
X119650272Y-97474531D01*
X119724276Y-97434974D01*
X119840001Y-97340001D01*
X119863804Y-97310997D01*
X121111004Y-96063798D01*
X121140001Y-96040001D01*
X121234974Y-95924276D01*
X121305546Y-95792247D01*
X121349003Y-95648986D01*
X121360000Y-95537333D01*
X121360000Y-95537325D01*
X121363676Y-95500000D01*
X121360000Y-95462675D01*
X121360000Y-93864801D01*
X122811004Y-92413798D01*
X122840001Y-92390001D01*
X122876060Y-92346063D01*
X122934974Y-92274277D01*
X123005546Y-92142247D01*
X123013811Y-92115000D01*
X123049003Y-91998986D01*
X123060000Y-91887333D01*
X123060000Y-91887324D01*
X123063676Y-91850001D01*
X123060000Y-91812678D01*
X123060000Y-89710000D01*
X124255613Y-89710000D01*
X124298001Y-100900485D01*
X124300528Y-100925215D01*
X124307838Y-100949014D01*
X124319650Y-100970930D01*
X124335511Y-100990119D01*
X124354812Y-101005846D01*
X124376809Y-101017506D01*
X124400658Y-101024649D01*
X124425443Y-101027003D01*
X138750443Y-100976999D01*
X138774776Y-100974560D01*
X138798601Y-100967333D01*
X138820557Y-100955597D01*
X138839803Y-100939803D01*
X138855597Y-100920557D01*
X138867333Y-100898601D01*
X138874560Y-100874776D01*
X138877000Y-100850000D01*
X138877000Y-100279872D01*
X144065000Y-100279872D01*
X144065000Y-100720128D01*
X144150890Y-101151925D01*
X144319369Y-101558669D01*
X144563962Y-101924729D01*
X144875271Y-102236038D01*
X145241331Y-102480631D01*
X145648075Y-102649110D01*
X146079872Y-102735000D01*
X146520128Y-102735000D01*
X146951925Y-102649110D01*
X147358669Y-102480631D01*
X147724729Y-102236038D01*
X148036038Y-101924729D01*
X148280631Y-101558669D01*
X148449110Y-101151925D01*
X148535000Y-100720128D01*
X148535000Y-100279872D01*
X148449110Y-99848075D01*
X148280631Y-99441331D01*
X148036038Y-99075271D01*
X147724729Y-98763962D01*
X147358669Y-98519369D01*
X146951925Y-98350890D01*
X146520128Y-98265000D01*
X146079872Y-98265000D01*
X145648075Y-98350890D01*
X145241331Y-98519369D01*
X144875271Y-98763962D01*
X144563962Y-99075271D01*
X144319369Y-99441331D01*
X144150890Y-99848075D01*
X144065000Y-100279872D01*
X138877000Y-100279872D01*
X138877000Y-92595064D01*
X138998102Y-92645226D01*
X139198061Y-92685000D01*
X139401939Y-92685000D01*
X139601898Y-92645226D01*
X139790256Y-92567205D01*
X139959774Y-92453937D01*
X140103937Y-92309774D01*
X140217205Y-92140256D01*
X140295226Y-91951898D01*
X140335000Y-91751939D01*
X140335000Y-91548061D01*
X140295226Y-91348102D01*
X140217205Y-91159744D01*
X140103937Y-90990226D01*
X139959774Y-90846063D01*
X139790256Y-90732795D01*
X139601898Y-90654774D01*
X139401939Y-90615000D01*
X139339802Y-90615000D01*
X138877000Y-90152198D01*
X138877000Y-87650000D01*
X138874473Y-87624790D01*
X138867163Y-87600991D01*
X138855351Y-87579076D01*
X138839490Y-87559886D01*
X138820190Y-87544159D01*
X138798192Y-87532499D01*
X138774343Y-87525355D01*
X138749558Y-87523001D01*
X124374558Y-87572998D01*
X124349752Y-87575532D01*
X124325955Y-87582849D01*
X124304043Y-87594668D01*
X124284858Y-87610535D01*
X124269137Y-87629840D01*
X124257484Y-87651841D01*
X124250347Y-87675693D01*
X124248001Y-87700478D01*
X124249855Y-88190000D01*
X122337333Y-88190000D01*
X122300000Y-88186323D01*
X122262667Y-88190000D01*
X122114802Y-88190000D01*
X119735001Y-85810200D01*
X119735001Y-83648061D01*
X126615004Y-83648061D01*
X126615004Y-83851939D01*
X126654778Y-84051898D01*
X126732799Y-84240256D01*
X126846067Y-84409774D01*
X126990230Y-84553937D01*
X127159748Y-84667205D01*
X127348106Y-84745226D01*
X127548065Y-84785000D01*
X127751943Y-84785000D01*
X127951902Y-84745226D01*
X128140260Y-84667205D01*
X128309778Y-84553937D01*
X128353715Y-84510000D01*
X129035199Y-84510000D01*
X130215000Y-85689802D01*
X130215000Y-85751939D01*
X130254774Y-85951898D01*
X130332795Y-86140256D01*
X130446063Y-86309774D01*
X130590226Y-86453937D01*
X130759744Y-86567205D01*
X130948102Y-86645226D01*
X131148061Y-86685000D01*
X131351939Y-86685000D01*
X131551898Y-86645226D01*
X131740256Y-86567205D01*
X131909774Y-86453937D01*
X132053937Y-86309774D01*
X132077253Y-86274879D01*
X141405265Y-86274879D01*
X141420609Y-96938520D01*
X141422153Y-96958081D01*
X141428415Y-96982177D01*
X141439258Y-97004588D01*
X141454265Y-97024453D01*
X141472859Y-97041009D01*
X141494326Y-97053619D01*
X141517840Y-97061799D01*
X141542498Y-97065234D01*
X148010949Y-97325759D01*
X148040053Y-97323575D01*
X148063922Y-97316498D01*
X148085952Y-97304900D01*
X148105296Y-97289227D01*
X148121211Y-97270082D01*
X148133085Y-97248199D01*
X148140462Y-97224421D01*
X148143057Y-97199660D01*
X148210938Y-86401937D01*
X148208956Y-86378771D01*
X148202190Y-86354811D01*
X148190879Y-86332632D01*
X148175460Y-86313086D01*
X148156523Y-86296923D01*
X148134797Y-86284766D01*
X148111116Y-86277081D01*
X148086392Y-86274163D01*
X141534716Y-86147720D01*
X141507309Y-86150172D01*
X141483495Y-86157433D01*
X141461556Y-86169201D01*
X141442333Y-86185023D01*
X141426567Y-86204291D01*
X141414862Y-86226264D01*
X141407670Y-86250099D01*
X141405265Y-86274879D01*
X132077253Y-86274879D01*
X132167205Y-86140256D01*
X132245226Y-85951898D01*
X132285000Y-85751939D01*
X132285000Y-85548061D01*
X132245226Y-85348102D01*
X132167205Y-85159744D01*
X132053937Y-84990226D01*
X131909774Y-84846063D01*
X131740256Y-84732795D01*
X131551898Y-84654774D01*
X131351939Y-84615000D01*
X131289802Y-84615000D01*
X130790367Y-84115565D01*
X143764040Y-84115565D01*
X143831020Y-84355656D01*
X144080048Y-84472756D01*
X144347135Y-84539023D01*
X144622017Y-84551910D01*
X144894133Y-84510922D01*
X145153023Y-84417636D01*
X145268980Y-84355656D01*
X145335960Y-84115565D01*
X144550000Y-83329605D01*
X143764040Y-84115565D01*
X130790367Y-84115565D01*
X129913804Y-83239003D01*
X129899864Y-83222017D01*
X143148090Y-83222017D01*
X143189078Y-83494133D01*
X143282364Y-83753023D01*
X143344344Y-83868980D01*
X143584435Y-83935960D01*
X144370395Y-83150000D01*
X144729605Y-83150000D01*
X145515565Y-83935960D01*
X145755656Y-83868980D01*
X145872756Y-83619952D01*
X145939023Y-83352865D01*
X145951910Y-83077983D01*
X145910922Y-82805867D01*
X145817636Y-82546977D01*
X145755656Y-82431020D01*
X145515565Y-82364040D01*
X144729605Y-83150000D01*
X144370395Y-83150000D01*
X143584435Y-82364040D01*
X143344344Y-82431020D01*
X143227244Y-82680048D01*
X143160977Y-82947135D01*
X143148090Y-83222017D01*
X129899864Y-83222017D01*
X129890001Y-83209999D01*
X129774276Y-83115026D01*
X129642247Y-83044454D01*
X129498986Y-83000997D01*
X129387333Y-82990000D01*
X129387322Y-82990000D01*
X129350000Y-82986324D01*
X129312678Y-82990000D01*
X128353715Y-82990000D01*
X128309778Y-82946063D01*
X128140260Y-82832795D01*
X127951902Y-82754774D01*
X127751943Y-82715000D01*
X127548065Y-82715000D01*
X127348106Y-82754774D01*
X127159748Y-82832795D01*
X126990230Y-82946063D01*
X126846067Y-83090226D01*
X126732799Y-83259744D01*
X126654778Y-83448102D01*
X126615004Y-83648061D01*
X119735001Y-83648061D01*
X119735001Y-82184435D01*
X143764040Y-82184435D01*
X144550000Y-82970395D01*
X145335960Y-82184435D01*
X145268980Y-81944344D01*
X145019952Y-81827244D01*
X144752865Y-81760977D01*
X144477983Y-81748090D01*
X144205867Y-81789078D01*
X143946977Y-81882364D01*
X143831020Y-81944344D01*
X143764040Y-82184435D01*
X119735001Y-82184435D01*
X119735001Y-80250000D01*
X143011928Y-80250000D01*
X143024188Y-80374482D01*
X143060498Y-80494180D01*
X143119463Y-80604494D01*
X143198815Y-80701185D01*
X143295506Y-80780537D01*
X143405820Y-80839502D01*
X143525518Y-80875812D01*
X143650000Y-80888072D01*
X144264250Y-80885000D01*
X144423000Y-80726250D01*
X144423000Y-79477000D01*
X144677000Y-79477000D01*
X144677000Y-80726250D01*
X144835750Y-80885000D01*
X145450000Y-80888072D01*
X145574482Y-80875812D01*
X145694180Y-80839502D01*
X145804494Y-80780537D01*
X145901185Y-80701185D01*
X145980537Y-80604494D01*
X146039502Y-80494180D01*
X146075812Y-80374482D01*
X146088072Y-80250000D01*
X146085000Y-79635750D01*
X145926250Y-79477000D01*
X144677000Y-79477000D01*
X144423000Y-79477000D01*
X143173750Y-79477000D01*
X143015000Y-79635750D01*
X143011928Y-80250000D01*
X119735001Y-80250000D01*
X119735001Y-80124405D01*
X119737069Y-80103410D01*
X119886632Y-80003475D01*
X120093475Y-79796632D01*
X120255990Y-79553411D01*
X120367932Y-79283158D01*
X120425000Y-78996260D01*
X120425000Y-78703740D01*
X120374528Y-78450000D01*
X143011928Y-78450000D01*
X143015000Y-79064250D01*
X143173750Y-79223000D01*
X144423000Y-79223000D01*
X144423000Y-77973750D01*
X144677000Y-77973750D01*
X144677000Y-79223000D01*
X145926250Y-79223000D01*
X146085000Y-79064250D01*
X146088072Y-78450000D01*
X146075812Y-78325518D01*
X146039502Y-78205820D01*
X145980537Y-78095506D01*
X145901185Y-77998815D01*
X145804494Y-77919463D01*
X145694180Y-77860498D01*
X145574482Y-77824188D01*
X145450000Y-77811928D01*
X144835750Y-77815000D01*
X144677000Y-77973750D01*
X144423000Y-77973750D01*
X144264250Y-77815000D01*
X143650000Y-77811928D01*
X143525518Y-77824188D01*
X143405820Y-77860498D01*
X143295506Y-77919463D01*
X143198815Y-77998815D01*
X143119463Y-78095506D01*
X143060498Y-78205820D01*
X143024188Y-78325518D01*
X143011928Y-78450000D01*
X120374528Y-78450000D01*
X120367932Y-78416842D01*
X120255990Y-78146589D01*
X120093475Y-77903368D01*
X119886632Y-77696525D01*
X119643411Y-77534010D01*
X119373158Y-77422068D01*
X119086260Y-77365000D01*
X118793740Y-77365000D01*
X118506842Y-77422068D01*
X118236589Y-77534010D01*
X117993368Y-77696525D01*
X117786525Y-77903368D01*
X117670000Y-78077760D01*
X117553475Y-77903368D01*
X117346632Y-77696525D01*
X117103411Y-77534010D01*
X116833158Y-77422068D01*
X116546260Y-77365000D01*
X116253740Y-77365000D01*
X115966842Y-77422068D01*
X115696589Y-77534010D01*
X115453368Y-77696525D01*
X115246525Y-77903368D01*
X115130000Y-78077760D01*
X115013475Y-77903368D01*
X114806632Y-77696525D01*
X114563411Y-77534010D01*
X114293158Y-77422068D01*
X114006260Y-77365000D01*
X113713740Y-77365000D01*
X113426842Y-77422068D01*
X113156589Y-77534010D01*
X112913368Y-77696525D01*
X112706525Y-77903368D01*
X112590000Y-78077760D01*
X112473475Y-77903368D01*
X112266632Y-77696525D01*
X112023411Y-77534010D01*
X111753158Y-77422068D01*
X111466260Y-77365000D01*
X111173740Y-77365000D01*
X110886842Y-77422068D01*
X110616589Y-77534010D01*
X110373368Y-77696525D01*
X110166525Y-77903368D01*
X110050000Y-78077760D01*
X109933475Y-77903368D01*
X109726632Y-77696525D01*
X109483411Y-77534010D01*
X109213158Y-77422068D01*
X108926260Y-77365000D01*
X108633740Y-77365000D01*
X108346842Y-77422068D01*
X108076589Y-77534010D01*
X107833368Y-77696525D01*
X107626525Y-77903368D01*
X107510000Y-78077760D01*
X107393475Y-77903368D01*
X107186632Y-77696525D01*
X106943411Y-77534010D01*
X106673158Y-77422068D01*
X106386260Y-77365000D01*
X106093740Y-77365000D01*
X105806842Y-77422068D01*
X105536589Y-77534010D01*
X105293368Y-77696525D01*
X105086525Y-77903368D01*
X104970000Y-78077760D01*
X104853475Y-77903368D01*
X104646632Y-77696525D01*
X104403411Y-77534010D01*
X104133158Y-77422068D01*
X103846260Y-77365000D01*
X103553740Y-77365000D01*
X103266842Y-77422068D01*
X102996589Y-77534010D01*
X102753368Y-77696525D01*
X102546525Y-77903368D01*
X102430000Y-78077760D01*
X102313475Y-77903368D01*
X102106632Y-77696525D01*
X101863411Y-77534010D01*
X101593158Y-77422068D01*
X101306260Y-77365000D01*
X101013740Y-77365000D01*
X100726842Y-77422068D01*
X100456589Y-77534010D01*
X100213368Y-77696525D01*
X100006525Y-77903368D01*
X99890000Y-78077760D01*
X99773475Y-77903368D01*
X99566632Y-77696525D01*
X99323411Y-77534010D01*
X99053158Y-77422068D01*
X98766260Y-77365000D01*
X98473740Y-77365000D01*
X98186842Y-77422068D01*
X97916589Y-77534010D01*
X97673368Y-77696525D01*
X97466525Y-77903368D01*
X97350000Y-78077760D01*
X97233475Y-77903368D01*
X97026632Y-77696525D01*
X96783411Y-77534010D01*
X96513158Y-77422068D01*
X96226260Y-77365000D01*
X95933740Y-77365000D01*
X95646842Y-77422068D01*
X95376589Y-77534010D01*
X95133368Y-77696525D01*
X94926525Y-77903368D01*
X94810000Y-78077760D01*
X94693475Y-77903368D01*
X94486632Y-77696525D01*
X94243411Y-77534010D01*
X93973158Y-77422068D01*
X93686260Y-77365000D01*
X93393740Y-77365000D01*
X93106842Y-77422068D01*
X92836589Y-77534010D01*
X92593368Y-77696525D01*
X92461513Y-77828380D01*
X92439502Y-77755820D01*
X92380537Y-77645506D01*
X92301185Y-77548815D01*
X92204494Y-77469463D01*
X92094180Y-77410498D01*
X91974482Y-77374188D01*
X91850000Y-77361928D01*
X91285750Y-77365000D01*
X91127000Y-77523750D01*
X91127000Y-78723000D01*
X91147000Y-78723000D01*
X91147000Y-78977000D01*
X91127000Y-78977000D01*
X91127000Y-78997000D01*
X90873000Y-78997000D01*
X90873000Y-78977000D01*
X89673750Y-78977000D01*
X89515000Y-79135750D01*
X89511928Y-79700000D01*
X89524188Y-79824482D01*
X89560498Y-79944180D01*
X89619463Y-80054494D01*
X89698815Y-80151185D01*
X89795506Y-80230537D01*
X89860122Y-80265076D01*
X88288808Y-81836391D01*
X88289046Y-81835564D01*
X88291138Y-81810755D01*
X88237642Y-78000000D01*
X89511928Y-78000000D01*
X89515000Y-78564250D01*
X89673750Y-78723000D01*
X90873000Y-78723000D01*
X90873000Y-77523750D01*
X90714250Y-77365000D01*
X90150000Y-77361928D01*
X90025518Y-77374188D01*
X89905820Y-77410498D01*
X89795506Y-77469463D01*
X89698815Y-77548815D01*
X89619463Y-77645506D01*
X89560498Y-77755820D01*
X89524188Y-77875518D01*
X89511928Y-78000000D01*
X88237642Y-78000000D01*
X88221876Y-76877000D01*
X148797050Y-76877000D01*
X149390000Y-77475456D01*
G37*
X149390000Y-77475456D02*
X149390001Y-102417711D01*
X149364232Y-102680523D01*
X149297283Y-102902269D01*
X149265728Y-102961615D01*
X148699359Y-103522774D01*
X148659917Y-103544100D01*
X148438644Y-103612595D01*
X148177902Y-103640000D01*
X69332279Y-103640000D01*
X69069477Y-103614232D01*
X68960439Y-103581311D01*
X68169932Y-102793722D01*
X68137405Y-102688644D01*
X68122363Y-102545528D01*
X68114173Y-100329872D01*
X68965000Y-100329872D01*
X68965000Y-100770128D01*
X69050890Y-101201925D01*
X69219369Y-101608669D01*
X69463962Y-101974729D01*
X69775271Y-102286038D01*
X70141331Y-102530631D01*
X70548075Y-102699110D01*
X70979872Y-102785000D01*
X71420128Y-102785000D01*
X71851925Y-102699110D01*
X72258669Y-102530631D01*
X72624729Y-102286038D01*
X72936038Y-101974729D01*
X73180631Y-101608669D01*
X73349110Y-101201925D01*
X73435000Y-100770128D01*
X73435000Y-100329872D01*
X73349110Y-99898075D01*
X73180631Y-99491331D01*
X72936038Y-99125271D01*
X72624729Y-98813962D01*
X72258669Y-98569369D01*
X71851925Y-98400890D01*
X71420128Y-98315000D01*
X70979872Y-98315000D01*
X70548075Y-98400890D01*
X70141331Y-98569369D01*
X69775271Y-98813962D01*
X69463962Y-99125271D01*
X69219369Y-99491331D01*
X69050890Y-99898075D01*
X68965000Y-100329872D01*
X68114173Y-100329872D01*
X68110000Y-99201342D01*
X68110000Y-95336067D01*
X79814536Y-95212407D01*
X79838888Y-95209788D01*
X79862658Y-95202385D01*
X79884528Y-95190488D01*
X79903656Y-95174552D01*
X79919308Y-95155191D01*
X79930882Y-95133149D01*
X79937933Y-95109272D01*
X79940191Y-95084478D01*
X79843160Y-81917408D01*
X88163813Y-81939538D01*
X88188203Y-81936995D01*
X87689003Y-82436196D01*
X87659999Y-82459999D01*
X87604871Y-82527174D01*
X87565026Y-82575724D01*
X87524310Y-82651898D01*
X87494454Y-82707754D01*
X87450997Y-82851015D01*
X87440000Y-82962668D01*
X87440000Y-82962678D01*
X87436324Y-83000000D01*
X87440000Y-83037323D01*
X87440001Y-84946288D01*
X87396063Y-84990226D01*
X87282795Y-85159744D01*
X87204774Y-85348102D01*
X87165000Y-85548061D01*
X87165000Y-85751939D01*
X87204774Y-85951898D01*
X87282795Y-86140256D01*
X87357966Y-86252758D01*
X87302629Y-86275680D01*
X87133111Y-86388948D01*
X86988948Y-86533111D01*
X86875680Y-86702629D01*
X86797659Y-86890987D01*
X86757885Y-87090946D01*
X86757885Y-87294824D01*
X86797659Y-87494783D01*
X86875680Y-87683141D01*
X86988948Y-87852659D01*
X87133111Y-87996822D01*
X87242720Y-88070060D01*
X87182795Y-88159744D01*
X87104774Y-88348102D01*
X87065000Y-88548061D01*
X87065000Y-88751939D01*
X87104774Y-88951898D01*
X87182795Y-89140256D01*
X87296063Y-89309774D01*
X87440226Y-89453937D01*
X87609744Y-89567205D01*
X87798102Y-89645226D01*
X87998061Y-89685000D01*
X88201939Y-89685000D01*
X88401898Y-89645226D01*
X88590256Y-89567205D01*
X88759774Y-89453937D01*
X88903937Y-89309774D01*
X89017205Y-89140256D01*
X89095226Y-88951898D01*
X89135000Y-88751939D01*
X89135000Y-88689801D01*
X89764802Y-88060000D01*
X95699442Y-88060000D01*
X95632795Y-88159744D01*
X95554774Y-88348102D01*
X95515000Y-88548061D01*
X95515000Y-88751939D01*
X95554774Y-88951898D01*
X95632795Y-89140256D01*
X95746063Y-89309774D01*
X95790000Y-89353711D01*
X95790000Y-89362678D01*
X95786324Y-89400000D01*
X95790000Y-89437322D01*
X95790000Y-89437332D01*
X95800997Y-89548985D01*
X95833815Y-89657173D01*
X95844454Y-89692246D01*
X95915026Y-89824276D01*
X95941923Y-89857050D01*
X96009999Y-89940001D01*
X96039003Y-89963804D01*
X97127920Y-91052722D01*
X97127919Y-92940000D01*
X88263506Y-92940000D01*
X88245226Y-92848102D01*
X88167205Y-92659744D01*
X88053937Y-92490226D01*
X87909774Y-92346063D01*
X87740256Y-92232795D01*
X87551898Y-92154774D01*
X87351939Y-92115000D01*
X87148061Y-92115000D01*
X86948102Y-92154774D01*
X86759744Y-92232795D01*
X86590226Y-92346063D01*
X86446063Y-92490226D01*
X86332795Y-92659744D01*
X86254774Y-92848102D01*
X86215000Y-93048061D01*
X86215000Y-93251939D01*
X86254774Y-93451898D01*
X86332795Y-93640256D01*
X86446063Y-93809774D01*
X86590226Y-93953937D01*
X86759744Y-94067205D01*
X86948102Y-94145226D01*
X87148061Y-94185000D01*
X87210197Y-94185000D01*
X87236205Y-94211007D01*
X87259999Y-94240001D01*
X87288992Y-94263795D01*
X87288996Y-94263799D01*
X87349772Y-94313676D01*
X87375724Y-94334974D01*
X87507753Y-94405546D01*
X87651014Y-94449003D01*
X87762667Y-94460000D01*
X87762676Y-94460000D01*
X87799999Y-94463676D01*
X87837322Y-94460000D01*
X97573118Y-94460000D01*
X98940001Y-95826884D01*
X98940000Y-100212677D01*
X98936324Y-100250000D01*
X98940000Y-100287322D01*
X98940000Y-100287332D01*
X98950997Y-100398985D01*
X98988117Y-100521355D01*
X98994454Y-100542246D01*
X99065026Y-100674276D01*
X99098469Y-100715026D01*
X99159999Y-100790001D01*
X99189002Y-100813804D01*
X100236201Y-101861003D01*
X100259999Y-101890001D01*
X100288997Y-101913799D01*
X100375723Y-101984974D01*
X100507753Y-102055546D01*
X100651014Y-102099003D01*
X100762667Y-102110000D01*
X100762677Y-102110000D01*
X100800000Y-102113676D01*
X100837323Y-102110000D01*
X105852678Y-102110000D01*
X105890000Y-102113676D01*
X105927322Y-102110000D01*
X105927333Y-102110000D01*
X106038986Y-102099003D01*
X106182247Y-102055546D01*
X106314276Y-101984974D01*
X106430001Y-101890001D01*
X106453804Y-101860997D01*
X107233592Y-101081209D01*
X107453740Y-101125000D01*
X107746260Y-101125000D01*
X108033158Y-101067932D01*
X108303411Y-100955990D01*
X108546632Y-100793475D01*
X108753475Y-100586632D01*
X108915990Y-100343411D01*
X109027932Y-100073158D01*
X109085000Y-99786260D01*
X109085000Y-99493740D01*
X109027932Y-99206842D01*
X108915990Y-98936589D01*
X108753475Y-98693368D01*
X108621620Y-98561513D01*
X108694180Y-98539502D01*
X108804494Y-98480537D01*
X108901185Y-98401185D01*
X108980537Y-98304494D01*
X109039502Y-98194180D01*
X109075812Y-98074482D01*
X109088072Y-97950000D01*
X109088072Y-96250000D01*
X109075812Y-96125518D01*
X109039502Y-96005820D01*
X108980537Y-95895506D01*
X108901185Y-95798815D01*
X108804494Y-95719463D01*
X108694180Y-95660498D01*
X108574482Y-95624188D01*
X108450000Y-95611928D01*
X106750000Y-95611928D01*
X106625518Y-95624188D01*
X106505820Y-95660498D01*
X106395506Y-95719463D01*
X106298815Y-95798815D01*
X106219463Y-95895506D01*
X106160498Y-96005820D01*
X106138487Y-96078380D01*
X106006632Y-95946525D01*
X105763411Y-95784010D01*
X105493158Y-95672068D01*
X105206260Y-95615000D01*
X105079802Y-95615000D01*
X106234802Y-94460000D01*
X108085680Y-94460000D01*
X108123002Y-94463676D01*
X108160324Y-94460000D01*
X108160335Y-94460000D01*
X108271988Y-94449003D01*
X108415249Y-94405546D01*
X108547278Y-94334974D01*
X108663003Y-94240001D01*
X108686806Y-94210997D01*
X109549229Y-93348574D01*
X109568024Y-93367369D01*
X109737542Y-93480637D01*
X109925900Y-93558658D01*
X110125859Y-93598432D01*
X110329737Y-93598432D01*
X110529696Y-93558658D01*
X110718054Y-93480637D01*
X110748940Y-93460000D01*
X113540000Y-93460000D01*
X113540001Y-95220262D01*
X113509744Y-95232795D01*
X113340226Y-95346063D01*
X113196063Y-95490226D01*
X113082795Y-95659744D01*
X113004774Y-95848102D01*
X112965000Y-96048061D01*
X112965000Y-96251939D01*
X113004774Y-96451898D01*
X113013083Y-96471958D01*
X112848102Y-96504774D01*
X112659744Y-96582795D01*
X112490226Y-96696063D01*
X112346063Y-96840226D01*
X112232795Y-97009744D01*
X112154774Y-97198102D01*
X112115000Y-97398061D01*
X112115000Y-97601939D01*
X112154774Y-97801898D01*
X112232795Y-97990256D01*
X112346063Y-98159774D01*
X112490226Y-98303937D01*
X112659744Y-98417205D01*
X112848102Y-98495226D01*
X113048061Y-98535000D01*
X113251939Y-98535000D01*
X113451898Y-98495226D01*
X113640256Y-98417205D01*
X113809774Y-98303937D01*
X113853711Y-98260000D01*
X118512678Y-98260000D01*
X118550000Y-98263676D01*
X118587322Y-98260000D01*
X118587333Y-98260000D01*
X118698986Y-98249003D01*
X118842247Y-98205546D01*
X118974276Y-98134974D01*
X119090001Y-98040001D01*
X119113803Y-98010998D01*
X119650272Y-97474531D01*
X119724276Y-97434974D01*
X119840001Y-97340001D01*
X119863804Y-97310997D01*
X121111004Y-96063798D01*
X121140001Y-96040001D01*
X121234974Y-95924276D01*
X121305546Y-95792247D01*
X121349003Y-95648986D01*
X121360000Y-95537333D01*
X121360000Y-95537325D01*
X121363676Y-95500000D01*
X121360000Y-95462675D01*
X121360000Y-93864801D01*
X122811004Y-92413798D01*
X122840001Y-92390001D01*
X122876060Y-92346063D01*
X122934974Y-92274277D01*
X123005546Y-92142247D01*
X123013811Y-92115000D01*
X123049003Y-91998986D01*
X123060000Y-91887333D01*
X123060000Y-91887324D01*
X123063676Y-91850001D01*
X123060000Y-91812678D01*
X123060000Y-89710000D01*
X124255613Y-89710000D01*
X124298001Y-100900485D01*
X124300528Y-100925215D01*
X124307838Y-100949014D01*
X124319650Y-100970930D01*
X124335511Y-100990119D01*
X124354812Y-101005846D01*
X124376809Y-101017506D01*
X124400658Y-101024649D01*
X124425443Y-101027003D01*
X138750443Y-100976999D01*
X138774776Y-100974560D01*
X138798601Y-100967333D01*
X138820557Y-100955597D01*
X138839803Y-100939803D01*
X138855597Y-100920557D01*
X138867333Y-100898601D01*
X138874560Y-100874776D01*
X138877000Y-100850000D01*
X138877000Y-100279872D01*
X144065000Y-100279872D01*
X144065000Y-100720128D01*
X144150890Y-101151925D01*
X144319369Y-101558669D01*
X144563962Y-101924729D01*
X144875271Y-102236038D01*
X145241331Y-102480631D01*
X145648075Y-102649110D01*
X146079872Y-102735000D01*
X146520128Y-102735000D01*
X146951925Y-102649110D01*
X147358669Y-102480631D01*
X147724729Y-102236038D01*
X148036038Y-101924729D01*
X148280631Y-101558669D01*
X148449110Y-101151925D01*
X148535000Y-100720128D01*
X148535000Y-100279872D01*
X148449110Y-99848075D01*
X148280631Y-99441331D01*
X148036038Y-99075271D01*
X147724729Y-98763962D01*
X147358669Y-98519369D01*
X146951925Y-98350890D01*
X146520128Y-98265000D01*
X146079872Y-98265000D01*
X145648075Y-98350890D01*
X145241331Y-98519369D01*
X144875271Y-98763962D01*
X144563962Y-99075271D01*
X144319369Y-99441331D01*
X144150890Y-99848075D01*
X144065000Y-100279872D01*
X138877000Y-100279872D01*
X138877000Y-92595064D01*
X138998102Y-92645226D01*
X139198061Y-92685000D01*
X139401939Y-92685000D01*
X139601898Y-92645226D01*
X139790256Y-92567205D01*
X139959774Y-92453937D01*
X140103937Y-92309774D01*
X140217205Y-92140256D01*
X140295226Y-91951898D01*
X140335000Y-91751939D01*
X140335000Y-91548061D01*
X140295226Y-91348102D01*
X140217205Y-91159744D01*
X140103937Y-90990226D01*
X139959774Y-90846063D01*
X139790256Y-90732795D01*
X139601898Y-90654774D01*
X139401939Y-90615000D01*
X139339802Y-90615000D01*
X138877000Y-90152198D01*
X138877000Y-87650000D01*
X138874473Y-87624790D01*
X138867163Y-87600991D01*
X138855351Y-87579076D01*
X138839490Y-87559886D01*
X138820190Y-87544159D01*
X138798192Y-87532499D01*
X138774343Y-87525355D01*
X138749558Y-87523001D01*
X124374558Y-87572998D01*
X124349752Y-87575532D01*
X124325955Y-87582849D01*
X124304043Y-87594668D01*
X124284858Y-87610535D01*
X124269137Y-87629840D01*
X124257484Y-87651841D01*
X124250347Y-87675693D01*
X124248001Y-87700478D01*
X124249855Y-88190000D01*
X122337333Y-88190000D01*
X122300000Y-88186323D01*
X122262667Y-88190000D01*
X122114802Y-88190000D01*
X119735001Y-85810200D01*
X119735001Y-83648061D01*
X126615004Y-83648061D01*
X126615004Y-83851939D01*
X126654778Y-84051898D01*
X126732799Y-84240256D01*
X126846067Y-84409774D01*
X126990230Y-84553937D01*
X127159748Y-84667205D01*
X127348106Y-84745226D01*
X127548065Y-84785000D01*
X127751943Y-84785000D01*
X127951902Y-84745226D01*
X128140260Y-84667205D01*
X128309778Y-84553937D01*
X128353715Y-84510000D01*
X129035199Y-84510000D01*
X130215000Y-85689802D01*
X130215000Y-85751939D01*
X130254774Y-85951898D01*
X130332795Y-86140256D01*
X130446063Y-86309774D01*
X130590226Y-86453937D01*
X130759744Y-86567205D01*
X130948102Y-86645226D01*
X131148061Y-86685000D01*
X131351939Y-86685000D01*
X131551898Y-86645226D01*
X131740256Y-86567205D01*
X131909774Y-86453937D01*
X132053937Y-86309774D01*
X132077253Y-86274879D01*
X141405265Y-86274879D01*
X141420609Y-96938520D01*
X141422153Y-96958081D01*
X141428415Y-96982177D01*
X141439258Y-97004588D01*
X141454265Y-97024453D01*
X141472859Y-97041009D01*
X141494326Y-97053619D01*
X141517840Y-97061799D01*
X141542498Y-97065234D01*
X148010949Y-97325759D01*
X148040053Y-97323575D01*
X148063922Y-97316498D01*
X148085952Y-97304900D01*
X148105296Y-97289227D01*
X148121211Y-97270082D01*
X148133085Y-97248199D01*
X148140462Y-97224421D01*
X148143057Y-97199660D01*
X148210938Y-86401937D01*
X148208956Y-86378771D01*
X148202190Y-86354811D01*
X148190879Y-86332632D01*
X148175460Y-86313086D01*
X148156523Y-86296923D01*
X148134797Y-86284766D01*
X148111116Y-86277081D01*
X148086392Y-86274163D01*
X141534716Y-86147720D01*
X141507309Y-86150172D01*
X141483495Y-86157433D01*
X141461556Y-86169201D01*
X141442333Y-86185023D01*
X141426567Y-86204291D01*
X141414862Y-86226264D01*
X141407670Y-86250099D01*
X141405265Y-86274879D01*
X132077253Y-86274879D01*
X132167205Y-86140256D01*
X132245226Y-85951898D01*
X132285000Y-85751939D01*
X132285000Y-85548061D01*
X132245226Y-85348102D01*
X132167205Y-85159744D01*
X132053937Y-84990226D01*
X131909774Y-84846063D01*
X131740256Y-84732795D01*
X131551898Y-84654774D01*
X131351939Y-84615000D01*
X131289802Y-84615000D01*
X130790367Y-84115565D01*
X143764040Y-84115565D01*
X143831020Y-84355656D01*
X144080048Y-84472756D01*
X144347135Y-84539023D01*
X144622017Y-84551910D01*
X144894133Y-84510922D01*
X145153023Y-84417636D01*
X145268980Y-84355656D01*
X145335960Y-84115565D01*
X144550000Y-83329605D01*
X143764040Y-84115565D01*
X130790367Y-84115565D01*
X129913804Y-83239003D01*
X129899864Y-83222017D01*
X143148090Y-83222017D01*
X143189078Y-83494133D01*
X143282364Y-83753023D01*
X143344344Y-83868980D01*
X143584435Y-83935960D01*
X144370395Y-83150000D01*
X144729605Y-83150000D01*
X145515565Y-83935960D01*
X145755656Y-83868980D01*
X145872756Y-83619952D01*
X145939023Y-83352865D01*
X145951910Y-83077983D01*
X145910922Y-82805867D01*
X145817636Y-82546977D01*
X145755656Y-82431020D01*
X145515565Y-82364040D01*
X144729605Y-83150000D01*
X144370395Y-83150000D01*
X143584435Y-82364040D01*
X143344344Y-82431020D01*
X143227244Y-82680048D01*
X143160977Y-82947135D01*
X143148090Y-83222017D01*
X129899864Y-83222017D01*
X129890001Y-83209999D01*
X129774276Y-83115026D01*
X129642247Y-83044454D01*
X129498986Y-83000997D01*
X129387333Y-82990000D01*
X129387322Y-82990000D01*
X129350000Y-82986324D01*
X129312678Y-82990000D01*
X128353715Y-82990000D01*
X128309778Y-82946063D01*
X128140260Y-82832795D01*
X127951902Y-82754774D01*
X127751943Y-82715000D01*
X127548065Y-82715000D01*
X127348106Y-82754774D01*
X127159748Y-82832795D01*
X126990230Y-82946063D01*
X126846067Y-83090226D01*
X126732799Y-83259744D01*
X126654778Y-83448102D01*
X126615004Y-83648061D01*
X119735001Y-83648061D01*
X119735001Y-82184435D01*
X143764040Y-82184435D01*
X144550000Y-82970395D01*
X145335960Y-82184435D01*
X145268980Y-81944344D01*
X145019952Y-81827244D01*
X144752865Y-81760977D01*
X144477983Y-81748090D01*
X144205867Y-81789078D01*
X143946977Y-81882364D01*
X143831020Y-81944344D01*
X143764040Y-82184435D01*
X119735001Y-82184435D01*
X119735001Y-80250000D01*
X143011928Y-80250000D01*
X143024188Y-80374482D01*
X143060498Y-80494180D01*
X143119463Y-80604494D01*
X143198815Y-80701185D01*
X143295506Y-80780537D01*
X143405820Y-80839502D01*
X143525518Y-80875812D01*
X143650000Y-80888072D01*
X144264250Y-80885000D01*
X144423000Y-80726250D01*
X144423000Y-79477000D01*
X144677000Y-79477000D01*
X144677000Y-80726250D01*
X144835750Y-80885000D01*
X145450000Y-80888072D01*
X145574482Y-80875812D01*
X145694180Y-80839502D01*
X145804494Y-80780537D01*
X145901185Y-80701185D01*
X145980537Y-80604494D01*
X146039502Y-80494180D01*
X146075812Y-80374482D01*
X146088072Y-80250000D01*
X146085000Y-79635750D01*
X145926250Y-79477000D01*
X144677000Y-79477000D01*
X144423000Y-79477000D01*
X143173750Y-79477000D01*
X143015000Y-79635750D01*
X143011928Y-80250000D01*
X119735001Y-80250000D01*
X119735001Y-80124405D01*
X119737069Y-80103410D01*
X119886632Y-80003475D01*
X120093475Y-79796632D01*
X120255990Y-79553411D01*
X120367932Y-79283158D01*
X120425000Y-78996260D01*
X120425000Y-78703740D01*
X120374528Y-78450000D01*
X143011928Y-78450000D01*
X143015000Y-79064250D01*
X143173750Y-79223000D01*
X144423000Y-79223000D01*
X144423000Y-77973750D01*
X144677000Y-77973750D01*
X144677000Y-79223000D01*
X145926250Y-79223000D01*
X146085000Y-79064250D01*
X146088072Y-78450000D01*
X146075812Y-78325518D01*
X146039502Y-78205820D01*
X145980537Y-78095506D01*
X145901185Y-77998815D01*
X145804494Y-77919463D01*
X145694180Y-77860498D01*
X145574482Y-77824188D01*
X145450000Y-77811928D01*
X144835750Y-77815000D01*
X144677000Y-77973750D01*
X144423000Y-77973750D01*
X144264250Y-77815000D01*
X143650000Y-77811928D01*
X143525518Y-77824188D01*
X143405820Y-77860498D01*
X143295506Y-77919463D01*
X143198815Y-77998815D01*
X143119463Y-78095506D01*
X143060498Y-78205820D01*
X143024188Y-78325518D01*
X143011928Y-78450000D01*
X120374528Y-78450000D01*
X120367932Y-78416842D01*
X120255990Y-78146589D01*
X120093475Y-77903368D01*
X119886632Y-77696525D01*
X119643411Y-77534010D01*
X119373158Y-77422068D01*
X119086260Y-77365000D01*
X118793740Y-77365000D01*
X118506842Y-77422068D01*
X118236589Y-77534010D01*
X117993368Y-77696525D01*
X117786525Y-77903368D01*
X117670000Y-78077760D01*
X117553475Y-77903368D01*
X117346632Y-77696525D01*
X117103411Y-77534010D01*
X116833158Y-77422068D01*
X116546260Y-77365000D01*
X116253740Y-77365000D01*
X115966842Y-77422068D01*
X115696589Y-77534010D01*
X115453368Y-77696525D01*
X115246525Y-77903368D01*
X115130000Y-78077760D01*
X115013475Y-77903368D01*
X114806632Y-77696525D01*
X114563411Y-77534010D01*
X114293158Y-77422068D01*
X114006260Y-77365000D01*
X113713740Y-77365000D01*
X113426842Y-77422068D01*
X113156589Y-77534010D01*
X112913368Y-77696525D01*
X112706525Y-77903368D01*
X112590000Y-78077760D01*
X112473475Y-77903368D01*
X112266632Y-77696525D01*
X112023411Y-77534010D01*
X111753158Y-77422068D01*
X111466260Y-77365000D01*
X111173740Y-77365000D01*
X110886842Y-77422068D01*
X110616589Y-77534010D01*
X110373368Y-77696525D01*
X110166525Y-77903368D01*
X110050000Y-78077760D01*
X109933475Y-77903368D01*
X109726632Y-77696525D01*
X109483411Y-77534010D01*
X109213158Y-77422068D01*
X108926260Y-77365000D01*
X108633740Y-77365000D01*
X108346842Y-77422068D01*
X108076589Y-77534010D01*
X107833368Y-77696525D01*
X107626525Y-77903368D01*
X107510000Y-78077760D01*
X107393475Y-77903368D01*
X107186632Y-77696525D01*
X106943411Y-77534010D01*
X106673158Y-77422068D01*
X106386260Y-77365000D01*
X106093740Y-77365000D01*
X105806842Y-77422068D01*
X105536589Y-77534010D01*
X105293368Y-77696525D01*
X105086525Y-77903368D01*
X104970000Y-78077760D01*
X104853475Y-77903368D01*
X104646632Y-77696525D01*
X104403411Y-77534010D01*
X104133158Y-77422068D01*
X103846260Y-77365000D01*
X103553740Y-77365000D01*
X103266842Y-77422068D01*
X102996589Y-77534010D01*
X102753368Y-77696525D01*
X102546525Y-77903368D01*
X102430000Y-78077760D01*
X102313475Y-77903368D01*
X102106632Y-77696525D01*
X101863411Y-77534010D01*
X101593158Y-77422068D01*
X101306260Y-77365000D01*
X101013740Y-77365000D01*
X100726842Y-77422068D01*
X100456589Y-77534010D01*
X100213368Y-77696525D01*
X100006525Y-77903368D01*
X99890000Y-78077760D01*
X99773475Y-77903368D01*
X99566632Y-77696525D01*
X99323411Y-77534010D01*
X99053158Y-77422068D01*
X98766260Y-77365000D01*
X98473740Y-77365000D01*
X98186842Y-77422068D01*
X97916589Y-77534010D01*
X97673368Y-77696525D01*
X97466525Y-77903368D01*
X97350000Y-78077760D01*
X97233475Y-77903368D01*
X97026632Y-77696525D01*
X96783411Y-77534010D01*
X96513158Y-77422068D01*
X96226260Y-77365000D01*
X95933740Y-77365000D01*
X95646842Y-77422068D01*
X95376589Y-77534010D01*
X95133368Y-77696525D01*
X94926525Y-77903368D01*
X94810000Y-78077760D01*
X94693475Y-77903368D01*
X94486632Y-77696525D01*
X94243411Y-77534010D01*
X93973158Y-77422068D01*
X93686260Y-77365000D01*
X93393740Y-77365000D01*
X93106842Y-77422068D01*
X92836589Y-77534010D01*
X92593368Y-77696525D01*
X92461513Y-77828380D01*
X92439502Y-77755820D01*
X92380537Y-77645506D01*
X92301185Y-77548815D01*
X92204494Y-77469463D01*
X92094180Y-77410498D01*
X91974482Y-77374188D01*
X91850000Y-77361928D01*
X91285750Y-77365000D01*
X91127000Y-77523750D01*
X91127000Y-78723000D01*
X91147000Y-78723000D01*
X91147000Y-78977000D01*
X91127000Y-78977000D01*
X91127000Y-78997000D01*
X90873000Y-78997000D01*
X90873000Y-78977000D01*
X89673750Y-78977000D01*
X89515000Y-79135750D01*
X89511928Y-79700000D01*
X89524188Y-79824482D01*
X89560498Y-79944180D01*
X89619463Y-80054494D01*
X89698815Y-80151185D01*
X89795506Y-80230537D01*
X89860122Y-80265076D01*
X88288808Y-81836391D01*
X88289046Y-81835564D01*
X88291138Y-81810755D01*
X88237642Y-78000000D01*
X89511928Y-78000000D01*
X89515000Y-78564250D01*
X89673750Y-78723000D01*
X90873000Y-78723000D01*
X90873000Y-77523750D01*
X90714250Y-77365000D01*
X90150000Y-77361928D01*
X90025518Y-77374188D01*
X89905820Y-77410498D01*
X89795506Y-77469463D01*
X89698815Y-77548815D01*
X89619463Y-77645506D01*
X89560498Y-77755820D01*
X89524188Y-77875518D01*
X89511928Y-78000000D01*
X88237642Y-78000000D01*
X88221876Y-76877000D01*
X148797050Y-76877000D01*
X149390000Y-77475456D01*
G36*
X102354774Y-85698102D02*
G01*
X102315000Y-85898061D01*
X102315000Y-86101939D01*
X102354774Y-86301898D01*
X102432795Y-86490256D01*
X102546063Y-86659774D01*
X102590000Y-86703711D01*
X102590001Y-87612668D01*
X102586324Y-87650000D01*
X102590001Y-87687333D01*
X102600998Y-87798986D01*
X102604643Y-87811003D01*
X102644454Y-87942246D01*
X102715026Y-88074276D01*
X102768143Y-88138998D01*
X102810000Y-88190001D01*
X102838998Y-88213799D01*
X106365000Y-91739802D01*
X106365000Y-91801939D01*
X106399827Y-91977027D01*
X105753700Y-91977027D01*
X105709763Y-91933090D01*
X105540245Y-91819822D01*
X105351887Y-91741801D01*
X105151928Y-91702027D01*
X104948050Y-91702027D01*
X104748091Y-91741801D01*
X104559733Y-91819822D01*
X104390215Y-91933090D01*
X104246052Y-92077253D01*
X104132784Y-92246771D01*
X104054763Y-92435129D01*
X104014989Y-92635088D01*
X104014989Y-92838966D01*
X104054763Y-93038925D01*
X104132784Y-93227283D01*
X104246052Y-93396801D01*
X104390215Y-93540964D01*
X104559733Y-93654232D01*
X104748091Y-93732253D01*
X104802185Y-93743013D01*
X102886408Y-95658791D01*
X102666260Y-95615000D01*
X102373740Y-95615000D01*
X102086842Y-95672068D01*
X101816589Y-95784010D01*
X101573368Y-95946525D01*
X101366525Y-96153368D01*
X101204010Y-96396589D01*
X101092068Y-96666842D01*
X101035000Y-96953740D01*
X101035000Y-97246260D01*
X101092068Y-97533158D01*
X101204010Y-97803411D01*
X101366525Y-98046632D01*
X101573368Y-98253475D01*
X101749406Y-98371100D01*
X101519731Y-98542412D01*
X101324822Y-98758645D01*
X101175843Y-99008748D01*
X101078519Y-99283109D01*
X101199186Y-99513000D01*
X102393000Y-99513000D01*
X102393000Y-99493000D01*
X102647000Y-99493000D01*
X102647000Y-99513000D01*
X102667000Y-99513000D01*
X102667000Y-99767000D01*
X102647000Y-99767000D01*
X102647000Y-99787000D01*
X102393000Y-99787000D01*
X102393000Y-99767000D01*
X101199186Y-99767000D01*
X101078519Y-99996891D01*
X101175843Y-100271252D01*
X101324822Y-100521355D01*
X101386698Y-100590000D01*
X101114802Y-100590000D01*
X100460000Y-99935199D01*
X100460000Y-95549414D01*
X100463677Y-95512081D01*
X100449003Y-95363095D01*
X100405546Y-95219834D01*
X100334974Y-95087805D01*
X100263799Y-95001078D01*
X100240001Y-94972080D01*
X100211003Y-94948282D01*
X98647919Y-93385199D01*
X98647919Y-92642920D01*
X98714868Y-92642920D01*
X98914827Y-92603146D01*
X99103185Y-92525125D01*
X99272703Y-92411857D01*
X99416866Y-92267694D01*
X99530134Y-92098176D01*
X99608155Y-91909818D01*
X99647929Y-91709859D01*
X99647929Y-91647721D01*
X100311003Y-90984648D01*
X100340001Y-90960850D01*
X100366332Y-90928766D01*
X100434974Y-90845126D01*
X100505546Y-90713096D01*
X100513362Y-90687329D01*
X100549003Y-90569835D01*
X100560000Y-90458182D01*
X100560000Y-90458172D01*
X100563676Y-90420849D01*
X100560000Y-90383526D01*
X100560000Y-90203711D01*
X100603937Y-90159774D01*
X100717205Y-89990256D01*
X100795226Y-89801898D01*
X100835000Y-89601939D01*
X100835000Y-89398061D01*
X100795226Y-89198102D01*
X100717205Y-89009744D01*
X100603937Y-88840226D01*
X100459774Y-88696063D01*
X100290256Y-88582795D01*
X100101898Y-88504774D01*
X99901939Y-88465000D01*
X99698061Y-88465000D01*
X99498102Y-88504774D01*
X99309744Y-88582795D01*
X99140226Y-88696063D01*
X98996063Y-88840226D01*
X98882795Y-89009744D01*
X98804774Y-89198102D01*
X98765000Y-89398061D01*
X98765000Y-89601939D01*
X98804774Y-89801898D01*
X98882795Y-89990256D01*
X98992142Y-90153905D01*
X98618348Y-90527700D01*
X98593465Y-90445672D01*
X98522893Y-90313643D01*
X98427920Y-90197918D01*
X98398922Y-90174120D01*
X97426290Y-89201489D01*
X97467205Y-89140256D01*
X97545226Y-88951898D01*
X97585000Y-88751939D01*
X97585000Y-88548061D01*
X97545226Y-88348102D01*
X97467205Y-88159744D01*
X97400558Y-88060000D01*
X98521002Y-88060000D01*
X98558324Y-88063676D01*
X98595646Y-88060000D01*
X98595657Y-88060000D01*
X98707310Y-88049003D01*
X98850571Y-88005546D01*
X98982600Y-87934974D01*
X99098325Y-87840001D01*
X99122128Y-87810997D01*
X101029159Y-85903967D01*
X101091296Y-85903967D01*
X101291255Y-85864193D01*
X101479613Y-85786172D01*
X101637678Y-85680557D01*
X101673092Y-85695226D01*
X101873051Y-85735000D01*
X102076929Y-85735000D01*
X102276888Y-85695226D01*
X102372343Y-85655687D01*
X102354774Y-85698102D01*
G37*
X102354774Y-85698102D02*
X102315000Y-85898061D01*
X102315000Y-86101939D01*
X102354774Y-86301898D01*
X102432795Y-86490256D01*
X102546063Y-86659774D01*
X102590000Y-86703711D01*
X102590001Y-87612668D01*
X102586324Y-87650000D01*
X102590001Y-87687333D01*
X102600998Y-87798986D01*
X102604643Y-87811003D01*
X102644454Y-87942246D01*
X102715026Y-88074276D01*
X102768143Y-88138998D01*
X102810000Y-88190001D01*
X102838998Y-88213799D01*
X106365000Y-91739802D01*
X106365000Y-91801939D01*
X106399827Y-91977027D01*
X105753700Y-91977027D01*
X105709763Y-91933090D01*
X105540245Y-91819822D01*
X105351887Y-91741801D01*
X105151928Y-91702027D01*
X104948050Y-91702027D01*
X104748091Y-91741801D01*
X104559733Y-91819822D01*
X104390215Y-91933090D01*
X104246052Y-92077253D01*
X104132784Y-92246771D01*
X104054763Y-92435129D01*
X104014989Y-92635088D01*
X104014989Y-92838966D01*
X104054763Y-93038925D01*
X104132784Y-93227283D01*
X104246052Y-93396801D01*
X104390215Y-93540964D01*
X104559733Y-93654232D01*
X104748091Y-93732253D01*
X104802185Y-93743013D01*
X102886408Y-95658791D01*
X102666260Y-95615000D01*
X102373740Y-95615000D01*
X102086842Y-95672068D01*
X101816589Y-95784010D01*
X101573368Y-95946525D01*
X101366525Y-96153368D01*
X101204010Y-96396589D01*
X101092068Y-96666842D01*
X101035000Y-96953740D01*
X101035000Y-97246260D01*
X101092068Y-97533158D01*
X101204010Y-97803411D01*
X101366525Y-98046632D01*
X101573368Y-98253475D01*
X101749406Y-98371100D01*
X101519731Y-98542412D01*
X101324822Y-98758645D01*
X101175843Y-99008748D01*
X101078519Y-99283109D01*
X101199186Y-99513000D01*
X102393000Y-99513000D01*
X102393000Y-99493000D01*
X102647000Y-99493000D01*
X102647000Y-99513000D01*
X102667000Y-99513000D01*
X102667000Y-99767000D01*
X102647000Y-99767000D01*
X102647000Y-99787000D01*
X102393000Y-99787000D01*
X102393000Y-99767000D01*
X101199186Y-99767000D01*
X101078519Y-99996891D01*
X101175843Y-100271252D01*
X101324822Y-100521355D01*
X101386698Y-100590000D01*
X101114802Y-100590000D01*
X100460000Y-99935199D01*
X100460000Y-95549414D01*
X100463677Y-95512081D01*
X100449003Y-95363095D01*
X100405546Y-95219834D01*
X100334974Y-95087805D01*
X100263799Y-95001078D01*
X100240001Y-94972080D01*
X100211003Y-94948282D01*
X98647919Y-93385199D01*
X98647919Y-92642920D01*
X98714868Y-92642920D01*
X98914827Y-92603146D01*
X99103185Y-92525125D01*
X99272703Y-92411857D01*
X99416866Y-92267694D01*
X99530134Y-92098176D01*
X99608155Y-91909818D01*
X99647929Y-91709859D01*
X99647929Y-91647721D01*
X100311003Y-90984648D01*
X100340001Y-90960850D01*
X100366332Y-90928766D01*
X100434974Y-90845126D01*
X100505546Y-90713096D01*
X100513362Y-90687329D01*
X100549003Y-90569835D01*
X100560000Y-90458182D01*
X100560000Y-90458172D01*
X100563676Y-90420849D01*
X100560000Y-90383526D01*
X100560000Y-90203711D01*
X100603937Y-90159774D01*
X100717205Y-89990256D01*
X100795226Y-89801898D01*
X100835000Y-89601939D01*
X100835000Y-89398061D01*
X100795226Y-89198102D01*
X100717205Y-89009744D01*
X100603937Y-88840226D01*
X100459774Y-88696063D01*
X100290256Y-88582795D01*
X100101898Y-88504774D01*
X99901939Y-88465000D01*
X99698061Y-88465000D01*
X99498102Y-88504774D01*
X99309744Y-88582795D01*
X99140226Y-88696063D01*
X98996063Y-88840226D01*
X98882795Y-89009744D01*
X98804774Y-89198102D01*
X98765000Y-89398061D01*
X98765000Y-89601939D01*
X98804774Y-89801898D01*
X98882795Y-89990256D01*
X98992142Y-90153905D01*
X98618348Y-90527700D01*
X98593465Y-90445672D01*
X98522893Y-90313643D01*
X98427920Y-90197918D01*
X98398922Y-90174120D01*
X97426290Y-89201489D01*
X97467205Y-89140256D01*
X97545226Y-88951898D01*
X97585000Y-88751939D01*
X97585000Y-88548061D01*
X97545226Y-88348102D01*
X97467205Y-88159744D01*
X97400558Y-88060000D01*
X98521002Y-88060000D01*
X98558324Y-88063676D01*
X98595646Y-88060000D01*
X98595657Y-88060000D01*
X98707310Y-88049003D01*
X98850571Y-88005546D01*
X98982600Y-87934974D01*
X99098325Y-87840001D01*
X99122128Y-87810997D01*
X101029159Y-85903967D01*
X101091296Y-85903967D01*
X101291255Y-85864193D01*
X101479613Y-85786172D01*
X101637678Y-85680557D01*
X101673092Y-85695226D01*
X101873051Y-85735000D01*
X102076929Y-85735000D01*
X102276888Y-85695226D01*
X102372343Y-85655687D01*
X102354774Y-85698102D01*
G36*
X117786525Y-79796632D02*
G01*
X117993368Y-80003475D01*
X118184087Y-80130909D01*
X118190997Y-80201066D01*
X118215002Y-80280201D01*
X118215001Y-86087678D01*
X118211325Y-86125001D01*
X118215001Y-86162323D01*
X118215001Y-86162333D01*
X118225998Y-86273986D01*
X118256420Y-86374276D01*
X118269455Y-86417247D01*
X118340027Y-86549277D01*
X118377103Y-86594454D01*
X118435000Y-86665002D01*
X118464004Y-86688805D01*
X121236200Y-89461002D01*
X121259999Y-89490001D01*
X121288997Y-89513799D01*
X121375723Y-89584974D01*
X121488446Y-89645226D01*
X121507753Y-89655546D01*
X121540001Y-89665328D01*
X121540000Y-91535198D01*
X120088998Y-92986201D01*
X120060000Y-93009999D01*
X120036202Y-93038997D01*
X120036201Y-93038998D01*
X119965026Y-93125724D01*
X119944032Y-93165000D01*
X119773051Y-93165000D01*
X119573092Y-93204774D01*
X119384734Y-93282795D01*
X119215216Y-93396063D01*
X119171279Y-93440000D01*
X118914803Y-93440000D01*
X115035000Y-89560199D01*
X115035000Y-89498061D01*
X114995226Y-89298102D01*
X114917205Y-89109744D01*
X114803937Y-88940226D01*
X114659774Y-88796063D01*
X114490256Y-88682795D01*
X114301898Y-88604774D01*
X114101939Y-88565000D01*
X113898061Y-88565000D01*
X113698102Y-88604774D01*
X113509744Y-88682795D01*
X113340226Y-88796063D01*
X113196063Y-88940226D01*
X113082795Y-89109744D01*
X113004774Y-89298102D01*
X112965000Y-89498061D01*
X112965000Y-89701939D01*
X113004774Y-89901898D01*
X113082795Y-90090256D01*
X113196063Y-90259774D01*
X113340226Y-90403937D01*
X113509744Y-90517205D01*
X113698102Y-90595226D01*
X113898061Y-90635000D01*
X113960199Y-90635000D01*
X118036205Y-94711008D01*
X118059999Y-94740001D01*
X118088992Y-94763795D01*
X118088996Y-94763799D01*
X118126350Y-94794454D01*
X118175724Y-94834974D01*
X118307753Y-94905546D01*
X118451014Y-94949003D01*
X118562667Y-94960000D01*
X118562676Y-94960000D01*
X118599999Y-94963676D01*
X118637322Y-94960000D01*
X119171279Y-94960000D01*
X119215216Y-95003937D01*
X119384734Y-95117205D01*
X119573092Y-95195226D01*
X119773051Y-95235000D01*
X119790198Y-95235000D01*
X118899731Y-96125468D01*
X118825724Y-96165026D01*
X118825722Y-96165027D01*
X118825723Y-96165027D01*
X118738996Y-96236201D01*
X118738992Y-96236205D01*
X118709999Y-96259999D01*
X118686205Y-96288992D01*
X118235198Y-96740000D01*
X114850558Y-96740000D01*
X114917205Y-96640256D01*
X114995226Y-96451898D01*
X115035000Y-96251939D01*
X115035000Y-96048061D01*
X115034650Y-96046302D01*
X115049003Y-95998986D01*
X115060000Y-95887333D01*
X115060000Y-95887324D01*
X115063676Y-95850001D01*
X115060000Y-95812678D01*
X115060000Y-93403711D01*
X115103937Y-93359774D01*
X115217205Y-93190256D01*
X115295226Y-93001898D01*
X115335000Y-92801939D01*
X115335000Y-92598061D01*
X115295226Y-92398102D01*
X115217205Y-92209744D01*
X115103937Y-92040226D01*
X114959774Y-91896063D01*
X114790256Y-91782795D01*
X114601898Y-91704774D01*
X114401939Y-91665000D01*
X114198061Y-91665000D01*
X113998102Y-91704774D01*
X113809744Y-91782795D01*
X113640226Y-91896063D01*
X113596289Y-91940000D01*
X111056018Y-91940000D01*
X111031735Y-91903658D01*
X110887572Y-91759495D01*
X110718054Y-91646227D01*
X110529696Y-91568206D01*
X110335001Y-91529479D01*
X110335001Y-86260011D01*
X112114241Y-86260011D01*
X112151563Y-86263687D01*
X112188885Y-86260011D01*
X112188896Y-86260011D01*
X112300549Y-86249014D01*
X112443810Y-86205557D01*
X112575839Y-86134985D01*
X112691564Y-86040012D01*
X112715367Y-86011008D01*
X116911003Y-81815373D01*
X116940001Y-81791575D01*
X117034974Y-81675850D01*
X117105546Y-81543821D01*
X117149003Y-81400560D01*
X117160000Y-81288907D01*
X117160000Y-81288898D01*
X117163676Y-81251575D01*
X117160000Y-81214252D01*
X117160000Y-80128178D01*
X117346632Y-80003475D01*
X117553475Y-79796632D01*
X117670000Y-79622240D01*
X117786525Y-79796632D01*
G37*
X117786525Y-79796632D02*
X117993368Y-80003475D01*
X118184087Y-80130909D01*
X118190997Y-80201066D01*
X118215002Y-80280201D01*
X118215001Y-86087678D01*
X118211325Y-86125001D01*
X118215001Y-86162323D01*
X118215001Y-86162333D01*
X118225998Y-86273986D01*
X118256420Y-86374276D01*
X118269455Y-86417247D01*
X118340027Y-86549277D01*
X118377103Y-86594454D01*
X118435000Y-86665002D01*
X118464004Y-86688805D01*
X121236200Y-89461002D01*
X121259999Y-89490001D01*
X121288997Y-89513799D01*
X121375723Y-89584974D01*
X121488446Y-89645226D01*
X121507753Y-89655546D01*
X121540001Y-89665328D01*
X121540000Y-91535198D01*
X120088998Y-92986201D01*
X120060000Y-93009999D01*
X120036202Y-93038997D01*
X120036201Y-93038998D01*
X119965026Y-93125724D01*
X119944032Y-93165000D01*
X119773051Y-93165000D01*
X119573092Y-93204774D01*
X119384734Y-93282795D01*
X119215216Y-93396063D01*
X119171279Y-93440000D01*
X118914803Y-93440000D01*
X115035000Y-89560199D01*
X115035000Y-89498061D01*
X114995226Y-89298102D01*
X114917205Y-89109744D01*
X114803937Y-88940226D01*
X114659774Y-88796063D01*
X114490256Y-88682795D01*
X114301898Y-88604774D01*
X114101939Y-88565000D01*
X113898061Y-88565000D01*
X113698102Y-88604774D01*
X113509744Y-88682795D01*
X113340226Y-88796063D01*
X113196063Y-88940226D01*
X113082795Y-89109744D01*
X113004774Y-89298102D01*
X112965000Y-89498061D01*
X112965000Y-89701939D01*
X113004774Y-89901898D01*
X113082795Y-90090256D01*
X113196063Y-90259774D01*
X113340226Y-90403937D01*
X113509744Y-90517205D01*
X113698102Y-90595226D01*
X113898061Y-90635000D01*
X113960199Y-90635000D01*
X118036205Y-94711008D01*
X118059999Y-94740001D01*
X118088992Y-94763795D01*
X118088996Y-94763799D01*
X118126350Y-94794454D01*
X118175724Y-94834974D01*
X118307753Y-94905546D01*
X118451014Y-94949003D01*
X118562667Y-94960000D01*
X118562676Y-94960000D01*
X118599999Y-94963676D01*
X118637322Y-94960000D01*
X119171279Y-94960000D01*
X119215216Y-95003937D01*
X119384734Y-95117205D01*
X119573092Y-95195226D01*
X119773051Y-95235000D01*
X119790198Y-95235000D01*
X118899731Y-96125468D01*
X118825724Y-96165026D01*
X118825722Y-96165027D01*
X118825723Y-96165027D01*
X118738996Y-96236201D01*
X118738992Y-96236205D01*
X118709999Y-96259999D01*
X118686205Y-96288992D01*
X118235198Y-96740000D01*
X114850558Y-96740000D01*
X114917205Y-96640256D01*
X114995226Y-96451898D01*
X115035000Y-96251939D01*
X115035000Y-96048061D01*
X115034650Y-96046302D01*
X115049003Y-95998986D01*
X115060000Y-95887333D01*
X115060000Y-95887324D01*
X115063676Y-95850001D01*
X115060000Y-95812678D01*
X115060000Y-93403711D01*
X115103937Y-93359774D01*
X115217205Y-93190256D01*
X115295226Y-93001898D01*
X115335000Y-92801939D01*
X115335000Y-92598061D01*
X115295226Y-92398102D01*
X115217205Y-92209744D01*
X115103937Y-92040226D01*
X114959774Y-91896063D01*
X114790256Y-91782795D01*
X114601898Y-91704774D01*
X114401939Y-91665000D01*
X114198061Y-91665000D01*
X113998102Y-91704774D01*
X113809744Y-91782795D01*
X113640226Y-91896063D01*
X113596289Y-91940000D01*
X111056018Y-91940000D01*
X111031735Y-91903658D01*
X110887572Y-91759495D01*
X110718054Y-91646227D01*
X110529696Y-91568206D01*
X110335001Y-91529479D01*
X110335001Y-86260011D01*
X112114241Y-86260011D01*
X112151563Y-86263687D01*
X112188885Y-86260011D01*
X112188896Y-86260011D01*
X112300549Y-86249014D01*
X112443810Y-86205557D01*
X112575839Y-86134985D01*
X112691564Y-86040012D01*
X112715367Y-86011008D01*
X116911003Y-81815373D01*
X116940001Y-81791575D01*
X117034974Y-81675850D01*
X117105546Y-81543821D01*
X117149003Y-81400560D01*
X117160000Y-81288907D01*
X117160000Y-81288898D01*
X117163676Y-81251575D01*
X117160000Y-81214252D01*
X117160000Y-80128178D01*
X117346632Y-80003475D01*
X117553475Y-79796632D01*
X117670000Y-79622240D01*
X117786525Y-79796632D01*
G36*
X104198102Y-86945226D02*
G01*
X104398061Y-86985000D01*
X104460199Y-86985000D01*
X107810199Y-90335001D01*
X107804774Y-90348098D01*
X107765000Y-90548057D01*
X107765000Y-90730912D01*
X107701898Y-90704774D01*
X107501939Y-90665000D01*
X107439802Y-90665000D01*
X104110000Y-87335199D01*
X104110000Y-86908733D01*
X104198102Y-86945226D01*
G37*
X104198102Y-86945226D02*
X104398061Y-86985000D01*
X104460199Y-86985000D01*
X107810199Y-90335001D01*
X107804774Y-90348098D01*
X107765000Y-90548057D01*
X107765000Y-90730912D01*
X107701898Y-90704774D01*
X107501939Y-90665000D01*
X107439802Y-90665000D01*
X104110000Y-87335199D01*
X104110000Y-86908733D01*
X104198102Y-86945226D01*
G36*
X108815002Y-86289802D02*
G01*
X108815001Y-89190200D01*
X105584801Y-85960000D01*
X107762678Y-85960000D01*
X107800000Y-85963676D01*
X107837322Y-85960000D01*
X107837333Y-85960000D01*
X107948986Y-85949003D01*
X108092247Y-85905546D01*
X108224276Y-85834974D01*
X108298918Y-85773717D01*
X108815002Y-86289802D01*
G37*
X108815002Y-86289802D02*
X108815001Y-89190200D01*
X105584801Y-85960000D01*
X107762678Y-85960000D01*
X107800000Y-85963676D01*
X107837322Y-85960000D01*
X107837333Y-85960000D01*
X107948986Y-85949003D01*
X108092247Y-85905546D01*
X108224276Y-85834974D01*
X108298918Y-85773717D01*
X108815002Y-86289802D01*
G36*
X97466525Y-79796632D02*
G01*
X97673368Y-80003475D01*
X97916589Y-80165990D01*
X98186842Y-80277932D01*
X98473740Y-80335000D01*
X98766260Y-80335000D01*
X98986408Y-80291209D01*
X102503662Y-83808463D01*
X102465246Y-83782795D01*
X102276888Y-83704774D01*
X102076929Y-83665000D01*
X101873051Y-83665000D01*
X101673092Y-83704774D01*
X101484734Y-83782795D01*
X101326669Y-83888410D01*
X101291255Y-83873741D01*
X101091296Y-83833967D01*
X100887418Y-83833967D01*
X100687459Y-83873741D01*
X100499101Y-83951762D01*
X100329583Y-84065030D01*
X100185420Y-84209193D01*
X100072152Y-84378711D01*
X99994131Y-84567069D01*
X99954357Y-84767028D01*
X99954357Y-84829165D01*
X98243523Y-86540000D01*
X94134801Y-86540000D01*
X96539803Y-84135000D01*
X96601939Y-84135000D01*
X96801898Y-84095226D01*
X96990256Y-84017205D01*
X97159774Y-83903937D01*
X97303937Y-83759774D01*
X97417205Y-83590256D01*
X97495226Y-83401898D01*
X97535000Y-83201939D01*
X97535000Y-82998061D01*
X97495226Y-82798102D01*
X97417205Y-82609744D01*
X97303937Y-82440226D01*
X97159774Y-82296063D01*
X96990256Y-82182795D01*
X96801898Y-82104774D01*
X96601939Y-82065000D01*
X96398061Y-82065000D01*
X96198102Y-82104774D01*
X96009744Y-82182795D01*
X95840226Y-82296063D01*
X95696063Y-82440226D01*
X95582795Y-82609744D01*
X95504774Y-82798102D01*
X95465000Y-82998061D01*
X95465000Y-83060197D01*
X92492313Y-86032886D01*
X91580835Y-86032886D01*
X91653937Y-85959784D01*
X91767205Y-85790266D01*
X91845226Y-85601908D01*
X91885000Y-85401949D01*
X91885000Y-85198071D01*
X91845226Y-84998112D01*
X91767205Y-84809754D01*
X91653937Y-84640236D01*
X91610000Y-84596299D01*
X91610000Y-83782523D01*
X91613676Y-83745200D01*
X91610000Y-83707877D01*
X91610000Y-83707868D01*
X91599003Y-83596215D01*
X91555546Y-83452954D01*
X91484974Y-83320925D01*
X91461438Y-83292246D01*
X91413799Y-83234197D01*
X91413795Y-83234193D01*
X91390001Y-83205200D01*
X91361009Y-83181407D01*
X91241232Y-83061630D01*
X91241232Y-82999494D01*
X91201458Y-82799535D01*
X91123437Y-82611177D01*
X91010169Y-82441659D01*
X90866006Y-82297496D01*
X90696488Y-82184228D01*
X90508130Y-82106207D01*
X90308171Y-82066433D01*
X90208369Y-82066433D01*
X90789803Y-81484999D01*
X92937679Y-81484999D01*
X92975001Y-81488675D01*
X93012323Y-81484999D01*
X93012334Y-81484999D01*
X93123987Y-81474002D01*
X93267248Y-81430545D01*
X93399277Y-81359973D01*
X93515002Y-81265000D01*
X93538804Y-81235997D01*
X94051002Y-80723800D01*
X94080001Y-80700001D01*
X94174974Y-80584276D01*
X94245546Y-80452247D01*
X94289003Y-80308986D01*
X94300000Y-80197333D01*
X94300000Y-80197324D01*
X94303676Y-80160001D01*
X94300508Y-80127839D01*
X94486632Y-80003475D01*
X94693475Y-79796632D01*
X94810000Y-79622240D01*
X94926525Y-79796632D01*
X95133368Y-80003475D01*
X95376589Y-80165990D01*
X95646842Y-80277932D01*
X95933740Y-80335000D01*
X96226260Y-80335000D01*
X96513158Y-80277932D01*
X96783411Y-80165990D01*
X97026632Y-80003475D01*
X97233475Y-79796632D01*
X97350000Y-79622240D01*
X97466525Y-79796632D01*
G37*
X97466525Y-79796632D02*
X97673368Y-80003475D01*
X97916589Y-80165990D01*
X98186842Y-80277932D01*
X98473740Y-80335000D01*
X98766260Y-80335000D01*
X98986408Y-80291209D01*
X102503662Y-83808463D01*
X102465246Y-83782795D01*
X102276888Y-83704774D01*
X102076929Y-83665000D01*
X101873051Y-83665000D01*
X101673092Y-83704774D01*
X101484734Y-83782795D01*
X101326669Y-83888410D01*
X101291255Y-83873741D01*
X101091296Y-83833967D01*
X100887418Y-83833967D01*
X100687459Y-83873741D01*
X100499101Y-83951762D01*
X100329583Y-84065030D01*
X100185420Y-84209193D01*
X100072152Y-84378711D01*
X99994131Y-84567069D01*
X99954357Y-84767028D01*
X99954357Y-84829165D01*
X98243523Y-86540000D01*
X94134801Y-86540000D01*
X96539803Y-84135000D01*
X96601939Y-84135000D01*
X96801898Y-84095226D01*
X96990256Y-84017205D01*
X97159774Y-83903937D01*
X97303937Y-83759774D01*
X97417205Y-83590256D01*
X97495226Y-83401898D01*
X97535000Y-83201939D01*
X97535000Y-82998061D01*
X97495226Y-82798102D01*
X97417205Y-82609744D01*
X97303937Y-82440226D01*
X97159774Y-82296063D01*
X96990256Y-82182795D01*
X96801898Y-82104774D01*
X96601939Y-82065000D01*
X96398061Y-82065000D01*
X96198102Y-82104774D01*
X96009744Y-82182795D01*
X95840226Y-82296063D01*
X95696063Y-82440226D01*
X95582795Y-82609744D01*
X95504774Y-82798102D01*
X95465000Y-82998061D01*
X95465000Y-83060197D01*
X92492313Y-86032886D01*
X91580835Y-86032886D01*
X91653937Y-85959784D01*
X91767205Y-85790266D01*
X91845226Y-85601908D01*
X91885000Y-85401949D01*
X91885000Y-85198071D01*
X91845226Y-84998112D01*
X91767205Y-84809754D01*
X91653937Y-84640236D01*
X91610000Y-84596299D01*
X91610000Y-83782523D01*
X91613676Y-83745200D01*
X91610000Y-83707877D01*
X91610000Y-83707868D01*
X91599003Y-83596215D01*
X91555546Y-83452954D01*
X91484974Y-83320925D01*
X91461438Y-83292246D01*
X91413799Y-83234197D01*
X91413795Y-83234193D01*
X91390001Y-83205200D01*
X91361009Y-83181407D01*
X91241232Y-83061630D01*
X91241232Y-82999494D01*
X91201458Y-82799535D01*
X91123437Y-82611177D01*
X91010169Y-82441659D01*
X90866006Y-82297496D01*
X90696488Y-82184228D01*
X90508130Y-82106207D01*
X90308171Y-82066433D01*
X90208369Y-82066433D01*
X90789803Y-81484999D01*
X92937679Y-81484999D01*
X92975001Y-81488675D01*
X93012323Y-81484999D01*
X93012334Y-81484999D01*
X93123987Y-81474002D01*
X93267248Y-81430545D01*
X93399277Y-81359973D01*
X93515002Y-81265000D01*
X93538804Y-81235997D01*
X94051002Y-80723800D01*
X94080001Y-80700001D01*
X94174974Y-80584276D01*
X94245546Y-80452247D01*
X94289003Y-80308986D01*
X94300000Y-80197333D01*
X94300000Y-80197324D01*
X94303676Y-80160001D01*
X94300508Y-80127839D01*
X94486632Y-80003475D01*
X94693475Y-79796632D01*
X94810000Y-79622240D01*
X94926525Y-79796632D01*
X95133368Y-80003475D01*
X95376589Y-80165990D01*
X95646842Y-80277932D01*
X95933740Y-80335000D01*
X96226260Y-80335000D01*
X96513158Y-80277932D01*
X96783411Y-80165990D01*
X97026632Y-80003475D01*
X97233475Y-79796632D01*
X97350000Y-79622240D01*
X97466525Y-79796632D01*
G36*
X112706525Y-79796632D02*
G01*
X112913368Y-80003475D01*
X113100000Y-80128179D01*
X113100001Y-82403769D01*
X111763761Y-83740010D01*
X111701623Y-83740010D01*
X111501664Y-83779784D01*
X111313306Y-83857805D01*
X111143788Y-83971073D01*
X110999625Y-84115236D01*
X110886357Y-84284754D01*
X110808336Y-84473112D01*
X110768562Y-84673071D01*
X110768562Y-84740011D01*
X110673453Y-84740011D01*
X110645226Y-84598102D01*
X110567205Y-84409744D01*
X110453937Y-84240226D01*
X110309774Y-84096063D01*
X110140256Y-83982795D01*
X109951898Y-83904774D01*
X109751939Y-83865000D01*
X109548061Y-83865000D01*
X109348102Y-83904774D01*
X109159744Y-83982795D01*
X109091864Y-84028151D01*
X108959775Y-83896062D01*
X108790257Y-83782794D01*
X108601899Y-83704773D01*
X108401940Y-83664999D01*
X108198062Y-83664999D01*
X107998103Y-83704773D01*
X107809745Y-83782794D01*
X107640227Y-83896062D01*
X107496064Y-84040225D01*
X107382796Y-84209743D01*
X107304775Y-84398101D01*
X107296441Y-84440000D01*
X106560205Y-84440000D01*
X106615246Y-84417201D01*
X106784764Y-84303933D01*
X106928927Y-84159770D01*
X107042195Y-83990252D01*
X107120216Y-83801894D01*
X107159990Y-83601935D01*
X107159990Y-83398057D01*
X107120216Y-83198098D01*
X107042195Y-83009740D01*
X107023077Y-82981128D01*
X107117205Y-82840256D01*
X107195226Y-82651898D01*
X107235000Y-82451939D01*
X107235000Y-82248061D01*
X107195226Y-82048102D01*
X107117205Y-81859744D01*
X107003937Y-81690226D01*
X106960000Y-81646289D01*
X106960000Y-81387323D01*
X106963676Y-81350000D01*
X106960000Y-81312677D01*
X106960000Y-81312667D01*
X106949003Y-81201014D01*
X106905546Y-81057753D01*
X106834974Y-80925723D01*
X106763799Y-80838997D01*
X106740001Y-80809999D01*
X106711004Y-80786202D01*
X106259802Y-80335000D01*
X106386260Y-80335000D01*
X106673158Y-80277932D01*
X106943411Y-80165990D01*
X107186632Y-80003475D01*
X107393475Y-79796632D01*
X107510000Y-79622240D01*
X107626525Y-79796632D01*
X107833368Y-80003475D01*
X108076589Y-80165990D01*
X108346842Y-80277932D01*
X108633740Y-80335000D01*
X108926260Y-80335000D01*
X109213158Y-80277932D01*
X109483411Y-80165990D01*
X109726632Y-80003475D01*
X109933475Y-79796632D01*
X110050000Y-79622240D01*
X110166525Y-79796632D01*
X110373368Y-80003475D01*
X110616589Y-80165990D01*
X110886842Y-80277932D01*
X111173740Y-80335000D01*
X111466260Y-80335000D01*
X111753158Y-80277932D01*
X112023411Y-80165990D01*
X112266632Y-80003475D01*
X112473475Y-79796632D01*
X112590000Y-79622240D01*
X112706525Y-79796632D01*
G37*
X112706525Y-79796632D02*
X112913368Y-80003475D01*
X113100000Y-80128179D01*
X113100001Y-82403769D01*
X111763761Y-83740010D01*
X111701623Y-83740010D01*
X111501664Y-83779784D01*
X111313306Y-83857805D01*
X111143788Y-83971073D01*
X110999625Y-84115236D01*
X110886357Y-84284754D01*
X110808336Y-84473112D01*
X110768562Y-84673071D01*
X110768562Y-84740011D01*
X110673453Y-84740011D01*
X110645226Y-84598102D01*
X110567205Y-84409744D01*
X110453937Y-84240226D01*
X110309774Y-84096063D01*
X110140256Y-83982795D01*
X109951898Y-83904774D01*
X109751939Y-83865000D01*
X109548061Y-83865000D01*
X109348102Y-83904774D01*
X109159744Y-83982795D01*
X109091864Y-84028151D01*
X108959775Y-83896062D01*
X108790257Y-83782794D01*
X108601899Y-83704773D01*
X108401940Y-83664999D01*
X108198062Y-83664999D01*
X107998103Y-83704773D01*
X107809745Y-83782794D01*
X107640227Y-83896062D01*
X107496064Y-84040225D01*
X107382796Y-84209743D01*
X107304775Y-84398101D01*
X107296441Y-84440000D01*
X106560205Y-84440000D01*
X106615246Y-84417201D01*
X106784764Y-84303933D01*
X106928927Y-84159770D01*
X107042195Y-83990252D01*
X107120216Y-83801894D01*
X107159990Y-83601935D01*
X107159990Y-83398057D01*
X107120216Y-83198098D01*
X107042195Y-83009740D01*
X107023077Y-82981128D01*
X107117205Y-82840256D01*
X107195226Y-82651898D01*
X107235000Y-82451939D01*
X107235000Y-82248061D01*
X107195226Y-82048102D01*
X107117205Y-81859744D01*
X107003937Y-81690226D01*
X106960000Y-81646289D01*
X106960000Y-81387323D01*
X106963676Y-81350000D01*
X106960000Y-81312677D01*
X106960000Y-81312667D01*
X106949003Y-81201014D01*
X106905546Y-81057753D01*
X106834974Y-80925723D01*
X106763799Y-80838997D01*
X106740001Y-80809999D01*
X106711004Y-80786202D01*
X106259802Y-80335000D01*
X106386260Y-80335000D01*
X106673158Y-80277932D01*
X106943411Y-80165990D01*
X107186632Y-80003475D01*
X107393475Y-79796632D01*
X107510000Y-79622240D01*
X107626525Y-79796632D01*
X107833368Y-80003475D01*
X108076589Y-80165990D01*
X108346842Y-80277932D01*
X108633740Y-80335000D01*
X108926260Y-80335000D01*
X109213158Y-80277932D01*
X109483411Y-80165990D01*
X109726632Y-80003475D01*
X109933475Y-79796632D01*
X110050000Y-79622240D01*
X110166525Y-79796632D01*
X110373368Y-80003475D01*
X110616589Y-80165990D01*
X110886842Y-80277932D01*
X111173740Y-80335000D01*
X111466260Y-80335000D01*
X111753158Y-80277932D01*
X112023411Y-80165990D01*
X112266632Y-80003475D01*
X112473475Y-79796632D01*
X112590000Y-79622240D01*
X112706525Y-79796632D01*
M02*
