M48
; DRILL file {KiCad (5.1.5)-3} date 27/07/2020 15:31:13
; FORMAT={3:3/ absolute / metric / suppress leading zeros}
; #@! TF.CreationDate,2020-07-27T15:31:13+01:00
; #@! TF.GenerationSoftware,Kicad,Pcbnew,(5.1.5)-3
; #@! TF.FileFunction,Plated,1,2,PTH
FMAT,2
METRIC,TZ
T1C0.400
T2C0.762
T3C1.000
T4C1.300
T5C6.000
%
G90
G05
T1
X75300Y-81950
X79100Y-79775
X82450Y-88100
X82450Y-89150
X87250Y-93150
X87793Y-87193
X88100Y-88650
X88200Y-85650
X90206Y-83101
X90300Y-97600
X90850Y-85300
X91900Y-82900
X91900Y-89900
X92950Y-82900
X95100Y-89850
X96350Y-92050
X96500Y-83100
X96550Y-88650
X98613Y-91608
X99800Y-89500
X100200Y-88000
X100989Y-84869
X101500Y-89650
X101975Y-84700
X102950Y-89650
X102950Y-93550
X103350Y-86000
X104150Y-89650
X104350Y-84475
X104500Y-85950
X104983Y-87698
X105050Y-92737
X106125Y-83500
X106200Y-82350
X106875Y-92975
X107400Y-91700
X107950Y-82000
X108300Y-86750
X108300Y-84700
X108800Y-90650
X109600Y-94450
X109650Y-84900
X110228Y-92563
X111600Y-82200
X111600Y-86600
X111804Y-84775
X112450Y-99150
X113150Y-97500
X113500Y-99150
X114000Y-89600
X114000Y-96150
X114200Y-85550
X114300Y-92700
X116550Y-83400
X116800Y-87464
X116950Y-99150
X117300Y-91100
X117800Y-80900
X117900Y-92150
X118000Y-99150
X118250Y-86300
X118250Y-87450
X119875Y-94200
X120625Y-92000
X120700Y-83050
X121700Y-77900
X123125Y-77900
X123700Y-82650
X123900Y-91000
X123900Y-92050
X124550Y-77900
X127650Y-83750
X130300Y-79400
X131250Y-85650
X132100Y-80450
X138250Y-84050
X139300Y-91650
X139600Y-85750
X141100Y-79150
X141100Y-80150
T2
X144500Y-94900
X144550Y-83150
T3
X144500Y-91100
X91000Y-78850
X93540Y-78850
X96080Y-78850
X98620Y-78850
X101160Y-78850
X103700Y-78850
X106240Y-78850
X108780Y-78850
X111320Y-78850
X113860Y-78850
X116400Y-78850
X118940Y-78850
X144550Y-79350
X102520Y-97100
X102520Y-99640
X105060Y-97100
X105060Y-99640
X107600Y-97100
X107600Y-99640
T4
X70900Y-79440
X70900Y-83250
X70900Y-87060
X70900Y-90870
T5
G00X108300Y-63100
M15
G01X108300Y-63100
M16
G05
G00X108350Y-37900
M15
G01X108350Y-49900
M16
G05
G00X108350Y-70700
M15
G01X108350Y-70700
M16
G05
T0
M30
