G04 #@! TF.GenerationSoftware,KiCad,Pcbnew,(5.1.5)-3*
G04 #@! TF.CreationDate,2020-07-27T15:31:11+01:00*
G04 #@! TF.ProjectId,diyBMS-CurrentShunt,64697942-4d53-42d4-9375-7272656e7453,rev?*
G04 #@! TF.SameCoordinates,Original*
G04 #@! TF.FileFunction,Legend,Bot*
G04 #@! TF.FilePolarity,Positive*
%FSLAX46Y46*%
G04 Gerber Fmt 4.6, Leading zero omitted, Abs format (unit mm)*
G04 Created by KiCad (PCBNEW (5.1.5)-3) date 2020-07-27 15:31:11*
%MOMM*%
%LPD*%
G04 APERTURE LIST*
%ADD10C,0.300000*%
G04 APERTURE END LIST*
D10*
X77483333Y-78040476D02*
X78078571Y-78040476D01*
X78138095Y-78635714D01*
X78078571Y-78576190D01*
X77959523Y-78516666D01*
X77661904Y-78516666D01*
X77542857Y-78576190D01*
X77483333Y-78635714D01*
X77423809Y-78754761D01*
X77423809Y-79052380D01*
X77483333Y-79171428D01*
X77542857Y-79230952D01*
X77661904Y-79290476D01*
X77959523Y-79290476D01*
X78078571Y-79230952D01*
X78138095Y-79171428D01*
X77066666Y-78040476D02*
X76650000Y-79290476D01*
X76233333Y-78040476D01*
X75578571Y-78040476D02*
X75459523Y-78040476D01*
X75340476Y-78100000D01*
X75280952Y-78159523D01*
X75221428Y-78278571D01*
X75161904Y-78516666D01*
X75161904Y-78814285D01*
X75221428Y-79052380D01*
X75280952Y-79171428D01*
X75340476Y-79230952D01*
X75459523Y-79290476D01*
X75578571Y-79290476D01*
X75697619Y-79230952D01*
X75757142Y-79171428D01*
X75816666Y-79052380D01*
X75876190Y-78814285D01*
X75876190Y-78516666D01*
X75816666Y-78278571D01*
X75757142Y-78159523D01*
X75697619Y-78100000D01*
X75578571Y-78040476D01*
X79417857Y-83640476D02*
X79834523Y-83045238D01*
X80132142Y-83640476D02*
X80132142Y-82390476D01*
X79655952Y-82390476D01*
X79536904Y-82450000D01*
X79477380Y-82509523D01*
X79417857Y-82628571D01*
X79417857Y-82807142D01*
X79477380Y-82926190D01*
X79536904Y-82985714D01*
X79655952Y-83045238D01*
X80132142Y-83045238D01*
X78941666Y-83580952D02*
X78763095Y-83640476D01*
X78465476Y-83640476D01*
X78346428Y-83580952D01*
X78286904Y-83521428D01*
X78227380Y-83402380D01*
X78227380Y-83283333D01*
X78286904Y-83164285D01*
X78346428Y-83104761D01*
X78465476Y-83045238D01*
X78703571Y-82985714D01*
X78822619Y-82926190D01*
X78882142Y-82866666D01*
X78941666Y-82747619D01*
X78941666Y-82628571D01*
X78882142Y-82509523D01*
X78822619Y-82450000D01*
X78703571Y-82390476D01*
X78405952Y-82390476D01*
X78227380Y-82450000D01*
X77155952Y-82807142D02*
X77155952Y-83640476D01*
X77453571Y-82330952D02*
X77751190Y-83223809D01*
X76977380Y-83223809D01*
X76322619Y-82926190D02*
X76441666Y-82866666D01*
X76501190Y-82807142D01*
X76560714Y-82688095D01*
X76560714Y-82628571D01*
X76501190Y-82509523D01*
X76441666Y-82450000D01*
X76322619Y-82390476D01*
X76084523Y-82390476D01*
X75965476Y-82450000D01*
X75905952Y-82509523D01*
X75846428Y-82628571D01*
X75846428Y-82688095D01*
X75905952Y-82807142D01*
X75965476Y-82866666D01*
X76084523Y-82926190D01*
X76322619Y-82926190D01*
X76441666Y-82985714D01*
X76501190Y-83045238D01*
X76560714Y-83164285D01*
X76560714Y-83402380D01*
X76501190Y-83521428D01*
X76441666Y-83580952D01*
X76322619Y-83640476D01*
X76084523Y-83640476D01*
X75965476Y-83580952D01*
X75905952Y-83521428D01*
X75846428Y-83402380D01*
X75846428Y-83164285D01*
X75905952Y-83045238D01*
X75965476Y-82985714D01*
X76084523Y-82926190D01*
X74715476Y-82390476D02*
X75310714Y-82390476D01*
X75370238Y-82985714D01*
X75310714Y-82926190D01*
X75191666Y-82866666D01*
X74894047Y-82866666D01*
X74775000Y-82926190D01*
X74715476Y-82985714D01*
X74655952Y-83104761D01*
X74655952Y-83402380D01*
X74715476Y-83521428D01*
X74775000Y-83580952D01*
X74894047Y-83640476D01*
X75191666Y-83640476D01*
X75310714Y-83580952D01*
X75370238Y-83521428D01*
X74120238Y-83164285D02*
X73167857Y-83164285D01*
X73644047Y-83640476D02*
X73644047Y-82688095D01*
X79417857Y-87990476D02*
X79834523Y-87395238D01*
X80132142Y-87990476D02*
X80132142Y-86740476D01*
X79655952Y-86740476D01*
X79536904Y-86800000D01*
X79477380Y-86859523D01*
X79417857Y-86978571D01*
X79417857Y-87157142D01*
X79477380Y-87276190D01*
X79536904Y-87335714D01*
X79655952Y-87395238D01*
X80132142Y-87395238D01*
X78941666Y-87930952D02*
X78763095Y-87990476D01*
X78465476Y-87990476D01*
X78346428Y-87930952D01*
X78286904Y-87871428D01*
X78227380Y-87752380D01*
X78227380Y-87633333D01*
X78286904Y-87514285D01*
X78346428Y-87454761D01*
X78465476Y-87395238D01*
X78703571Y-87335714D01*
X78822619Y-87276190D01*
X78882142Y-87216666D01*
X78941666Y-87097619D01*
X78941666Y-86978571D01*
X78882142Y-86859523D01*
X78822619Y-86800000D01*
X78703571Y-86740476D01*
X78405952Y-86740476D01*
X78227380Y-86800000D01*
X77155952Y-87157142D02*
X77155952Y-87990476D01*
X77453571Y-86680952D02*
X77751190Y-87573809D01*
X76977380Y-87573809D01*
X76322619Y-87276190D02*
X76441666Y-87216666D01*
X76501190Y-87157142D01*
X76560714Y-87038095D01*
X76560714Y-86978571D01*
X76501190Y-86859523D01*
X76441666Y-86800000D01*
X76322619Y-86740476D01*
X76084523Y-86740476D01*
X75965476Y-86800000D01*
X75905952Y-86859523D01*
X75846428Y-86978571D01*
X75846428Y-87038095D01*
X75905952Y-87157142D01*
X75965476Y-87216666D01*
X76084523Y-87276190D01*
X76322619Y-87276190D01*
X76441666Y-87335714D01*
X76501190Y-87395238D01*
X76560714Y-87514285D01*
X76560714Y-87752380D01*
X76501190Y-87871428D01*
X76441666Y-87930952D01*
X76322619Y-87990476D01*
X76084523Y-87990476D01*
X75965476Y-87930952D01*
X75905952Y-87871428D01*
X75846428Y-87752380D01*
X75846428Y-87514285D01*
X75905952Y-87395238D01*
X75965476Y-87335714D01*
X76084523Y-87276190D01*
X74715476Y-86740476D02*
X75310714Y-86740476D01*
X75370238Y-87335714D01*
X75310714Y-87276190D01*
X75191666Y-87216666D01*
X74894047Y-87216666D01*
X74775000Y-87276190D01*
X74715476Y-87335714D01*
X74655952Y-87454761D01*
X74655952Y-87752380D01*
X74715476Y-87871428D01*
X74775000Y-87930952D01*
X74894047Y-87990476D01*
X75191666Y-87990476D01*
X75310714Y-87930952D01*
X75370238Y-87871428D01*
X74120238Y-87514285D02*
X73167857Y-87514285D01*
X80578571Y-92340476D02*
X80578571Y-91090476D01*
X80042857Y-92280952D02*
X79864285Y-92340476D01*
X79566666Y-92340476D01*
X79447619Y-92280952D01*
X79388095Y-92221428D01*
X79328571Y-92102380D01*
X79328571Y-91983333D01*
X79388095Y-91864285D01*
X79447619Y-91804761D01*
X79566666Y-91745238D01*
X79804761Y-91685714D01*
X79923809Y-91626190D01*
X79983333Y-91566666D01*
X80042857Y-91447619D01*
X80042857Y-91328571D01*
X79983333Y-91209523D01*
X79923809Y-91150000D01*
X79804761Y-91090476D01*
X79507142Y-91090476D01*
X79328571Y-91150000D01*
X78554761Y-91090476D02*
X78316666Y-91090476D01*
X78197619Y-91150000D01*
X78078571Y-91269047D01*
X78019047Y-91507142D01*
X78019047Y-91923809D01*
X78078571Y-92161904D01*
X78197619Y-92280952D01*
X78316666Y-92340476D01*
X78554761Y-92340476D01*
X78673809Y-92280952D01*
X78792857Y-92161904D01*
X78852380Y-91923809D01*
X78852380Y-91507142D01*
X78792857Y-91269047D01*
X78673809Y-91150000D01*
X78554761Y-91090476D01*
X77483333Y-92221428D02*
X77423809Y-92280952D01*
X77483333Y-92340476D01*
X77542857Y-92280952D01*
X77483333Y-92221428D01*
X77483333Y-92340476D01*
X75280952Y-91150000D02*
X75400000Y-91090476D01*
X75578571Y-91090476D01*
X75757142Y-91150000D01*
X75876190Y-91269047D01*
X75935714Y-91388095D01*
X75995238Y-91626190D01*
X75995238Y-91804761D01*
X75935714Y-92042857D01*
X75876190Y-92161904D01*
X75757142Y-92280952D01*
X75578571Y-92340476D01*
X75459523Y-92340476D01*
X75280952Y-92280952D01*
X75221428Y-92221428D01*
X75221428Y-91804761D01*
X75459523Y-91804761D01*
X74685714Y-92340476D02*
X74685714Y-91090476D01*
X73971428Y-92340476D01*
X73971428Y-91090476D01*
X73376190Y-92340476D02*
X73376190Y-91090476D01*
X73078571Y-91090476D01*
X72900000Y-91150000D01*
X72780952Y-91269047D01*
X72721428Y-91388095D01*
X72661904Y-91626190D01*
X72661904Y-91804761D01*
X72721428Y-92042857D01*
X72780952Y-92161904D01*
X72900000Y-92280952D01*
X73078571Y-92340476D01*
X73376190Y-92340476D01*
M02*
