G04 #@! TF.GenerationSoftware,KiCad,Pcbnew,(5.1.5)-3*
G04 #@! TF.CreationDate,2020-07-27T15:31:11+01:00*
G04 #@! TF.ProjectId,diyBMS-CurrentShunt,64697942-4d53-42d4-9375-7272656e7453,rev?*
G04 #@! TF.SameCoordinates,Original*
G04 #@! TF.FileFunction,Legend,Top*
G04 #@! TF.FilePolarity,Positive*
%FSLAX46Y46*%
G04 Gerber Fmt 4.6, Leading zero omitted, Abs format (unit mm)*
G04 Created by KiCad (PCBNEW (5.1.5)-3) date 2020-07-27 15:31:11*
%MOMM*%
%LPD*%
G04 APERTURE LIST*
%ADD10C,0.300000*%
%ADD11C,0.150000*%
%ADD12C,0.200000*%
%ADD13C,0.250000*%
%ADD14C,1.000000*%
%ADD15C,0.120000*%
G04 APERTURE END LIST*
D10*
X72714523Y-78714285D02*
X73666904Y-78714285D01*
X73190714Y-79190476D02*
X73190714Y-78238095D01*
X74857380Y-77940476D02*
X74262142Y-77940476D01*
X74202619Y-78535714D01*
X74262142Y-78476190D01*
X74381190Y-78416666D01*
X74678809Y-78416666D01*
X74797857Y-78476190D01*
X74857380Y-78535714D01*
X74916904Y-78654761D01*
X74916904Y-78952380D01*
X74857380Y-79071428D01*
X74797857Y-79130952D01*
X74678809Y-79190476D01*
X74381190Y-79190476D01*
X74262142Y-79130952D01*
X74202619Y-79071428D01*
X74321666Y-83183333D02*
X74916904Y-83183333D01*
X74202619Y-83540476D02*
X74619285Y-82290476D01*
X75035952Y-83540476D01*
X74619285Y-87235714D02*
X74797857Y-87295238D01*
X74857380Y-87354761D01*
X74916904Y-87473809D01*
X74916904Y-87652380D01*
X74857380Y-87771428D01*
X74797857Y-87830952D01*
X74678809Y-87890476D01*
X74202619Y-87890476D01*
X74202619Y-86640476D01*
X74619285Y-86640476D01*
X74738333Y-86700000D01*
X74797857Y-86759523D01*
X74857380Y-86878571D01*
X74857380Y-86997619D01*
X74797857Y-87116666D01*
X74738333Y-87176190D01*
X74619285Y-87235714D01*
X74202619Y-87235714D01*
X74857380Y-91050000D02*
X74738333Y-90990476D01*
X74559761Y-90990476D01*
X74381190Y-91050000D01*
X74262142Y-91169047D01*
X74202619Y-91288095D01*
X74143095Y-91526190D01*
X74143095Y-91704761D01*
X74202619Y-91942857D01*
X74262142Y-92061904D01*
X74381190Y-92180952D01*
X74559761Y-92240476D01*
X74678809Y-92240476D01*
X74857380Y-92180952D01*
X74916904Y-92121428D01*
X74916904Y-91704761D01*
X74678809Y-91704761D01*
D11*
X116064285Y-95761904D02*
X115683333Y-95761904D01*
X115683333Y-94961904D01*
X116216666Y-94961904D02*
X116673809Y-94961904D01*
X116445238Y-95761904D02*
X116445238Y-94961904D01*
X117397619Y-95685714D02*
X117359523Y-95723809D01*
X117245238Y-95761904D01*
X117169047Y-95761904D01*
X117054761Y-95723809D01*
X116978571Y-95647619D01*
X116940476Y-95571428D01*
X116902380Y-95419047D01*
X116902380Y-95304761D01*
X116940476Y-95152380D01*
X116978571Y-95076190D01*
X117054761Y-95000000D01*
X117169047Y-94961904D01*
X117245238Y-94961904D01*
X117359523Y-95000000D01*
X117397619Y-95038095D01*
X117702380Y-95038095D02*
X117740476Y-95000000D01*
X117816666Y-94961904D01*
X118007142Y-94961904D01*
X118083333Y-95000000D01*
X118121428Y-95038095D01*
X118159523Y-95114285D01*
X118159523Y-95190476D01*
X118121428Y-95304761D01*
X117664285Y-95761904D01*
X118159523Y-95761904D01*
X118540476Y-95761904D02*
X118692857Y-95761904D01*
X118769047Y-95723809D01*
X118807142Y-95685714D01*
X118883333Y-95571428D01*
X118921428Y-95419047D01*
X118921428Y-95114285D01*
X118883333Y-95038095D01*
X118845238Y-95000000D01*
X118769047Y-94961904D01*
X118616666Y-94961904D01*
X118540476Y-95000000D01*
X118502380Y-95038095D01*
X118464285Y-95114285D01*
X118464285Y-95304761D01*
X118502380Y-95380952D01*
X118540476Y-95419047D01*
X118616666Y-95457142D01*
X118769047Y-95457142D01*
X118845238Y-95419047D01*
X118883333Y-95380952D01*
X118921428Y-95304761D01*
X119607142Y-95228571D02*
X119607142Y-95761904D01*
X119416666Y-94923809D02*
X119226190Y-95495238D01*
X119721428Y-95495238D01*
X120369047Y-95228571D02*
X120369047Y-95761904D01*
X120178571Y-94923809D02*
X119988095Y-95495238D01*
X120483333Y-95495238D01*
X115054761Y-96311904D02*
X114902380Y-96311904D01*
X114826190Y-96350000D01*
X114788095Y-96388095D01*
X114711904Y-96502380D01*
X114673809Y-96654761D01*
X114673809Y-96959523D01*
X114711904Y-97035714D01*
X114750000Y-97073809D01*
X114826190Y-97111904D01*
X114978571Y-97111904D01*
X115054761Y-97073809D01*
X115092857Y-97035714D01*
X115130952Y-96959523D01*
X115130952Y-96769047D01*
X115092857Y-96692857D01*
X115054761Y-96654761D01*
X114978571Y-96616666D01*
X114826190Y-96616666D01*
X114750000Y-96654761D01*
X114711904Y-96692857D01*
X114673809Y-96769047D01*
X115626190Y-96311904D02*
X115702380Y-96311904D01*
X115778571Y-96350000D01*
X115816666Y-96388095D01*
X115854761Y-96464285D01*
X115892857Y-96616666D01*
X115892857Y-96807142D01*
X115854761Y-96959523D01*
X115816666Y-97035714D01*
X115778571Y-97073809D01*
X115702380Y-97111904D01*
X115626190Y-97111904D01*
X115550000Y-97073809D01*
X115511904Y-97035714D01*
X115473809Y-96959523D01*
X115435714Y-96807142D01*
X115435714Y-96616666D01*
X115473809Y-96464285D01*
X115511904Y-96388095D01*
X115550000Y-96350000D01*
X115626190Y-96311904D01*
X116121428Y-96311904D02*
X116388095Y-97111904D01*
X116654761Y-96311904D01*
X117797619Y-96692857D02*
X117911904Y-96730952D01*
X117950000Y-96769047D01*
X117988095Y-96845238D01*
X117988095Y-96959523D01*
X117950000Y-97035714D01*
X117911904Y-97073809D01*
X117835714Y-97111904D01*
X117530952Y-97111904D01*
X117530952Y-96311904D01*
X117797619Y-96311904D01*
X117873809Y-96350000D01*
X117911904Y-96388095D01*
X117950000Y-96464285D01*
X117950000Y-96540476D01*
X117911904Y-96616666D01*
X117873809Y-96654761D01*
X117797619Y-96692857D01*
X117530952Y-96692857D01*
X118673809Y-97111904D02*
X118673809Y-96692857D01*
X118635714Y-96616666D01*
X118559523Y-96578571D01*
X118407142Y-96578571D01*
X118330952Y-96616666D01*
X118673809Y-97073809D02*
X118597619Y-97111904D01*
X118407142Y-97111904D01*
X118330952Y-97073809D01*
X118292857Y-96997619D01*
X118292857Y-96921428D01*
X118330952Y-96845238D01*
X118407142Y-96807142D01*
X118597619Y-96807142D01*
X118673809Y-96769047D01*
X118940476Y-96578571D02*
X119245238Y-96578571D01*
X119054761Y-96311904D02*
X119054761Y-96997619D01*
X119092857Y-97073809D01*
X119169047Y-97111904D01*
X119245238Y-97111904D01*
X119397619Y-96578571D02*
X119702380Y-96578571D01*
X119511904Y-96311904D02*
X119511904Y-96997619D01*
X119550000Y-97073809D01*
X119626190Y-97111904D01*
X119702380Y-97111904D01*
X120273809Y-97073809D02*
X120197619Y-97111904D01*
X120045238Y-97111904D01*
X119969047Y-97073809D01*
X119930952Y-96997619D01*
X119930952Y-96692857D01*
X119969047Y-96616666D01*
X120045238Y-96578571D01*
X120197619Y-96578571D01*
X120273809Y-96616666D01*
X120311904Y-96692857D01*
X120311904Y-96769047D01*
X119930952Y-96845238D01*
X120654761Y-97111904D02*
X120654761Y-96578571D01*
X120654761Y-96730952D02*
X120692857Y-96654761D01*
X120730952Y-96616666D01*
X120807142Y-96578571D01*
X120883333Y-96578571D01*
X121073809Y-96578571D02*
X121264285Y-97111904D01*
X121454761Y-96578571D02*
X121264285Y-97111904D01*
X121188095Y-97302380D01*
X121150000Y-97340476D01*
X121073809Y-97378571D01*
X115740476Y-97700000D02*
X115664285Y-97661904D01*
X115549999Y-97661904D01*
X115435714Y-97700000D01*
X115359523Y-97776190D01*
X115321428Y-97852380D01*
X115283333Y-98004761D01*
X115283333Y-98119047D01*
X115321428Y-98271428D01*
X115359523Y-98347619D01*
X115435714Y-98423809D01*
X115549999Y-98461904D01*
X115626190Y-98461904D01*
X115740476Y-98423809D01*
X115778571Y-98385714D01*
X115778571Y-98119047D01*
X115626190Y-98119047D01*
X116464285Y-98461904D02*
X116464285Y-98042857D01*
X116426190Y-97966666D01*
X116349999Y-97928571D01*
X116197619Y-97928571D01*
X116121428Y-97966666D01*
X116464285Y-98423809D02*
X116388095Y-98461904D01*
X116197619Y-98461904D01*
X116121428Y-98423809D01*
X116083333Y-98347619D01*
X116083333Y-98271428D01*
X116121428Y-98195238D01*
X116197619Y-98157142D01*
X116388095Y-98157142D01*
X116464285Y-98119047D01*
X116807142Y-98423809D02*
X116883333Y-98461904D01*
X117035714Y-98461904D01*
X117111904Y-98423809D01*
X117149999Y-98347619D01*
X117149999Y-98309523D01*
X117111904Y-98233333D01*
X117035714Y-98195238D01*
X116921428Y-98195238D01*
X116845238Y-98157142D01*
X116807142Y-98080952D01*
X116807142Y-98042857D01*
X116845238Y-97966666D01*
X116921428Y-97928571D01*
X117035714Y-97928571D01*
X117111904Y-97966666D01*
X118521428Y-97700000D02*
X118445238Y-97661904D01*
X118330952Y-97661904D01*
X118216666Y-97700000D01*
X118140476Y-97776190D01*
X118102380Y-97852380D01*
X118064285Y-98004761D01*
X118064285Y-98119047D01*
X118102380Y-98271428D01*
X118140476Y-98347619D01*
X118216666Y-98423809D01*
X118330952Y-98461904D01*
X118407142Y-98461904D01*
X118521428Y-98423809D01*
X118559523Y-98385714D01*
X118559523Y-98119047D01*
X118407142Y-98119047D01*
X119245238Y-98461904D02*
X119245238Y-98042857D01*
X119207142Y-97966666D01*
X119130952Y-97928571D01*
X118978571Y-97928571D01*
X118902380Y-97966666D01*
X119245238Y-98423809D02*
X119169047Y-98461904D01*
X118978571Y-98461904D01*
X118902380Y-98423809D01*
X118864285Y-98347619D01*
X118864285Y-98271428D01*
X118902380Y-98195238D01*
X118978571Y-98157142D01*
X119169047Y-98157142D01*
X119245238Y-98119047D01*
X119969047Y-97928571D02*
X119969047Y-98461904D01*
X119626190Y-97928571D02*
X119626190Y-98347619D01*
X119664285Y-98423809D01*
X119740476Y-98461904D01*
X119854761Y-98461904D01*
X119930952Y-98423809D01*
X119969047Y-98385714D01*
X120692857Y-97928571D02*
X120692857Y-98576190D01*
X120654761Y-98652380D01*
X120616666Y-98690476D01*
X120540476Y-98728571D01*
X120426190Y-98728571D01*
X120349999Y-98690476D01*
X120692857Y-98423809D02*
X120616666Y-98461904D01*
X120464285Y-98461904D01*
X120388095Y-98423809D01*
X120349999Y-98385714D01*
X120311904Y-98309523D01*
X120311904Y-98080952D01*
X120349999Y-98004761D01*
X120388095Y-97966666D01*
X120464285Y-97928571D01*
X120616666Y-97928571D01*
X120692857Y-97966666D01*
X121378571Y-98423809D02*
X121302380Y-98461904D01*
X121149999Y-98461904D01*
X121073809Y-98423809D01*
X121035714Y-98347619D01*
X121035714Y-98042857D01*
X121073809Y-97966666D01*
X121149999Y-97928571D01*
X121302380Y-97928571D01*
X121378571Y-97966666D01*
X121416666Y-98042857D01*
X121416666Y-98119047D01*
X121035714Y-98195238D01*
D12*
X121142857Y-83695238D02*
X121142857Y-84304761D01*
X120838095Y-84000000D02*
X121447619Y-84000000D01*
X138545238Y-91207142D02*
X139154761Y-91207142D01*
X138850000Y-91511904D02*
X138850000Y-90902380D01*
X86295238Y-98707142D02*
X86904761Y-98707142D01*
X86600000Y-99011904D02*
X86600000Y-98402380D01*
X93595238Y-98707142D02*
X94204761Y-98707142D01*
X93900000Y-99011904D02*
X93900000Y-98402380D01*
X90828571Y-94461904D02*
X90371428Y-94461904D01*
X90600000Y-94461904D02*
X90600000Y-93661904D01*
X90523809Y-93776190D01*
X90447619Y-93852380D01*
X90371428Y-93890476D01*
X137209523Y-101861904D02*
X137209523Y-102433333D01*
X137171428Y-102547619D01*
X137095238Y-102623809D01*
X136980952Y-102661904D01*
X136904761Y-102661904D01*
X137933333Y-102128571D02*
X137933333Y-102661904D01*
X137590476Y-102128571D02*
X137590476Y-102547619D01*
X137628571Y-102623809D01*
X137704761Y-102661904D01*
X137819047Y-102661904D01*
X137895238Y-102623809D01*
X137933333Y-102585714D01*
X138428571Y-102661904D02*
X138352380Y-102623809D01*
X138314285Y-102547619D01*
X138314285Y-101861904D01*
X138657142Y-102128571D02*
X138847619Y-102661904D01*
X139038095Y-102128571D02*
X138847619Y-102661904D01*
X138771428Y-102852380D01*
X138733333Y-102890476D01*
X138657142Y-102928571D01*
X139914285Y-101938095D02*
X139952380Y-101900000D01*
X140028571Y-101861904D01*
X140219047Y-101861904D01*
X140295238Y-101900000D01*
X140333333Y-101938095D01*
X140371428Y-102014285D01*
X140371428Y-102090476D01*
X140333333Y-102204761D01*
X139876190Y-102661904D01*
X140371428Y-102661904D01*
X140866666Y-101861904D02*
X140942857Y-101861904D01*
X141019047Y-101900000D01*
X141057142Y-101938095D01*
X141095238Y-102014285D01*
X141133333Y-102166666D01*
X141133333Y-102357142D01*
X141095238Y-102509523D01*
X141057142Y-102585714D01*
X141019047Y-102623809D01*
X140942857Y-102661904D01*
X140866666Y-102661904D01*
X140790476Y-102623809D01*
X140752380Y-102585714D01*
X140714285Y-102509523D01*
X140676190Y-102357142D01*
X140676190Y-102166666D01*
X140714285Y-102014285D01*
X140752380Y-101938095D01*
X140790476Y-101900000D01*
X140866666Y-101861904D01*
X141438095Y-101938095D02*
X141476190Y-101900000D01*
X141552380Y-101861904D01*
X141742857Y-101861904D01*
X141819047Y-101900000D01*
X141857142Y-101938095D01*
X141895238Y-102014285D01*
X141895238Y-102090476D01*
X141857142Y-102204761D01*
X141400000Y-102661904D01*
X141895238Y-102661904D01*
X142390476Y-101861904D02*
X142466666Y-101861904D01*
X142542857Y-101900000D01*
X142580952Y-101938095D01*
X142619047Y-102014285D01*
X142657142Y-102166666D01*
X142657142Y-102357142D01*
X142619047Y-102509523D01*
X142580952Y-102585714D01*
X142542857Y-102623809D01*
X142466666Y-102661904D01*
X142390476Y-102661904D01*
X142314285Y-102623809D01*
X142276190Y-102585714D01*
X142238095Y-102509523D01*
X142200000Y-102357142D01*
X142200000Y-102166666D01*
X142238095Y-102014285D01*
X142276190Y-101938095D01*
X142314285Y-101900000D01*
X142390476Y-101861904D01*
D13*
X116575756Y-77114285D02*
X116575756Y-76638095D01*
X116861470Y-77209523D02*
X115861470Y-76876190D01*
X116861470Y-76542857D01*
X116861470Y-76209523D02*
X115861470Y-76209523D01*
X115861470Y-75971428D01*
X115909090Y-75828571D01*
X116004328Y-75733333D01*
X116099566Y-75685714D01*
X116290042Y-75638095D01*
X116432899Y-75638095D01*
X116623375Y-75685714D01*
X116718613Y-75733333D01*
X116813851Y-75828571D01*
X116861470Y-75971428D01*
X116861470Y-76209523D01*
X116766232Y-74638095D02*
X116813851Y-74685714D01*
X116861470Y-74828571D01*
X116861470Y-74923809D01*
X116813851Y-75066666D01*
X116718613Y-75161904D01*
X116623375Y-75209523D01*
X116432899Y-75257142D01*
X116290042Y-75257142D01*
X116099566Y-75209523D01*
X116004328Y-75161904D01*
X115909090Y-75066666D01*
X115861470Y-74923809D01*
X115861470Y-74828571D01*
X115909090Y-74685714D01*
X115956709Y-74638095D01*
X115861470Y-74304761D02*
X115861470Y-73638095D01*
X116861470Y-74066666D01*
X114034847Y-77114285D02*
X114034847Y-76638095D01*
X114320561Y-77209523D02*
X113320561Y-76876190D01*
X114320561Y-76542857D01*
X114320561Y-76209523D02*
X113320561Y-76209523D01*
X113320561Y-75971428D01*
X113368181Y-75828571D01*
X113463419Y-75733333D01*
X113558657Y-75685714D01*
X113749133Y-75638095D01*
X113891990Y-75638095D01*
X114082466Y-75685714D01*
X114177704Y-75733333D01*
X114272942Y-75828571D01*
X114320561Y-75971428D01*
X114320561Y-76209523D01*
X114225323Y-74638095D02*
X114272942Y-74685714D01*
X114320561Y-74828571D01*
X114320561Y-74923809D01*
X114272942Y-75066666D01*
X114177704Y-75161904D01*
X114082466Y-75209523D01*
X113891990Y-75257142D01*
X113749133Y-75257142D01*
X113558657Y-75209523D01*
X113463419Y-75161904D01*
X113368181Y-75066666D01*
X113320561Y-74923809D01*
X113320561Y-74828571D01*
X113368181Y-74685714D01*
X113415800Y-74638095D01*
X113320561Y-73780952D02*
X113320561Y-73971428D01*
X113368181Y-74066666D01*
X113415800Y-74114285D01*
X113558657Y-74209523D01*
X113749133Y-74257142D01*
X114130085Y-74257142D01*
X114225323Y-74209523D01*
X114272942Y-74161904D01*
X114320561Y-74066666D01*
X114320561Y-73876190D01*
X114272942Y-73780952D01*
X114225323Y-73733333D01*
X114130085Y-73685714D01*
X113891990Y-73685714D01*
X113796752Y-73733333D01*
X113749133Y-73780952D01*
X113701514Y-73876190D01*
X113701514Y-74066666D01*
X113749133Y-74161904D01*
X113796752Y-74209523D01*
X113891990Y-74257142D01*
X111779652Y-77066667D02*
X110779652Y-77066667D01*
X110779652Y-76685714D01*
X110827272Y-76590476D01*
X110874891Y-76542857D01*
X110970129Y-76495238D01*
X111112986Y-76495238D01*
X111208224Y-76542857D01*
X111255843Y-76590476D01*
X111303462Y-76685714D01*
X111303462Y-77066667D01*
X111684414Y-75495238D02*
X111732033Y-75542857D01*
X111779652Y-75685714D01*
X111779652Y-75780952D01*
X111732033Y-75923810D01*
X111636795Y-76019048D01*
X111541557Y-76066667D01*
X111351081Y-76114286D01*
X111208224Y-76114286D01*
X111017748Y-76066667D01*
X110922510Y-76019048D01*
X110827272Y-75923810D01*
X110779652Y-75780952D01*
X110779652Y-75685714D01*
X110827272Y-75542857D01*
X110874891Y-75495238D01*
X110779652Y-75161905D02*
X110779652Y-74542857D01*
X111160605Y-74876191D01*
X111160605Y-74733333D01*
X111208224Y-74638095D01*
X111255843Y-74590476D01*
X111351081Y-74542857D01*
X111589176Y-74542857D01*
X111684414Y-74590476D01*
X111732033Y-74638095D01*
X111779652Y-74733333D01*
X111779652Y-75019048D01*
X111732033Y-75114286D01*
X111684414Y-75161905D01*
X109191124Y-77114285D02*
X109238743Y-76971428D01*
X109238743Y-76733333D01*
X109191124Y-76638095D01*
X109143505Y-76590476D01*
X109048267Y-76542857D01*
X108953029Y-76542857D01*
X108857791Y-76590476D01*
X108810172Y-76638095D01*
X108762553Y-76733333D01*
X108714934Y-76923809D01*
X108667315Y-77019047D01*
X108619696Y-77066666D01*
X108524458Y-77114285D01*
X108429220Y-77114285D01*
X108333982Y-77066666D01*
X108286363Y-77019047D01*
X108238743Y-76923809D01*
X108238743Y-76685714D01*
X108286363Y-76542857D01*
X109238743Y-76114285D02*
X108238743Y-76114285D01*
X108238743Y-75876190D01*
X108286363Y-75733333D01*
X108381601Y-75638095D01*
X108476839Y-75590476D01*
X108667315Y-75542857D01*
X108810172Y-75542857D01*
X109000648Y-75590476D01*
X109095886Y-75638095D01*
X109191124Y-75733333D01*
X109238743Y-75876190D01*
X109238743Y-76114285D01*
X108953029Y-75161904D02*
X108953029Y-74685714D01*
X109238743Y-75257142D02*
X108238743Y-74923809D01*
X109238743Y-74590476D01*
X106650215Y-77114286D02*
X106697834Y-76971429D01*
X106697834Y-76733333D01*
X106650215Y-76638095D01*
X106602596Y-76590476D01*
X106507358Y-76542857D01*
X106412120Y-76542857D01*
X106316882Y-76590476D01*
X106269263Y-76638095D01*
X106221644Y-76733333D01*
X106174025Y-76923810D01*
X106126406Y-77019048D01*
X106078787Y-77066667D01*
X105983549Y-77114286D01*
X105888311Y-77114286D01*
X105793073Y-77066667D01*
X105745454Y-77019048D01*
X105697834Y-76923810D01*
X105697834Y-76685714D01*
X105745454Y-76542857D01*
X106602596Y-75542857D02*
X106650215Y-75590476D01*
X106697834Y-75733333D01*
X106697834Y-75828571D01*
X106650215Y-75971429D01*
X106554977Y-76066667D01*
X106459739Y-76114286D01*
X106269263Y-76161905D01*
X106126406Y-76161905D01*
X105935930Y-76114286D01*
X105840692Y-76066667D01*
X105745454Y-75971429D01*
X105697834Y-75828571D01*
X105697834Y-75733333D01*
X105745454Y-75590476D01*
X105793073Y-75542857D01*
X106697834Y-74638095D02*
X106697834Y-75114286D01*
X105697834Y-75114286D01*
X104156925Y-77066667D02*
X103156925Y-77066667D01*
X103156925Y-76685714D01*
X103204545Y-76590476D01*
X103252164Y-76542857D01*
X103347402Y-76495238D01*
X103490259Y-76495238D01*
X103585497Y-76542857D01*
X103633116Y-76590476D01*
X103680735Y-76685714D01*
X103680735Y-77066667D01*
X104061687Y-75495238D02*
X104109306Y-75542857D01*
X104156925Y-75685714D01*
X104156925Y-75780952D01*
X104109306Y-75923810D01*
X104014068Y-76019048D01*
X103918830Y-76066667D01*
X103728354Y-76114286D01*
X103585497Y-76114286D01*
X103395021Y-76066667D01*
X103299783Y-76019048D01*
X103204545Y-75923810D01*
X103156925Y-75780952D01*
X103156925Y-75685714D01*
X103204545Y-75542857D01*
X103252164Y-75495238D01*
X103252164Y-75114286D02*
X103204545Y-75066667D01*
X103156925Y-74971429D01*
X103156925Y-74733333D01*
X103204545Y-74638095D01*
X103252164Y-74590476D01*
X103347402Y-74542857D01*
X103442640Y-74542857D01*
X103585497Y-74590476D01*
X104156925Y-75161905D01*
X104156925Y-74542857D01*
X101616016Y-77066667D02*
X100616016Y-77066667D01*
X100616016Y-76685714D01*
X100663636Y-76590476D01*
X100711255Y-76542857D01*
X100806493Y-76495238D01*
X100949350Y-76495238D01*
X101044588Y-76542857D01*
X101092207Y-76590476D01*
X101139826Y-76685714D01*
X101139826Y-77066667D01*
X101520778Y-75495238D02*
X101568397Y-75542857D01*
X101616016Y-75685714D01*
X101616016Y-75780952D01*
X101568397Y-75923810D01*
X101473159Y-76019048D01*
X101377921Y-76066667D01*
X101187445Y-76114286D01*
X101044588Y-76114286D01*
X100854112Y-76066667D01*
X100758874Y-76019048D01*
X100663636Y-75923810D01*
X100616016Y-75780952D01*
X100616016Y-75685714D01*
X100663636Y-75542857D01*
X100711255Y-75495238D01*
X101616016Y-74542857D02*
X101616016Y-75114286D01*
X101616016Y-74828572D02*
X100616016Y-74828572D01*
X100758874Y-74923810D01*
X100854112Y-75019048D01*
X100901731Y-75114286D01*
X99075107Y-77066667D02*
X98075107Y-77066667D01*
X98075107Y-76685714D01*
X98122727Y-76590476D01*
X98170346Y-76542857D01*
X98265584Y-76495238D01*
X98408441Y-76495238D01*
X98503679Y-76542857D01*
X98551298Y-76590476D01*
X98598917Y-76685714D01*
X98598917Y-77066667D01*
X98979869Y-75495238D02*
X99027488Y-75542857D01*
X99075107Y-75685714D01*
X99075107Y-75780952D01*
X99027488Y-75923810D01*
X98932250Y-76019048D01*
X98837012Y-76066667D01*
X98646536Y-76114286D01*
X98503679Y-76114286D01*
X98313203Y-76066667D01*
X98217965Y-76019048D01*
X98122727Y-75923810D01*
X98075107Y-75780952D01*
X98075107Y-75685714D01*
X98122727Y-75542857D01*
X98170346Y-75495238D01*
X98075107Y-74876191D02*
X98075107Y-74780952D01*
X98122727Y-74685714D01*
X98170346Y-74638095D01*
X98265584Y-74590476D01*
X98456060Y-74542857D01*
X98694155Y-74542857D01*
X98884631Y-74590476D01*
X98979869Y-74638095D01*
X99027488Y-74685714D01*
X99075107Y-74780952D01*
X99075107Y-74876191D01*
X99027488Y-74971429D01*
X98979869Y-75019048D01*
X98884631Y-75066667D01*
X98694155Y-75114286D01*
X98456060Y-75114286D01*
X98265584Y-75066667D01*
X98170346Y-75019048D01*
X98122727Y-74971429D01*
X98075107Y-74876191D01*
X96534198Y-76495238D02*
X96058008Y-76828572D01*
X96534198Y-77066667D02*
X95534198Y-77066667D01*
X95534198Y-76685714D01*
X95581818Y-76590476D01*
X95629437Y-76542857D01*
X95724675Y-76495238D01*
X95867532Y-76495238D01*
X95962770Y-76542857D01*
X96010389Y-76590476D01*
X96058008Y-76685714D01*
X96058008Y-77066667D01*
X95534198Y-76161905D02*
X96534198Y-75495238D01*
X95534198Y-75495238D02*
X96534198Y-76161905D01*
X96534198Y-75114286D02*
X95534198Y-75114286D01*
X95534198Y-74876191D01*
X95581818Y-74733333D01*
X95677056Y-74638095D01*
X95772294Y-74590476D01*
X95962770Y-74542857D01*
X96105627Y-74542857D01*
X96296103Y-74590476D01*
X96391341Y-74638095D01*
X96486579Y-74733333D01*
X96534198Y-74876191D01*
X96534198Y-75114286D01*
X92993289Y-77209523D02*
X92993289Y-76638095D01*
X93993289Y-76923809D02*
X92993289Y-76923809D01*
X92993289Y-76399999D02*
X93993289Y-75733333D01*
X92993289Y-75733333D02*
X93993289Y-76399999D01*
X93993289Y-75352380D02*
X92993289Y-75352380D01*
X92993289Y-75114285D01*
X93040909Y-74971428D01*
X93136147Y-74876190D01*
X93231385Y-74828571D01*
X93421861Y-74780952D01*
X93564718Y-74780952D01*
X93755194Y-74828571D01*
X93850432Y-74876190D01*
X93945670Y-74971428D01*
X93993289Y-75114285D01*
X93993289Y-75352380D01*
X90500000Y-76542857D02*
X90452380Y-76638095D01*
X90452380Y-76780953D01*
X90500000Y-76923810D01*
X90595238Y-77019048D01*
X90690476Y-77066667D01*
X90880952Y-77114286D01*
X91023809Y-77114286D01*
X91214285Y-77066667D01*
X91309523Y-77019048D01*
X91404761Y-76923810D01*
X91452380Y-76780953D01*
X91452380Y-76685714D01*
X91404761Y-76542857D01*
X91357142Y-76495238D01*
X91023809Y-76495238D01*
X91023809Y-76685714D01*
X91452380Y-76066667D02*
X90452380Y-76066667D01*
X91452380Y-75495238D01*
X90452380Y-75495238D01*
X91452380Y-75019048D02*
X90452380Y-75019048D01*
X90452380Y-74780953D01*
X90500000Y-74638095D01*
X90595238Y-74542857D01*
X90690476Y-74495238D01*
X90880952Y-74447619D01*
X91023809Y-74447619D01*
X91214285Y-74495238D01*
X91309523Y-74542857D01*
X91404761Y-74638095D01*
X91452380Y-74780953D01*
X91452380Y-75019048D01*
X118402380Y-77161905D02*
X118402380Y-76542857D01*
X118783333Y-76876190D01*
X118783333Y-76733333D01*
X118830952Y-76638095D01*
X118878571Y-76590476D01*
X118973809Y-76542857D01*
X119211904Y-76542857D01*
X119307142Y-76590476D01*
X119354761Y-76638095D01*
X119402380Y-76733333D01*
X119402380Y-77019048D01*
X119354761Y-77114286D01*
X119307142Y-77161905D01*
X118402380Y-76257143D02*
X119402380Y-75923810D01*
X118402380Y-75590476D01*
X118402380Y-75352381D02*
X118402380Y-74733333D01*
X118783333Y-75066667D01*
X118783333Y-74923810D01*
X118830952Y-74828571D01*
X118878571Y-74780952D01*
X118973809Y-74733333D01*
X119211904Y-74733333D01*
X119307142Y-74780952D01*
X119354761Y-74828571D01*
X119402380Y-74923810D01*
X119402380Y-75209524D01*
X119354761Y-75304762D01*
X119307142Y-75352381D01*
D12*
X108135714Y-95052380D02*
X107564285Y-95052380D01*
X107850000Y-95052380D02*
X107850000Y-94052380D01*
X107754761Y-94195238D01*
X107659523Y-94290476D01*
X107564285Y-94338095D01*
D10*
X101435714Y-102828571D02*
X101435714Y-101328571D01*
X102078571Y-102757142D02*
X102292857Y-102828571D01*
X102650000Y-102828571D01*
X102792857Y-102757142D01*
X102864285Y-102685714D01*
X102935714Y-102542857D01*
X102935714Y-102400000D01*
X102864285Y-102257142D01*
X102792857Y-102185714D01*
X102650000Y-102114285D01*
X102364285Y-102042857D01*
X102221428Y-101971428D01*
X102150000Y-101900000D01*
X102078571Y-101757142D01*
X102078571Y-101614285D01*
X102150000Y-101471428D01*
X102221428Y-101400000D01*
X102364285Y-101328571D01*
X102721428Y-101328571D01*
X102935714Y-101400000D01*
X103578571Y-102828571D02*
X103578571Y-101328571D01*
X104150000Y-101328571D01*
X104292857Y-101400000D01*
X104364285Y-101471428D01*
X104435714Y-101614285D01*
X104435714Y-101828571D01*
X104364285Y-101971428D01*
X104292857Y-102042857D01*
X104150000Y-102114285D01*
X103578571Y-102114285D01*
D13*
X79558333Y-101052976D02*
X79558333Y-99802976D01*
X79855952Y-99802976D01*
X80034523Y-99862500D01*
X80153571Y-99981547D01*
X80213095Y-100100595D01*
X80272619Y-100338690D01*
X80272619Y-100517261D01*
X80213095Y-100755357D01*
X80153571Y-100874404D01*
X80034523Y-100993452D01*
X79855952Y-101052976D01*
X79558333Y-101052976D01*
X80808333Y-101052976D02*
X80808333Y-99802976D01*
X81641666Y-100457738D02*
X81641666Y-101052976D01*
X81225000Y-99802976D02*
X81641666Y-100457738D01*
X82058333Y-99802976D01*
X82891666Y-100398214D02*
X83070238Y-100457738D01*
X83129761Y-100517261D01*
X83189285Y-100636309D01*
X83189285Y-100814880D01*
X83129761Y-100933928D01*
X83070238Y-100993452D01*
X82951190Y-101052976D01*
X82475000Y-101052976D01*
X82475000Y-99802976D01*
X82891666Y-99802976D01*
X83010714Y-99862500D01*
X83070238Y-99922023D01*
X83129761Y-100041071D01*
X83129761Y-100160119D01*
X83070238Y-100279166D01*
X83010714Y-100338690D01*
X82891666Y-100398214D01*
X82475000Y-100398214D01*
X83725000Y-101052976D02*
X83725000Y-99802976D01*
X84141666Y-100695833D01*
X84558333Y-99802976D01*
X84558333Y-101052976D01*
X85094047Y-100993452D02*
X85272619Y-101052976D01*
X85570238Y-101052976D01*
X85689285Y-100993452D01*
X85748809Y-100933928D01*
X85808333Y-100814880D01*
X85808333Y-100695833D01*
X85748809Y-100576785D01*
X85689285Y-100517261D01*
X85570238Y-100457738D01*
X85332142Y-100398214D01*
X85213095Y-100338690D01*
X85153571Y-100279166D01*
X85094047Y-100160119D01*
X85094047Y-100041071D01*
X85153571Y-99922023D01*
X85213095Y-99862500D01*
X85332142Y-99802976D01*
X85629761Y-99802976D01*
X85808333Y-99862500D01*
X87296428Y-101052976D02*
X87296428Y-99802976D01*
X87832142Y-100993452D02*
X87951190Y-101052976D01*
X88189285Y-101052976D01*
X88308333Y-100993452D01*
X88367857Y-100874404D01*
X88367857Y-100814880D01*
X88308333Y-100695833D01*
X88189285Y-100636309D01*
X88010714Y-100636309D01*
X87891666Y-100576785D01*
X87832142Y-100457738D01*
X87832142Y-100398214D01*
X87891666Y-100279166D01*
X88010714Y-100219642D01*
X88189285Y-100219642D01*
X88308333Y-100279166D01*
X89082142Y-101052976D02*
X88963095Y-100993452D01*
X88903571Y-100933928D01*
X88844047Y-100814880D01*
X88844047Y-100457738D01*
X88903571Y-100338690D01*
X88963095Y-100279166D01*
X89082142Y-100219642D01*
X89260714Y-100219642D01*
X89379761Y-100279166D01*
X89439285Y-100338690D01*
X89498809Y-100457738D01*
X89498809Y-100814880D01*
X89439285Y-100933928D01*
X89379761Y-100993452D01*
X89260714Y-101052976D01*
X89082142Y-101052976D01*
X90213095Y-101052976D02*
X90094047Y-100993452D01*
X90034523Y-100874404D01*
X90034523Y-99802976D01*
X91225000Y-101052976D02*
X91225000Y-100398214D01*
X91165476Y-100279166D01*
X91046428Y-100219642D01*
X90808333Y-100219642D01*
X90689285Y-100279166D01*
X91225000Y-100993452D02*
X91105952Y-101052976D01*
X90808333Y-101052976D01*
X90689285Y-100993452D01*
X90629761Y-100874404D01*
X90629761Y-100755357D01*
X90689285Y-100636309D01*
X90808333Y-100576785D01*
X91105952Y-100576785D01*
X91225000Y-100517261D01*
X91641666Y-100219642D02*
X92117857Y-100219642D01*
X91820238Y-99802976D02*
X91820238Y-100874404D01*
X91879761Y-100993452D01*
X91998809Y-101052976D01*
X92117857Y-101052976D01*
X93010714Y-100993452D02*
X92891666Y-101052976D01*
X92653571Y-101052976D01*
X92534523Y-100993452D01*
X92475000Y-100874404D01*
X92475000Y-100398214D01*
X92534523Y-100279166D01*
X92653571Y-100219642D01*
X92891666Y-100219642D01*
X93010714Y-100279166D01*
X93070238Y-100398214D01*
X93070238Y-100517261D01*
X92475000Y-100636309D01*
X94141666Y-101052976D02*
X94141666Y-99802976D01*
X94141666Y-100993452D02*
X94022619Y-101052976D01*
X93784523Y-101052976D01*
X93665476Y-100993452D01*
X93605952Y-100933928D01*
X93546428Y-100814880D01*
X93546428Y-100457738D01*
X93605952Y-100338690D01*
X93665476Y-100279166D01*
X93784523Y-100219642D01*
X94022619Y-100219642D01*
X94141666Y-100279166D01*
X74439285Y-101927976D02*
X74855952Y-103177976D01*
X75272619Y-101927976D01*
X75867857Y-103177976D02*
X75748809Y-103118452D01*
X75689285Y-103058928D01*
X75629761Y-102939880D01*
X75629761Y-102582738D01*
X75689285Y-102463690D01*
X75748809Y-102404166D01*
X75867857Y-102344642D01*
X76046428Y-102344642D01*
X76165476Y-102404166D01*
X76225000Y-102463690D01*
X76284523Y-102582738D01*
X76284523Y-102939880D01*
X76225000Y-103058928D01*
X76165476Y-103118452D01*
X76046428Y-103177976D01*
X75867857Y-103177976D01*
X76998809Y-103177976D02*
X76879761Y-103118452D01*
X76820238Y-102999404D01*
X76820238Y-101927976D01*
X77296428Y-102344642D02*
X77772619Y-102344642D01*
X77475000Y-101927976D02*
X77475000Y-102999404D01*
X77534523Y-103118452D01*
X77653571Y-103177976D01*
X77772619Y-103177976D01*
X78725000Y-103177976D02*
X78725000Y-102523214D01*
X78665476Y-102404166D01*
X78546428Y-102344642D01*
X78308333Y-102344642D01*
X78189285Y-102404166D01*
X78725000Y-103118452D02*
X78605952Y-103177976D01*
X78308333Y-103177976D01*
X78189285Y-103118452D01*
X78129761Y-102999404D01*
X78129761Y-102880357D01*
X78189285Y-102761309D01*
X78308333Y-102701785D01*
X78605952Y-102701785D01*
X78725000Y-102642261D01*
X79855952Y-102344642D02*
X79855952Y-103356547D01*
X79796428Y-103475595D01*
X79736904Y-103535119D01*
X79617857Y-103594642D01*
X79439285Y-103594642D01*
X79320238Y-103535119D01*
X79855952Y-103118452D02*
X79736904Y-103177976D01*
X79498809Y-103177976D01*
X79379761Y-103118452D01*
X79320238Y-103058928D01*
X79260714Y-102939880D01*
X79260714Y-102582738D01*
X79320238Y-102463690D01*
X79379761Y-102404166D01*
X79498809Y-102344642D01*
X79736904Y-102344642D01*
X79855952Y-102404166D01*
X80927380Y-103118452D02*
X80808333Y-103177976D01*
X80570238Y-103177976D01*
X80451190Y-103118452D01*
X80391666Y-102999404D01*
X80391666Y-102523214D01*
X80451190Y-102404166D01*
X80570238Y-102344642D01*
X80808333Y-102344642D01*
X80927380Y-102404166D01*
X80986904Y-102523214D01*
X80986904Y-102642261D01*
X80391666Y-102761309D01*
X83486904Y-103177976D02*
X83427380Y-103177976D01*
X83308333Y-103118452D01*
X83129761Y-102939880D01*
X82832142Y-102582738D01*
X82713095Y-102404166D01*
X82653571Y-102225595D01*
X82653571Y-102106547D01*
X82713095Y-101987500D01*
X82832142Y-101927976D01*
X82891666Y-101927976D01*
X83010714Y-101987500D01*
X83070238Y-102106547D01*
X83070238Y-102166071D01*
X83010714Y-102285119D01*
X82951190Y-102344642D01*
X82594047Y-102582738D01*
X82534523Y-102642261D01*
X82475000Y-102761309D01*
X82475000Y-102939880D01*
X82534523Y-103058928D01*
X82594047Y-103118452D01*
X82713095Y-103177976D01*
X82891666Y-103177976D01*
X83010714Y-103118452D01*
X83070238Y-103058928D01*
X83248809Y-102820833D01*
X83308333Y-102642261D01*
X83308333Y-102523214D01*
X85689285Y-103058928D02*
X85629761Y-103118452D01*
X85451190Y-103177976D01*
X85332142Y-103177976D01*
X85153571Y-103118452D01*
X85034523Y-102999404D01*
X84975000Y-102880357D01*
X84915476Y-102642261D01*
X84915476Y-102463690D01*
X84975000Y-102225595D01*
X85034523Y-102106547D01*
X85153571Y-101987500D01*
X85332142Y-101927976D01*
X85451190Y-101927976D01*
X85629761Y-101987500D01*
X85689285Y-102047023D01*
X86760714Y-102344642D02*
X86760714Y-103177976D01*
X86225000Y-102344642D02*
X86225000Y-102999404D01*
X86284523Y-103118452D01*
X86403571Y-103177976D01*
X86582142Y-103177976D01*
X86701190Y-103118452D01*
X86760714Y-103058928D01*
X87355952Y-103177976D02*
X87355952Y-102344642D01*
X87355952Y-102582738D02*
X87415476Y-102463690D01*
X87475000Y-102404166D01*
X87594047Y-102344642D01*
X87713095Y-102344642D01*
X88129761Y-103177976D02*
X88129761Y-102344642D01*
X88129761Y-102582738D02*
X88189285Y-102463690D01*
X88248809Y-102404166D01*
X88367857Y-102344642D01*
X88486904Y-102344642D01*
X89379761Y-103118452D02*
X89260714Y-103177976D01*
X89022619Y-103177976D01*
X88903571Y-103118452D01*
X88844047Y-102999404D01*
X88844047Y-102523214D01*
X88903571Y-102404166D01*
X89022619Y-102344642D01*
X89260714Y-102344642D01*
X89379761Y-102404166D01*
X89439285Y-102523214D01*
X89439285Y-102642261D01*
X88844047Y-102761309D01*
X89975000Y-102344642D02*
X89975000Y-103177976D01*
X89975000Y-102463690D02*
X90034523Y-102404166D01*
X90153571Y-102344642D01*
X90332142Y-102344642D01*
X90451190Y-102404166D01*
X90510714Y-102523214D01*
X90510714Y-103177976D01*
X90927380Y-102344642D02*
X91403571Y-102344642D01*
X91105952Y-101927976D02*
X91105952Y-102999404D01*
X91165476Y-103118452D01*
X91284523Y-103177976D01*
X91403571Y-103177976D01*
X92772619Y-103177976D02*
X92772619Y-101927976D01*
X93189285Y-102820833D01*
X93605952Y-101927976D01*
X93605952Y-103177976D01*
X94379761Y-103177976D02*
X94260714Y-103118452D01*
X94201190Y-103058928D01*
X94141666Y-102939880D01*
X94141666Y-102582738D01*
X94201190Y-102463690D01*
X94260714Y-102404166D01*
X94379761Y-102344642D01*
X94558333Y-102344642D01*
X94677380Y-102404166D01*
X94736904Y-102463690D01*
X94796428Y-102582738D01*
X94796428Y-102939880D01*
X94736904Y-103058928D01*
X94677380Y-103118452D01*
X94558333Y-103177976D01*
X94379761Y-103177976D01*
X95332142Y-102344642D02*
X95332142Y-103177976D01*
X95332142Y-102463690D02*
X95391666Y-102404166D01*
X95510714Y-102344642D01*
X95689285Y-102344642D01*
X95808333Y-102404166D01*
X95867857Y-102523214D01*
X95867857Y-103177976D01*
X96463095Y-103177976D02*
X96463095Y-102344642D01*
X96463095Y-101927976D02*
X96403571Y-101987500D01*
X96463095Y-102047023D01*
X96522619Y-101987500D01*
X96463095Y-101927976D01*
X96463095Y-102047023D01*
X96879761Y-102344642D02*
X97355952Y-102344642D01*
X97058333Y-101927976D02*
X97058333Y-102999404D01*
X97117857Y-103118452D01*
X97236904Y-103177976D01*
X97355952Y-103177976D01*
X97951190Y-103177976D02*
X97832142Y-103118452D01*
X97772619Y-103058928D01*
X97713095Y-102939880D01*
X97713095Y-102582738D01*
X97772619Y-102463690D01*
X97832142Y-102404166D01*
X97951190Y-102344642D01*
X98129761Y-102344642D01*
X98248809Y-102404166D01*
X98308333Y-102463690D01*
X98367857Y-102582738D01*
X98367857Y-102939880D01*
X98308333Y-103058928D01*
X98248809Y-103118452D01*
X98129761Y-103177976D01*
X97951190Y-103177976D01*
X98903571Y-103177976D02*
X98903571Y-102344642D01*
X98903571Y-102582738D02*
X98963095Y-102463690D01*
X99022619Y-102404166D01*
X99141666Y-102344642D01*
X99260714Y-102344642D01*
X125585714Y-79952380D02*
X125014285Y-79952380D01*
X125300000Y-79952380D02*
X125300000Y-78952380D01*
X125204761Y-79095238D01*
X125109523Y-79190476D01*
X125014285Y-79238095D01*
D12*
X115428571Y-90361904D02*
X114971428Y-90361904D01*
X115200000Y-90361904D02*
X115200000Y-89561904D01*
X115123809Y-89676190D01*
X115047619Y-89752380D01*
X114971428Y-89790476D01*
X96728571Y-84711904D02*
X96271428Y-84711904D01*
X96500000Y-84711904D02*
X96500000Y-83911904D01*
X96423809Y-84026190D01*
X96347619Y-84102380D01*
X96271428Y-84140476D01*
D13*
X88135714Y-92752380D02*
X87564285Y-92752380D01*
X87850000Y-92752380D02*
X87850000Y-91752380D01*
X87754761Y-91895238D01*
X87659523Y-91990476D01*
X87564285Y-92038095D01*
D10*
X69507142Y-94878571D02*
X69007142Y-94164285D01*
X68650000Y-94878571D02*
X68650000Y-93378571D01*
X69221428Y-93378571D01*
X69364285Y-93450000D01*
X69435714Y-93521428D01*
X69507142Y-93664285D01*
X69507142Y-93878571D01*
X69435714Y-94021428D01*
X69364285Y-94092857D01*
X69221428Y-94164285D01*
X68650000Y-94164285D01*
X70078571Y-94807142D02*
X70292857Y-94878571D01*
X70650000Y-94878571D01*
X70792857Y-94807142D01*
X70864285Y-94735714D01*
X70935714Y-94592857D01*
X70935714Y-94450000D01*
X70864285Y-94307142D01*
X70792857Y-94235714D01*
X70650000Y-94164285D01*
X70364285Y-94092857D01*
X70221428Y-94021428D01*
X70150000Y-93950000D01*
X70078571Y-93807142D01*
X70078571Y-93664285D01*
X70150000Y-93521428D01*
X70221428Y-93450000D01*
X70364285Y-93378571D01*
X70721428Y-93378571D01*
X70935714Y-93450000D01*
X72221428Y-93878571D02*
X72221428Y-94878571D01*
X71864285Y-93307142D02*
X71507142Y-94378571D01*
X72435714Y-94378571D01*
X73221428Y-94021428D02*
X73078571Y-93950000D01*
X73007142Y-93878571D01*
X72935714Y-93735714D01*
X72935714Y-93664285D01*
X73007142Y-93521428D01*
X73078571Y-93450000D01*
X73221428Y-93378571D01*
X73507142Y-93378571D01*
X73650000Y-93450000D01*
X73721428Y-93521428D01*
X73792857Y-93664285D01*
X73792857Y-93735714D01*
X73721428Y-93878571D01*
X73650000Y-93950000D01*
X73507142Y-94021428D01*
X73221428Y-94021428D01*
X73078571Y-94092857D01*
X73007142Y-94164285D01*
X72935714Y-94307142D01*
X72935714Y-94592857D01*
X73007142Y-94735714D01*
X73078571Y-94807142D01*
X73221428Y-94878571D01*
X73507142Y-94878571D01*
X73650000Y-94807142D01*
X73721428Y-94735714D01*
X73792857Y-94592857D01*
X73792857Y-94307142D01*
X73721428Y-94164285D01*
X73650000Y-94092857D01*
X73507142Y-94021428D01*
X75150000Y-93378571D02*
X74435714Y-93378571D01*
X74364285Y-94092857D01*
X74435714Y-94021428D01*
X74578571Y-93950000D01*
X74935714Y-93950000D01*
X75078571Y-94021428D01*
X75150000Y-94092857D01*
X75221428Y-94235714D01*
X75221428Y-94592857D01*
X75150000Y-94735714D01*
X75078571Y-94807142D01*
X74935714Y-94878571D01*
X74578571Y-94878571D01*
X74435714Y-94807142D01*
X74364285Y-94735714D01*
D14*
X142250000Y-50150000D02*
X143400000Y-51300000D01*
X142250000Y-50150000D02*
X141100000Y-51300000D01*
X142250000Y-50150000D02*
X142250000Y-56550000D01*
D11*
X83200000Y-43200000D02*
X134200000Y-43350000D01*
X134200000Y-43350000D02*
X134200000Y-75350000D01*
X134200000Y-75350000D02*
X83200000Y-75350000D01*
X83200000Y-43200000D02*
X83200000Y-75350000D01*
X103300000Y-75350000D02*
X103300000Y-70950000D01*
X107900000Y-66350000D02*
X108700000Y-66350000D01*
X113300000Y-70950000D02*
X113300000Y-75350000D01*
X103300000Y-70950000D02*
G75*
G02X107900000Y-66350000I4600000J0D01*
G01*
X108700000Y-66350000D02*
G75*
G02X113300000Y-70950000I0J-4600000D01*
G01*
X103500000Y-47650000D02*
X103500000Y-43250000D01*
X108900000Y-52250000D02*
X108100000Y-52250000D01*
X113500000Y-43250000D02*
X113500000Y-47650000D01*
X113500000Y-47650000D02*
G75*
G02X108900000Y-52250000I-4600000J0D01*
G01*
X108100000Y-52250000D02*
G75*
G02X103500000Y-47650000I0J4600000D01*
G01*
D14*
X75000000Y-50150000D02*
X76150000Y-51300000D01*
X75000000Y-50150000D02*
X75000000Y-56550000D01*
X75000000Y-50150000D02*
X73850000Y-51300000D01*
D15*
X83650000Y-96715000D02*
X83650000Y-98115000D01*
X83650000Y-98115000D02*
X86450000Y-98115000D01*
X83650000Y-96715000D02*
X86450000Y-96715000D01*
X90950000Y-96715000D02*
X90950000Y-98115000D01*
X90950000Y-98115000D02*
X93750000Y-98115000D01*
X90950000Y-96715000D02*
X93750000Y-96715000D01*
X94450000Y-85530000D02*
X93950000Y-85530000D01*
X93950000Y-86470000D02*
X94450000Y-86470000D01*
X110200000Y-86980000D02*
X109700000Y-86980000D01*
X109700000Y-87920000D02*
X110200000Y-87920000D01*
X87000000Y-78780000D02*
X86500000Y-78780000D01*
X86500000Y-79720000D02*
X87000000Y-79720000D01*
X88800000Y-82830000D02*
X88300000Y-82830000D01*
X88300000Y-83770000D02*
X88800000Y-83770000D01*
D11*
X75300000Y-92850000D02*
X67900000Y-92850000D01*
X75300000Y-77600000D02*
X67900000Y-77600000D01*
X67900000Y-77600000D02*
X67900000Y-92850000D01*
X75300000Y-77600000D02*
X75300000Y-92850000D01*
D15*
X68150000Y-79400000D02*
X68150000Y-91000000D01*
X130050000Y-78630000D02*
X129050000Y-78630000D01*
X129050000Y-77270000D02*
X130050000Y-77270000D01*
X126000000Y-87130000D02*
X125000000Y-87130000D01*
X125000000Y-85770000D02*
X126000000Y-85770000D01*
X128900000Y-85630000D02*
X127900000Y-85630000D01*
X127900000Y-84270000D02*
X128900000Y-84270000D01*
X82150000Y-98160000D02*
X81150000Y-98160000D01*
X81150000Y-96800000D02*
X82150000Y-96800000D01*
X114100000Y-83630000D02*
X113100000Y-83630000D01*
X113100000Y-82270000D02*
X114100000Y-82270000D01*
X112700000Y-90180000D02*
X111700000Y-90180000D01*
X111700000Y-88820000D02*
X112700000Y-88820000D01*
X89150000Y-98160000D02*
X88150000Y-98160000D01*
X88150000Y-96800000D02*
X89150000Y-96800000D01*
X133450000Y-84420000D02*
X132450000Y-84420000D01*
X132450000Y-83060000D02*
X133450000Y-83060000D01*
X136050000Y-82130000D02*
X135050000Y-82130000D01*
X135050000Y-80770000D02*
X136050000Y-80770000D01*
X112650000Y-96880000D02*
X111650000Y-96880000D01*
X111650000Y-95520000D02*
X112650000Y-95520000D01*
X112650000Y-95130000D02*
X111650000Y-95130000D01*
X111650000Y-93770000D02*
X112650000Y-93770000D01*
X120270000Y-80180000D02*
X120270000Y-77520000D01*
X92270000Y-80180000D02*
X120270000Y-80180000D01*
X92270000Y-77520000D02*
X120270000Y-77520000D01*
X92270000Y-80180000D02*
X92270000Y-77520000D01*
X91000000Y-80180000D02*
X89670000Y-80180000D01*
X89670000Y-80180000D02*
X89670000Y-78850000D01*
X135650000Y-83480000D02*
X135150000Y-83480000D01*
X135150000Y-84420000D02*
X135650000Y-84420000D01*
X134000000Y-86400000D02*
X133300000Y-86400000D01*
X133300000Y-85200000D02*
X134000000Y-85200000D01*
X128700000Y-86030000D02*
X128200000Y-86030000D01*
X128200000Y-86970000D02*
X128700000Y-86970000D01*
X130950000Y-86030000D02*
X130450000Y-86030000D01*
X130450000Y-86970000D02*
X130950000Y-86970000D01*
X110150000Y-82330000D02*
X109650000Y-82330000D01*
X109650000Y-83270000D02*
X110150000Y-83270000D01*
X94950000Y-89150000D02*
X94250000Y-89150000D01*
X94250000Y-87950000D02*
X94950000Y-87950000D01*
X123600000Y-81400000D02*
X122900000Y-81400000D01*
X122900000Y-80200000D02*
X123600000Y-80200000D01*
X132950000Y-80980000D02*
X132450000Y-80980000D01*
X132450000Y-81920000D02*
X132950000Y-81920000D01*
X137750000Y-84900000D02*
X136750000Y-84900000D01*
X136750000Y-86600000D02*
X137750000Y-86600000D01*
X91050000Y-89150000D02*
X90350000Y-89150000D01*
X90350000Y-87950000D02*
X91050000Y-87950000D01*
X138750000Y-77280000D02*
X136750000Y-77280000D01*
X136750000Y-79320000D02*
X138750000Y-79320000D01*
X123800000Y-83350000D02*
X121800000Y-83350000D01*
X121800000Y-83350000D02*
X121800000Y-87200000D01*
X123800000Y-83350000D02*
X123800000Y-87200000D01*
X143150000Y-86130000D02*
X145150000Y-86130000D01*
X145150000Y-88270000D02*
X143150000Y-88270000D01*
D11*
X126475000Y-80325000D02*
X126475000Y-80500000D01*
X129825000Y-80325000D02*
X129825000Y-80575000D01*
X129825000Y-83675000D02*
X129825000Y-83425000D01*
X126475000Y-83675000D02*
X126475000Y-83425000D01*
X126475000Y-80325000D02*
X129825000Y-80325000D01*
X126475000Y-83675000D02*
X129825000Y-83675000D01*
X126475000Y-80500000D02*
X125225000Y-80500000D01*
X85475000Y-93075000D02*
X85475000Y-92800000D01*
X77725000Y-93075000D02*
X77725000Y-92720000D01*
X77725000Y-82425000D02*
X77725000Y-82780000D01*
X85475000Y-82425000D02*
X85475000Y-82780000D01*
X85475000Y-93075000D02*
X77725000Y-93075000D01*
X85475000Y-82425000D02*
X77725000Y-82425000D01*
X85475000Y-92800000D02*
X87000000Y-92800000D01*
D15*
X101190000Y-95770000D02*
X101190000Y-100970000D01*
X106330000Y-95770000D02*
X101190000Y-95770000D01*
X108930000Y-100970000D02*
X101190000Y-100970000D01*
X106330000Y-95770000D02*
X106330000Y-98370000D01*
X106330000Y-98370000D02*
X108930000Y-98370000D01*
X108930000Y-98370000D02*
X108930000Y-100970000D01*
X107600000Y-95770000D02*
X108930000Y-95770000D01*
X108930000Y-95770000D02*
X108930000Y-97100000D01*
X91000000Y-90700000D02*
X91000000Y-94000000D01*
X91000000Y-94000000D02*
X95000000Y-94000000D01*
D11*
X98675000Y-83575000D02*
X98675000Y-83800000D01*
X105925000Y-83575000D02*
X105925000Y-83900000D01*
X105925000Y-90825000D02*
X105925000Y-90500000D01*
X98675000Y-90825000D02*
X98675000Y-90500000D01*
X98675000Y-83575000D02*
X99000000Y-83575000D01*
X98675000Y-90825000D02*
X99000000Y-90825000D01*
X105925000Y-90825000D02*
X105600000Y-90825000D01*
X105925000Y-83575000D02*
X105600000Y-83575000D01*
X98675000Y-83800000D02*
X97250000Y-83800000D01*
D15*
X77700000Y-79780000D02*
X76700000Y-79780000D01*
X76700000Y-78420000D02*
X77700000Y-78420000D01*
X84450000Y-79780000D02*
X83450000Y-79780000D01*
X83450000Y-78420000D02*
X84450000Y-78420000D01*
X81050000Y-79780000D02*
X80050000Y-79780000D01*
X80050000Y-78420000D02*
X81050000Y-78420000D01*
X134150000Y-77270000D02*
X132150000Y-77270000D01*
X132150000Y-79310000D02*
X134150000Y-79310000D01*
D11*
X116555000Y-93260000D02*
X118655000Y-93260000D01*
X115780000Y-90010000D02*
X118655000Y-90010000D01*
D15*
X141500000Y-89000000D02*
X141500000Y-97000000D01*
X148500000Y-89000000D02*
X148500000Y-91000000D01*
X140500000Y-89000000D02*
X148500000Y-89000000D01*
X140500000Y-97000000D02*
X140500000Y-89000000D01*
X148500000Y-97000000D02*
X140500000Y-97000000D01*
X148500000Y-91000000D02*
X148500000Y-97000000D01*
X138200000Y-97550000D02*
X138200000Y-100550000D01*
X138200000Y-100550000D02*
X125600000Y-100550000D01*
X125600000Y-100550000D02*
X125600000Y-97550000D01*
X125600000Y-90950000D02*
X125600000Y-87950000D01*
X125600000Y-87950000D02*
X138200000Y-87950000D01*
X138200000Y-87950000D02*
X138200000Y-90950000D01*
X141550000Y-77250000D02*
X141550000Y-85250000D01*
X148550000Y-77250000D02*
X148550000Y-79250000D01*
X140550000Y-77250000D02*
X148550000Y-77250000D01*
X140550000Y-85250000D02*
X140550000Y-77250000D01*
X148550000Y-85250000D02*
X140550000Y-85250000D01*
X148550000Y-79250000D02*
X148550000Y-85250000D01*
D11*
X85116666Y-42052380D02*
X84783333Y-41576190D01*
X84545238Y-42052380D02*
X84545238Y-41052380D01*
X84926190Y-41052380D01*
X85021428Y-41100000D01*
X85069047Y-41147619D01*
X85116666Y-41242857D01*
X85116666Y-41385714D01*
X85069047Y-41480952D01*
X85021428Y-41528571D01*
X84926190Y-41576190D01*
X84545238Y-41576190D01*
X85545238Y-41528571D02*
X85878571Y-41528571D01*
X86021428Y-42052380D02*
X85545238Y-42052380D01*
X85545238Y-41052380D01*
X86021428Y-41052380D01*
X86783333Y-41528571D02*
X86450000Y-41528571D01*
X86450000Y-42052380D02*
X86450000Y-41052380D01*
X86926190Y-41052380D01*
X87450000Y-41052380D02*
X87450000Y-41290476D01*
X87211904Y-41195238D02*
X87450000Y-41290476D01*
X87688095Y-41195238D01*
X87307142Y-41480952D02*
X87450000Y-41290476D01*
X87592857Y-41480952D01*
X88211904Y-41052380D02*
X88211904Y-41290476D01*
X87973809Y-41195238D02*
X88211904Y-41290476D01*
X88450000Y-41195238D01*
X88069047Y-41480952D02*
X88211904Y-41290476D01*
X88354761Y-41480952D01*
X84785714Y-39878571D02*
X84452380Y-39878571D01*
X84452380Y-40402380D02*
X84452380Y-39402380D01*
X84928571Y-39402380D01*
X85785714Y-40402380D02*
X85309523Y-40402380D01*
X85309523Y-39402380D01*
X86119047Y-40021428D02*
X86880952Y-40021428D01*
X87880952Y-40402380D02*
X87309523Y-40402380D01*
X87595238Y-40402380D02*
X87595238Y-39402380D01*
X87500000Y-39545238D01*
X87404761Y-39640476D01*
X87309523Y-39688095D01*
X88785714Y-39402380D02*
X88309523Y-39402380D01*
X88261904Y-39878571D01*
X88309523Y-39830952D01*
X88404761Y-39783333D01*
X88642857Y-39783333D01*
X88738095Y-39830952D01*
X88785714Y-39878571D01*
X88833333Y-39973809D01*
X88833333Y-40211904D01*
X88785714Y-40307142D01*
X88738095Y-40354761D01*
X88642857Y-40402380D01*
X88404761Y-40402380D01*
X88309523Y-40354761D01*
X88261904Y-40307142D01*
X90023809Y-40402380D02*
X90023809Y-39402380D01*
X90261904Y-39402380D01*
X90404761Y-39450000D01*
X90500000Y-39545238D01*
X90547619Y-39640476D01*
X90595238Y-39830952D01*
X90595238Y-39973809D01*
X90547619Y-40164285D01*
X90500000Y-40259523D01*
X90404761Y-40354761D01*
X90261904Y-40402380D01*
X90023809Y-40402380D01*
X91595238Y-40307142D02*
X91547619Y-40354761D01*
X91404761Y-40402380D01*
X91309523Y-40402380D01*
X91166666Y-40354761D01*
X91071428Y-40259523D01*
X91023809Y-40164285D01*
X90976190Y-39973809D01*
X90976190Y-39830952D01*
X91023809Y-39640476D01*
X91071428Y-39545238D01*
X91166666Y-39450000D01*
X91309523Y-39402380D01*
X91404761Y-39402380D01*
X91547619Y-39450000D01*
X91595238Y-39497619D01*
X92738095Y-40354761D02*
X92880952Y-40402380D01*
X93119047Y-40402380D01*
X93214285Y-40354761D01*
X93261904Y-40307142D01*
X93309523Y-40211904D01*
X93309523Y-40116666D01*
X93261904Y-40021428D01*
X93214285Y-39973809D01*
X93119047Y-39926190D01*
X92928571Y-39878571D01*
X92833333Y-39830952D01*
X92785714Y-39783333D01*
X92738095Y-39688095D01*
X92738095Y-39592857D01*
X92785714Y-39497619D01*
X92833333Y-39450000D01*
X92928571Y-39402380D01*
X93166666Y-39402380D01*
X93309523Y-39450000D01*
X93738095Y-40402380D02*
X93738095Y-39402380D01*
X94166666Y-40402380D02*
X94166666Y-39878571D01*
X94119047Y-39783333D01*
X94023809Y-39735714D01*
X93880952Y-39735714D01*
X93785714Y-39783333D01*
X93738095Y-39830952D01*
X95071428Y-39735714D02*
X95071428Y-40402380D01*
X94642857Y-39735714D02*
X94642857Y-40259523D01*
X94690476Y-40354761D01*
X94785714Y-40402380D01*
X94928571Y-40402380D01*
X95023809Y-40354761D01*
X95071428Y-40307142D01*
X95547619Y-39735714D02*
X95547619Y-40402380D01*
X95547619Y-39830952D02*
X95595238Y-39783333D01*
X95690476Y-39735714D01*
X95833333Y-39735714D01*
X95928571Y-39783333D01*
X95976190Y-39878571D01*
X95976190Y-40402380D01*
X96309523Y-39735714D02*
X96690476Y-39735714D01*
X96452380Y-39402380D02*
X96452380Y-40259523D01*
X96500000Y-40354761D01*
X96595238Y-40402380D01*
X96690476Y-40402380D01*
X109064285Y-57585714D02*
X109064285Y-58585714D01*
X109064285Y-57633333D02*
X109159523Y-57585714D01*
X109350000Y-57585714D01*
X109445238Y-57633333D01*
X109492857Y-57680952D01*
X109540476Y-57776190D01*
X109540476Y-58061904D01*
X109492857Y-58157142D01*
X109445238Y-58204761D01*
X109350000Y-58252380D01*
X109159523Y-58252380D01*
X109064285Y-58204761D01*
X110111904Y-58252380D02*
X110016666Y-58204761D01*
X109969047Y-58157142D01*
X109921428Y-58061904D01*
X109921428Y-57776190D01*
X109969047Y-57680952D01*
X110016666Y-57633333D01*
X110111904Y-57585714D01*
X110254761Y-57585714D01*
X110350000Y-57633333D01*
X110397619Y-57680952D01*
X110445238Y-57776190D01*
X110445238Y-58061904D01*
X110397619Y-58157142D01*
X110350000Y-58204761D01*
X110254761Y-58252380D01*
X110111904Y-58252380D01*
X110826190Y-58204761D02*
X110921428Y-58252380D01*
X111111904Y-58252380D01*
X111207142Y-58204761D01*
X111254761Y-58109523D01*
X111254761Y-58061904D01*
X111207142Y-57966666D01*
X111111904Y-57919047D01*
X110969047Y-57919047D01*
X110873809Y-57871428D01*
X110826190Y-57776190D01*
X110826190Y-57728571D01*
X110873809Y-57633333D01*
X110969047Y-57585714D01*
X111111904Y-57585714D01*
X111207142Y-57633333D01*
X111683333Y-58252380D02*
X111683333Y-57585714D01*
X111683333Y-57252380D02*
X111635714Y-57300000D01*
X111683333Y-57347619D01*
X111730952Y-57300000D01*
X111683333Y-57252380D01*
X111683333Y-57347619D01*
X112016666Y-57585714D02*
X112397619Y-57585714D01*
X112159523Y-57252380D02*
X112159523Y-58109523D01*
X112207142Y-58204761D01*
X112302380Y-58252380D01*
X112397619Y-58252380D01*
X112730952Y-58252380D02*
X112730952Y-57585714D01*
X112730952Y-57252380D02*
X112683333Y-57300000D01*
X112730952Y-57347619D01*
X112778571Y-57300000D01*
X112730952Y-57252380D01*
X112730952Y-57347619D01*
X113350000Y-58252380D02*
X113254761Y-58204761D01*
X113207142Y-58157142D01*
X113159523Y-58061904D01*
X113159523Y-57776190D01*
X113207142Y-57680952D01*
X113254761Y-57633333D01*
X113350000Y-57585714D01*
X113492857Y-57585714D01*
X113588095Y-57633333D01*
X113635714Y-57680952D01*
X113683333Y-57776190D01*
X113683333Y-58061904D01*
X113635714Y-58157142D01*
X113588095Y-58204761D01*
X113492857Y-58252380D01*
X113350000Y-58252380D01*
X114111904Y-57585714D02*
X114111904Y-58252380D01*
X114111904Y-57680952D02*
X114159523Y-57633333D01*
X114254761Y-57585714D01*
X114397619Y-57585714D01*
X114492857Y-57633333D01*
X114540476Y-57728571D01*
X114540476Y-58252380D01*
X115635714Y-57585714D02*
X116016666Y-57585714D01*
X115778571Y-57252380D02*
X115778571Y-58109523D01*
X115826190Y-58204761D01*
X115921428Y-58252380D01*
X116016666Y-58252380D01*
X116492857Y-58252380D02*
X116397619Y-58204761D01*
X116350000Y-58157142D01*
X116302380Y-58061904D01*
X116302380Y-57776190D01*
X116350000Y-57680952D01*
X116397619Y-57633333D01*
X116492857Y-57585714D01*
X116635714Y-57585714D01*
X116730952Y-57633333D01*
X116778571Y-57680952D01*
X116826190Y-57776190D01*
X116826190Y-58061904D01*
X116778571Y-58157142D01*
X116730952Y-58204761D01*
X116635714Y-58252380D01*
X116492857Y-58252380D01*
X118445238Y-58252380D02*
X118445238Y-57728571D01*
X118397619Y-57633333D01*
X118302380Y-57585714D01*
X118111904Y-57585714D01*
X118016666Y-57633333D01*
X118445238Y-58204761D02*
X118350000Y-58252380D01*
X118111904Y-58252380D01*
X118016666Y-58204761D01*
X117969047Y-58109523D01*
X117969047Y-58014285D01*
X118016666Y-57919047D01*
X118111904Y-57871428D01*
X118350000Y-57871428D01*
X118445238Y-57823809D01*
X119064285Y-58252380D02*
X118969047Y-58204761D01*
X118921428Y-58109523D01*
X118921428Y-57252380D01*
X119588095Y-58252380D02*
X119492857Y-58204761D01*
X119445238Y-58109523D01*
X119445238Y-57252380D01*
X120111904Y-58252380D02*
X120016666Y-58204761D01*
X119969047Y-58157142D01*
X119921428Y-58061904D01*
X119921428Y-57776190D01*
X119969047Y-57680952D01*
X120016666Y-57633333D01*
X120111904Y-57585714D01*
X120254761Y-57585714D01*
X120350000Y-57633333D01*
X120397619Y-57680952D01*
X120445238Y-57776190D01*
X120445238Y-58061904D01*
X120397619Y-58157142D01*
X120350000Y-58204761D01*
X120254761Y-58252380D01*
X120111904Y-58252380D01*
X120778571Y-57585714D02*
X120969047Y-58252380D01*
X121159523Y-57776190D01*
X121350000Y-58252380D01*
X121540476Y-57585714D01*
X122540476Y-57585714D02*
X122921428Y-57585714D01*
X122683333Y-58252380D02*
X122683333Y-57395238D01*
X122730952Y-57300000D01*
X122826190Y-57252380D01*
X122921428Y-57252380D01*
X123397619Y-58252380D02*
X123302380Y-58204761D01*
X123254761Y-58157142D01*
X123207142Y-58061904D01*
X123207142Y-57776190D01*
X123254761Y-57680952D01*
X123302380Y-57633333D01*
X123397619Y-57585714D01*
X123540476Y-57585714D01*
X123635714Y-57633333D01*
X123683333Y-57680952D01*
X123730952Y-57776190D01*
X123730952Y-58061904D01*
X123683333Y-58157142D01*
X123635714Y-58204761D01*
X123540476Y-58252380D01*
X123397619Y-58252380D01*
X124159523Y-58252380D02*
X124159523Y-57585714D01*
X124159523Y-57776190D02*
X124207142Y-57680952D01*
X124254761Y-57633333D01*
X124350000Y-57585714D01*
X124445238Y-57585714D01*
X125540476Y-57585714D02*
X125540476Y-58252380D01*
X125540476Y-57680952D02*
X125588095Y-57633333D01*
X125683333Y-57585714D01*
X125826190Y-57585714D01*
X125921428Y-57633333D01*
X125969047Y-57728571D01*
X125969047Y-58252380D01*
X126873809Y-58252380D02*
X126873809Y-57728571D01*
X126826190Y-57633333D01*
X126730952Y-57585714D01*
X126540476Y-57585714D01*
X126445238Y-57633333D01*
X126873809Y-58204761D02*
X126778571Y-58252380D01*
X126540476Y-58252380D01*
X126445238Y-58204761D01*
X126397619Y-58109523D01*
X126397619Y-58014285D01*
X126445238Y-57919047D01*
X126540476Y-57871428D01*
X126778571Y-57871428D01*
X126873809Y-57823809D01*
X127207142Y-57585714D02*
X127588095Y-57585714D01*
X127350000Y-57252380D02*
X127350000Y-58109523D01*
X127397619Y-58204761D01*
X127492857Y-58252380D01*
X127588095Y-58252380D01*
X128350000Y-57585714D02*
X128350000Y-58252380D01*
X127921428Y-57585714D02*
X127921428Y-58109523D01*
X127969047Y-58204761D01*
X128064285Y-58252380D01*
X128207142Y-58252380D01*
X128302380Y-58204761D01*
X128350000Y-58157142D01*
X128826190Y-58252380D02*
X128826190Y-57585714D01*
X128826190Y-57776190D02*
X128873809Y-57680952D01*
X128921428Y-57633333D01*
X129016666Y-57585714D01*
X129111904Y-57585714D01*
X129873809Y-58252380D02*
X129873809Y-57728571D01*
X129826190Y-57633333D01*
X129730952Y-57585714D01*
X129540476Y-57585714D01*
X129445238Y-57633333D01*
X129873809Y-58204761D02*
X129778571Y-58252380D01*
X129540476Y-58252380D01*
X129445238Y-58204761D01*
X129397619Y-58109523D01*
X129397619Y-58014285D01*
X129445238Y-57919047D01*
X129540476Y-57871428D01*
X129778571Y-57871428D01*
X129873809Y-57823809D01*
X130492857Y-58252380D02*
X130397619Y-58204761D01*
X130350000Y-58109523D01*
X130350000Y-57252380D01*
X132064285Y-58204761D02*
X131969047Y-58252380D01*
X131778571Y-58252380D01*
X131683333Y-58204761D01*
X131635714Y-58157142D01*
X131588095Y-58061904D01*
X131588095Y-57776190D01*
X131635714Y-57680952D01*
X131683333Y-57633333D01*
X131778571Y-57585714D01*
X131969047Y-57585714D01*
X132064285Y-57633333D01*
X132635714Y-58252380D02*
X132540476Y-58204761D01*
X132492857Y-58157142D01*
X132445238Y-58061904D01*
X132445238Y-57776190D01*
X132492857Y-57680952D01*
X132540476Y-57633333D01*
X132635714Y-57585714D01*
X132778571Y-57585714D01*
X132873809Y-57633333D01*
X132921428Y-57680952D01*
X132969047Y-57776190D01*
X132969047Y-58061904D01*
X132921428Y-58157142D01*
X132873809Y-58204761D01*
X132778571Y-58252380D01*
X132635714Y-58252380D01*
X133397619Y-57585714D02*
X133397619Y-58252380D01*
X133397619Y-57680952D02*
X133445238Y-57633333D01*
X133540476Y-57585714D01*
X133683333Y-57585714D01*
X133778571Y-57633333D01*
X133826190Y-57728571D01*
X133826190Y-58252380D01*
X134207142Y-57585714D02*
X134445238Y-58252380D01*
X134683333Y-57585714D01*
X135445238Y-58204761D02*
X135350000Y-58252380D01*
X135159523Y-58252380D01*
X135064285Y-58204761D01*
X135016666Y-58109523D01*
X135016666Y-57728571D01*
X135064285Y-57633333D01*
X135159523Y-57585714D01*
X135350000Y-57585714D01*
X135445238Y-57633333D01*
X135492857Y-57728571D01*
X135492857Y-57823809D01*
X135016666Y-57919047D01*
X136350000Y-58204761D02*
X136254761Y-58252380D01*
X136064285Y-58252380D01*
X135969047Y-58204761D01*
X135921428Y-58157142D01*
X135873809Y-58061904D01*
X135873809Y-57776190D01*
X135921428Y-57680952D01*
X135969047Y-57633333D01*
X136064285Y-57585714D01*
X136254761Y-57585714D01*
X136350000Y-57633333D01*
X136635714Y-57585714D02*
X137016666Y-57585714D01*
X136778571Y-57252380D02*
X136778571Y-58109523D01*
X136826190Y-58204761D01*
X136921428Y-58252380D01*
X137016666Y-58252380D01*
X137350000Y-58252380D02*
X137350000Y-57585714D01*
X137350000Y-57252380D02*
X137302380Y-57300000D01*
X137350000Y-57347619D01*
X137397619Y-57300000D01*
X137350000Y-57252380D01*
X137350000Y-57347619D01*
X137969047Y-58252380D02*
X137873809Y-58204761D01*
X137826190Y-58157142D01*
X137778571Y-58061904D01*
X137778571Y-57776190D01*
X137826190Y-57680952D01*
X137873809Y-57633333D01*
X137969047Y-57585714D01*
X138111904Y-57585714D01*
X138207142Y-57633333D01*
X138254761Y-57680952D01*
X138302380Y-57776190D01*
X138302380Y-58061904D01*
X138254761Y-58157142D01*
X138207142Y-58204761D01*
X138111904Y-58252380D01*
X137969047Y-58252380D01*
X138730952Y-57585714D02*
X138730952Y-58252380D01*
X138730952Y-57680952D02*
X138778571Y-57633333D01*
X138873809Y-57585714D01*
X139016666Y-57585714D01*
X139111904Y-57633333D01*
X139159523Y-57728571D01*
X139159523Y-58252380D01*
X140826190Y-58204761D02*
X140730952Y-58252380D01*
X140540476Y-58252380D01*
X140445238Y-58204761D01*
X140397619Y-58157142D01*
X140350000Y-58061904D01*
X140350000Y-57776190D01*
X140397619Y-57680952D01*
X140445238Y-57633333D01*
X140540476Y-57585714D01*
X140730952Y-57585714D01*
X140826190Y-57633333D01*
X141397619Y-58252380D02*
X141302380Y-58204761D01*
X141254761Y-58157142D01*
X141207142Y-58061904D01*
X141207142Y-57776190D01*
X141254761Y-57680952D01*
X141302380Y-57633333D01*
X141397619Y-57585714D01*
X141540476Y-57585714D01*
X141635714Y-57633333D01*
X141683333Y-57680952D01*
X141730952Y-57776190D01*
X141730952Y-58061904D01*
X141683333Y-58157142D01*
X141635714Y-58204761D01*
X141540476Y-58252380D01*
X141397619Y-58252380D01*
X142302380Y-58252380D02*
X142207142Y-58204761D01*
X142159523Y-58157142D01*
X142111904Y-58061904D01*
X142111904Y-57776190D01*
X142159523Y-57680952D01*
X142207142Y-57633333D01*
X142302380Y-57585714D01*
X142445238Y-57585714D01*
X142540476Y-57633333D01*
X142588095Y-57680952D01*
X142635714Y-57776190D01*
X142635714Y-58061904D01*
X142588095Y-58157142D01*
X142540476Y-58204761D01*
X142445238Y-58252380D01*
X142302380Y-58252380D01*
X143207142Y-58252380D02*
X143111904Y-58204761D01*
X143064285Y-58109523D01*
X143064285Y-57252380D01*
X143588095Y-58252380D02*
X143588095Y-57585714D01*
X143588095Y-57252380D02*
X143540476Y-57300000D01*
X143588095Y-57347619D01*
X143635714Y-57300000D01*
X143588095Y-57252380D01*
X143588095Y-57347619D01*
X144064285Y-57585714D02*
X144064285Y-58252380D01*
X144064285Y-57680952D02*
X144111904Y-57633333D01*
X144207142Y-57585714D01*
X144350000Y-57585714D01*
X144445238Y-57633333D01*
X144492857Y-57728571D01*
X144492857Y-58252380D01*
X145397619Y-57585714D02*
X145397619Y-58395238D01*
X145350000Y-58490476D01*
X145302380Y-58538095D01*
X145207142Y-58585714D01*
X145064285Y-58585714D01*
X144969047Y-58538095D01*
X145397619Y-58204761D02*
X145302380Y-58252380D01*
X145111904Y-58252380D01*
X145016666Y-58204761D01*
X144969047Y-58157142D01*
X144921428Y-58061904D01*
X144921428Y-57776190D01*
X144969047Y-57680952D01*
X145016666Y-57633333D01*
X145111904Y-57585714D01*
X145302380Y-57585714D01*
X145397619Y-57633333D01*
X77419047Y-55616666D02*
X77895238Y-55616666D01*
X77323809Y-55902380D02*
X77657142Y-54902380D01*
X77990476Y-55902380D01*
X78466666Y-55902380D02*
X78371428Y-55854761D01*
X78323809Y-55759523D01*
X78323809Y-54902380D01*
X78990476Y-55902380D02*
X78895238Y-55854761D01*
X78847619Y-55759523D01*
X78847619Y-54902380D01*
X80085714Y-55854761D02*
X80180952Y-55902380D01*
X80371428Y-55902380D01*
X80466666Y-55854761D01*
X80514285Y-55759523D01*
X80514285Y-55711904D01*
X80466666Y-55616666D01*
X80371428Y-55569047D01*
X80228571Y-55569047D01*
X80133333Y-55521428D01*
X80085714Y-55426190D01*
X80085714Y-55378571D01*
X80133333Y-55283333D01*
X80228571Y-55235714D01*
X80371428Y-55235714D01*
X80466666Y-55283333D01*
X80942857Y-55902380D02*
X80942857Y-54902380D01*
X81371428Y-55902380D02*
X81371428Y-55378571D01*
X81323809Y-55283333D01*
X81228571Y-55235714D01*
X81085714Y-55235714D01*
X80990476Y-55283333D01*
X80942857Y-55330952D01*
X82276190Y-55235714D02*
X82276190Y-55902380D01*
X81847619Y-55235714D02*
X81847619Y-55759523D01*
X81895238Y-55854761D01*
X81990476Y-55902380D01*
X82133333Y-55902380D01*
X82228571Y-55854761D01*
X82276190Y-55807142D01*
X82752380Y-55235714D02*
X82752380Y-55902380D01*
X82752380Y-55330952D02*
X82800000Y-55283333D01*
X82895238Y-55235714D01*
X83038095Y-55235714D01*
X83133333Y-55283333D01*
X83180952Y-55378571D01*
X83180952Y-55902380D01*
X83514285Y-55235714D02*
X83895238Y-55235714D01*
X83657142Y-54902380D02*
X83657142Y-55759523D01*
X83704761Y-55854761D01*
X83800000Y-55902380D01*
X83895238Y-55902380D01*
X84180952Y-55854761D02*
X84276190Y-55902380D01*
X84466666Y-55902380D01*
X84561904Y-55854761D01*
X84609523Y-55759523D01*
X84609523Y-55711904D01*
X84561904Y-55616666D01*
X84466666Y-55569047D01*
X84323809Y-55569047D01*
X84228571Y-55521428D01*
X84180952Y-55426190D01*
X84180952Y-55378571D01*
X84228571Y-55283333D01*
X84323809Y-55235714D01*
X84466666Y-55235714D01*
X84561904Y-55283333D01*
X85752380Y-55854761D02*
X85847619Y-55902380D01*
X86038095Y-55902380D01*
X86133333Y-55854761D01*
X86180952Y-55759523D01*
X86180952Y-55711904D01*
X86133333Y-55616666D01*
X86038095Y-55569047D01*
X85895238Y-55569047D01*
X85800000Y-55521428D01*
X85752380Y-55426190D01*
X85752380Y-55378571D01*
X85800000Y-55283333D01*
X85895238Y-55235714D01*
X86038095Y-55235714D01*
X86133333Y-55283333D01*
X86609523Y-55902380D02*
X86609523Y-54902380D01*
X87038095Y-55902380D02*
X87038095Y-55378571D01*
X86990476Y-55283333D01*
X86895238Y-55235714D01*
X86752380Y-55235714D01*
X86657142Y-55283333D01*
X86609523Y-55330952D01*
X87657142Y-55902380D02*
X87561904Y-55854761D01*
X87514285Y-55807142D01*
X87466666Y-55711904D01*
X87466666Y-55426190D01*
X87514285Y-55330952D01*
X87561904Y-55283333D01*
X87657142Y-55235714D01*
X87800000Y-55235714D01*
X87895238Y-55283333D01*
X87942857Y-55330952D01*
X87990476Y-55426190D01*
X87990476Y-55711904D01*
X87942857Y-55807142D01*
X87895238Y-55854761D01*
X87800000Y-55902380D01*
X87657142Y-55902380D01*
X88847619Y-55235714D02*
X88847619Y-55902380D01*
X88419047Y-55235714D02*
X88419047Y-55759523D01*
X88466666Y-55854761D01*
X88561904Y-55902380D01*
X88704761Y-55902380D01*
X88800000Y-55854761D01*
X88847619Y-55807142D01*
X89466666Y-55902380D02*
X89371428Y-55854761D01*
X89323809Y-55759523D01*
X89323809Y-54902380D01*
X90276190Y-55902380D02*
X90276190Y-54902380D01*
X90276190Y-55854761D02*
X90180952Y-55902380D01*
X89990476Y-55902380D01*
X89895238Y-55854761D01*
X89847619Y-55807142D01*
X89800000Y-55711904D01*
X89800000Y-55426190D01*
X89847619Y-55330952D01*
X89895238Y-55283333D01*
X89990476Y-55235714D01*
X90180952Y-55235714D01*
X90276190Y-55283333D01*
X91514285Y-55902380D02*
X91514285Y-54902380D01*
X91514285Y-55283333D02*
X91609523Y-55235714D01*
X91800000Y-55235714D01*
X91895238Y-55283333D01*
X91942857Y-55330952D01*
X91990476Y-55426190D01*
X91990476Y-55711904D01*
X91942857Y-55807142D01*
X91895238Y-55854761D01*
X91800000Y-55902380D01*
X91609523Y-55902380D01*
X91514285Y-55854761D01*
X92800000Y-55854761D02*
X92704761Y-55902380D01*
X92514285Y-55902380D01*
X92419047Y-55854761D01*
X92371428Y-55759523D01*
X92371428Y-55378571D01*
X92419047Y-55283333D01*
X92514285Y-55235714D01*
X92704761Y-55235714D01*
X92800000Y-55283333D01*
X92847619Y-55378571D01*
X92847619Y-55473809D01*
X92371428Y-55569047D01*
X94038095Y-55902380D02*
X94038095Y-55235714D01*
X94038095Y-55330952D02*
X94085714Y-55283333D01*
X94180952Y-55235714D01*
X94323809Y-55235714D01*
X94419047Y-55283333D01*
X94466666Y-55378571D01*
X94466666Y-55902380D01*
X94466666Y-55378571D02*
X94514285Y-55283333D01*
X94609523Y-55235714D01*
X94752380Y-55235714D01*
X94847619Y-55283333D01*
X94895238Y-55378571D01*
X94895238Y-55902380D01*
X95514285Y-55902380D02*
X95419047Y-55854761D01*
X95371428Y-55807142D01*
X95323809Y-55711904D01*
X95323809Y-55426190D01*
X95371428Y-55330952D01*
X95419047Y-55283333D01*
X95514285Y-55235714D01*
X95657142Y-55235714D01*
X95752380Y-55283333D01*
X95800000Y-55330952D01*
X95847619Y-55426190D01*
X95847619Y-55711904D01*
X95800000Y-55807142D01*
X95752380Y-55854761D01*
X95657142Y-55902380D01*
X95514285Y-55902380D01*
X96704761Y-55235714D02*
X96704761Y-55902380D01*
X96276190Y-55235714D02*
X96276190Y-55759523D01*
X96323809Y-55854761D01*
X96419047Y-55902380D01*
X96561904Y-55902380D01*
X96657142Y-55854761D01*
X96704761Y-55807142D01*
X97180952Y-55235714D02*
X97180952Y-55902380D01*
X97180952Y-55330952D02*
X97228571Y-55283333D01*
X97323809Y-55235714D01*
X97466666Y-55235714D01*
X97561904Y-55283333D01*
X97609523Y-55378571D01*
X97609523Y-55902380D01*
X97942857Y-55235714D02*
X98323809Y-55235714D01*
X98085714Y-54902380D02*
X98085714Y-55759523D01*
X98133333Y-55854761D01*
X98228571Y-55902380D01*
X98323809Y-55902380D01*
X99038095Y-55854761D02*
X98942857Y-55902380D01*
X98752380Y-55902380D01*
X98657142Y-55854761D01*
X98609523Y-55759523D01*
X98609523Y-55378571D01*
X98657142Y-55283333D01*
X98752380Y-55235714D01*
X98942857Y-55235714D01*
X99038095Y-55283333D01*
X99085714Y-55378571D01*
X99085714Y-55473809D01*
X98609523Y-55569047D01*
X99942857Y-55902380D02*
X99942857Y-54902380D01*
X99942857Y-55854761D02*
X99847619Y-55902380D01*
X99657142Y-55902380D01*
X99561904Y-55854761D01*
X99514285Y-55807142D01*
X99466666Y-55711904D01*
X99466666Y-55426190D01*
X99514285Y-55330952D01*
X99561904Y-55283333D01*
X99657142Y-55235714D01*
X99847619Y-55235714D01*
X99942857Y-55283333D01*
X101085714Y-55235714D02*
X101276190Y-55902380D01*
X101466666Y-55426190D01*
X101657142Y-55902380D01*
X101847619Y-55235714D01*
X102228571Y-55902380D02*
X102228571Y-55235714D01*
X102228571Y-54902380D02*
X102180952Y-54950000D01*
X102228571Y-54997619D01*
X102276190Y-54950000D01*
X102228571Y-54902380D01*
X102228571Y-54997619D01*
X102561904Y-55235714D02*
X102942857Y-55235714D01*
X102704761Y-54902380D02*
X102704761Y-55759523D01*
X102752380Y-55854761D01*
X102847619Y-55902380D01*
X102942857Y-55902380D01*
X103276190Y-55902380D02*
X103276190Y-54902380D01*
X103704761Y-55902380D02*
X103704761Y-55378571D01*
X103657142Y-55283333D01*
X103561904Y-55235714D01*
X103419047Y-55235714D01*
X103323809Y-55283333D01*
X103276190Y-55330952D01*
X104800000Y-55235714D02*
X105180952Y-55235714D01*
X104942857Y-54902380D02*
X104942857Y-55759523D01*
X104990476Y-55854761D01*
X105085714Y-55902380D01*
X105180952Y-55902380D01*
X105514285Y-55902380D02*
X105514285Y-54902380D01*
X105942857Y-55902380D02*
X105942857Y-55378571D01*
X105895238Y-55283333D01*
X105800000Y-55235714D01*
X105657142Y-55235714D01*
X105561904Y-55283333D01*
X105514285Y-55330952D01*
X106800000Y-55854761D02*
X106704761Y-55902380D01*
X106514285Y-55902380D01*
X106419047Y-55854761D01*
X106371428Y-55759523D01*
X106371428Y-55378571D01*
X106419047Y-55283333D01*
X106514285Y-55235714D01*
X106704761Y-55235714D01*
X106800000Y-55283333D01*
X106847619Y-55378571D01*
X106847619Y-55473809D01*
X106371428Y-55569047D01*
X107276190Y-55902380D02*
X107276190Y-55235714D01*
X107276190Y-54902380D02*
X107228571Y-54950000D01*
X107276190Y-54997619D01*
X107323809Y-54950000D01*
X107276190Y-54902380D01*
X107276190Y-54997619D01*
X107752380Y-55902380D02*
X107752380Y-55235714D01*
X107752380Y-55426190D02*
X107800000Y-55330952D01*
X107847619Y-55283333D01*
X107942857Y-55235714D01*
X108038095Y-55235714D01*
X109133333Y-55902380D02*
X109133333Y-55235714D01*
X109133333Y-55426190D02*
X109180952Y-55330952D01*
X109228571Y-55283333D01*
X109323809Y-55235714D01*
X109419047Y-55235714D01*
X110133333Y-55854761D02*
X110038095Y-55902380D01*
X109847619Y-55902380D01*
X109752380Y-55854761D01*
X109704761Y-55759523D01*
X109704761Y-55378571D01*
X109752380Y-55283333D01*
X109847619Y-55235714D01*
X110038095Y-55235714D01*
X110133333Y-55283333D01*
X110180952Y-55378571D01*
X110180952Y-55473809D01*
X109704761Y-55569047D01*
X110561904Y-55854761D02*
X110657142Y-55902380D01*
X110847619Y-55902380D01*
X110942857Y-55854761D01*
X110990476Y-55759523D01*
X110990476Y-55711904D01*
X110942857Y-55616666D01*
X110847619Y-55569047D01*
X110704761Y-55569047D01*
X110609523Y-55521428D01*
X110561904Y-55426190D01*
X110561904Y-55378571D01*
X110609523Y-55283333D01*
X110704761Y-55235714D01*
X110847619Y-55235714D01*
X110942857Y-55283333D01*
X111419047Y-55902380D02*
X111419047Y-55235714D01*
X111419047Y-54902380D02*
X111371428Y-54950000D01*
X111419047Y-54997619D01*
X111466666Y-54950000D01*
X111419047Y-54902380D01*
X111419047Y-54997619D01*
X111847619Y-55854761D02*
X111942857Y-55902380D01*
X112133333Y-55902380D01*
X112228571Y-55854761D01*
X112276190Y-55759523D01*
X112276190Y-55711904D01*
X112228571Y-55616666D01*
X112133333Y-55569047D01*
X111990476Y-55569047D01*
X111895238Y-55521428D01*
X111847619Y-55426190D01*
X111847619Y-55378571D01*
X111895238Y-55283333D01*
X111990476Y-55235714D01*
X112133333Y-55235714D01*
X112228571Y-55283333D01*
X112561904Y-55235714D02*
X112942857Y-55235714D01*
X112704761Y-54902380D02*
X112704761Y-55759523D01*
X112752380Y-55854761D01*
X112847619Y-55902380D01*
X112942857Y-55902380D01*
X113704761Y-55902380D02*
X113704761Y-55378571D01*
X113657142Y-55283333D01*
X113561904Y-55235714D01*
X113371428Y-55235714D01*
X113276190Y-55283333D01*
X113704761Y-55854761D02*
X113609523Y-55902380D01*
X113371428Y-55902380D01*
X113276190Y-55854761D01*
X113228571Y-55759523D01*
X113228571Y-55664285D01*
X113276190Y-55569047D01*
X113371428Y-55521428D01*
X113609523Y-55521428D01*
X113704761Y-55473809D01*
X114180952Y-55235714D02*
X114180952Y-55902380D01*
X114180952Y-55330952D02*
X114228571Y-55283333D01*
X114323809Y-55235714D01*
X114466666Y-55235714D01*
X114561904Y-55283333D01*
X114609523Y-55378571D01*
X114609523Y-55902380D01*
X115514285Y-55854761D02*
X115419047Y-55902380D01*
X115228571Y-55902380D01*
X115133333Y-55854761D01*
X115085714Y-55807142D01*
X115038095Y-55711904D01*
X115038095Y-55426190D01*
X115085714Y-55330952D01*
X115133333Y-55283333D01*
X115228571Y-55235714D01*
X115419047Y-55235714D01*
X115514285Y-55283333D01*
X116323809Y-55854761D02*
X116228571Y-55902380D01*
X116038095Y-55902380D01*
X115942857Y-55854761D01*
X115895238Y-55759523D01*
X115895238Y-55378571D01*
X115942857Y-55283333D01*
X116038095Y-55235714D01*
X116228571Y-55235714D01*
X116323809Y-55283333D01*
X116371428Y-55378571D01*
X116371428Y-55473809D01*
X115895238Y-55569047D01*
X117561904Y-55902380D02*
X117561904Y-54902380D01*
X117561904Y-55283333D02*
X117657142Y-55235714D01*
X117847619Y-55235714D01*
X117942857Y-55283333D01*
X117990476Y-55330952D01*
X118038095Y-55426190D01*
X118038095Y-55711904D01*
X117990476Y-55807142D01*
X117942857Y-55854761D01*
X117847619Y-55902380D01*
X117657142Y-55902380D01*
X117561904Y-55854761D01*
X118609523Y-55902380D02*
X118514285Y-55854761D01*
X118466666Y-55759523D01*
X118466666Y-54902380D01*
X119419047Y-55902380D02*
X119419047Y-55378571D01*
X119371428Y-55283333D01*
X119276190Y-55235714D01*
X119085714Y-55235714D01*
X118990476Y-55283333D01*
X119419047Y-55854761D02*
X119323809Y-55902380D01*
X119085714Y-55902380D01*
X118990476Y-55854761D01*
X118942857Y-55759523D01*
X118942857Y-55664285D01*
X118990476Y-55569047D01*
X119085714Y-55521428D01*
X119323809Y-55521428D01*
X119419047Y-55473809D01*
X120323809Y-55902380D02*
X120323809Y-54902380D01*
X120323809Y-55854761D02*
X120228571Y-55902380D01*
X120038095Y-55902380D01*
X119942857Y-55854761D01*
X119895238Y-55807142D01*
X119847619Y-55711904D01*
X119847619Y-55426190D01*
X119895238Y-55330952D01*
X119942857Y-55283333D01*
X120038095Y-55235714D01*
X120228571Y-55235714D01*
X120323809Y-55283333D01*
X121180952Y-55854761D02*
X121085714Y-55902380D01*
X120895238Y-55902380D01*
X120799999Y-55854761D01*
X120752380Y-55759523D01*
X120752380Y-55378571D01*
X120799999Y-55283333D01*
X120895238Y-55235714D01*
X121085714Y-55235714D01*
X121180952Y-55283333D01*
X121228571Y-55378571D01*
X121228571Y-55473809D01*
X120752380Y-55569047D01*
X121609523Y-55854761D02*
X121704761Y-55902380D01*
X121895238Y-55902380D01*
X121990476Y-55854761D01*
X122038095Y-55759523D01*
X122038095Y-55711904D01*
X121990476Y-55616666D01*
X121895238Y-55569047D01*
X121752380Y-55569047D01*
X121657142Y-55521428D01*
X121609523Y-55426190D01*
X121609523Y-55378571D01*
X121657142Y-55283333D01*
X121752380Y-55235714D01*
X121895238Y-55235714D01*
X121990476Y-55283333D01*
X123228571Y-55902380D02*
X123228571Y-55235714D01*
X123228571Y-54902380D02*
X123180952Y-54950000D01*
X123228571Y-54997619D01*
X123276190Y-54950000D01*
X123228571Y-54902380D01*
X123228571Y-54997619D01*
X123704761Y-55235714D02*
X123704761Y-55902380D01*
X123704761Y-55330952D02*
X123752380Y-55283333D01*
X123847619Y-55235714D01*
X123990476Y-55235714D01*
X124085714Y-55283333D01*
X124133333Y-55378571D01*
X124133333Y-55902380D01*
X125799999Y-55902380D02*
X125799999Y-55378571D01*
X125752380Y-55283333D01*
X125657142Y-55235714D01*
X125466666Y-55235714D01*
X125371428Y-55283333D01*
X125799999Y-55854761D02*
X125704761Y-55902380D01*
X125466666Y-55902380D01*
X125371428Y-55854761D01*
X125323809Y-55759523D01*
X125323809Y-55664285D01*
X125371428Y-55569047D01*
X125466666Y-55521428D01*
X125704761Y-55521428D01*
X125799999Y-55473809D01*
X126942857Y-55235714D02*
X127180952Y-55902380D01*
X127419047Y-55235714D01*
X128180952Y-55854761D02*
X128085714Y-55902380D01*
X127895238Y-55902380D01*
X127799999Y-55854761D01*
X127752380Y-55759523D01*
X127752380Y-55378571D01*
X127799999Y-55283333D01*
X127895238Y-55235714D01*
X128085714Y-55235714D01*
X128180952Y-55283333D01*
X128228571Y-55378571D01*
X128228571Y-55473809D01*
X127752380Y-55569047D01*
X128657142Y-55902380D02*
X128657142Y-55235714D01*
X128657142Y-55426190D02*
X128704761Y-55330952D01*
X128752380Y-55283333D01*
X128847619Y-55235714D01*
X128942857Y-55235714D01*
X129133333Y-55235714D02*
X129514285Y-55235714D01*
X129276190Y-54902380D02*
X129276190Y-55759523D01*
X129323809Y-55854761D01*
X129419047Y-55902380D01*
X129514285Y-55902380D01*
X129847619Y-55902380D02*
X129847619Y-55235714D01*
X129847619Y-54902380D02*
X129799999Y-54950000D01*
X129847619Y-54997619D01*
X129895238Y-54950000D01*
X129847619Y-54902380D01*
X129847619Y-54997619D01*
X130752380Y-55854761D02*
X130657142Y-55902380D01*
X130466666Y-55902380D01*
X130371428Y-55854761D01*
X130323809Y-55807142D01*
X130276190Y-55711904D01*
X130276190Y-55426190D01*
X130323809Y-55330952D01*
X130371428Y-55283333D01*
X130466666Y-55235714D01*
X130657142Y-55235714D01*
X130752380Y-55283333D01*
X131609523Y-55902380D02*
X131609523Y-55378571D01*
X131561904Y-55283333D01*
X131466666Y-55235714D01*
X131276190Y-55235714D01*
X131180952Y-55283333D01*
X131609523Y-55854761D02*
X131514285Y-55902380D01*
X131276190Y-55902380D01*
X131180952Y-55854761D01*
X131133333Y-55759523D01*
X131133333Y-55664285D01*
X131180952Y-55569047D01*
X131276190Y-55521428D01*
X131514285Y-55521428D01*
X131609523Y-55473809D01*
X132228571Y-55902380D02*
X132133333Y-55854761D01*
X132085714Y-55759523D01*
X132085714Y-54902380D01*
X121871428Y-73602380D02*
X121395238Y-73602380D01*
X121347619Y-74078571D01*
X121395238Y-74030952D01*
X121490476Y-73983333D01*
X121728571Y-73983333D01*
X121823809Y-74030952D01*
X121871428Y-74078571D01*
X121919047Y-74173809D01*
X121919047Y-74411904D01*
X121871428Y-74507142D01*
X121823809Y-74554761D01*
X121728571Y-74602380D01*
X121490476Y-74602380D01*
X121395238Y-74554761D01*
X121347619Y-74507142D01*
X122300000Y-73697619D02*
X122347619Y-73650000D01*
X122442857Y-73602380D01*
X122680952Y-73602380D01*
X122776190Y-73650000D01*
X122823809Y-73697619D01*
X122871428Y-73792857D01*
X122871428Y-73888095D01*
X122823809Y-74030952D01*
X122252380Y-74602380D01*
X122871428Y-74602380D01*
X123204761Y-74602380D02*
X123728571Y-73935714D01*
X123204761Y-73935714D02*
X123728571Y-74602380D01*
X124014285Y-73602380D02*
X124633333Y-73602380D01*
X124300000Y-73983333D01*
X124442857Y-73983333D01*
X124538095Y-74030952D01*
X124585714Y-74078571D01*
X124633333Y-74173809D01*
X124633333Y-74411904D01*
X124585714Y-74507142D01*
X124538095Y-74554761D01*
X124442857Y-74602380D01*
X124157142Y-74602380D01*
X124061904Y-74554761D01*
X124014285Y-74507142D01*
X125014285Y-73697619D02*
X125061904Y-73650000D01*
X125157142Y-73602380D01*
X125395238Y-73602380D01*
X125490476Y-73650000D01*
X125538095Y-73697619D01*
X125585714Y-73792857D01*
X125585714Y-73888095D01*
X125538095Y-74030952D01*
X124966666Y-74602380D01*
X125585714Y-74602380D01*
X126014285Y-74602380D02*
X126014285Y-73935714D01*
X126014285Y-74030952D02*
X126061904Y-73983333D01*
X126157142Y-73935714D01*
X126300000Y-73935714D01*
X126395238Y-73983333D01*
X126442857Y-74078571D01*
X126442857Y-74602380D01*
X126442857Y-74078571D02*
X126490476Y-73983333D01*
X126585714Y-73935714D01*
X126728571Y-73935714D01*
X126823809Y-73983333D01*
X126871428Y-74078571D01*
X126871428Y-74602380D01*
X127347619Y-74602380D02*
X127347619Y-73935714D01*
X127347619Y-74030952D02*
X127395238Y-73983333D01*
X127490476Y-73935714D01*
X127633333Y-73935714D01*
X127728571Y-73983333D01*
X127776190Y-74078571D01*
X127776190Y-74602380D01*
X127776190Y-74078571D02*
X127823809Y-73983333D01*
X127919047Y-73935714D01*
X128061904Y-73935714D01*
X128157142Y-73983333D01*
X128204761Y-74078571D01*
X128204761Y-74602380D01*
X129395238Y-74554761D02*
X129538095Y-74602380D01*
X129776190Y-74602380D01*
X129871428Y-74554761D01*
X129919047Y-74507142D01*
X129966666Y-74411904D01*
X129966666Y-74316666D01*
X129919047Y-74221428D01*
X129871428Y-74173809D01*
X129776190Y-74126190D01*
X129585714Y-74078571D01*
X129490476Y-74030952D01*
X129442857Y-73983333D01*
X129395238Y-73888095D01*
X129395238Y-73792857D01*
X129442857Y-73697619D01*
X129490476Y-73650000D01*
X129585714Y-73602380D01*
X129823809Y-73602380D01*
X129966666Y-73650000D01*
X130395238Y-74602380D02*
X130395238Y-73602380D01*
X130823809Y-74602380D02*
X130823809Y-74078571D01*
X130776190Y-73983333D01*
X130680952Y-73935714D01*
X130538095Y-73935714D01*
X130442857Y-73983333D01*
X130395238Y-74030952D01*
X131728571Y-73935714D02*
X131728571Y-74602380D01*
X131300000Y-73935714D02*
X131300000Y-74459523D01*
X131347619Y-74554761D01*
X131442857Y-74602380D01*
X131585714Y-74602380D01*
X131680952Y-74554761D01*
X131728571Y-74507142D01*
X132204761Y-73935714D02*
X132204761Y-74602380D01*
X132204761Y-74030952D02*
X132252380Y-73983333D01*
X132347619Y-73935714D01*
X132490476Y-73935714D01*
X132585714Y-73983333D01*
X132633333Y-74078571D01*
X132633333Y-74602380D01*
X132966666Y-73935714D02*
X133347619Y-73935714D01*
X133109523Y-73602380D02*
X133109523Y-74459523D01*
X133157142Y-74554761D01*
X133252380Y-74602380D01*
X133347619Y-74602380D01*
X84330952Y-96417380D02*
X83854761Y-96417380D01*
X83854761Y-95417380D01*
X84664285Y-95893571D02*
X84997619Y-95893571D01*
X85140476Y-96417380D02*
X84664285Y-96417380D01*
X84664285Y-95417380D01*
X85140476Y-95417380D01*
X85569047Y-96417380D02*
X85569047Y-95417380D01*
X85807142Y-95417380D01*
X85950000Y-95465000D01*
X86045238Y-95560238D01*
X86092857Y-95655476D01*
X86140476Y-95845952D01*
X86140476Y-95988809D01*
X86092857Y-96179285D01*
X86045238Y-96274523D01*
X85950000Y-96369761D01*
X85807142Y-96417380D01*
X85569047Y-96417380D01*
X86521428Y-95512619D02*
X86569047Y-95465000D01*
X86664285Y-95417380D01*
X86902380Y-95417380D01*
X86997619Y-95465000D01*
X87045238Y-95512619D01*
X87092857Y-95607857D01*
X87092857Y-95703095D01*
X87045238Y-95845952D01*
X86473809Y-96417380D01*
X87092857Y-96417380D01*
X91630952Y-96417380D02*
X91154761Y-96417380D01*
X91154761Y-95417380D01*
X91964285Y-95893571D02*
X92297619Y-95893571D01*
X92440476Y-96417380D02*
X91964285Y-96417380D01*
X91964285Y-95417380D01*
X92440476Y-95417380D01*
X92869047Y-96417380D02*
X92869047Y-95417380D01*
X93107142Y-95417380D01*
X93250000Y-95465000D01*
X93345238Y-95560238D01*
X93392857Y-95655476D01*
X93440476Y-95845952D01*
X93440476Y-95988809D01*
X93392857Y-96179285D01*
X93345238Y-96274523D01*
X93250000Y-96369761D01*
X93107142Y-96417380D01*
X92869047Y-96417380D01*
X94392857Y-96417380D02*
X93821428Y-96417380D01*
X94107142Y-96417380D02*
X94107142Y-95417380D01*
X94011904Y-95560238D01*
X93916666Y-95655476D01*
X93821428Y-95703095D01*
X93557142Y-85087142D02*
X93509523Y-85134761D01*
X93366666Y-85182380D01*
X93271428Y-85182380D01*
X93128571Y-85134761D01*
X93033333Y-85039523D01*
X92985714Y-84944285D01*
X92938095Y-84753809D01*
X92938095Y-84610952D01*
X92985714Y-84420476D01*
X93033333Y-84325238D01*
X93128571Y-84230000D01*
X93271428Y-84182380D01*
X93366666Y-84182380D01*
X93509523Y-84230000D01*
X93557142Y-84277619D01*
X94509523Y-85182380D02*
X93938095Y-85182380D01*
X94223809Y-85182380D02*
X94223809Y-84182380D01*
X94128571Y-84325238D01*
X94033333Y-84420476D01*
X93938095Y-84468095D01*
X95366666Y-84182380D02*
X95176190Y-84182380D01*
X95080952Y-84230000D01*
X95033333Y-84277619D01*
X94938095Y-84420476D01*
X94890476Y-84610952D01*
X94890476Y-84991904D01*
X94938095Y-85087142D01*
X94985714Y-85134761D01*
X95080952Y-85182380D01*
X95271428Y-85182380D01*
X95366666Y-85134761D01*
X95414285Y-85087142D01*
X95461904Y-84991904D01*
X95461904Y-84753809D01*
X95414285Y-84658571D01*
X95366666Y-84610952D01*
X95271428Y-84563333D01*
X95080952Y-84563333D01*
X94985714Y-84610952D01*
X94938095Y-84658571D01*
X94890476Y-84753809D01*
X109235714Y-86735714D02*
X109197619Y-86773809D01*
X109083333Y-86811904D01*
X109007142Y-86811904D01*
X108892857Y-86773809D01*
X108816666Y-86697619D01*
X108778571Y-86621428D01*
X108740476Y-86469047D01*
X108740476Y-86354761D01*
X108778571Y-86202380D01*
X108816666Y-86126190D01*
X108892857Y-86050000D01*
X109007142Y-86011904D01*
X109083333Y-86011904D01*
X109197619Y-86050000D01*
X109235714Y-86088095D01*
X109997619Y-86811904D02*
X109540476Y-86811904D01*
X109769047Y-86811904D02*
X109769047Y-86011904D01*
X109692857Y-86126190D01*
X109616666Y-86202380D01*
X109540476Y-86240476D01*
X110721428Y-86011904D02*
X110340476Y-86011904D01*
X110302380Y-86392857D01*
X110340476Y-86354761D01*
X110416666Y-86316666D01*
X110607142Y-86316666D01*
X110683333Y-86354761D01*
X110721428Y-86392857D01*
X110759523Y-86469047D01*
X110759523Y-86659523D01*
X110721428Y-86735714D01*
X110683333Y-86773809D01*
X110607142Y-86811904D01*
X110416666Y-86811904D01*
X110340476Y-86773809D01*
X110302380Y-86735714D01*
X86235714Y-80785714D02*
X86197619Y-80823809D01*
X86083333Y-80861904D01*
X86007142Y-80861904D01*
X85892857Y-80823809D01*
X85816666Y-80747619D01*
X85778571Y-80671428D01*
X85740476Y-80519047D01*
X85740476Y-80404761D01*
X85778571Y-80252380D01*
X85816666Y-80176190D01*
X85892857Y-80100000D01*
X86007142Y-80061904D01*
X86083333Y-80061904D01*
X86197619Y-80100000D01*
X86235714Y-80138095D01*
X86997619Y-80861904D02*
X86540476Y-80861904D01*
X86769047Y-80861904D02*
X86769047Y-80061904D01*
X86692857Y-80176190D01*
X86616666Y-80252380D01*
X86540476Y-80290476D01*
X87683333Y-80328571D02*
X87683333Y-80861904D01*
X87492857Y-80023809D02*
X87302380Y-80595238D01*
X87797619Y-80595238D01*
X88035714Y-82485714D02*
X87997619Y-82523809D01*
X87883333Y-82561904D01*
X87807142Y-82561904D01*
X87692857Y-82523809D01*
X87616666Y-82447619D01*
X87578571Y-82371428D01*
X87540476Y-82219047D01*
X87540476Y-82104761D01*
X87578571Y-81952380D01*
X87616666Y-81876190D01*
X87692857Y-81800000D01*
X87807142Y-81761904D01*
X87883333Y-81761904D01*
X87997619Y-81800000D01*
X88035714Y-81838095D01*
X88797619Y-82561904D02*
X88340476Y-82561904D01*
X88569047Y-82561904D02*
X88569047Y-81761904D01*
X88492857Y-81876190D01*
X88416666Y-81952380D01*
X88340476Y-81990476D01*
X89064285Y-81761904D02*
X89559523Y-81761904D01*
X89292857Y-82066666D01*
X89407142Y-82066666D01*
X89483333Y-82104761D01*
X89521428Y-82142857D01*
X89559523Y-82219047D01*
X89559523Y-82409523D01*
X89521428Y-82485714D01*
X89483333Y-82523809D01*
X89407142Y-82561904D01*
X89178571Y-82561904D01*
X89102380Y-82523809D01*
X89064285Y-82485714D01*
X68383333Y-77811904D02*
X68383333Y-78383333D01*
X68345238Y-78497619D01*
X68269047Y-78573809D01*
X68154761Y-78611904D01*
X68078571Y-78611904D01*
X69183333Y-78611904D02*
X68726190Y-78611904D01*
X68954761Y-78611904D02*
X68954761Y-77811904D01*
X68878571Y-77926190D01*
X68802380Y-78002380D01*
X68726190Y-78040476D01*
X126042857Y-78161904D02*
X125776190Y-77780952D01*
X125585714Y-78161904D02*
X125585714Y-77361904D01*
X125890476Y-77361904D01*
X125966666Y-77400000D01*
X126004761Y-77438095D01*
X126042857Y-77514285D01*
X126042857Y-77628571D01*
X126004761Y-77704761D01*
X125966666Y-77742857D01*
X125890476Y-77780952D01*
X125585714Y-77780952D01*
X126500000Y-78161904D02*
X126423809Y-78123809D01*
X126385714Y-78085714D01*
X126347619Y-78009523D01*
X126347619Y-77780952D01*
X126385714Y-77704761D01*
X126423809Y-77666666D01*
X126500000Y-77628571D01*
X126614285Y-77628571D01*
X126690476Y-77666666D01*
X126728571Y-77704761D01*
X126766666Y-77780952D01*
X126766666Y-78009523D01*
X126728571Y-78085714D01*
X126690476Y-78123809D01*
X126614285Y-78161904D01*
X126500000Y-78161904D01*
X127109523Y-77628571D02*
X127109523Y-78161904D01*
X127109523Y-77704761D02*
X127147619Y-77666666D01*
X127223809Y-77628571D01*
X127338095Y-77628571D01*
X127414285Y-77666666D01*
X127452380Y-77742857D01*
X127452380Y-78161904D01*
X128252380Y-78161904D02*
X127795238Y-78161904D01*
X128023809Y-78161904D02*
X128023809Y-77361904D01*
X127947619Y-77476190D01*
X127871428Y-77552380D01*
X127795238Y-77590476D01*
X124764285Y-88111904D02*
X124497619Y-87730952D01*
X124307142Y-88111904D02*
X124307142Y-87311904D01*
X124611904Y-87311904D01*
X124688095Y-87350000D01*
X124726190Y-87388095D01*
X124764285Y-87464285D01*
X124764285Y-87578571D01*
X124726190Y-87654761D01*
X124688095Y-87692857D01*
X124611904Y-87730952D01*
X124307142Y-87730952D01*
X125450000Y-88073809D02*
X125373809Y-88111904D01*
X125221428Y-88111904D01*
X125145238Y-88073809D01*
X125107142Y-88035714D01*
X125069047Y-87959523D01*
X125069047Y-87730952D01*
X125107142Y-87654761D01*
X125145238Y-87616666D01*
X125221428Y-87578571D01*
X125373809Y-87578571D01*
X125450000Y-87616666D01*
X125907142Y-88111904D02*
X125830952Y-88073809D01*
X125792857Y-87997619D01*
X125792857Y-87311904D01*
X126630952Y-88111904D02*
X126173809Y-88111904D01*
X126402380Y-88111904D02*
X126402380Y-87311904D01*
X126326190Y-87426190D01*
X126250000Y-87502380D01*
X126173809Y-87540476D01*
X125485714Y-85311904D02*
X125219047Y-84930952D01*
X125028571Y-85311904D02*
X125028571Y-84511904D01*
X125333333Y-84511904D01*
X125409523Y-84550000D01*
X125447619Y-84588095D01*
X125485714Y-84664285D01*
X125485714Y-84778571D01*
X125447619Y-84854761D01*
X125409523Y-84892857D01*
X125333333Y-84930952D01*
X125028571Y-84930952D01*
X126247619Y-85311904D02*
X125790476Y-85311904D01*
X126019047Y-85311904D02*
X126019047Y-84511904D01*
X125942857Y-84626190D01*
X125866666Y-84702380D01*
X125790476Y-84740476D01*
X127009523Y-85311904D02*
X126552380Y-85311904D01*
X126780952Y-85311904D02*
X126780952Y-84511904D01*
X126704761Y-84626190D01*
X126628571Y-84702380D01*
X126552380Y-84740476D01*
X81007142Y-96547380D02*
X80673809Y-96071190D01*
X80435714Y-96547380D02*
X80435714Y-95547380D01*
X80816666Y-95547380D01*
X80911904Y-95595000D01*
X80959523Y-95642619D01*
X81007142Y-95737857D01*
X81007142Y-95880714D01*
X80959523Y-95975952D01*
X80911904Y-96023571D01*
X80816666Y-96071190D01*
X80435714Y-96071190D01*
X81959523Y-96547380D02*
X81388095Y-96547380D01*
X81673809Y-96547380D02*
X81673809Y-95547380D01*
X81578571Y-95690238D01*
X81483333Y-95785476D01*
X81388095Y-95833095D01*
X82578571Y-95547380D02*
X82673809Y-95547380D01*
X82769047Y-95595000D01*
X82816666Y-95642619D01*
X82864285Y-95737857D01*
X82911904Y-95928333D01*
X82911904Y-96166428D01*
X82864285Y-96356904D01*
X82816666Y-96452142D01*
X82769047Y-96499761D01*
X82673809Y-96547380D01*
X82578571Y-96547380D01*
X82483333Y-96499761D01*
X82435714Y-96452142D01*
X82388095Y-96356904D01*
X82340476Y-96166428D01*
X82340476Y-95928333D01*
X82388095Y-95737857D01*
X82435714Y-95642619D01*
X82483333Y-95595000D01*
X82578571Y-95547380D01*
X113466666Y-81861904D02*
X113200000Y-81480952D01*
X113009523Y-81861904D02*
X113009523Y-81061904D01*
X113314285Y-81061904D01*
X113390476Y-81100000D01*
X113428571Y-81138095D01*
X113466666Y-81214285D01*
X113466666Y-81328571D01*
X113428571Y-81404761D01*
X113390476Y-81442857D01*
X113314285Y-81480952D01*
X113009523Y-81480952D01*
X113847619Y-81861904D02*
X114000000Y-81861904D01*
X114076190Y-81823809D01*
X114114285Y-81785714D01*
X114190476Y-81671428D01*
X114228571Y-81519047D01*
X114228571Y-81214285D01*
X114190476Y-81138095D01*
X114152380Y-81100000D01*
X114076190Y-81061904D01*
X113923809Y-81061904D01*
X113847619Y-81100000D01*
X113809523Y-81138095D01*
X113771428Y-81214285D01*
X113771428Y-81404761D01*
X113809523Y-81480952D01*
X113847619Y-81519047D01*
X113923809Y-81557142D01*
X114076190Y-81557142D01*
X114152380Y-81519047D01*
X114190476Y-81480952D01*
X114228571Y-81404761D01*
X112066666Y-88561904D02*
X111800000Y-88180952D01*
X111609523Y-88561904D02*
X111609523Y-87761904D01*
X111914285Y-87761904D01*
X111990476Y-87800000D01*
X112028571Y-87838095D01*
X112066666Y-87914285D01*
X112066666Y-88028571D01*
X112028571Y-88104761D01*
X111990476Y-88142857D01*
X111914285Y-88180952D01*
X111609523Y-88180952D01*
X112523809Y-88104761D02*
X112447619Y-88066666D01*
X112409523Y-88028571D01*
X112371428Y-87952380D01*
X112371428Y-87914285D01*
X112409523Y-87838095D01*
X112447619Y-87800000D01*
X112523809Y-87761904D01*
X112676190Y-87761904D01*
X112752380Y-87800000D01*
X112790476Y-87838095D01*
X112828571Y-87914285D01*
X112828571Y-87952380D01*
X112790476Y-88028571D01*
X112752380Y-88066666D01*
X112676190Y-88104761D01*
X112523809Y-88104761D01*
X112447619Y-88142857D01*
X112409523Y-88180952D01*
X112371428Y-88257142D01*
X112371428Y-88409523D01*
X112409523Y-88485714D01*
X112447619Y-88523809D01*
X112523809Y-88561904D01*
X112676190Y-88561904D01*
X112752380Y-88523809D01*
X112790476Y-88485714D01*
X112828571Y-88409523D01*
X112828571Y-88257142D01*
X112790476Y-88180952D01*
X112752380Y-88142857D01*
X112676190Y-88104761D01*
X88483333Y-96397380D02*
X88150000Y-95921190D01*
X87911904Y-96397380D02*
X87911904Y-95397380D01*
X88292857Y-95397380D01*
X88388095Y-95445000D01*
X88435714Y-95492619D01*
X88483333Y-95587857D01*
X88483333Y-95730714D01*
X88435714Y-95825952D01*
X88388095Y-95873571D01*
X88292857Y-95921190D01*
X87911904Y-95921190D01*
X88816666Y-95397380D02*
X89483333Y-95397380D01*
X89054761Y-96397380D01*
X132216666Y-82911904D02*
X131950000Y-82530952D01*
X131759523Y-82911904D02*
X131759523Y-82111904D01*
X132064285Y-82111904D01*
X132140476Y-82150000D01*
X132178571Y-82188095D01*
X132216666Y-82264285D01*
X132216666Y-82378571D01*
X132178571Y-82454761D01*
X132140476Y-82492857D01*
X132064285Y-82530952D01*
X131759523Y-82530952D01*
X132902380Y-82111904D02*
X132750000Y-82111904D01*
X132673809Y-82150000D01*
X132635714Y-82188095D01*
X132559523Y-82302380D01*
X132521428Y-82454761D01*
X132521428Y-82759523D01*
X132559523Y-82835714D01*
X132597619Y-82873809D01*
X132673809Y-82911904D01*
X132826190Y-82911904D01*
X132902380Y-82873809D01*
X132940476Y-82835714D01*
X132978571Y-82759523D01*
X132978571Y-82569047D01*
X132940476Y-82492857D01*
X132902380Y-82454761D01*
X132826190Y-82416666D01*
X132673809Y-82416666D01*
X132597619Y-82454761D01*
X132559523Y-82492857D01*
X132521428Y-82569047D01*
X134816666Y-80611904D02*
X134550000Y-80230952D01*
X134359523Y-80611904D02*
X134359523Y-79811904D01*
X134664285Y-79811904D01*
X134740476Y-79850000D01*
X134778571Y-79888095D01*
X134816666Y-79964285D01*
X134816666Y-80078571D01*
X134778571Y-80154761D01*
X134740476Y-80192857D01*
X134664285Y-80230952D01*
X134359523Y-80230952D01*
X135540476Y-79811904D02*
X135159523Y-79811904D01*
X135121428Y-80192857D01*
X135159523Y-80154761D01*
X135235714Y-80116666D01*
X135426190Y-80116666D01*
X135502380Y-80154761D01*
X135540476Y-80192857D01*
X135578571Y-80269047D01*
X135578571Y-80459523D01*
X135540476Y-80535714D01*
X135502380Y-80573809D01*
X135426190Y-80611904D01*
X135235714Y-80611904D01*
X135159523Y-80573809D01*
X135121428Y-80535714D01*
X111966666Y-97861904D02*
X111700000Y-97480952D01*
X111509523Y-97861904D02*
X111509523Y-97061904D01*
X111814285Y-97061904D01*
X111890476Y-97100000D01*
X111928571Y-97138095D01*
X111966666Y-97214285D01*
X111966666Y-97328571D01*
X111928571Y-97404761D01*
X111890476Y-97442857D01*
X111814285Y-97480952D01*
X111509523Y-97480952D01*
X112271428Y-97138095D02*
X112309523Y-97100000D01*
X112385714Y-97061904D01*
X112576190Y-97061904D01*
X112652380Y-97100000D01*
X112690476Y-97138095D01*
X112728571Y-97214285D01*
X112728571Y-97290476D01*
X112690476Y-97404761D01*
X112233333Y-97861904D01*
X112728571Y-97861904D01*
X112016666Y-93361904D02*
X111750000Y-92980952D01*
X111559523Y-93361904D02*
X111559523Y-92561904D01*
X111864285Y-92561904D01*
X111940476Y-92600000D01*
X111978571Y-92638095D01*
X112016666Y-92714285D01*
X112016666Y-92828571D01*
X111978571Y-92904761D01*
X111940476Y-92942857D01*
X111864285Y-92980952D01*
X111559523Y-92980952D01*
X112778571Y-93361904D02*
X112321428Y-93361904D01*
X112550000Y-93361904D02*
X112550000Y-92561904D01*
X112473809Y-92676190D01*
X112397619Y-92752380D01*
X112321428Y-92790476D01*
X134885714Y-83235714D02*
X134847619Y-83273809D01*
X134733333Y-83311904D01*
X134657142Y-83311904D01*
X134542857Y-83273809D01*
X134466666Y-83197619D01*
X134428571Y-83121428D01*
X134390476Y-82969047D01*
X134390476Y-82854761D01*
X134428571Y-82702380D01*
X134466666Y-82626190D01*
X134542857Y-82550000D01*
X134657142Y-82511904D01*
X134733333Y-82511904D01*
X134847619Y-82550000D01*
X134885714Y-82588095D01*
X135647619Y-83311904D02*
X135190476Y-83311904D01*
X135419047Y-83311904D02*
X135419047Y-82511904D01*
X135342857Y-82626190D01*
X135266666Y-82702380D01*
X135190476Y-82740476D01*
X135952380Y-82588095D02*
X135990476Y-82550000D01*
X136066666Y-82511904D01*
X136257142Y-82511904D01*
X136333333Y-82550000D01*
X136371428Y-82588095D01*
X136409523Y-82664285D01*
X136409523Y-82740476D01*
X136371428Y-82854761D01*
X135914285Y-83311904D01*
X136409523Y-83311904D01*
X132785714Y-88035714D02*
X132747619Y-88073809D01*
X132633333Y-88111904D01*
X132557142Y-88111904D01*
X132442857Y-88073809D01*
X132366666Y-87997619D01*
X132328571Y-87921428D01*
X132290476Y-87769047D01*
X132290476Y-87654761D01*
X132328571Y-87502380D01*
X132366666Y-87426190D01*
X132442857Y-87350000D01*
X132557142Y-87311904D01*
X132633333Y-87311904D01*
X132747619Y-87350000D01*
X132785714Y-87388095D01*
X133547619Y-88111904D02*
X133090476Y-88111904D01*
X133319047Y-88111904D02*
X133319047Y-87311904D01*
X133242857Y-87426190D01*
X133166666Y-87502380D01*
X133090476Y-87540476D01*
X134309523Y-88111904D02*
X133852380Y-88111904D01*
X134080952Y-88111904D02*
X134080952Y-87311904D01*
X134004761Y-87426190D01*
X133928571Y-87502380D01*
X133852380Y-87540476D01*
X127885714Y-88035714D02*
X127847619Y-88073809D01*
X127733333Y-88111904D01*
X127657142Y-88111904D01*
X127542857Y-88073809D01*
X127466666Y-87997619D01*
X127428571Y-87921428D01*
X127390476Y-87769047D01*
X127390476Y-87654761D01*
X127428571Y-87502380D01*
X127466666Y-87426190D01*
X127542857Y-87350000D01*
X127657142Y-87311904D01*
X127733333Y-87311904D01*
X127847619Y-87350000D01*
X127885714Y-87388095D01*
X128647619Y-88111904D02*
X128190476Y-88111904D01*
X128419047Y-88111904D02*
X128419047Y-87311904D01*
X128342857Y-87426190D01*
X128266666Y-87502380D01*
X128190476Y-87540476D01*
X129142857Y-87311904D02*
X129219047Y-87311904D01*
X129295238Y-87350000D01*
X129333333Y-87388095D01*
X129371428Y-87464285D01*
X129409523Y-87616666D01*
X129409523Y-87807142D01*
X129371428Y-87959523D01*
X129333333Y-88035714D01*
X129295238Y-88073809D01*
X129219047Y-88111904D01*
X129142857Y-88111904D01*
X129066666Y-88073809D01*
X129028571Y-88035714D01*
X128990476Y-87959523D01*
X128952380Y-87807142D01*
X128952380Y-87616666D01*
X128990476Y-87464285D01*
X129028571Y-87388095D01*
X129066666Y-87350000D01*
X129142857Y-87311904D01*
X130616666Y-88035714D02*
X130578571Y-88073809D01*
X130464285Y-88111904D01*
X130388095Y-88111904D01*
X130273809Y-88073809D01*
X130197619Y-87997619D01*
X130159523Y-87921428D01*
X130121428Y-87769047D01*
X130121428Y-87654761D01*
X130159523Y-87502380D01*
X130197619Y-87426190D01*
X130273809Y-87350000D01*
X130388095Y-87311904D01*
X130464285Y-87311904D01*
X130578571Y-87350000D01*
X130616666Y-87388095D01*
X130997619Y-88111904D02*
X131150000Y-88111904D01*
X131226190Y-88073809D01*
X131264285Y-88035714D01*
X131340476Y-87921428D01*
X131378571Y-87769047D01*
X131378571Y-87464285D01*
X131340476Y-87388095D01*
X131302380Y-87350000D01*
X131226190Y-87311904D01*
X131073809Y-87311904D01*
X130997619Y-87350000D01*
X130959523Y-87388095D01*
X130921428Y-87464285D01*
X130921428Y-87654761D01*
X130959523Y-87730952D01*
X130997619Y-87769047D01*
X131073809Y-87807142D01*
X131226190Y-87807142D01*
X131302380Y-87769047D01*
X131340476Y-87730952D01*
X131378571Y-87654761D01*
X109766666Y-81815714D02*
X109728571Y-81853809D01*
X109614285Y-81891904D01*
X109538095Y-81891904D01*
X109423809Y-81853809D01*
X109347619Y-81777619D01*
X109309523Y-81701428D01*
X109271428Y-81549047D01*
X109271428Y-81434761D01*
X109309523Y-81282380D01*
X109347619Y-81206190D01*
X109423809Y-81130000D01*
X109538095Y-81091904D01*
X109614285Y-81091904D01*
X109728571Y-81130000D01*
X109766666Y-81168095D01*
X110223809Y-81434761D02*
X110147619Y-81396666D01*
X110109523Y-81358571D01*
X110071428Y-81282380D01*
X110071428Y-81244285D01*
X110109523Y-81168095D01*
X110147619Y-81130000D01*
X110223809Y-81091904D01*
X110376190Y-81091904D01*
X110452380Y-81130000D01*
X110490476Y-81168095D01*
X110528571Y-81244285D01*
X110528571Y-81282380D01*
X110490476Y-81358571D01*
X110452380Y-81396666D01*
X110376190Y-81434761D01*
X110223809Y-81434761D01*
X110147619Y-81472857D01*
X110109523Y-81510952D01*
X110071428Y-81587142D01*
X110071428Y-81739523D01*
X110109523Y-81815714D01*
X110147619Y-81853809D01*
X110223809Y-81891904D01*
X110376190Y-81891904D01*
X110452380Y-81853809D01*
X110490476Y-81815714D01*
X110528571Y-81739523D01*
X110528571Y-81587142D01*
X110490476Y-81510952D01*
X110452380Y-81472857D01*
X110376190Y-81434761D01*
X94433333Y-87407142D02*
X94385714Y-87454761D01*
X94242857Y-87502380D01*
X94147619Y-87502380D01*
X94004761Y-87454761D01*
X93909523Y-87359523D01*
X93861904Y-87264285D01*
X93814285Y-87073809D01*
X93814285Y-86930952D01*
X93861904Y-86740476D01*
X93909523Y-86645238D01*
X94004761Y-86550000D01*
X94147619Y-86502380D01*
X94242857Y-86502380D01*
X94385714Y-86550000D01*
X94433333Y-86597619D01*
X94766666Y-86502380D02*
X95433333Y-86502380D01*
X95004761Y-87502380D01*
X123116666Y-79885714D02*
X123078571Y-79923809D01*
X122964285Y-79961904D01*
X122888095Y-79961904D01*
X122773809Y-79923809D01*
X122697619Y-79847619D01*
X122659523Y-79771428D01*
X122621428Y-79619047D01*
X122621428Y-79504761D01*
X122659523Y-79352380D01*
X122697619Y-79276190D01*
X122773809Y-79200000D01*
X122888095Y-79161904D01*
X122964285Y-79161904D01*
X123078571Y-79200000D01*
X123116666Y-79238095D01*
X123802380Y-79161904D02*
X123650000Y-79161904D01*
X123573809Y-79200000D01*
X123535714Y-79238095D01*
X123459523Y-79352380D01*
X123421428Y-79504761D01*
X123421428Y-79809523D01*
X123459523Y-79885714D01*
X123497619Y-79923809D01*
X123573809Y-79961904D01*
X123726190Y-79961904D01*
X123802380Y-79923809D01*
X123840476Y-79885714D01*
X123878571Y-79809523D01*
X123878571Y-79619047D01*
X123840476Y-79542857D01*
X123802380Y-79504761D01*
X123726190Y-79466666D01*
X123573809Y-79466666D01*
X123497619Y-79504761D01*
X123459523Y-79542857D01*
X123421428Y-79619047D01*
X132866666Y-80735714D02*
X132828571Y-80773809D01*
X132714285Y-80811904D01*
X132638095Y-80811904D01*
X132523809Y-80773809D01*
X132447619Y-80697619D01*
X132409523Y-80621428D01*
X132371428Y-80469047D01*
X132371428Y-80354761D01*
X132409523Y-80202380D01*
X132447619Y-80126190D01*
X132523809Y-80050000D01*
X132638095Y-80011904D01*
X132714285Y-80011904D01*
X132828571Y-80050000D01*
X132866666Y-80088095D01*
X133590476Y-80011904D02*
X133209523Y-80011904D01*
X133171428Y-80392857D01*
X133209523Y-80354761D01*
X133285714Y-80316666D01*
X133476190Y-80316666D01*
X133552380Y-80354761D01*
X133590476Y-80392857D01*
X133628571Y-80469047D01*
X133628571Y-80659523D01*
X133590476Y-80735714D01*
X133552380Y-80773809D01*
X133476190Y-80811904D01*
X133285714Y-80811904D01*
X133209523Y-80773809D01*
X133171428Y-80735714D01*
X136066666Y-88035714D02*
X136028571Y-88073809D01*
X135914285Y-88111904D01*
X135838095Y-88111904D01*
X135723809Y-88073809D01*
X135647619Y-87997619D01*
X135609523Y-87921428D01*
X135571428Y-87769047D01*
X135571428Y-87654761D01*
X135609523Y-87502380D01*
X135647619Y-87426190D01*
X135723809Y-87350000D01*
X135838095Y-87311904D01*
X135914285Y-87311904D01*
X136028571Y-87350000D01*
X136066666Y-87388095D01*
X136752380Y-87578571D02*
X136752380Y-88111904D01*
X136561904Y-87273809D02*
X136371428Y-87845238D01*
X136866666Y-87845238D01*
X90533333Y-87407142D02*
X90485714Y-87454761D01*
X90342857Y-87502380D01*
X90247619Y-87502380D01*
X90104761Y-87454761D01*
X90009523Y-87359523D01*
X89961904Y-87264285D01*
X89914285Y-87073809D01*
X89914285Y-86930952D01*
X89961904Y-86740476D01*
X90009523Y-86645238D01*
X90104761Y-86550000D01*
X90247619Y-86502380D01*
X90342857Y-86502380D01*
X90485714Y-86550000D01*
X90533333Y-86597619D01*
X90866666Y-86502380D02*
X91485714Y-86502380D01*
X91152380Y-86883333D01*
X91295238Y-86883333D01*
X91390476Y-86930952D01*
X91438095Y-86978571D01*
X91485714Y-87073809D01*
X91485714Y-87311904D01*
X91438095Y-87407142D01*
X91390476Y-87454761D01*
X91295238Y-87502380D01*
X91009523Y-87502380D01*
X90914285Y-87454761D01*
X90866666Y-87407142D01*
X139216666Y-80235714D02*
X139178571Y-80273809D01*
X139064285Y-80311904D01*
X138988095Y-80311904D01*
X138873809Y-80273809D01*
X138797619Y-80197619D01*
X138759523Y-80121428D01*
X138721428Y-79969047D01*
X138721428Y-79854761D01*
X138759523Y-79702380D01*
X138797619Y-79626190D01*
X138873809Y-79550000D01*
X138988095Y-79511904D01*
X139064285Y-79511904D01*
X139178571Y-79550000D01*
X139216666Y-79588095D01*
X139978571Y-80311904D02*
X139521428Y-80311904D01*
X139750000Y-80311904D02*
X139750000Y-79511904D01*
X139673809Y-79626190D01*
X139597619Y-79702380D01*
X139521428Y-79740476D01*
X121809523Y-83161904D02*
X121809523Y-82361904D01*
X122000000Y-82361904D01*
X122114285Y-82400000D01*
X122190476Y-82476190D01*
X122228571Y-82552380D01*
X122266666Y-82704761D01*
X122266666Y-82819047D01*
X122228571Y-82971428D01*
X122190476Y-83047619D01*
X122114285Y-83123809D01*
X122000000Y-83161904D01*
X121809523Y-83161904D01*
X123028571Y-83161904D02*
X122571428Y-83161904D01*
X122800000Y-83161904D02*
X122800000Y-82361904D01*
X122723809Y-82476190D01*
X122647619Y-82552380D01*
X122571428Y-82590476D01*
X139783333Y-88092857D02*
X139516666Y-88092857D01*
X139516666Y-88511904D02*
X139516666Y-87711904D01*
X139897619Y-87711904D01*
X140621428Y-88511904D02*
X140164285Y-88511904D01*
X140392857Y-88511904D02*
X140392857Y-87711904D01*
X140316666Y-87826190D01*
X140240476Y-87902380D01*
X140164285Y-87940476D01*
X126488095Y-79002380D02*
X126488095Y-79811904D01*
X126535714Y-79907142D01*
X126583333Y-79954761D01*
X126678571Y-80002380D01*
X126869047Y-80002380D01*
X126964285Y-79954761D01*
X127011904Y-79907142D01*
X127059523Y-79811904D01*
X127059523Y-79002380D01*
X127440476Y-79002380D02*
X128059523Y-79002380D01*
X127726190Y-79383333D01*
X127869047Y-79383333D01*
X127964285Y-79430952D01*
X128011904Y-79478571D01*
X128059523Y-79573809D01*
X128059523Y-79811904D01*
X128011904Y-79907142D01*
X127964285Y-79954761D01*
X127869047Y-80002380D01*
X127583333Y-80002380D01*
X127488095Y-79954761D01*
X127440476Y-79907142D01*
X80838095Y-89602380D02*
X80838095Y-90411904D01*
X80885714Y-90507142D01*
X80933333Y-90554761D01*
X81028571Y-90602380D01*
X81219047Y-90602380D01*
X81314285Y-90554761D01*
X81361904Y-90507142D01*
X81409523Y-90411904D01*
X81409523Y-89602380D01*
X82314285Y-89935714D02*
X82314285Y-90602380D01*
X82076190Y-89554761D02*
X81838095Y-90269047D01*
X82457142Y-90269047D01*
X89523809Y-91276190D02*
X89523809Y-91752380D01*
X89190476Y-90752380D02*
X89523809Y-91276190D01*
X89857142Y-90752380D01*
X90714285Y-91752380D02*
X90142857Y-91752380D01*
X90428571Y-91752380D02*
X90428571Y-90752380D01*
X90333333Y-90895238D01*
X90238095Y-90990476D01*
X90142857Y-91038095D01*
X97338095Y-81202380D02*
X97338095Y-82011904D01*
X97385714Y-82107142D01*
X97433333Y-82154761D01*
X97528571Y-82202380D01*
X97719047Y-82202380D01*
X97814285Y-82154761D01*
X97861904Y-82107142D01*
X97909523Y-82011904D01*
X97909523Y-81202380D01*
X98338095Y-81297619D02*
X98385714Y-81250000D01*
X98480952Y-81202380D01*
X98719047Y-81202380D01*
X98814285Y-81250000D01*
X98861904Y-81297619D01*
X98909523Y-81392857D01*
X98909523Y-81488095D01*
X98861904Y-81630952D01*
X98290476Y-82202380D01*
X98909523Y-82202380D01*
X76685714Y-78011904D02*
X76419047Y-77630952D01*
X76228571Y-78011904D02*
X76228571Y-77211904D01*
X76533333Y-77211904D01*
X76609523Y-77250000D01*
X76647619Y-77288095D01*
X76685714Y-77364285D01*
X76685714Y-77478571D01*
X76647619Y-77554761D01*
X76609523Y-77592857D01*
X76533333Y-77630952D01*
X76228571Y-77630952D01*
X77447619Y-78011904D02*
X76990476Y-78011904D01*
X77219047Y-78011904D02*
X77219047Y-77211904D01*
X77142857Y-77326190D01*
X77066666Y-77402380D01*
X76990476Y-77440476D01*
X78133333Y-77478571D02*
X78133333Y-78011904D01*
X77942857Y-77173809D02*
X77752380Y-77745238D01*
X78247619Y-77745238D01*
X83435714Y-78011904D02*
X83169047Y-77630952D01*
X82978571Y-78011904D02*
X82978571Y-77211904D01*
X83283333Y-77211904D01*
X83359523Y-77250000D01*
X83397619Y-77288095D01*
X83435714Y-77364285D01*
X83435714Y-77478571D01*
X83397619Y-77554761D01*
X83359523Y-77592857D01*
X83283333Y-77630952D01*
X82978571Y-77630952D01*
X84197619Y-78011904D02*
X83740476Y-78011904D01*
X83969047Y-78011904D02*
X83969047Y-77211904D01*
X83892857Y-77326190D01*
X83816666Y-77402380D01*
X83740476Y-77440476D01*
X84464285Y-77211904D02*
X84959523Y-77211904D01*
X84692857Y-77516666D01*
X84807142Y-77516666D01*
X84883333Y-77554761D01*
X84921428Y-77592857D01*
X84959523Y-77669047D01*
X84959523Y-77859523D01*
X84921428Y-77935714D01*
X84883333Y-77973809D01*
X84807142Y-78011904D01*
X84578571Y-78011904D01*
X84502380Y-77973809D01*
X84464285Y-77935714D01*
X80035714Y-78011904D02*
X79769047Y-77630952D01*
X79578571Y-78011904D02*
X79578571Y-77211904D01*
X79883333Y-77211904D01*
X79959523Y-77250000D01*
X79997619Y-77288095D01*
X80035714Y-77364285D01*
X80035714Y-77478571D01*
X79997619Y-77554761D01*
X79959523Y-77592857D01*
X79883333Y-77630952D01*
X79578571Y-77630952D01*
X80797619Y-78011904D02*
X80340476Y-78011904D01*
X80569047Y-78011904D02*
X80569047Y-77211904D01*
X80492857Y-77326190D01*
X80416666Y-77402380D01*
X80340476Y-77440476D01*
X81102380Y-77288095D02*
X81140476Y-77250000D01*
X81216666Y-77211904D01*
X81407142Y-77211904D01*
X81483333Y-77250000D01*
X81521428Y-77288095D01*
X81559523Y-77364285D01*
X81559523Y-77440476D01*
X81521428Y-77554761D01*
X81064285Y-78011904D01*
X81559523Y-78011904D01*
X133016666Y-76985714D02*
X132978571Y-77023809D01*
X132864285Y-77061904D01*
X132788095Y-77061904D01*
X132673809Y-77023809D01*
X132597619Y-76947619D01*
X132559523Y-76871428D01*
X132521428Y-76719047D01*
X132521428Y-76604761D01*
X132559523Y-76452380D01*
X132597619Y-76376190D01*
X132673809Y-76300000D01*
X132788095Y-76261904D01*
X132864285Y-76261904D01*
X132978571Y-76300000D01*
X133016666Y-76338095D01*
X133321428Y-76338095D02*
X133359523Y-76300000D01*
X133435714Y-76261904D01*
X133626190Y-76261904D01*
X133702380Y-76300000D01*
X133740476Y-76338095D01*
X133778571Y-76414285D01*
X133778571Y-76490476D01*
X133740476Y-76604761D01*
X133283333Y-77061904D01*
X133778571Y-77061904D01*
X116843095Y-88537380D02*
X116843095Y-89346904D01*
X116890714Y-89442142D01*
X116938333Y-89489761D01*
X117033571Y-89537380D01*
X117224047Y-89537380D01*
X117319285Y-89489761D01*
X117366904Y-89442142D01*
X117414523Y-89346904D01*
X117414523Y-88537380D01*
X118414523Y-89537380D02*
X117843095Y-89537380D01*
X118128809Y-89537380D02*
X118128809Y-88537380D01*
X118033571Y-88680238D01*
X117938333Y-88775476D01*
X117843095Y-88823095D01*
X149704761Y-95414285D02*
X149752380Y-95271428D01*
X149752380Y-95033333D01*
X149704761Y-94938095D01*
X149657142Y-94890476D01*
X149561904Y-94842857D01*
X149466666Y-94842857D01*
X149371428Y-94890476D01*
X149323809Y-94938095D01*
X149276190Y-95033333D01*
X149228571Y-95223809D01*
X149180952Y-95319047D01*
X149133333Y-95366666D01*
X149038095Y-95414285D01*
X148942857Y-95414285D01*
X148847619Y-95366666D01*
X148800000Y-95319047D01*
X148752380Y-95223809D01*
X148752380Y-94985714D01*
X148800000Y-94842857D01*
X149752380Y-94414285D02*
X148752380Y-94414285D01*
X149228571Y-94414285D02*
X149228571Y-93842857D01*
X149752380Y-93842857D02*
X148752380Y-93842857D01*
X148752380Y-93366666D02*
X149561904Y-93366666D01*
X149657142Y-93319047D01*
X149704761Y-93271428D01*
X149752380Y-93176190D01*
X149752380Y-92985714D01*
X149704761Y-92890476D01*
X149657142Y-92842857D01*
X149561904Y-92795238D01*
X148752380Y-92795238D01*
X149752380Y-92319047D02*
X148752380Y-92319047D01*
X149752380Y-91747619D01*
X148752380Y-91747619D01*
X148752380Y-91414285D02*
X148752380Y-90842857D01*
X149752380Y-91128571D02*
X148752380Y-91128571D01*
X149752380Y-89985714D02*
X149752380Y-90557142D01*
X149752380Y-90271428D02*
X148752380Y-90271428D01*
X148895238Y-90366666D01*
X148990476Y-90461904D01*
X149038095Y-90557142D01*
X131816666Y-91661904D02*
X131435714Y-91661904D01*
X131435714Y-90861904D01*
X132502380Y-91661904D02*
X132045238Y-91661904D01*
X132273809Y-91661904D02*
X132273809Y-90861904D01*
X132197619Y-90976190D01*
X132121428Y-91052380D01*
X132045238Y-91090476D01*
X149228571Y-84652380D02*
X149276190Y-84509523D01*
X149323809Y-84461904D01*
X149419047Y-84414285D01*
X149561904Y-84414285D01*
X149657142Y-84461904D01*
X149704761Y-84509523D01*
X149752380Y-84604761D01*
X149752380Y-84985714D01*
X148752380Y-84985714D01*
X148752380Y-84652380D01*
X148800000Y-84557142D01*
X148847619Y-84509523D01*
X148942857Y-84461904D01*
X149038095Y-84461904D01*
X149133333Y-84509523D01*
X149180952Y-84557142D01*
X149228571Y-84652380D01*
X149228571Y-84985714D01*
X149466666Y-84033333D02*
X149466666Y-83557142D01*
X149752380Y-84128571D02*
X148752380Y-83795238D01*
X149752380Y-83461904D01*
X148752380Y-83271428D02*
X148752380Y-82700000D01*
X149752380Y-82985714D02*
X148752380Y-82985714D01*
X148752380Y-82509523D02*
X148752380Y-81938095D01*
X149752380Y-82223809D02*
X148752380Y-82223809D01*
X149847619Y-81842857D02*
X149847619Y-81080952D01*
X149752380Y-80842857D02*
X148752380Y-80842857D01*
X149752380Y-80271428D01*
X148752380Y-80271428D01*
X149228571Y-79795238D02*
X149228571Y-79461904D01*
X149752380Y-79319047D02*
X149752380Y-79795238D01*
X148752380Y-79795238D01*
X148752380Y-79319047D01*
X148800000Y-78366666D02*
X148752380Y-78461904D01*
X148752380Y-78604761D01*
X148800000Y-78747619D01*
X148895238Y-78842857D01*
X148990476Y-78890476D01*
X149180952Y-78938095D01*
X149323809Y-78938095D01*
X149514285Y-78890476D01*
X149609523Y-78842857D01*
X149704761Y-78747619D01*
X149752380Y-78604761D01*
X149752380Y-78509523D01*
X149704761Y-78366666D01*
X149657142Y-78319047D01*
X149323809Y-78319047D01*
X149323809Y-78509523D01*
X149752380Y-77366666D02*
X149752380Y-77938095D01*
X149752380Y-77652380D02*
X148752380Y-77652380D01*
X148895238Y-77747619D01*
X148990476Y-77842857D01*
X149038095Y-77938095D01*
M02*
