<?xml version="1.0" encoding="UTF-8"?>
<!DOCTYPE svg PUBLIC "-//W3C//DTD SVG 1.1//EN" "http://www.w3.org/Graphics/SVG/1.1/DTD/svg11.dtd">

<svg xmlns="http://www.w3.org/2000/svg" xmlns:xlink="http://www.w3.org/1999/xlink" xmlns:xs="http://www.w3.org/2001/XMLSchema" xmlns:wb="http://www.ti.com/webench" version="1.1" width="100%" height="100%" viewBox="0 0 1135.0 565.0" preserveAspectRatio="xMidYMid meet">
  <defs>
    <g id="WB_CONTINUATION">
      <circle xmlns="" opacity="0.01" fill="#ffffff" stroke="#000000" stroke-width="0" cx="0" cy="0" r="14" />
      <line fill="none" stroke="#CC0000" stroke-width="2" x1="0" y1="10" x2="0" y2="-10" />
      <line fill="none" stroke="#CC0000" stroke-width="2" x1="-10" y1="-10" x2="10" y2="-10" />
    </g>
    <g id="WB_BLOCK_IO">
      <circle xmlns="" opacity="0.01" fill="#ffffff" stroke="#000000" stroke-width="0" cx="0" cy="0" r="14" />
      <line stroke="#CC0000" fill="none" stroke-width="2" x1="-5" y1="0" x2="5" y2="0" />
    </g>
    <g id="WB_STARTUP_VOLTAGE_SOURCE">
      <circle xmlns="" opacity="0.01" fill="#ffffff" stroke="#000000" stroke-width="0" cx="0" cy="0" r="14" />
      <circle fill-opacity="0.01" fill="#CC0000" stroke="#CC0000" stroke-width="2" cx="0" cy="0" r="14" />
      <polyline fill="none" stroke="#CC0000" stroke-width="2" points="-6,-11 -6,7 5,9 5,12 " />
      <line fill="none" stroke="#CC0000" stroke-width="2" x1="16" y1="-12" x2="16" y2="-18" />
      <line fill="none" stroke="#CC0000" stroke-width="2" x1="-17" y1="-12" x2="-17" y2="-18" />
      <line fill="none" stroke="#CC0000" stroke-width="2" x1="-14" y1="-15" x2="-20" y2="-15" />
      <line fill="none" stroke="#CC0000" stroke-width="2" x1="-15" y1="0" x2="-30" y2="0" />
      <line fill="none" stroke="#CC0000" stroke-width="2" x1="30" y1="0" x2="15" y2="0" />
    </g>
    <g id="WB_SOURCE_RESISTOR">
      <circle xmlns="" opacity="0.01" fill="#ffffff" stroke="#000000" stroke-width="0" cx="0" cy="0" r="14" />
      <polyline fill="none" stroke="#CC0000" stroke-width="2" stroke-linecap="round" stroke-linejoin="round" points="30,0 20,0 15,-6 7.5,6 0,-6 -7.5,6 -15,-6 -20,0 -30,0" />
    </g>
    <g id="WB_PRIM_STARTUP_VOLTAGE_SOURCE">
      <circle xmlns="" opacity="0.01" fill="#ffffff" stroke="#000000" stroke-width="0" cx="0" cy="0" r="14" />
      <circle fill-opacity="0.01" fill="#CC0000" stroke="#CC0000" stroke-width="2" cx="0" cy="0" r="14" />
      <polyline fill="none" stroke="#CC0000" stroke-width="2" points="-6,-11 -6,7 5,9 5,12 " />
      <line fill="none" stroke="#CC0000" stroke-width="2" x1="16" y1="-12" x2="16" y2="-18" />
      <line fill="none" stroke="#CC0000" stroke-width="2" x1="-17" y1="-12" x2="-17" y2="-18" />
      <line fill="none" stroke="#CC0000" stroke-width="2" x1="-14" y1="-15" x2="-20" y2="-15" />
      <line fill="none" stroke="#CC0000" stroke-width="2" x1="-15" y1="0" x2="-30" y2="0" />
      <line fill="none" stroke="#CC0000" stroke-width="2" x1="30" y1="0" x2="15" y2="0" />
    </g>
    <g id="WB_CURRENT_PROBE">
      <circle xmlns="" opacity="0.01" fill="#ffffff" stroke="#000000" stroke-width="0" cx="0" cy="0" r="14" />
      <line stroke="#CC0000" stroke-width="2" stroke-linecap="square" stroke-linejoin="round" x1="-16" y1="0" x2="-10" y2="0" />
      <polyline stroke="#CC0000" stroke-width="2" stroke-linecap="square" stroke-linejoin="round" points="6,0 3,-3.5 3,3.5 6,0 -6,0 " />
      <line stroke="#CC0000" stroke-width="2" stroke-linecap="square" stroke-linejoin="round" x1="10" y1="0" x2="16" y2="0" />
      <rect stroke-width="1" x="-9.5" y="-7" fill="none" stroke="#CC0000" width="19" height="14" />
    </g>
    <g id="WB_PWL_CURRENT_LOAD">
      <circle xmlns="" opacity="0.01" fill="#ffffff" stroke="#000000" stroke-width="0" cx="0" cy="0" r="14" />
      <circle fill-opacity="0.01" fill="#CC0000" stroke="#CC0000" stroke-width="2" cx="0" cy="0" r="14" />
      <line y1="0" x2="-20" stroke="#CC0000" x1="-30" fill="none" stroke-width="2" y2="0" />
      <line y1="0" x2="20" stroke="#CC0000" x1="30" fill="none" stroke-width="2" y2="0" />
      <polyline stroke="#CC0000" points="-7,6 4,8  " stroke-linejoin="round" fill="none" stroke-width="2" stroke-linecap="round" />
      <polyline stroke="#CC0000" points="-7,-6 4,-8  " stroke-linejoin="round" fill="none" stroke-width="2" stroke-linecap="round" />
      <polyline stroke="#CC0000" points="-20,0 -15,0  " stroke-linejoin="round" fill="none" stroke-width="2" stroke-linecap="round" />
      <polyline stroke="#CC0000" points="20,0 15,0  " stroke-linejoin="round" fill="none" stroke-width="2" stroke-linecap="round" />
      <polyline stroke="#CC0000" points="-7,-6 -7,6  " stroke-linejoin="round" fill="none" stroke-width="2" stroke-linecap="round" />
      <polyline stroke="#CC0000" points="4,-8 4,-11  " stroke-linejoin="round" fill="none" stroke-width="2" stroke-linecap="round" />
      <polyline stroke="#CC0000" points="4,8 4,11  " stroke-linejoin="round" fill="none" stroke-width="2" stroke-linecap="round" />
      <line x1="23" y1="-13" x2="23" y2="-7" stroke="#CC0000" fill="none" stroke-width="2" stroke-linecap="round" />
      <line x1="-23" y1="-13" x2="-23" y2="-7" stroke="#CC0000" fill="none" stroke-width="2" stroke-linecap="round" />
      <line x1="-26" y1="-10" x2="-20" y2="-10" stroke="#CC0000" fill="none" stroke-width="2" stroke-linecap="round" />
    </g>
    <g id="WB_GND">
      <circle xmlns="" opacity="0.01" fill="#ffffff" stroke="#000000" stroke-width="0" cx="0" cy="0" r="14" />
      <line fill="none" stroke="black" stroke-width="2" x1="0" y1="-10" x2="0" y2="0" />
      <line fill="none" stroke="black" stroke-width="2" x1="-13" y1="0" x2="13" y2="0" />
      <line fill="none" stroke="black" stroke-width="2" x1="-9" y1="4" x2="9" y2="4" />
      <line fill="none" stroke="black" stroke-width="2" x1="-3" y1="8" x2="3" y2="8" />
    </g>
    <g id="WB_RESISTOR">
      <circle xmlns="" opacity="0.01" fill="#ffffff" stroke="#000000" stroke-width="0" cx="0" cy="0" r="14" />
      <polyline fill="none" stroke="#115566" stroke-width="2" stroke-linecap="round" stroke-linejoin="round" points="30,0 20,0 15,-6 7.5,6 0,-6 -7.5,6 -15,-6 -20,0 -30,0" />
    </g>
    <g id="WB_CAPACITOR">
      <circle xmlns="" opacity="0.01" fill="#ffffff" stroke="#000000" stroke-width="0" cx="0" cy="0" r="14" />
      <line y1="0" x2="20" stroke="#115566" x1="30" fill="none" stroke-width="2" y2="0" />
      <line y1="0" x2="-20" stroke="#115566" x1="-30" fill="none" stroke-width="2" y2="0" />
      <polyline stroke="#115566" points="3,12 3,-12  " stroke-linejoin="round" fill="none" stroke-width="2" stroke-linecap="round" />
      <polyline stroke="#115566" points="-20,0 -3,0  " stroke-linejoin="round" fill="none" stroke-width="2" stroke-linecap="round" />
      <polyline stroke="#115566" points="3,0 20,0  " stroke-linejoin="round" fill="none" stroke-width="2" stroke-linecap="round" />
      <polyline stroke="#115566" points="-3,12 -3,-12  " stroke-linejoin="round" fill="none" stroke-width="2" stroke-linecap="round" />
    </g>
    <g id="WB_CURRENT_LOAD">
      <circle xmlns="" opacity="0.01" fill="#ffffff" stroke="#000000" stroke-width="0" cx="0" cy="0" r="14" />
      <path fill="none" stroke="#CC0000" stroke-width="2" stroke-linecap="round" stroke-linejoin="round" d="M-15,0c 0.1, 4.2, 1.6, 7.7, 4.4, 10.6c 2.8, 2.8, 6.4, 4.3, 10.6, 4.4c 4.3-0.1, 7.8-1.6, 10.6 -4.4c 2.9-2.9, 4.3-6.4, 4.4-10.6" />
      <path fill="none" stroke="#CC0000" stroke-width="2" stroke-linecap="round" stroke-linejoin="round" d="M15,0c -0.1,-4.2,-1.6,-7.7,-4.4,-10.6c-2.8,-2.8,-6.4,-4.3,-10.6,-4.4c-4.3,0.1 -7.8,1.6 -10.6,4.4c-2.9,2.9 -4.3,6.4 -4.4,10.6" />
      <line fill="none" stroke="#CC0000" stroke-width="2" x1="30" y1="0" x2="15" y2="0" />
      <line fill="none" stroke="#CC0000" stroke-width="2" x1="-15" y1="0" x2="-30" y2="0" />
      <line fill="none" stroke="#CC0000" stroke-width="2" stroke-linecap="round" stroke-linejoin="round" x1="3" y1="7" x2="12" y2="0" />
      <line fill="none" stroke="#CC0000" stroke-width="2" stroke-linecap="round" stroke-linejoin="round" x1="3" y1="-7" x2="12" y2="0" />
      <line fill="none" stroke="#CC0000" stroke-width="2" stroke-linecap="round" stroke-linejoin="round" x1="12" y1="0" x2="-12" y2="0" />
    </g>
    <g id="WB_INDUCTOR">
      <circle xmlns="" opacity="0.01" fill="#ffffff" stroke="#000000" stroke-width="0" cx="0" cy="0" r="14" />
      <path fill="none" stroke="#115566" stroke-width="2" stroke-linecap="round" stroke-linejoin="round" d="M-10,0c0-0.6-0.2-1.8-0.6-3.3c-0.5-2.4-2-3.7-4.4-4c-2.4,0.3-3.8,1.6-4.3,4c-0.6,2.3-0.8,3.6-0.7,3M-20,0H-30" />
      <path fill="none" stroke="#115566" stroke-width="2" stroke-linecap="round" stroke-linejoin="round" d="M0,0c0-0.6-0.2-1.8-0.6-3.3c-0.5-2.4-2-3.7-4.4-4c-2.4,0.3-3.8,1.6-4.3,4c-0.6,2.3-0.8,3.6-0.7,4" />
      <path fill="none" stroke="#115566" stroke-width="2" stroke-linecap="round" stroke-linejoin="round" d="M10,0c0-0.6-0.2-1.8-0.6-3.3c-0.5-2.4-2-3.7-4.4-4c-2.4,0.3-3.8,1.6-4.3,4c-0.6,2.3-0.8,3.6-0.7,4" />
      <path fill="none" stroke="#115566" stroke-width="2" stroke-linecap="round" stroke-linejoin="round" d="M30,0H20c0-0.6-0.2-1.8-0.6-3.3c-0.5-2.4-2-3.7-4.4-4c-2.4,0.3-3.8,1.6-4.3,4c-0.6,2.3-0.8,3.6-0.7,4" />
      <path fill="none" stroke="#115566" stroke-width="2" stroke-linecap="round" stroke-linejoin="round" d=" M10,0 c0.1,0.4,0.1,0.6,0,0.7" />
      <path fill="none" stroke="#115566" stroke-width="2" stroke-linecap="round" stroke-linejoin="round" d=" M0,0  c0.1,0.4,0.1,0.6,0,0.7" />
      <path fill="none" stroke="#115566" stroke-width="2" stroke-linecap="round" stroke-linejoin="round" d=" M-10,0c0.1,0.4,0.1,0.6,0,0.7" />
    </g>
    <g id="WB_VOLTAGE_PROBE">
      <circle xmlns="" opacity="0.01" fill="#ffffff" stroke="#000000" stroke-width="0" cx="0" cy="0" r="14" />
      <rect stroke-width="1" width="20" stroke="#CC0000" x="-10" height="19.5" y="-30" fill="#CC0000" fill-opacity="0.01" />
      <polyline stroke="#CC0000" points="7,-27 4,-22 3,-26 0,-18 -1,-22 -5,-14  " stroke-linejoin="round" fill="none" stroke-width="2" stroke-linecap="round" />
      <line y1="0" x2="0" stroke="#CC0000" x1="0" fill="none" stroke-width="2" y2="-10" />
    </g>
    <g id="WB_LM5009">
      <circle xmlns="" opacity="0.01" fill="#ffffff" stroke="#000000" stroke-width="0" cx="0" cy="0" r="14" />
      <rect width="180" height="100" x="-90" y="-50" stroke="#000000" stroke-width="4" fill="#F2F2F2" stroke-linecap="round" stroke-linejoin="round" />
      <text id="partNumber_label" x="0" y="-5" style="font-family:arial;font-weight:bold;font-size:16;text-anchor:middle;">LM5009</text>
      <line fill="none" stroke="#000000" stroke-width="2" stroke-linecap="round" stroke-linejoin="round" x1="-100" y1="-30" x2="-90" y2="-30" />
      <text id="1" x="-84" y="-26" style="font-family:arial;font-weight:normal;font-size:11;text-anchor:start;">Vin</text>
      <line fill="none" stroke="#000000" stroke-width="2" stroke-linecap="round" stroke-linejoin="round" x1="-20" y1="-60" x2="-20" y2="-50" />
      <text id="2" x="-20" y="-36" style="font-family:arial;font-weight:normal;font-size:11;text-anchor:middle;">Boost</text>
      <line fill="none" stroke="#000000" stroke-width="2" stroke-linecap="round" stroke-linejoin="round" x1="100" y1="20" x2="90" y2="20" />
      <text id="3" x="84" y="24" style="font-family:arial;font-weight:normal;font-size:11;text-anchor:end;">FB</text>
      <line fill="none" stroke="#000000" stroke-width="2" stroke-linecap="round" stroke-linejoin="round" x1="100" y1="-30" x2="90" y2="-30" />
      <text id="4" x="84" y="-26" style="font-family:arial;font-weight:normal;font-size:11;text-anchor:end;">SW</text>
      <line fill="none" stroke="#000000" stroke-width="2" stroke-linecap="round" stroke-linejoin="round" x1="50" y1="60" x2="50" y2="50" />
      <text id="5" x="50" y="45" style="font-family:arial;font-weight:normal;font-size:11;text-anchor:middle;">Vcc</text>
      <line fill="none" stroke="#000000" stroke-width="2" stroke-linecap="round" stroke-linejoin="round" x1="-50" y1="60" x2="-50" y2="50" />
      <text id="6" x="-50" y="45" style="font-family:arial;font-weight:normal;font-size:11;text-anchor:middle;">Rcl</text>
      <line fill="none" stroke="#000000" stroke-width="2" stroke-linecap="round" stroke-linejoin="round" x1="-100" y1="20" x2="-90" y2="20" />
      <text id="7" x="-84" y="24" style="font-family:arial;font-weight:normal;font-size:11;text-anchor:start;">SD/Ron</text>
      <line fill="none" stroke="#000000" stroke-width="2" stroke-linecap="round" stroke-linejoin="round" x1="0" y1="60" x2="0" y2="50" />
      <text id="8" x="0" y="45" style="font-family:arial;font-weight:normal;font-size:11;text-anchor:middle;">GND</text>
    </g>
    <g id="WB_DIODE">
      <circle xmlns="" opacity="0.01" fill="#ffffff" stroke="#000000" stroke-width="0" cx="0" cy="0" r="14" />
      <path fill="#115566" d="M-11,0L10,-12,10,12 -11,0" />
      <line fill="none" stroke="#115566" stroke-width="2" x1="30" y1="0" x2="-30" y2="0" />
      <line fill="none" stroke="#115566" stroke-width="2" x1="-10" y1="12" x2="-10" y2="-12" />
    </g>
    <g id="WB_PWL_VOLTAGE_SOURCE">
      <circle xmlns="" opacity="0.01" fill="#ffffff" stroke="#000000" stroke-width="0" cx="0" cy="0" r="14" />
      <circle fill-opacity="0.01" fill="#CC0000" stroke="#CC0000" stroke-width="2" cx="0" cy="0" r="14" />
      <line y1="0" x2="-20" stroke="#CC0000" x1="-30" fill="none" stroke-width="2" y2="0" />
      <line y1="0" x2="20" stroke="#CC0000" x1="30" fill="none" stroke-width="2" y2="0" />
      <polyline stroke="#CC0000" points="-7,6 4,8  " stroke-linejoin="round" fill="none" stroke-width="2" stroke-linecap="round" />
      <polyline stroke="#CC0000" points="-7,-6 4,-8  " stroke-linejoin="round" fill="none" stroke-width="2" stroke-linecap="round" />
      <polyline stroke="#CC0000" points="-20,0 -15,0  " stroke-linejoin="round" fill="none" stroke-width="2" stroke-linecap="round" />
      <polyline stroke="#CC0000" points="20,0 15,0  " stroke-linejoin="round" fill="none" stroke-width="2" stroke-linecap="round" />
      <polyline stroke="#CC0000" points="-7,-6 -7,6  " stroke-linejoin="round" fill="none" stroke-width="2" stroke-linecap="round" />
      <polyline stroke="#CC0000" points="4,-8 4,-11  " stroke-linejoin="round" fill="none" stroke-width="2" stroke-linecap="round" />
      <polyline stroke="#CC0000" points="4,8 4,11  " stroke-linejoin="round" fill="none" stroke-width="2" stroke-linecap="round" />
      <line x1="23" y1="-13" x2="23" y2="-7" stroke="#CC0000" fill="none" stroke-width="2" stroke-linecap="round" />
      <line x1="-23" y1="-13" x2="-23" y2="-7" stroke="#CC0000" fill="none" stroke-width="2" stroke-linecap="round" />
      <line x1="-26" y1="-10" x2="-20" y2="-10" stroke="#CC0000" fill="none" stroke-width="2" stroke-linecap="round" />
    </g>
    <g id="WB_PRIM_PWL_VOLTAGE_SOURCE">
      <circle xmlns="" opacity="0.01" fill="#ffffff" stroke="#000000" stroke-width="0" cx="0" cy="0" r="14" />
      <circle fill-opacity="0.01" fill="#CC0000" stroke="#CC0000" stroke-width="2" cx="0" cy="0" r="14" />
      <line x1="-30" y1="0" x2="-15" y2="0" stroke="#CC0000" fill="none" stroke-width="2" />
      <line x1="30" y1="0" x2="15" y2="0" stroke="#CC0000" fill="none" stroke-width="2" />
      <polyline stroke="#CC0000" points="0,13 0,8 -7,6 -7,0 7,-4 0,-8 0,-13" stroke-linejoin="round" fill="none" stroke-width="2" stroke-linecap="round" />
      <line x1="23" y1="-13" x2="23" y2="-7" stroke="#CC0000" fill="none" stroke-width="2" stroke-linecap="round" />
      <line x1="-23" y1="-13" x2="-23" y2="-7" stroke="#CC0000" fill="none" stroke-width="2" stroke-linecap="round" />
      <line x1="-26" y1="-10" x2="-20" y2="-10" stroke="#CC0000" fill="none" stroke-width="2" stroke-linecap="round" />
    </g>
    <g id="WB_LOAD_RESISTOR">
      <circle xmlns="" opacity="0.01" fill="#ffffff" stroke="#000000" stroke-width="0" cx="0" cy="0" r="14" />
      <polyline fill="none" stroke="#CC0000" stroke-width="2" stroke-linecap="round" stroke-linejoin="round" points="30,0 20,0 15,-6 7.5,6 0,-6 -7.5,6 -15,-6 -20,0 -30,0" />
    </g>
    <g id="WB_PRIMITIVE_BATTERY">
      <circle xmlns="" opacity="0.01" fill="#ffffff" stroke="#000000" stroke-width="0" cx="0" cy="0" r="14" />
      <line fill="none" stroke="#CC0000" stroke-width="2" x1="-8" y1="0" x2="-30" y2="0" />
      <line fill="none" stroke="#CC0000" stroke-width="2" x1="-7" y1="12" x2="-7" y2="-12" />
      <line fill="none" stroke="#CC0000" stroke-width="2" x1="4" y1="12" x2="4" y2="-12" />
      <line fill="none" stroke="#CC0000" stroke-width="2" x1="30" y1="0" x2="11" y2="0" />
      <line fill="none" stroke="#CC0000" stroke-width="2" x1="-2" y1="5" x2="-2" y2="-5" />
      <line fill="none" stroke="#CC0000" stroke-width="2" x1="-1" y1="5" x2="-1" y2="-5" />
      <line fill="none" stroke="#CC0000" stroke-width="2" x1="-14" y1="-9" x2="-14" y2="-15" />
      <line fill="none" stroke="#CC0000" stroke-width="2" x1="-11" y1="-12" x2="-17" y2="-12" />
      <line fill="none" stroke="#CC0000" stroke-width="2" x1="13" y1="-10" x2="13" y2="-15" />
      <line fill="none" stroke="#CC0000" stroke-width="2" x1="10" y1="5" x2="10" y2="-5" />
      <line fill="none" stroke="#CC0000" stroke-width="2" x1="9" y1="5" x2="9" y2="-5" />
    </g>
    <g id="WB_BATTERY">
      <circle xmlns="" opacity="0.01" fill="#ffffff" stroke="#000000" stroke-width="0" cx="0" cy="0" r="14" />
      <line fill="none" stroke="#CC0000" stroke-width="2" x1="-8" y1="0" x2="-30" y2="0" />
      <line fill="none" stroke="#CC0000" stroke-width="2" x1="-7" y1="12" x2="-7" y2="-12" />
      <line fill="none" stroke="#CC0000" stroke-width="2" x1="4" y1="12" x2="4" y2="-12" />
      <line fill="none" stroke="#CC0000" stroke-width="2" x1="30" y1="0" x2="11" y2="0" />
      <line fill="none" stroke="#CC0000" stroke-width="2" x1="-2" y1="5" x2="-2" y2="-5" />
      <line fill="none" stroke="#CC0000" stroke-width="2" x1="-1" y1="5" x2="-1" y2="-5" />
      <line fill="none" stroke="#CC0000" stroke-width="2" x1="-14" y1="-9" x2="-14" y2="-15" />
      <line fill="none" stroke="#CC0000" stroke-width="2" x1="-11" y1="-12" x2="-17" y2="-12" />
      <line fill="none" stroke="#CC0000" stroke-width="2" x1="13" y1="-10" x2="13" y2="-15" />
      <line fill="none" stroke="#CC0000" stroke-width="2" x1="10" y1="5" x2="10" y2="-5" />
      <line fill="none" stroke="#CC0000" stroke-width="2" x1="9" y1="5" x2="9" y2="-5" />
    </g>
  </defs>
  <use id="Rr" class="comp" xlink:href="#WB_RESISTOR" x="645.0" y="265.0" partNo="RC1206FR-07680KL" thermalId="1206" resistance="680kOhm" manufacturer="Yageo" />
  <text for="Rr" x="625.0" y="250.0" style="font-family:arial;font-size:13px;stroke-width:0.5;stroke:#115566;fill:#115566;">Rr</text>
  <text for="Rr" x="625.0" y="285.0" style="font-family:arial;font-size:10px;stroke-width:0.1;stroke:#CC0000;fill:#CC0000;">680kOhm</text>
  <use id="Cr" class="comp" xlink:href="#WB_CAPACITOR" x="740.0" y="265.0" cap="3.9nF" partNo="12065A392JAT2A" thermalId="1206" esr="0Ohm" manufacturer="AVX" />
  <text for="Cr" x="720.0" y="250.0" style="font-family:arial;font-size:13px;stroke-width:0.5;stroke:#115566;fill:#115566;">Cr</text>
  <text for="Cr" x="720.0" y="285.0" style="font-family:arial;font-size:10px;stroke-width:0.1;stroke:#CC0000;fill:#CC0000;">3.9nF</text>
  <text for="Cr" x="720.0" y="295.0" style="font-family:arial;font-size:10px;stroke-width:0.1;stroke:#CC0000;fill:#CC0000;">0Ohm</text>
  <use id="Cac" class="comp" xlink:href="#WB_CAPACITOR" x="685.0" y="295.0" transform="rotate(-90, 685.0, 295.0)" cap="12nF" partNo=" " thermalId="1206" esr="0Ohm" manufacturer="AVX" />
  <text for="Cac" x="700.0" y="295.0" style="font-family:arial;font-size:13px;stroke-width:0.5;stroke:#115566;fill:#115566;">Cac</text>
  <text for="Cac" x="700.0" y="305.0" style="font-family:arial;font-size:10px;stroke-width:0.1;stroke:#CC0000;fill:#CC0000;">12nF</text>
  <text for="Cac" x="700.0" y="315.0" style="font-family:arial;font-size:10px;stroke-width:0.1;stroke:#CC0000;fill:#CC0000;">0Ohm</text>
  <use id="Rfbb" class="comp" xlink:href="#WB_RESISTOR" x="870.0" y="380.0" transform="rotate(-90, 870.0, 380.0)" partNo="CRCW080510K0FKEA" manufacturer="Vishay-Dale" thermalId="0805" resistance="10kOhm" />
  <text for="Rfbb" x="885.0" y="380.0" style="font-family:arial;font-size:13px;stroke-width:0.5;stroke:#115566;fill:#115566;">Rfbb</text>
  <text for="Rfbb" x="885.0" y="390.0" style="font-family:arial;font-size:10px;stroke-width:0.1;stroke:#CC0000;fill:#CC0000;">10kOhm</text>
  <use id="Ron" class="comp" xlink:href="#WB_RESISTOR" x="310.0" y="235.0" transform="rotate(-180, 310.0, 235.0)" partNo="RC0201FR-7D866KL" thermalId="0201" resistance="866kOhm" manufacturer="Yageo" />
  <text for="Ron" x="290.0" y="220.0" style="font-family:arial;font-size:13px;stroke-width:0.5;stroke:#115566;fill:#115566;">Ron</text>
  <text for="Ron" x="290.0" y="255.0" style="font-family:arial;font-size:10px;stroke-width:0.1;stroke:#CC0000;fill:#CC0000;">866kOhm</text>
  <use id="L1" class="comp" xlink:href="#WB_INDUCTOR" x="700.0" y="235.0" partNo="SLF7045T-102MR14-PF" manufacturer="TDK" thermalId="SLF7045" l="1mH" dcr="2.28Ohm" />
  <text for="L1" x="680.0" y="220.0" style="font-family:arial;font-size:13px;stroke-width:0.5;stroke:#115566;fill:#115566;">L1</text>
  <text for="L1" x="680.0" y="255.0" style="font-family:arial;font-size:10px;stroke-width:0.1;stroke:#CC0000;fill:#CC0000;">1mH</text>
  <text for="L1" x="680.0" y="265.0" style="font-family:arial;font-size:10px;stroke-width:0.1;stroke:#CC0000;fill:#CC0000;">2.28Ohm</text>
  <use id="Cin" class="comp" xlink:href="#WB_CAPACITOR" x="165.0" y="365.0" transform="rotate(-90, 165.0, 365.0)" cap="1uF" partNo="C3216X7R2A105M160AA" thermalId="1206" esr="7.5mOhm" manufacturer="TDK" />
  <text for="Cin" x="180.0" y="365.0" style="font-family:arial;font-size:13px;stroke-width:0.5;stroke:#115566;fill:#115566;">Cin</text>
  <text for="Cin" x="180.0" y="375.0" style="font-family:arial;font-size:10px;stroke-width:0.1;stroke:#CC0000;fill:#CC0000;">1uF</text>
  <text for="Cin" x="180.0" y="385.0" style="font-family:arial;font-size:10px;stroke-width:0.1;stroke:#CC0000;fill:#CC0000;">7.5mOhm</text>
  <use id="GND" class="other" xlink:href="#WB_GND" x="525.0" y="465.0" />
  <use id="U1" class="comp" xlink:href="#WB_LM5009" x="440.0" y="215.0" />
  <text for="U1" x="420.0" y="215.0" style="font-family:arial;font-size:13px;stroke-width:0.5;stroke:#115566;fill:#115566;">U1</text>
  <use id="Cout" class="comp" xlink:href="#WB_CAPACITOR" x="940.0" y="325.0" transform="rotate(-90, 940.0, 325.0)" cap="22uF" partNo="GRM21BR61A226ME44L" manufacturer="MuRata" thermalId="0805" esr="3mOhm" />
  <text for="Cout" x="955.0" y="325.0" style="font-family:arial;font-size:13px;stroke-width:0.5;stroke:#115566;fill:#115566;">Cout</text>
  <text for="Cout" x="955.0" y="335.0" style="font-family:arial;font-size:10px;stroke-width:0.1;stroke:#CC0000;fill:#CC0000;">22uF</text>
  <text for="Cout" x="955.0" y="345.0" style="font-family:arial;font-size:10px;stroke-width:0.1;stroke:#CC0000;fill:#CC0000;">3mOhm</text>
  <text for="Cout" x="955.0" y="355.0" style="font-family:arial;font-size:10px;stroke-width:0.1;stroke:#CC0000;fill:#CC0000;">Qty=2</text>
  <use id="GND9999" class="other" xlink:href="#WB_GND" x="940.0" y="365.0" />
  <use id="Rilim" class="comp" xlink:href="#WB_RESISTOR" x="350.0" y="365.0" transform="rotate(-270, 350.0, 365.0)" partNo="RC0201FR-07133KL" thermalId="0201" resistance="133kOhm" manufacturer="Yageo" />
  <text for="Rilim" x="365.0" y="365.0" style="font-family:arial;font-size:13px;stroke-width:0.5;stroke:#115566;fill:#115566;">Rilim</text>
  <text for="Rilim" x="365.0" y="375.0" style="font-family:arial;font-size:10px;stroke-width:0.1;stroke:#CC0000;fill:#CC0000;">133kOhm</text>
  <use id="Rfbt" class="comp" xlink:href="#WB_RESISTOR" x="870.0" y="295.0" transform="rotate(-90, 870.0, 295.0)" partNo="CRCW080510K0FKEA" manufacturer="Vishay-Dale" thermalId="0805" resistance="10kOhm" />
  <text for="Rfbt" x="885.0" y="295.0" style="font-family:arial;font-size:13px;stroke-width:0.5;stroke:#115566;fill:#115566;">Rfbt</text>
  <text for="Rfbt" x="885.0" y="305.0" style="font-family:arial;font-size:10px;stroke-width:0.1;stroke:#CC0000;fill:#CC0000;">10kOhm</text>
  <use id="Cinx" class="comp" xlink:href="#WB_CAPACITOR" x="260.0" y="365.0" transform="rotate(-90, 260.0, 365.0)" cap="100nF" partNo="C2012X7T2E104K125AA" thermalId="0805" esr="1mOhm" manufacturer="TDK" />
  <text for="Cinx" x="275.0" y="365.0" style="font-family:arial;font-size:13px;stroke-width:0.5;stroke:#115566;fill:#115566;">Cinx</text>
  <text for="Cinx" x="275.0" y="375.0" style="font-family:arial;font-size:10px;stroke-width:0.1;stroke:#CC0000;fill:#CC0000;">100nF</text>
  <text for="Cinx" x="275.0" y="385.0" style="font-family:arial;font-size:10px;stroke-width:0.1;stroke:#CC0000;fill:#CC0000;">1mOhm</text>
  <use id="GND2" class="other" xlink:href="#WB_GND" x="680.0" y="175.0" />
  <use id="D1" class="comp" xlink:href="#WB_DIODE" x="630.0" y="110.0" vfatio="750mV" partNo="B1100LB-13-F" manufacturer="Diodes Inc." thermalId="SMB" io="1A" vrrm="" />
  <text for="D1" x="610.0" y="95.0" style="font-family:arial;font-size:13px;stroke-width:0.5;stroke:#115566;fill:#115566;">D1</text>
  <text for="D1" x="610.0" y="130.0" style="font-family:arial;font-size:10px;stroke-width:0.1;stroke:#CC0000;fill:#CC0000;">750mV</text>
  <text for="D1" x="610.0" y="140.0" style="font-family:arial;font-size:10px;stroke-width:0.1;stroke:#CC0000;fill:#CC0000;">1A</text>
  <use id="Cbyp" class="comp" xlink:href="#WB_CAPACITOR" x="490.0" y="365.0" transform="rotate(-90, 490.0, 365.0)" cap="1uF" partNo="C0805C105K4RACTU" thermalId="0805" esr="15mOhm" manufacturer="Kemet" />
  <text for="Cbyp" x="505.0" y="365.0" style="font-family:arial;font-size:13px;stroke-width:0.5;stroke:#115566;fill:#115566;">Cbyp</text>
  <text for="Cbyp" x="505.0" y="375.0" style="font-family:arial;font-size:10px;stroke-width:0.1;stroke:#CC0000;fill:#CC0000;">1uF</text>
  <text for="Cbyp" x="505.0" y="385.0" style="font-family:arial;font-size:10px;stroke-width:0.1;stroke:#CC0000;fill:#CC0000;">15mOhm</text>
  <use id="Cb" class="comp" xlink:href="#WB_CAPACITOR" x="465.0" y="110.0" transform="rotate(-180, 465.0, 110.0)" cap="10nF" partNo="GRM155R71H103KA88D" thermalId="0402" esr="1mOhm" manufacturer="MuRata" />
  <text for="Cb" x="445.0" y="95.0" style="font-family:arial;font-size:13px;stroke-width:0.5;stroke:#115566;fill:#115566;">Cb</text>
  <text for="Cb" x="445.0" y="130.0" style="font-family:arial;font-size:10px;stroke-width:0.1;stroke:#CC0000;fill:#CC0000;">10nF</text>
  <text for="Cb" x="445.0" y="140.0" style="font-family:arial;font-size:10px;stroke-width:0.1;stroke:#CC0000;fill:#CC0000;">1mOhm</text>
  <use id="Vin" class="other" xlink:href="#WB_BATTERY" x="100.0" y="315.0" transform="rotate(-270, 100.0, 315.0)" />
  <text for="Vin" x="115.0" y="315.0" style="font-family:arial;font-size:13px;stroke-width:0.5;stroke:#CC0000;fill:#CC0000;">Vin</text>
  <use id="Iout" class="other" xlink:href="#WB_CURRENT_LOAD" x="1020.0" y="375.0" transform="rotate(-270, 1020.0, 375.0)" />
  <text for="Iout" x="1035.0" y="375.0" style="font-family:arial;font-size:13px;stroke-width:0.5;stroke:#CC0000;fill:#CC0000;">Iout</text>
  <line x1="710.0" y1="265.0" x2="675.0" y2="265.0" stroke="#000000" stroke-width="2" fill="none" />
  <line x1="615.0" y1="265.0" x2="615.0" y2="235.0" stroke="#000000" stroke-width="2" fill="none" />
  <line x1="685.0" y1="335.0" x2="685.0" y2="325.0" stroke="#000000" stroke-width="2" fill="none" />
  <line x1="770.0" y1="265.0" x2="770.0" y2="235.0" stroke="#000000" stroke-width="2" fill="none" />
  <line x1="615.0" y1="245.0" x2="615.0" y2="235.0" stroke="#000000" stroke-width="2" fill="none" />
  <line x1="685.0" y1="335.0" x2="685.0" y2="325.0" stroke="#000000" stroke-width="2" fill="none" />
  <line x1="770.0" y1="245.0" x2="770.0" y2="235.0" stroke="#000000" stroke-width="2" fill="none" />
  <line x1="615.0" y1="245.0" x2="615.0" y2="235.0" stroke="#000000" stroke-width="2" fill="none" />
  <line x1="685.0" y1="335.0" x2="685.0" y2="325.0" stroke="#000000" stroke-width="2" fill="none" />
  <line x1="770.0" y1="245.0" x2="770.0" y2="235.0" stroke="#000000" stroke-width="2" fill="none" />
  <line x1="615.0" y1="245.0" x2="615.0" y2="235.0" stroke="#000000" stroke-width="2" fill="none" />
  <line x1="685.0" y1="335.0" x2="685.0" y2="325.0" stroke="#000000" stroke-width="2" fill="none" />
  <line x1="770.0" y1="245.0" x2="770.0" y2="235.0" stroke="#000000" stroke-width="2" fill="none" />
  <line x1="615.0" y1="245.0" x2="615.0" y2="235.0" stroke="#000000" stroke-width="2" fill="none" />
  <line x1="685.0" y1="335.0" x2="685.0" y2="325.0" stroke="#000000" stroke-width="2" fill="none" />
  <line x1="770.0" y1="245.0" x2="770.0" y2="235.0" stroke="#000000" stroke-width="2" fill="none" />
  <line x1="615.0" y1="245.0" x2="615.0" y2="235.0" stroke="#000000" stroke-width="2" fill="none" />
  <line x1="685.0" y1="335.0" x2="685.0" y2="325.0" stroke="#000000" stroke-width="2" fill="none" />
  <line x1="770.0" y1="245.0" x2="770.0" y2="235.0" stroke="#000000" stroke-width="2" fill="none" />
  <line x1="615.0" y1="245.0" x2="615.0" y2="235.0" stroke="#000000" stroke-width="2" fill="none" />
  <line x1="685.0" y1="335.0" x2="685.0" y2="325.0" stroke="#000000" stroke-width="2" fill="none" />
  <line x1="770.0" y1="245.0" x2="770.0" y2="235.0" stroke="#000000" stroke-width="2" fill="none" />
  <line x1="615.0" y1="245.0" x2="615.0" y2="235.0" stroke="#000000" stroke-width="2" fill="none" />
  <line x1="685.0" y1="335.0" x2="685.0" y2="325.0" stroke="#000000" stroke-width="2" fill="none" />
  <line x1="770.0" y1="245.0" x2="770.0" y2="235.0" stroke="#000000" stroke-width="2" fill="none" />
  <line x1="615.0" y1="245.0" x2="615.0" y2="235.0" stroke="#000000" stroke-width="2" fill="none" />
  <line x1="685.0" y1="335.0" x2="685.0" y2="325.0" stroke="#000000" stroke-width="2" fill="none" />
  <line x1="770.0" y1="245.0" x2="770.0" y2="235.0" stroke="#000000" stroke-width="2" fill="none" />
  <line x1="615.0" y1="245.0" x2="615.0" y2="235.0" stroke="#000000" stroke-width="2" fill="none" />
  <line x1="685.0" y1="335.0" x2="685.0" y2="325.0" stroke="#000000" stroke-width="2" fill="none" />
  <line x1="770.0" y1="245.0" x2="770.0" y2="235.0" stroke="#000000" stroke-width="2" fill="none" />
  <line x1="615.0" y1="245.0" x2="615.0" y2="235.0" stroke="#000000" stroke-width="2" fill="none" />
  <line x1="685.0" y1="335.0" x2="685.0" y2="325.0" stroke="#000000" stroke-width="2" fill="none" />
  <line x1="770.0" y1="245.0" x2="770.0" y2="235.0" stroke="#000000" stroke-width="2" fill="none" />
  <line x1="490.0" y1="275.0" x2="490.0" y2="335.0" stroke="#000000" stroke-width="2" fill="none" />
  <line x1="165.0" y1="395.0" x2="165.0" y2="455.0" stroke="#000000" stroke-width="2" fill="none" />
  <line x1="390.0" y1="300.0" x2="390.0" y2="275.0" stroke="#000000" stroke-width="2" fill="none" />
  <line x1="350.0" y1="395.0" x2="350.0" y2="455.0" stroke="#000000" stroke-width="2" fill="none" />
  <line x1="420.0" y1="155.0" x2="420.0" y2="110.0" stroke="#000000" stroke-width="2" fill="none" />
  <line x1="600.0" y1="110.0" x2="600.0" y2="235.0" stroke="#000000" stroke-width="2" fill="none" />
  <line x1="870.0" y1="325.0" x2="870.0" y2="350.0" stroke="#000000" stroke-width="2" fill="none" />
  <line x1="350.0" y1="300.0" x2="350.0" y2="335.0" stroke="#000000" stroke-width="2" fill="none" />
  <line x1="490.0" y1="395.0" x2="490.0" y2="455.0" stroke="#000000" stroke-width="2" fill="none" />
  <line x1="435.0" y1="110.0" x2="420.0" y2="110.0" stroke="#000000" stroke-width="2" fill="none" />
  <line x1="540.0" y1="235.0" x2="550.0" y2="235.0" stroke="#000000" stroke-width="2" fill="none" />
  <line x1="660.0" y1="110.0" x2="680.0" y2="110.0" stroke="#000000" stroke-width="2" fill="none" />
  <line x1="270.0" y1="185.0" x2="270.0" y2="235.0" stroke="#000000" stroke-width="2" fill="none" />
  <line x1="870.0" y1="265.0" x2="870.0" y2="235.0" stroke="#000000" stroke-width="2" fill="none" />
  <line x1="870.0" y1="410.0" x2="870.0" y2="455.0" stroke="#000000" stroke-width="2" fill="none" />
  <line x1="350.0" y1="300.0" x2="390.0" y2="300.0" stroke="#000000" stroke-width="2" fill="none" />
  <line x1="440.0" y1="275.0" x2="440.0" y2="455.0" stroke="#000000" stroke-width="2" fill="none" />
  <line x1="540.0" y1="185.0" x2="540.0" y2="110.0" stroke="#000000" stroke-width="2" fill="none" />
  <line x1="550.0" y1="335.0" x2="870.0" y2="335.0" stroke="#000000" stroke-width="2" fill="none" />
  <line x1="260.0" y1="395.0" x2="260.0" y2="455.0" stroke="#000000" stroke-width="2" fill="none" />
  <line x1="550.0" y1="235.0" x2="550.0" y2="335.0" stroke="#000000" stroke-width="2" fill="none" />
  <line x1="680.0" y1="165.0" x2="680.0" y2="110.0" stroke="#000000" stroke-width="2" fill="none" />
  <line x1="495.0" y1="110.0" x2="600.0" y2="110.0" stroke="#000000" stroke-width="2" fill="none" />
  <line x1="260.0" y1="335.0" x2="260.0" y2="235.0" stroke="#000000" stroke-width="2" fill="none" />
  <line x1="940.0" y1="295.0" x2="940.0" y2="235.0" stroke="#000000" stroke-width="2" fill="none" />
  <line x1="270.0" y1="185.0" x2="340.0" y2="185.0" stroke="#000000" stroke-width="2" fill="none" />
  <line x1="600.0" y1="235.0" x2="670.0" y2="235.0" stroke="#000000" stroke-width="2" fill="none" />
  <line x1="165.0" y1="335.0" x2="165.0" y2="235.0" stroke="#000000" stroke-width="2" fill="none" />
  <line x1="730.0" y1="235.0" x2="1020.0" y2="235.0" stroke="#000000" stroke-width="2" fill="none" />
  <line x1="100.0" y1="235.0" x2="280.0" y2="235.0" stroke="#000000" stroke-width="2" fill="none" />
  <line x1="680.0" y1="145.0" x2="680.0" y2="115.0" stroke="#000000" stroke-width="2" fill="none" />
  <line x1="550.0" y1="110.0" x2="580.0" y2="110.0" stroke="#000000" stroke-width="2" fill="none" />
  <line x1="260.0" y1="325.0" x2="260.0" y2="295.0" stroke="#000000" stroke-width="2" fill="none" />
  <line x1="940.0" y1="275.0" x2="940.0" y2="245.0" stroke="#000000" stroke-width="2" fill="none" />
  <line x1="290.0" y1="185.0" x2="320.0" y2="185.0" stroke="#000000" stroke-width="2" fill="none" />
  <line x1="640.0" y1="235.0" x2="670.0" y2="235.0" stroke="#000000" stroke-width="2" fill="none" />
  <line x1="165.0" y1="325.0" x2="165.0" y2="295.0" stroke="#000000" stroke-width="2" fill="none" />
  <line x1="1010.0" y1="235.0" x2="1020.0" y2="235.0" stroke="#000000" stroke-width="2" fill="none" />
  <line x1="680.0" y1="145.0" x2="680.0" y2="115.0" stroke="#000000" stroke-width="2" fill="none" />
  <line x1="550.0" y1="110.0" x2="580.0" y2="110.0" stroke="#000000" stroke-width="2" fill="none" />
  <line x1="260.0" y1="325.0" x2="260.0" y2="295.0" stroke="#000000" stroke-width="2" fill="none" />
  <line x1="940.0" y1="275.0" x2="940.0" y2="245.0" stroke="#000000" stroke-width="2" fill="none" />
  <line x1="290.0" y1="185.0" x2="320.0" y2="185.0" stroke="#000000" stroke-width="2" fill="none" />
  <line x1="640.0" y1="235.0" x2="670.0" y2="235.0" stroke="#000000" stroke-width="2" fill="none" />
  <line x1="165.0" y1="325.0" x2="165.0" y2="295.0" stroke="#000000" stroke-width="2" fill="none" />
  <line x1="1010.0" y1="235.0" x2="1020.0" y2="235.0" stroke="#000000" stroke-width="2" fill="none" />
  <line x1="680.0" y1="145.0" x2="680.0" y2="115.0" stroke="#000000" stroke-width="2" fill="none" />
  <line x1="550.0" y1="110.0" x2="580.0" y2="110.0" stroke="#000000" stroke-width="2" fill="none" />
  <line x1="260.0" y1="325.0" x2="260.0" y2="295.0" stroke="#000000" stroke-width="2" fill="none" />
  <line x1="940.0" y1="275.0" x2="940.0" y2="245.0" stroke="#000000" stroke-width="2" fill="none" />
  <line x1="290.0" y1="185.0" x2="320.0" y2="185.0" stroke="#000000" stroke-width="2" fill="none" />
  <line x1="640.0" y1="235.0" x2="670.0" y2="235.0" stroke="#000000" stroke-width="2" fill="none" />
  <line x1="165.0" y1="325.0" x2="165.0" y2="295.0" stroke="#000000" stroke-width="2" fill="none" />
  <line x1="1010.0" y1="235.0" x2="1020.0" y2="235.0" stroke="#000000" stroke-width="2" fill="none" />
  <line x1="680.0" y1="145.0" x2="680.0" y2="115.0" stroke="#000000" stroke-width="2" fill="none" />
  <line x1="550.0" y1="110.0" x2="580.0" y2="110.0" stroke="#000000" stroke-width="2" fill="none" />
  <line x1="260.0" y1="325.0" x2="260.0" y2="295.0" stroke="#000000" stroke-width="2" fill="none" />
  <line x1="940.0" y1="275.0" x2="940.0" y2="245.0" stroke="#000000" stroke-width="2" fill="none" />
  <line x1="290.0" y1="185.0" x2="320.0" y2="185.0" stroke="#000000" stroke-width="2" fill="none" />
  <line x1="640.0" y1="235.0" x2="670.0" y2="235.0" stroke="#000000" stroke-width="2" fill="none" />
  <line x1="165.0" y1="325.0" x2="165.0" y2="295.0" stroke="#000000" stroke-width="2" fill="none" />
  <line x1="1010.0" y1="235.0" x2="1020.0" y2="235.0" stroke="#000000" stroke-width="2" fill="none" />
  <line x1="680.0" y1="145.0" x2="680.0" y2="115.0" stroke="#000000" stroke-width="2" fill="none" />
  <line x1="550.0" y1="110.0" x2="580.0" y2="110.0" stroke="#000000" stroke-width="2" fill="none" />
  <line x1="260.0" y1="325.0" x2="260.0" y2="295.0" stroke="#000000" stroke-width="2" fill="none" />
  <line x1="940.0" y1="275.0" x2="940.0" y2="245.0" stroke="#000000" stroke-width="2" fill="none" />
  <line x1="290.0" y1="185.0" x2="320.0" y2="185.0" stroke="#000000" stroke-width="2" fill="none" />
  <line x1="640.0" y1="235.0" x2="670.0" y2="235.0" stroke="#000000" stroke-width="2" fill="none" />
  <line x1="165.0" y1="325.0" x2="165.0" y2="295.0" stroke="#000000" stroke-width="2" fill="none" />
  <line x1="1010.0" y1="235.0" x2="1020.0" y2="235.0" stroke="#000000" stroke-width="2" fill="none" />
  <line x1="680.0" y1="145.0" x2="680.0" y2="115.0" stroke="#000000" stroke-width="2" fill="none" />
  <line x1="550.0" y1="110.0" x2="580.0" y2="110.0" stroke="#000000" stroke-width="2" fill="none" />
  <line x1="260.0" y1="325.0" x2="260.0" y2="295.0" stroke="#000000" stroke-width="2" fill="none" />
  <line x1="940.0" y1="275.0" x2="940.0" y2="245.0" stroke="#000000" stroke-width="2" fill="none" />
  <line x1="290.0" y1="185.0" x2="320.0" y2="185.0" stroke="#000000" stroke-width="2" fill="none" />
  <line x1="640.0" y1="235.0" x2="670.0" y2="235.0" stroke="#000000" stroke-width="2" fill="none" />
  <line x1="165.0" y1="325.0" x2="165.0" y2="295.0" stroke="#000000" stroke-width="2" fill="none" />
  <line x1="1010.0" y1="235.0" x2="1020.0" y2="235.0" stroke="#000000" stroke-width="2" fill="none" />
  <line x1="680.0" y1="145.0" x2="680.0" y2="115.0" stroke="#000000" stroke-width="2" fill="none" />
  <line x1="550.0" y1="110.0" x2="580.0" y2="110.0" stroke="#000000" stroke-width="2" fill="none" />
  <line x1="260.0" y1="325.0" x2="260.0" y2="295.0" stroke="#000000" stroke-width="2" fill="none" />
  <line x1="940.0" y1="275.0" x2="940.0" y2="245.0" stroke="#000000" stroke-width="2" fill="none" />
  <line x1="290.0" y1="185.0" x2="320.0" y2="185.0" stroke="#000000" stroke-width="2" fill="none" />
  <line x1="640.0" y1="235.0" x2="670.0" y2="235.0" stroke="#000000" stroke-width="2" fill="none" />
  <line x1="165.0" y1="325.0" x2="165.0" y2="295.0" stroke="#000000" stroke-width="2" fill="none" />
  <line x1="1010.0" y1="235.0" x2="1020.0" y2="235.0" stroke="#000000" stroke-width="2" fill="none" />
  <line x1="680.0" y1="145.0" x2="680.0" y2="115.0" stroke="#000000" stroke-width="2" fill="none" />
  <line x1="550.0" y1="110.0" x2="580.0" y2="110.0" stroke="#000000" stroke-width="2" fill="none" />
  <line x1="260.0" y1="325.0" x2="260.0" y2="295.0" stroke="#000000" stroke-width="2" fill="none" />
  <line x1="940.0" y1="275.0" x2="940.0" y2="245.0" stroke="#000000" stroke-width="2" fill="none" />
  <line x1="290.0" y1="185.0" x2="320.0" y2="185.0" stroke="#000000" stroke-width="2" fill="none" />
  <line x1="640.0" y1="235.0" x2="670.0" y2="235.0" stroke="#000000" stroke-width="2" fill="none" />
  <line x1="165.0" y1="325.0" x2="165.0" y2="295.0" stroke="#000000" stroke-width="2" fill="none" />
  <line x1="1010.0" y1="235.0" x2="1020.0" y2="235.0" stroke="#000000" stroke-width="2" fill="none" />
  <line x1="680.0" y1="145.0" x2="680.0" y2="115.0" stroke="#000000" stroke-width="2" fill="none" />
  <line x1="550.0" y1="110.0" x2="580.0" y2="110.0" stroke="#000000" stroke-width="2" fill="none" />
  <line x1="260.0" y1="325.0" x2="260.0" y2="295.0" stroke="#000000" stroke-width="2" fill="none" />
  <line x1="940.0" y1="275.0" x2="940.0" y2="245.0" stroke="#000000" stroke-width="2" fill="none" />
  <line x1="290.0" y1="185.0" x2="320.0" y2="185.0" stroke="#000000" stroke-width="2" fill="none" />
  <line x1="640.0" y1="235.0" x2="670.0" y2="235.0" stroke="#000000" stroke-width="2" fill="none" />
  <line x1="165.0" y1="325.0" x2="165.0" y2="295.0" stroke="#000000" stroke-width="2" fill="none" />
  <line x1="1010.0" y1="235.0" x2="1020.0" y2="235.0" stroke="#000000" stroke-width="2" fill="none" />
  <line x1="680.0" y1="145.0" x2="680.0" y2="115.0" stroke="#000000" stroke-width="2" fill="none" />
  <line x1="550.0" y1="110.0" x2="580.0" y2="110.0" stroke="#000000" stroke-width="2" fill="none" />
  <line x1="260.0" y1="325.0" x2="260.0" y2="295.0" stroke="#000000" stroke-width="2" fill="none" />
  <line x1="940.0" y1="275.0" x2="940.0" y2="245.0" stroke="#000000" stroke-width="2" fill="none" />
  <line x1="290.0" y1="185.0" x2="320.0" y2="185.0" stroke="#000000" stroke-width="2" fill="none" />
  <line x1="640.0" y1="235.0" x2="670.0" y2="235.0" stroke="#000000" stroke-width="2" fill="none" />
  <line x1="165.0" y1="325.0" x2="165.0" y2="295.0" stroke="#000000" stroke-width="2" fill="none" />
  <line x1="1010.0" y1="235.0" x2="1020.0" y2="235.0" stroke="#000000" stroke-width="2" fill="none" />
  <line x1="100.0" y1="235.0" x2="110.0" y2="235.0" stroke="#000000" stroke-width="2" fill="none" />
  <line x1="100.0" y1="455.0" x2="1020.0" y2="455.0" stroke="#000000" stroke-width="2" fill="none" />
  <line x1="100.0" y1="285.0" x2="100.0" y2="235.0" stroke="#000000" stroke-width="2" fill="none" />
  <line x1="100.0" y1="455.0" x2="100.0" y2="345.0" stroke="#000000" stroke-width="2" fill="none" />
  <line x1="100.0" y1="245.0" x2="100.0" y2="235.0" stroke="#000000" stroke-width="2" fill="none" />
  <line x1="100.0" y1="455.0" x2="100.0" y2="445.0" stroke="#000000" stroke-width="2" fill="none" />
  <line x1="100.0" y1="245.0" x2="100.0" y2="235.0" stroke="#000000" stroke-width="2" fill="none" />
  <line x1="100.0" y1="455.0" x2="100.0" y2="445.0" stroke="#000000" stroke-width="2" fill="none" />
  <line x1="100.0" y1="245.0" x2="100.0" y2="235.0" stroke="#000000" stroke-width="2" fill="none" />
  <line x1="100.0" y1="455.0" x2="100.0" y2="445.0" stroke="#000000" stroke-width="2" fill="none" />
  <line x1="100.0" y1="245.0" x2="100.0" y2="235.0" stroke="#000000" stroke-width="2" fill="none" />
  <line x1="100.0" y1="455.0" x2="100.0" y2="445.0" stroke="#000000" stroke-width="2" fill="none" />
  <line x1="100.0" y1="245.0" x2="100.0" y2="235.0" stroke="#000000" stroke-width="2" fill="none" />
  <line x1="100.0" y1="455.0" x2="100.0" y2="445.0" stroke="#000000" stroke-width="2" fill="none" />
  <line x1="100.0" y1="245.0" x2="100.0" y2="235.0" stroke="#000000" stroke-width="2" fill="none" />
  <line x1="100.0" y1="455.0" x2="100.0" y2="445.0" stroke="#000000" stroke-width="2" fill="none" />
  <line x1="100.0" y1="245.0" x2="100.0" y2="235.0" stroke="#000000" stroke-width="2" fill="none" />
  <line x1="100.0" y1="455.0" x2="100.0" y2="445.0" stroke="#000000" stroke-width="2" fill="none" />
  <line x1="100.0" y1="245.0" x2="100.0" y2="235.0" stroke="#000000" stroke-width="2" fill="none" />
  <line x1="100.0" y1="455.0" x2="100.0" y2="445.0" stroke="#000000" stroke-width="2" fill="none" />
  <line x1="100.0" y1="245.0" x2="100.0" y2="235.0" stroke="#000000" stroke-width="2" fill="none" />
  <line x1="100.0" y1="455.0" x2="100.0" y2="445.0" stroke="#000000" stroke-width="2" fill="none" />
  <line x1="100.0" y1="245.0" x2="100.0" y2="235.0" stroke="#000000" stroke-width="2" fill="none" />
  <line x1="100.0" y1="455.0" x2="100.0" y2="445.0" stroke="#000000" stroke-width="2" fill="none" />
  <line x1="1020.0" y1="345.0" x2="1020.0" y2="235.0" stroke="#000000" stroke-width="2" fill="none" />
  <line x1="1020.0" y1="455.0" x2="1020.0" y2="405.0" stroke="#000000" stroke-width="2" fill="none" />
  <line x1="1020.0" y1="245.0" x2="1020.0" y2="235.0" stroke="#000000" stroke-width="2" fill="none" />
  <line x1="1020.0" y1="455.0" x2="1020.0" y2="445.0" stroke="#000000" stroke-width="2" fill="none" />
  <line x1="1020.0" y1="245.0" x2="1020.0" y2="235.0" stroke="#000000" stroke-width="2" fill="none" />
  <line x1="1020.0" y1="455.0" x2="1020.0" y2="445.0" stroke="#000000" stroke-width="2" fill="none" />
  <line x1="1020.0" y1="245.0" x2="1020.0" y2="235.0" stroke="#000000" stroke-width="2" fill="none" />
  <line x1="1020.0" y1="455.0" x2="1020.0" y2="445.0" stroke="#000000" stroke-width="2" fill="none" />
  <line x1="1020.0" y1="245.0" x2="1020.0" y2="235.0" stroke="#000000" stroke-width="2" fill="none" />
  <line x1="1020.0" y1="455.0" x2="1020.0" y2="445.0" stroke="#000000" stroke-width="2" fill="none" />
  <line x1="1020.0" y1="245.0" x2="1020.0" y2="235.0" stroke="#000000" stroke-width="2" fill="none" />
  <line x1="1020.0" y1="455.0" x2="1020.0" y2="445.0" stroke="#000000" stroke-width="2" fill="none" />
  <line x1="1020.0" y1="245.0" x2="1020.0" y2="235.0" stroke="#000000" stroke-width="2" fill="none" />
  <line x1="1020.0" y1="455.0" x2="1020.0" y2="445.0" stroke="#000000" stroke-width="2" fill="none" />
  <line x1="1020.0" y1="245.0" x2="1020.0" y2="235.0" stroke="#000000" stroke-width="2" fill="none" />
  <line x1="1020.0" y1="455.0" x2="1020.0" y2="445.0" stroke="#000000" stroke-width="2" fill="none" />
  <line x1="1020.0" y1="245.0" x2="1020.0" y2="235.0" stroke="#000000" stroke-width="2" fill="none" />
  <line x1="1020.0" y1="455.0" x2="1020.0" y2="445.0" stroke="#000000" stroke-width="2" fill="none" />
  <line x1="1020.0" y1="245.0" x2="1020.0" y2="235.0" stroke="#000000" stroke-width="2" fill="none" />
  <line x1="1020.0" y1="455.0" x2="1020.0" y2="445.0" stroke="#000000" stroke-width="2" fill="none" />
  <line x1="1020.0" y1="245.0" x2="1020.0" y2="235.0" stroke="#000000" stroke-width="2" fill="none" />
  <line x1="1020.0" y1="455.0" x2="1020.0" y2="445.0" stroke="#000000" stroke-width="2" fill="none" />
  <line x1="340.0" y1="235.0" x2="340.0" y2="235.0" stroke="#000000" stroke-width="2" fill="none" />
  <line x1="940.0" y1="355.0" x2="940.0" y2="355.0" stroke="#000000" stroke-width="2" fill="none" />
  <circle cx="870.0" cy="335.0" r="5" stroke="#000000" stroke-width="0" fill="#000000" />
  <circle cx="685.0" cy="335.0" r="5" stroke="#000000" stroke-width="0" fill="#000000" />
  <circle cx="540.0" cy="110.0" r="5" stroke="#000000" stroke-width="0" fill="#000000" />
  <circle cx="615.0" cy="235.0" r="5" stroke="#000000" stroke-width="0" fill="#000000" />
  <circle cx="770.0" cy="235.0" r="5" stroke="#000000" stroke-width="0" fill="#000000" />
  <circle cx="870.0" cy="235.0" r="5" stroke="#000000" stroke-width="0" fill="#000000" />
  <circle cx="940.0" cy="235.0" r="5" stroke="#000000" stroke-width="0" fill="#000000" />
  <circle cx="270.0" cy="235.0" r="5" stroke="#000000" stroke-width="0" fill="#000000" />
  <circle cx="260.0" cy="235.0" r="5" stroke="#000000" stroke-width="0" fill="#000000" />
  <circle cx="165.0" cy="235.0" r="5" stroke="#000000" stroke-width="0" fill="#000000" />
  <circle cx="165.0" cy="455.0" r="5" stroke="#000000" stroke-width="0" fill="#000000" />
  <circle cx="350.0" cy="455.0" r="5" stroke="#000000" stroke-width="0" fill="#000000" />
  <circle cx="490.0" cy="455.0" r="5" stroke="#000000" stroke-width="0" fill="#000000" />
  <circle cx="870.0" cy="455.0" r="5" stroke="#000000" stroke-width="0" fill="#000000" />
  <circle cx="440.0" cy="455.0" r="5" stroke="#000000" stroke-width="0" fill="#000000" />
  <circle cx="260.0" cy="455.0" r="5" stroke="#000000" stroke-width="0" fill="#000000" />
  <circle cx="685.0" cy="265.0" r="5" stroke="#000000" stroke-width="0" fill="#000000" />
  <circle cx="600.0" cy="110.0" r="5" stroke="#000000" stroke-width="0" fill="#000000" />
  <circle cx="525.0" cy="455.0" r="5" stroke="#000000" stroke-width="0" fill="#000000" />
</svg>

